<svg xmlns="http://www.w3.org/2000/svg" fill="none" viewBox="0 0 1092 508" height="508" width="1092">
<g filter="url(#filter0_dd_2381_197)">
<rect shape-rendering="crispEdges" fill="#FFEED8" height="495" width="1080" y="0.398438" x="12"></rect>
<rect shape-rendering="crispEdges" stroke-width="3" stroke="#0C0C0C" height="492" width="1077" y="1.89844" x="13.5"></rect>
</g>
<mask fill="white" id="path-3-inside-1_2381_197">
<path d="M12 0.398438H1092V46.3984H12V0.398438Z"></path>
</mask>
<path fill="url(#paint0_linear_2381_197)" d="M12 0.398438H1092V46.3984H12V0.398438Z"></path>
<path mask="url(#path-3-inside-1_2381_197)" fill="black" d="M12 0.398438V-2.60156H9V0.398438H12ZM1092 0.398438H1095V-2.60156H1092V0.398438ZM12 3.39844H1092V-2.60156H12V3.39844ZM1089 0.398438V46.3984H1095V0.398438H1089ZM15 46.3984V0.398438H9V46.3984H15Z"></path>
<g filter="url(#filter1_i_2381_197)">
<rect fill-opacity="0.8" fill="#D9D9D9" height="29" width="29" y="10.4124" x="27"></rect>
</g>
<g filter="url(#filter2_i_2381_197)">
<rect fill-opacity="0.8" fill="#D9D9D9" height="29" width="29" y="10.4124" x="64"></rect>
</g>
<path fill="#D9D9D9" d="M120.128 32.7005C114.872 32.7005 111.416 28.9565 111.416 24.0605V24.0125C111.416 19.3085 115.016 15.3245 120.08 15.3245C123.008 15.3245 124.808 16.1405 126.536 17.6045L124.664 19.8365C123.368 18.7325 122.096 18.0365 119.96 18.0365C116.864 18.0365 114.512 20.7485 114.512 23.9645V24.0125C114.512 27.4685 116.792 30.0125 120.224 30.0125C121.808 30.0125 123.248 29.5085 124.28 28.7405V25.5965H119.984V23.0285H127.136V30.0845C125.48 31.5005 123.104 32.7005 120.128 32.7005Z"></path>
<path fill="#D9D9D9" d="M139.236 32.7005C134.076 32.7005 130.476 28.7885 130.476 24.0605V24.0125C130.476 19.2845 134.124 15.3245 139.284 15.3245C144.444 15.3245 148.044 19.2365 148.044 23.9645V24.0125C148.044 28.7405 144.396 32.7005 139.236 32.7005ZM139.284 29.9645C142.62 29.9645 144.948 27.3245 144.948 24.0605V24.0125C144.948 20.7485 142.572 18.0365 139.236 18.0365C135.9 18.0365 133.572 20.7005 133.572 23.9645V24.0125C133.572 27.2765 135.948 29.9645 139.284 29.9645Z"></path>
<path fill="#D9D9D9" d="M159.867 32.7005C154.707 32.7005 151.107 28.7885 151.107 24.0605V24.0125C151.107 19.2845 154.755 15.3245 159.915 15.3245C165.075 15.3245 168.675 19.2365 168.675 23.9645V24.0125C168.675 28.7405 165.027 32.7005 159.867 32.7005ZM159.915 29.9645C163.251 29.9645 165.579 27.3245 165.579 24.0605V24.0125C165.579 20.7485 163.203 18.0365 159.867 18.0365C156.531 18.0365 154.203 20.7005 154.203 23.9645V24.0125C154.203 27.2765 156.579 29.9645 159.915 29.9645Z"></path>
<path fill="#D9D9D9" d="M172.482 32.4125V15.6125H178.746C184.026 15.6125 187.674 19.2365 187.674 23.9645V24.0125C187.674 28.7405 184.026 32.4125 178.746 32.4125H172.482ZM178.746 18.3005H175.434V29.7245H178.746C182.274 29.7245 184.578 27.3485 184.578 24.0605V24.0125C184.578 20.7245 182.274 18.3005 178.746 18.3005Z"></path>
<path fill="#D9D9D9" d="M204.474 32.5325L197.49 15.6125H200.754L205.818 28.5245L210.858 15.6125H214.05L207.09 32.5325H204.474Z"></path>
<path fill="#D9D9D9" d="M217.338 32.4125V15.6125H220.29V32.4125H217.338Z"></path>
<path fill="#D9D9D9" d="M225.028 32.4125V15.6125H232.564C234.484 15.6125 235.996 16.1405 236.956 17.1005C237.7 17.8445 238.084 18.7565 238.084 19.8845V19.9325C238.084 21.9485 236.932 23.0285 235.684 23.6765C237.652 24.3485 239.02 25.4765 239.02 27.7565V27.8045C239.02 30.8045 236.548 32.4125 232.804 32.4125H225.028ZM235.132 20.4125V20.3645C235.132 19.0445 234.076 18.2285 232.18 18.2285H227.932V22.6925H231.964C233.86 22.6925 235.132 21.9485 235.132 20.4125ZM236.068 27.4445C236.068 26.0285 234.94 25.1885 232.612 25.1885H227.932V29.7965H232.828C234.844 29.7965 236.068 29.0045 236.068 27.4925V27.4445Z"></path>
<path fill="#D9D9D9" d="M242.588 32.4125V15.6125H255.044V18.2525H245.54V22.6205H253.964V25.2605H245.54V29.7725H255.164V32.4125H242.588Z"></path>
<path fill="#D9D9D9" d="M264.786 32.6525C262.218 32.6525 259.794 31.7645 257.778 29.9645L259.554 27.8525C261.162 29.2445 262.794 30.0365 264.858 30.0365C266.682 30.0365 267.834 29.1725 267.834 27.9245V27.8765C267.834 26.6765 267.162 26.0285 264.042 25.3085C260.466 24.4445 258.45 23.3885 258.45 20.2925V20.2445C258.45 17.3645 260.85 15.3725 264.186 15.3725C266.634 15.3725 268.578 16.1165 270.282 17.4845L268.698 19.7165C267.186 18.5885 265.674 17.9885 264.138 17.9885C262.41 17.9885 261.402 18.8765 261.402 19.9805V20.0285C261.402 21.3245 262.17 21.9005 265.41 22.6685C268.962 23.5325 270.786 24.8045 270.786 27.5885V27.6365C270.786 30.7805 268.314 32.6525 264.786 32.6525Z"></path>
<path fill="#D9D9D9" d="M281.933 32.4125V15.6125H294.437V18.3005H284.885V22.8845H293.357V25.5725H284.885V32.4125H281.933Z"></path>
<path fill="#D9D9D9" d="M305.798 32.7005C300.638 32.7005 297.038 28.7885 297.038 24.0605V24.0125C297.038 19.2845 300.686 15.3245 305.846 15.3245C311.006 15.3245 314.606 19.2365 314.606 23.9645V24.0125C314.606 28.7405 310.958 32.7005 305.798 32.7005ZM305.846 29.9645C309.182 29.9645 311.51 27.3245 311.51 24.0605V24.0125C311.51 20.7485 309.134 18.0365 305.798 18.0365C302.462 18.0365 300.134 20.7005 300.134 23.9645V24.0125C300.134 27.2765 302.51 29.9645 305.846 29.9645Z"></path>
<path fill="#D9D9D9" d="M318.413 32.4125V15.6125H325.901C328.013 15.6125 329.669 16.2365 330.749 17.2925C331.637 18.2045 332.141 19.4525 332.141 20.9165V20.9645C332.141 23.7245 330.485 25.3805 328.157 26.0525L332.693 32.4125H329.189L325.061 26.5565H321.365V32.4125H318.413ZM321.365 23.9405H325.685C327.797 23.9405 329.141 22.8365 329.141 21.1325V21.0845C329.141 19.2845 327.845 18.3005 325.661 18.3005H321.365V23.9405Z"></path>
<path fill="#D9D9D9" d="M348.376 32.4125V25.7885L341.704 15.6125H345.208L349.888 23.0285L354.64 15.6125H358.024L351.352 25.7165V32.4125H348.376Z"></path>
<path fill="#D9D9D9" d="M367.438 32.7005C362.278 32.7005 358.678 28.7885 358.678 24.0605V24.0125C358.678 19.2845 362.326 15.3245 367.486 15.3245C372.646 15.3245 376.246 19.2365 376.246 23.9645V24.0125C376.246 28.7405 372.598 32.7005 367.438 32.7005ZM367.486 29.9645C370.822 29.9645 373.15 27.3245 373.15 24.0605V24.0125C373.15 20.7485 370.774 18.0365 367.438 18.0365C364.102 18.0365 361.774 20.7005 361.774 23.9645V24.0125C361.774 27.2765 364.15 29.9645 367.486 29.9645Z"></path>
<path fill="#D9D9D9" d="M386.94 32.6765C382.572 32.6765 379.789 30.1565 379.789 25.2845V15.6125H382.741V25.1645C382.741 28.2845 384.348 29.9405 386.988 29.9405C389.604 29.9405 391.212 28.3805 391.212 25.2845V15.6125H394.164V25.1405C394.164 30.1565 391.332 32.6765 386.94 32.6765Z"></path>
<path fill="#D9D9D9" d="M398.457 32.4125V15.6125H405.945C408.057 15.6125 409.713 16.2365 410.793 17.2925C411.681 18.2045 412.185 19.4525 412.185 20.9165V20.9645C412.185 23.7245 410.529 25.3805 408.201 26.0525L412.737 32.4125H409.233L405.105 26.5565H401.409V32.4125H398.457ZM401.409 23.9405H405.729C407.841 23.9405 409.185 22.8365 409.185 21.1325V21.0845C409.185 19.2845 407.889 18.3005 405.705 18.3005H401.409V23.9405Z"></path>
<path fill="#D9D9D9" d="M423.644 32.4125V15.6125H426.596V32.4125H423.644Z"></path>
<path fill="#D9D9D9" d="M431.333 32.4125V15.6125H434.069L443.069 27.2285V15.6125H445.973V32.4125H443.501L434.237 20.4605V32.4125H431.333Z"></path>
<path fill="#D9D9D9" d="M456.414 32.6525C453.846 32.6525 451.422 31.7645 449.406 29.9645L451.182 27.8525C452.79 29.2445 454.422 30.0365 456.486 30.0365C458.31 30.0365 459.462 29.1725 459.462 27.9245V27.8765C459.462 26.6765 458.79 26.0285 455.67 25.3085C452.094 24.4445 450.078 23.3885 450.078 20.2925V20.2445C450.078 17.3645 452.478 15.3725 455.814 15.3725C458.262 15.3725 460.206 16.1165 461.91 17.4845L460.326 19.7165C458.814 18.5885 457.302 17.9885 455.766 17.9885C454.038 17.9885 453.03 18.8765 453.03 19.9805V20.0285C453.03 21.3245 453.798 21.9005 457.038 22.6685C460.59 23.5325 462.414 24.8045 462.414 27.5885V27.6365C462.414 30.7805 459.942 32.6525 456.414 32.6525Z"></path>
<path fill="#D9D9D9" d="M466.293 32.4125V15.6125H469.245V32.4125H466.293Z"></path>
<path fill="#D9D9D9" d="M473.983 32.4125V15.6125H480.247C485.527 15.6125 489.175 19.2365 489.175 23.9645V24.0125C489.175 28.7405 485.527 32.4125 480.247 32.4125H473.983ZM480.247 18.3005H476.935V29.7245H480.247C483.775 29.7245 486.079 27.3485 486.079 24.0605V24.0125C486.079 20.7245 483.775 18.3005 480.247 18.3005Z"></path>
<path fill="#D9D9D9" d="M492.996 32.4125V15.6125H505.452V18.2525H495.948V22.6205H504.372V25.2605H495.948V29.7725H505.572V32.4125H492.996Z"></path>
<path fill="#D9D9D9" d="M515.194 32.6525C512.626 32.6525 510.202 31.7645 508.186 29.9645L509.962 27.8525C511.57 29.2445 513.202 30.0365 515.266 30.0365C517.09 30.0365 518.242 29.1725 518.242 27.9245V27.8765C518.242 26.6765 517.57 26.0285 514.45 25.3085C510.874 24.4445 508.858 23.3885 508.858 20.2925V20.2445C508.858 17.3645 511.258 15.3725 514.594 15.3725C517.042 15.3725 518.986 16.1165 520.69 17.4845L519.106 19.7165C517.594 18.5885 516.082 17.9885 514.546 17.9885C512.818 17.9885 511.81 18.8765 511.81 19.9805V20.0285C511.81 21.3245 512.578 21.9005 515.818 22.6685C519.37 23.5325 521.194 24.8045 521.194 27.5885V27.6365C521.194 30.7805 518.722 32.6525 515.194 32.6525Z"></path>
<mask fill="white" id="path-8-inside-2_2381_197">
<path d="M1092 16.4124L1092 409.412L1054 409.412L1054 16.4124L1092 16.4124Z"></path>
</mask>
<path fill="#D9D9D9" d="M1092 16.4124L1092 409.412L1054 409.412L1054 16.4124L1092 16.4124Z"></path>
<path mask="url(#path-8-inside-2_2381_197)" fill="black" d="M1092 16.4124L1096 16.4124L1096 14.4124L1092 14.4124L1092 16.4124ZM1092 409.412L1092 411.412L1096 411.412L1096 409.412L1092 409.412ZM1054 409.412L1052 409.412L1052 411.412L1054 411.412L1054 409.412ZM1054 16.4124L1054 14.4124L1052 14.4124L1052 16.4124L1054 16.4124ZM1088 16.4124L1088 409.412L1096 409.412L1096 16.4124L1088 16.4124ZM1092 407.412L1054 407.412L1054 411.412L1092 411.412L1092 407.412ZM1056 409.412L1056 16.4124L1052 16.4124L1052 409.412L1056 409.412ZM1054 18.4124L1092 18.4124L1092 14.4124L1054 14.4124L1054 18.4124Z"></path>
<g filter="url(#filter3_i_2381_197)">
<path fill="#AEAEAE" d="M1082.73 22.2319L1082.73 33.5097L1058.77 33.5097L1058.77 22.2319L1082.73 22.2319Z"></path>
</g>
<g filter="url(#filter4_i_2381_197)">
<path fill="#AEAEAE" d="M1083 39.4124L1083 374.412L1059 374.412L1059 39.4124L1083 39.4124Z"></path>
</g>
<g filter="url(#filter5_i_2381_197)">
<path fill="#AEAEAE" d="M1082.73 392.398L1082.73 403.676L1058.77 403.676L1058.77 392.398L1082.73 392.398Z"></path>
</g>
<defs>
<filter color-interpolation-filters="sRGB" filterUnits="userSpaceOnUse" height="507" width="1092" y="0.398438" x="0" id="filter0_dd_2381_197">
<feFlood result="BackgroundImageFix" flood-opacity="0"></feFlood>
<feColorMatrix result="hardAlpha" values="0 0 0 0 0 0 0 0 0 0 0 0 0 0 0 0 0 0 127 0" type="matrix" in="SourceAlpha"></feColorMatrix>
<feOffset dy="12" dx="-12"></feOffset>
<feComposite operator="out" in2="hardAlpha"></feComposite>
<feColorMatrix values="0 0 0 0 1 0 0 0 0 0.85416 0 0 0 0 0.681803 0 0 0 1 0" type="matrix"></feColorMatrix>
<feBlend result="effect1_dropShadow_2381_197" in2="BackgroundImageFix" mode="normal"></feBlend>
<feColorMatrix result="hardAlpha" values="0 0 0 0 0 0 0 0 0 0 0 0 0 0 0 0 0 0 127 0" type="matrix" in="SourceAlpha"></feColorMatrix>
<feOffset dy="8" dx="-8"></feOffset>
<feComposite operator="out" in2="hardAlpha"></feComposite>
<feColorMatrix values="0 0 0 0 0 0 0 0 0 0 0 0 0 0 0 0 0 0 1 0" type="matrix"></feColorMatrix>
<feBlend result="effect2_dropShadow_2381_197" in2="effect1_dropShadow_2381_197" mode="normal"></feBlend>
<feBlend result="shape" in2="effect2_dropShadow_2381_197" in="SourceGraphic" mode="normal"></feBlend>
</filter>
<filter color-interpolation-filters="sRGB" filterUnits="userSpaceOnUse" height="30" width="30" y="10.4124" x="27" id="filter1_i_2381_197">
<feFlood result="BackgroundImageFix" flood-opacity="0"></feFlood>
<feBlend result="shape" in2="BackgroundImageFix" in="SourceGraphic" mode="normal"></feBlend>
<feColorMatrix result="hardAlpha" values="0 0 0 0 0 0 0 0 0 0 0 0 0 0 0 0 0 0 127 0" type="matrix" in="SourceAlpha"></feColorMatrix>
<feOffset dy="2" dx="3"></feOffset>
<feGaussianBlur stdDeviation="0.5"></feGaussianBlur>
<feComposite k3="1" k2="-1" operator="arithmetic" in2="hardAlpha"></feComposite>
<feColorMatrix values="0 0 0 0 0 0 0 0 0 0 0 0 0 0 0 0 0 0 0.25 0" type="matrix"></feColorMatrix>
<feBlend result="effect1_innerShadow_2381_197" in2="shape" mode="normal"></feBlend>
</filter>
<filter color-interpolation-filters="sRGB" filterUnits="userSpaceOnUse" height="30" width="30" y="10.4124" x="64" id="filter2_i_2381_197">
<feFlood result="BackgroundImageFix" flood-opacity="0"></feFlood>
<feBlend result="shape" in2="BackgroundImageFix" in="SourceGraphic" mode="normal"></feBlend>
<feColorMatrix result="hardAlpha" values="0 0 0 0 0 0 0 0 0 0 0 0 0 0 0 0 0 0 127 0" type="matrix" in="SourceAlpha"></feColorMatrix>
<feOffset dy="2" dx="3"></feOffset>
<feGaussianBlur stdDeviation="0.5"></feGaussianBlur>
<feComposite k3="1" k2="-1" operator="arithmetic" in2="hardAlpha"></feComposite>
<feColorMatrix values="0 0 0 0 0 0 0 0 0 0 0 0 0 0 0 0 0 0 0.25 0" type="matrix"></feColorMatrix>
<feBlend result="effect1_innerShadow_2381_197" in2="shape" mode="normal"></feBlend>
</filter>
<filter color-interpolation-filters="sRGB" filterUnits="userSpaceOnUse" height="12.2778" width="24.9561" y="22.2319" x="1058.77" id="filter3_i_2381_197">
<feFlood result="BackgroundImageFix" flood-opacity="0"></feFlood>
<feBlend result="shape" in2="BackgroundImageFix" in="SourceGraphic" mode="normal"></feBlend>
<feColorMatrix result="hardAlpha" values="0 0 0 0 0 0 0 0 0 0 0 0 0 0 0 0 0 0 127 0" type="matrix" in="SourceAlpha"></feColorMatrix>
<feOffset dy="2" dx="3"></feOffset>
<feGaussianBlur stdDeviation="0.5"></feGaussianBlur>
<feComposite k3="1" k2="-1" operator="arithmetic" in2="hardAlpha"></feComposite>
<feColorMatrix values="0 0 0 0 0 0 0 0 0 0 0 0 0 0 0 0 0 0 0.25 0" type="matrix"></feColorMatrix>
<feBlend result="effect1_innerShadow_2381_197" in2="shape" mode="normal"></feBlend>
</filter>
<filter color-interpolation-filters="sRGB" filterUnits="userSpaceOnUse" height="336" width="25" y="39.4124" x="1059" id="filter4_i_2381_197">
<feFlood result="BackgroundImageFix" flood-opacity="0"></feFlood>
<feBlend result="shape" in2="BackgroundImageFix" in="SourceGraphic" mode="normal"></feBlend>
<feColorMatrix result="hardAlpha" values="0 0 0 0 0 0 0 0 0 0 0 0 0 0 0 0 0 0 127 0" type="matrix" in="SourceAlpha"></feColorMatrix>
<feOffset dy="2" dx="3"></feOffset>
<feGaussianBlur stdDeviation="0.5"></feGaussianBlur>
<feComposite k3="1" k2="-1" operator="arithmetic" in2="hardAlpha"></feComposite>
<feColorMatrix values="0 0 0 0 0 0 0 0 0 0 0 0 0 0 0 0 0 0 0.25 0" type="matrix"></feColorMatrix>
<feBlend result="effect1_innerShadow_2381_197" in2="shape" mode="normal"></feBlend>
</filter>
<filter color-interpolation-filters="sRGB" filterUnits="userSpaceOnUse" height="12.2778" width="24.9561" y="392.398" x="1058.77" id="filter5_i_2381_197">
<feFlood result="BackgroundImageFix" flood-opacity="0"></feFlood>
<feBlend result="shape" in2="BackgroundImageFix" in="SourceGraphic" mode="normal"></feBlend>
<feColorMatrix result="hardAlpha" values="0 0 0 0 0 0 0 0 0 0 0 0 0 0 0 0 0 0 127 0" type="matrix" in="SourceAlpha"></feColorMatrix>
<feOffset dy="2" dx="3"></feOffset>
<feGaussianBlur stdDeviation="0.5"></feGaussianBlur>
<feComposite k3="1" k2="-1" operator="arithmetic" in2="hardAlpha"></feComposite>
<feColorMatrix values="0 0 0 0 0 0 0 0 0 0 0 0 0 0 0 0 0 0 0.25 0" type="matrix"></feColorMatrix>
<feBlend result="effect1_innerShadow_2381_197" in2="shape" mode="normal"></feBlend>
</filter>
<linearGradient gradientUnits="userSpaceOnUse" y2="22.8534" x2="1413.38" y1="22.8534" x1="212.587" id="paint0_linear_2381_197">
<stop stop-color="#01697D"></stop>
<stop stop-color="#02BFE3" offset="1"></stop>
</linearGradient>
</defs>
</svg>
