<?xml version="1.0" encoding="utf-8"?>
<!-- Generator: Adobe Illustrator 28.0.0, SVG Export Plug-In . SVG Version: 6.00 Build 0)  -->
<svg version="1.1" id="Layer_1" xmlns="http://www.w3.org/2000/svg" xmlns:xlink="http://www.w3.org/1999/xlink" x="0px" y="0px"
	 viewBox="0 0 585 1379" style="enable-background:new 0 0 585 1379;" xml:space="preserve">
<style type="text/css">
	.st0{fill:#FFFFFF;filter:url(#Adobe_OpacityMaskFilter);}
	
		.st1{mask:url(#path-1-outside-1_1018_44_00000128487457828668885500000018280016082902272190_);fill:none;stroke:#77FFD6;stroke-width:3;stroke-opacity:0.87;}
</style>
<defs>
	<filter id="Adobe_OpacityMaskFilter" filterUnits="userSpaceOnUse" x="0.5" y="0.5" width="584.3" height="1317.9">
		<feColorMatrix  type="matrix" values="1 0 0 0 0  0 1 0 0 0  0 0 1 0 0  0 0 0 1 0"/>
	</filter>
</defs>
<mask maskUnits="userSpaceOnUse" x="0.5" y="0.5" width="584.3" height="1317.9" id="path-1-outside-1_1018_44_00000128487457828668885500000018280016082902272190_">
	<rect x="-0.4" class="st0" width="586" height="1319"/>
	<path d="M45.4,109.9c-19.4,0-32.9-7-42.8-17.8l17.7-17.5c7.2,7.3,14.7,11.5,24,11.5c7.9,0,12.8-4,12.8-10.2v-0.3
		c0-6.5-5.7-10.3-16.4-10.3H28.9L25,50.7l23-20.8H9.6V7.3h72.6v19.8l-24,20.7c14.4,3.2,26,11.1,26,28.3v0.3
		C84.2,96.8,67.8,109.9,45.4,109.9z M138.7,109.9c-28.6,0-46.4-23.6-46.4-52v-0.3c0-28.5,18.1-52.3,46.7-52.3s46.4,23.6,46.4,52v0.3
		C185.4,86.1,167.4,109.9,138.7,109.9z M139,85.2c11.2,0,18.4-11.4,18.4-27.3v-0.3c0-16.1-7.5-27.7-18.7-27.7
		c-11.1,0-18.4,11.4-18.4,27.4v0.3C120.3,73.7,127.8,85.2,139,85.2z M219.4,59.9c-15.4,0-25.9-12.1-25.9-26.7v-0.3
		c0-14.8,10.3-27,26-27c15.7,0,25.9,12.1,25.9,26.9V33C245.4,47.7,234.9,59.9,219.4,59.9z M219.4,21.5c-5,0-8.3,4.7-8.3,11.2V33
		c0,6.3,3.7,11.2,8.5,11.2c4.9,0,8.3-4.7,8.3-11.1v-0.3C227.8,26.4,224.2,21.5,219.4,21.5z M246.9,53.7l35.2-46.4h19.4l-42.8,54.7
		l-34.8,45.8h-19.4L246.9,53.7z M286.6,109.3c-15.5,0-25.9-12.2-25.9-26.9v-0.3c0-14.8,10.2-27,26-27c15.7,0,25.9,12.1,25.9,26.9
		v0.3C312.6,97,302.1,109.3,286.6,109.3z M286.7,93.5c4.9,0,8.3-4.7,8.3-11.1v-0.3c0-6.5-3.6-11.4-8.5-11.4c-5.2,0-8.3,4.7-8.3,11.2
		v0.3C278.3,88.6,282,93.5,286.7,93.5z M411.4,109.9c-31,0-54-23.1-54-52v-0.3c0-28.9,23.3-52.3,54.3-52.3s54,23.1,54,52v0.3
		C465.7,86.5,442.5,109.9,411.4,109.9z M411.7,84.8c15.2,0,25.4-12.4,25.4-26.9v-0.3c0-14.7-10.3-27.2-25.7-27.2
		c-15.4,0-25.6,12.4-25.6,26.9v0.3C385.9,72.1,396.3,84.8,411.7,84.8z M480.6,107.9V52h-9.1V30.5h9.1v-1.6c0-8.9,2-15.5,6.6-20.1
		C491.9,4,498.2,2,507.6,2c8.2,0,13.5,0.9,17.7,2.2v19.3c-3.2-1-6.2-1.6-10.2-1.6c-5,0-7.8,2.3-7.8,7.3V31h18v21h-17.4v55.9H480.6z
		 M538.6,107.9V52h-9.1V30.9h9.1v-2c0-8.9,2-15.5,6.6-20.1C550,4,556.3,2,565.6,2c8.2,0,13.5,0.9,17.7,2.2v19.3
		c-3.2-1-6.2-1.6-10.2-1.6c-5,0-7.8,2.3-7.8,7.3V31h18v21h-17.4v55.9H538.6z M45.4,281.9c-19.4,0-32.9-7-42.8-17.8l17.7-17.5
		c7.2,7.3,14.7,11.5,24,11.5c7.9,0,12.8-4,12.8-10.2v-0.3c0-6.5-5.7-10.3-16.4-10.3H28.9L25,222.7l23-20.8H9.6v-22.6h72.6v19.8
		l-24,20.7c14.4,3.2,26,11.1,26,28.3v0.3C84.2,268.8,67.8,281.9,45.4,281.9z M138.7,281.9c-28.6,0-46.4-23.6-46.4-52v-0.3
		c0-28.5,18.1-52.3,46.7-52.3s46.4,23.6,46.4,52v0.3C185.4,258.1,167.4,281.9,138.7,281.9z M139,257.2c11.2,0,18.4-11.4,18.4-27.3
		v-0.3c0-16.1-7.5-27.7-18.7-27.7c-11.1,0-18.4,11.4-18.4,27.4v0.3C120.3,245.7,127.8,257.2,139,257.2z M219.4,231.9
		c-15.4,0-25.9-12.1-25.9-26.7v-0.3c0-14.8,10.3-27,26-27c15.7,0,25.9,12.1,25.9,26.9v0.3C245.4,219.7,234.9,231.9,219.4,231.9z
		 M219.4,193.5c-5,0-8.3,4.7-8.3,11.2v0.3c0,6.3,3.7,11.2,8.5,11.2c4.9,0,8.3-4.7,8.3-11.1v-0.3
		C227.8,198.4,224.2,193.5,219.4,193.5z M246.9,225.7l35.2-46.4h19.4l-42.8,54.7l-34.8,45.8h-19.4L246.9,225.7z M286.6,281.3
		c-15.5,0-25.9-12.2-25.9-26.9v-0.3c0-14.8,10.2-27,26-27c15.7,0,25.9,12.1,25.9,26.9v0.3C312.6,269,302.1,281.3,286.6,281.3z
		 M286.7,265.5c4.9,0,8.3-4.7,8.3-11.1v-0.3c0-6.5-3.6-11.4-8.5-11.4c-5.2,0-8.3,4.7-8.3,11.2v0.3
		C278.3,260.6,282,265.5,286.7,265.5z M411.4,281.9c-31,0-54-23.1-54-52v-0.3c0-28.9,23.3-52.3,54.3-52.3s54,23.1,54,52v0.3
		C465.7,258.5,442.5,281.9,411.4,281.9z M411.7,256.8c15.2,0,25.4-12.4,25.4-26.9v-0.3c0-14.7-10.3-27.2-25.7-27.2
		c-15.4,0-25.6,12.4-25.6,26.9v0.3C385.9,244.1,396.3,256.8,411.7,256.8z M480.6,279.9V224h-9.1v-21.6h9.1v-1.6
		c0-8.9,2-15.5,6.6-20.1c4.7-4.7,11.1-6.8,20.4-6.8c8.2,0,13.5,0.9,17.7,2.2v19.3c-3.2-1-6.2-1.6-10.2-1.6c-5,0-7.8,2.3-7.8,7.3v1.9
		h18v21h-17.4v55.9H480.6z M538.6,279.9V224h-9.1v-21.1h9.1v-2c0-8.9,2-15.5,6.6-20.1c4.7-4.7,11.1-6.8,20.4-6.8
		c8.2,0,13.5,0.9,17.7,2.2v19.3c-3.2-1-6.2-1.6-10.2-1.6c-5,0-7.8,2.3-7.8,7.3v1.9h18v21h-17.4v55.9H538.6z M45.4,454.9
		c-19.4,0-32.9-7-42.8-17.8l17.7-17.5c7.2,7.3,14.7,11.5,24,11.5c7.9,0,12.8-4,12.8-10.2v-0.3c0-6.5-5.7-10.3-16.4-10.3H28.9
		L25,395.7l23-20.8H9.6v-22.6h72.6v19.8l-24,20.7c14.4,3.2,26,11.1,26,28.3v0.3C84.2,441.8,67.8,454.9,45.4,454.9z M138.7,454.9
		c-28.6,0-46.4-23.6-46.4-52v-0.3c0-28.5,18.1-52.3,46.7-52.3s46.4,23.6,46.4,52v0.3C185.4,431.1,167.4,454.9,138.7,454.9z
		 M139,430.2c11.2,0,18.4-11.4,18.4-27.3v-0.3c0-16.1-7.5-27.7-18.7-27.7c-11.1,0-18.4,11.4-18.4,27.4v0.3
		C120.3,418.7,127.8,430.2,139,430.2z M219.4,404.9c-15.4,0-25.9-12.1-25.9-26.7v-0.3c0-14.8,10.3-27,26-27
		c15.7,0,25.9,12.1,25.9,26.9v0.3C245.4,392.7,234.9,404.9,219.4,404.9z M219.4,366.5c-5,0-8.3,4.7-8.3,11.2v0.3
		c0,6.3,3.7,11.2,8.5,11.2c4.9,0,8.3-4.7,8.3-11.1v-0.3C227.8,371.4,224.2,366.5,219.4,366.5z M246.9,398.7l35.2-46.4h19.4
		l-42.8,54.7l-34.8,45.8h-19.4L246.9,398.7z M286.6,454.3c-15.5,0-25.9-12.2-25.9-26.9v-0.3c0-14.8,10.2-27,26-27
		c15.7,0,25.9,12.1,25.9,26.9v0.3C312.6,442,302.1,454.3,286.6,454.3z M286.7,438.5c4.9,0,8.3-4.7,8.3-11.1v-0.3
		c0-6.5-3.6-11.4-8.5-11.4c-5.2,0-8.3,4.7-8.3,11.2v0.3C278.3,433.6,282,438.5,286.7,438.5z M411.4,454.9c-31,0-54-23.1-54-52v-0.3
		c0-28.9,23.3-52.3,54.3-52.3s54,23.1,54,52v0.3C465.7,431.5,442.5,454.9,411.4,454.9z M411.7,429.8c15.2,0,25.4-12.4,25.4-26.9
		v-0.3c0-14.7-10.3-27.2-25.7-27.2c-15.4,0-25.6,12.4-25.6,26.9v0.3C385.9,417.1,396.3,429.8,411.7,429.8z M480.6,452.9V397h-9.1
		v-21.6h9.1v-1.6c0-8.9,2-15.5,6.6-20.1c4.7-4.7,11.1-6.8,20.4-6.8c8.2,0,13.5,0.9,17.7,2.2v19.3c-3.2-1-6.2-1.6-10.2-1.6
		c-5,0-7.8,2.3-7.8,7.3v1.9h18v21h-17.4v55.9H480.6z M538.6,452.9V397h-9.1v-21.1h9.1v-2c0-8.9,2-15.5,6.6-20.1
		c4.7-4.7,11.1-6.8,20.4-6.8c8.2,0,13.5,0.9,17.7,2.2v19.3c-3.2-1-6.2-1.6-10.2-1.6c-5,0-7.8,2.3-7.8,7.3v1.9h18v21h-17.4v55.9
		H538.6z M45.4,626.9c-19.4,0-32.9-7-42.8-17.8l17.7-17.5c7.2,7.3,14.7,11.5,24,11.5c7.9,0,12.8-4,12.8-10.2v-0.3
		c0-6.5-5.7-10.3-16.4-10.3H28.9L25,567.7l23-20.8H9.6v-22.6h72.6v19.8l-24,20.7c14.4,3.2,26,11.1,26,28.3v0.3
		C84.2,613.8,67.8,626.9,45.4,626.9z M138.7,626.9c-28.6,0-46.4-23.6-46.4-52v-0.3c0-28.5,18.1-52.3,46.7-52.3s46.4,23.6,46.4,52
		v0.3C185.4,603.1,167.4,626.9,138.7,626.9z M139,602.2c11.2,0,18.4-11.4,18.4-27.3v-0.3c0-16.1-7.5-27.7-18.7-27.7
		c-11.1,0-18.4,11.4-18.4,27.4v0.3C120.3,590.7,127.8,602.2,139,602.2z M219.4,576.9c-15.4,0-25.9-12.1-25.9-26.7v-0.3
		c0-14.8,10.3-27,26-27c15.7,0,25.9,12.1,25.9,26.9v0.3C245.4,564.7,234.9,576.9,219.4,576.9z M219.4,538.5c-5,0-8.3,4.7-8.3,11.2
		v0.3c0,6.3,3.7,11.2,8.5,11.2c4.9,0,8.3-4.7,8.3-11.1v-0.3C227.8,543.4,224.2,538.5,219.4,538.5z M246.9,570.7l35.2-46.4h19.4
		l-42.8,54.7l-34.8,45.8h-19.4L246.9,570.7z M286.6,626.3c-15.5,0-25.9-12.2-25.9-26.9v-0.3c0-14.8,10.2-27,26-27
		c15.7,0,25.9,12.1,25.9,26.9v0.3C312.6,614,302.1,626.3,286.6,626.3z M286.7,610.5c4.9,0,8.3-4.7,8.3-11.1v-0.3
		c0-6.5-3.6-11.4-8.5-11.4c-5.2,0-8.3,4.7-8.3,11.2v0.3C278.3,605.6,282,610.5,286.7,610.5z M411.4,626.9c-31,0-54-23.1-54-52v-0.3
		c0-28.9,23.3-52.3,54.3-52.3s54,23.1,54,52v0.3C465.7,603.5,442.5,626.9,411.4,626.9z M411.7,601.8c15.2,0,25.4-12.4,25.4-26.9
		v-0.3c0-14.7-10.3-27.2-25.7-27.2c-15.4,0-25.6,12.4-25.6,26.9v0.3C385.9,589.1,396.3,601.8,411.7,601.8z M480.6,624.9V569h-9.1
		v-21.6h9.1v-1.6c0-8.9,2-15.5,6.6-20.1c4.7-4.7,11.1-6.8,20.4-6.8c8.2,0,13.5,0.9,17.7,2.2v19.3c-3.2-1-6.2-1.6-10.2-1.6
		c-5,0-7.8,2.3-7.8,7.3v1.9h18v21h-17.4v55.9H480.6z M538.6,624.9V569h-9.1v-21.1h9.1v-2c0-8.9,2-15.5,6.6-20.1
		c4.7-4.7,11.1-6.8,20.4-6.8c8.2,0,13.5,0.9,17.7,2.2v19.3c-3.2-1-6.2-1.6-10.2-1.6c-5,0-7.8,2.3-7.8,7.3v1.9h18v21h-17.4v55.9
		H538.6z M45.4,799.9c-19.4,0-32.9-7-42.8-17.8l17.7-17.5c7.2,7.3,14.7,11.5,24,11.5c7.9,0,12.8-4,12.8-10.2v-0.3
		c0-6.5-5.7-10.3-16.4-10.3H28.9L25,740.7l23-20.8H9.6v-22.6h72.6v19.8l-24,20.7c14.4,3.2,26,11.1,26,28.3v0.3
		C84.2,786.8,67.8,799.9,45.4,799.9z M138.7,799.9c-28.6,0-46.4-23.6-46.4-52v-0.3c0-28.5,18.1-52.3,46.7-52.3s46.4,23.6,46.4,52
		v0.3C185.4,776.1,167.4,799.9,138.7,799.9z M139,775.2c11.2,0,18.4-11.4,18.4-27.3v-0.3c0-16.1-7.5-27.7-18.7-27.7
		c-11.1,0-18.4,11.4-18.4,27.4v0.3C120.3,763.7,127.8,775.2,139,775.2z M219.4,749.9c-15.4,0-25.9-12.1-25.9-26.7v-0.3
		c0-14.8,10.3-27,26-27c15.7,0,25.9,12.1,25.9,26.9v0.3C245.4,737.7,234.9,749.9,219.4,749.9z M219.4,711.5c-5,0-8.3,4.7-8.3,11.2
		v0.3c0,6.3,3.7,11.2,8.5,11.2c4.9,0,8.3-4.7,8.3-11.1v-0.3C227.8,716.4,224.2,711.5,219.4,711.5z M246.9,743.7l35.2-46.4h19.4
		l-42.8,54.7l-34.8,45.8h-19.4L246.9,743.7z M286.6,799.3c-15.5,0-25.9-12.2-25.9-26.9v-0.3c0-14.8,10.2-27,26-27
		c15.7,0,25.9,12.1,25.9,26.9v0.3C312.6,787,302.1,799.3,286.6,799.3z M286.7,783.5c4.9,0,8.3-4.7,8.3-11.1v-0.3
		c0-6.5-3.6-11.4-8.5-11.4c-5.2,0-8.3,4.7-8.3,11.2v0.3C278.3,778.6,282,783.5,286.7,783.5z M411.4,799.9c-31,0-54-23.1-54-52v-0.3
		c0-28.9,23.3-52.3,54.3-52.3s54,23.1,54,52v0.3C465.7,776.5,442.5,799.9,411.4,799.9z M411.7,774.8c15.2,0,25.4-12.4,25.4-26.9
		v-0.3c0-14.7-10.3-27.2-25.7-27.2c-15.4,0-25.6,12.4-25.6,26.9v0.3C385.9,762.1,396.3,774.8,411.7,774.8z M480.6,797.9V742h-9.1
		v-21.6h9.1v-1.6c0-8.9,2-15.5,6.6-20.1c4.7-4.7,11.1-6.8,20.4-6.8c8.2,0,13.5,0.9,17.7,2.2v19.3c-3.2-1-6.2-1.6-10.2-1.6
		c-5,0-7.8,2.3-7.8,7.3v1.9h18v21h-17.4v55.9H480.6z M538.6,797.9V742h-9.1v-21.1h9.1v-2c0-8.9,2-15.5,6.6-20.1
		c4.7-4.7,11.1-6.8,20.4-6.8c8.2,0,13.5,0.9,17.7,2.2v19.3c-3.2-1-6.2-1.6-10.2-1.6c-5,0-7.8,2.3-7.8,7.3v1.9h18v21h-17.4v55.9
		H538.6z M45.4,971.9c-19.4,0-32.9-7-42.8-17.8l17.7-17.5c7.2,7.3,14.7,11.5,24,11.5c7.9,0,12.8-4,12.8-10.2v-0.3
		c0-6.5-5.7-10.3-16.4-10.3H28.9L25,912.7l23-20.8H9.6v-22.6h72.6v19.8l-24,20.7c14.4,3.2,26,11.1,26,28.3v0.3
		C84.2,958.8,67.8,971.9,45.4,971.9z M138.7,971.9c-28.6,0-46.4-23.6-46.4-52v-0.3c0-28.5,18.1-52.3,46.7-52.3s46.4,23.6,46.4,52
		v0.3C185.4,948.1,167.4,971.9,138.7,971.9z M139,947.2c11.2,0,18.4-11.4,18.4-27.3v-0.3c0-16.1-7.5-27.7-18.7-27.7
		c-11.1,0-18.4,11.4-18.4,27.4v0.3C120.3,935.7,127.8,947.2,139,947.2z M219.4,921.9c-15.4,0-25.9-12.1-25.9-26.7v-0.3
		c0-14.8,10.3-27,26-27c15.7,0,25.9,12.1,25.9,26.9v0.3C245.4,909.7,234.9,921.9,219.4,921.9z M219.4,883.5c-5,0-8.3,4.7-8.3,11.2
		v0.3c0,6.3,3.7,11.2,8.5,11.2c4.9,0,8.3-4.7,8.3-11.1v-0.3C227.8,888.4,224.2,883.5,219.4,883.5z M246.9,915.7l35.2-46.4h19.4
		l-42.8,54.7l-34.8,45.8h-19.4L246.9,915.7z M286.6,971.3c-15.5,0-25.9-12.2-25.9-26.9v-0.3c0-14.8,10.2-27,26-27
		c15.7,0,25.9,12.1,25.9,26.9v0.3C312.6,959,302.1,971.3,286.6,971.3z M286.7,955.5c4.9,0,8.3-4.7,8.3-11.1v-0.3
		c0-6.5-3.6-11.4-8.5-11.4c-5.2,0-8.3,4.7-8.3,11.2v0.3C278.3,950.6,282,955.5,286.7,955.5z M411.4,971.9c-31,0-54-23.1-54-52v-0.3
		c0-28.9,23.3-52.3,54.3-52.3s54,23.1,54,52v0.3C465.7,948.5,442.5,971.9,411.4,971.9z M411.7,946.8c15.2,0,25.4-12.4,25.4-26.9
		v-0.3c0-14.7-10.3-27.2-25.7-27.2c-15.4,0-25.6,12.4-25.6,26.9v0.3C385.9,934.1,396.3,946.8,411.7,946.8z M480.6,969.9V914h-9.1
		v-21.6h9.1v-1.6c0-8.9,2-15.5,6.6-20.1c4.7-4.7,11.1-6.8,20.4-6.8c8.2,0,13.5,0.9,17.7,2.2v19.3c-3.2-1-6.2-1.6-10.2-1.6
		c-5,0-7.8,2.3-7.8,7.3v1.9h18v21h-17.4v55.9H480.6z M538.6,969.9V914h-9.1v-21.1h9.1v-2c0-8.9,2-15.5,6.6-20.1
		c4.7-4.7,11.1-6.8,20.4-6.8c8.2,0,13.5,0.9,17.7,2.2v19.3c-3.2-1-6.2-1.6-10.2-1.6c-5,0-7.8,2.3-7.8,7.3v1.9h18v21h-17.4v55.9
		H538.6z M45.4,1144.9c-19.4,0-32.9-7-42.8-17.8l17.7-17.5c7.2,7.3,14.7,11.5,24,11.5c7.9,0,12.8-4,12.8-10.2v-0.3
		c0-6.5-5.7-10.3-16.4-10.3H28.9l-3.9-14.5l23-20.8H9.6v-22.6h72.6v19.8l-24,20.7c14.4,3.2,26,11.1,26,28.3v0.3
		C84.2,1131.8,67.8,1144.9,45.4,1144.9z M138.7,1144.9c-28.6,0-46.4-23.6-46.4-52v-0.3c0-28.4,18.1-52.3,46.7-52.3
		s46.4,23.6,46.4,52v0.3C185.4,1121.1,167.4,1144.9,138.7,1144.9z M139,1120.2c11.2,0,18.4-11.4,18.4-27.3v-0.3
		c0-16.1-7.5-27.7-18.7-27.7c-11.1,0-18.4,11.3-18.4,27.4v0.3C120.3,1108.7,127.8,1120.2,139,1120.2z M219.4,1094.9
		c-15.4,0-25.9-12.1-25.9-26.7v-0.3c0-14.8,10.3-27,26-27c15.7,0,25.9,12.1,25.9,26.9v0.3C245.4,1082.7,234.9,1094.9,219.4,1094.9z
		 M219.4,1056.5c-5,0-8.3,4.7-8.3,11.2v0.3c0,6.3,3.7,11.2,8.5,11.2c4.9,0,8.3-4.7,8.3-11.1v-0.3
		C227.8,1061.4,224.2,1056.5,219.4,1056.5z M246.9,1088.7l35.2-46.4h19.4l-42.8,54.7l-34.8,45.8h-19.4L246.9,1088.7z M286.6,1144.3
		c-15.5,0-25.9-12.2-25.9-26.9v-0.3c0-14.8,10.2-27,26-27c15.7,0,25.9,12.1,25.9,26.9v0.3C312.6,1132,302.1,1144.3,286.6,1144.3z
		 M286.7,1128.5c4.9,0,8.3-4.7,8.3-11.1v-0.3c0-6.5-3.6-11.4-8.5-11.4c-5.2,0-8.3,4.7-8.3,11.2v0.3
		C278.3,1123.6,282,1128.5,286.7,1128.5z M411.4,1144.9c-31,0-54-23.1-54-52v-0.3c0-28.9,23.3-52.3,54.3-52.3s54,23.1,54,52v0.3
		C465.7,1121.5,442.5,1144.9,411.4,1144.9z M411.7,1119.8c15.2,0,25.4-12.4,25.4-26.9v-0.3c0-14.7-10.3-27.2-25.7-27.2
		c-15.4,0-25.6,12.4-25.6,26.9v0.3C385.9,1107.1,396.3,1119.8,411.7,1119.8z M480.6,1142.9V1087h-9.1v-21.6h9.1v-1.6
		c0-8.9,2-15.5,6.6-20.1c4.7-4.7,11.1-6.8,20.4-6.8c8.2,0,13.5,0.9,17.7,2.2v19.2c-3.2-1-6.2-1.6-10.2-1.6c-5,0-7.8,2.3-7.8,7.3v1.9
		h18v21h-17.4v55.9H480.6z M538.6,1142.9V1087h-9.1v-21.1h9.1v-2c0-8.9,2-15.5,6.6-20.1c4.7-4.7,11.1-6.8,20.4-6.8
		c8.2,0,13.5,0.9,17.7,2.2v19.2c-3.2-1-6.2-1.6-10.2-1.6c-5,0-7.8,2.3-7.8,7.3v1.9h18v21h-17.4v55.9H538.6z M45.4,1316.9
		c-19.4,0-32.9-7-42.8-17.8l17.7-17.5c7.2,7.3,14.7,11.5,24,11.5c7.9,0,12.8-4,12.8-10.2v-0.3c0-6.5-5.7-10.3-16.4-10.3H28.9
		l-3.9-14.5l23-20.8H9.6v-22.6h72.6v19.8l-24,20.7c14.4,3.2,26,11.1,26,28.3v0.3C84.2,1303.8,67.8,1316.9,45.4,1316.9z
		 M138.7,1316.9c-28.6,0-46.4-23.6-46.4-52v-0.3c0-28.4,18.1-52.3,46.7-52.3s46.4,23.6,46.4,52v0.3
		C185.4,1293.1,167.4,1316.9,138.7,1316.9z M139,1292.2c11.2,0,18.4-11.4,18.4-27.3v-0.3c0-16.1-7.5-27.7-18.7-27.7
		c-11.1,0-18.4,11.3-18.4,27.4v0.3C120.3,1280.7,127.8,1292.2,139,1292.2z M219.4,1266.9c-15.4,0-25.9-12.1-25.9-26.7v-0.3
		c0-14.8,10.3-27,26-27c15.7,0,25.9,12.1,25.9,26.9v0.3C245.4,1254.7,234.9,1266.9,219.4,1266.9z M219.4,1228.5
		c-5,0-8.3,4.7-8.3,11.2v0.3c0,6.3,3.7,11.2,8.5,11.2c4.9,0,8.3-4.7,8.3-11.1v-0.3C227.8,1233.4,224.2,1228.5,219.4,1228.5z
		 M246.9,1260.7l35.2-46.4h19.4l-42.8,54.7l-34.8,45.8h-19.4L246.9,1260.7z M286.6,1316.3c-15.5,0-25.9-12.2-25.9-26.9v-0.3
		c0-14.8,10.2-27,26-27c15.7,0,25.9,12.1,25.9,26.9v0.3C312.6,1304,302.1,1316.3,286.6,1316.3z M286.7,1300.5
		c4.9,0,8.3-4.7,8.3-11.1v-0.3c0-6.5-3.6-11.4-8.5-11.4c-5.2,0-8.3,4.7-8.3,11.2v0.3C278.3,1295.6,282,1300.5,286.7,1300.5z
		 M411.4,1316.9c-31,0-54-23.1-54-52v-0.3c0-28.9,23.3-52.3,54.3-52.3s54,23.1,54,52v0.3C465.7,1293.5,442.5,1316.9,411.4,1316.9z
		 M411.7,1291.8c15.2,0,25.4-12.4,25.4-26.9v-0.3c0-14.7-10.3-27.2-25.7-27.2c-15.4,0-25.6,12.4-25.6,26.9v0.3
		C385.9,1279.1,396.3,1291.8,411.7,1291.8z M480.6,1314.9V1259h-9.1v-21.6h9.1v-1.6c0-8.9,2-15.5,6.6-20.1
		c4.7-4.7,11.1-6.8,20.4-6.8c8.2,0,13.5,0.9,17.7,2.2v19.2c-3.2-1-6.2-1.6-10.2-1.6c-5,0-7.8,2.3-7.8,7.3v1.9h18v21h-17.4v55.9
		H480.6z M538.6,1314.9V1259h-9.1v-21.1h9.1v-2c0-8.9,2-15.5,6.6-20.1c4.7-4.7,11.1-6.8,20.4-6.8c8.2,0,13.5,0.9,17.7,2.2v19.2
		c-3.2-1-6.2-1.6-10.2-1.6c-5,0-7.8,2.3-7.8,7.3v1.9h18v21h-17.4v55.9H538.6z"/>
</mask>
<path class="st1" d="M45.4,109.9c-19.4,0-32.9-7-42.8-17.8l17.7-17.5c7.2,7.3,14.7,11.5,24,11.5c7.9,0,12.8-4,12.8-10.2v-0.3
	c0-6.5-5.7-10.3-16.4-10.3H28.9L25,50.7l23-20.8H9.6V7.3h72.6v19.8l-24,20.7c14.4,3.2,26,11.1,26,28.3v0.3
	C84.2,96.8,67.8,109.9,45.4,109.9z M138.7,109.9c-28.6,0-46.4-23.6-46.4-52v-0.3c0-28.5,18.1-52.3,46.7-52.3s46.4,23.6,46.4,52v0.3
	C185.4,86.1,167.4,109.9,138.7,109.9z M139,85.2c11.2,0,18.4-11.4,18.4-27.3v-0.3c0-16.1-7.5-27.7-18.7-27.7
	c-11.1,0-18.4,11.4-18.4,27.4v0.3C120.3,73.7,127.8,85.2,139,85.2z M219.4,59.9c-15.4,0-25.9-12.1-25.9-26.7v-0.3
	c0-14.8,10.3-27,26-27c15.7,0,25.9,12.1,25.9,26.9V33C245.4,47.7,234.9,59.9,219.4,59.9z M219.4,21.5c-5,0-8.3,4.7-8.3,11.2V33
	c0,6.3,3.7,11.2,8.5,11.2c4.9,0,8.3-4.7,8.3-11.1v-0.3C227.8,26.4,224.2,21.5,219.4,21.5z M246.9,53.7l35.2-46.4h19.4l-42.8,54.7
	l-34.8,45.8h-19.4L246.9,53.7z M286.6,109.3c-15.5,0-25.9-12.2-25.9-26.9v-0.3c0-14.8,10.2-27,26-27c15.7,0,25.9,12.1,25.9,26.9v0.3
	C312.6,97,302.1,109.3,286.6,109.3z M286.7,93.5c4.9,0,8.3-4.7,8.3-11.1v-0.3c0-6.5-3.6-11.4-8.5-11.4c-5.2,0-8.3,4.7-8.3,11.2v0.3
	C278.3,88.6,282,93.5,286.7,93.5z M411.4,109.9c-31,0-54-23.1-54-52v-0.3c0-28.9,23.3-52.3,54.3-52.3s54,23.1,54,52v0.3
	C465.7,86.5,442.5,109.9,411.4,109.9z M411.7,84.8c15.2,0,25.4-12.4,25.4-26.9v-0.3c0-14.7-10.3-27.2-25.7-27.2
	c-15.4,0-25.6,12.4-25.6,26.9v0.3C385.9,72.1,396.3,84.8,411.7,84.8z M480.6,107.9V52h-9.1V30.5h9.1v-1.6c0-8.9,2-15.5,6.6-20.1
	C491.9,4,498.2,2,507.6,2c8.2,0,13.5,0.9,17.7,2.2v19.3c-3.2-1-6.2-1.6-10.2-1.6c-5,0-7.8,2.3-7.8,7.3V31h18v21h-17.4v55.9H480.6z
	 M538.6,107.9V52h-9.1V30.9h9.1v-2c0-8.9,2-15.5,6.6-20.1C550,4,556.3,2,565.6,2c8.2,0,13.5,0.9,17.7,2.2v19.3
	c-3.2-1-6.2-1.6-10.2-1.6c-5,0-7.8,2.3-7.8,7.3V31h18v21h-17.4v55.9H538.6z M45.4,281.9c-19.4,0-32.9-7-42.8-17.8l17.7-17.5
	c7.2,7.3,14.7,11.5,24,11.5c7.9,0,12.8-4,12.8-10.2v-0.3c0-6.5-5.7-10.3-16.4-10.3H28.9L25,222.7l23-20.8H9.6v-22.6h72.6v19.8
	l-24,20.7c14.4,3.2,26,11.1,26,28.3v0.3C84.2,268.8,67.8,281.9,45.4,281.9z M138.7,281.9c-28.6,0-46.4-23.6-46.4-52v-0.3
	c0-28.5,18.1-52.3,46.7-52.3s46.4,23.6,46.4,52v0.3C185.4,258.1,167.4,281.9,138.7,281.9z M139,257.2c11.2,0,18.4-11.4,18.4-27.3
	v-0.3c0-16.1-7.5-27.7-18.7-27.7c-11.1,0-18.4,11.4-18.4,27.4v0.3C120.3,245.7,127.8,257.2,139,257.2z M219.4,231.9
	c-15.4,0-25.9-12.1-25.9-26.7v-0.3c0-14.8,10.3-27,26-27c15.7,0,25.9,12.1,25.9,26.9v0.3C245.4,219.7,234.9,231.9,219.4,231.9z
	 M219.4,193.5c-5,0-8.3,4.7-8.3,11.2v0.3c0,6.3,3.7,11.2,8.5,11.2c4.9,0,8.3-4.7,8.3-11.1v-0.3C227.8,198.4,224.2,193.5,219.4,193.5
	z M246.9,225.7l35.2-46.4h19.4l-42.8,54.7l-34.8,45.8h-19.4L246.9,225.7z M286.6,281.3c-15.5,0-25.9-12.2-25.9-26.9v-0.3
	c0-14.8,10.2-27,26-27c15.7,0,25.9,12.1,25.9,26.9v0.3C312.6,269,302.1,281.3,286.6,281.3z M286.7,265.5c4.9,0,8.3-4.7,8.3-11.1
	v-0.3c0-6.5-3.6-11.4-8.5-11.4c-5.2,0-8.3,4.7-8.3,11.2v0.3C278.3,260.6,282,265.5,286.7,265.5z M411.4,281.9c-31,0-54-23.1-54-52
	v-0.3c0-28.9,23.3-52.3,54.3-52.3s54,23.1,54,52v0.3C465.7,258.5,442.5,281.9,411.4,281.9z M411.7,256.8c15.2,0,25.4-12.4,25.4-26.9
	v-0.3c0-14.7-10.3-27.2-25.7-27.2c-15.4,0-25.6,12.4-25.6,26.9v0.3C385.9,244.1,396.3,256.8,411.7,256.8z M480.6,279.9V224h-9.1
	v-21.6h9.1v-1.6c0-8.9,2-15.5,6.6-20.1c4.7-4.7,11.1-6.8,20.4-6.8c8.2,0,13.5,0.9,17.7,2.2v19.3c-3.2-1-6.2-1.6-10.2-1.6
	c-5,0-7.8,2.3-7.8,7.3v1.9h18v21h-17.4v55.9H480.6z M538.6,279.9V224h-9.1v-21.1h9.1v-2c0-8.9,2-15.5,6.6-20.1
	c4.7-4.7,11.1-6.8,20.4-6.8c8.2,0,13.5,0.9,17.7,2.2v19.3c-3.2-1-6.2-1.6-10.2-1.6c-5,0-7.8,2.3-7.8,7.3v1.9h18v21h-17.4v55.9H538.6
	z M45.4,454.9c-19.4,0-32.9-7-42.8-17.8l17.7-17.5c7.2,7.3,14.7,11.5,24,11.5c7.9,0,12.8-4,12.8-10.2v-0.3c0-6.5-5.7-10.3-16.4-10.3
	H28.9L25,395.7l23-20.8H9.6v-22.6h72.6v19.8l-24,20.7c14.4,3.2,26,11.1,26,28.3v0.3C84.2,441.8,67.8,454.9,45.4,454.9z M138.7,454.9
	c-28.6,0-46.4-23.6-46.4-52v-0.3c0-28.5,18.1-52.3,46.7-52.3s46.4,23.6,46.4,52v0.3C185.4,431.1,167.4,454.9,138.7,454.9z
	 M139,430.2c11.2,0,18.4-11.4,18.4-27.3v-0.3c0-16.1-7.5-27.7-18.7-27.7c-11.1,0-18.4,11.4-18.4,27.4v0.3
	C120.3,418.7,127.8,430.2,139,430.2z M219.4,404.9c-15.4,0-25.9-12.1-25.9-26.7v-0.3c0-14.8,10.3-27,26-27
	c15.7,0,25.9,12.1,25.9,26.9v0.3C245.4,392.7,234.9,404.9,219.4,404.9z M219.4,366.5c-5,0-8.3,4.7-8.3,11.2v0.3
	c0,6.3,3.7,11.2,8.5,11.2c4.9,0,8.3-4.7,8.3-11.1v-0.3C227.8,371.4,224.2,366.5,219.4,366.5z M246.9,398.7l35.2-46.4h19.4
	l-42.8,54.7l-34.8,45.8h-19.4L246.9,398.7z M286.6,454.3c-15.5,0-25.9-12.2-25.9-26.9v-0.3c0-14.8,10.2-27,26-27
	c15.7,0,25.9,12.1,25.9,26.9v0.3C312.6,442,302.1,454.3,286.6,454.3z M286.7,438.5c4.9,0,8.3-4.7,8.3-11.1v-0.3
	c0-6.5-3.6-11.4-8.5-11.4c-5.2,0-8.3,4.7-8.3,11.2v0.3C278.3,433.6,282,438.5,286.7,438.5z M411.4,454.9c-31,0-54-23.1-54-52v-0.3
	c0-28.9,23.3-52.3,54.3-52.3s54,23.1,54,52v0.3C465.7,431.5,442.5,454.9,411.4,454.9z M411.7,429.8c15.2,0,25.4-12.4,25.4-26.9v-0.3
	c0-14.7-10.3-27.2-25.7-27.2c-15.4,0-25.6,12.4-25.6,26.9v0.3C385.9,417.1,396.3,429.8,411.7,429.8z M480.6,452.9V397h-9.1v-21.6
	h9.1v-1.6c0-8.9,2-15.5,6.6-20.1c4.7-4.7,11.1-6.8,20.4-6.8c8.2,0,13.5,0.9,17.7,2.2v19.3c-3.2-1-6.2-1.6-10.2-1.6
	c-5,0-7.8,2.3-7.8,7.3v1.9h18v21h-17.4v55.9H480.6z M538.6,452.9V397h-9.1v-21.1h9.1v-2c0-8.9,2-15.5,6.6-20.1
	c4.7-4.7,11.1-6.8,20.4-6.8c8.2,0,13.5,0.9,17.7,2.2v19.3c-3.2-1-6.2-1.6-10.2-1.6c-5,0-7.8,2.3-7.8,7.3v1.9h18v21h-17.4v55.9H538.6
	z M45.4,626.9c-19.4,0-32.9-7-42.8-17.8l17.7-17.5c7.2,7.3,14.7,11.5,24,11.5c7.9,0,12.8-4,12.8-10.2v-0.3c0-6.5-5.7-10.3-16.4-10.3
	H28.9L25,567.7l23-20.8H9.6v-22.6h72.6v19.8l-24,20.7c14.4,3.2,26,11.1,26,28.3v0.3C84.2,613.8,67.8,626.9,45.4,626.9z M138.7,626.9
	c-28.6,0-46.4-23.6-46.4-52v-0.3c0-28.5,18.1-52.3,46.7-52.3s46.4,23.6,46.4,52v0.3C185.4,603.1,167.4,626.9,138.7,626.9z
	 M139,602.2c11.2,0,18.4-11.4,18.4-27.3v-0.3c0-16.1-7.5-27.7-18.7-27.7c-11.1,0-18.4,11.4-18.4,27.4v0.3
	C120.3,590.7,127.8,602.2,139,602.2z M219.4,576.9c-15.4,0-25.9-12.1-25.9-26.7v-0.3c0-14.8,10.3-27,26-27
	c15.7,0,25.9,12.1,25.9,26.9v0.3C245.4,564.7,234.9,576.9,219.4,576.9z M219.4,538.5c-5,0-8.3,4.7-8.3,11.2v0.3
	c0,6.3,3.7,11.2,8.5,11.2c4.9,0,8.3-4.7,8.3-11.1v-0.3C227.8,543.4,224.2,538.5,219.4,538.5z M246.9,570.7l35.2-46.4h19.4
	l-42.8,54.7l-34.8,45.8h-19.4L246.9,570.7z M286.6,626.3c-15.5,0-25.9-12.2-25.9-26.9v-0.3c0-14.8,10.2-27,26-27
	c15.7,0,25.9,12.1,25.9,26.9v0.3C312.6,614,302.1,626.3,286.6,626.3z M286.7,610.5c4.9,0,8.3-4.7,8.3-11.1v-0.3
	c0-6.5-3.6-11.4-8.5-11.4c-5.2,0-8.3,4.7-8.3,11.2v0.3C278.3,605.6,282,610.5,286.7,610.5z M411.4,626.9c-31,0-54-23.1-54-52v-0.3
	c0-28.9,23.3-52.3,54.3-52.3s54,23.1,54,52v0.3C465.7,603.5,442.5,626.9,411.4,626.9z M411.7,601.8c15.2,0,25.4-12.4,25.4-26.9v-0.3
	c0-14.7-10.3-27.2-25.7-27.2c-15.4,0-25.6,12.4-25.6,26.9v0.3C385.9,589.1,396.3,601.8,411.7,601.8z M480.6,624.9V569h-9.1v-21.6
	h9.1v-1.6c0-8.9,2-15.5,6.6-20.1c4.7-4.7,11.1-6.8,20.4-6.8c8.2,0,13.5,0.9,17.7,2.2v19.3c-3.2-1-6.2-1.6-10.2-1.6
	c-5,0-7.8,2.3-7.8,7.3v1.9h18v21h-17.4v55.9H480.6z M538.6,624.9V569h-9.1v-21.1h9.1v-2c0-8.9,2-15.5,6.6-20.1
	c4.7-4.7,11.1-6.8,20.4-6.8c8.2,0,13.5,0.9,17.7,2.2v19.3c-3.2-1-6.2-1.6-10.2-1.6c-5,0-7.8,2.3-7.8,7.3v1.9h18v21h-17.4v55.9H538.6
	z M45.4,799.9c-19.4,0-32.9-7-42.8-17.8l17.7-17.5c7.2,7.3,14.7,11.5,24,11.5c7.9,0,12.8-4,12.8-10.2v-0.3c0-6.5-5.7-10.3-16.4-10.3
	H28.9L25,740.7l23-20.8H9.6v-22.6h72.6v19.8l-24,20.7c14.4,3.2,26,11.1,26,28.3v0.3C84.2,786.8,67.8,799.9,45.4,799.9z M138.7,799.9
	c-28.6,0-46.4-23.6-46.4-52v-0.3c0-28.5,18.1-52.3,46.7-52.3s46.4,23.6,46.4,52v0.3C185.4,776.1,167.4,799.9,138.7,799.9z
	 M139,775.2c11.2,0,18.4-11.4,18.4-27.3v-0.3c0-16.1-7.5-27.7-18.7-27.7c-11.1,0-18.4,11.4-18.4,27.4v0.3
	C120.3,763.7,127.8,775.2,139,775.2z M219.4,749.9c-15.4,0-25.9-12.1-25.9-26.7v-0.3c0-14.8,10.3-27,26-27
	c15.7,0,25.9,12.1,25.9,26.9v0.3C245.4,737.7,234.9,749.9,219.4,749.9z M219.4,711.5c-5,0-8.3,4.7-8.3,11.2v0.3
	c0,6.3,3.7,11.2,8.5,11.2c4.9,0,8.3-4.7,8.3-11.1v-0.3C227.8,716.4,224.2,711.5,219.4,711.5z M246.9,743.7l35.2-46.4h19.4
	l-42.8,54.7l-34.8,45.8h-19.4L246.9,743.7z M286.6,799.3c-15.5,0-25.9-12.2-25.9-26.9v-0.3c0-14.8,10.2-27,26-27
	c15.7,0,25.9,12.1,25.9,26.9v0.3C312.6,787,302.1,799.3,286.6,799.3z M286.7,783.5c4.9,0,8.3-4.7,8.3-11.1v-0.3
	c0-6.5-3.6-11.4-8.5-11.4c-5.2,0-8.3,4.7-8.3,11.2v0.3C278.3,778.6,282,783.5,286.7,783.5z M411.4,799.9c-31,0-54-23.1-54-52v-0.3
	c0-28.9,23.3-52.3,54.3-52.3s54,23.1,54,52v0.3C465.7,776.5,442.5,799.9,411.4,799.9z M411.7,774.8c15.2,0,25.4-12.4,25.4-26.9v-0.3
	c0-14.7-10.3-27.2-25.7-27.2c-15.4,0-25.6,12.4-25.6,26.9v0.3C385.9,762.1,396.3,774.8,411.7,774.8z M480.6,797.9V742h-9.1v-21.6
	h9.1v-1.6c0-8.9,2-15.5,6.6-20.1c4.7-4.7,11.1-6.8,20.4-6.8c8.2,0,13.5,0.9,17.7,2.2v19.3c-3.2-1-6.2-1.6-10.2-1.6
	c-5,0-7.8,2.3-7.8,7.3v1.9h18v21h-17.4v55.9H480.6z M538.6,797.9V742h-9.1v-21.1h9.1v-2c0-8.9,2-15.5,6.6-20.1
	c4.7-4.7,11.1-6.8,20.4-6.8c8.2,0,13.5,0.9,17.7,2.2v19.3c-3.2-1-6.2-1.6-10.2-1.6c-5,0-7.8,2.3-7.8,7.3v1.9h18v21h-17.4v55.9H538.6
	z M45.4,971.9c-19.4,0-32.9-7-42.8-17.8l17.7-17.5c7.2,7.3,14.7,11.5,24,11.5c7.9,0,12.8-4,12.8-10.2v-0.3c0-6.5-5.7-10.3-16.4-10.3
	H28.9L25,912.7l23-20.8H9.6v-22.6h72.6v19.8l-24,20.7c14.4,3.2,26,11.1,26,28.3v0.3C84.2,958.8,67.8,971.9,45.4,971.9z M138.7,971.9
	c-28.6,0-46.4-23.6-46.4-52v-0.3c0-28.5,18.1-52.3,46.7-52.3s46.4,23.6,46.4,52v0.3C185.4,948.1,167.4,971.9,138.7,971.9z
	 M139,947.2c11.2,0,18.4-11.4,18.4-27.3v-0.3c0-16.1-7.5-27.7-18.7-27.7c-11.1,0-18.4,11.4-18.4,27.4v0.3
	C120.3,935.7,127.8,947.2,139,947.2z M219.4,921.9c-15.4,0-25.9-12.1-25.9-26.7v-0.3c0-14.8,10.3-27,26-27
	c15.7,0,25.9,12.1,25.9,26.9v0.3C245.4,909.7,234.9,921.9,219.4,921.9z M219.4,883.5c-5,0-8.3,4.7-8.3,11.2v0.3
	c0,6.3,3.7,11.2,8.5,11.2c4.9,0,8.3-4.7,8.3-11.1v-0.3C227.8,888.4,224.2,883.5,219.4,883.5z M246.9,915.7l35.2-46.4h19.4
	l-42.8,54.7l-34.8,45.8h-19.4L246.9,915.7z M286.6,971.3c-15.5,0-25.9-12.2-25.9-26.9v-0.3c0-14.8,10.2-27,26-27
	c15.7,0,25.9,12.1,25.9,26.9v0.3C312.6,959,302.1,971.3,286.6,971.3z M286.7,955.5c4.9,0,8.3-4.7,8.3-11.1v-0.3
	c0-6.5-3.6-11.4-8.5-11.4c-5.2,0-8.3,4.7-8.3,11.2v0.3C278.3,950.6,282,955.5,286.7,955.5z M411.4,971.9c-31,0-54-23.1-54-52v-0.3
	c0-28.9,23.3-52.3,54.3-52.3s54,23.1,54,52v0.3C465.7,948.5,442.5,971.9,411.4,971.9z M411.7,946.8c15.2,0,25.4-12.4,25.4-26.9v-0.3
	c0-14.7-10.3-27.2-25.7-27.2c-15.4,0-25.6,12.4-25.6,26.9v0.3C385.9,934.1,396.3,946.8,411.7,946.8z M480.6,969.9V914h-9.1v-21.6
	h9.1v-1.6c0-8.9,2-15.5,6.6-20.1c4.7-4.7,11.1-6.8,20.4-6.8c8.2,0,13.5,0.9,17.7,2.2v19.3c-3.2-1-6.2-1.6-10.2-1.6
	c-5,0-7.8,2.3-7.8,7.3v1.9h18v21h-17.4v55.9H480.6z M538.6,969.9V914h-9.1v-21.1h9.1v-2c0-8.9,2-15.5,6.6-20.1
	c4.7-4.7,11.1-6.8,20.4-6.8c8.2,0,13.5,0.9,17.7,2.2v19.3c-3.2-1-6.2-1.6-10.2-1.6c-5,0-7.8,2.3-7.8,7.3v1.9h18v21h-17.4v55.9H538.6
	z M45.4,1144.9c-19.4,0-32.9-7-42.8-17.8l17.7-17.5c7.2,7.3,14.7,11.5,24,11.5c7.9,0,12.8-4,12.8-10.2v-0.3
	c0-6.5-5.7-10.3-16.4-10.3H28.9l-3.9-14.5l23-20.8H9.6v-22.6h72.6v19.8l-24,20.7c14.4,3.2,26,11.1,26,28.3v0.3
	C84.2,1131.8,67.8,1144.9,45.4,1144.9z M138.7,1144.9c-28.6,0-46.4-23.6-46.4-52v-0.3c0-28.4,18.1-52.3,46.7-52.3s46.4,23.6,46.4,52
	v0.3C185.4,1121.1,167.4,1144.9,138.7,1144.9z M139,1120.2c11.2,0,18.4-11.4,18.4-27.3v-0.3c0-16.1-7.5-27.7-18.7-27.7
	c-11.1,0-18.4,11.3-18.4,27.4v0.3C120.3,1108.7,127.8,1120.2,139,1120.2z M219.4,1094.9c-15.4,0-25.9-12.1-25.9-26.7v-0.3
	c0-14.8,10.3-27,26-27c15.7,0,25.9,12.1,25.9,26.9v0.3C245.4,1082.7,234.9,1094.9,219.4,1094.9z M219.4,1056.5
	c-5,0-8.3,4.7-8.3,11.2v0.3c0,6.3,3.7,11.2,8.5,11.2c4.9,0,8.3-4.7,8.3-11.1v-0.3C227.8,1061.4,224.2,1056.5,219.4,1056.5z
	 M246.9,1088.7l35.2-46.4h19.4l-42.8,54.7l-34.8,45.8h-19.4L246.9,1088.7z M286.6,1144.3c-15.5,0-25.9-12.2-25.9-26.9v-0.3
	c0-14.8,10.2-27,26-27c15.7,0,25.9,12.1,25.9,26.9v0.3C312.6,1132,302.1,1144.3,286.6,1144.3z M286.7,1128.5c4.9,0,8.3-4.7,8.3-11.1
	v-0.3c0-6.5-3.6-11.4-8.5-11.4c-5.2,0-8.3,4.7-8.3,11.2v0.3C278.3,1123.6,282,1128.5,286.7,1128.5z M411.4,1144.9
	c-31,0-54-23.1-54-52v-0.3c0-28.9,23.3-52.3,54.3-52.3s54,23.1,54,52v0.3C465.7,1121.5,442.5,1144.9,411.4,1144.9z M411.7,1119.8
	c15.2,0,25.4-12.4,25.4-26.9v-0.3c0-14.7-10.3-27.2-25.7-27.2c-15.4,0-25.6,12.4-25.6,26.9v0.3
	C385.9,1107.1,396.3,1119.8,411.7,1119.8z M480.6,1142.9V1087h-9.1v-21.6h9.1v-1.6c0-8.9,2-15.5,6.6-20.1c4.7-4.7,11.1-6.8,20.4-6.8
	c8.2,0,13.5,0.9,17.7,2.2v19.2c-3.2-1-6.2-1.6-10.2-1.6c-5,0-7.8,2.3-7.8,7.3v1.9h18v21h-17.4v55.9H480.6z M538.6,1142.9V1087h-9.1
	v-21.1h9.1v-2c0-8.9,2-15.5,6.6-20.1c4.7-4.7,11.1-6.8,20.4-6.8c8.2,0,13.5,0.9,17.7,2.2v19.2c-3.2-1-6.2-1.6-10.2-1.6
	c-5,0-7.8,2.3-7.8,7.3v1.9h18v21h-17.4v55.9H538.6z M45.4,1316.9c-19.4,0-32.9-7-42.8-17.8l17.7-17.5c7.2,7.3,14.7,11.5,24,11.5
	c7.9,0,12.8-4,12.8-10.2v-0.3c0-6.5-5.7-10.3-16.4-10.3H28.9l-3.9-14.5l23-20.8H9.6v-22.6h72.6v19.8l-24,20.7
	c14.4,3.2,26,11.1,26,28.3v0.3C84.2,1303.8,67.8,1316.9,45.4,1316.9z M138.7,1316.9c-28.6,0-46.4-23.6-46.4-52v-0.3
	c0-28.4,18.1-52.3,46.7-52.3s46.4,23.6,46.4,52v0.3C185.4,1293.1,167.4,1316.9,138.7,1316.9z M139,1292.2
	c11.2,0,18.4-11.4,18.4-27.3v-0.3c0-16.1-7.5-27.7-18.7-27.7c-11.1,0-18.4,11.3-18.4,27.4v0.3C120.3,1280.7,127.8,1292.2,139,1292.2
	z M219.4,1266.9c-15.4,0-25.9-12.1-25.9-26.7v-0.3c0-14.8,10.3-27,26-27c15.7,0,25.9,12.1,25.9,26.9v0.3
	C245.4,1254.7,234.9,1266.9,219.4,1266.9z M219.4,1228.5c-5,0-8.3,4.7-8.3,11.2v0.3c0,6.3,3.7,11.2,8.5,11.2c4.9,0,8.3-4.7,8.3-11.1
	v-0.3C227.8,1233.4,224.2,1228.5,219.4,1228.5z M246.9,1260.7l35.2-46.4h19.4l-42.8,54.7l-34.8,45.8h-19.4L246.9,1260.7z
	 M286.6,1316.3c-15.5,0-25.9-12.2-25.9-26.9v-0.3c0-14.8,10.2-27,26-27c15.7,0,25.9,12.1,25.9,26.9v0.3
	C312.6,1304,302.1,1316.3,286.6,1316.3z M286.7,1300.5c4.9,0,8.3-4.7,8.3-11.1v-0.3c0-6.5-3.6-11.4-8.5-11.4
	c-5.2,0-8.3,4.7-8.3,11.2v0.3C278.3,1295.6,282,1300.5,286.7,1300.5z M411.4,1316.9c-31,0-54-23.1-54-52v-0.3
	c0-28.9,23.3-52.3,54.3-52.3s54,23.1,54,52v0.3C465.7,1293.5,442.5,1316.9,411.4,1316.9z M411.7,1291.8c15.2,0,25.4-12.4,25.4-26.9
	v-0.3c0-14.7-10.3-27.2-25.7-27.2c-15.4,0-25.6,12.4-25.6,26.9v0.3C385.9,1279.1,396.3,1291.8,411.7,1291.8z M480.6,1314.9V1259
	h-9.1v-21.6h9.1v-1.6c0-8.9,2-15.5,6.6-20.1c4.7-4.7,11.1-6.8,20.4-6.8c8.2,0,13.5,0.9,17.7,2.2v19.2c-3.2-1-6.2-1.6-10.2-1.6
	c-5,0-7.8,2.3-7.8,7.3v1.9h18v21h-17.4v55.9H480.6z M538.6,1314.9V1259h-9.1v-21.1h9.1v-2c0-8.9,2-15.5,6.6-20.1
	c4.7-4.7,11.1-6.8,20.4-6.8c8.2,0,13.5,0.9,17.7,2.2v19.2c-3.2-1-6.2-1.6-10.2-1.6c-5,0-7.8,2.3-7.8,7.3v1.9h18v21h-17.4v55.9H538.6
	z"/>
</svg>
