<svg viewBox="0 0 372 226" version="1.1" xmlns:xlink="http://www.w3.org/1999/xlink" xmlns="http://www.w3.org/2000/svg" data-name="Layer 1" id="Layer_1">
  <defs>
    <style>
      .cls-1 {
        mask: url(#mask);
      }

      .cls-2 {
        fill: url(#linear-gradient);
      }

      .cls-2, .cls-3, .cls-4, .cls-5, .cls-6, .cls-7, .cls-8, .cls-9 {
        stroke-width: 0px;
      }

      .cls-3 {
        fill: #f3f3f3;
      }

      .cls-4 {
        fill: #000;
      }

      .cls-5 {
        fill: #d3d3d3;
      }

      .cls-6 {
        fill: #e1400e;
      }

      .cls-7 {
        fill-opacity: .8;
      }

      .cls-7, .cls-8 {
        fill: #d9d9d9;
      }

      .cls-10 {
        fill: none;
        stroke: #000;
        stroke-width: 2.6px;
      }

      .cls-9 {
        fill: #fff;
      }

      .cls-11 {
        mask: url(#mask-1);
      }
    </style>
    <linearGradient gradientUnits="userSpaceOnUse" gradientTransform="translate(0 228) scale(1 -1)" y2="207.4" x2="481.4" y1="207.4" x1="68.9" id="linear-gradient">
      <stop stop-color="#01697d" offset="0"></stop>
      <stop stop-color="#02bfe3" offset="1"></stop>
    </linearGradient>
    <mask maskUnits="userSpaceOnUse" height="42.6" width="376.2" y="-2" x="-2.6" id="mask">
      <g data-name="path-7-inside-1 4 1211" id="path-7-inside-1_4_1211">
        <path d="M0,.6h371v40H0V.6Z" class="cls-9"></path>
      </g>
    </mask>
    <mask maskUnits="userSpaceOnUse" height="29" width="376" y="39.6" x="-2.5" id="mask-1">
      <g data-name="path-12-inside-2 4 1211" id="path-12-inside-2_4_1211">
        <path d="M0,39.6h371v29H0v-29Z" class="cls-9"></path>
      </g>
    </mask>
  </defs>
  <rect height="222.2" width="368.8" y="1.9" x="1.3" class="cls-9"></rect>
  <rect height="222.2" width="368.8" y="1.9" x="1.3" class="cls-10"></rect>
  <path d="M28.5,90.9l2.2,5.5,5.9.4-4.5,3.8,1.4,5.7-5-3.1-5,3.1,1.4-5.7-4.5-3.8,5.9-.4,2.2-5.5Z" class="cls-6"></path>
  <path d="M47.5,90.9l2.2,5.5,5.9.4-4.5,3.8,1.4,5.7-5-3.1-5,3.1,1.4-5.7-4.5-3.8,5.9-.4,2.2-5.5Z" class="cls-6"></path>
  <path d="M66.5,90.9l2.2,5.5,5.9.4-4.5,3.8,1.4,5.7-5-3.1-5,3.1,1.4-5.7-4.5-3.8,5.9-.4,2.2-5.5Z" class="cls-6"></path>
  <path d="M85.5,90.9l2.2,5.5,5.9.4-4.5,3.8,1.4,5.7-5-3.1-5,3.1,1.4-5.7-4.5-3.8,5.9-.4,2.2-5.5Z" class="cls-6"></path>
  <path d="M104.5,90.9l2.2,5.5,5.9.4-4.5,3.8,1.4,5.7-5-3.1-5,3.1,1.4-5.7-4.5-3.8,5.9-.4,2.2-5.5Z" class="cls-6"></path>
  <path d="M0,.6h371v40H0V.6Z" class="cls-2"></path>
  <g class="cls-1">
    <path d="M0,.6V-2h-2.6V.6H0ZM371,.6h2.6V-2h-2.6V.6ZM0,3.2h371V-2H0V3.2ZM368.4.6v40h5.2V.6h-5.2ZM2.6,40.6V.6H-2.6v40H2.6Z" class="cls-4"></path>
  </g>
  <rect height="25" width="25" y="9.2" x="18.1" class="cls-7"></rect>
  <rect height="25" width="25" y="9.2" x="50" class="cls-7"></rect>
  <path d="M0,39.6h371v29H0v-29Z" class="cls-5"></path>
  <g class="cls-11">
    <path d="M368.5,39.6v29h5v-29h-5ZM2.5,68.6v-29H-2.5v29H2.5Z" class="cls-4"></path>
  </g>
  <rect height="20.5" width="27" y="44" x="10.8" class="cls-8"></rect>
  <rect height="20.5" width="27" y="44" x="45.6" class="cls-8"></rect>
  <rect height="20.5" width="27" y="44" x="80.4" class="cls-8"></rect>
  <rect height="20.5" width="27" y="44" x="278.3" class="cls-8"></rect>
  <rect height="20.5" width="27" y="44" x="311.9" class="cls-8"></rect>
  <rect height="20.5" width="105.6" y="44" x="114.6" class="cls-3"></rect>
  <rect height="20.5" width="43.8" y="44" x="224.3" class="cls-3"></rect>
  <rect height="14.6" width="15.6" y="47.7" x="202.7" class="cls-8"></rect>
  <rect height="14.6" width="15.6" y="47.7" x="250.7" class="cls-8"></rect>
</svg>