<svg xmlns="http://www.w3.org/2000/svg" fill="none" viewBox="0 0 348 519" height="519" width="348">
<rect fill="#FFE5AD" height="515" width="344" y="1.87451" x="1.85254"></rect>
<rect stroke-width="3" stroke="black" height="515" width="344" y="1.87451" x="1.85254"></rect>
<mask fill="white" id="path-2-inside-1_4_1274">
<path d="M0.352539 0H347.353V46H0.352539V0Z"></path>
</mask>
<path fill="url(#paint0_linear_4_1274)" d="M0.352539 0H347.353V46H0.352539V0Z"></path>
<path mask="url(#path-2-inside-1_4_1274)" fill="black" d="M0.352539 0V-3H-2.64746V0H0.352539ZM347.353 0H350.353V-3H347.353V0ZM0.352539 3H347.353V-3H0.352539V3ZM344.353 0V46H350.353V0H344.353ZM3.35254 46V0H-2.64746V46H3.35254Z"></path>
<g filter="url(#filter0_i_4_1274)">
<rect fill-opacity="0.8" fill="#D9D9D9" height="29" width="30" y="9.62549" x="8.35254"></rect>
</g>
<g filter="url(#filter1_i_4_1274)">
<rect fill-opacity="0.8" fill="#D9D9D9" height="29" width="30" y="9.62549" x="46.3525"></rect>
</g>
<path fill="#D9D9D9" d="M86.9365 30.6255V19.4255H88.2005V24.4015H94.6645V19.4255H95.9285V30.6255H94.6645V25.5855H88.2005V30.6255H86.9365ZM102.501 30.8175C100.229 30.8175 98.3728 29.0735 98.3728 26.5135V26.4815C98.3728 24.0975 100.053 22.1775 102.341 22.1775C104.789 22.1775 106.197 24.1295 106.197 26.5455C106.197 26.7055 106.197 26.8015 106.181 26.9455H99.6208C99.7968 28.7375 101.061 29.7455 102.533 29.7455C103.669 29.7455 104.469 29.2815 105.141 28.5775L105.909 29.2655C105.077 30.1935 104.069 30.8175 102.501 30.8175ZM99.6208 26.0335H104.949C104.821 24.5295 103.957 23.2175 102.309 23.2175C100.869 23.2175 99.7808 24.4175 99.6208 26.0335ZM108.466 30.6255V18.9455H109.698V30.6255H108.466ZM112.669 30.6255V18.9455H113.901V30.6255H112.669ZM120.536 30.8175C118.056 30.8175 116.248 28.8655 116.248 26.5295V26.4975C116.248 24.1615 118.072 22.1775 120.568 22.1775C123.048 22.1775 124.872 24.1295 124.872 26.4655V26.4975C124.872 28.8335 123.032 30.8175 120.536 30.8175ZM120.568 29.7135C122.36 29.7135 123.608 28.2735 123.608 26.5295V26.4975C123.608 24.7215 122.28 23.2655 120.536 23.2655C118.744 23.2655 117.512 24.7215 117.512 26.4655V26.4975C117.512 28.2735 118.824 29.7135 120.568 29.7135ZM125.696 33.1855V32.1775H135.36V33.1855H125.696ZM136.905 30.6255V19.4255H138.169V24.4015H144.633V19.4255H145.897V30.6255H144.633V25.5855H138.169V30.6255H136.905ZM151.318 30.8015C149.782 30.8015 148.23 29.9215 148.23 28.2255V28.1935C148.23 26.4495 149.67 25.5215 151.766 25.5215C152.822 25.5215 153.574 25.6655 154.31 25.8735V25.5855C154.31 24.0975 153.398 23.3295 151.846 23.3295C150.87 23.3295 150.102 23.5855 149.334 23.9375L148.966 22.9295C149.878 22.5135 150.774 22.2415 151.974 22.2415C153.142 22.2415 154.038 22.5455 154.646 23.1535C155.206 23.7135 155.494 24.5135 155.494 25.5695V30.6255H154.31V29.3775C153.734 30.1295 152.774 30.8015 151.318 30.8015ZM151.558 29.8255C153.078 29.8255 154.326 28.8975 154.326 27.5855V26.7855C153.718 26.6095 152.902 26.4335 151.894 26.4335C150.342 26.4335 149.478 27.1055 149.478 28.1455V28.1775C149.478 29.2175 150.438 29.8255 151.558 29.8255ZM158.119 33.1855V22.3535H159.351V24.0175C160.023 23.0255 160.999 22.1775 162.519 22.1775C164.503 22.1775 166.471 23.7455 166.471 26.4655V26.4975C166.471 29.2015 164.519 30.8015 162.519 30.8015C160.983 30.8015 159.991 29.9695 159.351 29.0415V33.1855H158.119ZM162.295 29.6975C163.895 29.6975 165.207 28.5135 165.207 26.5135V26.4815C165.207 24.5295 163.863 23.2815 162.295 23.2815C160.759 23.2815 159.303 24.5775 159.303 26.4655V26.4975C159.303 28.4175 160.759 29.6975 162.295 29.6975ZM168.744 33.1855V22.3535H169.976V24.0175C170.648 23.0255 171.624 22.1775 173.144 22.1775C175.128 22.1775 177.096 23.7455 177.096 26.4655V26.4975C177.096 29.2015 175.144 30.8015 173.144 30.8015C171.608 30.8015 170.616 29.9695 169.976 29.0415V33.1855H168.744ZM172.92 29.6975C174.52 29.6975 175.832 28.5135 175.832 26.5135V26.4815C175.832 24.5295 174.488 23.2815 172.92 23.2815C171.384 23.2815 169.928 24.5775 169.928 26.4655V26.4975C169.928 28.4175 171.384 29.6975 172.92 29.6975ZM182.499 29.2495L185.155 22.3535H186.467L182.995 30.8975C182.291 32.6095 181.491 33.2335 180.243 33.2335C179.555 33.2335 179.043 33.0895 178.483 32.8175L178.899 31.8415C179.299 32.0495 179.667 32.1455 180.195 32.1455C180.931 32.1455 181.395 31.7615 181.891 30.5935L178.131 22.3535H179.491L182.499 29.2495ZM186.913 30.6255V28.9455H188.385V30.6255H186.913ZM191.073 20.5455V19.1855H192.481V20.5455H191.073ZM190.369 33.2335C190.081 33.2335 189.873 33.2175 189.601 33.1535V32.1455C189.793 32.1775 190.033 32.1935 190.209 32.1935C190.769 32.1935 191.153 31.8575 191.153 31.0895V22.3535H192.385V31.1055C192.385 32.5615 191.617 33.2335 190.369 33.2335ZM195.244 33.1855V22.3535H196.476V24.0175C197.148 23.0255 198.124 22.1775 199.644 22.1775C201.628 22.1775 203.596 23.7455 203.596 26.4655V26.4975C203.596 29.2015 201.644 30.8015 199.644 30.8015C198.108 30.8015 197.116 29.9695 196.476 29.0415V33.1855H195.244ZM199.42 29.6975C201.02 29.6975 202.332 28.5135 202.332 26.5135V26.4815C202.332 24.5295 200.988 23.2815 199.42 23.2815C197.884 23.2815 196.428 24.5775 196.428 26.4655V26.4975C196.428 28.4175 197.884 29.6975 199.42 29.6975ZM209.533 33.2175C208.157 33.2175 206.877 32.8335 205.773 32.0655L206.333 31.1055C207.277 31.7935 208.333 32.1615 209.517 32.1615C211.341 32.1615 212.525 31.1535 212.525 29.2175V28.2415C211.805 29.2015 210.797 29.9855 209.277 29.9855C207.293 29.9855 205.389 28.4975 205.389 26.1135V26.0815C205.389 23.6655 207.309 22.1775 209.277 22.1775C210.829 22.1775 211.837 22.9455 212.509 23.8415V22.3535H213.741V29.1855C213.741 30.4655 213.357 31.4415 212.685 32.1135C211.949 32.8495 210.845 33.2175 209.533 33.2175ZM209.517 28.8975C211.085 28.8975 212.557 27.7615 212.557 26.0975V26.0655C212.557 24.3695 211.085 23.2655 209.517 23.2655C207.949 23.2655 206.653 24.3535 206.653 26.0495V26.0815C206.653 27.7455 207.981 28.8975 209.517 28.8975Z"></path>
<defs>
<filter color-interpolation-filters="sRGB" filterUnits="userSpaceOnUse" height="30" width="31" y="9.62549" x="8.35254" id="filter0_i_4_1274">
<feFlood result="BackgroundImageFix" flood-opacity="0"></feFlood>
<feBlend result="shape" in2="BackgroundImageFix" in="SourceGraphic" mode="normal"></feBlend>
<feColorMatrix result="hardAlpha" values="0 0 0 0 0 0 0 0 0 0 0 0 0 0 0 0 0 0 127 0" type="matrix" in="SourceAlpha"></feColorMatrix>
<feOffset dy="2" dx="3"></feOffset>
<feGaussianBlur stdDeviation="0.5"></feGaussianBlur>
<feComposite k3="1" k2="-1" operator="arithmetic" in2="hardAlpha"></feComposite>
<feColorMatrix values="0 0 0 0 0 0 0 0 0 0 0 0 0 0 0 0 0 0 0.25 0" type="matrix"></feColorMatrix>
<feBlend result="effect1_innerShadow_4_1274" in2="shape" mode="normal"></feBlend>
</filter>
<filter color-interpolation-filters="sRGB" filterUnits="userSpaceOnUse" height="30" width="31" y="9.62549" x="46.3525" id="filter1_i_4_1274">
<feFlood result="BackgroundImageFix" flood-opacity="0"></feFlood>
<feBlend result="shape" in2="BackgroundImageFix" in="SourceGraphic" mode="normal"></feBlend>
<feColorMatrix result="hardAlpha" values="0 0 0 0 0 0 0 0 0 0 0 0 0 0 0 0 0 0 127 0" type="matrix" in="SourceAlpha"></feColorMatrix>
<feOffset dy="2" dx="3"></feOffset>
<feGaussianBlur stdDeviation="0.5"></feGaussianBlur>
<feComposite k3="1" k2="-1" operator="arithmetic" in2="hardAlpha"></feComposite>
<feColorMatrix values="0 0 0 0 0 0 0 0 0 0 0 0 0 0 0 0 0 0 0.25 0" type="matrix"></feColorMatrix>
<feBlend result="effect1_innerShadow_4_1274" in2="shape" mode="normal"></feBlend>
</filter>
<linearGradient gradientUnits="userSpaceOnUse" y2="22.455" x2="450.61" y1="22.455" x1="64.8004" id="paint0_linear_4_1274">
<stop stop-color="#01697D"></stop>
<stop stop-color="#02BFE3" offset="1"></stop>
</linearGradient>
</defs>
</svg>
