<svg xmlns="http://www.w3.org/2000/svg" fill="none" viewBox="0 0 1019 596" height="596" width="1019">
<g filter="url(#filter0_dddddddd_30_1452)">
<rect shape-rendering="crispEdges" fill="#EFEFEF" height="564.209" width="988" y="0.388672" x="31"></rect>
<rect shape-rendering="crispEdges" stroke-width="3" stroke="black" height="561.209" width="985" y="1.88867" x="32.5"></rect>
</g>
<mask fill="white" id="path-3-inside-1_30_1452">
<path d="M31 0.416504H1019V46.4165H31V0.416504Z"></path>
</mask>
<path fill="url(#paint0_linear_30_1452)" d="M31 0.416504H1019V46.4165H31V0.416504Z"></path>
<path mask="url(#path-3-inside-1_30_1452)" fill="black" d="M31 0.416504V-2.5835H28V0.416504H31ZM1019 0.416504H1022V-2.5835H1019V0.416504ZM31 3.4165H1019V-2.5835H31V3.4165ZM1016 0.416504V46.4165H1022V0.416504H1016ZM34 46.4165V0.416504H28V46.4165H34Z"></path>
<g filter="url(#filter1_i_30_1452)">
<rect fill-opacity="0.8" fill="#D9D9D9" height="29" width="29" y="10.4165" x="46"></rect>
</g>
<g filter="url(#filter2_i_30_1452)">
<rect fill-opacity="0.8" fill="#D9D9D9" height="29" width="29" y="10.4165" x="83"></rect>
</g>
<path fill="#D9D9D9" d="M135.584 31.4165V20.2165H136.848V30.2485H143.152V31.4165H135.584Z"></path>
<path fill="#D9D9D9" d="M147.746 31.5925C146.21 31.5925 144.658 30.7125 144.658 29.0165V28.9845C144.658 27.2405 146.098 26.3125 148.194 26.3125C149.25 26.3125 150.002 26.4565 150.738 26.6645V26.3765C150.738 24.8885 149.826 24.1205 148.274 24.1205C147.298 24.1205 146.53 24.3765 145.762 24.7285L145.394 23.7205C146.306 23.3045 147.202 23.0325 148.402 23.0325C149.57 23.0325 150.466 23.3365 151.074 23.9445C151.634 24.5045 151.922 25.3045 151.922 26.3605V31.4165H150.738V30.1685C150.162 30.9205 149.202 31.5925 147.746 31.5925ZM147.986 30.6165C149.506 30.6165 150.754 29.6885 150.754 28.3765V27.5765C150.146 27.4005 149.33 27.2245 148.322 27.2245C146.77 27.2245 145.906 27.8965 145.906 28.9365V28.9685C145.906 30.0085 146.866 30.6165 147.986 30.6165Z"></path>
<path fill="#D9D9D9" d="M157.284 31.5765C156.1 31.5765 154.788 31.1125 153.86 30.3605L154.484 29.4805C155.38 30.1525 156.372 30.5365 157.348 30.5365C158.34 30.5365 159.06 30.0245 159.06 29.2245V29.1925C159.06 28.3605 158.084 28.0405 156.996 27.7365C155.7 27.3685 154.26 26.9205 154.26 25.4005V25.3685C154.26 23.9445 155.444 23.0005 157.076 23.0005C158.084 23.0005 159.204 23.3525 160.052 23.9125L159.492 24.8405C158.724 24.3445 157.844 24.0405 157.044 24.0405C156.068 24.0405 155.444 24.5525 155.444 25.2405V25.2725C155.444 26.0565 156.468 26.3605 157.572 26.6965C158.852 27.0805 160.228 27.5765 160.228 29.0645V29.0965C160.228 30.6645 158.932 31.5765 157.284 31.5765Z"></path>
<path fill="#D9D9D9" d="M165.128 31.5605C163.8 31.5605 162.792 30.9045 162.792 29.2245V24.2325H161.64V23.1445H162.792V20.6485H164.024V23.1445H166.648V24.2325H164.024V29.0645C164.024 30.0725 164.584 30.4405 165.416 30.4405C165.832 30.4405 166.184 30.3605 166.616 30.1525V31.2085C166.184 31.4325 165.72 31.5605 165.128 31.5605Z"></path>
<path fill="#D9D9D9" d="M167.421 33.9765V32.9685H177.085V33.9765H167.421Z"></path>
<path fill="#D9D9D9" d="M183.831 31.6085C180.423 31.6085 178.135 28.9365 178.135 25.8485V25.8165C178.135 22.7285 180.455 20.0245 183.863 20.0245C187.271 20.0245 189.559 22.6965 189.559 25.7845V25.8165C189.559 28.9045 187.239 31.6085 183.831 31.6085ZM183.863 30.4405C186.423 30.4405 188.247 28.3925 188.247 25.8485V25.8165C188.247 23.2725 186.391 21.1925 183.831 21.1925C181.271 21.1925 179.447 23.2405 179.447 25.7845V25.8165C179.447 28.3605 181.303 30.4405 183.863 30.4405Z"></path>
<path fill="#D9D9D9" d="M192.017 31.4165V23.1445H193.249V24.5845C193.793 23.6885 194.657 22.9685 196.081 22.9685C198.081 22.9685 199.249 24.3125 199.249 26.2805V31.4165H198.017V26.5845C198.017 25.0485 197.185 24.0885 195.729 24.0885C194.305 24.0885 193.249 25.1285 193.249 26.6805V31.4165H192.017Z"></path>
<path fill="#D9D9D9" d="M205.492 31.6085C203.22 31.6085 201.364 29.8645 201.364 27.3045V27.2725C201.364 24.8885 203.044 22.9685 205.332 22.9685C207.78 22.9685 209.188 24.9205 209.188 27.3365C209.188 27.4965 209.188 27.5925 209.172 27.7365H202.612C202.788 29.5285 204.052 30.5365 205.524 30.5365C206.66 30.5365 207.46 30.0725 208.132 29.3685L208.9 30.0565C208.068 30.9845 207.06 31.6085 205.492 31.6085ZM202.612 26.8245H207.94C207.812 25.3205 206.948 24.0085 205.3 24.0085C203.86 24.0085 202.772 25.2085 202.612 26.8245Z"></path>
<path fill="#D9D9D9" d="M209.937 33.9765V32.9685H219.601V33.9765H209.937Z"></path>
<path fill="#D9D9D9" d="M223.706 31.5605C222.378 31.5605 221.37 30.9045 221.37 29.2245V24.2325H220.218V23.1445H221.37V20.6485H222.602V23.1445H225.226V24.2325H222.602V29.0645C222.602 30.0725 223.162 30.4405 223.994 30.4405C224.41 30.4405 224.762 30.3605 225.194 30.1525V31.2085C224.762 31.4325 224.298 31.5605 223.706 31.5605Z"></path>
<path fill="#D9D9D9" d="M230.949 31.6085C228.469 31.6085 226.661 29.6565 226.661 27.3205V27.2885C226.661 24.9525 228.485 22.9685 230.981 22.9685C233.461 22.9685 235.285 24.9205 235.285 27.2565V27.2885C235.285 29.6245 233.445 31.6085 230.949 31.6085ZM230.981 30.5045C232.773 30.5045 234.021 29.0645 234.021 27.3205V27.2885C234.021 25.5125 232.693 24.0565 230.949 24.0565C229.157 24.0565 227.925 25.5125 227.925 27.2565V27.2885C227.925 29.0645 229.237 30.5045 230.981 30.5045Z"></path>
<path fill="#D9D9D9" d="M236.109 33.9765V32.9685H245.773V33.9765H236.109Z"></path>
<path fill="#D9D9D9" d="M247.318 31.4165V20.2165H252.086C253.366 20.2165 254.374 20.5845 255.014 21.2085C255.478 21.6885 255.734 22.2805 255.734 23.0005V23.0325C255.734 24.4885 254.838 25.2405 253.958 25.6245C255.286 26.0245 256.358 26.7925 256.358 28.3285V28.3605C256.358 30.2805 254.742 31.4165 252.294 31.4165H247.318ZM254.454 23.2085V23.1765C254.454 22.0725 253.574 21.3525 251.974 21.3525H248.566V25.2085H251.878C253.398 25.2085 254.454 24.5205 254.454 23.2085ZM255.078 28.2485C255.078 27.0325 254.054 26.3285 252.102 26.3285H248.566V30.2805H252.326C254.022 30.2805 255.078 29.5285 255.078 28.2805V28.2485Z"></path>
<path fill="#D9D9D9" d="M262.273 31.6085C260.001 31.6085 258.145 29.8645 258.145 27.3045V27.2725C258.145 24.8885 259.825 22.9685 262.113 22.9685C264.561 22.9685 265.969 24.9205 265.969 27.3365C265.969 27.4965 265.969 27.5925 265.953 27.7365H259.393C259.569 29.5285 260.833 30.5365 262.305 30.5365C263.441 30.5365 264.241 30.0725 264.913 29.3685L265.681 30.0565C264.849 30.9845 263.841 31.6085 262.273 31.6085ZM259.393 26.8245H264.721C264.593 25.3205 263.729 24.0085 262.081 24.0085C260.641 24.0085 259.553 25.2085 259.393 26.8245Z"></path>
<path fill="#D9D9D9" d="M271.598 31.5925C269.614 31.5925 267.646 30.0245 267.646 27.3045V27.2725C267.646 24.5685 269.614 22.9685 271.598 22.9685C273.134 22.9685 274.126 23.8005 274.766 24.7285V19.7365H275.998V31.4165H274.766V29.7525C274.094 30.7445 273.118 31.5925 271.598 31.5925ZM271.822 30.4885C273.358 30.4885 274.814 29.1925 274.814 27.2885V27.2565C274.814 25.3525 273.358 24.0725 271.822 24.0725C270.222 24.0725 268.91 25.2565 268.91 27.2565V27.2885C268.91 29.2405 270.27 30.4885 271.822 30.4885Z"></path>
<path fill="#D9D9D9" d="M277.343 33.9765V32.9685H287.007V33.9765H277.343Z"></path>
<path fill="#D9D9D9" d="M288.377 21.3365V19.9765H289.785V21.3365H288.377ZM288.457 31.4165V23.1445H289.689V31.4165H288.457Z"></path>
<path fill="#D9D9D9" d="M295.284 31.5765C294.1 31.5765 292.788 31.1125 291.86 30.3605L292.484 29.4805C293.38 30.1525 294.372 30.5365 295.348 30.5365C296.34 30.5365 297.06 30.0245 297.06 29.2245V29.1925C297.06 28.3605 296.084 28.0405 294.996 27.7365C293.7 27.3685 292.26 26.9205 292.26 25.4005V25.3685C292.26 23.9445 293.444 23.0005 295.076 23.0005C296.084 23.0005 297.204 23.3525 298.052 23.9125L297.492 24.8405C296.724 24.3445 295.844 24.0405 295.044 24.0405C294.068 24.0405 293.444 24.5525 293.444 25.2405V25.2725C293.444 26.0565 294.468 26.3605 295.572 26.6965C296.852 27.0805 298.228 27.5765 298.228 29.0645V29.0965C298.228 30.6645 296.932 31.5765 295.284 31.5765Z"></path>
<path fill="#D9D9D9" d="M299.109 33.9765V32.9685H308.773V33.9765H299.109Z"></path>
<path fill="#D9D9D9" d="M312.574 31.5925C311.038 31.5925 309.486 30.7125 309.486 29.0165V28.9845C309.486 27.2405 310.926 26.3125 313.022 26.3125C314.078 26.3125 314.83 26.4565 315.566 26.6645V26.3765C315.566 24.8885 314.654 24.1205 313.102 24.1205C312.126 24.1205 311.358 24.3765 310.59 24.7285L310.222 23.7205C311.134 23.3045 312.03 23.0325 313.23 23.0325C314.398 23.0325 315.294 23.3365 315.902 23.9445C316.462 24.5045 316.75 25.3045 316.75 26.3605V31.4165H315.566V30.1685C314.99 30.9205 314.03 31.5925 312.574 31.5925ZM312.814 30.6165C314.334 30.6165 315.582 29.6885 315.582 28.3765V27.5765C314.974 27.4005 314.158 27.2245 313.15 27.2245C311.598 27.2245 310.734 27.8965 310.734 28.9365V28.9685C310.734 30.0085 311.694 30.6165 312.814 30.6165Z"></path>
<path fill="#D9D9D9" d="M317.968 33.9765V32.9685H327.632V33.9765H317.968Z"></path>
<path fill="#D9D9D9" d="M329.178 31.4165V20.2165H333.994C335.37 20.2165 336.474 20.6325 337.178 21.3365C337.722 21.8805 338.042 22.6645 338.042 23.5445V23.5765C338.042 25.4325 336.762 26.5205 335.002 26.8405L338.442 31.4165H336.89L333.642 27.0645H330.442V31.4165H329.178ZM330.442 25.9285H333.882C335.562 25.9285 336.762 25.0645 336.762 23.6245V23.5925C336.762 22.2165 335.706 21.3845 333.898 21.3845H330.442V25.9285Z"></path>
<path fill="#D9D9D9" d="M344.152 31.6085C341.672 31.6085 339.864 29.6565 339.864 27.3205V27.2885C339.864 24.9525 341.688 22.9685 344.184 22.9685C346.664 22.9685 348.488 24.9205 348.488 27.2565V27.2885C348.488 29.6245 346.648 31.6085 344.152 31.6085ZM344.184 30.5045C345.976 30.5045 347.224 29.0645 347.224 27.3205V27.2885C347.224 25.5125 345.896 24.0565 344.152 24.0565C342.36 24.0565 341.128 25.5125 341.128 27.2565V27.2885C341.128 29.0645 342.44 30.5045 344.184 30.5045Z"></path>
<path fill="#D9D9D9" d="M353.488 31.5605C352.16 31.5605 351.152 30.9045 351.152 29.2245V24.2325H350V23.1445H351.152V20.6485H352.384V23.1445H355.008V24.2325H352.384V29.0645C352.384 30.0725 352.944 30.4405 353.776 30.4405C354.192 30.4405 354.544 30.3605 354.976 30.1525V31.2085C354.544 31.4325 354.08 31.5605 353.488 31.5605Z"></path>
<path fill="#D9D9D9" d="M359.956 31.5605C358.628 31.5605 357.62 30.9045 357.62 29.2245V24.2325H356.468V23.1445H357.62V20.6485H358.852V23.1445H361.476V24.2325H358.852V29.0645C358.852 30.0725 359.412 30.4405 360.244 30.4405C360.66 30.4405 361.012 30.3605 361.444 30.1525V31.2085C361.012 31.4325 360.548 31.5605 359.956 31.5605Z"></path>
<path fill="#D9D9D9" d="M367.039 31.6085C364.767 31.6085 362.911 29.8645 362.911 27.3045V27.2725C362.911 24.8885 364.591 22.9685 366.879 22.9685C369.327 22.9685 370.735 24.9205 370.735 27.3365C370.735 27.4965 370.735 27.5925 370.719 27.7365H364.159C364.335 29.5285 365.599 30.5365 367.071 30.5365C368.207 30.5365 369.007 30.0725 369.679 29.3685L370.447 30.0565C369.615 30.9845 368.607 31.6085 367.039 31.6085ZM364.159 26.8245H369.487C369.359 25.3205 368.495 24.0085 366.847 24.0085C365.407 24.0085 364.319 25.2085 364.159 26.8245Z"></path>
<path fill="#D9D9D9" d="M372.892 31.4165V23.1445H374.124V24.5845C374.668 23.6885 375.532 22.9685 376.956 22.9685C378.956 22.9685 380.124 24.3125 380.124 26.2805V31.4165H378.892V26.5845C378.892 25.0485 378.06 24.0885 376.604 24.0885C375.18 24.0885 374.124 25.1285 374.124 26.6805V31.4165H372.892Z"></path>
<path fill="#D9D9D9" d="M381.343 33.9765V32.9685H391.007V33.9765H381.343Z"></path>
<path fill="#D9D9D9" d="M392.553 31.4165V20.2165H400.649V21.3685H393.817V25.1925H399.929V26.3445H393.817V30.2645H400.729V31.4165H392.553Z"></path>
<path fill="#D9D9D9" d="M406.571 34.0085C405.195 34.0085 403.915 33.6245 402.811 32.8565L403.371 31.8965C404.315 32.5845 405.371 32.9525 406.555 32.9525C408.379 32.9525 409.563 31.9445 409.563 30.0085V29.0325C408.843 29.9925 407.835 30.7765 406.315 30.7765C404.331 30.7765 402.427 29.2885 402.427 26.9045V26.8725C402.427 24.4565 404.347 22.9685 406.315 22.9685C407.867 22.9685 408.875 23.7365 409.547 24.6325V23.1445H410.779V29.9765C410.779 31.2565 410.395 32.2325 409.723 32.9045C408.987 33.6405 407.883 34.0085 406.571 34.0085ZM406.555 29.6885C408.123 29.6885 409.595 28.5525 409.595 26.8885V26.8565C409.595 25.1605 408.123 24.0565 406.555 24.0565C404.987 24.0565 403.691 25.1445 403.691 26.8405V26.8725C403.691 28.5365 405.019 29.6885 406.555 29.6885Z"></path>
<path fill="#D9D9D9" d="M417.196 34.0085C415.82 34.0085 414.54 33.6245 413.436 32.8565L413.996 31.8965C414.94 32.5845 415.996 32.9525 417.18 32.9525C419.004 32.9525 420.188 31.9445 420.188 30.0085V29.0325C419.468 29.9925 418.46 30.7765 416.94 30.7765C414.956 30.7765 413.052 29.2885 413.052 26.9045V26.8725C413.052 24.4565 414.972 22.9685 416.94 22.9685C418.492 22.9685 419.5 23.7365 420.172 24.6325V23.1445H421.404V29.9765C421.404 31.2565 421.02 32.2325 420.348 32.9045C419.612 33.6405 418.508 34.0085 417.196 34.0085ZM417.18 29.6885C418.748 29.6885 420.22 28.5525 420.22 26.8885V26.8565C420.22 25.1605 418.748 24.0565 417.18 24.0565C415.612 24.0565 414.316 25.1445 414.316 26.8405V26.8725C414.316 28.5365 415.644 29.6885 417.18 29.6885Z"></path>
<path fill="#D9D9D9" d="M424.013 31.4165V29.7365H425.485V31.4165H424.013Z"></path>
<path fill="#D9D9D9" d="M431.383 31.6085C429.111 31.6085 427.255 29.8645 427.255 27.3045V27.2725C427.255 24.8885 428.935 22.9685 431.223 22.9685C433.671 22.9685 435.079 24.9205 435.079 27.3365C435.079 27.4965 435.079 27.5925 435.063 27.7365H428.503C428.679 29.5285 429.943 30.5365 431.415 30.5365C432.551 30.5365 433.351 30.0725 434.023 29.3685L434.791 30.0565C433.959 30.9845 432.951 31.6085 431.383 31.6085ZM428.503 26.8245H433.831C433.703 25.3205 432.839 24.0085 431.191 24.0085C429.751 24.0085 428.663 25.2085 428.503 26.8245Z"></path>
<path fill="#D9D9D9" d="M437.535 23.1445L439.967 26.3765L442.431 23.1445H443.807L440.671 27.1925L443.935 31.4165H442.511L439.951 28.0085L437.375 31.4165H435.999L439.231 27.2085L436.127 23.1445H437.535Z"></path>
<path fill="#D9D9D9" d="M448.992 31.6085C446.72 31.6085 444.864 29.8645 444.864 27.3045V27.2725C444.864 24.8885 446.544 22.9685 448.832 22.9685C451.28 22.9685 452.688 24.9205 452.688 27.3365C452.688 27.4965 452.688 27.5925 452.672 27.7365H446.112C446.288 29.5285 447.552 30.5365 449.024 30.5365C450.16 30.5365 450.96 30.0725 451.632 29.3685L452.4 30.0565C451.568 30.9845 450.56 31.6085 448.992 31.6085ZM446.112 26.8245H451.44C451.312 25.3205 450.448 24.0085 448.8 24.0085C447.36 24.0085 446.272 25.2085 446.112 26.8245Z"></path>
<defs>
<filter color-interpolation-filters="sRGB" filterUnits="userSpaceOnUse" height="595.209" width="1019" y="0.388672" x="0" id="filter0_dddddddd_30_1452">
<feFlood result="BackgroundImageFix" flood-opacity="0"></feFlood>
<feColorMatrix result="hardAlpha" values="0 0 0 0 0 0 0 0 0 0 0 0 0 0 0 0 0 0 127 0" type="matrix" in="SourceAlpha"></feColorMatrix>
<feOffset dy="29" dx="-29"></feOffset>
<feGaussianBlur stdDeviation="1"></feGaussianBlur>
<feComposite operator="out" in2="hardAlpha"></feComposite>
<feColorMatrix values="0 0 0 0 0 0 0 0 0 0 0 0 0 0 0 0 0 0 1 0" type="matrix"></feColorMatrix>
<feBlend result="effect1_dropShadow_30_1452" in2="BackgroundImageFix" mode="normal"></feBlend>
<feColorMatrix result="hardAlpha" values="0 0 0 0 0 0 0 0 0 0 0 0 0 0 0 0 0 0 127 0" type="matrix" in="SourceAlpha"></feColorMatrix>
<feOffset dy="26" dx="-26"></feOffset>
<feComposite operator="out" in2="hardAlpha"></feComposite>
<feColorMatrix values="0 0 0 0 0.937255 0 0 0 0 0.937255 0 0 0 0 0.937255 0 0 0 1 0" type="matrix"></feColorMatrix>
<feBlend result="effect2_dropShadow_30_1452" in2="effect1_dropShadow_30_1452" mode="normal"></feBlend>
<feColorMatrix result="hardAlpha" values="0 0 0 0 0 0 0 0 0 0 0 0 0 0 0 0 0 0 127 0" type="matrix" in="SourceAlpha"></feColorMatrix>
<feOffset dy="23" dx="-22"></feOffset>
<feGaussianBlur stdDeviation="1.5"></feGaussianBlur>
<feComposite operator="out" in2="hardAlpha"></feComposite>
<feColorMatrix values="0 0 0 0 0 0 0 0 0 0 0 0 0 0 0 0 0 0 0.35 0" type="matrix"></feColorMatrix>
<feBlend result="effect3_dropShadow_30_1452" in2="effect2_dropShadow_30_1452" mode="normal"></feBlend>
<feColorMatrix result="hardAlpha" values="0 0 0 0 0 0 0 0 0 0 0 0 0 0 0 0 0 0 127 0" type="matrix" in="SourceAlpha"></feColorMatrix>
<feOffset dy="19" dx="-19"></feOffset>
<feGaussianBlur stdDeviation="1"></feGaussianBlur>
<feComposite operator="out" in2="hardAlpha"></feComposite>
<feColorMatrix values="0 0 0 0 0 0 0 0 0 0 0 0 0 0 0 0 0 0 1 0" type="matrix"></feColorMatrix>
<feBlend result="effect4_dropShadow_30_1452" in2="effect3_dropShadow_30_1452" mode="normal"></feBlend>
<feColorMatrix result="hardAlpha" values="0 0 0 0 0 0 0 0 0 0 0 0 0 0 0 0 0 0 127 0" type="matrix" in="SourceAlpha"></feColorMatrix>
<feOffset dy="16" dx="-16"></feOffset>
<feComposite operator="out" in2="hardAlpha"></feComposite>
<feColorMatrix values="0 0 0 0 0.937255 0 0 0 0 0.937255 0 0 0 0 0.937255 0 0 0 1 0" type="matrix"></feColorMatrix>
<feBlend result="effect5_dropShadow_30_1452" in2="effect4_dropShadow_30_1452" mode="normal"></feBlend>
<feColorMatrix result="hardAlpha" values="0 0 0 0 0 0 0 0 0 0 0 0 0 0 0 0 0 0 127 0" type="matrix" in="SourceAlpha"></feColorMatrix>
<feOffset dy="13" dx="-12"></feOffset>
<feGaussianBlur stdDeviation="1.5"></feGaussianBlur>
<feComposite operator="out" in2="hardAlpha"></feComposite>
<feColorMatrix values="0 0 0 0 0 0 0 0 0 0 0 0 0 0 0 0 0 0 0.35 0" type="matrix"></feColorMatrix>
<feBlend result="effect6_dropShadow_30_1452" in2="effect5_dropShadow_30_1452" mode="normal"></feBlend>
<feColorMatrix result="hardAlpha" values="0 0 0 0 0 0 0 0 0 0 0 0 0 0 0 0 0 0 127 0" type="matrix" in="SourceAlpha"></feColorMatrix>
<feOffset dy="8" dx="-9"></feOffset>
<feGaussianBlur stdDeviation="1"></feGaussianBlur>
<feComposite operator="out" in2="hardAlpha"></feComposite>
<feColorMatrix values="0 0 0 0 0 0 0 0 0 0 0 0 0 0 0 0 0 0 1 0" type="matrix"></feColorMatrix>
<feBlend result="effect7_dropShadow_30_1452" in2="effect6_dropShadow_30_1452" mode="normal"></feBlend>
<feColorMatrix result="hardAlpha" values="0 0 0 0 0 0 0 0 0 0 0 0 0 0 0 0 0 0 127 0" type="matrix" in="SourceAlpha"></feColorMatrix>
<feOffset dy="6" dx="-6"></feOffset>
<feComposite operator="out" in2="hardAlpha"></feComposite>
<feColorMatrix values="0 0 0 0 0.937255 0 0 0 0 0.937255 0 0 0 0 0.937255 0 0 0 1 0" type="matrix"></feColorMatrix>
<feBlend result="effect8_dropShadow_30_1452" in2="effect7_dropShadow_30_1452" mode="normal"></feBlend>
<feBlend result="shape" in2="effect8_dropShadow_30_1452" in="SourceGraphic" mode="normal"></feBlend>
</filter>
<filter color-interpolation-filters="sRGB" filterUnits="userSpaceOnUse" height="30" width="30" y="10.4165" x="46" id="filter1_i_30_1452">
<feFlood result="BackgroundImageFix" flood-opacity="0"></feFlood>
<feBlend result="shape" in2="BackgroundImageFix" in="SourceGraphic" mode="normal"></feBlend>
<feColorMatrix result="hardAlpha" values="0 0 0 0 0 0 0 0 0 0 0 0 0 0 0 0 0 0 127 0" type="matrix" in="SourceAlpha"></feColorMatrix>
<feOffset dy="2" dx="3"></feOffset>
<feGaussianBlur stdDeviation="0.5"></feGaussianBlur>
<feComposite k3="1" k2="-1" operator="arithmetic" in2="hardAlpha"></feComposite>
<feColorMatrix values="0 0 0 0 0 0 0 0 0 0 0 0 0 0 0 0 0 0 0.25 0" type="matrix"></feColorMatrix>
<feBlend result="effect1_innerShadow_30_1452" in2="shape" mode="normal"></feBlend>
</filter>
<filter color-interpolation-filters="sRGB" filterUnits="userSpaceOnUse" height="30" width="30" y="10.4165" x="83" id="filter2_i_30_1452">
<feFlood result="BackgroundImageFix" flood-opacity="0"></feFlood>
<feBlend result="shape" in2="BackgroundImageFix" in="SourceGraphic" mode="normal"></feBlend>
<feColorMatrix result="hardAlpha" values="0 0 0 0 0 0 0 0 0 0 0 0 0 0 0 0 0 0 127 0" type="matrix" in="SourceAlpha"></feColorMatrix>
<feOffset dy="2" dx="3"></feOffset>
<feGaussianBlur stdDeviation="0.5"></feGaussianBlur>
<feComposite k3="1" k2="-1" operator="arithmetic" in2="hardAlpha"></feComposite>
<feColorMatrix values="0 0 0 0 0 0 0 0 0 0 0 0 0 0 0 0 0 0 0.25 0" type="matrix"></feColorMatrix>
<feBlend result="effect1_innerShadow_30_1452" in2="shape" mode="normal"></feBlend>
</filter>
<linearGradient gradientUnits="userSpaceOnUse" y2="22.8715" x2="1313" y1="22.8715" x1="214.5" id="paint0_linear_30_1452">
<stop stop-color="#01697D"></stop>
<stop stop-color="#02BFE3" offset="1"></stop>
</linearGradient>
</defs>
</svg>
