<svg width="2613" height="661" viewBox="0 0 2613 661" fill="none" xmlns="http://www.w3.org/2000/svg">
<mask id="path-1-outside-1_1018_43" maskUnits="userSpaceOnUse" x="0" y="0.541443" width="2613" height="660" fill="black">
<rect fill="white" y="0.541443" width="2613" height="660"/>
<path d="M1379.97 115.86C1359.6 115.86 1345.41 108.466 1335 97.1497L1353.56 78.7411C1361.1 86.4365 1368.95 90.8123 1378.76 90.8123C1387.06 90.8123 1392.19 86.5874 1392.19 80.0991V79.7973C1392.19 73.0072 1386.15 68.9332 1374.99 68.9332H1362.61L1358.54 53.6933L1382.68 31.8142H1342.39V8.12439H1418.59V28.9473L1393.39 50.6755C1408.48 53.9951 1420.71 62.294 1420.71 80.4009V80.7027C1420.71 102.129 1403.5 115.86 1379.97 115.86ZM1477.91 115.86C1447.88 115.86 1429.17 91.1141 1429.17 61.2378V60.936C1429.17 31.0597 1448.18 6.01192 1478.21 6.01192C1508.24 6.01192 1526.95 30.7579 1526.95 60.6342V60.936C1526.95 90.8123 1508.09 115.86 1477.91 115.86ZM1478.21 89.907C1489.98 89.907 1497.52 77.9866 1497.52 61.2378V60.936C1497.52 44.0363 1489.68 31.8142 1477.91 31.8142C1466.29 31.8142 1458.59 43.7345 1458.59 60.6342V60.936C1458.59 77.8357 1466.44 89.907 1478.21 89.907ZM1562.63 63.3503C1546.48 63.3503 1535.47 50.6755 1535.47 35.2846V34.9829C1535.47 19.4412 1546.33 6.61548 1562.78 6.61548C1579.23 6.61548 1589.94 19.2903 1589.94 34.832V35.1338C1589.94 50.5246 1578.92 63.3503 1562.63 63.3503ZM1562.63 23.0625C1557.35 23.0625 1553.88 28.0419 1553.88 34.832V35.1338C1553.88 41.7729 1557.8 46.9032 1562.78 46.9032C1567.91 46.9032 1571.53 41.9238 1571.53 35.2846V34.9829C1571.53 28.1928 1567.76 23.0625 1562.63 23.0625ZM1591.6 56.862L1628.57 8.12439H1648.94L1603.97 65.6136L1567.46 113.748H1547.09L1591.6 56.862ZM1633.24 115.257C1616.95 115.257 1606.08 102.431 1606.08 87.04V86.7383C1606.08 71.1966 1616.8 58.3709 1633.4 58.3709C1649.84 58.3709 1660.56 71.0457 1660.56 86.5874V86.8892C1660.56 102.28 1649.54 115.257 1633.24 115.257ZM1633.4 98.6586C1638.53 98.6586 1642.15 93.6792 1642.15 87.04V86.7383C1642.15 79.9482 1638.37 74.8179 1633.24 74.8179C1627.81 74.8179 1624.49 79.7973 1624.49 86.5874V86.8892C1624.49 93.5283 1628.42 98.6586 1633.4 98.6586ZM1764.33 115.86C1731.74 115.86 1707.6 91.5668 1707.6 61.2378V60.936C1707.6 30.6071 1732.04 6.01192 1764.63 6.01192C1797.23 6.01192 1821.37 30.3053 1821.37 60.6342V60.936C1821.37 91.265 1796.92 115.86 1764.33 115.86ZM1764.63 89.4543C1780.63 89.4543 1791.34 76.4777 1791.34 61.2378V60.936C1791.34 45.5452 1780.48 32.4177 1764.33 32.4177C1748.19 32.4177 1737.47 45.3943 1737.47 60.6342V60.936C1737.47 76.1759 1748.49 89.4543 1764.63 89.4543ZM1836.92 113.748V55.0513H1827.41V32.4177H1836.92V30.7579C1836.92 21.4027 1839.03 14.4618 1843.86 9.63329C1848.84 4.65391 1855.48 2.54144 1865.29 2.54144C1873.89 2.54144 1879.47 3.44679 1883.84 4.8048V25.0241C1880.53 23.9679 1877.36 23.3643 1873.13 23.3643C1867.85 23.3643 1864.98 25.7786 1864.98 31.0597V33.0213H1883.84V55.0513H1865.59V113.748H1836.92ZM1897.88 113.748V55.0513H1888.37V32.8704H1897.88V30.7579C1897.88 21.4027 1899.99 14.4618 1904.82 9.63329C1909.8 4.65391 1916.44 2.54144 1926.24 2.54144C1934.85 2.54144 1940.43 3.44679 1944.8 4.8048V25.0241C1941.48 23.9679 1938.32 23.3643 1934.09 23.3643C1928.81 23.3643 1925.94 25.7786 1925.94 31.0597V33.0213H1944.8V55.0513H1926.55V113.748H1897.88ZM1379.97 296.86C1359.6 296.86 1345.41 289.466 1335 278.15L1353.56 259.741C1361.1 267.436 1368.95 271.812 1378.76 271.812C1387.06 271.812 1392.19 267.587 1392.19 261.099V260.797C1392.19 254.007 1386.15 249.933 1374.99 249.933H1362.61L1358.54 234.693L1382.68 212.814H1342.39V189.124H1418.59V209.947L1393.39 231.675C1408.48 234.995 1420.71 243.294 1420.71 261.401V261.703C1420.71 283.129 1403.5 296.86 1379.97 296.86ZM1477.91 296.86C1447.88 296.86 1429.17 272.114 1429.17 242.238V241.936C1429.17 212.06 1448.18 187.012 1478.21 187.012C1508.24 187.012 1526.95 211.758 1526.95 241.634V241.936C1526.95 271.812 1508.09 296.86 1477.91 296.86ZM1478.21 270.907C1489.98 270.907 1497.52 258.987 1497.52 242.238V241.936C1497.52 225.036 1489.68 212.814 1477.91 212.814C1466.29 212.814 1458.59 224.735 1458.59 241.634V241.936C1458.59 258.836 1466.44 270.907 1478.21 270.907ZM1562.63 244.35C1546.48 244.35 1535.47 231.675 1535.47 216.285V215.983C1535.47 200.441 1546.33 187.615 1562.78 187.615C1579.23 187.615 1589.94 200.29 1589.94 215.832V216.134C1589.94 231.525 1578.92 244.35 1562.63 244.35ZM1562.63 204.063C1557.35 204.063 1553.88 209.042 1553.88 215.832V216.134C1553.88 222.773 1557.8 227.903 1562.78 227.903C1567.91 227.903 1571.53 222.924 1571.53 216.285V215.983C1571.53 209.193 1567.76 204.063 1562.63 204.063ZM1591.6 237.862L1628.57 189.124H1648.94L1603.97 246.614L1567.46 294.748H1547.09L1591.6 237.862ZM1633.24 296.257C1616.95 296.257 1606.08 283.431 1606.08 268.04V267.738C1606.08 252.197 1616.8 239.371 1633.4 239.371C1649.84 239.371 1660.56 252.046 1660.56 267.587V267.889C1660.56 283.28 1649.54 296.257 1633.24 296.257ZM1633.4 279.659C1638.53 279.659 1642.15 274.679 1642.15 268.04V267.738C1642.15 260.948 1638.37 255.818 1633.24 255.818C1627.81 255.818 1624.49 260.797 1624.49 267.587V267.889C1624.49 274.528 1628.42 279.659 1633.4 279.659ZM1764.33 296.86C1731.74 296.86 1707.6 272.567 1707.6 242.238V241.936C1707.6 211.607 1732.04 187.012 1764.63 187.012C1797.23 187.012 1821.37 211.305 1821.37 241.634V241.936C1821.37 272.265 1796.92 296.86 1764.33 296.86ZM1764.63 270.454C1780.63 270.454 1791.34 257.478 1791.34 242.238V241.936C1791.34 226.545 1780.48 213.418 1764.33 213.418C1748.19 213.418 1737.47 226.394 1737.47 241.634V241.936C1737.47 257.176 1748.49 270.454 1764.63 270.454ZM1836.92 294.748V236.051H1827.41V213.418H1836.92V211.758C1836.92 202.403 1839.03 195.462 1843.86 190.633C1848.84 185.654 1855.48 183.541 1865.29 183.541C1873.89 183.541 1879.47 184.447 1883.84 185.805V206.024C1880.53 204.968 1877.36 204.364 1873.13 204.364C1867.85 204.364 1864.98 206.779 1864.98 212.06V214.021H1883.84V236.051H1865.59V294.748H1836.92ZM1897.88 294.748V236.051H1888.37V213.87H1897.88V211.758C1897.88 202.403 1899.99 195.462 1904.82 190.633C1909.8 185.654 1916.44 183.541 1926.24 183.541C1934.85 183.541 1940.43 184.447 1944.8 185.805V206.024C1941.48 204.968 1938.32 204.364 1934.09 204.364C1928.81 204.364 1925.94 206.779 1925.94 212.06V214.021H1944.8V236.051H1926.55V294.748H1897.88ZM1379.97 477.86C1359.6 477.86 1345.41 470.466 1335 459.15L1353.56 440.741C1361.1 448.436 1368.95 452.812 1378.76 452.812C1387.06 452.812 1392.19 448.587 1392.19 442.099V441.797C1392.19 435.007 1386.15 430.933 1374.99 430.933H1362.61L1358.54 415.693L1382.68 393.814H1342.39V370.124H1418.59V390.947L1393.39 412.675C1408.48 415.995 1420.71 424.294 1420.71 442.401V442.703C1420.71 464.129 1403.5 477.86 1379.97 477.86ZM1477.91 477.86C1447.88 477.86 1429.17 453.114 1429.17 423.238V422.936C1429.17 393.06 1448.18 368.012 1478.21 368.012C1508.24 368.012 1526.95 392.758 1526.95 422.634V422.936C1526.95 452.812 1508.09 477.86 1477.91 477.86ZM1478.21 451.907C1489.98 451.907 1497.52 439.987 1497.52 423.238V422.936C1497.52 406.036 1489.68 393.814 1477.91 393.814C1466.29 393.814 1458.59 405.734 1458.59 422.634V422.936C1458.59 439.836 1466.44 451.907 1478.21 451.907ZM1562.63 425.35C1546.48 425.35 1535.47 412.675 1535.47 397.285V396.983C1535.47 381.441 1546.33 368.615 1562.78 368.615C1579.23 368.615 1589.94 381.29 1589.94 396.832V397.134C1589.94 412.525 1578.92 425.35 1562.63 425.35ZM1562.63 385.063C1557.35 385.063 1553.88 390.042 1553.88 396.832V397.134C1553.88 403.773 1557.8 408.903 1562.78 408.903C1567.91 408.903 1571.53 403.924 1571.53 397.285V396.983C1571.53 390.193 1567.76 385.063 1562.63 385.063ZM1591.6 418.862L1628.57 370.124H1648.94L1603.97 427.614L1567.46 475.748H1547.09L1591.6 418.862ZM1633.24 477.257C1616.95 477.257 1606.08 464.431 1606.08 449.04V448.738C1606.08 433.197 1616.8 420.371 1633.4 420.371C1649.84 420.371 1660.56 433.046 1660.56 448.587V448.889C1660.56 464.28 1649.54 477.257 1633.24 477.257ZM1633.4 460.659C1638.53 460.659 1642.15 455.679 1642.15 449.04V448.738C1642.15 441.948 1638.37 436.818 1633.24 436.818C1627.81 436.818 1624.49 441.797 1624.49 448.587V448.889C1624.49 455.528 1628.42 460.659 1633.4 460.659ZM1764.33 477.86C1731.74 477.86 1707.6 453.567 1707.6 423.238V422.936C1707.6 392.607 1732.04 368.012 1764.63 368.012C1797.23 368.012 1821.37 392.305 1821.37 422.634V422.936C1821.37 453.265 1796.92 477.86 1764.33 477.86ZM1764.63 451.454C1780.63 451.454 1791.34 438.478 1791.34 423.238V422.936C1791.34 407.545 1780.48 394.418 1764.33 394.418C1748.19 394.418 1737.47 407.394 1737.47 422.634V422.936C1737.47 438.176 1748.49 451.454 1764.63 451.454ZM1836.92 475.748V417.051H1827.41V394.418H1836.92V392.758C1836.92 383.403 1839.03 376.462 1843.86 371.633C1848.84 366.654 1855.48 364.541 1865.29 364.541C1873.89 364.541 1879.47 365.447 1883.84 366.805V387.024C1880.53 385.968 1877.36 385.364 1873.13 385.364C1867.85 385.364 1864.98 387.779 1864.98 393.06V395.021H1883.84V417.051H1865.59V475.748H1836.92ZM1897.88 475.748V417.051H1888.37V394.87H1897.88V392.758C1897.88 383.403 1899.99 376.462 1904.82 371.633C1909.8 366.654 1916.44 364.541 1926.24 364.541C1934.85 364.541 1940.43 365.447 1944.8 366.805V387.024C1941.48 385.968 1938.32 385.364 1934.09 385.364C1928.81 385.364 1925.94 387.779 1925.94 393.06V395.021H1944.8V417.051H1926.55V475.748H1897.88ZM1379.97 658.86C1359.6 658.86 1345.41 651.466 1335 640.15L1353.56 621.741C1361.1 629.436 1368.95 633.812 1378.76 633.812C1387.06 633.812 1392.19 629.587 1392.19 623.099V622.797C1392.19 616.007 1386.15 611.933 1374.99 611.933H1362.61L1358.54 596.693L1382.68 574.814H1342.39V551.124H1418.59V571.947L1393.39 593.675C1408.48 596.995 1420.71 605.294 1420.71 623.401V623.703C1420.71 645.129 1403.5 658.86 1379.97 658.86ZM1477.91 658.86C1447.88 658.86 1429.17 634.114 1429.17 604.238V603.936C1429.17 574.06 1448.18 549.012 1478.21 549.012C1508.24 549.012 1526.95 573.758 1526.95 603.634V603.936C1526.95 633.812 1508.09 658.86 1477.91 658.86ZM1478.21 632.907C1489.98 632.907 1497.52 620.987 1497.52 604.238V603.936C1497.52 587.036 1489.68 574.814 1477.91 574.814C1466.29 574.814 1458.59 586.734 1458.59 603.634V603.936C1458.59 620.836 1466.44 632.907 1478.21 632.907ZM1562.63 606.35C1546.48 606.35 1535.47 593.675 1535.47 578.285V577.983C1535.47 562.441 1546.33 549.615 1562.78 549.615C1579.23 549.615 1589.94 562.29 1589.94 577.832V578.134C1589.94 593.525 1578.92 606.35 1562.63 606.35ZM1562.63 566.063C1557.35 566.063 1553.88 571.042 1553.88 577.832V578.134C1553.88 584.773 1557.8 589.903 1562.78 589.903C1567.91 589.903 1571.53 584.924 1571.53 578.285V577.983C1571.53 571.193 1567.76 566.063 1562.63 566.063ZM1591.6 599.862L1628.57 551.124H1648.94L1603.97 608.614L1567.46 656.748H1547.09L1591.6 599.862ZM1633.24 658.257C1616.95 658.257 1606.08 645.431 1606.08 630.04V629.738C1606.08 614.197 1616.8 601.371 1633.4 601.371C1649.84 601.371 1660.56 614.046 1660.56 629.587V629.889C1660.56 645.28 1649.54 658.257 1633.24 658.257ZM1633.4 641.659C1638.53 641.659 1642.15 636.679 1642.15 630.04V629.738C1642.15 622.948 1638.37 617.818 1633.24 617.818C1627.81 617.818 1624.49 622.797 1624.49 629.587V629.889C1624.49 636.528 1628.42 641.659 1633.4 641.659ZM1764.33 658.86C1731.74 658.86 1707.6 634.567 1707.6 604.238V603.936C1707.6 573.607 1732.04 549.012 1764.63 549.012C1797.23 549.012 1821.37 573.305 1821.37 603.634V603.936C1821.37 634.265 1796.92 658.86 1764.33 658.86ZM1764.63 632.454C1780.63 632.454 1791.34 619.478 1791.34 604.238V603.936C1791.34 588.545 1780.48 575.418 1764.33 575.418C1748.19 575.418 1737.47 588.394 1737.47 603.634V603.936C1737.47 619.176 1748.49 632.454 1764.63 632.454ZM1836.92 656.748V598.051H1827.41V575.418H1836.92V573.758C1836.92 564.403 1839.03 557.462 1843.86 552.633C1848.84 547.654 1855.48 545.541 1865.29 545.541C1873.89 545.541 1879.47 546.447 1883.84 547.805V568.024C1880.53 566.968 1877.36 566.364 1873.13 566.364C1867.85 566.364 1864.98 568.779 1864.98 574.06V576.021H1883.84V598.051H1865.59V656.748H1836.92ZM1897.88 656.748V598.051H1888.37V575.87H1897.88V573.758C1897.88 564.403 1899.99 557.462 1904.82 552.633C1909.8 547.654 1916.44 545.541 1926.24 545.541C1934.85 545.541 1940.43 546.447 1944.8 547.805V568.024C1941.48 566.968 1938.32 566.364 1934.09 566.364C1928.81 566.364 1925.94 568.779 1925.94 574.06V576.021H1944.8V598.051H1926.55V656.748H1897.88Z"/>
<path d="M2045.97 115.86C2025.6 115.86 2011.41 108.466 2001 97.1497L2019.56 78.7411C2027.1 86.4365 2034.95 90.8123 2044.76 90.8123C2053.06 90.8123 2058.19 86.5874 2058.19 80.0991V79.7973C2058.19 73.0072 2052.15 68.9332 2040.99 68.9332H2028.61L2024.54 53.6933L2048.68 31.8142H2008.39V8.12439H2084.59V28.9473L2059.39 50.6755C2074.48 53.9951 2086.71 62.294 2086.71 80.4009V80.7027C2086.71 102.129 2069.5 115.86 2045.97 115.86ZM2143.91 115.86C2113.88 115.86 2095.17 91.1141 2095.17 61.2378V60.936C2095.17 31.0597 2114.18 6.01192 2144.21 6.01192C2174.24 6.01192 2192.95 30.7579 2192.95 60.6342V60.936C2192.95 90.8123 2174.09 115.86 2143.91 115.86ZM2144.21 89.907C2155.98 89.907 2163.52 77.9866 2163.52 61.2378V60.936C2163.52 44.0363 2155.68 31.8142 2143.91 31.8142C2132.29 31.8142 2124.59 43.7345 2124.59 60.6342V60.936C2124.59 77.8357 2132.44 89.907 2144.21 89.907ZM2228.63 63.3503C2212.48 63.3503 2201.47 50.6755 2201.47 35.2846V34.9829C2201.47 19.4412 2212.33 6.61548 2228.78 6.61548C2245.23 6.61548 2255.94 19.2903 2255.94 34.832V35.1338C2255.94 50.5246 2244.92 63.3503 2228.63 63.3503ZM2228.63 23.0625C2223.35 23.0625 2219.88 28.0419 2219.88 34.832V35.1338C2219.88 41.7729 2223.8 46.9032 2228.78 46.9032C2233.91 46.9032 2237.53 41.9238 2237.53 35.2846V34.9829C2237.53 28.1928 2233.76 23.0625 2228.63 23.0625ZM2257.6 56.862L2294.57 8.12439H2314.94L2269.97 65.6136L2233.46 113.748H2213.09L2257.6 56.862ZM2299.24 115.257C2282.95 115.257 2272.08 102.431 2272.08 87.04V86.7383C2272.08 71.1966 2282.8 58.3709 2299.4 58.3709C2315.84 58.3709 2326.56 71.0457 2326.56 86.5874V86.8892C2326.56 102.28 2315.54 115.257 2299.24 115.257ZM2299.4 98.6586C2304.53 98.6586 2308.15 93.6792 2308.15 87.04V86.7383C2308.15 79.9482 2304.37 74.8179 2299.24 74.8179C2293.81 74.8179 2290.49 79.7973 2290.49 86.5874V86.8892C2290.49 93.5283 2294.42 98.6586 2299.4 98.6586ZM2430.33 115.86C2397.74 115.86 2373.6 91.5668 2373.6 61.2378V60.936C2373.6 30.6071 2398.04 6.01192 2430.63 6.01192C2463.23 6.01192 2487.37 30.3053 2487.37 60.6342V60.936C2487.37 91.265 2462.92 115.86 2430.33 115.86ZM2430.63 89.4543C2446.63 89.4543 2457.34 76.4777 2457.34 61.2378V60.936C2457.34 45.5452 2446.48 32.4177 2430.33 32.4177C2414.19 32.4177 2403.47 45.3943 2403.47 60.6342V60.936C2403.47 76.1759 2414.49 89.4543 2430.63 89.4543ZM2502.92 113.748V55.0513H2493.41V32.4177H2502.92V30.7579C2502.92 21.4027 2505.03 14.4618 2509.86 9.63329C2514.84 4.65391 2521.48 2.54144 2531.29 2.54144C2539.89 2.54144 2545.47 3.44679 2549.84 4.8048V25.0241C2546.53 23.9679 2543.36 23.3643 2539.13 23.3643C2533.85 23.3643 2530.98 25.7786 2530.98 31.0597V33.0213H2549.84V55.0513H2531.59V113.748H2502.92ZM2563.88 113.748V55.0513H2554.37V32.8704H2563.88V30.7579C2563.88 21.4027 2565.99 14.4618 2570.82 9.63329C2575.8 4.65391 2582.44 2.54144 2592.24 2.54144C2600.85 2.54144 2606.43 3.44679 2610.8 4.8048V25.0241C2607.48 23.9679 2604.32 23.3643 2600.09 23.3643C2594.81 23.3643 2591.94 25.7786 2591.94 31.0597V33.0213H2610.8V55.0513H2592.55V113.748H2563.88ZM2045.97 296.86C2025.6 296.86 2011.41 289.466 2001 278.15L2019.56 259.741C2027.1 267.436 2034.95 271.812 2044.76 271.812C2053.06 271.812 2058.19 267.587 2058.19 261.099V260.797C2058.19 254.007 2052.15 249.933 2040.99 249.933H2028.61L2024.54 234.693L2048.68 212.814H2008.39V189.124H2084.59V209.947L2059.39 231.675C2074.48 234.995 2086.71 243.294 2086.71 261.401V261.703C2086.71 283.129 2069.5 296.86 2045.97 296.86ZM2143.91 296.86C2113.88 296.86 2095.17 272.114 2095.17 242.238V241.936C2095.17 212.06 2114.18 187.012 2144.21 187.012C2174.24 187.012 2192.95 211.758 2192.95 241.634V241.936C2192.95 271.812 2174.09 296.86 2143.91 296.86ZM2144.21 270.907C2155.98 270.907 2163.52 258.987 2163.52 242.238V241.936C2163.52 225.036 2155.68 212.814 2143.91 212.814C2132.29 212.814 2124.59 224.735 2124.59 241.634V241.936C2124.59 258.836 2132.44 270.907 2144.21 270.907ZM2228.63 244.35C2212.48 244.35 2201.47 231.675 2201.47 216.285V215.983C2201.47 200.441 2212.33 187.615 2228.78 187.615C2245.23 187.615 2255.94 200.29 2255.94 215.832V216.134C2255.94 231.525 2244.92 244.35 2228.63 244.35ZM2228.63 204.063C2223.35 204.063 2219.88 209.042 2219.88 215.832V216.134C2219.88 222.773 2223.8 227.903 2228.78 227.903C2233.91 227.903 2237.53 222.924 2237.53 216.285V215.983C2237.53 209.193 2233.76 204.063 2228.63 204.063ZM2257.6 237.862L2294.57 189.124H2314.94L2269.97 246.614L2233.46 294.748H2213.09L2257.6 237.862ZM2299.24 296.257C2282.95 296.257 2272.08 283.431 2272.08 268.04V267.738C2272.08 252.197 2282.8 239.371 2299.4 239.371C2315.84 239.371 2326.56 252.046 2326.56 267.587V267.889C2326.56 283.28 2315.54 296.257 2299.24 296.257ZM2299.4 279.659C2304.53 279.659 2308.15 274.679 2308.15 268.04V267.738C2308.15 260.948 2304.37 255.818 2299.24 255.818C2293.81 255.818 2290.49 260.797 2290.49 267.587V267.889C2290.49 274.528 2294.42 279.659 2299.4 279.659ZM2430.33 296.86C2397.74 296.86 2373.6 272.567 2373.6 242.238V241.936C2373.6 211.607 2398.04 187.012 2430.63 187.012C2463.23 187.012 2487.37 211.305 2487.37 241.634V241.936C2487.37 272.265 2462.92 296.86 2430.33 296.86ZM2430.63 270.454C2446.63 270.454 2457.34 257.478 2457.34 242.238V241.936C2457.34 226.545 2446.48 213.418 2430.33 213.418C2414.19 213.418 2403.47 226.394 2403.47 241.634V241.936C2403.47 257.176 2414.49 270.454 2430.63 270.454ZM2502.92 294.748V236.051H2493.41V213.418H2502.92V211.758C2502.92 202.403 2505.03 195.462 2509.86 190.633C2514.84 185.654 2521.48 183.541 2531.29 183.541C2539.89 183.541 2545.47 184.447 2549.84 185.805V206.024C2546.53 204.968 2543.36 204.364 2539.13 204.364C2533.85 204.364 2530.98 206.779 2530.98 212.06V214.021H2549.84V236.051H2531.59V294.748H2502.92ZM2563.88 294.748V236.051H2554.37V213.87H2563.88V211.758C2563.88 202.403 2565.99 195.462 2570.82 190.633C2575.8 185.654 2582.44 183.541 2592.24 183.541C2600.85 183.541 2606.43 184.447 2610.8 185.805V206.024C2607.48 204.968 2604.32 204.364 2600.09 204.364C2594.81 204.364 2591.94 206.779 2591.94 212.06V214.021H2610.8V236.051H2592.55V294.748H2563.88ZM2045.97 477.86C2025.6 477.86 2011.41 470.466 2001 459.15L2019.56 440.741C2027.1 448.436 2034.95 452.812 2044.76 452.812C2053.06 452.812 2058.19 448.587 2058.19 442.099V441.797C2058.19 435.007 2052.15 430.933 2040.99 430.933H2028.61L2024.54 415.693L2048.68 393.814H2008.39V370.124H2084.59V390.947L2059.39 412.675C2074.48 415.995 2086.71 424.294 2086.71 442.401V442.703C2086.71 464.129 2069.5 477.86 2045.97 477.86ZM2143.91 477.86C2113.88 477.86 2095.17 453.114 2095.17 423.238V422.936C2095.17 393.06 2114.18 368.012 2144.21 368.012C2174.24 368.012 2192.95 392.758 2192.95 422.634V422.936C2192.95 452.812 2174.09 477.86 2143.91 477.86ZM2144.21 451.907C2155.98 451.907 2163.52 439.987 2163.52 423.238V422.936C2163.52 406.036 2155.68 393.814 2143.91 393.814C2132.29 393.814 2124.59 405.734 2124.59 422.634V422.936C2124.59 439.836 2132.44 451.907 2144.21 451.907ZM2228.63 425.35C2212.48 425.35 2201.47 412.675 2201.47 397.285V396.983C2201.47 381.441 2212.33 368.615 2228.78 368.615C2245.23 368.615 2255.94 381.29 2255.94 396.832V397.134C2255.94 412.525 2244.92 425.35 2228.63 425.35ZM2228.63 385.063C2223.35 385.063 2219.88 390.042 2219.88 396.832V397.134C2219.88 403.773 2223.8 408.903 2228.78 408.903C2233.91 408.903 2237.53 403.924 2237.53 397.285V396.983C2237.53 390.193 2233.76 385.063 2228.63 385.063ZM2257.6 418.862L2294.57 370.124H2314.94L2269.97 427.614L2233.46 475.748H2213.09L2257.6 418.862ZM2299.24 477.257C2282.95 477.257 2272.08 464.431 2272.08 449.04V448.738C2272.08 433.197 2282.8 420.371 2299.4 420.371C2315.84 420.371 2326.56 433.046 2326.56 448.587V448.889C2326.56 464.28 2315.54 477.257 2299.24 477.257ZM2299.4 460.659C2304.53 460.659 2308.15 455.679 2308.15 449.04V448.738C2308.15 441.948 2304.37 436.818 2299.24 436.818C2293.81 436.818 2290.49 441.797 2290.49 448.587V448.889C2290.49 455.528 2294.42 460.659 2299.4 460.659ZM2430.33 477.86C2397.74 477.86 2373.6 453.567 2373.6 423.238V422.936C2373.6 392.607 2398.04 368.012 2430.63 368.012C2463.23 368.012 2487.37 392.305 2487.37 422.634V422.936C2487.37 453.265 2462.92 477.86 2430.33 477.86ZM2430.63 451.454C2446.63 451.454 2457.34 438.478 2457.34 423.238V422.936C2457.34 407.545 2446.48 394.418 2430.33 394.418C2414.19 394.418 2403.47 407.394 2403.47 422.634V422.936C2403.47 438.176 2414.49 451.454 2430.63 451.454ZM2502.92 475.748V417.051H2493.41V394.418H2502.92V392.758C2502.92 383.403 2505.03 376.462 2509.86 371.633C2514.84 366.654 2521.48 364.541 2531.29 364.541C2539.89 364.541 2545.47 365.447 2549.84 366.805V387.024C2546.53 385.968 2543.36 385.364 2539.13 385.364C2533.85 385.364 2530.98 387.779 2530.98 393.06V395.021H2549.84V417.051H2531.59V475.748H2502.92ZM2563.88 475.748V417.051H2554.37V394.87H2563.88V392.758C2563.88 383.403 2565.99 376.462 2570.82 371.633C2575.8 366.654 2582.44 364.541 2592.24 364.541C2600.85 364.541 2606.43 365.447 2610.8 366.805V387.024C2607.48 385.968 2604.32 385.364 2600.09 385.364C2594.81 385.364 2591.94 387.779 2591.94 393.06V395.021H2610.8V417.051H2592.55V475.748H2563.88ZM2045.97 658.86C2025.6 658.86 2011.41 651.466 2001 640.15L2019.56 621.741C2027.1 629.436 2034.95 633.812 2044.76 633.812C2053.06 633.812 2058.19 629.587 2058.19 623.099V622.797C2058.19 616.007 2052.15 611.933 2040.99 611.933H2028.61L2024.54 596.693L2048.68 574.814H2008.39V551.124H2084.59V571.947L2059.39 593.675C2074.48 596.995 2086.71 605.294 2086.71 623.401V623.703C2086.71 645.129 2069.5 658.86 2045.97 658.86ZM2143.91 658.86C2113.88 658.86 2095.17 634.114 2095.17 604.238V603.936C2095.17 574.06 2114.18 549.012 2144.21 549.012C2174.24 549.012 2192.95 573.758 2192.95 603.634V603.936C2192.95 633.812 2174.09 658.86 2143.91 658.86ZM2144.21 632.907C2155.98 632.907 2163.52 620.987 2163.52 604.238V603.936C2163.52 587.036 2155.68 574.814 2143.91 574.814C2132.29 574.814 2124.59 586.734 2124.59 603.634V603.936C2124.59 620.836 2132.44 632.907 2144.21 632.907ZM2228.63 606.35C2212.48 606.35 2201.47 593.675 2201.47 578.285V577.983C2201.47 562.441 2212.33 549.615 2228.78 549.615C2245.23 549.615 2255.94 562.29 2255.94 577.832V578.134C2255.94 593.525 2244.92 606.35 2228.63 606.35ZM2228.63 566.063C2223.35 566.063 2219.88 571.042 2219.88 577.832V578.134C2219.88 584.773 2223.8 589.903 2228.78 589.903C2233.91 589.903 2237.53 584.924 2237.53 578.285V577.983C2237.53 571.193 2233.76 566.063 2228.63 566.063ZM2257.6 599.862L2294.57 551.124H2314.94L2269.97 608.614L2233.46 656.748H2213.09L2257.6 599.862ZM2299.24 658.257C2282.95 658.257 2272.08 645.431 2272.08 630.04V629.738C2272.08 614.197 2282.8 601.371 2299.4 601.371C2315.84 601.371 2326.56 614.046 2326.56 629.587V629.889C2326.56 645.28 2315.54 658.257 2299.24 658.257ZM2299.4 641.659C2304.53 641.659 2308.15 636.679 2308.15 630.04V629.738C2308.15 622.948 2304.37 617.818 2299.24 617.818C2293.81 617.818 2290.49 622.797 2290.49 629.587V629.889C2290.49 636.528 2294.42 641.659 2299.4 641.659ZM2430.33 658.86C2397.74 658.86 2373.6 634.567 2373.6 604.238V603.936C2373.6 573.607 2398.04 549.012 2430.63 549.012C2463.23 549.012 2487.37 573.305 2487.37 603.634V603.936C2487.37 634.265 2462.92 658.86 2430.33 658.86ZM2430.63 632.454C2446.63 632.454 2457.34 619.478 2457.34 604.238V603.936C2457.34 588.545 2446.48 575.418 2430.33 575.418C2414.19 575.418 2403.47 588.394 2403.47 603.634V603.936C2403.47 619.176 2414.49 632.454 2430.63 632.454ZM2502.92 656.748V598.051H2493.41V575.418H2502.92V573.758C2502.92 564.403 2505.03 557.462 2509.86 552.633C2514.84 547.654 2521.48 545.541 2531.29 545.541C2539.89 545.541 2545.47 546.447 2549.84 547.805V568.024C2546.53 566.968 2543.36 566.364 2539.13 566.364C2533.85 566.364 2530.98 568.779 2530.98 574.06V576.021H2549.84V598.051H2531.59V656.748H2502.92ZM2563.88 656.748V598.051H2554.37V575.87H2563.88V573.758C2563.88 564.403 2565.99 557.462 2570.82 552.633C2575.8 547.654 2582.44 545.541 2592.24 545.541C2600.85 545.541 2606.43 546.447 2610.8 547.805V568.024C2607.48 566.968 2604.32 566.364 2600.09 566.364C2594.81 566.364 2591.94 568.779 2591.94 574.06V576.021H2610.8V598.051H2592.55V656.748H2563.88Z"/>
<path d="M713.965 115.86C693.595 115.86 679.411 108.466 669 97.1497L687.56 78.7411C695.104 86.4365 702.95 90.8123 712.758 90.8123C721.057 90.8123 726.187 86.5874 726.187 80.0991V79.7973C726.187 73.0072 720.152 68.9332 708.986 68.9332H696.613L692.539 53.6933L716.681 31.8142H676.394V8.12439H752.593V28.9473L727.395 50.6755C742.484 53.9951 754.706 62.294 754.706 80.4009V80.7027C754.706 102.129 737.504 115.86 713.965 115.86ZM811.907 115.86C781.88 115.86 763.17 91.1141 763.17 61.2378V60.936C763.17 31.0597 782.182 6.01192 812.209 6.01192C842.236 6.01192 860.947 30.7579 860.947 60.6342V60.936C860.947 90.8123 842.085 115.86 811.907 115.86ZM812.209 89.907C823.979 89.907 831.523 77.9866 831.523 61.2378V60.936C831.523 44.0363 823.677 31.8142 811.907 31.8142C800.289 31.8142 792.593 43.7345 792.593 60.6342V60.936C792.593 77.8357 800.44 89.907 812.209 89.907ZM896.628 63.3503C880.482 63.3503 869.467 50.6755 869.467 35.2846V34.9829C869.467 19.4412 880.331 6.61548 896.778 6.61548C913.225 6.61548 923.939 19.2903 923.939 34.832V35.1338C923.939 50.5246 912.924 63.3503 896.628 63.3503ZM896.628 23.0625C891.346 23.0625 887.876 28.0419 887.876 34.832V35.1338C887.876 41.7729 891.799 46.9032 896.778 46.9032C901.909 46.9032 905.53 41.9238 905.53 35.2846V34.9829C905.53 28.1928 901.758 23.0625 896.628 23.0625ZM925.598 56.862L962.567 8.12439H982.937L937.971 65.6136L901.456 113.748H881.086L925.598 56.862ZM967.244 115.257C950.948 115.257 940.084 102.431 940.084 87.04V86.7383C940.084 71.1966 950.797 58.3709 967.395 58.3709C983.842 58.3709 994.555 71.0457 994.555 86.5874V86.8892C994.555 102.28 983.54 115.257 967.244 115.257ZM967.395 98.6586C972.525 98.6586 976.147 93.6792 976.147 87.04V86.7383C976.147 79.9482 972.374 74.8179 967.244 74.8179C961.812 74.8179 958.493 79.7973 958.493 86.5874V86.8892C958.493 93.5283 962.416 98.6586 967.395 98.6586ZM1098.33 115.86C1065.74 115.86 1041.6 91.5668 1041.6 61.2378V60.936C1041.6 30.6071 1066.04 6.01192 1098.63 6.01192C1131.23 6.01192 1155.37 30.3053 1155.37 60.6342V60.936C1155.37 91.265 1130.92 115.86 1098.33 115.86ZM1098.63 89.4543C1114.63 89.4543 1125.34 76.4777 1125.34 61.2378V60.936C1125.34 45.5452 1114.48 32.4177 1098.33 32.4177C1082.19 32.4177 1071.47 45.3943 1071.47 60.6342V60.936C1071.47 76.1759 1082.49 89.4543 1098.63 89.4543ZM1170.92 113.748V55.0513H1161.41V32.4177H1170.92V30.7579C1170.92 21.4027 1173.03 14.4618 1177.86 9.63329C1182.84 4.65391 1189.48 2.54144 1199.29 2.54144C1207.89 2.54144 1213.47 3.44679 1217.84 4.8048V25.0241C1214.53 23.9679 1211.36 23.3643 1207.13 23.3643C1201.85 23.3643 1198.98 25.7786 1198.98 31.0597V33.0213H1217.84V55.0513H1199.59V113.748H1170.92ZM1231.88 113.748V55.0513H1222.37V32.8704H1231.88V30.7579C1231.88 21.4027 1233.99 14.4618 1238.82 9.63329C1243.8 4.65391 1250.44 2.54144 1260.24 2.54144C1268.85 2.54144 1274.43 3.44679 1278.8 4.8048V25.0241C1275.48 23.9679 1272.32 23.3643 1268.09 23.3643C1262.81 23.3643 1259.94 25.7786 1259.94 31.0597V33.0213H1278.8V55.0513H1260.55V113.748H1231.88ZM713.965 296.86C693.595 296.86 679.411 289.466 669 278.15L687.56 259.741C695.104 267.436 702.95 271.812 712.758 271.812C721.057 271.812 726.187 267.587 726.187 261.099V260.797C726.187 254.007 720.152 249.933 708.986 249.933H696.613L692.539 234.693L716.681 212.814H676.394V189.124H752.593V209.947L727.395 231.675C742.484 234.995 754.706 243.294 754.706 261.401V261.703C754.706 283.129 737.504 296.86 713.965 296.86ZM811.907 296.86C781.88 296.86 763.17 272.114 763.17 242.238V241.936C763.17 212.06 782.182 187.012 812.209 187.012C842.236 187.012 860.947 211.758 860.947 241.634V241.936C860.947 271.812 842.085 296.86 811.907 296.86ZM812.209 270.907C823.979 270.907 831.523 258.987 831.523 242.238V241.936C831.523 225.036 823.677 212.814 811.907 212.814C800.289 212.814 792.593 224.735 792.593 241.634V241.936C792.593 258.836 800.44 270.907 812.209 270.907ZM896.628 244.35C880.482 244.35 869.467 231.675 869.467 216.285V215.983C869.467 200.441 880.331 187.615 896.778 187.615C913.225 187.615 923.939 200.29 923.939 215.832V216.134C923.939 231.525 912.924 244.35 896.628 244.35ZM896.628 204.063C891.346 204.063 887.876 209.042 887.876 215.832V216.134C887.876 222.773 891.799 227.903 896.778 227.903C901.909 227.903 905.53 222.924 905.53 216.285V215.983C905.53 209.193 901.758 204.063 896.628 204.063ZM925.598 237.862L962.567 189.124H982.937L937.971 246.614L901.456 294.748H881.086L925.598 237.862ZM967.244 296.257C950.948 296.257 940.084 283.431 940.084 268.04V267.738C940.084 252.197 950.797 239.371 967.395 239.371C983.842 239.371 994.555 252.046 994.555 267.587V267.889C994.555 283.28 983.54 296.257 967.244 296.257ZM967.395 279.659C972.525 279.659 976.147 274.679 976.147 268.04V267.738C976.147 260.948 972.374 255.818 967.244 255.818C961.812 255.818 958.493 260.797 958.493 267.587V267.889C958.493 274.528 962.416 279.659 967.395 279.659ZM1098.33 296.86C1065.74 296.86 1041.6 272.567 1041.6 242.238V241.936C1041.6 211.607 1066.04 187.012 1098.63 187.012C1131.23 187.012 1155.37 211.305 1155.37 241.634V241.936C1155.37 272.265 1130.92 296.86 1098.33 296.86ZM1098.63 270.454C1114.63 270.454 1125.34 257.478 1125.34 242.238V241.936C1125.34 226.545 1114.48 213.418 1098.33 213.418C1082.19 213.418 1071.47 226.394 1071.47 241.634V241.936C1071.47 257.176 1082.49 270.454 1098.63 270.454ZM1170.92 294.748V236.051H1161.41V213.418H1170.92V211.758C1170.92 202.403 1173.03 195.462 1177.86 190.633C1182.84 185.654 1189.48 183.541 1199.29 183.541C1207.89 183.541 1213.47 184.447 1217.84 185.805V206.024C1214.53 204.968 1211.36 204.364 1207.13 204.364C1201.85 204.364 1198.98 206.779 1198.98 212.06V214.021H1217.84V236.051H1199.59V294.748H1170.92ZM1231.88 294.748V236.051H1222.37V213.87H1231.88V211.758C1231.88 202.403 1233.99 195.462 1238.82 190.633C1243.8 185.654 1250.44 183.541 1260.24 183.541C1268.85 183.541 1274.43 184.447 1278.8 185.805V206.024C1275.48 204.968 1272.32 204.364 1268.09 204.364C1262.81 204.364 1259.94 206.779 1259.94 212.06V214.021H1278.8V236.051H1260.55V294.748H1231.88ZM713.965 477.86C693.595 477.86 679.411 470.466 669 459.15L687.56 440.741C695.104 448.436 702.95 452.812 712.758 452.812C721.057 452.812 726.187 448.587 726.187 442.099V441.797C726.187 435.007 720.152 430.933 708.986 430.933H696.613L692.539 415.693L716.681 393.814H676.394V370.124H752.593V390.947L727.395 412.675C742.484 415.995 754.706 424.294 754.706 442.401V442.703C754.706 464.129 737.504 477.86 713.965 477.86ZM811.907 477.86C781.88 477.86 763.17 453.114 763.17 423.238V422.936C763.17 393.06 782.182 368.012 812.209 368.012C842.236 368.012 860.947 392.758 860.947 422.634V422.936C860.947 452.812 842.085 477.86 811.907 477.86ZM812.209 451.907C823.979 451.907 831.523 439.987 831.523 423.238V422.936C831.523 406.036 823.677 393.814 811.907 393.814C800.289 393.814 792.593 405.734 792.593 422.634V422.936C792.593 439.836 800.44 451.907 812.209 451.907ZM896.628 425.35C880.482 425.35 869.467 412.675 869.467 397.285V396.983C869.467 381.441 880.331 368.615 896.778 368.615C913.225 368.615 923.939 381.29 923.939 396.832V397.134C923.939 412.525 912.924 425.35 896.628 425.35ZM896.628 385.063C891.346 385.063 887.876 390.042 887.876 396.832V397.134C887.876 403.773 891.799 408.903 896.778 408.903C901.909 408.903 905.53 403.924 905.53 397.285V396.983C905.53 390.193 901.758 385.063 896.628 385.063ZM925.598 418.862L962.567 370.124H982.937L937.971 427.614L901.456 475.748H881.086L925.598 418.862ZM967.244 477.257C950.948 477.257 940.084 464.431 940.084 449.04V448.738C940.084 433.197 950.797 420.371 967.395 420.371C983.842 420.371 994.555 433.046 994.555 448.587V448.889C994.555 464.28 983.54 477.257 967.244 477.257ZM967.395 460.659C972.525 460.659 976.147 455.679 976.147 449.04V448.738C976.147 441.948 972.374 436.818 967.244 436.818C961.812 436.818 958.493 441.797 958.493 448.587V448.889C958.493 455.528 962.416 460.659 967.395 460.659ZM1098.33 477.86C1065.74 477.86 1041.6 453.567 1041.6 423.238V422.936C1041.6 392.607 1066.04 368.012 1098.63 368.012C1131.23 368.012 1155.37 392.305 1155.37 422.634V422.936C1155.37 453.265 1130.92 477.86 1098.33 477.86ZM1098.63 451.454C1114.63 451.454 1125.34 438.478 1125.34 423.238V422.936C1125.34 407.545 1114.48 394.418 1098.33 394.418C1082.19 394.418 1071.47 407.394 1071.47 422.634V422.936C1071.47 438.176 1082.49 451.454 1098.63 451.454ZM1170.92 475.748V417.051H1161.41V394.418H1170.92V392.758C1170.92 383.403 1173.03 376.462 1177.86 371.633C1182.84 366.654 1189.48 364.541 1199.29 364.541C1207.89 364.541 1213.47 365.447 1217.84 366.805V387.024C1214.53 385.968 1211.36 385.364 1207.13 385.364C1201.85 385.364 1198.98 387.779 1198.98 393.06V395.021H1217.84V417.051H1199.59V475.748H1170.92ZM1231.88 475.748V417.051H1222.37V394.87H1231.88V392.758C1231.88 383.403 1233.99 376.462 1238.82 371.633C1243.8 366.654 1250.44 364.541 1260.24 364.541C1268.85 364.541 1274.43 365.447 1278.8 366.805V387.024C1275.48 385.968 1272.32 385.364 1268.09 385.364C1262.81 385.364 1259.94 387.779 1259.94 393.06V395.021H1278.8V417.051H1260.55V475.748H1231.88ZM713.965 658.86C693.595 658.86 679.411 651.466 669 640.15L687.56 621.741C695.104 629.436 702.95 633.812 712.758 633.812C721.057 633.812 726.187 629.587 726.187 623.099V622.797C726.187 616.007 720.152 611.933 708.986 611.933H696.613L692.539 596.693L716.681 574.814H676.394V551.124H752.593V571.947L727.395 593.675C742.484 596.995 754.706 605.294 754.706 623.401V623.703C754.706 645.129 737.504 658.86 713.965 658.86ZM811.907 658.86C781.88 658.86 763.17 634.114 763.17 604.238V603.936C763.17 574.06 782.182 549.012 812.209 549.012C842.236 549.012 860.947 573.758 860.947 603.634V603.936C860.947 633.812 842.085 658.86 811.907 658.86ZM812.209 632.907C823.979 632.907 831.523 620.987 831.523 604.238V603.936C831.523 587.036 823.677 574.814 811.907 574.814C800.289 574.814 792.593 586.734 792.593 603.634V603.936C792.593 620.836 800.44 632.907 812.209 632.907ZM896.628 606.35C880.482 606.35 869.467 593.675 869.467 578.285V577.983C869.467 562.441 880.331 549.615 896.778 549.615C913.225 549.615 923.939 562.29 923.939 577.832V578.134C923.939 593.525 912.924 606.35 896.628 606.35ZM896.628 566.063C891.346 566.063 887.876 571.042 887.876 577.832V578.134C887.876 584.773 891.799 589.903 896.778 589.903C901.909 589.903 905.53 584.924 905.53 578.285V577.983C905.53 571.193 901.758 566.063 896.628 566.063ZM925.598 599.862L962.567 551.124H982.937L937.971 608.614L901.456 656.748H881.086L925.598 599.862ZM967.244 658.257C950.948 658.257 940.084 645.431 940.084 630.04V629.738C940.084 614.197 950.797 601.371 967.395 601.371C983.842 601.371 994.555 614.046 994.555 629.587V629.889C994.555 645.28 983.54 658.257 967.244 658.257ZM967.395 641.659C972.525 641.659 976.147 636.679 976.147 630.04V629.738C976.147 622.948 972.374 617.818 967.244 617.818C961.812 617.818 958.493 622.797 958.493 629.587V629.889C958.493 636.528 962.416 641.659 967.395 641.659ZM1098.33 658.86C1065.74 658.86 1041.6 634.567 1041.6 604.238V603.936C1041.6 573.607 1066.04 549.012 1098.63 549.012C1131.23 549.012 1155.37 573.305 1155.37 603.634V603.936C1155.37 634.265 1130.92 658.86 1098.33 658.86ZM1098.63 632.454C1114.63 632.454 1125.34 619.478 1125.34 604.238V603.936C1125.34 588.545 1114.48 575.418 1098.33 575.418C1082.19 575.418 1071.47 588.394 1071.47 603.634V603.936C1071.47 619.176 1082.49 632.454 1098.63 632.454ZM1170.92 656.748V598.051H1161.41V575.418H1170.92V573.758C1170.92 564.403 1173.03 557.462 1177.86 552.633C1182.84 547.654 1189.48 545.541 1199.29 545.541C1207.89 545.541 1213.47 546.447 1217.84 547.805V568.024C1214.53 566.968 1211.36 566.364 1207.13 566.364C1201.85 566.364 1198.98 568.779 1198.98 574.06V576.021H1217.84V598.051H1199.59V656.748H1170.92ZM1231.88 656.748V598.051H1222.37V575.87H1231.88V573.758C1231.88 564.403 1233.99 557.462 1238.82 552.633C1243.8 547.654 1250.44 545.541 1260.24 545.541C1268.85 545.541 1274.43 546.447 1278.8 547.805V568.024C1275.48 566.968 1272.32 566.364 1268.09 566.364C1262.81 566.364 1259.94 568.779 1259.94 574.06V576.021H1278.8V598.051H1260.55V656.748H1231.88Z"/>
<path d="M47.9653 115.86C27.5951 115.86 13.4114 108.466 3 97.1497L21.5595 78.7411C29.104 86.4365 36.9503 90.8123 46.7582 90.8123C55.0572 90.8123 60.1874 86.5874 60.1874 80.0991V79.7973C60.1874 73.0072 54.1518 68.9332 42.9859 68.9332H30.6129L26.5389 53.6933L50.6814 31.8142H10.3936V8.12439H86.5933V28.9473L61.3946 50.6755C76.4836 53.9951 88.7057 62.294 88.7057 80.4009V80.7027C88.7057 102.129 71.5042 115.86 47.9653 115.86ZM145.907 115.86C115.88 115.86 97.1697 91.1141 97.1697 61.2378V60.936C97.1697 31.0597 116.182 6.01192 146.209 6.01192C176.236 6.01192 194.947 30.7579 194.947 60.6342V60.936C194.947 90.8123 176.085 115.86 145.907 115.86ZM146.209 89.907C157.979 89.907 165.523 77.9866 165.523 61.2378V60.936C165.523 44.0363 157.677 31.8142 145.907 31.8142C134.289 31.8142 126.593 43.7345 126.593 60.6342V60.936C126.593 77.8357 134.44 89.907 146.209 89.907ZM230.628 63.3503C214.482 63.3503 203.467 50.6755 203.467 35.2846V34.9829C203.467 19.4412 214.331 6.61548 230.778 6.61548C247.225 6.61548 257.939 19.2903 257.939 34.832V35.1338C257.939 50.5246 246.924 63.3503 230.628 63.3503ZM230.628 23.0625C225.346 23.0625 221.876 28.0419 221.876 34.832V35.1338C221.876 41.7729 225.799 46.9032 230.778 46.9032C235.909 46.9032 239.53 41.9238 239.53 35.2846V34.9829C239.53 28.1928 235.758 23.0625 230.628 23.0625ZM259.598 56.862L296.567 8.12439H316.937L271.971 65.6136L235.456 113.748H215.086L259.598 56.862ZM301.244 115.257C284.948 115.257 274.084 102.431 274.084 87.04V86.7383C274.084 71.1966 284.797 58.3709 301.395 58.3709C317.842 58.3709 328.555 71.0457 328.555 86.5874V86.8892C328.555 102.28 317.54 115.257 301.244 115.257ZM301.395 98.6586C306.525 98.6586 310.147 93.6792 310.147 87.04V86.7383C310.147 79.9482 306.375 74.8179 301.244 74.8179C295.812 74.8179 292.493 79.7973 292.493 86.5874V86.8892C292.493 93.5283 296.416 98.6586 301.395 98.6586ZM432.331 115.86C399.739 115.86 375.597 91.5668 375.597 61.2378V60.936C375.597 30.6071 400.041 6.01192 432.633 6.01192C465.225 6.01192 489.368 30.3053 489.368 60.6342V60.936C489.368 91.265 464.924 115.86 432.331 115.86ZM432.633 89.4543C448.628 89.4543 459.341 76.4777 459.341 61.2378V60.936C459.341 45.5452 448.477 32.4177 432.331 32.4177C416.186 32.4177 405.473 45.3943 405.473 60.6342V60.936C405.473 76.1759 416.488 89.4543 432.633 89.4543ZM504.918 113.748V55.0513H495.412V32.4177H504.918V30.7579C504.918 21.4027 507.03 14.4618 511.859 9.63329C516.838 4.65391 523.477 2.54144 533.285 2.54144C541.886 2.54144 547.469 3.44679 551.845 4.8048V25.0241C548.525 23.9679 545.357 23.3643 541.132 23.3643C535.85 23.3643 532.984 25.7786 532.984 31.0597V33.0213H551.845V55.0513H533.587V113.748H504.918ZM565.878 113.748V55.0513H556.372V32.8704H565.878V30.7579C565.878 21.4027 567.99 14.4618 572.819 9.63329C577.798 4.65391 584.437 2.54144 594.245 2.54144C602.846 2.54144 608.429 3.44679 612.805 4.8048V25.0241C609.485 23.9679 606.316 23.3643 602.091 23.3643C596.81 23.3643 593.943 25.7786 593.943 31.0597V33.0213H612.805V55.0513H594.547V113.748H565.878ZM47.9653 296.86C27.5951 296.86 13.4114 289.466 3 278.15L21.5595 259.741C29.104 267.436 36.9503 271.812 46.7582 271.812C55.0572 271.812 60.1874 267.587 60.1874 261.099V260.797C60.1874 254.007 54.1518 249.933 42.9859 249.933H30.6129L26.5389 234.693L50.6814 212.814H10.3936V189.124H86.5933V209.947L61.3946 231.675C76.4836 234.995 88.7057 243.294 88.7057 261.401V261.703C88.7057 283.129 71.5042 296.86 47.9653 296.86ZM145.907 296.86C115.88 296.86 97.1697 272.114 97.1697 242.238V241.936C97.1697 212.06 116.182 187.012 146.209 187.012C176.236 187.012 194.947 211.758 194.947 241.634V241.936C194.947 271.812 176.085 296.86 145.907 296.86ZM146.209 270.907C157.979 270.907 165.523 258.987 165.523 242.238V241.936C165.523 225.036 157.677 212.814 145.907 212.814C134.289 212.814 126.593 224.735 126.593 241.634V241.936C126.593 258.836 134.44 270.907 146.209 270.907ZM230.628 244.35C214.482 244.35 203.467 231.675 203.467 216.285V215.983C203.467 200.441 214.331 187.615 230.778 187.615C247.225 187.615 257.939 200.29 257.939 215.832V216.134C257.939 231.525 246.924 244.35 230.628 244.35ZM230.628 204.063C225.346 204.063 221.876 209.042 221.876 215.832V216.134C221.876 222.773 225.799 227.903 230.778 227.903C235.909 227.903 239.53 222.924 239.53 216.285V215.983C239.53 209.193 235.758 204.063 230.628 204.063ZM259.598 237.862L296.567 189.124H316.937L271.971 246.614L235.456 294.748H215.086L259.598 237.862ZM301.244 296.257C284.948 296.257 274.084 283.431 274.084 268.04V267.738C274.084 252.197 284.797 239.371 301.395 239.371C317.842 239.371 328.555 252.046 328.555 267.587V267.889C328.555 283.28 317.54 296.257 301.244 296.257ZM301.395 279.659C306.525 279.659 310.147 274.679 310.147 268.04V267.738C310.147 260.948 306.375 255.818 301.244 255.818C295.812 255.818 292.493 260.797 292.493 267.587V267.889C292.493 274.528 296.416 279.659 301.395 279.659ZM432.331 296.86C399.739 296.86 375.597 272.567 375.597 242.238V241.936C375.597 211.607 400.041 187.012 432.633 187.012C465.225 187.012 489.368 211.305 489.368 241.634V241.936C489.368 272.265 464.924 296.86 432.331 296.86ZM432.633 270.454C448.628 270.454 459.341 257.478 459.341 242.238V241.936C459.341 226.545 448.477 213.418 432.331 213.418C416.186 213.418 405.473 226.394 405.473 241.634V241.936C405.473 257.176 416.488 270.454 432.633 270.454ZM504.918 294.748V236.051H495.412V213.418H504.918V211.758C504.918 202.403 507.03 195.462 511.859 190.633C516.838 185.654 523.477 183.541 533.285 183.541C541.886 183.541 547.469 184.447 551.845 185.805V206.024C548.525 204.968 545.357 204.364 541.132 204.364C535.85 204.364 532.984 206.779 532.984 212.06V214.021H551.845V236.051H533.587V294.748H504.918ZM565.878 294.748V236.051H556.372V213.87H565.878V211.758C565.878 202.403 567.99 195.462 572.819 190.633C577.798 185.654 584.437 183.541 594.245 183.541C602.846 183.541 608.429 184.447 612.805 185.805V206.024C609.485 204.968 606.316 204.364 602.091 204.364C596.81 204.364 593.943 206.779 593.943 212.06V214.021H612.805V236.051H594.547V294.748H565.878ZM47.9653 477.86C27.5951 477.86 13.4114 470.466 3 459.15L21.5595 440.741C29.104 448.436 36.9503 452.812 46.7582 452.812C55.0572 452.812 60.1874 448.587 60.1874 442.099V441.797C60.1874 435.007 54.1518 430.933 42.9859 430.933H30.6129L26.5389 415.693L50.6814 393.814H10.3936V370.124H86.5933V390.947L61.3946 412.675C76.4836 415.995 88.7057 424.294 88.7057 442.401V442.703C88.7057 464.129 71.5042 477.86 47.9653 477.86ZM145.907 477.86C115.88 477.86 97.1697 453.114 97.1697 423.238V422.936C97.1697 393.06 116.182 368.012 146.209 368.012C176.236 368.012 194.947 392.758 194.947 422.634V422.936C194.947 452.812 176.085 477.86 145.907 477.86ZM146.209 451.907C157.979 451.907 165.523 439.987 165.523 423.238V422.936C165.523 406.036 157.677 393.814 145.907 393.814C134.289 393.814 126.593 405.734 126.593 422.634V422.936C126.593 439.836 134.44 451.907 146.209 451.907ZM230.628 425.35C214.482 425.35 203.467 412.675 203.467 397.285V396.983C203.467 381.441 214.331 368.615 230.778 368.615C247.225 368.615 257.939 381.29 257.939 396.832V397.134C257.939 412.525 246.924 425.35 230.628 425.35ZM230.628 385.063C225.346 385.063 221.876 390.042 221.876 396.832V397.134C221.876 403.773 225.799 408.903 230.778 408.903C235.909 408.903 239.53 403.924 239.53 397.285V396.983C239.53 390.193 235.758 385.063 230.628 385.063ZM259.598 418.862L296.567 370.124H316.937L271.971 427.614L235.456 475.748H215.086L259.598 418.862ZM301.244 477.257C284.948 477.257 274.084 464.431 274.084 449.04V448.738C274.084 433.197 284.797 420.371 301.395 420.371C317.842 420.371 328.555 433.046 328.555 448.587V448.889C328.555 464.28 317.54 477.257 301.244 477.257ZM301.395 460.659C306.525 460.659 310.147 455.679 310.147 449.04V448.738C310.147 441.948 306.375 436.818 301.244 436.818C295.812 436.818 292.493 441.797 292.493 448.587V448.889C292.493 455.528 296.416 460.659 301.395 460.659ZM432.331 477.86C399.739 477.86 375.597 453.567 375.597 423.238V422.936C375.597 392.607 400.041 368.012 432.633 368.012C465.225 368.012 489.368 392.305 489.368 422.634V422.936C489.368 453.265 464.924 477.86 432.331 477.86ZM432.633 451.454C448.628 451.454 459.341 438.478 459.341 423.238V422.936C459.341 407.545 448.477 394.418 432.331 394.418C416.186 394.418 405.473 407.394 405.473 422.634V422.936C405.473 438.176 416.488 451.454 432.633 451.454ZM504.918 475.748V417.051H495.412V394.418H504.918V392.758C504.918 383.403 507.03 376.462 511.859 371.633C516.838 366.654 523.477 364.541 533.285 364.541C541.886 364.541 547.469 365.447 551.845 366.805V387.024C548.525 385.968 545.357 385.364 541.132 385.364C535.85 385.364 532.984 387.779 532.984 393.06V395.021H551.845V417.051H533.587V475.748H504.918ZM565.878 475.748V417.051H556.372V394.87H565.878V392.758C565.878 383.403 567.99 376.462 572.819 371.633C577.798 366.654 584.437 364.541 594.245 364.541C602.846 364.541 608.429 365.447 612.805 366.805V387.024C609.485 385.968 606.316 385.364 602.091 385.364C596.81 385.364 593.943 387.779 593.943 393.06V395.021H612.805V417.051H594.547V475.748H565.878ZM47.9653 658.86C27.5951 658.86 13.4114 651.466 3 640.15L21.5595 621.741C29.104 629.436 36.9503 633.812 46.7582 633.812C55.0572 633.812 60.1874 629.587 60.1874 623.099V622.797C60.1874 616.007 54.1518 611.933 42.9859 611.933H30.6129L26.5389 596.693L50.6814 574.814H10.3936V551.124H86.5933V571.947L61.3946 593.675C76.4836 596.995 88.7057 605.294 88.7057 623.401V623.703C88.7057 645.129 71.5042 658.86 47.9653 658.86ZM145.907 658.86C115.88 658.86 97.1697 634.114 97.1697 604.238V603.936C97.1697 574.06 116.182 549.012 146.209 549.012C176.236 549.012 194.947 573.758 194.947 603.634V603.936C194.947 633.812 176.085 658.86 145.907 658.86ZM146.209 632.907C157.979 632.907 165.523 620.987 165.523 604.238V603.936C165.523 587.036 157.677 574.814 145.907 574.814C134.289 574.814 126.593 586.734 126.593 603.634V603.936C126.593 620.836 134.44 632.907 146.209 632.907ZM230.628 606.35C214.482 606.35 203.467 593.675 203.467 578.285V577.983C203.467 562.441 214.331 549.615 230.778 549.615C247.225 549.615 257.939 562.29 257.939 577.832V578.134C257.939 593.525 246.924 606.35 230.628 606.35ZM230.628 566.063C225.346 566.063 221.876 571.042 221.876 577.832V578.134C221.876 584.773 225.799 589.903 230.778 589.903C235.909 589.903 239.53 584.924 239.53 578.285V577.983C239.53 571.193 235.758 566.063 230.628 566.063ZM259.598 599.862L296.567 551.124H316.937L271.971 608.614L235.456 656.748H215.086L259.598 599.862ZM301.244 658.257C284.948 658.257 274.084 645.431 274.084 630.04V629.738C274.084 614.197 284.797 601.371 301.395 601.371C317.842 601.371 328.555 614.046 328.555 629.587V629.889C328.555 645.28 317.54 658.257 301.244 658.257ZM301.395 641.659C306.525 641.659 310.147 636.679 310.147 630.04V629.738C310.147 622.948 306.375 617.818 301.244 617.818C295.812 617.818 292.493 622.797 292.493 629.587V629.889C292.493 636.528 296.416 641.659 301.395 641.659ZM432.331 658.86C399.739 658.86 375.597 634.567 375.597 604.238V603.936C375.597 573.607 400.041 549.012 432.633 549.012C465.225 549.012 489.368 573.305 489.368 603.634V603.936C489.368 634.265 464.924 658.86 432.331 658.86ZM432.633 632.454C448.628 632.454 459.341 619.478 459.341 604.238V603.936C459.341 588.545 448.477 575.418 432.331 575.418C416.186 575.418 405.473 588.394 405.473 603.634V603.936C405.473 619.176 416.488 632.454 432.633 632.454ZM504.918 656.748V598.051H495.412V575.418H504.918V573.758C504.918 564.403 507.03 557.462 511.859 552.633C516.838 547.654 523.477 545.541 533.285 545.541C541.886 545.541 547.469 546.447 551.845 547.805V568.024C548.525 566.968 545.357 566.364 541.132 566.364C535.85 566.364 532.984 568.779 532.984 574.06V576.021H551.845V598.051H533.587V656.748H504.918ZM565.878 656.748V598.051H556.372V575.87H565.878V573.758C565.878 564.403 567.99 557.462 572.819 552.633C577.798 547.654 584.437 545.541 594.245 545.541C602.846 545.541 608.429 546.447 612.805 547.805V568.024C609.485 566.968 606.316 566.364 602.091 566.364C596.81 566.364 593.943 568.779 593.943 574.06V576.021H612.805V598.051H594.547V656.748H565.878Z"/>
</mask>
<path d="M1379.97 115.86C1359.6 115.86 1345.41 108.466 1335 97.1497L1353.56 78.7411C1361.1 86.4365 1368.95 90.8123 1378.76 90.8123C1387.06 90.8123 1392.19 86.5874 1392.19 80.0991V79.7973C1392.19 73.0072 1386.15 68.9332 1374.99 68.9332H1362.61L1358.54 53.6933L1382.68 31.8142H1342.39V8.12439H1418.59V28.9473L1393.39 50.6755C1408.48 53.9951 1420.71 62.294 1420.71 80.4009V80.7027C1420.71 102.129 1403.5 115.86 1379.97 115.86ZM1477.91 115.86C1447.88 115.86 1429.17 91.1141 1429.17 61.2378V60.936C1429.17 31.0597 1448.18 6.01192 1478.21 6.01192C1508.24 6.01192 1526.95 30.7579 1526.95 60.6342V60.936C1526.95 90.8123 1508.09 115.86 1477.91 115.86ZM1478.21 89.907C1489.98 89.907 1497.52 77.9866 1497.52 61.2378V60.936C1497.52 44.0363 1489.68 31.8142 1477.91 31.8142C1466.29 31.8142 1458.59 43.7345 1458.59 60.6342V60.936C1458.59 77.8357 1466.44 89.907 1478.21 89.907ZM1562.63 63.3503C1546.48 63.3503 1535.47 50.6755 1535.47 35.2846V34.9829C1535.47 19.4412 1546.33 6.61548 1562.78 6.61548C1579.23 6.61548 1589.94 19.2903 1589.94 34.832V35.1338C1589.94 50.5246 1578.92 63.3503 1562.63 63.3503ZM1562.63 23.0625C1557.35 23.0625 1553.88 28.0419 1553.88 34.832V35.1338C1553.88 41.7729 1557.8 46.9032 1562.78 46.9032C1567.91 46.9032 1571.53 41.9238 1571.53 35.2846V34.9829C1571.53 28.1928 1567.76 23.0625 1562.63 23.0625ZM1591.6 56.862L1628.57 8.12439H1648.94L1603.97 65.6136L1567.46 113.748H1547.09L1591.6 56.862ZM1633.24 115.257C1616.95 115.257 1606.08 102.431 1606.08 87.04V86.7383C1606.08 71.1966 1616.8 58.3709 1633.4 58.3709C1649.84 58.3709 1660.56 71.0457 1660.56 86.5874V86.8892C1660.56 102.28 1649.54 115.257 1633.24 115.257ZM1633.4 98.6586C1638.53 98.6586 1642.15 93.6792 1642.15 87.04V86.7383C1642.15 79.9482 1638.37 74.8179 1633.24 74.8179C1627.81 74.8179 1624.49 79.7973 1624.49 86.5874V86.8892C1624.49 93.5283 1628.42 98.6586 1633.4 98.6586ZM1764.33 115.86C1731.74 115.86 1707.6 91.5668 1707.6 61.2378V60.936C1707.6 30.6071 1732.04 6.01192 1764.63 6.01192C1797.23 6.01192 1821.37 30.3053 1821.37 60.6342V60.936C1821.37 91.265 1796.92 115.86 1764.33 115.86ZM1764.63 89.4543C1780.63 89.4543 1791.34 76.4777 1791.34 61.2378V60.936C1791.34 45.5452 1780.48 32.4177 1764.33 32.4177C1748.19 32.4177 1737.47 45.3943 1737.47 60.6342V60.936C1737.47 76.1759 1748.49 89.4543 1764.63 89.4543ZM1836.92 113.748V55.0513H1827.41V32.4177H1836.92V30.7579C1836.92 21.4027 1839.03 14.4618 1843.86 9.63329C1848.84 4.65391 1855.48 2.54144 1865.29 2.54144C1873.89 2.54144 1879.47 3.44679 1883.84 4.8048V25.0241C1880.53 23.9679 1877.36 23.3643 1873.13 23.3643C1867.85 23.3643 1864.98 25.7786 1864.98 31.0597V33.0213H1883.84V55.0513H1865.59V113.748H1836.92ZM1897.88 113.748V55.0513H1888.37V32.8704H1897.88V30.7579C1897.88 21.4027 1899.99 14.4618 1904.82 9.63329C1909.8 4.65391 1916.44 2.54144 1926.24 2.54144C1934.85 2.54144 1940.43 3.44679 1944.8 4.8048V25.0241C1941.48 23.9679 1938.32 23.3643 1934.09 23.3643C1928.81 23.3643 1925.94 25.7786 1925.94 31.0597V33.0213H1944.8V55.0513H1926.55V113.748H1897.88ZM1379.97 296.86C1359.6 296.86 1345.41 289.466 1335 278.15L1353.56 259.741C1361.1 267.436 1368.95 271.812 1378.76 271.812C1387.06 271.812 1392.19 267.587 1392.19 261.099V260.797C1392.19 254.007 1386.15 249.933 1374.99 249.933H1362.61L1358.54 234.693L1382.68 212.814H1342.39V189.124H1418.59V209.947L1393.39 231.675C1408.48 234.995 1420.71 243.294 1420.71 261.401V261.703C1420.71 283.129 1403.5 296.86 1379.97 296.86ZM1477.91 296.86C1447.88 296.86 1429.17 272.114 1429.17 242.238V241.936C1429.17 212.06 1448.18 187.012 1478.21 187.012C1508.24 187.012 1526.95 211.758 1526.95 241.634V241.936C1526.95 271.812 1508.09 296.86 1477.91 296.86ZM1478.21 270.907C1489.98 270.907 1497.52 258.987 1497.52 242.238V241.936C1497.52 225.036 1489.68 212.814 1477.91 212.814C1466.29 212.814 1458.59 224.735 1458.59 241.634V241.936C1458.59 258.836 1466.44 270.907 1478.21 270.907ZM1562.63 244.35C1546.48 244.35 1535.47 231.675 1535.47 216.285V215.983C1535.47 200.441 1546.33 187.615 1562.78 187.615C1579.23 187.615 1589.94 200.29 1589.94 215.832V216.134C1589.94 231.525 1578.92 244.35 1562.63 244.35ZM1562.63 204.063C1557.35 204.063 1553.88 209.042 1553.88 215.832V216.134C1553.88 222.773 1557.8 227.903 1562.78 227.903C1567.91 227.903 1571.53 222.924 1571.53 216.285V215.983C1571.53 209.193 1567.76 204.063 1562.63 204.063ZM1591.6 237.862L1628.57 189.124H1648.94L1603.97 246.614L1567.46 294.748H1547.09L1591.6 237.862ZM1633.24 296.257C1616.95 296.257 1606.08 283.431 1606.08 268.04V267.738C1606.08 252.197 1616.8 239.371 1633.4 239.371C1649.84 239.371 1660.56 252.046 1660.56 267.587V267.889C1660.56 283.28 1649.54 296.257 1633.24 296.257ZM1633.4 279.659C1638.53 279.659 1642.15 274.679 1642.15 268.04V267.738C1642.15 260.948 1638.37 255.818 1633.24 255.818C1627.81 255.818 1624.49 260.797 1624.49 267.587V267.889C1624.49 274.528 1628.42 279.659 1633.4 279.659ZM1764.33 296.86C1731.74 296.86 1707.6 272.567 1707.6 242.238V241.936C1707.6 211.607 1732.04 187.012 1764.63 187.012C1797.23 187.012 1821.37 211.305 1821.37 241.634V241.936C1821.37 272.265 1796.92 296.86 1764.33 296.86ZM1764.63 270.454C1780.63 270.454 1791.34 257.478 1791.34 242.238V241.936C1791.34 226.545 1780.48 213.418 1764.33 213.418C1748.19 213.418 1737.47 226.394 1737.47 241.634V241.936C1737.47 257.176 1748.49 270.454 1764.63 270.454ZM1836.92 294.748V236.051H1827.41V213.418H1836.92V211.758C1836.92 202.403 1839.03 195.462 1843.86 190.633C1848.84 185.654 1855.48 183.541 1865.29 183.541C1873.89 183.541 1879.47 184.447 1883.84 185.805V206.024C1880.53 204.968 1877.36 204.364 1873.13 204.364C1867.85 204.364 1864.98 206.779 1864.98 212.06V214.021H1883.84V236.051H1865.59V294.748H1836.92ZM1897.88 294.748V236.051H1888.37V213.87H1897.88V211.758C1897.88 202.403 1899.99 195.462 1904.82 190.633C1909.8 185.654 1916.44 183.541 1926.24 183.541C1934.85 183.541 1940.43 184.447 1944.8 185.805V206.024C1941.48 204.968 1938.32 204.364 1934.09 204.364C1928.81 204.364 1925.94 206.779 1925.94 212.06V214.021H1944.8V236.051H1926.55V294.748H1897.88ZM1379.97 477.86C1359.6 477.86 1345.41 470.466 1335 459.15L1353.56 440.741C1361.1 448.436 1368.95 452.812 1378.76 452.812C1387.06 452.812 1392.19 448.587 1392.19 442.099V441.797C1392.19 435.007 1386.15 430.933 1374.99 430.933H1362.61L1358.54 415.693L1382.68 393.814H1342.39V370.124H1418.59V390.947L1393.39 412.675C1408.48 415.995 1420.71 424.294 1420.71 442.401V442.703C1420.71 464.129 1403.5 477.86 1379.97 477.86ZM1477.91 477.86C1447.88 477.86 1429.17 453.114 1429.17 423.238V422.936C1429.17 393.06 1448.18 368.012 1478.21 368.012C1508.24 368.012 1526.95 392.758 1526.95 422.634V422.936C1526.95 452.812 1508.09 477.86 1477.91 477.86ZM1478.21 451.907C1489.98 451.907 1497.52 439.987 1497.52 423.238V422.936C1497.52 406.036 1489.68 393.814 1477.91 393.814C1466.29 393.814 1458.59 405.734 1458.59 422.634V422.936C1458.59 439.836 1466.44 451.907 1478.21 451.907ZM1562.63 425.35C1546.48 425.35 1535.47 412.675 1535.47 397.285V396.983C1535.47 381.441 1546.33 368.615 1562.78 368.615C1579.23 368.615 1589.94 381.29 1589.94 396.832V397.134C1589.94 412.525 1578.92 425.35 1562.63 425.35ZM1562.63 385.063C1557.35 385.063 1553.88 390.042 1553.88 396.832V397.134C1553.88 403.773 1557.8 408.903 1562.78 408.903C1567.91 408.903 1571.53 403.924 1571.53 397.285V396.983C1571.53 390.193 1567.76 385.063 1562.63 385.063ZM1591.6 418.862L1628.57 370.124H1648.94L1603.97 427.614L1567.46 475.748H1547.09L1591.6 418.862ZM1633.24 477.257C1616.95 477.257 1606.08 464.431 1606.08 449.04V448.738C1606.08 433.197 1616.8 420.371 1633.4 420.371C1649.84 420.371 1660.56 433.046 1660.56 448.587V448.889C1660.56 464.28 1649.54 477.257 1633.24 477.257ZM1633.4 460.659C1638.53 460.659 1642.15 455.679 1642.15 449.04V448.738C1642.15 441.948 1638.37 436.818 1633.24 436.818C1627.81 436.818 1624.49 441.797 1624.49 448.587V448.889C1624.49 455.528 1628.42 460.659 1633.4 460.659ZM1764.33 477.86C1731.74 477.86 1707.6 453.567 1707.6 423.238V422.936C1707.6 392.607 1732.04 368.012 1764.63 368.012C1797.23 368.012 1821.37 392.305 1821.37 422.634V422.936C1821.37 453.265 1796.92 477.86 1764.33 477.86ZM1764.63 451.454C1780.63 451.454 1791.34 438.478 1791.34 423.238V422.936C1791.34 407.545 1780.48 394.418 1764.33 394.418C1748.19 394.418 1737.47 407.394 1737.47 422.634V422.936C1737.47 438.176 1748.49 451.454 1764.63 451.454ZM1836.92 475.748V417.051H1827.41V394.418H1836.92V392.758C1836.92 383.403 1839.03 376.462 1843.86 371.633C1848.84 366.654 1855.48 364.541 1865.29 364.541C1873.89 364.541 1879.47 365.447 1883.84 366.805V387.024C1880.53 385.968 1877.36 385.364 1873.13 385.364C1867.85 385.364 1864.98 387.779 1864.98 393.06V395.021H1883.84V417.051H1865.59V475.748H1836.92ZM1897.88 475.748V417.051H1888.37V394.87H1897.88V392.758C1897.88 383.403 1899.99 376.462 1904.82 371.633C1909.8 366.654 1916.44 364.541 1926.24 364.541C1934.85 364.541 1940.43 365.447 1944.8 366.805V387.024C1941.48 385.968 1938.32 385.364 1934.09 385.364C1928.81 385.364 1925.94 387.779 1925.94 393.06V395.021H1944.8V417.051H1926.55V475.748H1897.88ZM1379.97 658.86C1359.6 658.86 1345.41 651.466 1335 640.15L1353.56 621.741C1361.1 629.436 1368.95 633.812 1378.76 633.812C1387.06 633.812 1392.19 629.587 1392.19 623.099V622.797C1392.19 616.007 1386.15 611.933 1374.99 611.933H1362.61L1358.54 596.693L1382.68 574.814H1342.39V551.124H1418.59V571.947L1393.39 593.675C1408.48 596.995 1420.71 605.294 1420.71 623.401V623.703C1420.71 645.129 1403.5 658.86 1379.97 658.86ZM1477.91 658.86C1447.88 658.86 1429.17 634.114 1429.17 604.238V603.936C1429.17 574.06 1448.18 549.012 1478.21 549.012C1508.24 549.012 1526.95 573.758 1526.95 603.634V603.936C1526.95 633.812 1508.09 658.86 1477.91 658.86ZM1478.21 632.907C1489.98 632.907 1497.52 620.987 1497.52 604.238V603.936C1497.52 587.036 1489.68 574.814 1477.91 574.814C1466.29 574.814 1458.59 586.734 1458.59 603.634V603.936C1458.59 620.836 1466.44 632.907 1478.21 632.907ZM1562.63 606.35C1546.48 606.35 1535.47 593.675 1535.47 578.285V577.983C1535.47 562.441 1546.33 549.615 1562.78 549.615C1579.23 549.615 1589.94 562.29 1589.94 577.832V578.134C1589.94 593.525 1578.92 606.35 1562.63 606.35ZM1562.63 566.063C1557.35 566.063 1553.88 571.042 1553.88 577.832V578.134C1553.88 584.773 1557.8 589.903 1562.78 589.903C1567.91 589.903 1571.53 584.924 1571.53 578.285V577.983C1571.53 571.193 1567.76 566.063 1562.63 566.063ZM1591.6 599.862L1628.57 551.124H1648.94L1603.97 608.614L1567.46 656.748H1547.09L1591.6 599.862ZM1633.24 658.257C1616.95 658.257 1606.08 645.431 1606.08 630.04V629.738C1606.08 614.197 1616.8 601.371 1633.4 601.371C1649.84 601.371 1660.56 614.046 1660.56 629.587V629.889C1660.56 645.28 1649.54 658.257 1633.24 658.257ZM1633.4 641.659C1638.53 641.659 1642.15 636.679 1642.15 630.04V629.738C1642.15 622.948 1638.37 617.818 1633.24 617.818C1627.81 617.818 1624.49 622.797 1624.49 629.587V629.889C1624.49 636.528 1628.42 641.659 1633.4 641.659ZM1764.33 658.86C1731.74 658.86 1707.6 634.567 1707.6 604.238V603.936C1707.6 573.607 1732.04 549.012 1764.63 549.012C1797.23 549.012 1821.37 573.305 1821.37 603.634V603.936C1821.37 634.265 1796.92 658.86 1764.33 658.86ZM1764.63 632.454C1780.63 632.454 1791.34 619.478 1791.34 604.238V603.936C1791.34 588.545 1780.48 575.418 1764.33 575.418C1748.19 575.418 1737.47 588.394 1737.47 603.634V603.936C1737.47 619.176 1748.49 632.454 1764.63 632.454ZM1836.92 656.748V598.051H1827.41V575.418H1836.92V573.758C1836.92 564.403 1839.03 557.462 1843.86 552.633C1848.84 547.654 1855.48 545.541 1865.29 545.541C1873.89 545.541 1879.47 546.447 1883.84 547.805V568.024C1880.53 566.968 1877.36 566.364 1873.13 566.364C1867.85 566.364 1864.98 568.779 1864.98 574.06V576.021H1883.84V598.051H1865.59V656.748H1836.92ZM1897.88 656.748V598.051H1888.37V575.87H1897.88V573.758C1897.88 564.403 1899.99 557.462 1904.82 552.633C1909.8 547.654 1916.44 545.541 1926.24 545.541C1934.85 545.541 1940.43 546.447 1944.8 547.805V568.024C1941.48 566.968 1938.32 566.364 1934.09 566.364C1928.81 566.364 1925.94 568.779 1925.94 574.06V576.021H1944.8V598.051H1926.55V656.748H1897.88Z" stroke="#77FFD6" stroke-opacity="0.87" stroke-width="3.15035" mask="url(#path-1-outside-1_1018_43)"/>
<path d="M2045.97 115.86C2025.6 115.86 2011.41 108.466 2001 97.1497L2019.56 78.7411C2027.1 86.4365 2034.95 90.8123 2044.76 90.8123C2053.06 90.8123 2058.19 86.5874 2058.19 80.0991V79.7973C2058.19 73.0072 2052.15 68.9332 2040.99 68.9332H2028.61L2024.54 53.6933L2048.68 31.8142H2008.39V8.12439H2084.59V28.9473L2059.39 50.6755C2074.48 53.9951 2086.71 62.294 2086.71 80.4009V80.7027C2086.71 102.129 2069.5 115.86 2045.97 115.86ZM2143.91 115.86C2113.88 115.86 2095.17 91.1141 2095.17 61.2378V60.936C2095.17 31.0597 2114.18 6.01192 2144.21 6.01192C2174.24 6.01192 2192.95 30.7579 2192.95 60.6342V60.936C2192.95 90.8123 2174.09 115.86 2143.91 115.86ZM2144.21 89.907C2155.98 89.907 2163.52 77.9866 2163.52 61.2378V60.936C2163.52 44.0363 2155.68 31.8142 2143.91 31.8142C2132.29 31.8142 2124.59 43.7345 2124.59 60.6342V60.936C2124.59 77.8357 2132.44 89.907 2144.21 89.907ZM2228.63 63.3503C2212.48 63.3503 2201.47 50.6755 2201.47 35.2846V34.9829C2201.47 19.4412 2212.33 6.61548 2228.78 6.61548C2245.23 6.61548 2255.94 19.2903 2255.94 34.832V35.1338C2255.94 50.5246 2244.92 63.3503 2228.63 63.3503ZM2228.63 23.0625C2223.35 23.0625 2219.88 28.0419 2219.88 34.832V35.1338C2219.88 41.7729 2223.8 46.9032 2228.78 46.9032C2233.91 46.9032 2237.53 41.9238 2237.53 35.2846V34.9829C2237.53 28.1928 2233.76 23.0625 2228.63 23.0625ZM2257.6 56.862L2294.57 8.12439H2314.94L2269.97 65.6136L2233.46 113.748H2213.09L2257.6 56.862ZM2299.24 115.257C2282.95 115.257 2272.08 102.431 2272.08 87.04V86.7383C2272.08 71.1966 2282.8 58.3709 2299.4 58.3709C2315.84 58.3709 2326.56 71.0457 2326.56 86.5874V86.8892C2326.56 102.28 2315.54 115.257 2299.24 115.257ZM2299.4 98.6586C2304.53 98.6586 2308.15 93.6792 2308.15 87.04V86.7383C2308.15 79.9482 2304.37 74.8179 2299.24 74.8179C2293.81 74.8179 2290.49 79.7973 2290.49 86.5874V86.8892C2290.49 93.5283 2294.42 98.6586 2299.4 98.6586ZM2430.33 115.86C2397.74 115.86 2373.6 91.5668 2373.6 61.2378V60.936C2373.6 30.6071 2398.04 6.01192 2430.63 6.01192C2463.23 6.01192 2487.37 30.3053 2487.37 60.6342V60.936C2487.37 91.265 2462.92 115.86 2430.33 115.86ZM2430.63 89.4543C2446.63 89.4543 2457.34 76.4777 2457.34 61.2378V60.936C2457.34 45.5452 2446.48 32.4177 2430.33 32.4177C2414.19 32.4177 2403.47 45.3943 2403.47 60.6342V60.936C2403.47 76.1759 2414.49 89.4543 2430.63 89.4543ZM2502.92 113.748V55.0513H2493.41V32.4177H2502.92V30.7579C2502.92 21.4027 2505.03 14.4618 2509.86 9.63329C2514.84 4.65391 2521.48 2.54144 2531.29 2.54144C2539.89 2.54144 2545.47 3.44679 2549.84 4.8048V25.0241C2546.53 23.9679 2543.36 23.3643 2539.13 23.3643C2533.85 23.3643 2530.98 25.7786 2530.98 31.0597V33.0213H2549.84V55.0513H2531.59V113.748H2502.92ZM2563.88 113.748V55.0513H2554.37V32.8704H2563.88V30.7579C2563.88 21.4027 2565.99 14.4618 2570.82 9.63329C2575.8 4.65391 2582.44 2.54144 2592.24 2.54144C2600.85 2.54144 2606.43 3.44679 2610.8 4.8048V25.0241C2607.48 23.9679 2604.32 23.3643 2600.09 23.3643C2594.81 23.3643 2591.94 25.7786 2591.94 31.0597V33.0213H2610.8V55.0513H2592.55V113.748H2563.88ZM2045.97 296.86C2025.6 296.86 2011.41 289.466 2001 278.15L2019.56 259.741C2027.1 267.436 2034.95 271.812 2044.76 271.812C2053.06 271.812 2058.19 267.587 2058.19 261.099V260.797C2058.19 254.007 2052.15 249.933 2040.99 249.933H2028.61L2024.54 234.693L2048.68 212.814H2008.39V189.124H2084.59V209.947L2059.39 231.675C2074.48 234.995 2086.71 243.294 2086.71 261.401V261.703C2086.71 283.129 2069.5 296.86 2045.97 296.86ZM2143.91 296.86C2113.88 296.86 2095.17 272.114 2095.17 242.238V241.936C2095.17 212.06 2114.18 187.012 2144.21 187.012C2174.24 187.012 2192.95 211.758 2192.95 241.634V241.936C2192.95 271.812 2174.09 296.86 2143.91 296.86ZM2144.21 270.907C2155.98 270.907 2163.52 258.987 2163.52 242.238V241.936C2163.52 225.036 2155.68 212.814 2143.91 212.814C2132.29 212.814 2124.59 224.735 2124.59 241.634V241.936C2124.59 258.836 2132.44 270.907 2144.21 270.907ZM2228.63 244.35C2212.48 244.35 2201.47 231.675 2201.47 216.285V215.983C2201.47 200.441 2212.33 187.615 2228.78 187.615C2245.23 187.615 2255.94 200.29 2255.94 215.832V216.134C2255.94 231.525 2244.92 244.35 2228.63 244.35ZM2228.63 204.063C2223.35 204.063 2219.88 209.042 2219.88 215.832V216.134C2219.88 222.773 2223.8 227.903 2228.78 227.903C2233.91 227.903 2237.53 222.924 2237.53 216.285V215.983C2237.53 209.193 2233.76 204.063 2228.63 204.063ZM2257.6 237.862L2294.57 189.124H2314.94L2269.97 246.614L2233.46 294.748H2213.09L2257.6 237.862ZM2299.24 296.257C2282.95 296.257 2272.08 283.431 2272.08 268.04V267.738C2272.08 252.197 2282.8 239.371 2299.4 239.371C2315.84 239.371 2326.56 252.046 2326.56 267.587V267.889C2326.56 283.28 2315.54 296.257 2299.24 296.257ZM2299.4 279.659C2304.53 279.659 2308.15 274.679 2308.15 268.04V267.738C2308.15 260.948 2304.37 255.818 2299.24 255.818C2293.81 255.818 2290.49 260.797 2290.49 267.587V267.889C2290.49 274.528 2294.42 279.659 2299.4 279.659ZM2430.33 296.86C2397.74 296.86 2373.6 272.567 2373.6 242.238V241.936C2373.6 211.607 2398.04 187.012 2430.63 187.012C2463.23 187.012 2487.37 211.305 2487.37 241.634V241.936C2487.37 272.265 2462.92 296.86 2430.33 296.86ZM2430.63 270.454C2446.63 270.454 2457.34 257.478 2457.34 242.238V241.936C2457.34 226.545 2446.48 213.418 2430.33 213.418C2414.19 213.418 2403.47 226.394 2403.47 241.634V241.936C2403.47 257.176 2414.49 270.454 2430.63 270.454ZM2502.92 294.748V236.051H2493.41V213.418H2502.92V211.758C2502.92 202.403 2505.03 195.462 2509.86 190.633C2514.84 185.654 2521.48 183.541 2531.29 183.541C2539.89 183.541 2545.47 184.447 2549.84 185.805V206.024C2546.53 204.968 2543.36 204.364 2539.13 204.364C2533.85 204.364 2530.98 206.779 2530.98 212.06V214.021H2549.84V236.051H2531.59V294.748H2502.92ZM2563.88 294.748V236.051H2554.37V213.87H2563.88V211.758C2563.88 202.403 2565.99 195.462 2570.82 190.633C2575.8 185.654 2582.44 183.541 2592.24 183.541C2600.85 183.541 2606.43 184.447 2610.8 185.805V206.024C2607.48 204.968 2604.32 204.364 2600.09 204.364C2594.81 204.364 2591.94 206.779 2591.94 212.06V214.021H2610.8V236.051H2592.55V294.748H2563.88ZM2045.97 477.86C2025.6 477.86 2011.41 470.466 2001 459.15L2019.56 440.741C2027.1 448.436 2034.95 452.812 2044.76 452.812C2053.06 452.812 2058.19 448.587 2058.19 442.099V441.797C2058.19 435.007 2052.15 430.933 2040.99 430.933H2028.61L2024.54 415.693L2048.68 393.814H2008.39V370.124H2084.59V390.947L2059.39 412.675C2074.48 415.995 2086.71 424.294 2086.71 442.401V442.703C2086.71 464.129 2069.5 477.86 2045.97 477.86ZM2143.91 477.86C2113.88 477.86 2095.17 453.114 2095.17 423.238V422.936C2095.17 393.06 2114.18 368.012 2144.21 368.012C2174.24 368.012 2192.95 392.758 2192.95 422.634V422.936C2192.95 452.812 2174.09 477.86 2143.91 477.86ZM2144.21 451.907C2155.98 451.907 2163.52 439.987 2163.52 423.238V422.936C2163.52 406.036 2155.68 393.814 2143.91 393.814C2132.29 393.814 2124.59 405.734 2124.59 422.634V422.936C2124.59 439.836 2132.44 451.907 2144.21 451.907ZM2228.63 425.35C2212.48 425.35 2201.47 412.675 2201.47 397.285V396.983C2201.47 381.441 2212.33 368.615 2228.78 368.615C2245.23 368.615 2255.94 381.29 2255.94 396.832V397.134C2255.94 412.525 2244.92 425.35 2228.63 425.35ZM2228.63 385.063C2223.35 385.063 2219.88 390.042 2219.88 396.832V397.134C2219.88 403.773 2223.8 408.903 2228.78 408.903C2233.91 408.903 2237.53 403.924 2237.53 397.285V396.983C2237.53 390.193 2233.76 385.063 2228.63 385.063ZM2257.6 418.862L2294.57 370.124H2314.94L2269.97 427.614L2233.46 475.748H2213.09L2257.6 418.862ZM2299.24 477.257C2282.95 477.257 2272.08 464.431 2272.08 449.04V448.738C2272.08 433.197 2282.8 420.371 2299.4 420.371C2315.84 420.371 2326.56 433.046 2326.56 448.587V448.889C2326.56 464.28 2315.54 477.257 2299.24 477.257ZM2299.4 460.659C2304.53 460.659 2308.15 455.679 2308.15 449.04V448.738C2308.15 441.948 2304.37 436.818 2299.24 436.818C2293.81 436.818 2290.49 441.797 2290.49 448.587V448.889C2290.49 455.528 2294.42 460.659 2299.4 460.659ZM2430.33 477.86C2397.74 477.86 2373.6 453.567 2373.6 423.238V422.936C2373.6 392.607 2398.04 368.012 2430.63 368.012C2463.23 368.012 2487.37 392.305 2487.37 422.634V422.936C2487.37 453.265 2462.92 477.86 2430.33 477.86ZM2430.63 451.454C2446.63 451.454 2457.34 438.478 2457.34 423.238V422.936C2457.34 407.545 2446.48 394.418 2430.33 394.418C2414.19 394.418 2403.47 407.394 2403.47 422.634V422.936C2403.47 438.176 2414.49 451.454 2430.63 451.454ZM2502.92 475.748V417.051H2493.41V394.418H2502.92V392.758C2502.92 383.403 2505.03 376.462 2509.86 371.633C2514.84 366.654 2521.48 364.541 2531.29 364.541C2539.89 364.541 2545.47 365.447 2549.84 366.805V387.024C2546.53 385.968 2543.36 385.364 2539.13 385.364C2533.85 385.364 2530.98 387.779 2530.98 393.06V395.021H2549.84V417.051H2531.59V475.748H2502.92ZM2563.88 475.748V417.051H2554.37V394.87H2563.88V392.758C2563.88 383.403 2565.99 376.462 2570.82 371.633C2575.8 366.654 2582.44 364.541 2592.24 364.541C2600.85 364.541 2606.43 365.447 2610.8 366.805V387.024C2607.48 385.968 2604.32 385.364 2600.09 385.364C2594.81 385.364 2591.94 387.779 2591.94 393.06V395.021H2610.8V417.051H2592.55V475.748H2563.88ZM2045.97 658.86C2025.6 658.86 2011.41 651.466 2001 640.15L2019.56 621.741C2027.1 629.436 2034.95 633.812 2044.76 633.812C2053.06 633.812 2058.19 629.587 2058.19 623.099V622.797C2058.19 616.007 2052.15 611.933 2040.99 611.933H2028.61L2024.54 596.693L2048.68 574.814H2008.39V551.124H2084.59V571.947L2059.39 593.675C2074.48 596.995 2086.71 605.294 2086.71 623.401V623.703C2086.71 645.129 2069.5 658.86 2045.97 658.86ZM2143.91 658.86C2113.88 658.86 2095.17 634.114 2095.17 604.238V603.936C2095.17 574.06 2114.18 549.012 2144.21 549.012C2174.24 549.012 2192.95 573.758 2192.95 603.634V603.936C2192.95 633.812 2174.09 658.86 2143.91 658.86ZM2144.21 632.907C2155.98 632.907 2163.52 620.987 2163.52 604.238V603.936C2163.52 587.036 2155.68 574.814 2143.91 574.814C2132.29 574.814 2124.59 586.734 2124.59 603.634V603.936C2124.59 620.836 2132.44 632.907 2144.21 632.907ZM2228.63 606.35C2212.48 606.35 2201.47 593.675 2201.47 578.285V577.983C2201.47 562.441 2212.33 549.615 2228.78 549.615C2245.23 549.615 2255.94 562.29 2255.94 577.832V578.134C2255.94 593.525 2244.92 606.35 2228.63 606.35ZM2228.63 566.063C2223.35 566.063 2219.88 571.042 2219.88 577.832V578.134C2219.88 584.773 2223.8 589.903 2228.78 589.903C2233.91 589.903 2237.53 584.924 2237.53 578.285V577.983C2237.53 571.193 2233.76 566.063 2228.63 566.063ZM2257.6 599.862L2294.57 551.124H2314.94L2269.97 608.614L2233.46 656.748H2213.09L2257.6 599.862ZM2299.24 658.257C2282.95 658.257 2272.08 645.431 2272.08 630.04V629.738C2272.08 614.197 2282.8 601.371 2299.4 601.371C2315.84 601.371 2326.56 614.046 2326.56 629.587V629.889C2326.56 645.28 2315.54 658.257 2299.24 658.257ZM2299.4 641.659C2304.53 641.659 2308.15 636.679 2308.15 630.04V629.738C2308.15 622.948 2304.37 617.818 2299.24 617.818C2293.81 617.818 2290.49 622.797 2290.49 629.587V629.889C2290.49 636.528 2294.42 641.659 2299.4 641.659ZM2430.33 658.86C2397.74 658.86 2373.6 634.567 2373.6 604.238V603.936C2373.6 573.607 2398.04 549.012 2430.63 549.012C2463.23 549.012 2487.37 573.305 2487.37 603.634V603.936C2487.37 634.265 2462.92 658.86 2430.33 658.86ZM2430.63 632.454C2446.63 632.454 2457.34 619.478 2457.34 604.238V603.936C2457.34 588.545 2446.48 575.418 2430.33 575.418C2414.19 575.418 2403.47 588.394 2403.47 603.634V603.936C2403.47 619.176 2414.49 632.454 2430.63 632.454ZM2502.92 656.748V598.051H2493.41V575.418H2502.92V573.758C2502.92 564.403 2505.03 557.462 2509.86 552.633C2514.84 547.654 2521.48 545.541 2531.29 545.541C2539.89 545.541 2545.47 546.447 2549.84 547.805V568.024C2546.53 566.968 2543.36 566.364 2539.13 566.364C2533.85 566.364 2530.98 568.779 2530.98 574.06V576.021H2549.84V598.051H2531.59V656.748H2502.92ZM2563.88 656.748V598.051H2554.37V575.87H2563.88V573.758C2563.88 564.403 2565.99 557.462 2570.82 552.633C2575.8 547.654 2582.44 545.541 2592.24 545.541C2600.85 545.541 2606.43 546.447 2610.8 547.805V568.024C2607.48 566.968 2604.32 566.364 2600.09 566.364C2594.81 566.364 2591.94 568.779 2591.94 574.06V576.021H2610.8V598.051H2592.55V656.748H2563.88Z" stroke="#77FFD6" stroke-opacity="0.87" stroke-width="3.15035" mask="url(#path-1-outside-1_1018_43)"/>
<path d="M713.965 115.86C693.595 115.86 679.411 108.466 669 97.1497L687.56 78.7411C695.104 86.4365 702.95 90.8123 712.758 90.8123C721.057 90.8123 726.187 86.5874 726.187 80.0991V79.7973C726.187 73.0072 720.152 68.9332 708.986 68.9332H696.613L692.539 53.6933L716.681 31.8142H676.394V8.12439H752.593V28.9473L727.395 50.6755C742.484 53.9951 754.706 62.294 754.706 80.4009V80.7027C754.706 102.129 737.504 115.86 713.965 115.86ZM811.907 115.86C781.88 115.86 763.17 91.1141 763.17 61.2378V60.936C763.17 31.0597 782.182 6.01192 812.209 6.01192C842.236 6.01192 860.947 30.7579 860.947 60.6342V60.936C860.947 90.8123 842.085 115.86 811.907 115.86ZM812.209 89.907C823.979 89.907 831.523 77.9866 831.523 61.2378V60.936C831.523 44.0363 823.677 31.8142 811.907 31.8142C800.289 31.8142 792.593 43.7345 792.593 60.6342V60.936C792.593 77.8357 800.44 89.907 812.209 89.907ZM896.628 63.3503C880.482 63.3503 869.467 50.6755 869.467 35.2846V34.9829C869.467 19.4412 880.331 6.61548 896.778 6.61548C913.225 6.61548 923.939 19.2903 923.939 34.832V35.1338C923.939 50.5246 912.924 63.3503 896.628 63.3503ZM896.628 23.0625C891.346 23.0625 887.876 28.0419 887.876 34.832V35.1338C887.876 41.7729 891.799 46.9032 896.778 46.9032C901.909 46.9032 905.53 41.9238 905.53 35.2846V34.9829C905.53 28.1928 901.758 23.0625 896.628 23.0625ZM925.598 56.862L962.567 8.12439H982.937L937.971 65.6136L901.456 113.748H881.086L925.598 56.862ZM967.244 115.257C950.948 115.257 940.084 102.431 940.084 87.04V86.7383C940.084 71.1966 950.797 58.3709 967.395 58.3709C983.842 58.3709 994.555 71.0457 994.555 86.5874V86.8892C994.555 102.28 983.54 115.257 967.244 115.257ZM967.395 98.6586C972.525 98.6586 976.147 93.6792 976.147 87.04V86.7383C976.147 79.9482 972.374 74.8179 967.244 74.8179C961.812 74.8179 958.493 79.7973 958.493 86.5874V86.8892C958.493 93.5283 962.416 98.6586 967.395 98.6586ZM1098.33 115.86C1065.74 115.86 1041.6 91.5668 1041.6 61.2378V60.936C1041.6 30.6071 1066.04 6.01192 1098.63 6.01192C1131.23 6.01192 1155.37 30.3053 1155.37 60.6342V60.936C1155.37 91.265 1130.92 115.86 1098.33 115.86ZM1098.63 89.4543C1114.63 89.4543 1125.34 76.4777 1125.34 61.2378V60.936C1125.34 45.5452 1114.48 32.4177 1098.33 32.4177C1082.19 32.4177 1071.47 45.3943 1071.47 60.6342V60.936C1071.47 76.1759 1082.49 89.4543 1098.63 89.4543ZM1170.92 113.748V55.0513H1161.41V32.4177H1170.92V30.7579C1170.92 21.4027 1173.03 14.4618 1177.86 9.63329C1182.84 4.65391 1189.48 2.54144 1199.29 2.54144C1207.89 2.54144 1213.47 3.44679 1217.84 4.8048V25.0241C1214.53 23.9679 1211.36 23.3643 1207.13 23.3643C1201.85 23.3643 1198.98 25.7786 1198.98 31.0597V33.0213H1217.84V55.0513H1199.59V113.748H1170.92ZM1231.88 113.748V55.0513H1222.37V32.8704H1231.88V30.7579C1231.88 21.4027 1233.99 14.4618 1238.82 9.63329C1243.8 4.65391 1250.44 2.54144 1260.24 2.54144C1268.85 2.54144 1274.43 3.44679 1278.8 4.8048V25.0241C1275.48 23.9679 1272.32 23.3643 1268.09 23.3643C1262.81 23.3643 1259.94 25.7786 1259.94 31.0597V33.0213H1278.8V55.0513H1260.55V113.748H1231.88ZM713.965 296.86C693.595 296.86 679.411 289.466 669 278.15L687.56 259.741C695.104 267.436 702.95 271.812 712.758 271.812C721.057 271.812 726.187 267.587 726.187 261.099V260.797C726.187 254.007 720.152 249.933 708.986 249.933H696.613L692.539 234.693L716.681 212.814H676.394V189.124H752.593V209.947L727.395 231.675C742.484 234.995 754.706 243.294 754.706 261.401V261.703C754.706 283.129 737.504 296.86 713.965 296.86ZM811.907 296.86C781.88 296.86 763.17 272.114 763.17 242.238V241.936C763.17 212.06 782.182 187.012 812.209 187.012C842.236 187.012 860.947 211.758 860.947 241.634V241.936C860.947 271.812 842.085 296.86 811.907 296.86ZM812.209 270.907C823.979 270.907 831.523 258.987 831.523 242.238V241.936C831.523 225.036 823.677 212.814 811.907 212.814C800.289 212.814 792.593 224.735 792.593 241.634V241.936C792.593 258.836 800.44 270.907 812.209 270.907ZM896.628 244.35C880.482 244.35 869.467 231.675 869.467 216.285V215.983C869.467 200.441 880.331 187.615 896.778 187.615C913.225 187.615 923.939 200.29 923.939 215.832V216.134C923.939 231.525 912.924 244.35 896.628 244.35ZM896.628 204.063C891.346 204.063 887.876 209.042 887.876 215.832V216.134C887.876 222.773 891.799 227.903 896.778 227.903C901.909 227.903 905.53 222.924 905.53 216.285V215.983C905.53 209.193 901.758 204.063 896.628 204.063ZM925.598 237.862L962.567 189.124H982.937L937.971 246.614L901.456 294.748H881.086L925.598 237.862ZM967.244 296.257C950.948 296.257 940.084 283.431 940.084 268.04V267.738C940.084 252.197 950.797 239.371 967.395 239.371C983.842 239.371 994.555 252.046 994.555 267.587V267.889C994.555 283.28 983.54 296.257 967.244 296.257ZM967.395 279.659C972.525 279.659 976.147 274.679 976.147 268.04V267.738C976.147 260.948 972.374 255.818 967.244 255.818C961.812 255.818 958.493 260.797 958.493 267.587V267.889C958.493 274.528 962.416 279.659 967.395 279.659ZM1098.33 296.86C1065.74 296.86 1041.6 272.567 1041.6 242.238V241.936C1041.6 211.607 1066.04 187.012 1098.63 187.012C1131.23 187.012 1155.37 211.305 1155.37 241.634V241.936C1155.37 272.265 1130.92 296.86 1098.33 296.86ZM1098.63 270.454C1114.63 270.454 1125.34 257.478 1125.34 242.238V241.936C1125.34 226.545 1114.48 213.418 1098.33 213.418C1082.19 213.418 1071.47 226.394 1071.47 241.634V241.936C1071.47 257.176 1082.49 270.454 1098.63 270.454ZM1170.92 294.748V236.051H1161.41V213.418H1170.92V211.758C1170.92 202.403 1173.03 195.462 1177.86 190.633C1182.84 185.654 1189.48 183.541 1199.29 183.541C1207.89 183.541 1213.47 184.447 1217.84 185.805V206.024C1214.53 204.968 1211.36 204.364 1207.13 204.364C1201.85 204.364 1198.98 206.779 1198.98 212.06V214.021H1217.84V236.051H1199.59V294.748H1170.92ZM1231.88 294.748V236.051H1222.37V213.87H1231.88V211.758C1231.88 202.403 1233.99 195.462 1238.82 190.633C1243.8 185.654 1250.44 183.541 1260.24 183.541C1268.85 183.541 1274.43 184.447 1278.8 185.805V206.024C1275.48 204.968 1272.32 204.364 1268.09 204.364C1262.81 204.364 1259.94 206.779 1259.94 212.06V214.021H1278.8V236.051H1260.55V294.748H1231.88ZM713.965 477.86C693.595 477.86 679.411 470.466 669 459.15L687.56 440.741C695.104 448.436 702.95 452.812 712.758 452.812C721.057 452.812 726.187 448.587 726.187 442.099V441.797C726.187 435.007 720.152 430.933 708.986 430.933H696.613L692.539 415.693L716.681 393.814H676.394V370.124H752.593V390.947L727.395 412.675C742.484 415.995 754.706 424.294 754.706 442.401V442.703C754.706 464.129 737.504 477.86 713.965 477.86ZM811.907 477.86C781.88 477.86 763.17 453.114 763.17 423.238V422.936C763.17 393.06 782.182 368.012 812.209 368.012C842.236 368.012 860.947 392.758 860.947 422.634V422.936C860.947 452.812 842.085 477.86 811.907 477.86ZM812.209 451.907C823.979 451.907 831.523 439.987 831.523 423.238V422.936C831.523 406.036 823.677 393.814 811.907 393.814C800.289 393.814 792.593 405.734 792.593 422.634V422.936C792.593 439.836 800.44 451.907 812.209 451.907ZM896.628 425.35C880.482 425.35 869.467 412.675 869.467 397.285V396.983C869.467 381.441 880.331 368.615 896.778 368.615C913.225 368.615 923.939 381.29 923.939 396.832V397.134C923.939 412.525 912.924 425.35 896.628 425.35ZM896.628 385.063C891.346 385.063 887.876 390.042 887.876 396.832V397.134C887.876 403.773 891.799 408.903 896.778 408.903C901.909 408.903 905.53 403.924 905.53 397.285V396.983C905.53 390.193 901.758 385.063 896.628 385.063ZM925.598 418.862L962.567 370.124H982.937L937.971 427.614L901.456 475.748H881.086L925.598 418.862ZM967.244 477.257C950.948 477.257 940.084 464.431 940.084 449.04V448.738C940.084 433.197 950.797 420.371 967.395 420.371C983.842 420.371 994.555 433.046 994.555 448.587V448.889C994.555 464.28 983.54 477.257 967.244 477.257ZM967.395 460.659C972.525 460.659 976.147 455.679 976.147 449.04V448.738C976.147 441.948 972.374 436.818 967.244 436.818C961.812 436.818 958.493 441.797 958.493 448.587V448.889C958.493 455.528 962.416 460.659 967.395 460.659ZM1098.33 477.86C1065.74 477.86 1041.6 453.567 1041.6 423.238V422.936C1041.6 392.607 1066.04 368.012 1098.63 368.012C1131.23 368.012 1155.37 392.305 1155.37 422.634V422.936C1155.37 453.265 1130.92 477.86 1098.33 477.86ZM1098.63 451.454C1114.63 451.454 1125.34 438.478 1125.34 423.238V422.936C1125.34 407.545 1114.48 394.418 1098.33 394.418C1082.19 394.418 1071.47 407.394 1071.47 422.634V422.936C1071.47 438.176 1082.49 451.454 1098.63 451.454ZM1170.92 475.748V417.051H1161.41V394.418H1170.92V392.758C1170.92 383.403 1173.03 376.462 1177.86 371.633C1182.84 366.654 1189.48 364.541 1199.29 364.541C1207.89 364.541 1213.47 365.447 1217.84 366.805V387.024C1214.53 385.968 1211.36 385.364 1207.13 385.364C1201.85 385.364 1198.98 387.779 1198.98 393.06V395.021H1217.84V417.051H1199.59V475.748H1170.92ZM1231.88 475.748V417.051H1222.37V394.87H1231.88V392.758C1231.88 383.403 1233.99 376.462 1238.82 371.633C1243.8 366.654 1250.44 364.541 1260.24 364.541C1268.85 364.541 1274.43 365.447 1278.8 366.805V387.024C1275.48 385.968 1272.32 385.364 1268.09 385.364C1262.81 385.364 1259.94 387.779 1259.94 393.06V395.021H1278.8V417.051H1260.55V475.748H1231.88ZM713.965 658.86C693.595 658.86 679.411 651.466 669 640.15L687.56 621.741C695.104 629.436 702.95 633.812 712.758 633.812C721.057 633.812 726.187 629.587 726.187 623.099V622.797C726.187 616.007 720.152 611.933 708.986 611.933H696.613L692.539 596.693L716.681 574.814H676.394V551.124H752.593V571.947L727.395 593.675C742.484 596.995 754.706 605.294 754.706 623.401V623.703C754.706 645.129 737.504 658.86 713.965 658.86ZM811.907 658.86C781.88 658.86 763.17 634.114 763.17 604.238V603.936C763.17 574.06 782.182 549.012 812.209 549.012C842.236 549.012 860.947 573.758 860.947 603.634V603.936C860.947 633.812 842.085 658.86 811.907 658.86ZM812.209 632.907C823.979 632.907 831.523 620.987 831.523 604.238V603.936C831.523 587.036 823.677 574.814 811.907 574.814C800.289 574.814 792.593 586.734 792.593 603.634V603.936C792.593 620.836 800.44 632.907 812.209 632.907ZM896.628 606.35C880.482 606.35 869.467 593.675 869.467 578.285V577.983C869.467 562.441 880.331 549.615 896.778 549.615C913.225 549.615 923.939 562.29 923.939 577.832V578.134C923.939 593.525 912.924 606.35 896.628 606.35ZM896.628 566.063C891.346 566.063 887.876 571.042 887.876 577.832V578.134C887.876 584.773 891.799 589.903 896.778 589.903C901.909 589.903 905.53 584.924 905.53 578.285V577.983C905.53 571.193 901.758 566.063 896.628 566.063ZM925.598 599.862L962.567 551.124H982.937L937.971 608.614L901.456 656.748H881.086L925.598 599.862ZM967.244 658.257C950.948 658.257 940.084 645.431 940.084 630.04V629.738C940.084 614.197 950.797 601.371 967.395 601.371C983.842 601.371 994.555 614.046 994.555 629.587V629.889C994.555 645.28 983.54 658.257 967.244 658.257ZM967.395 641.659C972.525 641.659 976.147 636.679 976.147 630.04V629.738C976.147 622.948 972.374 617.818 967.244 617.818C961.812 617.818 958.493 622.797 958.493 629.587V629.889C958.493 636.528 962.416 641.659 967.395 641.659ZM1098.33 658.86C1065.74 658.86 1041.6 634.567 1041.6 604.238V603.936C1041.6 573.607 1066.04 549.012 1098.63 549.012C1131.23 549.012 1155.37 573.305 1155.37 603.634V603.936C1155.37 634.265 1130.92 658.86 1098.33 658.86ZM1098.63 632.454C1114.63 632.454 1125.34 619.478 1125.34 604.238V603.936C1125.34 588.545 1114.48 575.418 1098.33 575.418C1082.19 575.418 1071.47 588.394 1071.47 603.634V603.936C1071.47 619.176 1082.49 632.454 1098.63 632.454ZM1170.92 656.748V598.051H1161.41V575.418H1170.92V573.758C1170.92 564.403 1173.03 557.462 1177.86 552.633C1182.84 547.654 1189.48 545.541 1199.29 545.541C1207.89 545.541 1213.47 546.447 1217.84 547.805V568.024C1214.53 566.968 1211.36 566.364 1207.13 566.364C1201.85 566.364 1198.98 568.779 1198.98 574.06V576.021H1217.84V598.051H1199.59V656.748H1170.92ZM1231.88 656.748V598.051H1222.37V575.87H1231.88V573.758C1231.88 564.403 1233.99 557.462 1238.82 552.633C1243.8 547.654 1250.44 545.541 1260.24 545.541C1268.85 545.541 1274.43 546.447 1278.8 547.805V568.024C1275.48 566.968 1272.32 566.364 1268.09 566.364C1262.81 566.364 1259.94 568.779 1259.94 574.06V576.021H1278.8V598.051H1260.55V656.748H1231.88Z" stroke="#77FFD6" stroke-opacity="0.87" stroke-width="3.15035" mask="url(#path-1-outside-1_1018_43)"/>
<path d="M47.9653 115.86C27.5951 115.86 13.4114 108.466 3 97.1497L21.5595 78.7411C29.104 86.4365 36.9503 90.8123 46.7582 90.8123C55.0572 90.8123 60.1874 86.5874 60.1874 80.0991V79.7973C60.1874 73.0072 54.1518 68.9332 42.9859 68.9332H30.6129L26.5389 53.6933L50.6814 31.8142H10.3936V8.12439H86.5933V28.9473L61.3946 50.6755C76.4836 53.9951 88.7057 62.294 88.7057 80.4009V80.7027C88.7057 102.129 71.5042 115.86 47.9653 115.86ZM145.907 115.86C115.88 115.86 97.1697 91.1141 97.1697 61.2378V60.936C97.1697 31.0597 116.182 6.01192 146.209 6.01192C176.236 6.01192 194.947 30.7579 194.947 60.6342V60.936C194.947 90.8123 176.085 115.86 145.907 115.86ZM146.209 89.907C157.979 89.907 165.523 77.9866 165.523 61.2378V60.936C165.523 44.0363 157.677 31.8142 145.907 31.8142C134.289 31.8142 126.593 43.7345 126.593 60.6342V60.936C126.593 77.8357 134.44 89.907 146.209 89.907ZM230.628 63.3503C214.482 63.3503 203.467 50.6755 203.467 35.2846V34.9829C203.467 19.4412 214.331 6.61548 230.778 6.61548C247.225 6.61548 257.939 19.2903 257.939 34.832V35.1338C257.939 50.5246 246.924 63.3503 230.628 63.3503ZM230.628 23.0625C225.346 23.0625 221.876 28.0419 221.876 34.832V35.1338C221.876 41.7729 225.799 46.9032 230.778 46.9032C235.909 46.9032 239.53 41.9238 239.53 35.2846V34.9829C239.53 28.1928 235.758 23.0625 230.628 23.0625ZM259.598 56.862L296.567 8.12439H316.937L271.971 65.6136L235.456 113.748H215.086L259.598 56.862ZM301.244 115.257C284.948 115.257 274.084 102.431 274.084 87.04V86.7383C274.084 71.1966 284.797 58.3709 301.395 58.3709C317.842 58.3709 328.555 71.0457 328.555 86.5874V86.8892C328.555 102.28 317.54 115.257 301.244 115.257ZM301.395 98.6586C306.525 98.6586 310.147 93.6792 310.147 87.04V86.7383C310.147 79.9482 306.375 74.8179 301.244 74.8179C295.812 74.8179 292.493 79.7973 292.493 86.5874V86.8892C292.493 93.5283 296.416 98.6586 301.395 98.6586ZM432.331 115.86C399.739 115.86 375.597 91.5668 375.597 61.2378V60.936C375.597 30.6071 400.041 6.01192 432.633 6.01192C465.225 6.01192 489.368 30.3053 489.368 60.6342V60.936C489.368 91.265 464.924 115.86 432.331 115.86ZM432.633 89.4543C448.628 89.4543 459.341 76.4777 459.341 61.2378V60.936C459.341 45.5452 448.477 32.4177 432.331 32.4177C416.186 32.4177 405.473 45.3943 405.473 60.6342V60.936C405.473 76.1759 416.488 89.4543 432.633 89.4543ZM504.918 113.748V55.0513H495.412V32.4177H504.918V30.7579C504.918 21.4027 507.03 14.4618 511.859 9.63329C516.838 4.65391 523.477 2.54144 533.285 2.54144C541.886 2.54144 547.469 3.44679 551.845 4.8048V25.0241C548.525 23.9679 545.357 23.3643 541.132 23.3643C535.85 23.3643 532.984 25.7786 532.984 31.0597V33.0213H551.845V55.0513H533.587V113.748H504.918ZM565.878 113.748V55.0513H556.372V32.8704H565.878V30.7579C565.878 21.4027 567.99 14.4618 572.819 9.63329C577.798 4.65391 584.437 2.54144 594.245 2.54144C602.846 2.54144 608.429 3.44679 612.805 4.8048V25.0241C609.485 23.9679 606.316 23.3643 602.091 23.3643C596.81 23.3643 593.943 25.7786 593.943 31.0597V33.0213H612.805V55.0513H594.547V113.748H565.878ZM47.9653 296.86C27.5951 296.86 13.4114 289.466 3 278.15L21.5595 259.741C29.104 267.436 36.9503 271.812 46.7582 271.812C55.0572 271.812 60.1874 267.587 60.1874 261.099V260.797C60.1874 254.007 54.1518 249.933 42.9859 249.933H30.6129L26.5389 234.693L50.6814 212.814H10.3936V189.124H86.5933V209.947L61.3946 231.675C76.4836 234.995 88.7057 243.294 88.7057 261.401V261.703C88.7057 283.129 71.5042 296.86 47.9653 296.86ZM145.907 296.86C115.88 296.86 97.1697 272.114 97.1697 242.238V241.936C97.1697 212.06 116.182 187.012 146.209 187.012C176.236 187.012 194.947 211.758 194.947 241.634V241.936C194.947 271.812 176.085 296.86 145.907 296.86ZM146.209 270.907C157.979 270.907 165.523 258.987 165.523 242.238V241.936C165.523 225.036 157.677 212.814 145.907 212.814C134.289 212.814 126.593 224.735 126.593 241.634V241.936C126.593 258.836 134.44 270.907 146.209 270.907ZM230.628 244.35C214.482 244.35 203.467 231.675 203.467 216.285V215.983C203.467 200.441 214.331 187.615 230.778 187.615C247.225 187.615 257.939 200.29 257.939 215.832V216.134C257.939 231.525 246.924 244.35 230.628 244.35ZM230.628 204.063C225.346 204.063 221.876 209.042 221.876 215.832V216.134C221.876 222.773 225.799 227.903 230.778 227.903C235.909 227.903 239.53 222.924 239.53 216.285V215.983C239.53 209.193 235.758 204.063 230.628 204.063ZM259.598 237.862L296.567 189.124H316.937L271.971 246.614L235.456 294.748H215.086L259.598 237.862ZM301.244 296.257C284.948 296.257 274.084 283.431 274.084 268.04V267.738C274.084 252.197 284.797 239.371 301.395 239.371C317.842 239.371 328.555 252.046 328.555 267.587V267.889C328.555 283.28 317.54 296.257 301.244 296.257ZM301.395 279.659C306.525 279.659 310.147 274.679 310.147 268.04V267.738C310.147 260.948 306.375 255.818 301.244 255.818C295.812 255.818 292.493 260.797 292.493 267.587V267.889C292.493 274.528 296.416 279.659 301.395 279.659ZM432.331 296.86C399.739 296.86 375.597 272.567 375.597 242.238V241.936C375.597 211.607 400.041 187.012 432.633 187.012C465.225 187.012 489.368 211.305 489.368 241.634V241.936C489.368 272.265 464.924 296.86 432.331 296.86ZM432.633 270.454C448.628 270.454 459.341 257.478 459.341 242.238V241.936C459.341 226.545 448.477 213.418 432.331 213.418C416.186 213.418 405.473 226.394 405.473 241.634V241.936C405.473 257.176 416.488 270.454 432.633 270.454ZM504.918 294.748V236.051H495.412V213.418H504.918V211.758C504.918 202.403 507.03 195.462 511.859 190.633C516.838 185.654 523.477 183.541 533.285 183.541C541.886 183.541 547.469 184.447 551.845 185.805V206.024C548.525 204.968 545.357 204.364 541.132 204.364C535.85 204.364 532.984 206.779 532.984 212.06V214.021H551.845V236.051H533.587V294.748H504.918ZM565.878 294.748V236.051H556.372V213.87H565.878V211.758C565.878 202.403 567.99 195.462 572.819 190.633C577.798 185.654 584.437 183.541 594.245 183.541C602.846 183.541 608.429 184.447 612.805 185.805V206.024C609.485 204.968 606.316 204.364 602.091 204.364C596.81 204.364 593.943 206.779 593.943 212.06V214.021H612.805V236.051H594.547V294.748H565.878ZM47.9653 477.86C27.5951 477.86 13.4114 470.466 3 459.15L21.5595 440.741C29.104 448.436 36.9503 452.812 46.7582 452.812C55.0572 452.812 60.1874 448.587 60.1874 442.099V441.797C60.1874 435.007 54.1518 430.933 42.9859 430.933H30.6129L26.5389 415.693L50.6814 393.814H10.3936V370.124H86.5933V390.947L61.3946 412.675C76.4836 415.995 88.7057 424.294 88.7057 442.401V442.703C88.7057 464.129 71.5042 477.86 47.9653 477.86ZM145.907 477.86C115.88 477.86 97.1697 453.114 97.1697 423.238V422.936C97.1697 393.06 116.182 368.012 146.209 368.012C176.236 368.012 194.947 392.758 194.947 422.634V422.936C194.947 452.812 176.085 477.86 145.907 477.86ZM146.209 451.907C157.979 451.907 165.523 439.987 165.523 423.238V422.936C165.523 406.036 157.677 393.814 145.907 393.814C134.289 393.814 126.593 405.734 126.593 422.634V422.936C126.593 439.836 134.44 451.907 146.209 451.907ZM230.628 425.35C214.482 425.35 203.467 412.675 203.467 397.285V396.983C203.467 381.441 214.331 368.615 230.778 368.615C247.225 368.615 257.939 381.29 257.939 396.832V397.134C257.939 412.525 246.924 425.35 230.628 425.35ZM230.628 385.063C225.346 385.063 221.876 390.042 221.876 396.832V397.134C221.876 403.773 225.799 408.903 230.778 408.903C235.909 408.903 239.53 403.924 239.53 397.285V396.983C239.53 390.193 235.758 385.063 230.628 385.063ZM259.598 418.862L296.567 370.124H316.937L271.971 427.614L235.456 475.748H215.086L259.598 418.862ZM301.244 477.257C284.948 477.257 274.084 464.431 274.084 449.04V448.738C274.084 433.197 284.797 420.371 301.395 420.371C317.842 420.371 328.555 433.046 328.555 448.587V448.889C328.555 464.28 317.54 477.257 301.244 477.257ZM301.395 460.659C306.525 460.659 310.147 455.679 310.147 449.04V448.738C310.147 441.948 306.375 436.818 301.244 436.818C295.812 436.818 292.493 441.797 292.493 448.587V448.889C292.493 455.528 296.416 460.659 301.395 460.659ZM432.331 477.86C399.739 477.86 375.597 453.567 375.597 423.238V422.936C375.597 392.607 400.041 368.012 432.633 368.012C465.225 368.012 489.368 392.305 489.368 422.634V422.936C489.368 453.265 464.924 477.86 432.331 477.86ZM432.633 451.454C448.628 451.454 459.341 438.478 459.341 423.238V422.936C459.341 407.545 448.477 394.418 432.331 394.418C416.186 394.418 405.473 407.394 405.473 422.634V422.936C405.473 438.176 416.488 451.454 432.633 451.454ZM504.918 475.748V417.051H495.412V394.418H504.918V392.758C504.918 383.403 507.03 376.462 511.859 371.633C516.838 366.654 523.477 364.541 533.285 364.541C541.886 364.541 547.469 365.447 551.845 366.805V387.024C548.525 385.968 545.357 385.364 541.132 385.364C535.85 385.364 532.984 387.779 532.984 393.06V395.021H551.845V417.051H533.587V475.748H504.918ZM565.878 475.748V417.051H556.372V394.87H565.878V392.758C565.878 383.403 567.99 376.462 572.819 371.633C577.798 366.654 584.437 364.541 594.245 364.541C602.846 364.541 608.429 365.447 612.805 366.805V387.024C609.485 385.968 606.316 385.364 602.091 385.364C596.81 385.364 593.943 387.779 593.943 393.06V395.021H612.805V417.051H594.547V475.748H565.878ZM47.9653 658.86C27.5951 658.86 13.4114 651.466 3 640.15L21.5595 621.741C29.104 629.436 36.9503 633.812 46.7582 633.812C55.0572 633.812 60.1874 629.587 60.1874 623.099V622.797C60.1874 616.007 54.1518 611.933 42.9859 611.933H30.6129L26.5389 596.693L50.6814 574.814H10.3936V551.124H86.5933V571.947L61.3946 593.675C76.4836 596.995 88.7057 605.294 88.7057 623.401V623.703C88.7057 645.129 71.5042 658.86 47.9653 658.86ZM145.907 658.86C115.88 658.86 97.1697 634.114 97.1697 604.238V603.936C97.1697 574.06 116.182 549.012 146.209 549.012C176.236 549.012 194.947 573.758 194.947 603.634V603.936C194.947 633.812 176.085 658.86 145.907 658.86ZM146.209 632.907C157.979 632.907 165.523 620.987 165.523 604.238V603.936C165.523 587.036 157.677 574.814 145.907 574.814C134.289 574.814 126.593 586.734 126.593 603.634V603.936C126.593 620.836 134.44 632.907 146.209 632.907ZM230.628 606.35C214.482 606.35 203.467 593.675 203.467 578.285V577.983C203.467 562.441 214.331 549.615 230.778 549.615C247.225 549.615 257.939 562.29 257.939 577.832V578.134C257.939 593.525 246.924 606.35 230.628 606.35ZM230.628 566.063C225.346 566.063 221.876 571.042 221.876 577.832V578.134C221.876 584.773 225.799 589.903 230.778 589.903C235.909 589.903 239.53 584.924 239.53 578.285V577.983C239.53 571.193 235.758 566.063 230.628 566.063ZM259.598 599.862L296.567 551.124H316.937L271.971 608.614L235.456 656.748H215.086L259.598 599.862ZM301.244 658.257C284.948 658.257 274.084 645.431 274.084 630.04V629.738C274.084 614.197 284.797 601.371 301.395 601.371C317.842 601.371 328.555 614.046 328.555 629.587V629.889C328.555 645.28 317.54 658.257 301.244 658.257ZM301.395 641.659C306.525 641.659 310.147 636.679 310.147 630.04V629.738C310.147 622.948 306.375 617.818 301.244 617.818C295.812 617.818 292.493 622.797 292.493 629.587V629.889C292.493 636.528 296.416 641.659 301.395 641.659ZM432.331 658.86C399.739 658.86 375.597 634.567 375.597 604.238V603.936C375.597 573.607 400.041 549.012 432.633 549.012C465.225 549.012 489.368 573.305 489.368 603.634V603.936C489.368 634.265 464.924 658.86 432.331 658.86ZM432.633 632.454C448.628 632.454 459.341 619.478 459.341 604.238V603.936C459.341 588.545 448.477 575.418 432.331 575.418C416.186 575.418 405.473 588.394 405.473 603.634V603.936C405.473 619.176 416.488 632.454 432.633 632.454ZM504.918 656.748V598.051H495.412V575.418H504.918V573.758C504.918 564.403 507.03 557.462 511.859 552.633C516.838 547.654 523.477 545.541 533.285 545.541C541.886 545.541 547.469 546.447 551.845 547.805V568.024C548.525 566.968 545.357 566.364 541.132 566.364C535.85 566.364 532.984 568.779 532.984 574.06V576.021H551.845V598.051H533.587V656.748H504.918ZM565.878 656.748V598.051H556.372V575.87H565.878V573.758C565.878 564.403 567.99 557.462 572.819 552.633C577.798 547.654 584.437 545.541 594.245 545.541C602.846 545.541 608.429 546.447 612.805 547.805V568.024C609.485 566.968 606.316 566.364 602.091 566.364C596.81 566.364 593.943 568.779 593.943 574.06V576.021H612.805V598.051H594.547V656.748H565.878Z" stroke="#77FFD6" stroke-opacity="0.87" stroke-width="3.15035" mask="url(#path-1-outside-1_1018_43)"/>
</svg>
