<svg xmlns="http://www.w3.org/2000/svg" fill="none" viewBox="0 0 314 334" height="334" width="314">
<rect fill="#FF7753" height="331" width="311" y="1.5" x="1.5"></rect>
<rect stroke-width="3" stroke="#0C0C0C" height="331" width="311" y="1.5" x="1.5"></rect>
<mask fill="white" id="path-2-inside-1_4_994">
<path d="M0 0.344971H311.639V33.8449H0V0.344971Z"></path>
</mask>
<path fill="url(#paint0_linear_4_994)" d="M0 0.344971H311.639V33.8449H0V0.344971Z"></path>
<path mask="url(#path-2-inside-1_4_994)" fill="black" d="M0 0.344971V-2.65503H-1V0.344971H0ZM311.639 0.344971H312.639V-2.65503H311.639V0.344971ZM0 3.34497H311.639V-2.65503H0V3.34497ZM310.639 0.344971V33.8449H312.639V0.344971H310.639ZM1 33.8449V0.344971H-1V33.8449H1Z"></path>
<g filter="url(#filter0_i_4_994)">
<rect fill="#D9D9D9" height="17.2285" width="18.6053" y="9.9165" x="13.9541"></rect>
</g>
<g filter="url(#filter1_i_4_994)">
<rect fill="#D9D9D9" height="17.2285" width="18.6053" y="9.9165" x="37.2109"></rect>
</g>
<g filter="url(#filter2_i_4_994)">
<rect fill="#D9D9D9" height="17.2285" width="18.6053" y="9.9165" x="60.4678"></rect>
</g>
<path fill="#D9D9D9" d="M92.334 25.2163V14.0163H96.222C99.742 14.0163 102.174 16.4323 102.174 19.5843V19.6163C102.174 22.7683 99.742 25.2163 96.222 25.2163H92.334ZM96.222 15.1843H93.598V24.0483H96.222C99.054 24.0483 100.862 22.1283 100.862 19.6483V19.6163C100.862 17.1363 99.054 15.1843 96.222 15.1843ZM104.674 15.1363V13.7763H106.082V15.1363H104.674ZM104.754 25.2163V16.9443H105.986V25.2163H104.754ZM112.317 25.3923C110.333 25.3923 108.365 23.8243 108.365 21.1043V21.0723C108.365 18.3683 110.333 16.7683 112.317 16.7683C113.853 16.7683 114.845 17.6003 115.485 18.5283V13.5363H116.717V25.2163H115.485V23.5523C114.813 24.5443 113.837 25.3923 112.317 25.3923ZM112.541 24.2883C114.077 24.2883 115.533 22.9923 115.533 21.0883V21.0563C115.533 19.1523 114.077 17.8723 112.541 17.8723C110.941 17.8723 109.629 19.0563 109.629 21.0563V21.0883C109.629 23.0403 110.989 24.2883 112.541 24.2883ZM128.315 25.3763C126.539 25.3763 125.083 24.7843 123.739 23.5843L124.523 22.6563C125.691 23.7123 126.811 24.2403 128.363 24.2403C129.867 24.2403 130.859 23.4403 130.859 22.3363V22.3043C130.859 21.2643 130.299 20.6723 127.947 20.1763C125.371 19.6163 124.187 18.7843 124.187 16.9443V16.9123C124.187 15.1523 125.739 13.8563 127.867 13.8563C129.499 13.8563 130.667 14.3203 131.803 15.2323L131.067 16.2083C130.027 15.3603 128.987 14.9923 127.835 14.9923C126.379 14.9923 125.451 15.7923 125.451 16.8003V16.8323C125.451 17.8883 126.027 18.4803 128.491 19.0083C130.987 19.5523 132.139 20.4643 132.139 22.1763V22.2083C132.139 24.1283 130.539 25.3763 128.315 25.3763ZM138.277 25.4083C135.797 25.4083 133.989 23.4563 133.989 21.1203V21.0883C133.989 18.7523 135.813 16.7683 138.309 16.7683C140.789 16.7683 142.613 18.7203 142.613 21.0563V21.0883C142.613 23.4243 140.773 25.4083 138.277 25.4083ZM138.309 24.3043C140.101 24.3043 141.349 22.8643 141.349 21.1203V21.0883C141.349 19.3123 140.021 17.8563 138.277 17.8563C136.485 17.8563 135.253 19.3123 135.253 21.0563V21.0883C135.253 22.8643 136.565 24.3043 138.309 24.3043ZM144.845 25.2163V16.9443H146.077V18.3363C146.621 17.5203 147.357 16.7683 148.749 16.7683C150.093 16.7683 150.957 17.4883 151.405 18.4163C151.997 17.5043 152.877 16.7683 154.317 16.7683C156.221 16.7683 157.389 18.0483 157.389 20.0963V25.2163H156.157V20.3843C156.157 18.7843 155.357 17.8883 154.013 17.8883C152.765 17.8883 151.741 18.8163 151.741 20.4483V25.2163H150.509V20.3523C150.509 18.8003 149.693 17.8883 148.381 17.8883C147.069 17.8883 146.077 18.9763 146.077 20.4963V25.2163H144.845ZM163.68 25.4083C161.408 25.4083 159.552 23.6643 159.552 21.1043V21.0723C159.552 18.6883 161.232 16.7683 163.52 16.7683C165.968 16.7683 167.376 18.7203 167.376 21.1363C167.376 21.2963 167.376 21.3923 167.36 21.5363H160.799C160.976 23.3283 162.24 24.3363 163.712 24.3363C164.848 24.3363 165.648 23.8723 166.32 23.1683L167.088 23.8563C166.256 24.7843 165.248 25.4083 163.68 25.4083ZM160.799 20.6243H166.128C166 19.1203 165.136 17.8083 163.488 17.8083C162.048 17.8083 160.96 19.0083 160.799 20.6243ZM173.308 25.4083C170.828 25.4083 169.02 23.4563 169.02 21.1203V21.0883C169.02 18.7523 170.844 16.7683 173.34 16.7683C175.82 16.7683 177.644 18.7203 177.644 21.0563V21.0883C177.644 23.4243 175.804 25.4083 173.308 25.4083ZM173.34 24.3043C175.132 24.3043 176.38 22.8643 176.38 21.1203V21.0883C176.38 19.3123 175.052 17.8563 173.308 17.8563C171.516 17.8563 170.284 19.3123 170.284 21.0563V21.0883C170.284 22.8643 171.596 24.3043 173.34 24.3043ZM179.876 25.2163V16.9443H181.108V18.3843C181.652 17.4883 182.516 16.7683 183.94 16.7683C185.94 16.7683 187.108 18.1123 187.108 20.0803V25.2163H185.876V20.3843C185.876 18.8483 185.044 17.8883 183.588 17.8883C182.164 17.8883 181.108 18.9283 181.108 20.4803V25.2163H179.876ZM193.351 25.4083C191.079 25.4083 189.223 23.6643 189.223 21.1043V21.0723C189.223 18.6883 190.903 16.7683 193.191 16.7683C195.639 16.7683 197.047 18.7203 197.047 21.1363C197.047 21.2963 197.047 21.3923 197.031 21.5363H190.471C190.647 23.3283 191.911 24.3363 193.383 24.3363C194.519 24.3363 195.319 23.8723 195.991 23.1683L196.759 23.8563C195.927 24.7843 194.919 25.4083 193.351 25.4083ZM190.471 20.6243H195.799C195.671 19.1203 194.807 17.8083 193.159 17.8083C191.719 17.8083 190.631 19.0083 190.471 20.6243ZM208.049 25.3763C206.273 25.3763 204.817 24.7843 203.473 23.5843L204.257 22.6563C205.425 23.7123 206.545 24.2403 208.097 24.2403C209.601 24.2403 210.593 23.4403 210.593 22.3363V22.3043C210.593 21.2643 210.033 20.6723 207.681 20.1763C205.105 19.6163 203.921 18.7843 203.921 16.9443V16.9123C203.921 15.1523 205.473 13.8563 207.601 13.8563C209.233 13.8563 210.401 14.3203 211.537 15.2323L210.801 16.2083C209.761 15.3603 208.721 14.9923 207.569 14.9923C206.113 14.9923 205.185 15.7923 205.185 16.8003V16.8323C205.185 17.8883 205.761 18.4803 208.225 19.0083C210.721 19.5523 211.873 20.4643 211.873 22.1763V22.2083C211.873 24.1283 210.273 25.3763 208.049 25.3763ZM216.699 25.3923C215.163 25.3923 213.611 24.5123 213.611 22.8163V22.7843C213.611 21.0403 215.051 20.1123 217.147 20.1123C218.203 20.1123 218.955 20.2563 219.691 20.4643V20.1763C219.691 18.6883 218.779 17.9203 217.227 17.9203C216.251 17.9203 215.483 18.1763 214.715 18.5283L214.347 17.5203C215.259 17.1043 216.155 16.8323 217.355 16.8323C218.523 16.8323 219.419 17.1363 220.027 17.7443C220.587 18.3043 220.875 19.1043 220.875 20.1603V25.2163H219.691V23.9683C219.115 24.7203 218.155 25.3923 216.699 25.3923ZM216.939 24.4163C218.459 24.4163 219.707 23.4883 219.707 22.1763V21.3763C219.099 21.2003 218.283 21.0243 217.275 21.0243C215.723 21.0243 214.859 21.6963 214.859 22.7363V22.7683C214.859 23.8083 215.819 24.4163 216.939 24.4163ZM226.725 23.8403L229.381 16.9443H230.693L227.221 25.4883C226.516 27.2003 225.717 27.8243 224.469 27.8243C223.781 27.8243 223.269 27.6803 222.709 27.4083L223.125 26.4323C223.525 26.6403 223.893 26.7363 224.421 26.7363C225.157 26.7363 225.621 26.3523 226.117 25.1843L222.357 16.9443H223.717L226.725 23.8403ZM237.647 25.2163V14.0163H245.695V15.1843H238.911V19.1843H244.975V20.3363H238.911V25.2163H237.647ZM247.939 25.2163V16.9443H249.171V19.1043C249.779 17.7283 250.979 16.7363 252.547 16.8003V18.1283H252.451C250.643 18.1283 249.171 19.4243 249.171 21.9203V25.2163H247.939ZM257.68 25.4083C255.408 25.4083 253.552 23.6643 253.552 21.1043V21.0723C253.552 18.6883 255.232 16.7683 257.52 16.7683C259.968 16.7683 261.376 18.7203 261.376 21.1363C261.376 21.2963 261.376 21.3923 261.36 21.5363H254.799C254.976 23.3283 256.24 24.3363 257.712 24.3363C258.848 24.3363 259.648 23.8723 260.32 23.1683L261.088 23.8563C260.256 24.7843 259.248 25.4083 257.68 25.4083ZM254.799 20.6243H260.128C260 19.1203 259.136 17.8083 257.488 17.8083C256.048 17.8083 254.96 19.0083 254.799 20.6243ZM267.148 25.4083C264.876 25.4083 263.02 23.6643 263.02 21.1043V21.0723C263.02 18.6883 264.7 16.7683 266.988 16.7683C269.436 16.7683 270.844 18.7203 270.844 21.1363C270.844 21.2963 270.844 21.3923 270.828 21.5363H264.268C264.444 23.3283 265.708 24.3363 267.18 24.3363C268.316 24.3363 269.116 23.8723 269.788 23.1683L270.556 23.8563C269.724 24.7843 268.716 25.4083 267.148 25.4083ZM264.268 20.6243H269.596C269.468 19.1203 268.604 17.8083 266.956 17.8083C265.516 17.8083 264.428 19.0083 264.268 20.6243ZM274.504 22.0483L274.264 19.4563L274.344 19.3763C276.424 19.3283 277.528 18.4643 277.528 17.1203V17.0883C277.528 15.9363 276.632 15.0083 275.192 15.0083C274.008 15.0083 273.096 15.5683 272.28 16.5123L271.464 15.7283C272.376 14.6243 273.512 13.8723 275.224 13.8723C277.384 13.8723 278.808 15.2163 278.808 17.0403V17.0723C278.808 19.0723 277.304 20.0643 275.48 20.3203L275.32 22.0483H274.504ZM274.168 25.2163V23.5363H275.64V25.2163H274.168ZM283.098 22.0483L282.858 19.4563L282.938 19.3763C285.018 19.3283 286.122 18.4643 286.122 17.1203V17.0883C286.122 15.9363 285.226 15.0083 283.786 15.0083C282.602 15.0083 281.69 15.5683 280.874 16.5123L280.058 15.7283C280.97 14.6243 282.106 13.8723 283.818 13.8723C285.978 13.8723 287.402 15.2163 287.402 17.0403V17.0723C287.402 19.0723 285.898 20.0643 284.074 20.3203L283.914 22.0483H283.098ZM282.762 25.2163V23.5363H284.234V25.2163H282.762ZM291.692 22.0483L291.452 19.4563L291.532 19.3763C293.612 19.3283 294.716 18.4643 294.716 17.1203V17.0883C294.716 15.9363 293.82 15.0083 292.38 15.0083C291.196 15.0083 290.284 15.5683 289.468 16.5123L288.652 15.7283C289.564 14.6243 290.7 13.8723 292.412 13.8723C294.572 13.8723 295.996 15.2163 295.996 17.0403V17.0723C295.996 19.0723 294.492 20.0643 292.668 20.3203L292.508 22.0483H291.692ZM291.356 25.2163V23.5363H292.828V25.2163H291.356Z"></path>
<defs>
<filter color-interpolation-filters="sRGB" filterUnits="userSpaceOnUse" height="18.2285" width="19.6055" y="9.9165" x="13.9541" id="filter0_i_4_994">
<feFlood result="BackgroundImageFix" flood-opacity="0"></feFlood>
<feBlend result="shape" in2="BackgroundImageFix" in="SourceGraphic" mode="normal"></feBlend>
<feColorMatrix result="hardAlpha" values="0 0 0 0 0 0 0 0 0 0 0 0 0 0 0 0 0 0 127 0" type="matrix" in="SourceAlpha"></feColorMatrix>
<feOffset dy="2" dx="3"></feOffset>
<feGaussianBlur stdDeviation="0.5"></feGaussianBlur>
<feComposite k3="1" k2="-1" operator="arithmetic" in2="hardAlpha"></feComposite>
<feColorMatrix values="0 0 0 0 0 0 0 0 0 0 0 0 0 0 0 0 0 0 0.25 0" type="matrix"></feColorMatrix>
<feBlend result="effect1_innerShadow_4_994" in2="shape" mode="normal"></feBlend>
</filter>
<filter color-interpolation-filters="sRGB" filterUnits="userSpaceOnUse" height="18.2285" width="19.6055" y="9.9165" x="37.2109" id="filter1_i_4_994">
<feFlood result="BackgroundImageFix" flood-opacity="0"></feFlood>
<feBlend result="shape" in2="BackgroundImageFix" in="SourceGraphic" mode="normal"></feBlend>
<feColorMatrix result="hardAlpha" values="0 0 0 0 0 0 0 0 0 0 0 0 0 0 0 0 0 0 127 0" type="matrix" in="SourceAlpha"></feColorMatrix>
<feOffset dy="2" dx="3"></feOffset>
<feGaussianBlur stdDeviation="0.5"></feGaussianBlur>
<feComposite k3="1" k2="-1" operator="arithmetic" in2="hardAlpha"></feComposite>
<feColorMatrix values="0 0 0 0 0 0 0 0 0 0 0 0 0 0 0 0 0 0 0.25 0" type="matrix"></feColorMatrix>
<feBlend result="effect1_innerShadow_4_994" in2="shape" mode="normal"></feBlend>
</filter>
<filter color-interpolation-filters="sRGB" filterUnits="userSpaceOnUse" height="18.2285" width="19.6055" y="9.9165" x="60.4678" id="filter2_i_4_994">
<feFlood result="BackgroundImageFix" flood-opacity="0"></feFlood>
<feBlend result="shape" in2="BackgroundImageFix" in="SourceGraphic" mode="normal"></feBlend>
<feColorMatrix result="hardAlpha" values="0 0 0 0 0 0 0 0 0 0 0 0 0 0 0 0 0 0 127 0" type="matrix" in="SourceAlpha"></feColorMatrix>
<feOffset dy="2" dx="3"></feOffset>
<feGaussianBlur stdDeviation="0.5"></feGaussianBlur>
<feComposite k3="1" k2="-1" operator="arithmetic" in2="hardAlpha"></feComposite>
<feColorMatrix values="0 0 0 0 0 0 0 0 0 0 0 0 0 0 0 0 0 0 0.25 0" type="matrix"></feColorMatrix>
<feBlend result="effect1_innerShadow_4_994" in2="shape" mode="normal"></feBlend>
</filter>
<linearGradient gradientUnits="userSpaceOnUse" y2="16.698" x2="404.374" y1="16.698" x1="57.8804" id="paint0_linear_4_994">
<stop stop-color="#01697D"></stop>
<stop stop-color="#02BFE3" offset="1"></stop>
</linearGradient>
</defs>
</svg>
