<svg xmlns="http://www.w3.org/2000/svg" fill="none" viewBox="0 0 896 461" height="461" width="896">
<rect fill="#FFE5AD" height="453.435" width="893" y="5.47217" x="1.5"></rect>
<rect stroke-width="3" stroke="black" height="453.435" width="893" y="5.47217" x="1.5"></rect>
<mask fill="black" height="51" width="801" y="69.9722" x="47.4652" maskUnits="userSpaceOnUse" id="path-2-outside-1_4_1336">
<rect height="51" width="801" y="69.9722" x="47.4652" fill="white"></rect>
<path d="M67.2529 116.191V100.699L51.4652 74.8H64.5329L73.0477 89.8781L81.6215 74.8H94.4527L78.7241 100.522V116.191H67.2529Z"></path>
<path d="M120.897 117.019C108.125 117.019 98.6644 107.499 98.6644 95.6138V95.4955C98.6644 83.6104 108.243 73.9722 121.015 73.9722C133.788 73.9722 143.248 83.4921 143.248 95.3772V95.4955C143.248 107.381 133.669 117.019 120.897 117.019ZM121.015 106.671C127.283 106.671 131.482 101.586 131.482 95.6138V95.4955C131.482 89.4642 127.224 84.3199 120.897 84.3199C114.57 84.3199 110.372 89.4051 110.372 95.3772V95.4955C110.372 101.468 114.689 106.671 121.015 106.671Z"></path>
<path d="M173.704 116.96C161.996 116.96 154.605 110.988 154.605 98.0381V74.8H166.194V97.8016C166.194 103.774 169.21 106.612 173.822 106.612C178.493 106.612 181.509 103.892 181.509 98.0972V74.8H193.098V97.7424C193.098 111.047 185.47 116.96 173.704 116.96Z"></path>
<path d="M204.144 96.0277L205.504 74.8H217.744V75.0956L210.235 96.0277H204.144Z"></path>
<path d="M241.998 116.487L225.264 74.8H238.037L247.438 100.995L256.899 74.8H269.435L252.642 116.487H241.998Z"></path>
<path d="M279.355 116.191V74.8H312.645V84.4973H290.708V90.8242H310.575V99.8711H290.708V106.435H312.94V116.191H279.355Z"></path>
<path d="M347.077 116.191V74.8H368.305C373.508 74.8 377.174 76.1008 379.598 78.4661C381.254 80.1808 382.259 82.3686 382.259 85.2069V85.3251C382.259 90.1147 379.539 92.9529 375.873 94.5494C380.899 96.205 384.092 99.0433 384.092 104.661V104.779C384.092 111.875 378.298 116.191 368.423 116.191H347.077ZM370.965 87.6903V87.5721C370.965 85.266 369.132 84.0243 365.762 84.0243H358.252V91.2973H365.466C368.955 91.2973 370.965 90.1147 370.965 87.6903ZM372.621 103.064C372.621 100.817 370.847 99.3389 367.004 99.3389H358.252V106.967H367.122C370.67 106.967 372.621 105.607 372.621 103.182V103.064Z"></path>
<path d="M395.259 116.191V74.8H428.549V84.4973H406.612V90.8242H426.479V99.8711H406.612V106.435H428.844V116.191H395.259Z"></path>
<path d="M440.669 116.191V74.8H473.959V84.4973H452.022V90.8242H471.889V99.8711H452.022V106.435H474.254V116.191H440.669Z"></path>
<path d="M486.079 116.191V74.8H496.781L513.811 96.6781V74.8H525.164V116.191H515.171L497.432 93.4851V116.191H486.079Z"></path>
<path d="M580.716 117.019C568.89 117.019 559.37 107.972 559.37 95.6138V95.4955C559.37 83.433 568.595 73.9722 581.13 73.9722C589.586 73.9722 595.026 77.52 598.692 82.546L590.059 89.2277C587.694 86.3303 584.973 84.379 581.012 84.379C575.217 84.379 571.137 89.346 571.137 95.3772V95.4955C571.137 101.704 575.217 106.553 581.012 106.553C585.328 106.553 587.871 104.542 590.354 101.527L598.987 107.676C595.085 113.057 589.822 117.019 580.716 117.019Z"></path>
<path d="M609.894 116.191V74.8H621.365V90.292H636.088V74.8H647.559V116.191H636.088V100.462H621.365V116.191H609.894Z"></path>
<path d="M681.662 117.019C668.89 117.019 659.429 107.499 659.429 95.6138V95.4955C659.429 83.6104 669.008 73.9722 681.78 73.9722C694.552 73.9722 704.013 83.4921 704.013 95.3772V95.4955C704.013 107.381 694.434 117.019 681.662 117.019ZM681.78 106.671C688.048 106.671 692.246 101.586 692.246 95.6138V95.4955C692.246 89.4642 687.989 84.3199 681.662 84.3199C675.335 84.3199 671.137 89.4051 671.137 95.3772V95.4955C671.137 101.468 675.453 106.671 681.78 106.671Z"></path>
<path d="M731.815 116.901C724.482 116.901 717.564 114.594 712.42 110.041L718.806 102.414C722.945 105.666 727.439 107.381 732.228 107.381C735.362 107.381 737.018 106.316 737.018 104.542V104.424C737.018 102.65 735.658 101.763 729.982 100.403C721.171 98.3929 714.371 95.9094 714.371 87.4538V87.3355C714.371 79.6486 720.462 74.0904 730.395 74.0904C737.432 74.0904 742.931 75.9826 747.425 79.5895L741.689 87.6903C737.905 84.9704 733.766 83.6104 730.1 83.6104C727.321 83.6104 725.961 84.7338 725.961 86.2712V86.3895C725.961 88.2816 727.38 89.1094 733.175 90.4103C742.635 92.4799 748.548 95.5546 748.548 103.301V103.419C748.548 111.875 741.867 116.901 731.815 116.901Z"></path>
<path d="M760.04 116.191V74.8H793.33V84.4973H771.393V90.8242H791.26V99.8711H771.393V106.435H793.626V116.191H760.04Z"></path>
<path d="M805.45 116.191V74.8H816.152L833.182 96.6781V74.8H844.535V116.191H834.542L816.803 93.4851V116.191H805.45Z"></path>
</mask>
<path fill="#FFCB3D" d="M67.2529 116.191V100.699L51.4652 74.8H64.5329L73.0477 89.8781L81.6215 74.8H94.4527L78.7241 100.522V116.191H67.2529Z"></path>
<path fill="#FFCB3D" d="M120.897 117.019C108.125 117.019 98.6644 107.499 98.6644 95.6138V95.4955C98.6644 83.6104 108.243 73.9722 121.015 73.9722C133.788 73.9722 143.248 83.4921 143.248 95.3772V95.4955C143.248 107.381 133.669 117.019 120.897 117.019ZM121.015 106.671C127.283 106.671 131.482 101.586 131.482 95.6138V95.4955C131.482 89.4642 127.224 84.3199 120.897 84.3199C114.57 84.3199 110.372 89.4051 110.372 95.3772V95.4955C110.372 101.468 114.689 106.671 121.015 106.671Z"></path>
<path fill="#FFCB3D" d="M173.704 116.96C161.996 116.96 154.605 110.988 154.605 98.0381V74.8H166.194V97.8016C166.194 103.774 169.21 106.612 173.822 106.612C178.493 106.612 181.509 103.892 181.509 98.0972V74.8H193.098V97.7424C193.098 111.047 185.47 116.96 173.704 116.96Z"></path>
<path fill="#FFCB3D" d="M204.144 96.0277L205.504 74.8H217.744V75.0956L210.235 96.0277H204.144Z"></path>
<path fill="#FFCB3D" d="M241.998 116.487L225.264 74.8H238.037L247.438 100.995L256.899 74.8H269.435L252.642 116.487H241.998Z"></path>
<path fill="#FFCB3D" d="M279.355 116.191V74.8H312.645V84.4973H290.708V90.8242H310.575V99.8711H290.708V106.435H312.94V116.191H279.355Z"></path>
<path fill="#FFCB3D" d="M347.077 116.191V74.8H368.305C373.508 74.8 377.174 76.1008 379.598 78.4661C381.254 80.1808 382.259 82.3686 382.259 85.2069V85.3251C382.259 90.1147 379.539 92.9529 375.873 94.5494C380.899 96.205 384.092 99.0433 384.092 104.661V104.779C384.092 111.875 378.298 116.191 368.423 116.191H347.077ZM370.965 87.6903V87.5721C370.965 85.266 369.132 84.0243 365.762 84.0243H358.252V91.2973H365.466C368.955 91.2973 370.965 90.1147 370.965 87.6903ZM372.621 103.064C372.621 100.817 370.847 99.3389 367.004 99.3389H358.252V106.967H367.122C370.67 106.967 372.621 105.607 372.621 103.182V103.064Z"></path>
<path fill="#FFCB3D" d="M395.259 116.191V74.8H428.549V84.4973H406.612V90.8242H426.479V99.8711H406.612V106.435H428.844V116.191H395.259Z"></path>
<path fill="#FFCB3D" d="M440.669 116.191V74.8H473.959V84.4973H452.022V90.8242H471.889V99.8711H452.022V106.435H474.254V116.191H440.669Z"></path>
<path fill="#FFCB3D" d="M486.079 116.191V74.8H496.781L513.811 96.6781V74.8H525.164V116.191H515.171L497.432 93.4851V116.191H486.079Z"></path>
<path fill="#FFCB3D" d="M580.716 117.019C568.89 117.019 559.37 107.972 559.37 95.6138V95.4955C559.37 83.433 568.595 73.9722 581.13 73.9722C589.586 73.9722 595.026 77.52 598.692 82.546L590.059 89.2277C587.694 86.3303 584.973 84.379 581.012 84.379C575.217 84.379 571.137 89.346 571.137 95.3772V95.4955C571.137 101.704 575.217 106.553 581.012 106.553C585.328 106.553 587.871 104.542 590.354 101.527L598.987 107.676C595.085 113.057 589.822 117.019 580.716 117.019Z"></path>
<path fill="#FFCB3D" d="M609.894 116.191V74.8H621.365V90.292H636.088V74.8H647.559V116.191H636.088V100.462H621.365V116.191H609.894Z"></path>
<path fill="#FFCB3D" d="M681.662 117.019C668.89 117.019 659.429 107.499 659.429 95.6138V95.4955C659.429 83.6104 669.008 73.9722 681.78 73.9722C694.552 73.9722 704.013 83.4921 704.013 95.3772V95.4955C704.013 107.381 694.434 117.019 681.662 117.019ZM681.78 106.671C688.048 106.671 692.246 101.586 692.246 95.6138V95.4955C692.246 89.4642 687.989 84.3199 681.662 84.3199C675.335 84.3199 671.137 89.4051 671.137 95.3772V95.4955C671.137 101.468 675.453 106.671 681.78 106.671Z"></path>
<path fill="#FFCB3D" d="M731.815 116.901C724.482 116.901 717.564 114.594 712.42 110.041L718.806 102.414C722.945 105.666 727.439 107.381 732.228 107.381C735.362 107.381 737.018 106.316 737.018 104.542V104.424C737.018 102.65 735.658 101.763 729.982 100.403C721.171 98.3929 714.371 95.9094 714.371 87.4538V87.3355C714.371 79.6486 720.462 74.0904 730.395 74.0904C737.432 74.0904 742.931 75.9826 747.425 79.5895L741.689 87.6903C737.905 84.9704 733.766 83.6104 730.1 83.6104C727.321 83.6104 725.961 84.7338 725.961 86.2712V86.3895C725.961 88.2816 727.38 89.1094 733.175 90.4103C742.635 92.4799 748.548 95.5546 748.548 103.301V103.419C748.548 111.875 741.867 116.901 731.815 116.901Z"></path>
<path fill="#FFCB3D" d="M760.04 116.191V74.8H793.33V84.4973H771.393V90.8242H791.26V99.8711H771.393V106.435H793.626V116.191H760.04Z"></path>
<path fill="#FFCB3D" d="M805.45 116.191V74.8H816.152L833.182 96.6781V74.8H844.535V116.191H834.542L816.803 93.4851V116.191H805.45Z"></path>
<path mask="url(#path-2-outside-1_4_1336)" stroke-linejoin="round" stroke-width="6.45792" stroke="#7523E3" d="M67.2529 116.191V100.699L51.4652 74.8H64.5329L73.0477 89.8781L81.6215 74.8H94.4527L78.7241 100.522V116.191H67.2529Z"></path>
<path mask="url(#path-2-outside-1_4_1336)" stroke-linejoin="round" stroke-width="6.45792" stroke="#7523E3" d="M120.897 117.019C108.125 117.019 98.6644 107.499 98.6644 95.6138V95.4955C98.6644 83.6104 108.243 73.9722 121.015 73.9722C133.788 73.9722 143.248 83.4921 143.248 95.3772V95.4955C143.248 107.381 133.669 117.019 120.897 117.019ZM121.015 106.671C127.283 106.671 131.482 101.586 131.482 95.6138V95.4955C131.482 89.4642 127.224 84.3199 120.897 84.3199C114.57 84.3199 110.372 89.4051 110.372 95.3772V95.4955C110.372 101.468 114.689 106.671 121.015 106.671Z"></path>
<path mask="url(#path-2-outside-1_4_1336)" stroke-linejoin="round" stroke-width="6.45792" stroke="#7523E3" d="M173.704 116.96C161.996 116.96 154.605 110.988 154.605 98.0381V74.8H166.194V97.8016C166.194 103.774 169.21 106.612 173.822 106.612C178.493 106.612 181.509 103.892 181.509 98.0972V74.8H193.098V97.7424C193.098 111.047 185.47 116.96 173.704 116.96Z"></path>
<path mask="url(#path-2-outside-1_4_1336)" stroke-linejoin="round" stroke-width="6.45792" stroke="#7523E3" d="M204.144 96.0277L205.504 74.8H217.744V75.0956L210.235 96.0277H204.144Z"></path>
<path mask="url(#path-2-outside-1_4_1336)" stroke-linejoin="round" stroke-width="6.45792" stroke="#7523E3" d="M241.998 116.487L225.264 74.8H238.037L247.438 100.995L256.899 74.8H269.435L252.642 116.487H241.998Z"></path>
<path mask="url(#path-2-outside-1_4_1336)" stroke-linejoin="round" stroke-width="6.45792" stroke="#7523E3" d="M279.355 116.191V74.8H312.645V84.4973H290.708V90.8242H310.575V99.8711H290.708V106.435H312.94V116.191H279.355Z"></path>
<path mask="url(#path-2-outside-1_4_1336)" stroke-linejoin="round" stroke-width="6.45792" stroke="#7523E3" d="M347.077 116.191V74.8H368.305C373.508 74.8 377.174 76.1008 379.598 78.4661C381.254 80.1808 382.259 82.3686 382.259 85.2069V85.3251C382.259 90.1147 379.539 92.9529 375.873 94.5494C380.899 96.205 384.092 99.0433 384.092 104.661V104.779C384.092 111.875 378.298 116.191 368.423 116.191H347.077ZM370.965 87.6903V87.5721C370.965 85.266 369.132 84.0243 365.762 84.0243H358.252V91.2973H365.466C368.955 91.2973 370.965 90.1147 370.965 87.6903ZM372.621 103.064C372.621 100.817 370.847 99.3389 367.004 99.3389H358.252V106.967H367.122C370.67 106.967 372.621 105.607 372.621 103.182V103.064Z"></path>
<path mask="url(#path-2-outside-1_4_1336)" stroke-linejoin="round" stroke-width="6.45792" stroke="#7523E3" d="M395.259 116.191V74.8H428.549V84.4973H406.612V90.8242H426.479V99.8711H406.612V106.435H428.844V116.191H395.259Z"></path>
<path mask="url(#path-2-outside-1_4_1336)" stroke-linejoin="round" stroke-width="6.45792" stroke="#7523E3" d="M440.669 116.191V74.8H473.959V84.4973H452.022V90.8242H471.889V99.8711H452.022V106.435H474.254V116.191H440.669Z"></path>
<path mask="url(#path-2-outside-1_4_1336)" stroke-linejoin="round" stroke-width="6.45792" stroke="#7523E3" d="M486.079 116.191V74.8H496.781L513.811 96.6781V74.8H525.164V116.191H515.171L497.432 93.4851V116.191H486.079Z"></path>
<path mask="url(#path-2-outside-1_4_1336)" stroke-linejoin="round" stroke-width="6.45792" stroke="#7523E3" d="M580.716 117.019C568.89 117.019 559.37 107.972 559.37 95.6138V95.4955C559.37 83.433 568.595 73.9722 581.13 73.9722C589.586 73.9722 595.026 77.52 598.692 82.546L590.059 89.2277C587.694 86.3303 584.973 84.379 581.012 84.379C575.217 84.379 571.137 89.346 571.137 95.3772V95.4955C571.137 101.704 575.217 106.553 581.012 106.553C585.328 106.553 587.871 104.542 590.354 101.527L598.987 107.676C595.085 113.057 589.822 117.019 580.716 117.019Z"></path>
<path mask="url(#path-2-outside-1_4_1336)" stroke-linejoin="round" stroke-width="6.45792" stroke="#7523E3" d="M609.894 116.191V74.8H621.365V90.292H636.088V74.8H647.559V116.191H636.088V100.462H621.365V116.191H609.894Z"></path>
<path mask="url(#path-2-outside-1_4_1336)" stroke-linejoin="round" stroke-width="6.45792" stroke="#7523E3" d="M681.662 117.019C668.89 117.019 659.429 107.499 659.429 95.6138V95.4955C659.429 83.6104 669.008 73.9722 681.78 73.9722C694.552 73.9722 704.013 83.4921 704.013 95.3772V95.4955C704.013 107.381 694.434 117.019 681.662 117.019ZM681.78 106.671C688.048 106.671 692.246 101.586 692.246 95.6138V95.4955C692.246 89.4642 687.989 84.3199 681.662 84.3199C675.335 84.3199 671.137 89.4051 671.137 95.3772V95.4955C671.137 101.468 675.453 106.671 681.78 106.671Z"></path>
<path mask="url(#path-2-outside-1_4_1336)" stroke-linejoin="round" stroke-width="6.45792" stroke="#7523E3" d="M731.815 116.901C724.482 116.901 717.564 114.594 712.42 110.041L718.806 102.414C722.945 105.666 727.439 107.381 732.228 107.381C735.362 107.381 737.018 106.316 737.018 104.542V104.424C737.018 102.65 735.658 101.763 729.982 100.403C721.171 98.3929 714.371 95.9094 714.371 87.4538V87.3355C714.371 79.6486 720.462 74.0904 730.395 74.0904C737.432 74.0904 742.931 75.9826 747.425 79.5895L741.689 87.6903C737.905 84.9704 733.766 83.6104 730.1 83.6104C727.321 83.6104 725.961 84.7338 725.961 86.2712V86.3895C725.961 88.2816 727.38 89.1094 733.175 90.4103C742.635 92.4799 748.548 95.5546 748.548 103.301V103.419C748.548 111.875 741.867 116.901 731.815 116.901Z"></path>
<path mask="url(#path-2-outside-1_4_1336)" stroke-linejoin="round" stroke-width="6.45792" stroke="#7523E3" d="M760.04 116.191V74.8H793.33V84.4973H771.393V90.8242H791.26V99.8711H771.393V106.435H793.626V116.191H760.04Z"></path>
<path mask="url(#path-2-outside-1_4_1336)" stroke-linejoin="round" stroke-width="6.45792" stroke="#7523E3" d="M805.45 116.191V74.8H816.152L833.182 96.6781V74.8H844.535V116.191H834.542L816.803 93.4851V116.191H805.45Z"></path>
<rect fill="#FFEDDF" height="293.389" width="750.233" y="137.019" x="72.8838"></rect>
<rect stroke-dasharray="0.5 12" stroke-linecap="round" stroke-width="4" stroke="#7523E3" height="293.389" width="750.233" y="137.019" x="72.8838"></rect>
<mask fill="white" id="path-4-inside-2_4_1336">
<path d="M0 0H896V46H0V0Z"></path>
</mask>
<path fill="url(#paint0_linear_4_1336)" d="M0 0H896V46H0V0Z"></path>
<path mask="url(#path-4-inside-2_4_1336)" fill="black" d="M0 0V-3H-3V0H0ZM896 0H899V-3H896V0ZM0 3H896V-3H0V3ZM893 0V46H899V0H893ZM3 46V0H-3V46H3Z"></path>
<g filter="url(#filter0_i_4_1336)">
<rect fill-opacity="0.8" fill="#D9D9D9" height="29" width="29" y="9.97217" x="21"></rect>
</g>
<g filter="url(#filter1_i_4_1336)">
<rect fill-opacity="0.8" fill="#D9D9D9" height="29" width="29" y="9.97217" x="58"></rect>
</g>
<path fill="#D9D9D9" d="M104.544 30.9722V20.9402H100.784V19.7722H109.584V20.9402H105.824V30.9722H104.544ZM116.393 31.1642C112.985 31.1642 110.697 28.4922 110.697 25.4042V25.3722C110.697 22.2842 113.017 19.5802 116.425 19.5802C119.833 19.5802 122.121 22.2522 122.121 25.3402V25.3722C122.121 28.4602 119.801 31.1642 116.393 31.1642ZM116.425 29.9962C118.985 29.9962 120.809 27.9482 120.809 25.4042V25.3722C120.809 22.8282 118.953 20.7482 116.393 20.7482C113.833 20.7482 112.009 22.7962 112.009 25.3402V25.3722C112.009 27.9162 113.865 29.9962 116.425 29.9962ZM126.982 30.9722V20.9402H123.222V19.7722H132.022V20.9402H128.262V30.9722H126.982ZM134.397 30.9722V19.7722H142.493V20.9242H135.661V24.7482H141.773V25.9002H135.661V29.8202H142.573V30.9722H134.397ZM148.955 31.1322C147.179 31.1322 145.723 30.5402 144.379 29.3402L145.163 28.4122C146.331 29.4682 147.451 29.9962 149.003 29.9962C150.507 29.9962 151.499 29.1962 151.499 28.0922V28.0602C151.499 27.0202 150.939 26.4282 148.587 25.9322C146.011 25.3722 144.827 24.5402 144.827 22.7002V22.6682C144.827 20.9082 146.379 19.6122 148.507 19.6122C150.139 19.6122 151.307 20.0762 152.443 20.9882L151.707 21.9642C150.667 21.1162 149.627 20.7482 148.475 20.7482C147.019 20.7482 146.091 21.5482 146.091 22.5562V22.5882C146.091 23.6442 146.667 24.2362 149.131 24.7642C151.627 25.3082 152.779 26.2202 152.779 27.9322V27.9642C152.779 29.8842 151.179 31.1322 148.955 31.1322ZM160.147 30.9722V19.7722H161.427L165.507 25.8842L169.587 19.7722H170.867V30.9722H169.603V21.9002L165.523 27.9002H165.459L161.379 21.9162V30.9722H160.147ZM179.157 31.1642C175.925 31.1642 173.541 28.6202 173.541 25.4042V25.3722C173.541 22.2042 175.909 19.5802 179.205 19.5802C181.237 19.5802 182.453 20.3002 183.573 21.3562L182.709 22.2842C181.765 21.3882 180.709 20.7482 179.189 20.7482C176.709 20.7482 174.853 22.7642 174.853 25.3402V25.3722C174.853 27.9642 176.725 29.9962 179.189 29.9962C180.725 29.9962 181.733 29.4042 182.805 28.3802L183.637 29.1962C182.469 30.3802 181.189 31.1642 179.157 31.1642ZM190.737 31.1642C187.217 31.1642 185.041 28.6042 185.041 25.4042V25.3722C185.041 22.3002 187.297 19.5802 190.657 19.5802C192.545 19.5802 193.713 20.1242 194.833 21.0682L194.017 22.0282C193.153 21.2762 192.193 20.7482 190.609 20.7482C188.129 20.7482 186.353 22.8442 186.353 25.3402V25.3722C186.353 28.0442 188.065 30.0282 190.785 30.0282C192.065 30.0282 193.249 29.5322 194.017 28.9082V26.1242H190.609V24.9882H195.233V29.4522C194.193 30.3802 192.625 31.1642 190.737 31.1642ZM203.284 31.1642C199.876 31.1642 197.588 28.4922 197.588 25.4042V25.3722C197.588 22.2842 199.908 19.5802 203.316 19.5802C206.724 19.5802 209.012 22.2522 209.012 25.3402V25.3722C209.012 28.4602 206.692 31.1642 203.284 31.1642ZM203.316 29.9962C205.876 29.9962 207.7 27.9482 207.7 25.4042V25.3722C207.7 22.8282 205.844 20.7482 203.284 20.7482C200.724 20.7482 198.9 22.7962 198.9 25.3402V25.3722C198.9 27.9162 200.756 29.9962 203.316 29.9962ZM210.062 30.9722L215.166 19.6922H216.35L221.454 30.9722H220.094L218.782 28.0122H212.686L211.358 30.9722H210.062ZM213.182 26.8602H218.286L215.742 21.1642L213.182 26.8602ZM225.185 30.9722V20.9402H221.425V19.7722H230.225V20.9402H226.465V30.9722H225.185ZM236.205 31.1322C234.429 31.1322 232.973 30.5402 231.629 29.3402L232.413 28.4122C233.581 29.4682 234.701 29.9962 236.253 29.9962C237.757 29.9962 238.749 29.1962 238.749 28.0922V28.0602C238.749 27.0202 238.189 26.4282 235.837 25.9322C233.261 25.3722 232.077 24.5402 232.077 22.7002V22.6682C232.077 20.9082 233.629 19.6122 235.757 19.6122C237.389 19.6122 238.557 20.0762 239.693 20.9882L238.957 21.9642C237.917 21.1162 236.877 20.7482 235.725 20.7482C234.269 20.7482 233.341 21.5482 233.341 22.5562V22.5882C233.341 23.6442 233.917 24.2362 236.381 24.7642C238.877 25.3082 240.029 26.2202 240.029 27.9322V27.9642C240.029 29.8842 238.429 31.1322 236.205 31.1322Z"></path>
<defs>
<filter color-interpolation-filters="sRGB" filterUnits="userSpaceOnUse" height="30" width="30" y="9.97217" x="21" id="filter0_i_4_1336">
<feFlood result="BackgroundImageFix" flood-opacity="0"></feFlood>
<feBlend result="shape" in2="BackgroundImageFix" in="SourceGraphic" mode="normal"></feBlend>
<feColorMatrix result="hardAlpha" values="0 0 0 0 0 0 0 0 0 0 0 0 0 0 0 0 0 0 127 0" type="matrix" in="SourceAlpha"></feColorMatrix>
<feOffset dy="2" dx="3"></feOffset>
<feGaussianBlur stdDeviation="0.5"></feGaussianBlur>
<feComposite k3="1" k2="-1" operator="arithmetic" in2="hardAlpha"></feComposite>
<feColorMatrix values="0 0 0 0 0 0 0 0 0 0 0 0 0 0 0 0 0 0 0.25 0" type="matrix"></feColorMatrix>
<feBlend result="effect1_innerShadow_4_1336" in2="shape" mode="normal"></feBlend>
</filter>
<filter color-interpolation-filters="sRGB" filterUnits="userSpaceOnUse" height="30" width="30" y="9.97217" x="58" id="filter1_i_4_1336">
<feFlood result="BackgroundImageFix" flood-opacity="0"></feFlood>
<feBlend result="shape" in2="BackgroundImageFix" in="SourceGraphic" mode="normal"></feBlend>
<feColorMatrix result="hardAlpha" values="0 0 0 0 0 0 0 0 0 0 0 0 0 0 0 0 0 0 127 0" type="matrix" in="SourceAlpha"></feColorMatrix>
<feOffset dy="2" dx="3"></feOffset>
<feGaussianBlur stdDeviation="0.5"></feGaussianBlur>
<feComposite k3="1" k2="-1" operator="arithmetic" in2="hardAlpha"></feComposite>
<feColorMatrix values="0 0 0 0 0 0 0 0 0 0 0 0 0 0 0 0 0 0 0.25 0" type="matrix"></feColorMatrix>
<feBlend result="effect1_innerShadow_4_1336" in2="shape" mode="normal"></feBlend>
</filter>
<linearGradient gradientUnits="userSpaceOnUse" y2="22.455" x2="1162.62" y1="22.455" x1="166.413" id="paint0_linear_4_1336">
<stop stop-color="#01697D"></stop>
<stop stop-color="#02BFE3" offset="1"></stop>
</linearGradient>
</defs>
</svg>
