<svg xmlns="http://www.w3.org/2000/svg" fill="none" viewBox="0 0 572 143" height="143" width="572">
<g filter="url(#filter0_d_2_55)">
<mask fill="black" height="138" width="567" y="-0.391617" x="5.03516" maskUnits="userSpaceOnUse" id="path-1-outside-1_2_55">
<rect height="138" width="567" y="-0.391617" x="5.03516" fill="white"></rect>
<path d="M67.449 54.5615L66.6916 11.1681L78.7177 10.9581L79.4752 54.3515L67.449 54.5615Z"></path>
<path d="M103.177 54.6199C96.1098 54.7433 91.9023 51.7163 91.7627 43.7195L91.5236 30.0196L87.5562 30.0888L87.3917 20.6662L91.3591 20.597L91.2109 12.1043L102.927 11.8998L103.075 20.3925L110.886 20.2561L111.051 29.6787L103.24 29.8151L103.439 41.2213C103.48 43.577 104.551 44.5504 106.721 44.5125C108.271 44.4855 109.751 44.0256 111.165 43.3188L111.325 52.4934C109.238 53.708 106.462 54.5626 103.177 54.6199Z"></path>
<path d="M119.129 32.7002L118.12 28.1911C122.265 27.6227 124.4 25.6011 124.218 22.2558L119.444 22.3391L119.233 10.2509L131.446 10.0378L131.618 19.8943C131.778 29.0689 126.874 32.317 119.129 32.7002Z"></path>
<path d="M153.811 53.7981C148.17 53.8966 142.562 52.3202 137.916 49.0528L142.194 41.909C146.082 44.3836 150.258 45.6129 153.73 45.5523C155.775 45.5166 156.756 44.8794 156.736 43.7015L156.734 43.5776C156.71 42.2138 154.778 41.6894 151.228 40.7592C144.564 39.1393 139.256 36.9996 139.139 30.3046L139.137 30.1806C139.013 23.0517 144.646 18.9848 152.395 18.8495C157.293 18.764 162.401 20.1011 166.287 22.5136L162.388 30.0228C158.882 28.0997 155.08 26.9879 152.414 27.0344C150.616 27.0658 149.698 27.7639 149.716 28.7558L149.718 28.8798C149.741 30.1816 151.735 30.7668 155.225 31.7601C161.891 33.504 167.2 35.7057 167.313 42.2147L167.316 42.3387C167.444 49.7156 161.994 53.6553 153.811 53.7981Z"></path>
<path d="M205.327 52.8989C198.942 53.0104 194.041 49.3753 193.926 42.7423L193.923 42.6184C193.801 35.6134 199.009 31.988 206.881 31.8506C209.981 31.7965 213.028 32.3014 214.963 33.0117L214.953 32.4538C214.892 28.9203 212.687 26.9745 208.162 27.0535C204.628 27.1152 201.914 27.9067 198.896 29.0755L196.334 20.873C200.089 19.2572 204.1 18.133 209.865 18.0324C215.878 17.9274 219.994 19.2818 222.706 21.9009C225.291 24.3361 226.406 27.7892 226.488 32.5005L226.824 51.7795L215.232 51.9819L215.17 48.4484C212.859 51.0312 209.728 52.8221 205.327 52.8989ZM209.413 45.4485C212.885 45.3879 215.264 43.176 215.206 39.8285L215.179 38.2787C213.93 37.8044 212.25 37.4617 210.514 37.492C207.105 37.5515 205.149 39.1979 205.194 41.7395L205.196 41.8635C205.236 44.1572 206.996 45.4907 209.413 45.4485Z"></path>
<path d="M256.888 51.2548L256.131 7.86139L278.385 7.47293C283.841 7.37771 287.708 8.67442 290.293 11.1097C292.06 12.8771 293.154 15.1524 293.206 18.1279L293.208 18.2519C293.295 23.2731 290.496 26.2984 286.682 28.0393C291.981 29.683 295.381 32.6002 295.483 38.4893L295.486 38.6132C295.615 46.0521 289.619 50.6835 279.267 50.8642L256.888 51.2548ZM281.411 20.9382L281.409 20.8142C281.367 18.3966 279.422 17.1283 275.889 17.19L268.016 17.3274L268.149 24.9522L275.712 24.8202C279.369 24.7564 281.455 23.4798 281.411 20.9382ZM283.428 37.0254C283.387 34.6698 281.5 33.1525 277.471 33.2228L268.296 33.383L268.436 41.3797L277.734 41.2174C281.454 41.1525 283.475 39.691 283.43 37.1494L283.428 37.0254Z"></path>
<path d="M313.241 51.0153C306.856 51.1267 301.956 47.4917 301.84 40.8587L301.838 40.7347C301.716 33.7298 306.923 30.1043 314.796 29.9669C317.895 29.9128 320.943 30.4177 322.877 31.128L322.868 30.5701C322.806 27.0367 320.602 25.0908 316.076 25.1698C312.543 25.2315 309.828 26.023 306.81 27.1919L304.249 18.9893C308.003 17.3735 312.014 16.2494 317.779 16.1487C323.792 16.0438 327.909 17.3981 330.621 20.0172C333.206 22.4525 334.32 25.9056 334.402 30.6168L334.739 49.8959L323.147 50.0982L323.085 46.5648C320.774 49.1475 317.642 50.9384 313.241 51.0153ZM317.328 43.5648C320.799 43.5042 323.179 41.2923 323.12 37.9448L323.093 36.3951C321.845 35.9208 320.165 35.5781 318.429 35.6084C315.019 35.6679 313.064 37.3143 313.108 39.8559L313.11 39.9799C313.15 42.2735 314.91 43.607 317.328 43.5648Z"></path>
<path d="M360.084 50.2596C349.918 50.4371 342.402 42.631 342.237 33.1465L342.235 33.0225C342.069 23.5379 349.244 15.4135 359.845 15.2285C366.726 15.1083 371.365 18.0038 374.294 22.4174L366.464 28.507C364.752 26.3665 362.93 25.0341 360.141 25.0828C356.297 25.1499 353.567 28.608 353.639 32.6994L353.641 32.8234C353.717 37.1627 356.502 40.4006 360.469 40.3314C363.32 40.2816 365.096 38.9484 366.855 36.7474L374.828 42.3131C371.808 46.9545 367.399 50.1319 360.084 50.2596Z"></path>
<path d="M382.222 49.0671L381.432 3.81397L393.21 3.60838L393.61 26.5449L402.527 15.1655L415.855 14.9329L404.434 28.5263L416.75 48.4644L403.732 48.6916L396.837 37.3402L393.861 40.9267L394 48.8615L382.222 49.0671Z"></path>
<path d="M456.305 48.4561C449.238 48.5794 445.031 45.5524 444.891 37.5556L444.652 23.8557L440.684 23.9249L440.52 14.5024L444.487 14.4331L444.339 5.94041L456.055 5.7359L456.204 14.2286L464.014 14.0923L464.179 23.5148L456.368 23.6512L456.567 35.0574C456.608 37.4131 457.679 38.3865 459.849 38.3487C461.399 38.3216 462.879 37.8617 464.293 37.1549L464.453 46.3295C462.366 47.5441 459.59 48.3987 456.305 48.4561Z"></path>
<path d="M488.977 48.0098C478.315 48.1959 470.428 40.4583 470.262 30.9118L470.26 30.7878C470.093 21.2413 477.764 13.1082 488.489 12.921C499.213 12.7338 507.099 20.4713 507.266 30.0179L507.268 30.1418C507.435 39.6884 499.763 47.8215 488.977 48.0098ZM488.927 38.0271C493.204 37.9525 495.934 34.4943 495.864 30.4649L495.862 30.3409C495.789 26.1876 492.691 22.7691 488.538 22.8416C484.26 22.9163 481.592 26.3734 481.664 30.4647L481.666 30.5887C481.737 34.6801 484.773 38.0996 488.927 38.0271Z"></path>
<path d="M29.4936 129.979C21.8067 130.114 14.5117 127.822 9.03516 123.143L15.5906 115.03C19.9894 118.363 24.7321 120.079 29.7533 119.991C33.0388 119.934 34.7551 118.788 34.7226 116.928L34.7204 116.804C34.688 114.944 33.246 114.039 27.27 112.718C17.9966 110.771 10.8222 108.292 10.6675 99.4273L10.6653 99.3033C10.5247 91.2445 16.808 85.3059 27.2224 85.1242C34.5993 84.9954 40.399 86.8785 45.1763 90.5777L39.3115 99.1753C35.2943 96.393 30.9301 95.043 27.0867 95.1101C24.1731 95.1609 22.7679 96.3636 22.796 97.9754L22.7982 98.0993C22.8328 100.083 24.3357 100.925 30.4346 102.183C40.391 104.179 46.6463 107.295 46.788 115.415L46.7902 115.539C46.9449 124.404 40.032 129.795 29.4936 129.979Z"></path>
<path d="M71.5456 129.307C61.3791 129.485 53.8637 121.679 53.6982 112.194L53.696 112.07C53.5305 102.586 60.7058 94.4612 71.3062 94.2762C78.1871 94.1561 82.8263 97.0516 85.7558 101.465L77.9249 107.555C76.2133 105.414 74.3918 104.082 71.6022 104.131C67.7588 104.198 65.0287 107.656 65.1001 111.747L65.1023 111.871C65.178 116.21 67.963 119.448 71.9304 119.379C74.7819 119.329 76.5569 117.996 78.3168 115.795L86.2891 121.361C83.2697 126.002 78.8605 129.18 71.5456 129.307Z"></path>
<path d="M93.683 128.115L92.8931 82.8617L104.671 82.6561L104.956 98.9596C107.077 96.1322 110.132 93.5365 114.905 93.4532C122.034 93.3287 126.394 97.9653 126.527 105.59L126.91 127.535L115.194 127.739L114.877 109.576C114.812 105.857 112.855 103.907 110.004 103.956C107.152 104.006 105.079 106.027 105.144 109.746L105.461 127.909L93.683 128.115Z"></path>
<path d="M153.195 127.882C142.533 128.068 134.646 120.331 134.48 110.784L134.477 110.66C134.311 101.114 141.982 92.9805 152.706 92.7933C163.431 92.6061 171.317 100.344 171.484 109.89L171.486 110.014C171.652 119.561 163.981 127.694 153.195 127.882ZM153.145 117.9C157.422 117.825 160.152 114.367 160.082 110.337L160.08 110.213C160.007 106.06 156.909 102.641 152.756 102.714C148.478 102.789 145.81 106.246 145.882 110.337L145.884 110.461C145.955 114.552 148.991 117.972 153.145 117.9Z"></path>
<path d="M196.976 127.118C186.313 127.304 178.427 119.567 178.26 110.02L178.258 109.896C178.092 100.349 185.763 92.2163 196.487 92.0291C207.212 91.8419 215.098 99.5795 215.264 109.126L215.267 109.25C215.433 118.797 207.762 126.93 196.976 127.118ZM196.925 117.135C201.203 117.061 203.933 113.602 203.863 109.573L203.86 109.449C203.788 105.296 200.69 101.877 196.536 101.95C192.259 102.024 189.591 105.482 189.662 109.573L189.665 109.697C189.736 113.788 192.772 117.208 196.925 117.135Z"></path>
<path d="M223.943 125.841L223.153 80.588L234.869 80.3835L235.659 125.637L223.943 125.841Z"></path>
<path d="M266.352 125.101L265.595 81.7075L284.254 81.3818C295.164 81.1913 302.33 86.7091 302.496 96.2557L302.499 96.3796C302.678 106.67 294.9 112.201 284.175 112.388L278.162 112.493L278.378 124.891L266.352 125.101ZM277.998 103.07L283.763 102.97C287.978 102.896 290.604 100.556 290.544 97.1464L290.542 97.0224C290.477 93.303 287.778 91.4278 283.501 91.5025L277.797 91.602L277.998 103.07Z"></path>
<path d="M327.301 124.843C316.639 125.029 308.753 117.292 308.586 107.745L308.584 107.621C308.417 98.0746 316.088 89.9415 326.813 89.7543C337.537 89.5671 345.423 97.3046 345.59 106.851L345.592 106.975C345.759 116.522 338.088 124.655 327.301 124.843ZM327.251 114.86C331.528 114.786 334.258 111.328 334.188 107.298L334.186 107.174C334.113 103.021 331.015 99.6025 326.862 99.6749C322.584 99.7496 319.916 103.207 319.988 107.298L319.99 107.422C320.061 111.513 323.098 114.933 327.251 114.86Z"></path>
<path d="M354.132 133.49L353.373 90.0348L365.151 89.8292L365.229 94.2925C367.474 91.4629 370.284 88.9955 375.305 88.9079C383.302 88.7683 390.298 95.2812 390.486 106.006L390.488 106.13C390.678 117.04 383.913 123.793 375.978 123.931C370.895 124.02 367.879 121.778 365.665 119.275L365.91 133.285L354.132 133.49ZM372.211 114.138C375.992 114.072 379.038 110.918 378.959 106.393L378.956 106.269C378.878 101.805 375.724 98.698 371.942 98.764C368.099 98.8311 365.117 102.046 365.194 106.509L365.197 106.633C365.275 111.096 368.367 114.205 372.211 114.138Z"></path>
<path d="M465.764 116.163L459.807 123.026L454.959 118.832C451.283 121.377 446.781 122.82 441.822 122.906C428.432 123.14 418.339 113.333 418.122 100.872L418.12 100.748C417.902 88.2883 427.768 78.0086 441.158 77.7749C454.548 77.5411 464.641 87.3485 464.858 99.8086L464.861 99.9326C464.941 104.52 463.59 108.822 461.235 112.46L465.764 116.163ZM441.76 112.242C443.31 112.215 444.792 111.879 446.085 111.36L439.982 106.32L445.938 99.3947L451.922 104.685C452.394 103.313 452.617 101.883 452.59 100.333L452.588 100.209C452.478 93.9478 447.857 88.5096 441.224 88.6254C434.591 88.7412 430.285 94.2731 430.394 100.534L430.396 100.658C430.505 106.919 435.065 112.358 441.76 112.242Z"></path>
<path d="M485.093 122.027C477.964 122.151 473.541 117.454 473.408 109.829L473.026 87.9462L484.804 87.7407L485.121 105.904C485.185 109.561 487.142 111.511 489.993 111.462C492.845 111.412 494.918 109.391 494.854 105.734L494.537 87.5708L506.253 87.3663L506.838 120.903L495.122 121.108L495.041 116.458C492.92 119.286 489.866 121.944 485.093 122.027Z"></path>
<path d="M515.671 84.1634L515.52 75.4847L527.732 75.2716L527.884 83.9502L515.671 84.1634ZM516.558 120.734L515.972 87.1966L527.689 86.9921L528.274 120.529L516.558 120.734Z"></path>
<path d="M536.877 120.379L536.742 112.63L551.89 95.8711L537.012 96.1308L536.85 86.8322L567.349 86.2998L567.483 93.9867L552.211 110.748L567.771 110.476L567.934 119.837L536.877 120.379Z"></path>
</mask>
<path fill="white" d="M67.449 54.5615L66.6916 11.1681L78.7177 10.9581L79.4752 54.3515L67.449 54.5615Z"></path>
<path fill="white" d="M103.177 54.6199C96.1098 54.7433 91.9023 51.7163 91.7627 43.7195L91.5236 30.0196L87.5562 30.0888L87.3917 20.6662L91.3591 20.597L91.2109 12.1043L102.927 11.8998L103.075 20.3925L110.886 20.2561L111.051 29.6787L103.24 29.8151L103.439 41.2213C103.48 43.577 104.551 44.5504 106.721 44.5125C108.271 44.4855 109.751 44.0256 111.165 43.3188L111.325 52.4934C109.238 53.708 106.462 54.5626 103.177 54.6199Z"></path>
<path fill="white" d="M119.129 32.7002L118.12 28.1911C122.265 27.6227 124.4 25.6011 124.218 22.2558L119.444 22.3391L119.233 10.2509L131.446 10.0378L131.618 19.8943C131.778 29.0689 126.874 32.317 119.129 32.7002Z"></path>
<path fill="white" d="M153.811 53.7981C148.17 53.8966 142.562 52.3202 137.916 49.0528L142.194 41.909C146.082 44.3836 150.258 45.6129 153.73 45.5523C155.775 45.5166 156.756 44.8794 156.736 43.7015L156.734 43.5776C156.71 42.2138 154.778 41.6894 151.228 40.7592C144.564 39.1393 139.256 36.9996 139.139 30.3046L139.137 30.1806C139.013 23.0517 144.646 18.9848 152.395 18.8495C157.293 18.764 162.401 20.1011 166.287 22.5136L162.388 30.0228C158.882 28.0997 155.08 26.9879 152.414 27.0344C150.616 27.0658 149.698 27.7639 149.716 28.7558L149.718 28.8798C149.741 30.1816 151.735 30.7668 155.225 31.7601C161.891 33.504 167.2 35.7057 167.313 42.2147L167.316 42.3387C167.444 49.7156 161.994 53.6553 153.811 53.7981Z"></path>
<path fill="white" d="M205.327 52.8989C198.942 53.0104 194.041 49.3753 193.926 42.7423L193.923 42.6184C193.801 35.6134 199.009 31.988 206.881 31.8506C209.981 31.7965 213.028 32.3014 214.963 33.0117L214.953 32.4538C214.892 28.9203 212.687 26.9745 208.162 27.0535C204.628 27.1152 201.914 27.9067 198.896 29.0755L196.334 20.873C200.089 19.2572 204.1 18.133 209.865 18.0324C215.878 17.9274 219.994 19.2818 222.706 21.9009C225.291 24.3361 226.406 27.7892 226.488 32.5005L226.824 51.7795L215.232 51.9819L215.17 48.4484C212.859 51.0312 209.728 52.8221 205.327 52.8989ZM209.413 45.4485C212.885 45.3879 215.264 43.176 215.206 39.8285L215.179 38.2787C213.93 37.8044 212.25 37.4617 210.514 37.492C207.105 37.5515 205.149 39.1979 205.194 41.7395L205.196 41.8635C205.236 44.1572 206.996 45.4907 209.413 45.4485Z"></path>
<path fill="white" d="M256.888 51.2548L256.131 7.86139L278.385 7.47293C283.841 7.37771 287.708 8.67442 290.293 11.1097C292.06 12.8771 293.154 15.1524 293.206 18.1279L293.208 18.2519C293.295 23.2731 290.496 26.2984 286.682 28.0393C291.981 29.683 295.381 32.6002 295.483 38.4893L295.486 38.6132C295.615 46.0521 289.619 50.6835 279.267 50.8642L256.888 51.2548ZM281.411 20.9382L281.409 20.8142C281.367 18.3966 279.422 17.1283 275.889 17.19L268.016 17.3274L268.149 24.9522L275.712 24.8202C279.369 24.7564 281.455 23.4798 281.411 20.9382ZM283.428 37.0254C283.387 34.6698 281.5 33.1525 277.471 33.2228L268.296 33.383L268.436 41.3797L277.734 41.2174C281.454 41.1525 283.475 39.691 283.43 37.1494L283.428 37.0254Z"></path>
<path fill="white" d="M313.241 51.0153C306.856 51.1267 301.956 47.4917 301.84 40.8587L301.838 40.7347C301.716 33.7298 306.923 30.1043 314.796 29.9669C317.895 29.9128 320.943 30.4177 322.877 31.128L322.868 30.5701C322.806 27.0367 320.602 25.0908 316.076 25.1698C312.543 25.2315 309.828 26.023 306.81 27.1919L304.249 18.9893C308.003 17.3735 312.014 16.2494 317.779 16.1487C323.792 16.0438 327.909 17.3981 330.621 20.0172C333.206 22.4525 334.32 25.9056 334.402 30.6168L334.739 49.8959L323.147 50.0982L323.085 46.5648C320.774 49.1475 317.642 50.9384 313.241 51.0153ZM317.328 43.5648C320.799 43.5042 323.179 41.2923 323.12 37.9448L323.093 36.3951C321.845 35.9208 320.165 35.5781 318.429 35.6084C315.019 35.6679 313.064 37.3143 313.108 39.8559L313.11 39.9799C313.15 42.2735 314.91 43.607 317.328 43.5648Z"></path>
<path fill="white" d="M360.084 50.2596C349.918 50.4371 342.402 42.631 342.237 33.1465L342.235 33.0225C342.069 23.5379 349.244 15.4135 359.845 15.2285C366.726 15.1083 371.365 18.0038 374.294 22.4174L366.464 28.507C364.752 26.3665 362.93 25.0341 360.141 25.0828C356.297 25.1499 353.567 28.608 353.639 32.6994L353.641 32.8234C353.717 37.1627 356.502 40.4006 360.469 40.3314C363.32 40.2816 365.096 38.9484 366.855 36.7474L374.828 42.3131C371.808 46.9545 367.399 50.1319 360.084 50.2596Z"></path>
<path fill="white" d="M382.222 49.0671L381.432 3.81397L393.21 3.60838L393.61 26.5449L402.527 15.1655L415.855 14.9329L404.434 28.5263L416.75 48.4644L403.732 48.6916L396.837 37.3402L393.861 40.9267L394 48.8615L382.222 49.0671Z"></path>
<path fill="white" d="M456.305 48.4561C449.238 48.5794 445.031 45.5524 444.891 37.5556L444.652 23.8557L440.684 23.9249L440.52 14.5024L444.487 14.4331L444.339 5.94041L456.055 5.7359L456.204 14.2286L464.014 14.0923L464.179 23.5148L456.368 23.6512L456.567 35.0574C456.608 37.4131 457.679 38.3865 459.849 38.3487C461.399 38.3216 462.879 37.8617 464.293 37.1549L464.453 46.3295C462.366 47.5441 459.59 48.3987 456.305 48.4561Z"></path>
<path fill="white" d="M488.977 48.0098C478.315 48.1959 470.428 40.4583 470.262 30.9118L470.26 30.7878C470.093 21.2413 477.764 13.1082 488.489 12.921C499.213 12.7338 507.099 20.4713 507.266 30.0179L507.268 30.1418C507.435 39.6884 499.763 47.8215 488.977 48.0098ZM488.927 38.0271C493.204 37.9525 495.934 34.4943 495.864 30.4649L495.862 30.3409C495.789 26.1876 492.691 22.7691 488.538 22.8416C484.26 22.9163 481.592 26.3734 481.664 30.4647L481.666 30.5887C481.737 34.6801 484.773 38.0996 488.927 38.0271Z"></path>
<path fill="white" d="M29.4936 129.979C21.8067 130.114 14.5117 127.822 9.03516 123.143L15.5906 115.03C19.9894 118.363 24.7321 120.079 29.7533 119.991C33.0388 119.934 34.7551 118.788 34.7226 116.928L34.7204 116.804C34.688 114.944 33.246 114.039 27.27 112.718C17.9966 110.771 10.8222 108.292 10.6675 99.4273L10.6653 99.3033C10.5247 91.2445 16.808 85.3059 27.2224 85.1242C34.5993 84.9954 40.399 86.8785 45.1763 90.5777L39.3115 99.1753C35.2943 96.393 30.9301 95.043 27.0867 95.1101C24.1731 95.1609 22.7679 96.3636 22.796 97.9754L22.7982 98.0993C22.8328 100.083 24.3357 100.925 30.4346 102.183C40.391 104.179 46.6463 107.295 46.788 115.415L46.7902 115.539C46.9449 124.404 40.032 129.795 29.4936 129.979Z"></path>
<path fill="white" d="M71.5456 129.307C61.3791 129.485 53.8637 121.679 53.6982 112.194L53.696 112.07C53.5305 102.586 60.7058 94.4612 71.3062 94.2762C78.1871 94.1561 82.8263 97.0516 85.7558 101.465L77.9249 107.555C76.2133 105.414 74.3918 104.082 71.6022 104.131C67.7588 104.198 65.0287 107.656 65.1001 111.747L65.1023 111.871C65.178 116.21 67.963 119.448 71.9304 119.379C74.7819 119.329 76.5569 117.996 78.3168 115.795L86.2891 121.361C83.2697 126.002 78.8605 129.18 71.5456 129.307Z"></path>
<path fill="white" d="M93.683 128.115L92.8931 82.8617L104.671 82.6561L104.956 98.9596C107.077 96.1322 110.132 93.5365 114.905 93.4532C122.034 93.3287 126.394 97.9653 126.527 105.59L126.91 127.535L115.194 127.739L114.877 109.576C114.812 105.857 112.855 103.907 110.004 103.956C107.152 104.006 105.079 106.027 105.144 109.746L105.461 127.909L93.683 128.115Z"></path>
<path fill="white" d="M153.195 127.882C142.533 128.068 134.646 120.331 134.48 110.784L134.477 110.66C134.311 101.114 141.982 92.9805 152.706 92.7933C163.431 92.6061 171.317 100.344 171.484 109.89L171.486 110.014C171.652 119.561 163.981 127.694 153.195 127.882ZM153.145 117.9C157.422 117.825 160.152 114.367 160.082 110.337L160.08 110.213C160.007 106.06 156.909 102.641 152.756 102.714C148.478 102.789 145.81 106.246 145.882 110.337L145.884 110.461C145.955 114.552 148.991 117.972 153.145 117.9Z"></path>
<path fill="white" d="M196.976 127.118C186.313 127.304 178.427 119.567 178.26 110.02L178.258 109.896C178.092 100.349 185.763 92.2163 196.487 92.0291C207.212 91.8419 215.098 99.5795 215.264 109.126L215.267 109.25C215.433 118.797 207.762 126.93 196.976 127.118ZM196.925 117.135C201.203 117.061 203.933 113.602 203.863 109.573L203.86 109.449C203.788 105.296 200.69 101.877 196.536 101.95C192.259 102.024 189.591 105.482 189.662 109.573L189.665 109.697C189.736 113.788 192.772 117.208 196.925 117.135Z"></path>
<path fill="white" d="M223.943 125.841L223.153 80.588L234.869 80.3835L235.659 125.637L223.943 125.841Z"></path>
<path fill="white" d="M266.352 125.101L265.595 81.7075L284.254 81.3818C295.164 81.1913 302.33 86.7091 302.496 96.2557L302.499 96.3796C302.678 106.67 294.9 112.201 284.175 112.388L278.162 112.493L278.378 124.891L266.352 125.101ZM277.998 103.07L283.763 102.97C287.978 102.896 290.604 100.556 290.544 97.1464L290.542 97.0224C290.477 93.303 287.778 91.4278 283.501 91.5025L277.797 91.602L277.998 103.07Z"></path>
<path fill="white" d="M327.301 124.843C316.639 125.029 308.753 117.292 308.586 107.745L308.584 107.621C308.417 98.0746 316.088 89.9415 326.813 89.7543C337.537 89.5671 345.423 97.3046 345.59 106.851L345.592 106.975C345.759 116.522 338.088 124.655 327.301 124.843ZM327.251 114.86C331.528 114.786 334.258 111.328 334.188 107.298L334.186 107.174C334.113 103.021 331.015 99.6025 326.862 99.6749C322.584 99.7496 319.916 103.207 319.988 107.298L319.99 107.422C320.061 111.513 323.098 114.933 327.251 114.86Z"></path>
<path fill="white" d="M354.132 133.49L353.373 90.0348L365.151 89.8292L365.229 94.2925C367.474 91.4629 370.284 88.9955 375.305 88.9079C383.302 88.7683 390.298 95.2812 390.486 106.006L390.488 106.13C390.678 117.04 383.913 123.793 375.978 123.931C370.895 124.02 367.879 121.778 365.665 119.275L365.91 133.285L354.132 133.49ZM372.211 114.138C375.992 114.072 379.038 110.918 378.959 106.393L378.956 106.269C378.878 101.805 375.724 98.698 371.942 98.764C368.099 98.8311 365.117 102.046 365.194 106.509L365.197 106.633C365.275 111.096 368.367 114.205 372.211 114.138Z"></path>
<path fill="white" d="M465.764 116.163L459.807 123.026L454.959 118.832C451.283 121.377 446.781 122.82 441.822 122.906C428.432 123.14 418.339 113.333 418.122 100.872L418.12 100.748C417.902 88.2883 427.768 78.0086 441.158 77.7749C454.548 77.5411 464.641 87.3485 464.858 99.8086L464.861 99.9326C464.941 104.52 463.59 108.822 461.235 112.46L465.764 116.163ZM441.76 112.242C443.31 112.215 444.792 111.879 446.085 111.36L439.982 106.32L445.938 99.3947L451.922 104.685C452.394 103.313 452.617 101.883 452.59 100.333L452.588 100.209C452.478 93.9478 447.857 88.5096 441.224 88.6254C434.591 88.7412 430.285 94.2731 430.394 100.534L430.396 100.658C430.505 106.919 435.065 112.358 441.76 112.242Z"></path>
<path fill="white" d="M485.093 122.027C477.964 122.151 473.541 117.454 473.408 109.829L473.026 87.9462L484.804 87.7407L485.121 105.904C485.185 109.561 487.142 111.511 489.993 111.462C492.845 111.412 494.918 109.391 494.854 105.734L494.537 87.5708L506.253 87.3663L506.838 120.903L495.122 121.108L495.041 116.458C492.92 119.286 489.866 121.944 485.093 122.027Z"></path>
<path fill="white" d="M515.671 84.1634L515.52 75.4847L527.732 75.2716L527.884 83.9502L515.671 84.1634ZM516.558 120.734L515.972 87.1966L527.689 86.9921L528.274 120.529L516.558 120.734Z"></path>
<path fill="white" d="M536.877 120.379L536.742 112.63L551.89 95.8711L537.012 96.1308L536.85 86.8322L567.349 86.2998L567.483 93.9867L552.211 110.748L567.771 110.476L567.934 119.837L536.877 120.379Z"></path>
<path mask="url(#path-1-outside-1_2_55)" stroke-linejoin="round" stroke-width="6.47359" stroke="#7523E3" d="M67.449 54.5615L66.6916 11.1681L78.7177 10.9581L79.4752 54.3515L67.449 54.5615Z"></path>
<path mask="url(#path-1-outside-1_2_55)" stroke-linejoin="round" stroke-width="6.47359" stroke="#7523E3" d="M103.177 54.6199C96.1098 54.7433 91.9023 51.7163 91.7627 43.7195L91.5236 30.0196L87.5562 30.0888L87.3917 20.6662L91.3591 20.597L91.2109 12.1043L102.927 11.8998L103.075 20.3925L110.886 20.2561L111.051 29.6787L103.24 29.8151L103.439 41.2213C103.48 43.577 104.551 44.5504 106.721 44.5125C108.271 44.4855 109.751 44.0256 111.165 43.3188L111.325 52.4934C109.238 53.708 106.462 54.5626 103.177 54.6199Z"></path>
<path mask="url(#path-1-outside-1_2_55)" stroke-linejoin="round" stroke-width="6.47359" stroke="#7523E3" d="M119.129 32.7002L118.12 28.1911C122.265 27.6227 124.4 25.6011 124.218 22.2558L119.444 22.3391L119.233 10.2509L131.446 10.0378L131.618 19.8943C131.778 29.0689 126.874 32.317 119.129 32.7002Z"></path>
<path mask="url(#path-1-outside-1_2_55)" stroke-linejoin="round" stroke-width="6.47359" stroke="#7523E3" d="M153.811 53.7981C148.17 53.8966 142.562 52.3202 137.916 49.0528L142.194 41.909C146.082 44.3836 150.258 45.6129 153.73 45.5523C155.775 45.5166 156.756 44.8794 156.736 43.7015L156.734 43.5776C156.71 42.2138 154.778 41.6894 151.228 40.7592C144.564 39.1393 139.256 36.9996 139.139 30.3046L139.137 30.1806C139.013 23.0517 144.646 18.9848 152.395 18.8495C157.293 18.764 162.401 20.1011 166.287 22.5136L162.388 30.0228C158.882 28.0997 155.08 26.9879 152.414 27.0344C150.616 27.0658 149.698 27.7639 149.716 28.7558L149.718 28.8798C149.741 30.1816 151.735 30.7668 155.225 31.7601C161.891 33.504 167.2 35.7057 167.313 42.2147L167.316 42.3387C167.444 49.7156 161.994 53.6553 153.811 53.7981Z"></path>
<path mask="url(#path-1-outside-1_2_55)" stroke-linejoin="round" stroke-width="6.47359" stroke="#7523E3" d="M205.327 52.8989C198.942 53.0104 194.041 49.3753 193.926 42.7423L193.923 42.6184C193.801 35.6134 199.009 31.988 206.881 31.8506C209.981 31.7965 213.028 32.3014 214.963 33.0117L214.953 32.4538C214.892 28.9203 212.687 26.9745 208.162 27.0535C204.628 27.1152 201.914 27.9067 198.896 29.0755L196.334 20.873C200.089 19.2572 204.1 18.133 209.865 18.0324C215.878 17.9274 219.994 19.2818 222.706 21.9009C225.291 24.3361 226.406 27.7892 226.488 32.5005L226.824 51.7795L215.232 51.9819L215.17 48.4484C212.859 51.0312 209.728 52.8221 205.327 52.8989ZM209.413 45.4485C212.885 45.3879 215.264 43.176 215.206 39.8285L215.179 38.2787C213.93 37.8044 212.25 37.4617 210.514 37.492C207.105 37.5515 205.149 39.1979 205.194 41.7395L205.196 41.8635C205.236 44.1572 206.996 45.4907 209.413 45.4485Z"></path>
<path mask="url(#path-1-outside-1_2_55)" stroke-linejoin="round" stroke-width="6.47359" stroke="#7523E3" d="M256.888 51.2548L256.131 7.86139L278.385 7.47293C283.841 7.37771 287.708 8.67442 290.293 11.1097C292.06 12.8771 293.154 15.1524 293.206 18.1279L293.208 18.2519C293.295 23.2731 290.496 26.2984 286.682 28.0393C291.981 29.683 295.381 32.6002 295.483 38.4893L295.486 38.6132C295.615 46.0521 289.619 50.6835 279.267 50.8642L256.888 51.2548ZM281.411 20.9382L281.409 20.8142C281.367 18.3966 279.422 17.1283 275.889 17.19L268.016 17.3274L268.149 24.9522L275.712 24.8202C279.369 24.7564 281.455 23.4798 281.411 20.9382ZM283.428 37.0254C283.387 34.6698 281.5 33.1525 277.471 33.2228L268.296 33.383L268.436 41.3797L277.734 41.2174C281.454 41.1525 283.475 39.691 283.43 37.1494L283.428 37.0254Z"></path>
<path mask="url(#path-1-outside-1_2_55)" stroke-linejoin="round" stroke-width="6.47359" stroke="#7523E3" d="M313.241 51.0153C306.856 51.1267 301.956 47.4917 301.84 40.8587L301.838 40.7347C301.716 33.7298 306.923 30.1043 314.796 29.9669C317.895 29.9128 320.943 30.4177 322.877 31.128L322.868 30.5701C322.806 27.0367 320.602 25.0908 316.076 25.1698C312.543 25.2315 309.828 26.023 306.81 27.1919L304.249 18.9893C308.003 17.3735 312.014 16.2494 317.779 16.1487C323.792 16.0438 327.909 17.3981 330.621 20.0172C333.206 22.4525 334.32 25.9056 334.402 30.6168L334.739 49.8959L323.147 50.0982L323.085 46.5648C320.774 49.1475 317.642 50.9384 313.241 51.0153ZM317.328 43.5648C320.799 43.5042 323.179 41.2923 323.12 37.9448L323.093 36.3951C321.845 35.9208 320.165 35.5781 318.429 35.6084C315.019 35.6679 313.064 37.3143 313.108 39.8559L313.11 39.9799C313.15 42.2735 314.91 43.607 317.328 43.5648Z"></path>
<path mask="url(#path-1-outside-1_2_55)" stroke-linejoin="round" stroke-width="6.47359" stroke="#7523E3" d="M360.084 50.2596C349.918 50.4371 342.402 42.631 342.237 33.1465L342.235 33.0225C342.069 23.5379 349.244 15.4135 359.845 15.2285C366.726 15.1083 371.365 18.0038 374.294 22.4174L366.464 28.507C364.752 26.3665 362.93 25.0341 360.141 25.0828C356.297 25.1499 353.567 28.608 353.639 32.6994L353.641 32.8234C353.717 37.1627 356.502 40.4006 360.469 40.3314C363.32 40.2816 365.096 38.9484 366.855 36.7474L374.828 42.3131C371.808 46.9545 367.399 50.1319 360.084 50.2596Z"></path>
<path mask="url(#path-1-outside-1_2_55)" stroke-linejoin="round" stroke-width="6.47359" stroke="#7523E3" d="M382.222 49.0671L381.432 3.81397L393.21 3.60838L393.61 26.5449L402.527 15.1655L415.855 14.9329L404.434 28.5263L416.75 48.4644L403.732 48.6916L396.837 37.3402L393.861 40.9267L394 48.8615L382.222 49.0671Z"></path>
<path mask="url(#path-1-outside-1_2_55)" stroke-linejoin="round" stroke-width="6.47359" stroke="#7523E3" d="M456.305 48.4561C449.238 48.5794 445.031 45.5524 444.891 37.5556L444.652 23.8557L440.684 23.9249L440.52 14.5024L444.487 14.4331L444.339 5.94041L456.055 5.7359L456.204 14.2286L464.014 14.0923L464.179 23.5148L456.368 23.6512L456.567 35.0574C456.608 37.4131 457.679 38.3865 459.849 38.3487C461.399 38.3216 462.879 37.8617 464.293 37.1549L464.453 46.3295C462.366 47.5441 459.59 48.3987 456.305 48.4561Z"></path>
<path mask="url(#path-1-outside-1_2_55)" stroke-linejoin="round" stroke-width="6.47359" stroke="#7523E3" d="M488.977 48.0098C478.315 48.1959 470.428 40.4583 470.262 30.9118L470.26 30.7878C470.093 21.2413 477.764 13.1082 488.489 12.921C499.213 12.7338 507.099 20.4713 507.266 30.0179L507.268 30.1418C507.435 39.6884 499.763 47.8215 488.977 48.0098ZM488.927 38.0271C493.204 37.9525 495.934 34.4943 495.864 30.4649L495.862 30.3409C495.789 26.1876 492.691 22.7691 488.538 22.8416C484.26 22.9163 481.592 26.3734 481.664 30.4647L481.666 30.5887C481.737 34.6801 484.773 38.0996 488.927 38.0271Z"></path>
<path mask="url(#path-1-outside-1_2_55)" stroke-linejoin="round" stroke-width="6.47359" stroke="#7523E3" d="M29.4936 129.979C21.8067 130.114 14.5117 127.822 9.03516 123.143L15.5906 115.03C19.9894 118.363 24.7321 120.079 29.7533 119.991C33.0388 119.934 34.7551 118.788 34.7226 116.928L34.7204 116.804C34.688 114.944 33.246 114.039 27.27 112.718C17.9966 110.771 10.8222 108.292 10.6675 99.4273L10.6653 99.3033C10.5247 91.2445 16.808 85.3059 27.2224 85.1242C34.5993 84.9954 40.399 86.8785 45.1763 90.5777L39.3115 99.1753C35.2943 96.393 30.9301 95.043 27.0867 95.1101C24.1731 95.1609 22.7679 96.3636 22.796 97.9754L22.7982 98.0993C22.8328 100.083 24.3357 100.925 30.4346 102.183C40.391 104.179 46.6463 107.295 46.788 115.415L46.7902 115.539C46.9449 124.404 40.032 129.795 29.4936 129.979Z"></path>
<path mask="url(#path-1-outside-1_2_55)" stroke-linejoin="round" stroke-width="6.47359" stroke="#7523E3" d="M71.5456 129.307C61.3791 129.485 53.8637 121.679 53.6982 112.194L53.696 112.07C53.5305 102.586 60.7058 94.4612 71.3062 94.2762C78.1871 94.1561 82.8263 97.0516 85.7558 101.465L77.9249 107.555C76.2133 105.414 74.3918 104.082 71.6022 104.131C67.7588 104.198 65.0287 107.656 65.1001 111.747L65.1023 111.871C65.178 116.21 67.963 119.448 71.9304 119.379C74.7819 119.329 76.5569 117.996 78.3168 115.795L86.2891 121.361C83.2697 126.002 78.8605 129.18 71.5456 129.307Z"></path>
<path mask="url(#path-1-outside-1_2_55)" stroke-linejoin="round" stroke-width="6.47359" stroke="#7523E3" d="M93.683 128.115L92.8931 82.8617L104.671 82.6561L104.956 98.9596C107.077 96.1322 110.132 93.5365 114.905 93.4532C122.034 93.3287 126.394 97.9653 126.527 105.59L126.91 127.535L115.194 127.739L114.877 109.576C114.812 105.857 112.855 103.907 110.004 103.956C107.152 104.006 105.079 106.027 105.144 109.746L105.461 127.909L93.683 128.115Z"></path>
<path mask="url(#path-1-outside-1_2_55)" stroke-linejoin="round" stroke-width="6.47359" stroke="#7523E3" d="M153.195 127.882C142.533 128.068 134.646 120.331 134.48 110.784L134.477 110.66C134.311 101.114 141.982 92.9805 152.706 92.7933C163.431 92.6061 171.317 100.344 171.484 109.89L171.486 110.014C171.652 119.561 163.981 127.694 153.195 127.882ZM153.145 117.9C157.422 117.825 160.152 114.367 160.082 110.337L160.08 110.213C160.007 106.06 156.909 102.641 152.756 102.714C148.478 102.789 145.81 106.246 145.882 110.337L145.884 110.461C145.955 114.552 148.991 117.972 153.145 117.9Z"></path>
<path mask="url(#path-1-outside-1_2_55)" stroke-linejoin="round" stroke-width="6.47359" stroke="#7523E3" d="M196.976 127.118C186.313 127.304 178.427 119.567 178.26 110.02L178.258 109.896C178.092 100.349 185.763 92.2163 196.487 92.0291C207.212 91.8419 215.098 99.5795 215.264 109.126L215.267 109.25C215.433 118.797 207.762 126.93 196.976 127.118ZM196.925 117.135C201.203 117.061 203.933 113.602 203.863 109.573L203.86 109.449C203.788 105.296 200.69 101.877 196.536 101.95C192.259 102.024 189.591 105.482 189.662 109.573L189.665 109.697C189.736 113.788 192.772 117.208 196.925 117.135Z"></path>
<path mask="url(#path-1-outside-1_2_55)" stroke-linejoin="round" stroke-width="6.47359" stroke="#7523E3" d="M223.943 125.841L223.153 80.588L234.869 80.3835L235.659 125.637L223.943 125.841Z"></path>
<path mask="url(#path-1-outside-1_2_55)" stroke-linejoin="round" stroke-width="6.47359" stroke="#7523E3" d="M266.352 125.101L265.595 81.7075L284.254 81.3818C295.164 81.1913 302.33 86.7091 302.496 96.2557L302.499 96.3796C302.678 106.67 294.9 112.201 284.175 112.388L278.162 112.493L278.378 124.891L266.352 125.101ZM277.998 103.07L283.763 102.97C287.978 102.896 290.604 100.556 290.544 97.1464L290.542 97.0224C290.477 93.303 287.778 91.4278 283.501 91.5025L277.797 91.602L277.998 103.07Z"></path>
<path mask="url(#path-1-outside-1_2_55)" stroke-linejoin="round" stroke-width="6.47359" stroke="#7523E3" d="M327.301 124.843C316.639 125.029 308.753 117.292 308.586 107.745L308.584 107.621C308.417 98.0746 316.088 89.9415 326.813 89.7543C337.537 89.5671 345.423 97.3046 345.59 106.851L345.592 106.975C345.759 116.522 338.088 124.655 327.301 124.843ZM327.251 114.86C331.528 114.786 334.258 111.328 334.188 107.298L334.186 107.174C334.113 103.021 331.015 99.6025 326.862 99.6749C322.584 99.7496 319.916 103.207 319.988 107.298L319.99 107.422C320.061 111.513 323.098 114.933 327.251 114.86Z"></path>
<path mask="url(#path-1-outside-1_2_55)" stroke-linejoin="round" stroke-width="6.47359" stroke="#7523E3" d="M354.132 133.49L353.373 90.0348L365.151 89.8292L365.229 94.2925C367.474 91.4629 370.284 88.9955 375.305 88.9079C383.302 88.7683 390.298 95.2812 390.486 106.006L390.488 106.13C390.678 117.04 383.913 123.793 375.978 123.931C370.895 124.02 367.879 121.778 365.665 119.275L365.91 133.285L354.132 133.49ZM372.211 114.138C375.992 114.072 379.038 110.918 378.959 106.393L378.956 106.269C378.878 101.805 375.724 98.698 371.942 98.764C368.099 98.8311 365.117 102.046 365.194 106.509L365.197 106.633C365.275 111.096 368.367 114.205 372.211 114.138Z"></path>
<path mask="url(#path-1-outside-1_2_55)" stroke-linejoin="round" stroke-width="6.47359" stroke="#7523E3" d="M465.764 116.163L459.807 123.026L454.959 118.832C451.283 121.377 446.781 122.82 441.822 122.906C428.432 123.14 418.339 113.333 418.122 100.872L418.12 100.748C417.902 88.2883 427.768 78.0086 441.158 77.7749C454.548 77.5411 464.641 87.3485 464.858 99.8086L464.861 99.9326C464.941 104.52 463.59 108.822 461.235 112.46L465.764 116.163ZM441.76 112.242C443.31 112.215 444.792 111.879 446.085 111.36L439.982 106.32L445.938 99.3947L451.922 104.685C452.394 103.313 452.617 101.883 452.59 100.333L452.588 100.209C452.478 93.9478 447.857 88.5096 441.224 88.6254C434.591 88.7412 430.285 94.2731 430.394 100.534L430.396 100.658C430.505 106.919 435.065 112.358 441.76 112.242Z"></path>
<path mask="url(#path-1-outside-1_2_55)" stroke-linejoin="round" stroke-width="6.47359" stroke="#7523E3" d="M485.093 122.027C477.964 122.151 473.541 117.454 473.408 109.829L473.026 87.9462L484.804 87.7407L485.121 105.904C485.185 109.561 487.142 111.511 489.993 111.462C492.845 111.412 494.918 109.391 494.854 105.734L494.537 87.5708L506.253 87.3663L506.838 120.903L495.122 121.108L495.041 116.458C492.92 119.286 489.866 121.944 485.093 122.027Z"></path>
<path mask="url(#path-1-outside-1_2_55)" stroke-linejoin="round" stroke-width="6.47359" stroke="#7523E3" d="M515.671 84.1634L515.52 75.4847L527.732 75.2716L527.884 83.9502L515.671 84.1634ZM516.558 120.734L515.972 87.1966L527.689 86.9921L528.274 120.529L516.558 120.734Z"></path>
<path mask="url(#path-1-outside-1_2_55)" stroke-linejoin="round" stroke-width="6.47359" stroke="#7523E3" d="M536.877 120.379L536.742 112.63L551.89 95.8711L537.012 96.1308L536.85 86.8322L567.349 86.2998L567.483 93.9867L552.211 110.748L567.771 110.476L567.934 119.837L536.877 120.379Z"></path>
</g>
<defs>
<filter color-interpolation-filters="sRGB" filterUnits="userSpaceOnUse" height="141.75" width="570.767" y="0.371582" x="0.40368" id="filter0_d_2_55">
<feFlood result="BackgroundImageFix" flood-opacity="0"></feFlood>
<feColorMatrix result="hardAlpha" values="0 0 0 0 0 0 0 0 0 0 0 0 0 0 0 0 0 0 127 0" type="matrix" in="SourceAlpha"></feColorMatrix>
<feOffset dy="5.39466" dx="-5.39466"></feOffset>
<feComposite operator="out" in2="hardAlpha"></feComposite>
<feColorMatrix values="0 0 0 0 0.458824 0 0 0 0 0.137255 0 0 0 0 0.890196 0 0 0 1 0" type="matrix"></feColorMatrix>
<feBlend result="effect1_dropShadow_2_55" in2="BackgroundImageFix" mode="normal"></feBlend>
<feBlend result="shape" in2="effect1_dropShadow_2_55" in="SourceGraphic" mode="normal"></feBlend>
</filter>
</defs>
</svg>
