<svg xmlns="http://www.w3.org/2000/svg" fill="none" viewBox="0 0 623 137" height="137" width="623">
<g filter="url(#filter0_d_2_54)">
<mask fill="black" height="132" width="617" y="-0.631714" x="5.44128" maskUnits="userSpaceOnUse" id="path-1-outside-1_2_54">
<rect height="132" width="617" y="-0.631714" x="5.44128" fill="white"></rect>
<path d="M56.7139 54.2025L55.9809 12.2089L67.6191 12.0058L67.8935 27.7234L82.8312 27.4627L82.5568 11.745L94.1951 11.5419L94.9281 53.5355L83.2898 53.7386L83.0113 37.7811L68.0736 38.0418L68.3521 53.9994L56.7139 54.2025Z"></path>
<path d="M120.842 53.8633C110.644 54.0413 103.326 47.328 103.151 37.3095L103.149 37.1895C102.983 27.711 109.631 20.0938 119.23 19.9263C130.388 19.7315 135.691 27.8602 135.857 37.3987C135.87 38.1186 135.884 38.9585 135.838 39.7394L114.121 40.1185C115.083 43.6422 117.694 45.3969 121.233 45.3352C123.993 45.287 126.075 44.2305 128.375 41.91L134.765 47.0193C131.715 51.0331 127.261 53.7512 120.842 53.8633ZM113.84 34.3025L125.178 34.1046C124.695 30.5125 122.496 28.2705 119.376 28.325C116.377 28.3773 114.377 30.6926 113.84 34.3025Z"></path>
<path d="M153.383 53.2353C147.204 53.3431 142.462 49.8254 142.35 43.4063L142.348 43.2864C142.229 36.5074 147.269 32.9989 154.888 32.8659C157.887 32.8136 160.836 33.3022 162.709 33.9896L162.699 33.4497C162.639 30.0302 160.506 28.1471 156.127 28.2236C152.707 28.2833 150.08 29.0492 147.16 30.1804L144.681 22.2424C148.314 20.6788 152.196 19.5909 157.775 19.4935C163.594 19.3919 167.577 20.7026 170.202 23.2372C172.704 25.5939 173.782 28.9356 173.862 33.4949L174.187 52.152L162.969 52.3478L162.909 48.9284C160.673 51.4278 157.642 53.1609 153.383 53.2353ZM157.338 46.0252C160.697 45.9665 163 43.826 162.944 40.5865L162.917 39.0867C161.709 38.6277 160.083 38.2961 158.404 38.3254C155.104 38.383 153.212 39.9762 153.254 42.4359L153.257 42.5559C153.295 44.7755 154.998 46.066 157.338 46.0252Z"></path>
<path d="M196.194 52.488C188.456 52.6231 181.685 46.3203 181.503 35.9419L181.501 35.8219C181.317 25.2635 187.864 18.7282 195.543 18.5942C200.462 18.5083 203.38 20.6777 205.523 23.1007L205.256 7.80305L216.654 7.60409L217.419 51.3974L206.02 51.5964L205.945 47.277C203.772 50.0154 201.054 52.4032 196.194 52.488ZM199.447 42.8898C203.167 42.8248 206.053 39.714 205.978 35.3947L205.975 35.2747C205.901 31.0153 202.907 27.9471 199.188 28.012C195.528 28.0759 192.582 31.1878 192.658 35.5071L192.66 35.6271C192.735 39.9465 195.788 42.9536 199.447 42.8898Z"></path>
<path d="M242.675 51.7367C232.477 51.9147 225.159 45.2014 224.984 35.1829L224.982 35.0629C224.816 25.5844 231.464 17.9672 241.063 17.7997C252.221 17.6049 257.524 25.7336 257.69 35.2721C257.703 35.992 257.717 36.8319 257.671 37.6128L235.954 37.9919C236.916 41.5156 239.527 43.2703 243.066 43.2086C245.826 43.1604 247.908 42.1039 250.208 39.7834L256.598 44.8927C253.548 48.9065 249.094 51.6246 242.675 51.7367ZM235.673 32.1759L247.011 31.978C246.528 28.3859 244.329 26.1439 241.209 26.1984C238.21 26.2507 236.21 28.566 235.673 32.1759Z"></path>
<path d="M279.115 51.0406C271.377 51.1757 264.606 44.8729 264.424 34.4945L264.422 34.3745C264.238 23.8161 270.785 17.2809 278.464 17.1468C283.383 17.061 286.301 19.2304 288.444 21.6533L288.177 6.35566L299.575 6.1567L300.34 49.95L288.941 50.149L288.866 45.8296C286.693 48.568 283.975 50.9558 279.115 51.0406ZM282.368 41.4424C286.088 41.3775 288.974 38.2666 288.899 33.9473L288.896 33.8273C288.822 29.5679 285.828 26.4997 282.109 26.5646C278.449 26.6285 275.503 29.7404 275.578 34.0598L275.581 34.1797C275.656 38.4991 278.709 41.5063 282.368 41.4424Z"></path>
<path d="M350.392 49.7965C345.473 49.8823 342.554 47.7129 340.412 45.29L340.481 49.2494L329.083 49.4483L328.318 5.65499L339.717 5.45603L339.99 21.1136C342.162 18.3753 344.881 15.9875 349.74 15.9027C357.479 15.7676 364.25 22.0704 364.431 32.4488L364.434 32.5688C364.618 43.1272 358.071 49.6624 350.392 49.7965ZM346.746 40.3187C350.406 40.2548 353.353 37.2029 353.276 32.8235L353.274 32.7036C353.199 28.3842 350.146 25.377 346.486 25.4409C342.767 25.5058 339.881 28.6167 339.956 32.936L339.958 33.056C340.034 37.3754 343.027 40.3836 346.746 40.3187Z"></path>
<path d="M381.934 49.2459C375.755 49.3538 371.013 45.836 370.901 39.417L370.899 39.297C370.78 32.518 375.82 29.0095 383.439 28.8765C386.438 28.8242 389.387 29.3128 391.26 30.0002L391.25 29.4603C391.191 26.0408 389.057 24.1578 384.678 24.2342C381.259 24.2939 378.631 25.0599 375.711 26.191L373.232 18.2531C376.865 16.6894 380.747 15.6015 386.326 15.5041C392.145 15.4025 396.128 16.7132 398.753 19.2478C401.255 21.6045 402.333 24.9462 402.413 29.5055L402.738 48.1627L391.52 48.3585L391.46 44.939C389.224 47.4384 386.193 49.1716 381.934 49.2459ZM385.889 42.0358C389.248 41.9771 391.551 39.8366 391.495 36.5971L391.469 35.0973C390.26 34.6384 388.634 34.3067 386.955 34.336C383.655 34.3936 381.763 35.9869 381.806 38.4465L381.808 38.5665C381.846 40.7861 383.549 42.0766 385.889 42.0358Z"></path>
<path d="M427.266 48.5146C417.428 48.6864 410.155 41.1321 409.995 31.9535L409.992 31.8336C409.832 22.655 416.776 14.7926 427.035 14.6135C433.694 14.4973 438.183 17.2994 441.018 21.5705L433.44 27.4637C431.783 25.3923 430.021 24.1028 427.321 24.15C423.602 24.2149 420.96 27.5615 421.029 31.5209L421.031 31.6409C421.104 35.8403 423.799 38.9737 427.639 38.9067C430.398 38.8585 432.116 37.5683 433.819 35.4383L441.534 40.8245C438.612 45.3161 434.345 48.3911 427.266 48.5146Z"></path>
<path d="M448.689 47.3606L447.925 3.56724L459.323 3.36829L459.711 25.5649L468.34 14.5526L481.238 14.3275L470.186 27.4824L482.104 46.7773L469.506 46.9972L462.834 36.012L459.954 39.4828L460.088 47.1616L448.689 47.3606Z"></path>
<path d="M520.383 46.7693C513.544 46.8886 509.472 43.9592 509.337 36.2204L509.106 22.9624L505.266 23.0295L505.107 13.9109L508.947 13.8438L508.803 5.62509L520.142 5.42718L520.285 13.6459L527.844 13.514L528.003 22.6326L520.444 22.7645L520.637 33.8029C520.677 36.0825 521.713 37.0246 523.813 36.9879C525.313 36.9617 526.745 36.5167 528.113 35.8327L528.268 44.7113C526.249 45.8868 523.563 46.7138 520.383 46.7693Z"></path>
<path d="M552.001 46.3374C541.683 46.5175 534.051 39.0295 533.89 29.7909L533.888 29.671C533.726 20.4324 541.15 12.5616 551.529 12.3805C561.907 12.1993 569.539 19.6872 569.7 28.9258L569.702 29.0458C569.863 38.2844 562.44 46.1552 552.001 46.3374ZM551.953 36.6768C556.092 36.6045 558.734 33.2579 558.666 29.3585L558.664 29.2385C558.594 25.2191 555.596 21.9109 551.576 21.9811C547.437 22.0533 544.855 25.3989 544.924 29.3583L544.926 29.4783C544.995 33.4377 547.933 36.7469 551.953 36.6768Z"></path>
<path d="M24.8238 127.49C19.3646 127.586 13.9372 126.06 9.44128 122.898L13.5813 115.985C17.3436 118.379 21.385 119.569 24.7445 119.51C26.7242 119.476 27.6736 118.859 27.6537 117.719L27.6516 117.599C27.6285 116.28 25.7594 115.772 22.3232 114.872C15.8748 113.304 10.7379 111.234 10.6248 104.755L10.6227 104.635C10.5023 97.7357 15.9544 93.7999 23.4533 93.669C28.1926 93.5863 33.1359 94.8802 36.8972 97.2149L33.1235 104.482C29.7305 102.621 26.0512 101.545 23.4715 101.59C21.7318 101.62 20.8435 102.296 20.8602 103.256L20.8623 103.376C20.8843 104.636 22.8145 105.202 26.1918 106.163C32.6422 107.851 37.7802 109.981 37.8901 116.281L37.8922 116.4C38.0168 123.539 32.7426 127.352 24.8238 127.49Z"></path>
<path d="M61.4596 126.911C51.621 127.083 44.3481 119.528 44.1879 110.35L44.1858 110.23C44.0256 101.051 50.9694 93.1887 61.2279 93.0097C67.8868 92.8934 72.3764 95.6955 75.2114 99.9667L67.6331 105.86C65.9767 103.788 64.2139 102.499 61.5143 102.546C57.7949 102.611 55.1529 105.958 55.222 109.917L55.2241 110.037C55.2974 114.236 57.9925 117.37 61.8319 117.303C64.5915 117.255 66.3093 115.964 68.0123 113.834L75.7275 119.221C72.8055 123.712 68.5385 126.787 61.4596 126.911Z"></path>
<path d="M82.8828 125.757L82.1184 81.9634L93.5167 81.7644L93.7921 97.542C95.8446 94.8058 98.8012 92.2938 103.421 92.2132C110.319 92.0928 114.538 96.5798 114.667 103.959L115.038 125.195L103.7 125.393L103.393 107.816C103.33 104.217 101.437 102.329 98.6772 102.378C95.9176 102.426 93.9115 104.381 93.9743 107.98L94.2811 125.558L82.8828 125.757Z"></path>
<path d="M140.475 125.532C130.157 125.712 122.525 118.224 122.363 108.985L122.361 108.865C122.2 99.6266 129.624 91.7558 140.002 91.5746C150.381 91.3935 158.013 98.8814 158.174 108.12L158.176 108.24C158.337 117.479 150.913 125.349 140.475 125.532ZM140.426 115.871C144.566 115.799 147.208 112.452 147.14 108.553L147.138 108.433C147.067 104.413 144.069 101.105 140.05 101.175C135.911 101.248 133.329 104.593 133.398 108.552L133.4 108.672C133.469 112.632 136.407 115.941 140.426 115.871Z"></path>
<path d="M182.844 124.792C172.525 124.972 164.893 117.484 164.732 108.246L164.73 108.126C164.569 98.887 171.992 91.0163 182.371 90.8351C192.749 90.6539 200.381 98.1419 200.542 107.38L200.544 107.5C200.706 116.739 193.282 124.61 182.844 124.792ZM182.795 115.131C186.934 115.059 189.576 111.713 189.508 107.813L189.506 107.693C189.436 103.674 186.438 100.366 182.418 100.436C178.279 100.508 175.697 103.854 175.766 107.813L175.768 107.933C175.837 111.892 178.776 115.202 182.795 115.131Z"></path>
<path d="M208.941 123.556L208.177 79.763L219.515 79.5651L220.279 123.358L208.941 123.556Z"></path>
<path d="M237.905 109.369L236.169 99.3175L236.701 98.8281C243.649 98.1068 246.079 96.3841 246.035 93.8645L246.033 93.7445C245.998 91.7048 244.296 90.4743 241.416 90.5246C238.597 90.5738 235.562 92.067 232.727 94.6368L226.59 86.8828C230.186 83.1594 235.119 80.4329 242.018 80.3125C250.837 80.1586 257.099 84.79 257.236 92.6488L257.238 92.7688C257.37 100.328 252.386 103.595 245.756 105.391L245.104 109.243L237.905 109.369ZM235.624 123.091L235.446 112.892L247.264 112.686L247.442 122.884L235.624 123.091Z"></path>
<path d="M285.438 122.221L284.705 80.2275L300.962 79.9437C315.9 79.683 324.749 88.1698 324.961 100.288L324.963 100.408C325.175 112.526 316.513 121.679 301.455 121.942L285.438 122.221ZM301.261 90.2001L296.522 90.2828L296.896 111.7L301.635 111.617C308.654 111.494 313.206 107.574 313.088 100.795L313.086 100.675C312.969 93.9563 308.28 90.0776 301.261 90.2001Z"></path>
<path d="M350.279 121.869C339.961 122.05 332.329 114.562 332.167 105.323L332.165 105.203C332.004 95.9644 339.428 88.0937 349.806 87.9125C360.185 87.7313 367.817 95.2193 367.978 104.458L367.98 104.578C368.141 113.816 360.717 121.687 350.279 121.869ZM350.23 112.209C354.37 112.137 357.012 108.79 356.944 104.891L356.942 104.771C356.871 100.751 353.873 97.443 349.854 97.5131C345.714 97.5854 343.132 100.931 343.202 104.89L343.204 105.01C343.273 108.97 346.211 112.279 350.23 112.209Z"></path>
<path d="M376.076 120.639L375.51 88.184L386.908 87.985L386.988 92.5443C389.04 89.8081 391.995 87.1761 396.614 87.0955C403.513 86.975 407.732 91.4621 407.861 98.841L408.232 120.078L396.893 120.276L396.586 102.698C396.524 99.0989 394.63 97.2116 391.871 97.2598C389.111 97.308 387.105 99.2633 387.168 102.863L387.475 120.44L376.076 120.639Z"></path>
<path d="M416.024 99.6586L415.047 95.295C419.058 94.7449 421.125 92.7886 420.948 89.5512L416.329 89.6318L416.125 77.9336L427.943 77.7273L428.109 87.2658C428.264 96.1445 423.518 99.2878 416.024 99.6586Z"></path>
<path d="M450.055 120.008C443.216 120.127 439.144 117.198 439.009 109.459L438.778 96.201L434.938 96.268L434.779 87.1494L438.618 87.0824L438.475 78.8636L449.813 78.6657L449.957 86.8845L457.516 86.7525L457.675 95.8711L450.116 96.0031L450.309 107.041C450.348 109.321 451.385 110.263 453.485 110.226C454.984 110.2 456.417 109.755 457.785 109.071L457.94 117.95C455.92 119.125 453.234 119.952 450.055 120.008Z"></path>
<path d="M498.528 119.162C491.689 119.281 487.617 116.352 487.482 108.613L487.251 95.3549L483.411 95.4219L483.252 86.3033L487.092 86.2363L486.948 78.0175L498.286 77.8196L498.43 86.0384L505.989 85.9064L506.148 95.025L498.589 95.157L498.782 106.195C498.821 108.475 499.858 109.417 501.958 109.38C503.458 109.354 504.89 108.909 506.258 108.225L506.413 117.104C504.393 118.279 501.707 119.106 498.528 119.162Z"></path>
<path d="M514.454 118.224L513.887 85.7686L525.286 85.5696L525.4 92.1086C527.182 87.6368 530.131 84.7049 535.535 84.8506L535.744 96.8488L534.784 96.8656C528.845 96.9692 525.545 100.447 525.675 107.886L525.852 118.025L514.454 118.224Z"></path>
<path d="M542.556 82.3277L542.409 73.929L554.227 73.7227L554.374 82.1214L542.556 82.3277ZM543.414 117.718L542.847 85.2631L554.185 85.0652L554.752 117.52L543.414 117.718Z"></path>
<path d="M564.325 126.955L563.591 84.901L574.989 84.702L575.064 89.0214C577.237 86.283 579.956 83.8952 584.815 83.8104C592.554 83.6753 599.325 89.9781 599.506 100.357L599.508 100.477C599.692 111.035 593.145 117.57 585.467 117.704C580.547 117.79 577.629 115.621 575.486 113.198L575.723 126.756L564.325 126.955ZM581.821 108.226C585.48 108.163 588.427 105.111 588.351 100.731L588.349 100.611C588.273 96.292 585.22 93.2848 581.561 93.3487C577.841 93.4136 574.955 96.5244 575.031 100.844L575.033 100.964C575.108 105.283 578.101 108.291 581.821 108.226Z"></path>
<path d="M606.985 116.608L606.78 104.91L618.599 104.704L618.803 116.402L606.985 116.608Z"></path>
</mask>
<path fill="white" d="M56.7139 54.2025L55.9809 12.2089L67.6191 12.0058L67.8935 27.7234L82.8312 27.4627L82.5568 11.745L94.1951 11.5419L94.9281 53.5355L83.2898 53.7386L83.0113 37.7811L68.0736 38.0418L68.3521 53.9994L56.7139 54.2025Z"></path>
<path fill="white" d="M120.842 53.8633C110.644 54.0413 103.326 47.328 103.151 37.3095L103.149 37.1895C102.983 27.711 109.631 20.0938 119.23 19.9263C130.388 19.7315 135.691 27.8602 135.857 37.3987C135.87 38.1186 135.884 38.9585 135.838 39.7394L114.121 40.1185C115.083 43.6422 117.694 45.3969 121.233 45.3352C123.993 45.287 126.075 44.2305 128.375 41.91L134.765 47.0193C131.715 51.0331 127.261 53.7512 120.842 53.8633ZM113.84 34.3025L125.178 34.1046C124.695 30.5125 122.496 28.2705 119.376 28.325C116.377 28.3773 114.377 30.6926 113.84 34.3025Z"></path>
<path fill="white" d="M153.383 53.2353C147.204 53.3431 142.462 49.8254 142.35 43.4063L142.348 43.2864C142.229 36.5074 147.269 32.9989 154.888 32.8659C157.887 32.8136 160.836 33.3022 162.709 33.9896L162.699 33.4497C162.639 30.0302 160.506 28.1471 156.127 28.2236C152.707 28.2833 150.08 29.0492 147.16 30.1804L144.681 22.2424C148.314 20.6788 152.196 19.5909 157.775 19.4935C163.594 19.3919 167.577 20.7026 170.202 23.2372C172.704 25.5939 173.782 28.9356 173.862 33.4949L174.187 52.152L162.969 52.3478L162.909 48.9284C160.673 51.4278 157.642 53.1609 153.383 53.2353ZM157.338 46.0252C160.697 45.9665 163 43.826 162.944 40.5865L162.917 39.0867C161.709 38.6277 160.083 38.2961 158.404 38.3254C155.104 38.383 153.212 39.9762 153.254 42.4359L153.257 42.5559C153.295 44.7755 154.998 46.066 157.338 46.0252Z"></path>
<path fill="white" d="M196.194 52.488C188.456 52.6231 181.685 46.3203 181.503 35.9419L181.501 35.8219C181.317 25.2635 187.864 18.7282 195.543 18.5942C200.462 18.5083 203.38 20.6777 205.523 23.1007L205.256 7.80305L216.654 7.60409L217.419 51.3974L206.02 51.5964L205.945 47.277C203.772 50.0154 201.054 52.4032 196.194 52.488ZM199.447 42.8898C203.167 42.8248 206.053 39.714 205.978 35.3947L205.975 35.2747C205.901 31.0153 202.907 27.9471 199.188 28.012C195.528 28.0759 192.582 31.1878 192.658 35.5071L192.66 35.6271C192.735 39.9465 195.788 42.9536 199.447 42.8898Z"></path>
<path fill="white" d="M242.675 51.7367C232.477 51.9147 225.159 45.2014 224.984 35.1829L224.982 35.0629C224.816 25.5844 231.464 17.9672 241.063 17.7997C252.221 17.6049 257.524 25.7336 257.69 35.2721C257.703 35.992 257.717 36.8319 257.671 37.6128L235.954 37.9919C236.916 41.5156 239.527 43.2703 243.066 43.2086C245.826 43.1604 247.908 42.1039 250.208 39.7834L256.598 44.8927C253.548 48.9065 249.094 51.6246 242.675 51.7367ZM235.673 32.1759L247.011 31.978C246.528 28.3859 244.329 26.1439 241.209 26.1984C238.21 26.2507 236.21 28.566 235.673 32.1759Z"></path>
<path fill="white" d="M279.115 51.0406C271.377 51.1757 264.606 44.8729 264.424 34.4945L264.422 34.3745C264.238 23.8161 270.785 17.2809 278.464 17.1468C283.383 17.061 286.301 19.2304 288.444 21.6533L288.177 6.35566L299.575 6.1567L300.34 49.95L288.941 50.149L288.866 45.8296C286.693 48.568 283.975 50.9558 279.115 51.0406ZM282.368 41.4424C286.088 41.3775 288.974 38.2666 288.899 33.9473L288.896 33.8273C288.822 29.5679 285.828 26.4997 282.109 26.5646C278.449 26.6285 275.503 29.7404 275.578 34.0598L275.581 34.1797C275.656 38.4991 278.709 41.5063 282.368 41.4424Z"></path>
<path fill="white" d="M350.392 49.7965C345.473 49.8823 342.554 47.7129 340.412 45.29L340.481 49.2494L329.083 49.4483L328.318 5.65499L339.717 5.45603L339.99 21.1136C342.162 18.3753 344.881 15.9875 349.74 15.9027C357.479 15.7676 364.25 22.0704 364.431 32.4488L364.434 32.5688C364.618 43.1272 358.071 49.6624 350.392 49.7965ZM346.746 40.3187C350.406 40.2548 353.353 37.2029 353.276 32.8235L353.274 32.7036C353.199 28.3842 350.146 25.377 346.486 25.4409C342.767 25.5058 339.881 28.6167 339.956 32.936L339.958 33.056C340.034 37.3754 343.027 40.3836 346.746 40.3187Z"></path>
<path fill="white" d="M381.934 49.2459C375.755 49.3538 371.013 45.836 370.901 39.417L370.899 39.297C370.78 32.518 375.82 29.0095 383.439 28.8765C386.438 28.8242 389.387 29.3128 391.26 30.0002L391.25 29.4603C391.191 26.0408 389.057 24.1578 384.678 24.2342C381.259 24.2939 378.631 25.0599 375.711 26.191L373.232 18.2531C376.865 16.6894 380.747 15.6015 386.326 15.5041C392.145 15.4025 396.128 16.7132 398.753 19.2478C401.255 21.6045 402.333 24.9462 402.413 29.5055L402.738 48.1627L391.52 48.3585L391.46 44.939C389.224 47.4384 386.193 49.1716 381.934 49.2459ZM385.889 42.0358C389.248 41.9771 391.551 39.8366 391.495 36.5971L391.469 35.0973C390.26 34.6384 388.634 34.3067 386.955 34.336C383.655 34.3936 381.763 35.9869 381.806 38.4465L381.808 38.5665C381.846 40.7861 383.549 42.0766 385.889 42.0358Z"></path>
<path fill="white" d="M427.266 48.5146C417.428 48.6864 410.155 41.1321 409.995 31.9535L409.992 31.8336C409.832 22.655 416.776 14.7926 427.035 14.6135C433.694 14.4973 438.183 17.2994 441.018 21.5705L433.44 27.4637C431.783 25.3923 430.021 24.1028 427.321 24.15C423.602 24.2149 420.96 27.5615 421.029 31.5209L421.031 31.6409C421.104 35.8403 423.799 38.9737 427.639 38.9067C430.398 38.8585 432.116 37.5683 433.819 35.4383L441.534 40.8245C438.612 45.3161 434.345 48.3911 427.266 48.5146Z"></path>
<path fill="white" d="M448.689 47.3606L447.925 3.56724L459.323 3.36829L459.711 25.5649L468.34 14.5526L481.238 14.3275L470.186 27.4824L482.104 46.7773L469.506 46.9972L462.834 36.012L459.954 39.4828L460.088 47.1616L448.689 47.3606Z"></path>
<path fill="white" d="M520.383 46.7693C513.544 46.8886 509.472 43.9592 509.337 36.2204L509.106 22.9624L505.266 23.0295L505.107 13.9109L508.947 13.8438L508.803 5.62509L520.142 5.42718L520.285 13.6459L527.844 13.514L528.003 22.6326L520.444 22.7645L520.637 33.8029C520.677 36.0825 521.713 37.0246 523.813 36.9879C525.313 36.9617 526.745 36.5167 528.113 35.8327L528.268 44.7113C526.249 45.8868 523.563 46.7138 520.383 46.7693Z"></path>
<path fill="white" d="M552.001 46.3374C541.683 46.5175 534.051 39.0295 533.89 29.7909L533.888 29.671C533.726 20.4324 541.15 12.5616 551.529 12.3805C561.907 12.1993 569.539 19.6872 569.7 28.9258L569.702 29.0458C569.863 38.2844 562.44 46.1552 552.001 46.3374ZM551.953 36.6768C556.092 36.6045 558.734 33.2579 558.666 29.3585L558.664 29.2385C558.594 25.2191 555.596 21.9109 551.576 21.9811C547.437 22.0533 544.855 25.3989 544.924 29.3583L544.926 29.4783C544.995 33.4377 547.933 36.7469 551.953 36.6768Z"></path>
<path fill="white" d="M24.8238 127.49C19.3646 127.586 13.9372 126.06 9.44128 122.898L13.5813 115.985C17.3436 118.379 21.385 119.569 24.7445 119.51C26.7242 119.476 27.6736 118.859 27.6537 117.719L27.6516 117.599C27.6285 116.28 25.7594 115.772 22.3232 114.872C15.8748 113.304 10.7379 111.234 10.6248 104.755L10.6227 104.635C10.5023 97.7357 15.9544 93.7999 23.4533 93.669C28.1926 93.5863 33.1359 94.8802 36.8972 97.2149L33.1235 104.482C29.7305 102.621 26.0512 101.545 23.4715 101.59C21.7318 101.62 20.8435 102.296 20.8602 103.256L20.8623 103.376C20.8843 104.636 22.8145 105.202 26.1918 106.163C32.6422 107.851 37.7802 109.981 37.8901 116.281L37.8922 116.4C38.0168 123.539 32.7426 127.352 24.8238 127.49Z"></path>
<path fill="white" d="M61.4596 126.911C51.621 127.083 44.3481 119.528 44.1879 110.35L44.1858 110.23C44.0256 101.051 50.9694 93.1887 61.2279 93.0097C67.8868 92.8934 72.3764 95.6955 75.2114 99.9667L67.6331 105.86C65.9767 103.788 64.2139 102.499 61.5143 102.546C57.7949 102.611 55.1529 105.958 55.222 109.917L55.2241 110.037C55.2974 114.236 57.9925 117.37 61.8319 117.303C64.5915 117.255 66.3093 115.964 68.0123 113.834L75.7275 119.221C72.8055 123.712 68.5385 126.787 61.4596 126.911Z"></path>
<path fill="white" d="M82.8828 125.757L82.1184 81.9634L93.5167 81.7644L93.7921 97.542C95.8446 94.8058 98.8012 92.2938 103.421 92.2132C110.319 92.0928 114.538 96.5798 114.667 103.959L115.038 125.195L103.7 125.393L103.393 107.816C103.33 104.217 101.437 102.329 98.6772 102.378C95.9176 102.426 93.9115 104.381 93.9743 107.98L94.2811 125.558L82.8828 125.757Z"></path>
<path fill="white" d="M140.475 125.532C130.157 125.712 122.525 118.224 122.363 108.985L122.361 108.865C122.2 99.6266 129.624 91.7558 140.002 91.5746C150.381 91.3935 158.013 98.8814 158.174 108.12L158.176 108.24C158.337 117.479 150.913 125.349 140.475 125.532ZM140.426 115.871C144.566 115.799 147.208 112.452 147.14 108.553L147.138 108.433C147.067 104.413 144.069 101.105 140.05 101.175C135.911 101.248 133.329 104.593 133.398 108.552L133.4 108.672C133.469 112.632 136.407 115.941 140.426 115.871Z"></path>
<path fill="white" d="M182.844 124.792C172.525 124.972 164.893 117.484 164.732 108.246L164.73 108.126C164.569 98.887 171.992 91.0163 182.371 90.8351C192.749 90.6539 200.381 98.1419 200.542 107.38L200.544 107.5C200.706 116.739 193.282 124.61 182.844 124.792ZM182.795 115.131C186.934 115.059 189.576 111.713 189.508 107.813L189.506 107.693C189.436 103.674 186.438 100.366 182.418 100.436C178.279 100.508 175.697 103.854 175.766 107.813L175.768 107.933C175.837 111.892 178.776 115.202 182.795 115.131Z"></path>
<path fill="white" d="M208.941 123.556L208.177 79.763L219.515 79.5651L220.279 123.358L208.941 123.556Z"></path>
<path fill="white" d="M237.905 109.369L236.169 99.3175L236.701 98.8281C243.649 98.1068 246.079 96.3841 246.035 93.8645L246.033 93.7445C245.998 91.7048 244.296 90.4743 241.416 90.5246C238.597 90.5738 235.562 92.067 232.727 94.6368L226.59 86.8828C230.186 83.1594 235.119 80.4329 242.018 80.3125C250.837 80.1586 257.099 84.79 257.236 92.6488L257.238 92.7688C257.37 100.328 252.386 103.595 245.756 105.391L245.104 109.243L237.905 109.369ZM235.624 123.091L235.446 112.892L247.264 112.686L247.442 122.884L235.624 123.091Z"></path>
<path fill="white" d="M285.438 122.221L284.705 80.2275L300.962 79.9437C315.9 79.683 324.749 88.1698 324.961 100.288L324.963 100.408C325.175 112.526 316.513 121.679 301.455 121.942L285.438 122.221ZM301.261 90.2001L296.522 90.2828L296.896 111.7L301.635 111.617C308.654 111.494 313.206 107.574 313.088 100.795L313.086 100.675C312.969 93.9563 308.28 90.0776 301.261 90.2001Z"></path>
<path fill="white" d="M350.279 121.869C339.961 122.05 332.329 114.562 332.167 105.323L332.165 105.203C332.004 95.9644 339.428 88.0937 349.806 87.9125C360.185 87.7313 367.817 95.2193 367.978 104.458L367.98 104.578C368.141 113.816 360.717 121.687 350.279 121.869ZM350.23 112.209C354.37 112.137 357.012 108.79 356.944 104.891L356.942 104.771C356.871 100.751 353.873 97.443 349.854 97.5131C345.714 97.5854 343.132 100.931 343.202 104.89L343.204 105.01C343.273 108.97 346.211 112.279 350.23 112.209Z"></path>
<path fill="white" d="M376.076 120.639L375.51 88.184L386.908 87.985L386.988 92.5443C389.04 89.8081 391.995 87.1761 396.614 87.0955C403.513 86.975 407.732 91.4621 407.861 98.841L408.232 120.078L396.893 120.276L396.586 102.698C396.524 99.0989 394.63 97.2116 391.871 97.2598C389.111 97.308 387.105 99.2633 387.168 102.863L387.475 120.44L376.076 120.639Z"></path>
<path fill="white" d="M416.024 99.6586L415.047 95.295C419.058 94.7449 421.125 92.7886 420.948 89.5512L416.329 89.6318L416.125 77.9336L427.943 77.7273L428.109 87.2658C428.264 96.1445 423.518 99.2878 416.024 99.6586Z"></path>
<path fill="white" d="M450.055 120.008C443.216 120.127 439.144 117.198 439.009 109.459L438.778 96.201L434.938 96.268L434.779 87.1494L438.618 87.0824L438.475 78.8636L449.813 78.6657L449.957 86.8845L457.516 86.7525L457.675 95.8711L450.116 96.0031L450.309 107.041C450.348 109.321 451.385 110.263 453.485 110.226C454.984 110.2 456.417 109.755 457.785 109.071L457.94 117.95C455.92 119.125 453.234 119.952 450.055 120.008Z"></path>
<path fill="white" d="M498.528 119.162C491.689 119.281 487.617 116.352 487.482 108.613L487.251 95.3549L483.411 95.4219L483.252 86.3033L487.092 86.2363L486.948 78.0175L498.286 77.8196L498.43 86.0384L505.989 85.9064L506.148 95.025L498.589 95.157L498.782 106.195C498.821 108.475 499.858 109.417 501.958 109.38C503.458 109.354 504.89 108.909 506.258 108.225L506.413 117.104C504.393 118.279 501.707 119.106 498.528 119.162Z"></path>
<path fill="white" d="M514.454 118.224L513.887 85.7686L525.286 85.5696L525.4 92.1086C527.182 87.6368 530.131 84.7049 535.535 84.8506L535.744 96.8488L534.784 96.8656C528.845 96.9692 525.545 100.447 525.675 107.886L525.852 118.025L514.454 118.224Z"></path>
<path fill="white" d="M542.556 82.3277L542.409 73.929L554.227 73.7227L554.374 82.1214L542.556 82.3277ZM543.414 117.718L542.847 85.2631L554.185 85.0652L554.752 117.52L543.414 117.718Z"></path>
<path fill="white" d="M564.325 126.955L563.591 84.901L574.989 84.702L575.064 89.0214C577.237 86.283 579.956 83.8952 584.815 83.8104C592.554 83.6753 599.325 89.9781 599.506 100.357L599.508 100.477C599.692 111.035 593.145 117.57 585.467 117.704C580.547 117.79 577.629 115.621 575.486 113.198L575.723 126.756L564.325 126.955ZM581.821 108.226C585.48 108.163 588.427 105.111 588.351 100.731L588.349 100.611C588.273 96.292 585.22 93.2848 581.561 93.3487C577.841 93.4136 574.955 96.5244 575.031 100.844L575.033 100.964C575.108 105.283 578.101 108.291 581.821 108.226Z"></path>
<path fill="white" d="M606.985 116.608L606.78 104.91L618.599 104.704L618.803 116.402L606.985 116.608Z"></path>
<path mask="url(#path-1-outside-1_2_54)" stroke-linejoin="round" stroke-width="6.47359" stroke="#7523E3" d="M56.7139 54.2025L55.9809 12.2089L67.6191 12.0058L67.8935 27.7234L82.8312 27.4627L82.5568 11.745L94.1951 11.5419L94.9281 53.5355L83.2898 53.7386L83.0113 37.7811L68.0736 38.0418L68.3521 53.9994L56.7139 54.2025Z"></path>
<path mask="url(#path-1-outside-1_2_54)" stroke-linejoin="round" stroke-width="6.47359" stroke="#7523E3" d="M120.842 53.8633C110.644 54.0413 103.326 47.328 103.151 37.3095L103.149 37.1895C102.983 27.711 109.631 20.0938 119.23 19.9263C130.388 19.7315 135.691 27.8602 135.857 37.3987C135.87 38.1186 135.884 38.9585 135.838 39.7394L114.121 40.1185C115.083 43.6422 117.694 45.3969 121.233 45.3352C123.993 45.287 126.075 44.2305 128.375 41.91L134.765 47.0193C131.715 51.0331 127.261 53.7512 120.842 53.8633ZM113.84 34.3025L125.178 34.1046C124.695 30.5125 122.496 28.2705 119.376 28.325C116.377 28.3773 114.377 30.6926 113.84 34.3025Z"></path>
<path mask="url(#path-1-outside-1_2_54)" stroke-linejoin="round" stroke-width="6.47359" stroke="#7523E3" d="M153.383 53.2353C147.204 53.3431 142.462 49.8254 142.35 43.4063L142.348 43.2864C142.229 36.5074 147.269 32.9989 154.888 32.8659C157.887 32.8136 160.836 33.3022 162.709 33.9896L162.699 33.4497C162.639 30.0302 160.506 28.1471 156.127 28.2236C152.707 28.2833 150.08 29.0492 147.16 30.1804L144.681 22.2424C148.314 20.6788 152.196 19.5909 157.775 19.4935C163.594 19.3919 167.577 20.7026 170.202 23.2372C172.704 25.5939 173.782 28.9356 173.862 33.4949L174.187 52.152L162.969 52.3478L162.909 48.9284C160.673 51.4278 157.642 53.1609 153.383 53.2353ZM157.338 46.0252C160.697 45.9665 163 43.826 162.944 40.5865L162.917 39.0867C161.709 38.6277 160.083 38.2961 158.404 38.3254C155.104 38.383 153.212 39.9762 153.254 42.4359L153.257 42.5559C153.295 44.7755 154.998 46.066 157.338 46.0252Z"></path>
<path mask="url(#path-1-outside-1_2_54)" stroke-linejoin="round" stroke-width="6.47359" stroke="#7523E3" d="M196.194 52.488C188.456 52.6231 181.685 46.3203 181.503 35.9419L181.501 35.8219C181.317 25.2635 187.864 18.7282 195.543 18.5942C200.462 18.5083 203.38 20.6777 205.523 23.1007L205.256 7.80305L216.654 7.60409L217.419 51.3974L206.02 51.5964L205.945 47.277C203.772 50.0154 201.054 52.4032 196.194 52.488ZM199.447 42.8898C203.167 42.8248 206.053 39.714 205.978 35.3947L205.975 35.2747C205.901 31.0153 202.907 27.9471 199.188 28.012C195.528 28.0759 192.582 31.1878 192.658 35.5071L192.66 35.6271C192.735 39.9465 195.788 42.9536 199.447 42.8898Z"></path>
<path mask="url(#path-1-outside-1_2_54)" stroke-linejoin="round" stroke-width="6.47359" stroke="#7523E3" d="M242.675 51.7367C232.477 51.9147 225.159 45.2014 224.984 35.1829L224.982 35.0629C224.816 25.5844 231.464 17.9672 241.063 17.7997C252.221 17.6049 257.524 25.7336 257.69 35.2721C257.703 35.992 257.717 36.8319 257.671 37.6128L235.954 37.9919C236.916 41.5156 239.527 43.2703 243.066 43.2086C245.826 43.1604 247.908 42.1039 250.208 39.7834L256.598 44.8927C253.548 48.9065 249.094 51.6246 242.675 51.7367ZM235.673 32.1759L247.011 31.978C246.528 28.3859 244.329 26.1439 241.209 26.1984C238.21 26.2507 236.21 28.566 235.673 32.1759Z"></path>
<path mask="url(#path-1-outside-1_2_54)" stroke-linejoin="round" stroke-width="6.47359" stroke="#7523E3" d="M279.115 51.0406C271.377 51.1757 264.606 44.8729 264.424 34.4945L264.422 34.3745C264.238 23.8161 270.785 17.2809 278.464 17.1468C283.383 17.061 286.301 19.2304 288.444 21.6533L288.177 6.35566L299.575 6.1567L300.34 49.95L288.941 50.149L288.866 45.8296C286.693 48.568 283.975 50.9558 279.115 51.0406ZM282.368 41.4424C286.088 41.3775 288.974 38.2666 288.899 33.9473L288.896 33.8273C288.822 29.5679 285.828 26.4997 282.109 26.5646C278.449 26.6285 275.503 29.7404 275.578 34.0598L275.581 34.1797C275.656 38.4991 278.709 41.5063 282.368 41.4424Z"></path>
<path mask="url(#path-1-outside-1_2_54)" stroke-linejoin="round" stroke-width="6.47359" stroke="#7523E3" d="M350.392 49.7965C345.473 49.8823 342.554 47.7129 340.412 45.29L340.481 49.2494L329.083 49.4483L328.318 5.65499L339.717 5.45603L339.99 21.1136C342.162 18.3753 344.881 15.9875 349.74 15.9027C357.479 15.7676 364.25 22.0704 364.431 32.4488L364.434 32.5688C364.618 43.1272 358.071 49.6624 350.392 49.7965ZM346.746 40.3187C350.406 40.2548 353.353 37.2029 353.276 32.8235L353.274 32.7036C353.199 28.3842 350.146 25.377 346.486 25.4409C342.767 25.5058 339.881 28.6167 339.956 32.936L339.958 33.056C340.034 37.3754 343.027 40.3836 346.746 40.3187Z"></path>
<path mask="url(#path-1-outside-1_2_54)" stroke-linejoin="round" stroke-width="6.47359" stroke="#7523E3" d="M381.934 49.2459C375.755 49.3538 371.013 45.836 370.901 39.417L370.899 39.297C370.78 32.518 375.82 29.0095 383.439 28.8765C386.438 28.8242 389.387 29.3128 391.26 30.0002L391.25 29.4603C391.191 26.0408 389.057 24.1578 384.678 24.2342C381.259 24.2939 378.631 25.0599 375.711 26.191L373.232 18.2531C376.865 16.6894 380.747 15.6015 386.326 15.5041C392.145 15.4025 396.128 16.7132 398.753 19.2478C401.255 21.6045 402.333 24.9462 402.413 29.5055L402.738 48.1627L391.52 48.3585L391.46 44.939C389.224 47.4384 386.193 49.1716 381.934 49.2459ZM385.889 42.0358C389.248 41.9771 391.551 39.8366 391.495 36.5971L391.469 35.0973C390.26 34.6384 388.634 34.3067 386.955 34.336C383.655 34.3936 381.763 35.9869 381.806 38.4465L381.808 38.5665C381.846 40.7861 383.549 42.0766 385.889 42.0358Z"></path>
<path mask="url(#path-1-outside-1_2_54)" stroke-linejoin="round" stroke-width="6.47359" stroke="#7523E3" d="M427.266 48.5146C417.428 48.6864 410.155 41.1321 409.995 31.9535L409.992 31.8336C409.832 22.655 416.776 14.7926 427.035 14.6135C433.694 14.4973 438.183 17.2994 441.018 21.5705L433.44 27.4637C431.783 25.3923 430.021 24.1028 427.321 24.15C423.602 24.2149 420.96 27.5615 421.029 31.5209L421.031 31.6409C421.104 35.8403 423.799 38.9737 427.639 38.9067C430.398 38.8585 432.116 37.5683 433.819 35.4383L441.534 40.8245C438.612 45.3161 434.345 48.3911 427.266 48.5146Z"></path>
<path mask="url(#path-1-outside-1_2_54)" stroke-linejoin="round" stroke-width="6.47359" stroke="#7523E3" d="M448.689 47.3606L447.925 3.56724L459.323 3.36829L459.711 25.5649L468.34 14.5526L481.238 14.3275L470.186 27.4824L482.104 46.7773L469.506 46.9972L462.834 36.012L459.954 39.4828L460.088 47.1616L448.689 47.3606Z"></path>
<path mask="url(#path-1-outside-1_2_54)" stroke-linejoin="round" stroke-width="6.47359" stroke="#7523E3" d="M520.383 46.7693C513.544 46.8886 509.472 43.9592 509.337 36.2204L509.106 22.9624L505.266 23.0295L505.107 13.9109L508.947 13.8438L508.803 5.62509L520.142 5.42718L520.285 13.6459L527.844 13.514L528.003 22.6326L520.444 22.7645L520.637 33.8029C520.677 36.0825 521.713 37.0246 523.813 36.9879C525.313 36.9617 526.745 36.5167 528.113 35.8327L528.268 44.7113C526.249 45.8868 523.563 46.7138 520.383 46.7693Z"></path>
<path mask="url(#path-1-outside-1_2_54)" stroke-linejoin="round" stroke-width="6.47359" stroke="#7523E3" d="M552.001 46.3374C541.683 46.5175 534.051 39.0295 533.89 29.7909L533.888 29.671C533.726 20.4324 541.15 12.5616 551.529 12.3805C561.907 12.1993 569.539 19.6872 569.7 28.9258L569.702 29.0458C569.863 38.2844 562.44 46.1552 552.001 46.3374ZM551.953 36.6768C556.092 36.6045 558.734 33.2579 558.666 29.3585L558.664 29.2385C558.594 25.2191 555.596 21.9109 551.576 21.9811C547.437 22.0533 544.855 25.3989 544.924 29.3583L544.926 29.4783C544.995 33.4377 547.933 36.7469 551.953 36.6768Z"></path>
<path mask="url(#path-1-outside-1_2_54)" stroke-linejoin="round" stroke-width="6.47359" stroke="#7523E3" d="M24.8238 127.49C19.3646 127.586 13.9372 126.06 9.44128 122.898L13.5813 115.985C17.3436 118.379 21.385 119.569 24.7445 119.51C26.7242 119.476 27.6736 118.859 27.6537 117.719L27.6516 117.599C27.6285 116.28 25.7594 115.772 22.3232 114.872C15.8748 113.304 10.7379 111.234 10.6248 104.755L10.6227 104.635C10.5023 97.7357 15.9544 93.7999 23.4533 93.669C28.1926 93.5863 33.1359 94.8802 36.8972 97.2149L33.1235 104.482C29.7305 102.621 26.0512 101.545 23.4715 101.59C21.7318 101.62 20.8435 102.296 20.8602 103.256L20.8623 103.376C20.8843 104.636 22.8145 105.202 26.1918 106.163C32.6422 107.851 37.7802 109.981 37.8901 116.281L37.8922 116.4C38.0168 123.539 32.7426 127.352 24.8238 127.49Z"></path>
<path mask="url(#path-1-outside-1_2_54)" stroke-linejoin="round" stroke-width="6.47359" stroke="#7523E3" d="M61.4596 126.911C51.621 127.083 44.3481 119.528 44.1879 110.35L44.1858 110.23C44.0256 101.051 50.9694 93.1887 61.2279 93.0097C67.8868 92.8934 72.3764 95.6955 75.2114 99.9667L67.6331 105.86C65.9767 103.788 64.2139 102.499 61.5143 102.546C57.7949 102.611 55.1529 105.958 55.222 109.917L55.2241 110.037C55.2974 114.236 57.9925 117.37 61.8319 117.303C64.5915 117.255 66.3093 115.964 68.0123 113.834L75.7275 119.221C72.8055 123.712 68.5385 126.787 61.4596 126.911Z"></path>
<path mask="url(#path-1-outside-1_2_54)" stroke-linejoin="round" stroke-width="6.47359" stroke="#7523E3" d="M82.8828 125.757L82.1184 81.9634L93.5167 81.7644L93.7921 97.542C95.8446 94.8058 98.8012 92.2938 103.421 92.2132C110.319 92.0928 114.538 96.5798 114.667 103.959L115.038 125.195L103.7 125.393L103.393 107.816C103.33 104.217 101.437 102.329 98.6772 102.378C95.9176 102.426 93.9115 104.381 93.9743 107.98L94.2811 125.558L82.8828 125.757Z"></path>
<path mask="url(#path-1-outside-1_2_54)" stroke-linejoin="round" stroke-width="6.47359" stroke="#7523E3" d="M140.475 125.532C130.157 125.712 122.525 118.224 122.363 108.985L122.361 108.865C122.2 99.6266 129.624 91.7558 140.002 91.5746C150.381 91.3935 158.013 98.8814 158.174 108.12L158.176 108.24C158.337 117.479 150.913 125.349 140.475 125.532ZM140.426 115.871C144.566 115.799 147.208 112.452 147.14 108.553L147.138 108.433C147.067 104.413 144.069 101.105 140.05 101.175C135.911 101.248 133.329 104.593 133.398 108.552L133.4 108.672C133.469 112.632 136.407 115.941 140.426 115.871Z"></path>
<path mask="url(#path-1-outside-1_2_54)" stroke-linejoin="round" stroke-width="6.47359" stroke="#7523E3" d="M182.844 124.792C172.525 124.972 164.893 117.484 164.732 108.246L164.73 108.126C164.569 98.887 171.992 91.0163 182.371 90.8351C192.749 90.6539 200.381 98.1419 200.542 107.38L200.544 107.5C200.706 116.739 193.282 124.61 182.844 124.792ZM182.795 115.131C186.934 115.059 189.576 111.713 189.508 107.813L189.506 107.693C189.436 103.674 186.438 100.366 182.418 100.436C178.279 100.508 175.697 103.854 175.766 107.813L175.768 107.933C175.837 111.892 178.776 115.202 182.795 115.131Z"></path>
<path mask="url(#path-1-outside-1_2_54)" stroke-linejoin="round" stroke-width="6.47359" stroke="#7523E3" d="M208.941 123.556L208.177 79.763L219.515 79.5651L220.279 123.358L208.941 123.556Z"></path>
<path mask="url(#path-1-outside-1_2_54)" stroke-linejoin="round" stroke-width="6.47359" stroke="#7523E3" d="M237.905 109.369L236.169 99.3175L236.701 98.8281C243.649 98.1068 246.079 96.3841 246.035 93.8645L246.033 93.7445C245.998 91.7048 244.296 90.4743 241.416 90.5246C238.597 90.5738 235.562 92.067 232.727 94.6368L226.59 86.8828C230.186 83.1594 235.119 80.4329 242.018 80.3125C250.837 80.1586 257.099 84.79 257.236 92.6488L257.238 92.7688C257.37 100.328 252.386 103.595 245.756 105.391L245.104 109.243L237.905 109.369ZM235.624 123.091L235.446 112.892L247.264 112.686L247.442 122.884L235.624 123.091Z"></path>
<path mask="url(#path-1-outside-1_2_54)" stroke-linejoin="round" stroke-width="6.47359" stroke="#7523E3" d="M285.438 122.221L284.705 80.2275L300.962 79.9437C315.9 79.683 324.749 88.1698 324.961 100.288L324.963 100.408C325.175 112.526 316.513 121.679 301.455 121.942L285.438 122.221ZM301.261 90.2001L296.522 90.2828L296.896 111.7L301.635 111.617C308.654 111.494 313.206 107.574 313.088 100.795L313.086 100.675C312.969 93.9563 308.28 90.0776 301.261 90.2001Z"></path>
<path mask="url(#path-1-outside-1_2_54)" stroke-linejoin="round" stroke-width="6.47359" stroke="#7523E3" d="M350.279 121.869C339.961 122.05 332.329 114.562 332.167 105.323L332.165 105.203C332.004 95.9644 339.428 88.0937 349.806 87.9125C360.185 87.7313 367.817 95.2193 367.978 104.458L367.98 104.578C368.141 113.816 360.717 121.687 350.279 121.869ZM350.23 112.209C354.37 112.137 357.012 108.79 356.944 104.891L356.942 104.771C356.871 100.751 353.873 97.443 349.854 97.5131C345.714 97.5854 343.132 100.931 343.202 104.89L343.204 105.01C343.273 108.97 346.211 112.279 350.23 112.209Z"></path>
<path mask="url(#path-1-outside-1_2_54)" stroke-linejoin="round" stroke-width="6.47359" stroke="#7523E3" d="M376.076 120.639L375.51 88.184L386.908 87.985L386.988 92.5443C389.04 89.8081 391.995 87.1761 396.614 87.0955C403.513 86.975 407.732 91.4621 407.861 98.841L408.232 120.078L396.893 120.276L396.586 102.698C396.524 99.0989 394.63 97.2116 391.871 97.2598C389.111 97.308 387.105 99.2633 387.168 102.863L387.475 120.44L376.076 120.639Z"></path>
<path mask="url(#path-1-outside-1_2_54)" stroke-linejoin="round" stroke-width="6.47359" stroke="#7523E3" d="M416.024 99.6586L415.047 95.295C419.058 94.7449 421.125 92.7886 420.948 89.5512L416.329 89.6318L416.125 77.9336L427.943 77.7273L428.109 87.2658C428.264 96.1445 423.518 99.2878 416.024 99.6586Z"></path>
<path mask="url(#path-1-outside-1_2_54)" stroke-linejoin="round" stroke-width="6.47359" stroke="#7523E3" d="M450.055 120.008C443.216 120.127 439.144 117.198 439.009 109.459L438.778 96.201L434.938 96.268L434.779 87.1494L438.618 87.0824L438.475 78.8636L449.813 78.6657L449.957 86.8845L457.516 86.7525L457.675 95.8711L450.116 96.0031L450.309 107.041C450.348 109.321 451.385 110.263 453.485 110.226C454.984 110.2 456.417 109.755 457.785 109.071L457.94 117.95C455.92 119.125 453.234 119.952 450.055 120.008Z"></path>
<path mask="url(#path-1-outside-1_2_54)" stroke-linejoin="round" stroke-width="6.47359" stroke="#7523E3" d="M498.528 119.162C491.689 119.281 487.617 116.352 487.482 108.613L487.251 95.3549L483.411 95.4219L483.252 86.3033L487.092 86.2363L486.948 78.0175L498.286 77.8196L498.43 86.0384L505.989 85.9064L506.148 95.025L498.589 95.157L498.782 106.195C498.821 108.475 499.858 109.417 501.958 109.38C503.458 109.354 504.89 108.909 506.258 108.225L506.413 117.104C504.393 118.279 501.707 119.106 498.528 119.162Z"></path>
<path mask="url(#path-1-outside-1_2_54)" stroke-linejoin="round" stroke-width="6.47359" stroke="#7523E3" d="M514.454 118.224L513.887 85.7686L525.286 85.5696L525.4 92.1086C527.182 87.6368 530.131 84.7049 535.535 84.8506L535.744 96.8488L534.784 96.8656C528.845 96.9692 525.545 100.447 525.675 107.886L525.852 118.025L514.454 118.224Z"></path>
<path mask="url(#path-1-outside-1_2_54)" stroke-linejoin="round" stroke-width="6.47359" stroke="#7523E3" d="M542.556 82.3277L542.409 73.929L554.227 73.7227L554.374 82.1214L542.556 82.3277ZM543.414 117.718L542.847 85.2631L554.185 85.0652L554.752 117.52L543.414 117.718Z"></path>
<path mask="url(#path-1-outside-1_2_54)" stroke-linejoin="round" stroke-width="6.47359" stroke="#7523E3" d="M564.325 126.955L563.591 84.901L574.989 84.702L575.064 89.0214C577.237 86.283 579.956 83.8952 584.815 83.8104C592.554 83.6753 599.325 89.9781 599.506 100.357L599.508 100.477C599.692 111.035 593.145 117.57 585.467 117.704C580.547 117.79 577.629 115.621 575.486 113.198L575.723 126.756L564.325 126.955ZM581.821 108.226C585.48 108.163 588.427 105.111 588.351 100.731L588.349 100.611C588.273 96.292 585.22 93.2848 581.561 93.3487C577.841 93.4136 574.955 96.5244 575.031 100.844L575.033 100.964C575.108 105.283 578.101 108.291 581.821 108.226Z"></path>
<path mask="url(#path-1-outside-1_2_54)" stroke-linejoin="round" stroke-width="6.47359" stroke="#7523E3" d="M606.985 116.608L606.78 104.91L618.599 104.704L618.803 116.402L606.985 116.608Z"></path>
</g>
<defs>
<filter color-interpolation-filters="sRGB" filterUnits="userSpaceOnUse" height="135.994" width="621.23" y="0.13147" x="0.809564" id="filter0_d_2_54">
<feFlood result="BackgroundImageFix" flood-opacity="0"></feFlood>
<feColorMatrix result="hardAlpha" values="0 0 0 0 0 0 0 0 0 0 0 0 0 0 0 0 0 0 127 0" type="matrix" in="SourceAlpha"></feColorMatrix>
<feOffset dy="5.39466" dx="-5.39466"></feOffset>
<feComposite operator="out" in2="hardAlpha"></feComposite>
<feColorMatrix values="0 0 0 0 0.458824 0 0 0 0 0.137255 0 0 0 0 0.890196 0 0 0 1 0" type="matrix"></feColorMatrix>
<feBlend result="effect1_dropShadow_2_54" in2="BackgroundImageFix" mode="normal"></feBlend>
<feBlend result="shape" in2="effect1_dropShadow_2_54" in="SourceGraphic" mode="normal"></feBlend>
</filter>
</defs>
</svg>
