<svg xmlns="http://www.w3.org/2000/svg" fill="none" viewBox="0 0 352 213" height="213" width="352">
<g filter="url(#filter0_d_1_29)">
<mask fill="black" height="209" width="347" y="-0.636261" x="5.40353" maskUnits="userSpaceOnUse" id="path-1-outside-1_1_29">
<rect height="209" width="347" y="-0.636261" x="5.40353" fill="white"></rect>
<path d="M10.1365 52.6732L9.40353 10.6796L21.0418 10.4764L21.7748 52.47L10.1365 52.6732Z"></path>
<path d="M44.7117 52.7298C37.8727 52.8491 33.801 49.9197 33.6659 42.1809L33.4345 28.9229L29.5951 28.99L29.4359 19.8713L33.2753 19.8043L33.1319 11.5856L44.4701 11.3877L44.6136 19.6064L52.1724 19.4745L52.3316 28.5931L44.7728 28.725L44.9654 39.7633C45.0052 42.043 46.0418 42.9851 48.1415 42.9484C49.6413 42.9222 51.0737 42.4772 52.442 41.7932L52.597 50.6718C50.5772 51.8473 47.8912 52.6743 44.7117 52.7298Z"></path>
<path d="M60.1496 31.5171L59.1733 27.1535C63.1843 26.6034 65.2505 24.647 65.074 21.4096L60.4547 21.4902L60.2505 9.79202L72.0687 9.58573L72.2352 19.1243C72.3901 28.0029 67.6443 31.1462 60.1496 31.5171Z"></path>
<path d="M93.7131 51.9344C88.2539 52.0297 82.8265 50.5042 78.3306 47.3422L82.4706 40.4289C86.2329 42.8236 90.2743 44.0132 93.6338 43.9546C95.6135 43.9201 96.5629 43.3034 96.543 42.1636L96.5409 42.0436C96.5179 40.7238 94.6487 40.2163 91.2125 39.3162C84.7642 37.7485 79.6272 35.6778 79.5141 29.1988L79.512 29.0788C79.3916 22.1799 84.8438 18.2441 92.3426 18.1132C97.0819 18.0305 102.025 19.3244 105.787 21.6591L102.013 28.9261C98.6198 27.065 94.9405 25.9891 92.3609 26.0341C90.6211 26.0645 89.7328 26.7401 89.7495 27.6999L89.7516 27.8199C89.7736 29.0797 91.7038 29.6461 95.0811 30.6073C101.532 32.295 106.669 34.4257 106.779 40.7247L106.782 40.8447C106.906 47.9836 101.632 51.7962 93.7131 51.9344Z"></path>
<path d="M143.566 51.0642C137.387 51.1721 132.645 47.6543 132.533 41.2353L132.531 41.1153C132.413 34.3364 137.452 30.8279 145.071 30.6949C148.071 30.6425 151.02 31.1311 152.892 31.8186L152.883 31.2786C152.823 27.8592 150.69 25.9761 146.31 26.0525C142.891 26.1122 140.264 26.8782 137.343 28.0093L134.864 20.0714C138.497 18.5078 142.379 17.4198 147.958 17.3225C153.777 17.2209 157.761 18.5316 160.385 21.0661C162.887 23.4228 163.965 26.7645 164.045 31.3238L164.371 49.981L153.152 50.1768L153.093 46.7573C150.856 49.2568 147.826 50.9899 143.566 51.0642ZM147.521 43.8541C150.881 43.7955 153.184 41.655 153.127 38.4155L153.101 36.9157C151.893 36.4567 150.267 36.125 148.587 36.1544C145.287 36.2119 143.395 37.8052 143.438 40.2648L143.44 40.3848C143.479 42.6045 145.182 43.895 147.521 43.8541Z"></path>
<path d="M193.465 49.4732L192.732 7.47955L214.269 7.10363C219.548 7.01148 223.29 8.26635 225.792 10.6231C227.502 12.3335 228.56 14.5353 228.611 17.4149L228.613 17.5349C228.698 22.3941 225.988 25.3219 222.297 27.0065C227.426 28.5973 230.715 31.4203 230.815 37.1194L230.817 37.2394C230.943 44.4383 225.14 48.9203 215.122 49.0951L193.465 49.4732ZM217.196 20.1345L217.194 20.0145C217.154 17.6749 215.272 16.4475 211.852 16.5072L204.233 16.6402L204.362 24.0191L211.681 23.8913C215.221 23.8296 217.239 22.5941 217.196 20.1345ZM219.148 35.7028C219.109 33.4232 217.283 31.9548 213.383 32.0229L204.505 32.1778L204.64 39.9167L213.638 39.7596C217.238 39.6968 219.193 38.2824 219.151 35.8228L219.148 35.7028Z"></path>
<path d="M248 49.2414C241.821 49.3492 237.079 45.8314 236.967 39.4124L236.964 39.2924C236.846 32.5135 241.886 29.005 249.504 28.872C252.504 28.8196 255.453 29.3082 257.325 29.9957L257.316 29.4558C257.256 26.0363 255.123 24.1532 250.744 24.2297C247.324 24.2893 244.697 25.0553 241.776 26.1865L239.298 18.2485C242.931 16.6849 246.812 15.597 252.392 15.4996C258.211 15.398 262.194 16.7087 264.819 19.2433C267.32 21.6 268.399 24.9416 268.478 29.5009L268.804 48.1581L257.586 48.3539L257.526 44.9344C255.289 47.4339 252.259 49.167 248 49.2414ZM251.955 42.0312C255.314 41.9726 257.617 39.8321 257.56 36.5926L257.534 35.0928C256.326 34.6338 254.7 34.3021 253.02 34.3315C249.721 34.3891 247.828 35.9823 247.871 38.442L247.873 38.5619C247.912 40.7816 249.615 42.0721 251.955 42.0312Z"></path>
<path d="M293.332 48.5101C283.493 48.6818 276.22 41.1276 276.06 31.949L276.058 31.829C275.898 22.6504 282.842 14.788 293.1 14.609C299.759 14.4927 304.249 17.2948 307.084 21.566L299.505 27.4591C297.849 25.3877 296.086 24.0983 293.387 24.1454C289.667 24.2103 287.025 27.557 287.094 31.5164L287.096 31.6363C287.17 35.8357 289.865 38.9691 293.704 38.9021C296.464 38.854 298.182 37.5638 299.885 35.4337L307.6 40.8199C304.678 45.3116 300.411 48.3865 293.332 48.5101Z"></path>
<path d="M314.755 47.356L313.991 3.5627L325.389 3.36374L325.776 25.5604L334.406 14.5481L347.304 14.3229L336.251 27.4778L348.17 46.7728L335.572 46.9927L328.899 36.0075L326.019 39.4782L326.153 47.1571L314.755 47.356Z"></path>
<path d="M37.6785 124.863C30.8396 124.983 26.7678 122.053 26.6327 114.315L26.4013 101.057L22.5619 101.124L22.4027 92.0051L26.2421 91.9381L26.0987 83.7193L37.437 83.5214L37.5804 91.7402L45.1393 91.6082L45.2984 100.727L37.7396 100.859L37.9323 111.897C37.9721 114.177 39.0086 115.119 41.1083 115.082C42.6081 115.056 44.0406 114.611 45.4088 113.927L45.5638 122.806C43.544 123.981 40.858 124.808 37.6785 124.863Z"></path>
<path d="M69.2967 124.432C58.9783 124.612 51.3465 117.124 51.1852 107.885L51.1831 107.765C51.0218 98.5266 58.4456 90.6558 68.824 90.4747C79.2025 90.2935 86.8343 97.7815 86.9956 107.02L86.9977 107.14C87.1589 116.379 79.7351 124.249 69.2967 124.432ZM69.2481 114.771C73.3875 114.699 76.0295 111.352 75.9614 107.453L75.9593 107.333C75.8892 103.313 72.891 100.005 68.8716 100.075C64.7322 100.148 62.1502 103.493 62.2193 107.453L62.2214 107.573C62.2905 111.532 65.2287 114.841 69.2481 114.771Z"></path>
<path d="M131.902 123.279C124.463 123.409 117.403 121.192 112.103 116.663L118.447 108.811C122.704 112.038 127.294 113.698 132.153 113.613C135.333 113.557 136.994 112.448 136.962 110.649L136.96 110.529C136.929 108.729 135.533 107.853 129.75 106.574C120.776 104.69 113.833 102.291 113.683 93.7123L113.681 93.5923C113.545 85.7935 119.625 80.0465 129.704 79.8706C136.843 79.746 142.455 81.5683 147.079 85.1481L141.403 93.4685C137.515 90.7759 133.292 89.4694 129.572 89.5343C126.753 89.5835 125.393 90.7475 125.42 92.3072L125.422 92.4272C125.456 94.3469 126.91 95.1617 132.812 96.3788C142.448 98.311 148.501 101.326 148.638 109.185L148.64 109.305C148.79 117.883 142.1 123.101 131.902 123.279Z"></path>
<path d="M172.597 122.628C162.759 122.8 155.486 115.246 155.326 106.067L155.323 105.947C155.163 96.7688 162.107 88.9064 172.366 88.7274C179.025 88.6111 183.514 91.4132 186.349 95.6844L178.771 101.578C177.114 99.5061 175.352 98.2167 172.652 98.2638C168.933 98.3287 166.291 101.675 166.36 105.635L166.362 105.755C166.435 109.954 169.13 113.088 172.97 113.021C175.729 112.972 177.447 111.682 179.15 109.552L186.865 114.938C183.943 119.43 179.676 122.505 172.597 122.628Z"></path>
<path d="M194.021 121.474L193.256 77.6811L204.654 77.4821L204.93 93.2597C206.982 90.5235 209.939 88.0115 214.558 87.9309C221.457 87.8105 225.676 92.2975 225.805 99.6764L226.176 120.913L214.837 121.111L214.531 103.534C214.468 99.9343 212.574 98.047 209.815 98.0952C207.055 98.1434 205.049 100.099 205.112 103.698L205.419 121.275L194.021 121.474Z"></path>
<path d="M251.613 121.249C241.294 121.429 233.662 113.941 233.501 104.703L233.499 104.583C233.338 95.3443 240.762 87.4735 251.14 87.2923C261.518 87.1112 269.15 94.5991 269.312 103.838L269.314 103.958C269.475 113.196 262.051 121.067 251.613 121.249ZM251.564 111.589C255.703 111.516 258.345 108.17 258.277 104.27L258.275 104.15C258.205 100.131 255.207 96.8228 251.188 96.893C247.048 96.9652 244.466 100.311 244.535 104.27L244.537 104.39C244.607 108.35 247.545 111.659 251.564 111.589Z"></path>
<path d="M293.981 120.51C283.663 120.69 276.031 113.202 275.87 103.963L275.868 103.843C275.706 94.6047 283.13 86.734 293.509 86.5528C303.887 86.3716 311.519 93.8596 311.68 103.098L311.682 103.218C311.843 112.457 304.42 120.328 293.981 120.51ZM293.933 110.849C298.072 110.777 300.714 107.43 300.646 103.531L300.644 103.411C300.574 99.3915 297.576 96.0833 293.556 96.1534C289.417 96.2257 286.835 99.5713 286.904 103.531L286.906 103.651C286.975 107.61 289.913 110.919 293.933 110.849Z"></path>
<path d="M320.079 119.274L319.314 75.4807L330.653 75.2828L331.417 119.076L320.079 119.274Z"></path>
<path d="M36.0414 196.243L35.3084 154.249L53.3657 153.934C63.9241 153.75 70.8583 159.09 71.0196 168.328L71.0217 168.448C71.1955 178.407 63.6678 183.759 53.2893 183.94L47.4702 184.042L47.6797 196.04L36.0414 196.243ZM47.3111 174.923L52.8902 174.826C56.9696 174.754 59.5105 172.49 59.4529 169.19L59.4508 169.07C59.3879 165.471 56.7759 163.656 52.6365 163.728L47.1173 163.825L47.3111 174.923Z"></path>
<path d="M95.0242 195.993C84.7058 196.174 77.0739 188.686 76.9127 179.447L76.9106 179.327C76.7493 170.088 84.1731 162.218 94.5515 162.037C104.93 161.855 112.562 169.343 112.723 178.582L112.725 178.702C112.886 187.941 105.463 195.811 95.0242 195.993ZM94.9756 186.333C99.1149 186.261 101.757 182.914 101.689 179.015L101.687 178.895C101.617 174.875 98.6184 171.567 94.599 171.637C90.4597 171.709 87.8777 175.055 87.9468 179.014L87.9489 179.134C88.018 183.094 90.9562 186.403 94.9756 186.333Z"></path>
<path d="M120.989 204.362L120.255 162.308L131.653 162.109L131.729 166.428C133.901 163.69 136.62 161.302 141.479 161.217C149.218 161.082 155.989 167.385 156.17 177.764L156.172 177.884C156.357 188.442 149.81 194.977 142.131 195.111C137.212 195.197 134.293 193.028 132.151 190.605L132.387 204.163L120.989 204.362ZM138.485 185.633C142.144 185.57 145.092 182.518 145.015 178.138L145.013 178.018C144.938 173.699 141.885 170.692 138.225 170.756C134.506 170.821 131.62 173.931 131.695 178.251L131.697 178.371C131.773 182.69 134.766 185.698 138.485 185.633Z"></path>
<path d="M229.021 187.594L223.256 194.235L218.564 190.177C215.006 192.639 210.65 194.035 205.851 194.119C192.893 194.345 183.126 184.854 182.915 172.796L182.913 172.676C182.703 160.618 192.25 150.67 205.209 150.444C218.167 150.217 227.934 159.708 228.144 171.767L228.146 171.887C228.224 176.326 226.916 180.489 224.637 184.01L229.021 187.594ZM205.791 183.799C207.29 183.772 208.725 183.447 209.976 182.945L204.07 178.068L209.834 171.366L215.625 176.486C216.081 175.158 216.297 173.774 216.271 172.274L216.269 172.154C216.163 166.095 211.691 160.832 205.272 160.944C198.853 161.056 194.686 166.41 194.791 172.469L194.793 172.589C194.899 178.648 199.312 183.912 205.791 183.799Z"></path>
<path d="M247.726 193.268C240.827 193.389 236.547 188.842 236.418 181.464L236.048 160.287L247.447 160.088L247.753 177.665C247.815 181.205 249.708 183.092 252.468 183.044C255.228 182.996 257.234 181.04 257.172 177.501L256.865 159.923L268.203 159.726L268.77 192.181L257.432 192.379L257.353 187.879C255.301 190.615 252.345 193.187 247.726 193.268Z"></path>
<path d="M277.318 156.626L277.171 148.227L288.99 148.021L289.136 156.42L277.318 156.626ZM278.176 192.016L277.609 159.561L288.948 159.363L289.514 191.819L278.176 192.016Z"></path>
<path d="M297.84 191.673L297.709 184.174L312.368 167.956L297.97 168.207L297.813 159.209L327.329 158.694L327.458 166.132L312.679 182.353L327.737 182.09L327.895 191.149L297.84 191.673Z"></path>
</mask>
<path fill="white" d="M10.1365 52.6732L9.40353 10.6796L21.0418 10.4764L21.7748 52.47L10.1365 52.6732Z"></path>
<path fill="white" d="M44.7117 52.7298C37.8727 52.8491 33.801 49.9197 33.6659 42.1809L33.4345 28.9229L29.5951 28.99L29.4359 19.8713L33.2753 19.8043L33.1319 11.5856L44.4701 11.3877L44.6136 19.6064L52.1724 19.4745L52.3316 28.5931L44.7728 28.725L44.9654 39.7633C45.0052 42.043 46.0418 42.9851 48.1415 42.9484C49.6413 42.9222 51.0737 42.4772 52.442 41.7932L52.597 50.6718C50.5772 51.8473 47.8912 52.6743 44.7117 52.7298Z"></path>
<path fill="white" d="M60.1496 31.5171L59.1733 27.1535C63.1843 26.6034 65.2505 24.647 65.074 21.4096L60.4547 21.4902L60.2505 9.79202L72.0687 9.58573L72.2352 19.1243C72.3901 28.0029 67.6443 31.1462 60.1496 31.5171Z"></path>
<path fill="white" d="M93.7131 51.9344C88.2539 52.0297 82.8265 50.5042 78.3306 47.3422L82.4706 40.4289C86.2329 42.8236 90.2743 44.0132 93.6338 43.9546C95.6135 43.9201 96.5629 43.3034 96.543 42.1636L96.5409 42.0436C96.5179 40.7238 94.6487 40.2163 91.2125 39.3162C84.7642 37.7485 79.6272 35.6778 79.5141 29.1988L79.512 29.0788C79.3916 22.1799 84.8438 18.2441 92.3426 18.1132C97.0819 18.0305 102.025 19.3244 105.787 21.6591L102.013 28.9261C98.6198 27.065 94.9405 25.9891 92.3609 26.0341C90.6211 26.0645 89.7328 26.7401 89.7495 27.6999L89.7516 27.8199C89.7736 29.0797 91.7038 29.6461 95.0811 30.6073C101.532 32.295 106.669 34.4257 106.779 40.7247L106.782 40.8447C106.906 47.9836 101.632 51.7962 93.7131 51.9344Z"></path>
<path fill="white" d="M143.566 51.0642C137.387 51.1721 132.645 47.6543 132.533 41.2353L132.531 41.1153C132.413 34.3364 137.452 30.8279 145.071 30.6949C148.071 30.6425 151.02 31.1311 152.892 31.8186L152.883 31.2786C152.823 27.8592 150.69 25.9761 146.31 26.0525C142.891 26.1122 140.264 26.8782 137.343 28.0093L134.864 20.0714C138.497 18.5078 142.379 17.4198 147.958 17.3225C153.777 17.2209 157.761 18.5316 160.385 21.0661C162.887 23.4228 163.965 26.7645 164.045 31.3238L164.371 49.981L153.152 50.1768L153.093 46.7573C150.856 49.2568 147.826 50.9899 143.566 51.0642ZM147.521 43.8541C150.881 43.7955 153.184 41.655 153.127 38.4155L153.101 36.9157C151.893 36.4567 150.267 36.125 148.587 36.1544C145.287 36.2119 143.395 37.8052 143.438 40.2648L143.44 40.3848C143.479 42.6045 145.182 43.895 147.521 43.8541Z"></path>
<path fill="white" d="M193.465 49.4732L192.732 7.47955L214.269 7.10363C219.548 7.01148 223.29 8.26635 225.792 10.6231C227.502 12.3335 228.56 14.5353 228.611 17.4149L228.613 17.5349C228.698 22.3941 225.988 25.3219 222.297 27.0065C227.426 28.5973 230.715 31.4203 230.815 37.1194L230.817 37.2394C230.943 44.4383 225.14 48.9203 215.122 49.0951L193.465 49.4732ZM217.196 20.1345L217.194 20.0145C217.154 17.6749 215.272 16.4475 211.852 16.5072L204.233 16.6402L204.362 24.0191L211.681 23.8913C215.221 23.8296 217.239 22.5941 217.196 20.1345ZM219.148 35.7028C219.109 33.4232 217.283 31.9548 213.383 32.0229L204.505 32.1778L204.64 39.9167L213.638 39.7596C217.238 39.6968 219.193 38.2824 219.151 35.8228L219.148 35.7028Z"></path>
<path fill="white" d="M248 49.2414C241.821 49.3492 237.079 45.8314 236.967 39.4124L236.964 39.2924C236.846 32.5135 241.886 29.005 249.504 28.872C252.504 28.8196 255.453 29.3082 257.325 29.9957L257.316 29.4558C257.256 26.0363 255.123 24.1532 250.744 24.2297C247.324 24.2893 244.697 25.0553 241.776 26.1865L239.298 18.2485C242.931 16.6849 246.812 15.597 252.392 15.4996C258.211 15.398 262.194 16.7087 264.819 19.2433C267.32 21.6 268.399 24.9416 268.478 29.5009L268.804 48.1581L257.586 48.3539L257.526 44.9344C255.289 47.4339 252.259 49.167 248 49.2414ZM251.955 42.0312C255.314 41.9726 257.617 39.8321 257.56 36.5926L257.534 35.0928C256.326 34.6338 254.7 34.3021 253.02 34.3315C249.721 34.3891 247.828 35.9823 247.871 38.442L247.873 38.5619C247.912 40.7816 249.615 42.0721 251.955 42.0312Z"></path>
<path fill="white" d="M293.332 48.5101C283.493 48.6818 276.22 41.1276 276.06 31.949L276.058 31.829C275.898 22.6504 282.842 14.788 293.1 14.609C299.759 14.4927 304.249 17.2948 307.084 21.566L299.505 27.4591C297.849 25.3877 296.086 24.0983 293.387 24.1454C289.667 24.2103 287.025 27.557 287.094 31.5164L287.096 31.6363C287.17 35.8357 289.865 38.9691 293.704 38.9021C296.464 38.854 298.182 37.5638 299.885 35.4337L307.6 40.8199C304.678 45.3116 300.411 48.3865 293.332 48.5101Z"></path>
<path fill="white" d="M314.755 47.356L313.991 3.5627L325.389 3.36374L325.776 25.5604L334.406 14.5481L347.304 14.3229L336.251 27.4778L348.17 46.7728L335.572 46.9927L328.899 36.0075L326.019 39.4782L326.153 47.1571L314.755 47.356Z"></path>
<path fill="white" d="M37.6785 124.863C30.8396 124.983 26.7678 122.053 26.6327 114.315L26.4013 101.057L22.5619 101.124L22.4027 92.0051L26.2421 91.9381L26.0987 83.7193L37.437 83.5214L37.5804 91.7402L45.1393 91.6082L45.2984 100.727L37.7396 100.859L37.9323 111.897C37.9721 114.177 39.0086 115.119 41.1083 115.082C42.6081 115.056 44.0406 114.611 45.4088 113.927L45.5638 122.806C43.544 123.981 40.858 124.808 37.6785 124.863Z"></path>
<path fill="white" d="M69.2967 124.432C58.9783 124.612 51.3465 117.124 51.1852 107.885L51.1831 107.765C51.0218 98.5266 58.4456 90.6558 68.824 90.4747C79.2025 90.2935 86.8343 97.7815 86.9956 107.02L86.9977 107.14C87.1589 116.379 79.7351 124.249 69.2967 124.432ZM69.2481 114.771C73.3875 114.699 76.0295 111.352 75.9614 107.453L75.9593 107.333C75.8892 103.313 72.891 100.005 68.8716 100.075C64.7322 100.148 62.1502 103.493 62.2193 107.453L62.2214 107.573C62.2905 111.532 65.2287 114.841 69.2481 114.771Z"></path>
<path fill="white" d="M131.902 123.279C124.463 123.409 117.403 121.192 112.103 116.663L118.447 108.811C122.704 112.038 127.294 113.698 132.153 113.613C135.333 113.557 136.994 112.448 136.962 110.649L136.96 110.529C136.929 108.729 135.533 107.853 129.75 106.574C120.776 104.69 113.833 102.291 113.683 93.7123L113.681 93.5923C113.545 85.7935 119.625 80.0465 129.704 79.8706C136.843 79.746 142.455 81.5683 147.079 85.1481L141.403 93.4685C137.515 90.7759 133.292 89.4694 129.572 89.5343C126.753 89.5835 125.393 90.7475 125.42 92.3072L125.422 92.4272C125.456 94.3469 126.91 95.1617 132.812 96.3788C142.448 98.311 148.501 101.326 148.638 109.185L148.64 109.305C148.79 117.883 142.1 123.101 131.902 123.279Z"></path>
<path fill="white" d="M172.597 122.628C162.759 122.8 155.486 115.246 155.326 106.067L155.323 105.947C155.163 96.7688 162.107 88.9064 172.366 88.7274C179.025 88.6111 183.514 91.4132 186.349 95.6844L178.771 101.578C177.114 99.5061 175.352 98.2167 172.652 98.2638C168.933 98.3287 166.291 101.675 166.36 105.635L166.362 105.755C166.435 109.954 169.13 113.088 172.97 113.021C175.729 112.972 177.447 111.682 179.15 109.552L186.865 114.938C183.943 119.43 179.676 122.505 172.597 122.628Z"></path>
<path fill="white" d="M194.021 121.474L193.256 77.6811L204.654 77.4821L204.93 93.2597C206.982 90.5235 209.939 88.0115 214.558 87.9309C221.457 87.8105 225.676 92.2975 225.805 99.6764L226.176 120.913L214.837 121.111L214.531 103.534C214.468 99.9343 212.574 98.047 209.815 98.0952C207.055 98.1434 205.049 100.099 205.112 103.698L205.419 121.275L194.021 121.474Z"></path>
<path fill="white" d="M251.613 121.249C241.294 121.429 233.662 113.941 233.501 104.703L233.499 104.583C233.338 95.3443 240.762 87.4735 251.14 87.2923C261.518 87.1112 269.15 94.5991 269.312 103.838L269.314 103.958C269.475 113.196 262.051 121.067 251.613 121.249ZM251.564 111.589C255.703 111.516 258.345 108.17 258.277 104.27L258.275 104.15C258.205 100.131 255.207 96.8228 251.188 96.893C247.048 96.9652 244.466 100.311 244.535 104.27L244.537 104.39C244.607 108.35 247.545 111.659 251.564 111.589Z"></path>
<path fill="white" d="M293.981 120.51C283.663 120.69 276.031 113.202 275.87 103.963L275.868 103.843C275.706 94.6047 283.13 86.734 293.509 86.5528C303.887 86.3716 311.519 93.8596 311.68 103.098L311.682 103.218C311.843 112.457 304.42 120.328 293.981 120.51ZM293.933 110.849C298.072 110.777 300.714 107.43 300.646 103.531L300.644 103.411C300.574 99.3915 297.576 96.0833 293.556 96.1534C289.417 96.2257 286.835 99.5713 286.904 103.531L286.906 103.651C286.975 107.61 289.913 110.919 293.933 110.849Z"></path>
<path fill="white" d="M320.079 119.274L319.314 75.4807L330.653 75.2828L331.417 119.076L320.079 119.274Z"></path>
<path fill="white" d="M36.0414 196.243L35.3084 154.249L53.3657 153.934C63.9241 153.75 70.8583 159.09 71.0196 168.328L71.0217 168.448C71.1955 178.407 63.6678 183.759 53.2893 183.94L47.4702 184.042L47.6797 196.04L36.0414 196.243ZM47.3111 174.923L52.8902 174.826C56.9696 174.754 59.5105 172.49 59.4529 169.19L59.4508 169.07C59.3879 165.471 56.7759 163.656 52.6365 163.728L47.1173 163.825L47.3111 174.923Z"></path>
<path fill="white" d="M95.0242 195.993C84.7058 196.174 77.0739 188.686 76.9127 179.447L76.9106 179.327C76.7493 170.088 84.1731 162.218 94.5515 162.037C104.93 161.855 112.562 169.343 112.723 178.582L112.725 178.702C112.886 187.941 105.463 195.811 95.0242 195.993ZM94.9756 186.333C99.1149 186.261 101.757 182.914 101.689 179.015L101.687 178.895C101.617 174.875 98.6184 171.567 94.599 171.637C90.4597 171.709 87.8777 175.055 87.9468 179.014L87.9489 179.134C88.018 183.094 90.9562 186.403 94.9756 186.333Z"></path>
<path fill="white" d="M120.989 204.362L120.255 162.308L131.653 162.109L131.729 166.428C133.901 163.69 136.62 161.302 141.479 161.217C149.218 161.082 155.989 167.385 156.17 177.764L156.172 177.884C156.357 188.442 149.81 194.977 142.131 195.111C137.212 195.197 134.293 193.028 132.151 190.605L132.387 204.163L120.989 204.362ZM138.485 185.633C142.144 185.57 145.092 182.518 145.015 178.138L145.013 178.018C144.938 173.699 141.885 170.692 138.225 170.756C134.506 170.821 131.62 173.931 131.695 178.251L131.697 178.371C131.773 182.69 134.766 185.698 138.485 185.633Z"></path>
<path fill="white" d="M229.021 187.594L223.256 194.235L218.564 190.177C215.006 192.639 210.65 194.035 205.851 194.119C192.893 194.345 183.126 184.854 182.915 172.796L182.913 172.676C182.703 160.618 192.25 150.67 205.209 150.444C218.167 150.217 227.934 159.708 228.144 171.767L228.146 171.887C228.224 176.326 226.916 180.489 224.637 184.01L229.021 187.594ZM205.791 183.799C207.29 183.772 208.725 183.447 209.976 182.945L204.07 178.068L209.834 171.366L215.625 176.486C216.081 175.158 216.297 173.774 216.271 172.274L216.269 172.154C216.163 166.095 211.691 160.832 205.272 160.944C198.853 161.056 194.686 166.41 194.791 172.469L194.793 172.589C194.899 178.648 199.312 183.912 205.791 183.799Z"></path>
<path fill="white" d="M247.726 193.268C240.827 193.389 236.547 188.842 236.418 181.464L236.048 160.287L247.447 160.088L247.753 177.665C247.815 181.205 249.708 183.092 252.468 183.044C255.228 182.996 257.234 181.04 257.172 177.501L256.865 159.923L268.203 159.726L268.77 192.181L257.432 192.379L257.353 187.879C255.301 190.615 252.345 193.187 247.726 193.268Z"></path>
<path fill="white" d="M277.318 156.626L277.171 148.227L288.99 148.021L289.136 156.42L277.318 156.626ZM278.176 192.016L277.609 159.561L288.948 159.363L289.514 191.819L278.176 192.016Z"></path>
<path fill="white" d="M297.84 191.673L297.709 184.174L312.368 167.956L297.97 168.207L297.813 159.209L327.329 158.694L327.458 166.132L312.679 182.353L327.737 182.09L327.895 191.149L297.84 191.673Z"></path>
<path mask="url(#path-1-outside-1_1_29)" stroke-linejoin="round" stroke-width="6.47359" stroke="#7523E3" d="M10.1365 52.6732L9.40353 10.6796L21.0418 10.4764L21.7748 52.47L10.1365 52.6732Z"></path>
<path mask="url(#path-1-outside-1_1_29)" stroke-linejoin="round" stroke-width="6.47359" stroke="#7523E3" d="M44.7117 52.7298C37.8727 52.8491 33.801 49.9197 33.6659 42.1809L33.4345 28.9229L29.5951 28.99L29.4359 19.8713L33.2753 19.8043L33.1319 11.5856L44.4701 11.3877L44.6136 19.6064L52.1724 19.4745L52.3316 28.5931L44.7728 28.725L44.9654 39.7633C45.0052 42.043 46.0418 42.9851 48.1415 42.9484C49.6413 42.9222 51.0737 42.4772 52.442 41.7932L52.597 50.6718C50.5772 51.8473 47.8912 52.6743 44.7117 52.7298Z"></path>
<path mask="url(#path-1-outside-1_1_29)" stroke-linejoin="round" stroke-width="6.47359" stroke="#7523E3" d="M60.1496 31.5171L59.1733 27.1535C63.1843 26.6034 65.2505 24.647 65.074 21.4096L60.4547 21.4902L60.2505 9.79202L72.0687 9.58573L72.2352 19.1243C72.3901 28.0029 67.6443 31.1462 60.1496 31.5171Z"></path>
<path mask="url(#path-1-outside-1_1_29)" stroke-linejoin="round" stroke-width="6.47359" stroke="#7523E3" d="M93.7131 51.9344C88.2539 52.0297 82.8265 50.5042 78.3306 47.3422L82.4706 40.4289C86.2329 42.8236 90.2743 44.0132 93.6338 43.9546C95.6135 43.9201 96.5629 43.3034 96.543 42.1636L96.5409 42.0436C96.5179 40.7238 94.6487 40.2163 91.2125 39.3162C84.7642 37.7485 79.6272 35.6778 79.5141 29.1988L79.512 29.0788C79.3916 22.1799 84.8438 18.2441 92.3426 18.1132C97.0819 18.0305 102.025 19.3244 105.787 21.6591L102.013 28.9261C98.6198 27.065 94.9405 25.9891 92.3609 26.0341C90.6211 26.0645 89.7328 26.7401 89.7495 27.6999L89.7516 27.8199C89.7736 29.0797 91.7038 29.6461 95.0811 30.6073C101.532 32.295 106.669 34.4257 106.779 40.7247L106.782 40.8447C106.906 47.9836 101.632 51.7962 93.7131 51.9344Z"></path>
<path mask="url(#path-1-outside-1_1_29)" stroke-linejoin="round" stroke-width="6.47359" stroke="#7523E3" d="M143.566 51.0642C137.387 51.1721 132.645 47.6543 132.533 41.2353L132.531 41.1153C132.413 34.3364 137.452 30.8279 145.071 30.6949C148.071 30.6425 151.02 31.1311 152.892 31.8186L152.883 31.2786C152.823 27.8592 150.69 25.9761 146.31 26.0525C142.891 26.1122 140.264 26.8782 137.343 28.0093L134.864 20.0714C138.497 18.5078 142.379 17.4198 147.958 17.3225C153.777 17.2209 157.761 18.5316 160.385 21.0661C162.887 23.4228 163.965 26.7645 164.045 31.3238L164.371 49.981L153.152 50.1768L153.093 46.7573C150.856 49.2568 147.826 50.9899 143.566 51.0642ZM147.521 43.8541C150.881 43.7955 153.184 41.655 153.127 38.4155L153.101 36.9157C151.893 36.4567 150.267 36.125 148.587 36.1544C145.287 36.2119 143.395 37.8052 143.438 40.2648L143.44 40.3848C143.479 42.6045 145.182 43.895 147.521 43.8541Z"></path>
<path mask="url(#path-1-outside-1_1_29)" stroke-linejoin="round" stroke-width="6.47359" stroke="#7523E3" d="M193.465 49.4732L192.732 7.47955L214.269 7.10363C219.548 7.01148 223.29 8.26635 225.792 10.6231C227.502 12.3335 228.56 14.5353 228.611 17.4149L228.613 17.5349C228.698 22.3941 225.988 25.3219 222.297 27.0065C227.426 28.5973 230.715 31.4203 230.815 37.1194L230.817 37.2394C230.943 44.4383 225.14 48.9203 215.122 49.0951L193.465 49.4732ZM217.196 20.1345L217.194 20.0145C217.154 17.6749 215.272 16.4475 211.852 16.5072L204.233 16.6402L204.362 24.0191L211.681 23.8913C215.221 23.8296 217.239 22.5941 217.196 20.1345ZM219.148 35.7028C219.109 33.4232 217.283 31.9548 213.383 32.0229L204.505 32.1778L204.64 39.9167L213.638 39.7596C217.238 39.6968 219.193 38.2824 219.151 35.8228L219.148 35.7028Z"></path>
<path mask="url(#path-1-outside-1_1_29)" stroke-linejoin="round" stroke-width="6.47359" stroke="#7523E3" d="M248 49.2414C241.821 49.3492 237.079 45.8314 236.967 39.4124L236.964 39.2924C236.846 32.5135 241.886 29.005 249.504 28.872C252.504 28.8196 255.453 29.3082 257.325 29.9957L257.316 29.4558C257.256 26.0363 255.123 24.1532 250.744 24.2297C247.324 24.2893 244.697 25.0553 241.776 26.1865L239.298 18.2485C242.931 16.6849 246.812 15.597 252.392 15.4996C258.211 15.398 262.194 16.7087 264.819 19.2433C267.32 21.6 268.399 24.9416 268.478 29.5009L268.804 48.1581L257.586 48.3539L257.526 44.9344C255.289 47.4339 252.259 49.167 248 49.2414ZM251.955 42.0312C255.314 41.9726 257.617 39.8321 257.56 36.5926L257.534 35.0928C256.326 34.6338 254.7 34.3021 253.02 34.3315C249.721 34.3891 247.828 35.9823 247.871 38.442L247.873 38.5619C247.912 40.7816 249.615 42.0721 251.955 42.0312Z"></path>
<path mask="url(#path-1-outside-1_1_29)" stroke-linejoin="round" stroke-width="6.47359" stroke="#7523E3" d="M293.332 48.5101C283.493 48.6818 276.22 41.1276 276.06 31.949L276.058 31.829C275.898 22.6504 282.842 14.788 293.1 14.609C299.759 14.4927 304.249 17.2948 307.084 21.566L299.505 27.4591C297.849 25.3877 296.086 24.0983 293.387 24.1454C289.667 24.2103 287.025 27.557 287.094 31.5164L287.096 31.6363C287.17 35.8357 289.865 38.9691 293.704 38.9021C296.464 38.854 298.182 37.5638 299.885 35.4337L307.6 40.8199C304.678 45.3116 300.411 48.3865 293.332 48.5101Z"></path>
<path mask="url(#path-1-outside-1_1_29)" stroke-linejoin="round" stroke-width="6.47359" stroke="#7523E3" d="M314.755 47.356L313.991 3.5627L325.389 3.36374L325.776 25.5604L334.406 14.5481L347.304 14.3229L336.251 27.4778L348.17 46.7728L335.572 46.9927L328.899 36.0075L326.019 39.4782L326.153 47.1571L314.755 47.356Z"></path>
<path mask="url(#path-1-outside-1_1_29)" stroke-linejoin="round" stroke-width="6.47359" stroke="#7523E3" d="M37.6785 124.863C30.8396 124.983 26.7678 122.053 26.6327 114.315L26.4013 101.057L22.5619 101.124L22.4027 92.0051L26.2421 91.9381L26.0987 83.7193L37.437 83.5214L37.5804 91.7402L45.1393 91.6082L45.2984 100.727L37.7396 100.859L37.9323 111.897C37.9721 114.177 39.0086 115.119 41.1083 115.082C42.6081 115.056 44.0406 114.611 45.4088 113.927L45.5638 122.806C43.544 123.981 40.858 124.808 37.6785 124.863Z"></path>
<path mask="url(#path-1-outside-1_1_29)" stroke-linejoin="round" stroke-width="6.47359" stroke="#7523E3" d="M69.2967 124.432C58.9783 124.612 51.3465 117.124 51.1852 107.885L51.1831 107.765C51.0218 98.5266 58.4456 90.6558 68.824 90.4747C79.2025 90.2935 86.8343 97.7815 86.9956 107.02L86.9977 107.14C87.1589 116.379 79.7351 124.249 69.2967 124.432ZM69.2481 114.771C73.3875 114.699 76.0295 111.352 75.9614 107.453L75.9593 107.333C75.8892 103.313 72.891 100.005 68.8716 100.075C64.7322 100.148 62.1502 103.493 62.2193 107.453L62.2214 107.573C62.2905 111.532 65.2287 114.841 69.2481 114.771Z"></path>
<path mask="url(#path-1-outside-1_1_29)" stroke-linejoin="round" stroke-width="6.47359" stroke="#7523E3" d="M131.902 123.279C124.463 123.409 117.403 121.192 112.103 116.663L118.447 108.811C122.704 112.038 127.294 113.698 132.153 113.613C135.333 113.557 136.994 112.448 136.962 110.649L136.96 110.529C136.929 108.729 135.533 107.853 129.75 106.574C120.776 104.69 113.833 102.291 113.683 93.7123L113.681 93.5923C113.545 85.7935 119.625 80.0465 129.704 79.8706C136.843 79.746 142.455 81.5683 147.079 85.1481L141.403 93.4685C137.515 90.7759 133.292 89.4694 129.572 89.5343C126.753 89.5835 125.393 90.7475 125.42 92.3072L125.422 92.4272C125.456 94.3469 126.91 95.1617 132.812 96.3788C142.448 98.311 148.501 101.326 148.638 109.185L148.64 109.305C148.79 117.883 142.1 123.101 131.902 123.279Z"></path>
<path mask="url(#path-1-outside-1_1_29)" stroke-linejoin="round" stroke-width="6.47359" stroke="#7523E3" d="M172.597 122.628C162.759 122.8 155.486 115.246 155.326 106.067L155.323 105.947C155.163 96.7688 162.107 88.9064 172.366 88.7274C179.025 88.6111 183.514 91.4132 186.349 95.6844L178.771 101.578C177.114 99.5061 175.352 98.2167 172.652 98.2638C168.933 98.3287 166.291 101.675 166.36 105.635L166.362 105.755C166.435 109.954 169.13 113.088 172.97 113.021C175.729 112.972 177.447 111.682 179.15 109.552L186.865 114.938C183.943 119.43 179.676 122.505 172.597 122.628Z"></path>
<path mask="url(#path-1-outside-1_1_29)" stroke-linejoin="round" stroke-width="6.47359" stroke="#7523E3" d="M194.021 121.474L193.256 77.6811L204.654 77.4821L204.93 93.2597C206.982 90.5235 209.939 88.0115 214.558 87.9309C221.457 87.8105 225.676 92.2975 225.805 99.6764L226.176 120.913L214.837 121.111L214.531 103.534C214.468 99.9343 212.574 98.047 209.815 98.0952C207.055 98.1434 205.049 100.099 205.112 103.698L205.419 121.275L194.021 121.474Z"></path>
<path mask="url(#path-1-outside-1_1_29)" stroke-linejoin="round" stroke-width="6.47359" stroke="#7523E3" d="M251.613 121.249C241.294 121.429 233.662 113.941 233.501 104.703L233.499 104.583C233.338 95.3443 240.762 87.4735 251.14 87.2923C261.518 87.1112 269.15 94.5991 269.312 103.838L269.314 103.958C269.475 113.196 262.051 121.067 251.613 121.249ZM251.564 111.589C255.703 111.516 258.345 108.17 258.277 104.27L258.275 104.15C258.205 100.131 255.207 96.8228 251.188 96.893C247.048 96.9652 244.466 100.311 244.535 104.27L244.537 104.39C244.607 108.35 247.545 111.659 251.564 111.589Z"></path>
<path mask="url(#path-1-outside-1_1_29)" stroke-linejoin="round" stroke-width="6.47359" stroke="#7523E3" d="M293.981 120.51C283.663 120.69 276.031 113.202 275.87 103.963L275.868 103.843C275.706 94.6047 283.13 86.734 293.509 86.5528C303.887 86.3716 311.519 93.8596 311.68 103.098L311.682 103.218C311.843 112.457 304.42 120.328 293.981 120.51ZM293.933 110.849C298.072 110.777 300.714 107.43 300.646 103.531L300.644 103.411C300.574 99.3915 297.576 96.0833 293.556 96.1534C289.417 96.2257 286.835 99.5713 286.904 103.531L286.906 103.651C286.975 107.61 289.913 110.919 293.933 110.849Z"></path>
<path mask="url(#path-1-outside-1_1_29)" stroke-linejoin="round" stroke-width="6.47359" stroke="#7523E3" d="M320.079 119.274L319.314 75.4807L330.653 75.2828L331.417 119.076L320.079 119.274Z"></path>
<path mask="url(#path-1-outside-1_1_29)" stroke-linejoin="round" stroke-width="6.47359" stroke="#7523E3" d="M36.0414 196.243L35.3084 154.249L53.3657 153.934C63.9241 153.75 70.8583 159.09 71.0196 168.328L71.0217 168.448C71.1955 178.407 63.6678 183.759 53.2893 183.94L47.4702 184.042L47.6797 196.04L36.0414 196.243ZM47.3111 174.923L52.8902 174.826C56.9696 174.754 59.5105 172.49 59.4529 169.19L59.4508 169.07C59.3879 165.471 56.7759 163.656 52.6365 163.728L47.1173 163.825L47.3111 174.923Z"></path>
<path mask="url(#path-1-outside-1_1_29)" stroke-linejoin="round" stroke-width="6.47359" stroke="#7523E3" d="M95.0242 195.993C84.7058 196.174 77.0739 188.686 76.9127 179.447L76.9106 179.327C76.7493 170.088 84.1731 162.218 94.5515 162.037C104.93 161.855 112.562 169.343 112.723 178.582L112.725 178.702C112.886 187.941 105.463 195.811 95.0242 195.993ZM94.9756 186.333C99.1149 186.261 101.757 182.914 101.689 179.015L101.687 178.895C101.617 174.875 98.6184 171.567 94.599 171.637C90.4597 171.709 87.8777 175.055 87.9468 179.014L87.9489 179.134C88.018 183.094 90.9562 186.403 94.9756 186.333Z"></path>
<path mask="url(#path-1-outside-1_1_29)" stroke-linejoin="round" stroke-width="6.47359" stroke="#7523E3" d="M120.989 204.362L120.255 162.308L131.653 162.109L131.729 166.428C133.901 163.69 136.62 161.302 141.479 161.217C149.218 161.082 155.989 167.385 156.17 177.764L156.172 177.884C156.357 188.442 149.81 194.977 142.131 195.111C137.212 195.197 134.293 193.028 132.151 190.605L132.387 204.163L120.989 204.362ZM138.485 185.633C142.144 185.57 145.092 182.518 145.015 178.138L145.013 178.018C144.938 173.699 141.885 170.692 138.225 170.756C134.506 170.821 131.62 173.931 131.695 178.251L131.697 178.371C131.773 182.69 134.766 185.698 138.485 185.633Z"></path>
<path mask="url(#path-1-outside-1_1_29)" stroke-linejoin="round" stroke-width="6.47359" stroke="#7523E3" d="M229.021 187.594L223.256 194.235L218.564 190.177C215.006 192.639 210.65 194.035 205.851 194.119C192.893 194.345 183.126 184.854 182.915 172.796L182.913 172.676C182.703 160.618 192.25 150.67 205.209 150.444C218.167 150.217 227.934 159.708 228.144 171.767L228.146 171.887C228.224 176.326 226.916 180.489 224.637 184.01L229.021 187.594ZM205.791 183.799C207.29 183.772 208.725 183.447 209.976 182.945L204.07 178.068L209.834 171.366L215.625 176.486C216.081 175.158 216.297 173.774 216.271 172.274L216.269 172.154C216.163 166.095 211.691 160.832 205.272 160.944C198.853 161.056 194.686 166.41 194.791 172.469L194.793 172.589C194.899 178.648 199.312 183.912 205.791 183.799Z"></path>
<path mask="url(#path-1-outside-1_1_29)" stroke-linejoin="round" stroke-width="6.47359" stroke="#7523E3" d="M247.726 193.268C240.827 193.389 236.547 188.842 236.418 181.464L236.048 160.287L247.447 160.088L247.753 177.665C247.815 181.205 249.708 183.092 252.468 183.044C255.228 182.996 257.234 181.04 257.172 177.501L256.865 159.923L268.203 159.726L268.77 192.181L257.432 192.379L257.353 187.879C255.301 190.615 252.345 193.187 247.726 193.268Z"></path>
<path mask="url(#path-1-outside-1_1_29)" stroke-linejoin="round" stroke-width="6.47359" stroke="#7523E3" d="M277.318 156.626L277.171 148.227L288.99 148.021L289.136 156.42L277.318 156.626ZM278.176 192.016L277.609 159.561L288.948 159.363L289.514 191.819L278.176 192.016Z"></path>
<path mask="url(#path-1-outside-1_1_29)" stroke-linejoin="round" stroke-width="6.47359" stroke="#7523E3" d="M297.84 191.673L297.709 184.174L312.368 167.956L297.97 168.207L297.813 159.209L327.329 158.694L327.458 166.132L312.679 182.353L327.737 182.09L327.895 191.149L297.84 191.673Z"></path>
</g>
<defs>
<filter color-interpolation-filters="sRGB" filterUnits="userSpaceOnUse" height="212.866" width="350.635" y="0.126923" x="0.772088" id="filter0_d_1_29">
<feFlood result="BackgroundImageFix" flood-opacity="0"></feFlood>
<feColorMatrix result="hardAlpha" values="0 0 0 0 0 0 0 0 0 0 0 0 0 0 0 0 0 0 127 0" type="matrix" in="SourceAlpha"></feColorMatrix>
<feOffset dy="5.39466" dx="-5.39466"></feOffset>
<feComposite operator="out" in2="hardAlpha"></feComposite>
<feColorMatrix values="0 0 0 0 0.458824 0 0 0 0 0.137255 0 0 0 0 0.890196 0 0 0 1 0" type="matrix"></feColorMatrix>
<feBlend result="effect1_dropShadow_1_29" in2="BackgroundImageFix" mode="normal"></feBlend>
<feBlend result="shape" in2="effect1_dropShadow_1_29" in="SourceGraphic" mode="normal"></feBlend>
</filter>
</defs>
</svg>
