<svg xmlns="http://www.w3.org/2000/svg" fill="none" viewBox="0 0 439 211" height="211" width="439">
<g filter="url(#filter0_d_2_51)">
<mask fill="black" height="207" width="434" y="-0.422363" x="5.07483" maskUnits="userSpaceOnUse" id="path-1-outside-1_2_51">
<rect height="207" width="434" y="-0.422363" x="5.07483" fill="white"></rect>
<path d="M9.80783 54.4119L9.07483 12.4183L20.7131 12.2151L20.9874 27.9327L35.9251 27.672L35.6508 11.9544L47.289 11.7512L48.022 53.7449L36.3838 53.948L36.1052 37.9904L21.1675 38.2512L21.4461 54.2087L9.80783 54.4119Z"></path>
<path d="M73.9362 54.0726C63.7378 54.2507 56.4195 47.5374 56.2446 37.5189L56.2425 37.3989C56.0771 27.9203 62.7251 20.3032 72.3237 20.1356C83.482 19.9408 88.7847 28.0695 88.9511 37.6081C88.9637 38.328 88.9784 39.1678 88.932 39.9488L67.2153 40.3278C68.1769 43.8516 70.788 45.6063 74.3274 45.5445C77.087 45.4963 79.1689 44.4398 81.4687 42.1194L87.8589 47.2286C84.8085 51.2425 80.3552 53.9606 73.9362 54.0726ZM66.9338 34.5119L78.272 34.314C77.7893 30.7218 75.5898 28.4799 72.4703 28.5343C69.4707 28.5867 67.4708 30.9019 66.9338 34.5119Z"></path>
<path d="M106.477 53.4446C100.298 53.5525 95.5557 50.0347 95.4437 43.6157L95.4416 43.4957C95.3233 36.7167 100.363 33.2083 107.982 33.0753C110.981 33.0229 113.93 33.5115 115.802 34.1989L115.793 33.659C115.733 30.2395 113.6 28.3565 109.221 28.4329C105.801 28.4926 103.174 29.2586 100.254 30.3897L97.7747 22.4518C101.408 20.8881 105.29 19.8002 110.869 19.7028C116.688 19.6013 120.671 20.9119 123.296 23.4465C125.797 25.8032 126.876 29.1449 126.956 33.7042L127.281 52.3614L116.063 52.5572L116.003 49.1377C113.766 51.6371 110.736 53.3703 106.477 53.4446ZM110.432 46.2345C113.791 46.1759 116.094 44.0354 116.038 40.7958L116.011 39.2961C114.803 38.8371 113.177 38.5054 111.497 38.5347C108.198 38.5923 106.305 40.1856 106.348 42.6452L106.351 42.7652C106.389 44.9849 108.092 46.2753 110.432 46.2345Z"></path>
<path d="M149.288 52.6974C141.55 52.8324 134.779 46.5296 134.597 36.1512L134.595 36.0312C134.411 25.4729 140.958 18.9376 148.637 18.8036C153.556 18.7177 156.474 20.8871 158.617 23.3101L158.35 8.0124L169.748 7.81344L170.513 51.6068L159.114 51.8057L159.039 47.4864C156.866 50.2247 154.148 52.6125 149.288 52.6974ZM152.541 43.0991C156.261 43.0342 159.147 39.9233 159.072 35.604L159.069 35.484C158.995 31.2247 156.001 28.1565 152.282 28.2214C148.622 28.2853 145.676 31.3971 145.751 35.7165L145.754 35.8365C145.829 40.1558 148.882 43.163 152.541 43.0991Z"></path>
<path d="M195.769 51.946C185.571 52.124 178.252 45.4107 178.078 35.3923L178.076 35.2723C177.91 25.7937 184.558 18.1765 194.157 18.009C205.315 17.8142 210.618 25.9429 210.784 35.4815C210.797 36.2014 210.811 37.0412 210.765 37.8222L189.048 38.2012C190.01 41.725 192.621 43.4797 196.16 43.4179C198.92 43.3697 201.002 42.3132 203.302 39.9928L209.692 45.102C206.641 49.1159 202.188 51.834 195.769 51.946ZM188.767 32.3853L200.105 32.1874C199.622 28.5952 197.423 26.3533 194.303 26.4077C191.304 26.4601 189.304 28.7753 188.767 32.3853Z"></path>
<path d="M232.209 51.25C224.471 51.385 217.699 45.0823 217.518 34.7038L217.516 34.5839C217.332 24.0255 223.879 17.4902 231.558 17.3562C236.477 17.2703 239.395 19.4397 241.538 21.8627L241.271 6.56501L252.669 6.36605L253.434 50.1594L242.035 50.3583L241.96 46.039C239.787 48.7773 237.069 51.1651 232.209 51.25ZM235.462 41.6517C239.182 41.5868 242.068 38.476 241.993 34.1566L241.99 34.0366C241.916 29.7773 238.922 26.7091 235.203 26.774C231.543 26.8379 228.597 29.9498 228.672 34.2691L228.675 34.3891C228.75 38.7084 231.803 41.7156 235.462 41.6517Z"></path>
<path d="M303.486 50.0058C298.567 50.0917 295.648 47.9223 293.506 45.4993L293.575 49.4587L282.177 49.6577L281.412 5.86434L292.811 5.66538L293.084 21.323C295.256 18.5847 297.975 16.1968 302.834 16.112C310.573 15.9769 317.344 22.2797 317.525 32.6582L317.527 32.7781C317.712 43.3365 311.165 49.8718 303.486 50.0058ZM299.84 40.528C303.499 40.4641 306.447 37.4122 306.37 33.0329L306.368 32.9129C306.293 28.5936 303.24 25.5864 299.58 25.6503C295.861 25.7152 292.975 28.826 293.05 33.1454L293.052 33.2654C293.128 37.5847 296.121 40.5929 299.84 40.528Z"></path>
<path d="M335.028 49.4553C328.849 49.5631 324.107 46.0453 323.995 39.6263L323.993 39.5063C323.874 32.7274 328.914 29.2189 336.533 29.0859C339.532 29.0335 342.481 29.5221 344.354 30.2096L344.344 29.6697C344.284 26.2502 342.151 24.3671 337.772 24.4436C334.352 24.5032 331.725 25.2692 328.805 26.4004L326.326 18.4624C329.959 16.8988 333.841 15.8109 339.42 15.7135C345.239 15.6119 349.222 16.9226 351.847 19.4572C354.349 21.8139 355.427 25.1555 355.507 29.7148L355.832 48.372L344.614 48.5678L344.554 45.1483C342.318 47.6478 339.287 49.3809 335.028 49.4553ZM338.983 42.2451C342.342 42.1865 344.645 40.046 344.589 36.8065L344.563 35.3067C343.354 34.8477 341.728 34.516 340.049 34.5454C336.749 34.603 334.857 36.1962 334.9 38.6558L334.902 38.7758C334.94 40.9955 336.643 42.286 338.983 42.2451Z"></path>
<path d="M380.36 48.724C370.522 48.8957 363.249 41.3415 363.089 32.1629L363.086 32.0429C362.926 22.8643 369.87 15.0019 380.128 14.8229C386.787 14.7066 391.277 17.5087 394.112 21.7799L386.534 27.673C384.877 25.6016 383.115 24.3122 380.415 24.3593C376.696 24.4242 374.054 27.7709 374.123 31.7303L374.125 31.8502C374.198 36.0496 376.893 39.183 380.733 39.116C383.492 39.0679 385.21 37.7777 386.913 35.6476L394.628 41.0338C391.706 45.5255 387.439 48.6004 380.36 48.724Z"></path>
<path d="M401.783 47.5699L401.019 3.77659L412.417 3.57764L412.805 25.7743L421.434 14.762L434.332 14.5368L423.28 27.6917L435.198 46.9867L422.6 47.2066L415.928 36.2213L413.048 39.6921L413.182 47.371L401.783 47.5699Z"></path>
<path d="M67.61 126.074C60.7711 126.193 56.6993 123.264 56.5643 115.525L56.3328 102.267L52.4934 102.334L52.3343 93.2156L56.1737 93.1486L56.0302 84.9298L67.3685 84.7319L67.512 92.9507L75.0708 92.8187L75.23 101.937L67.6711 102.069L67.8638 113.108C67.9036 115.387 68.9402 116.329 71.0399 116.293C72.5396 116.266 73.9721 115.821 75.3404 115.137L75.4953 124.016C73.4755 125.192 70.7896 126.019 67.61 126.074Z"></path>
<path d="M99.2283 125.642C88.9098 125.822 81.278 118.334 81.1167 109.096L81.1146 108.976C80.9534 99.7371 88.3771 91.8664 98.7556 91.6852C109.134 91.5041 116.766 98.992 116.927 108.231L116.929 108.351C117.09 117.589 109.667 125.46 99.2283 125.642ZM99.1797 115.982C103.319 115.909 105.961 112.563 105.893 108.663L105.891 108.543C105.821 104.524 102.823 101.216 98.8031 101.286C94.6638 101.358 92.0817 104.704 92.1509 108.663L92.153 108.783C92.2221 112.742 95.1603 116.052 99.1797 115.982Z"></path>
<path d="M157.574 124.564C152.115 124.659 146.687 123.133 142.191 119.971L146.331 113.058C150.094 115.453 154.135 116.643 157.495 116.584C159.474 116.549 160.424 115.933 160.404 114.793L160.402 114.673C160.379 113.353 158.51 112.846 155.073 111.945C148.625 110.378 143.488 108.307 143.375 101.828L143.373 101.708C143.252 94.8091 148.705 90.8734 156.203 90.7425C160.943 90.6597 165.886 91.9537 169.647 94.2884L165.874 101.555C162.481 99.6943 158.801 98.6183 156.222 98.6633C154.482 98.6937 153.594 99.3693 153.61 100.329L153.612 100.449C153.634 101.709 155.565 102.275 158.942 103.237C165.392 104.924 170.53 107.055 170.64 113.354L170.642 113.474C170.767 120.613 165.493 124.425 157.574 124.564Z"></path>
<path d="M194.21 123.984C184.371 124.156 177.098 116.602 176.938 107.423L176.936 107.303C176.776 98.1246 183.72 90.2622 193.978 90.0831C200.637 89.9669 205.127 92.7689 207.962 97.0401L200.383 102.933C198.727 100.862 196.964 99.5724 194.265 99.6196C190.545 99.6845 187.903 103.031 187.972 106.99L187.974 107.11C188.048 111.31 190.743 114.443 194.582 114.376C197.342 114.328 199.059 113.038 200.763 110.908L208.478 116.294C205.556 120.786 201.289 123.861 194.21 123.984Z"></path>
<path d="M215.633 122.83L214.869 79.0368L226.267 78.8379L226.542 94.6155C228.595 91.8792 231.551 89.3673 236.171 89.2866C243.07 89.1662 247.289 93.6532 247.417 101.032L247.788 122.269L236.45 122.467L236.143 104.889C236.08 101.29 234.187 99.4028 231.427 99.451C228.668 99.4991 226.662 101.454 226.724 105.054L227.031 122.631L215.633 122.83Z"></path>
<path d="M273.225 122.605C262.907 122.785 255.275 115.297 255.114 106.059L255.112 105.939C254.95 96.7 262.374 88.8292 272.753 88.6481C283.131 88.4669 290.763 95.9549 290.924 105.193L290.926 105.313C291.087 114.552 283.664 122.423 273.225 122.605ZM273.177 112.944C277.316 112.872 279.958 109.526 279.89 105.626L279.888 105.506C279.818 101.487 276.819 98.1786 272.8 98.2487C268.661 98.321 266.079 101.667 266.148 105.626L266.15 105.746C266.219 109.705 269.157 113.015 273.177 112.944Z"></path>
<path d="M315.594 121.865C305.275 122.046 297.643 114.558 297.482 105.319L297.48 105.199C297.319 95.9604 304.743 88.0897 315.121 87.9085C325.499 87.7274 333.131 95.2153 333.293 104.454L333.295 104.574C333.456 113.812 326.032 121.683 315.594 121.865ZM315.545 112.205C319.685 112.133 322.326 108.786 322.258 104.887L322.256 104.767C322.186 100.747 319.188 97.439 315.169 97.5092C311.029 97.5814 308.447 100.927 308.516 104.886L308.518 105.006C308.588 108.966 311.526 112.275 315.545 112.205Z"></path>
<path d="M341.691 120.63L340.927 76.8365L352.265 76.6386L353.029 120.432L341.691 120.63Z"></path>
<path d="M370.655 106.442L368.919 96.3909L369.451 95.9016C376.399 95.1802 378.829 93.4575 378.785 90.9379L378.783 90.8179C378.748 88.7782 377.046 87.5477 374.167 87.598C371.347 87.6472 368.313 89.1404 365.477 91.7103L359.341 83.9562C362.936 80.2329 367.869 77.5064 374.768 77.3859C383.587 77.232 389.849 81.8634 389.986 89.7222L389.988 89.8422C390.12 97.4011 385.136 100.669 378.507 102.465L377.854 106.317L370.655 106.442ZM368.374 120.164L368.196 109.966L380.014 109.759L380.192 119.958L368.374 120.164Z"></path>
<path d="M56.8747 197.612L56.1417 155.619L72.3993 155.335C87.337 155.074 96.1864 163.561 96.398 175.679L96.4001 175.799C96.6116 187.917 87.95 197.07 72.8923 197.333L56.8747 197.612ZM72.6983 165.591L67.959 165.674L68.3329 187.091L73.0721 187.008C80.0911 186.885 84.6433 182.965 84.525 176.186L84.5229 176.066C84.4056 169.347 79.7172 165.469 72.6983 165.591Z"></path>
<path d="M121.716 197.261C111.398 197.441 103.766 189.953 103.604 180.714L103.602 180.594C103.441 171.356 110.865 163.485 121.243 163.304C131.622 163.122 139.254 170.61 139.415 179.849L139.417 179.969C139.578 189.208 132.154 197.078 121.716 197.261ZM121.667 187.6C125.807 187.528 128.449 184.181 128.381 180.282L128.379 180.162C128.308 176.142 125.31 172.834 121.291 172.904C117.151 172.977 114.569 176.322 114.639 180.282L114.641 180.401C114.71 184.361 117.648 187.67 121.667 187.6Z"></path>
<path d="M147.513 196.03L146.947 163.575L158.345 163.376L158.425 167.935C160.477 165.199 163.432 162.567 168.051 162.487C174.95 162.366 179.169 166.853 179.298 174.232L179.669 195.469L168.33 195.667L168.023 178.089C167.961 174.49 166.067 172.603 163.308 172.651C160.548 172.699 158.542 174.654 158.605 178.254L158.912 195.831L147.513 196.03Z"></path>
<path d="M187.461 175.05L186.484 170.686C190.495 170.136 192.562 168.18 192.385 164.942L187.766 165.023L187.562 153.325L199.38 153.118L199.546 162.657C199.701 171.536 194.955 174.679 187.461 175.05Z"></path>
<path d="M221.492 195.399C214.653 195.518 210.581 192.589 210.446 184.85L210.215 171.592L206.375 171.659L206.216 162.541L210.055 162.474L209.912 154.255L221.25 154.057L221.394 162.276L228.953 162.144L229.112 171.262L221.553 171.394L221.746 182.433C221.785 184.712 222.822 185.654 224.922 185.618C226.421 185.591 227.854 185.146 229.222 184.462L229.377 193.341C227.357 194.516 224.671 195.343 221.492 195.399Z"></path>
<path d="M269.965 194.553C263.126 194.672 259.054 191.743 258.919 184.004L258.688 170.746L254.848 170.813L254.689 161.694L258.529 161.627L258.385 153.409L269.723 153.211L269.867 161.43L277.426 161.298L277.585 170.416L270.026 170.548L270.219 181.586C270.258 183.866 271.295 184.808 273.395 184.772C274.894 184.745 276.327 184.3 277.695 183.616L277.85 192.495C275.83 193.67 273.144 194.497 269.965 194.553Z"></path>
<path d="M285.891 193.615L285.324 161.16L296.723 160.961L296.837 167.5C298.619 163.028 301.568 160.096 306.972 160.242L307.181 172.24L306.221 172.257C300.282 172.36 296.982 175.838 297.112 183.277L297.289 193.416L285.891 193.615Z"></path>
<path d="M313.993 157.719L313.846 149.32L325.664 149.114L325.811 157.513L313.993 157.719ZM314.85 193.109L314.284 160.654L325.622 160.456L326.189 192.911L314.85 193.109Z"></path>
<path d="M335.762 202.346L335.028 160.292L346.426 160.093L346.501 164.413C348.674 161.674 351.393 159.286 356.252 159.202C363.991 159.066 370.762 165.369 370.943 175.748L370.945 175.868C371.129 186.426 364.582 192.961 356.903 193.095C351.984 193.181 349.066 191.012 346.923 188.589L347.16 202.147L335.762 202.346ZM353.258 183.618C356.917 183.554 359.864 180.502 359.788 176.122L359.786 176.002C359.71 171.683 356.657 168.676 352.998 168.74C349.278 168.805 346.392 171.916 346.468 176.235L346.47 176.355C346.545 180.674 349.538 183.682 353.258 183.618Z"></path>
<path d="M378.422 192L378.217 180.301L390.036 180.095L390.24 191.793L378.422 192Z"></path>
</mask>
<path fill="white" d="M9.80783 54.4119L9.07483 12.4183L20.7131 12.2151L20.9874 27.9327L35.9251 27.672L35.6508 11.9544L47.289 11.7512L48.022 53.7449L36.3838 53.948L36.1052 37.9904L21.1675 38.2512L21.4461 54.2087L9.80783 54.4119Z"></path>
<path fill="white" d="M73.9362 54.0726C63.7378 54.2507 56.4195 47.5374 56.2446 37.5189L56.2425 37.3989C56.0771 27.9203 62.7251 20.3032 72.3237 20.1356C83.482 19.9408 88.7847 28.0695 88.9511 37.6081C88.9637 38.328 88.9784 39.1678 88.932 39.9488L67.2153 40.3278C68.1769 43.8516 70.788 45.6063 74.3274 45.5445C77.087 45.4963 79.1689 44.4398 81.4687 42.1194L87.8589 47.2286C84.8085 51.2425 80.3552 53.9606 73.9362 54.0726ZM66.9338 34.5119L78.272 34.314C77.7893 30.7218 75.5898 28.4799 72.4703 28.5343C69.4707 28.5867 67.4708 30.9019 66.9338 34.5119Z"></path>
<path fill="white" d="M106.477 53.4446C100.298 53.5525 95.5557 50.0347 95.4437 43.6157L95.4416 43.4957C95.3233 36.7167 100.363 33.2083 107.982 33.0753C110.981 33.0229 113.93 33.5115 115.802 34.1989L115.793 33.659C115.733 30.2395 113.6 28.3565 109.221 28.4329C105.801 28.4926 103.174 29.2586 100.254 30.3897L97.7747 22.4518C101.408 20.8881 105.29 19.8002 110.869 19.7028C116.688 19.6013 120.671 20.9119 123.296 23.4465C125.797 25.8032 126.876 29.1449 126.956 33.7042L127.281 52.3614L116.063 52.5572L116.003 49.1377C113.766 51.6371 110.736 53.3703 106.477 53.4446ZM110.432 46.2345C113.791 46.1759 116.094 44.0354 116.038 40.7958L116.011 39.2961C114.803 38.8371 113.177 38.5054 111.497 38.5347C108.198 38.5923 106.305 40.1856 106.348 42.6452L106.351 42.7652C106.389 44.9849 108.092 46.2753 110.432 46.2345Z"></path>
<path fill="white" d="M149.288 52.6974C141.55 52.8324 134.779 46.5296 134.597 36.1512L134.595 36.0312C134.411 25.4729 140.958 18.9376 148.637 18.8036C153.556 18.7177 156.474 20.8871 158.617 23.3101L158.35 8.0124L169.748 7.81344L170.513 51.6068L159.114 51.8057L159.039 47.4864C156.866 50.2247 154.148 52.6125 149.288 52.6974ZM152.541 43.0991C156.261 43.0342 159.147 39.9233 159.072 35.604L159.069 35.484C158.995 31.2247 156.001 28.1565 152.282 28.2214C148.622 28.2853 145.676 31.3971 145.751 35.7165L145.754 35.8365C145.829 40.1558 148.882 43.163 152.541 43.0991Z"></path>
<path fill="white" d="M195.769 51.946C185.571 52.124 178.252 45.4107 178.078 35.3923L178.076 35.2723C177.91 25.7937 184.558 18.1765 194.157 18.009C205.315 17.8142 210.618 25.9429 210.784 35.4815C210.797 36.2014 210.811 37.0412 210.765 37.8222L189.048 38.2012C190.01 41.725 192.621 43.4797 196.16 43.4179C198.92 43.3697 201.002 42.3132 203.302 39.9928L209.692 45.102C206.641 49.1159 202.188 51.834 195.769 51.946ZM188.767 32.3853L200.105 32.1874C199.622 28.5952 197.423 26.3533 194.303 26.4077C191.304 26.4601 189.304 28.7753 188.767 32.3853Z"></path>
<path fill="white" d="M232.209 51.25C224.471 51.385 217.699 45.0823 217.518 34.7038L217.516 34.5839C217.332 24.0255 223.879 17.4902 231.558 17.3562C236.477 17.2703 239.395 19.4397 241.538 21.8627L241.271 6.56501L252.669 6.36605L253.434 50.1594L242.035 50.3583L241.96 46.039C239.787 48.7773 237.069 51.1651 232.209 51.25ZM235.462 41.6517C239.182 41.5868 242.068 38.476 241.993 34.1566L241.99 34.0366C241.916 29.7773 238.922 26.7091 235.203 26.774C231.543 26.8379 228.597 29.9498 228.672 34.2691L228.675 34.3891C228.75 38.7084 231.803 41.7156 235.462 41.6517Z"></path>
<path fill="white" d="M303.486 50.0058C298.567 50.0917 295.648 47.9223 293.506 45.4993L293.575 49.4587L282.177 49.6577L281.412 5.86434L292.811 5.66538L293.084 21.323C295.256 18.5847 297.975 16.1968 302.834 16.112C310.573 15.9769 317.344 22.2797 317.525 32.6582L317.527 32.7781C317.712 43.3365 311.165 49.8718 303.486 50.0058ZM299.84 40.528C303.499 40.4641 306.447 37.4122 306.37 33.0329L306.368 32.9129C306.293 28.5936 303.24 25.5864 299.58 25.6503C295.861 25.7152 292.975 28.826 293.05 33.1454L293.052 33.2654C293.128 37.5847 296.121 40.5929 299.84 40.528Z"></path>
<path fill="white" d="M335.028 49.4553C328.849 49.5631 324.107 46.0453 323.995 39.6263L323.993 39.5063C323.874 32.7274 328.914 29.2189 336.533 29.0859C339.532 29.0335 342.481 29.5221 344.354 30.2096L344.344 29.6697C344.284 26.2502 342.151 24.3671 337.772 24.4436C334.352 24.5032 331.725 25.2692 328.805 26.4004L326.326 18.4624C329.959 16.8988 333.841 15.8109 339.42 15.7135C345.239 15.6119 349.222 16.9226 351.847 19.4572C354.349 21.8139 355.427 25.1555 355.507 29.7148L355.832 48.372L344.614 48.5678L344.554 45.1483C342.318 47.6478 339.287 49.3809 335.028 49.4553ZM338.983 42.2451C342.342 42.1865 344.645 40.046 344.589 36.8065L344.563 35.3067C343.354 34.8477 341.728 34.516 340.049 34.5454C336.749 34.603 334.857 36.1962 334.9 38.6558L334.902 38.7758C334.94 40.9955 336.643 42.286 338.983 42.2451Z"></path>
<path fill="white" d="M380.36 48.724C370.522 48.8957 363.249 41.3415 363.089 32.1629L363.086 32.0429C362.926 22.8643 369.87 15.0019 380.128 14.8229C386.787 14.7066 391.277 17.5087 394.112 21.7799L386.534 27.673C384.877 25.6016 383.115 24.3122 380.415 24.3593C376.696 24.4242 374.054 27.7709 374.123 31.7303L374.125 31.8502C374.198 36.0496 376.893 39.183 380.733 39.116C383.492 39.0679 385.21 37.7777 386.913 35.6476L394.628 41.0338C391.706 45.5255 387.439 48.6004 380.36 48.724Z"></path>
<path fill="white" d="M401.783 47.5699L401.019 3.77659L412.417 3.57764L412.805 25.7743L421.434 14.762L434.332 14.5368L423.28 27.6917L435.198 46.9867L422.6 47.2066L415.928 36.2213L413.048 39.6921L413.182 47.371L401.783 47.5699Z"></path>
<path fill="white" d="M67.61 126.074C60.7711 126.193 56.6993 123.264 56.5643 115.525L56.3328 102.267L52.4934 102.334L52.3343 93.2156L56.1737 93.1486L56.0302 84.9298L67.3685 84.7319L67.512 92.9507L75.0708 92.8187L75.23 101.937L67.6711 102.069L67.8638 113.108C67.9036 115.387 68.9402 116.329 71.0399 116.293C72.5396 116.266 73.9721 115.821 75.3404 115.137L75.4953 124.016C73.4755 125.192 70.7896 126.019 67.61 126.074Z"></path>
<path fill="white" d="M99.2283 125.642C88.9098 125.822 81.278 118.334 81.1167 109.096L81.1146 108.976C80.9534 99.7371 88.3771 91.8664 98.7556 91.6852C109.134 91.5041 116.766 98.992 116.927 108.231L116.929 108.351C117.09 117.589 109.667 125.46 99.2283 125.642ZM99.1797 115.982C103.319 115.909 105.961 112.563 105.893 108.663L105.891 108.543C105.821 104.524 102.823 101.216 98.8031 101.286C94.6638 101.358 92.0817 104.704 92.1509 108.663L92.153 108.783C92.2221 112.742 95.1603 116.052 99.1797 115.982Z"></path>
<path fill="white" d="M157.574 124.564C152.115 124.659 146.687 123.133 142.191 119.971L146.331 113.058C150.094 115.453 154.135 116.643 157.495 116.584C159.474 116.549 160.424 115.933 160.404 114.793L160.402 114.673C160.379 113.353 158.51 112.846 155.073 111.945C148.625 110.378 143.488 108.307 143.375 101.828L143.373 101.708C143.252 94.8091 148.705 90.8734 156.203 90.7425C160.943 90.6597 165.886 91.9537 169.647 94.2884L165.874 101.555C162.481 99.6943 158.801 98.6183 156.222 98.6633C154.482 98.6937 153.594 99.3693 153.61 100.329L153.612 100.449C153.634 101.709 155.565 102.275 158.942 103.237C165.392 104.924 170.53 107.055 170.64 113.354L170.642 113.474C170.767 120.613 165.493 124.425 157.574 124.564Z"></path>
<path fill="white" d="M194.21 123.984C184.371 124.156 177.098 116.602 176.938 107.423L176.936 107.303C176.776 98.1246 183.72 90.2622 193.978 90.0831C200.637 89.9669 205.127 92.7689 207.962 97.0401L200.383 102.933C198.727 100.862 196.964 99.5724 194.265 99.6196C190.545 99.6845 187.903 103.031 187.972 106.99L187.974 107.11C188.048 111.31 190.743 114.443 194.582 114.376C197.342 114.328 199.059 113.038 200.763 110.908L208.478 116.294C205.556 120.786 201.289 123.861 194.21 123.984Z"></path>
<path fill="white" d="M215.633 122.83L214.869 79.0368L226.267 78.8379L226.542 94.6155C228.595 91.8792 231.551 89.3673 236.171 89.2866C243.07 89.1662 247.289 93.6532 247.417 101.032L247.788 122.269L236.45 122.467L236.143 104.889C236.08 101.29 234.187 99.4028 231.427 99.451C228.668 99.4991 226.662 101.454 226.724 105.054L227.031 122.631L215.633 122.83Z"></path>
<path fill="white" d="M273.225 122.605C262.907 122.785 255.275 115.297 255.114 106.059L255.112 105.939C254.95 96.7 262.374 88.8292 272.753 88.6481C283.131 88.4669 290.763 95.9549 290.924 105.193L290.926 105.313C291.087 114.552 283.664 122.423 273.225 122.605ZM273.177 112.944C277.316 112.872 279.958 109.526 279.89 105.626L279.888 105.506C279.818 101.487 276.819 98.1786 272.8 98.2487C268.661 98.321 266.079 101.667 266.148 105.626L266.15 105.746C266.219 109.705 269.157 113.015 273.177 112.944Z"></path>
<path fill="white" d="M315.594 121.865C305.275 122.046 297.643 114.558 297.482 105.319L297.48 105.199C297.319 95.9604 304.743 88.0897 315.121 87.9085C325.499 87.7274 333.131 95.2153 333.293 104.454L333.295 104.574C333.456 113.812 326.032 121.683 315.594 121.865ZM315.545 112.205C319.685 112.133 322.326 108.786 322.258 104.887L322.256 104.767C322.186 100.747 319.188 97.439 315.169 97.5092C311.029 97.5814 308.447 100.927 308.516 104.886L308.518 105.006C308.588 108.966 311.526 112.275 315.545 112.205Z"></path>
<path fill="white" d="M341.691 120.63L340.927 76.8365L352.265 76.6386L353.029 120.432L341.691 120.63Z"></path>
<path fill="white" d="M370.655 106.442L368.919 96.3909L369.451 95.9016C376.399 95.1802 378.829 93.4575 378.785 90.9379L378.783 90.8179C378.748 88.7782 377.046 87.5477 374.167 87.598C371.347 87.6472 368.313 89.1404 365.477 91.7103L359.341 83.9562C362.936 80.2329 367.869 77.5064 374.768 77.3859C383.587 77.232 389.849 81.8634 389.986 89.7222L389.988 89.8422C390.12 97.4011 385.136 100.669 378.507 102.465L377.854 106.317L370.655 106.442ZM368.374 120.164L368.196 109.966L380.014 109.759L380.192 119.958L368.374 120.164Z"></path>
<path fill="white" d="M56.8747 197.612L56.1417 155.619L72.3993 155.335C87.337 155.074 96.1864 163.561 96.398 175.679L96.4001 175.799C96.6116 187.917 87.95 197.07 72.8923 197.333L56.8747 197.612ZM72.6983 165.591L67.959 165.674L68.3329 187.091L73.0721 187.008C80.0911 186.885 84.6433 182.965 84.525 176.186L84.5229 176.066C84.4056 169.347 79.7172 165.469 72.6983 165.591Z"></path>
<path fill="white" d="M121.716 197.261C111.398 197.441 103.766 189.953 103.604 180.714L103.602 180.594C103.441 171.356 110.865 163.485 121.243 163.304C131.622 163.122 139.254 170.61 139.415 179.849L139.417 179.969C139.578 189.208 132.154 197.078 121.716 197.261ZM121.667 187.6C125.807 187.528 128.449 184.181 128.381 180.282L128.379 180.162C128.308 176.142 125.31 172.834 121.291 172.904C117.151 172.977 114.569 176.322 114.639 180.282L114.641 180.401C114.71 184.361 117.648 187.67 121.667 187.6Z"></path>
<path fill="white" d="M147.513 196.03L146.947 163.575L158.345 163.376L158.425 167.935C160.477 165.199 163.432 162.567 168.051 162.487C174.95 162.366 179.169 166.853 179.298 174.232L179.669 195.469L168.33 195.667L168.023 178.089C167.961 174.49 166.067 172.603 163.308 172.651C160.548 172.699 158.542 174.654 158.605 178.254L158.912 195.831L147.513 196.03Z"></path>
<path fill="white" d="M187.461 175.05L186.484 170.686C190.495 170.136 192.562 168.18 192.385 164.942L187.766 165.023L187.562 153.325L199.38 153.118L199.546 162.657C199.701 171.536 194.955 174.679 187.461 175.05Z"></path>
<path fill="white" d="M221.492 195.399C214.653 195.518 210.581 192.589 210.446 184.85L210.215 171.592L206.375 171.659L206.216 162.541L210.055 162.474L209.912 154.255L221.25 154.057L221.394 162.276L228.953 162.144L229.112 171.262L221.553 171.394L221.746 182.433C221.785 184.712 222.822 185.654 224.922 185.618C226.421 185.591 227.854 185.146 229.222 184.462L229.377 193.341C227.357 194.516 224.671 195.343 221.492 195.399Z"></path>
<path fill="white" d="M269.965 194.553C263.126 194.672 259.054 191.743 258.919 184.004L258.688 170.746L254.848 170.813L254.689 161.694L258.529 161.627L258.385 153.409L269.723 153.211L269.867 161.43L277.426 161.298L277.585 170.416L270.026 170.548L270.219 181.586C270.258 183.866 271.295 184.808 273.395 184.772C274.894 184.745 276.327 184.3 277.695 183.616L277.85 192.495C275.83 193.67 273.144 194.497 269.965 194.553Z"></path>
<path fill="white" d="M285.891 193.615L285.324 161.16L296.723 160.961L296.837 167.5C298.619 163.028 301.568 160.096 306.972 160.242L307.181 172.24L306.221 172.257C300.282 172.36 296.982 175.838 297.112 183.277L297.289 193.416L285.891 193.615Z"></path>
<path fill="white" d="M313.993 157.719L313.846 149.32L325.664 149.114L325.811 157.513L313.993 157.719ZM314.85 193.109L314.284 160.654L325.622 160.456L326.189 192.911L314.85 193.109Z"></path>
<path fill="white" d="M335.762 202.346L335.028 160.292L346.426 160.093L346.501 164.413C348.674 161.674 351.393 159.286 356.252 159.202C363.991 159.066 370.762 165.369 370.943 175.748L370.945 175.868C371.129 186.426 364.582 192.961 356.903 193.095C351.984 193.181 349.066 191.012 346.923 188.589L347.16 202.147L335.762 202.346ZM353.258 183.618C356.917 183.554 359.864 180.502 359.788 176.122L359.786 176.002C359.71 171.683 356.657 168.676 352.998 168.74C349.278 168.805 346.392 171.916 346.468 176.235L346.47 176.355C346.545 180.674 349.538 183.682 353.258 183.618Z"></path>
<path fill="white" d="M378.422 192L378.217 180.301L390.036 180.095L390.24 191.793L378.422 192Z"></path>
<path mask="url(#path-1-outside-1_2_51)" stroke-linejoin="round" stroke-width="6.47359" stroke="#7523E3" d="M9.80783 54.4119L9.07483 12.4183L20.7131 12.2151L20.9874 27.9327L35.9251 27.672L35.6508 11.9544L47.289 11.7512L48.022 53.7449L36.3838 53.948L36.1052 37.9904L21.1675 38.2512L21.4461 54.2087L9.80783 54.4119Z"></path>
<path mask="url(#path-1-outside-1_2_51)" stroke-linejoin="round" stroke-width="6.47359" stroke="#7523E3" d="M73.9362 54.0726C63.7378 54.2507 56.4195 47.5374 56.2446 37.5189L56.2425 37.3989C56.0771 27.9203 62.7251 20.3032 72.3237 20.1356C83.482 19.9408 88.7847 28.0695 88.9511 37.6081C88.9637 38.328 88.9784 39.1678 88.932 39.9488L67.2153 40.3278C68.1769 43.8516 70.788 45.6063 74.3274 45.5445C77.087 45.4963 79.1689 44.4398 81.4687 42.1194L87.8589 47.2286C84.8085 51.2425 80.3552 53.9606 73.9362 54.0726ZM66.9338 34.5119L78.272 34.314C77.7893 30.7218 75.5898 28.4799 72.4703 28.5343C69.4707 28.5867 67.4708 30.9019 66.9338 34.5119Z"></path>
<path mask="url(#path-1-outside-1_2_51)" stroke-linejoin="round" stroke-width="6.47359" stroke="#7523E3" d="M106.477 53.4446C100.298 53.5525 95.5557 50.0347 95.4437 43.6157L95.4416 43.4957C95.3233 36.7167 100.363 33.2083 107.982 33.0753C110.981 33.0229 113.93 33.5115 115.802 34.1989L115.793 33.659C115.733 30.2395 113.6 28.3565 109.221 28.4329C105.801 28.4926 103.174 29.2586 100.254 30.3897L97.7747 22.4518C101.408 20.8881 105.29 19.8002 110.869 19.7028C116.688 19.6013 120.671 20.9119 123.296 23.4465C125.797 25.8032 126.876 29.1449 126.956 33.7042L127.281 52.3614L116.063 52.5572L116.003 49.1377C113.766 51.6371 110.736 53.3703 106.477 53.4446ZM110.432 46.2345C113.791 46.1759 116.094 44.0354 116.038 40.7958L116.011 39.2961C114.803 38.8371 113.177 38.5054 111.497 38.5347C108.198 38.5923 106.305 40.1856 106.348 42.6452L106.351 42.7652C106.389 44.9849 108.092 46.2753 110.432 46.2345Z"></path>
<path mask="url(#path-1-outside-1_2_51)" stroke-linejoin="round" stroke-width="6.47359" stroke="#7523E3" d="M149.288 52.6974C141.55 52.8324 134.779 46.5296 134.597 36.1512L134.595 36.0312C134.411 25.4729 140.958 18.9376 148.637 18.8036C153.556 18.7177 156.474 20.8871 158.617 23.3101L158.35 8.0124L169.748 7.81344L170.513 51.6068L159.114 51.8057L159.039 47.4864C156.866 50.2247 154.148 52.6125 149.288 52.6974ZM152.541 43.0991C156.261 43.0342 159.147 39.9233 159.072 35.604L159.069 35.484C158.995 31.2247 156.001 28.1565 152.282 28.2214C148.622 28.2853 145.676 31.3971 145.751 35.7165L145.754 35.8365C145.829 40.1558 148.882 43.163 152.541 43.0991Z"></path>
<path mask="url(#path-1-outside-1_2_51)" stroke-linejoin="round" stroke-width="6.47359" stroke="#7523E3" d="M195.769 51.946C185.571 52.124 178.252 45.4107 178.078 35.3923L178.076 35.2723C177.91 25.7937 184.558 18.1765 194.157 18.009C205.315 17.8142 210.618 25.9429 210.784 35.4815C210.797 36.2014 210.811 37.0412 210.765 37.8222L189.048 38.2012C190.01 41.725 192.621 43.4797 196.16 43.4179C198.92 43.3697 201.002 42.3132 203.302 39.9928L209.692 45.102C206.641 49.1159 202.188 51.834 195.769 51.946ZM188.767 32.3853L200.105 32.1874C199.622 28.5952 197.423 26.3533 194.303 26.4077C191.304 26.4601 189.304 28.7753 188.767 32.3853Z"></path>
<path mask="url(#path-1-outside-1_2_51)" stroke-linejoin="round" stroke-width="6.47359" stroke="#7523E3" d="M232.209 51.25C224.471 51.385 217.699 45.0823 217.518 34.7038L217.516 34.5839C217.332 24.0255 223.879 17.4902 231.558 17.3562C236.477 17.2703 239.395 19.4397 241.538 21.8627L241.271 6.56501L252.669 6.36605L253.434 50.1594L242.035 50.3583L241.96 46.039C239.787 48.7773 237.069 51.1651 232.209 51.25ZM235.462 41.6517C239.182 41.5868 242.068 38.476 241.993 34.1566L241.99 34.0366C241.916 29.7773 238.922 26.7091 235.203 26.774C231.543 26.8379 228.597 29.9498 228.672 34.2691L228.675 34.3891C228.75 38.7084 231.803 41.7156 235.462 41.6517Z"></path>
<path mask="url(#path-1-outside-1_2_51)" stroke-linejoin="round" stroke-width="6.47359" stroke="#7523E3" d="M303.486 50.0058C298.567 50.0917 295.648 47.9223 293.506 45.4993L293.575 49.4587L282.177 49.6577L281.412 5.86434L292.811 5.66538L293.084 21.323C295.256 18.5847 297.975 16.1968 302.834 16.112C310.573 15.9769 317.344 22.2797 317.525 32.6582L317.527 32.7781C317.712 43.3365 311.165 49.8718 303.486 50.0058ZM299.84 40.528C303.499 40.4641 306.447 37.4122 306.37 33.0329L306.368 32.9129C306.293 28.5936 303.24 25.5864 299.58 25.6503C295.861 25.7152 292.975 28.826 293.05 33.1454L293.052 33.2654C293.128 37.5847 296.121 40.5929 299.84 40.528Z"></path>
<path mask="url(#path-1-outside-1_2_51)" stroke-linejoin="round" stroke-width="6.47359" stroke="#7523E3" d="M335.028 49.4553C328.849 49.5631 324.107 46.0453 323.995 39.6263L323.993 39.5063C323.874 32.7274 328.914 29.2189 336.533 29.0859C339.532 29.0335 342.481 29.5221 344.354 30.2096L344.344 29.6697C344.284 26.2502 342.151 24.3671 337.772 24.4436C334.352 24.5032 331.725 25.2692 328.805 26.4004L326.326 18.4624C329.959 16.8988 333.841 15.8109 339.42 15.7135C345.239 15.6119 349.222 16.9226 351.847 19.4572C354.349 21.8139 355.427 25.1555 355.507 29.7148L355.832 48.372L344.614 48.5678L344.554 45.1483C342.318 47.6478 339.287 49.3809 335.028 49.4553ZM338.983 42.2451C342.342 42.1865 344.645 40.046 344.589 36.8065L344.563 35.3067C343.354 34.8477 341.728 34.516 340.049 34.5454C336.749 34.603 334.857 36.1962 334.9 38.6558L334.902 38.7758C334.94 40.9955 336.643 42.286 338.983 42.2451Z"></path>
<path mask="url(#path-1-outside-1_2_51)" stroke-linejoin="round" stroke-width="6.47359" stroke="#7523E3" d="M380.36 48.724C370.522 48.8957 363.249 41.3415 363.089 32.1629L363.086 32.0429C362.926 22.8643 369.87 15.0019 380.128 14.8229C386.787 14.7066 391.277 17.5087 394.112 21.7799L386.534 27.673C384.877 25.6016 383.115 24.3122 380.415 24.3593C376.696 24.4242 374.054 27.7709 374.123 31.7303L374.125 31.8502C374.198 36.0496 376.893 39.183 380.733 39.116C383.492 39.0679 385.21 37.7777 386.913 35.6476L394.628 41.0338C391.706 45.5255 387.439 48.6004 380.36 48.724Z"></path>
<path mask="url(#path-1-outside-1_2_51)" stroke-linejoin="round" stroke-width="6.47359" stroke="#7523E3" d="M401.783 47.5699L401.019 3.77659L412.417 3.57764L412.805 25.7743L421.434 14.762L434.332 14.5368L423.28 27.6917L435.198 46.9867L422.6 47.2066L415.928 36.2213L413.048 39.6921L413.182 47.371L401.783 47.5699Z"></path>
<path mask="url(#path-1-outside-1_2_51)" stroke-linejoin="round" stroke-width="6.47359" stroke="#7523E3" d="M67.61 126.074C60.7711 126.193 56.6993 123.264 56.5643 115.525L56.3328 102.267L52.4934 102.334L52.3343 93.2156L56.1737 93.1486L56.0302 84.9298L67.3685 84.7319L67.512 92.9507L75.0708 92.8187L75.23 101.937L67.6711 102.069L67.8638 113.108C67.9036 115.387 68.9402 116.329 71.0399 116.293C72.5396 116.266 73.9721 115.821 75.3404 115.137L75.4953 124.016C73.4755 125.192 70.7896 126.019 67.61 126.074Z"></path>
<path mask="url(#path-1-outside-1_2_51)" stroke-linejoin="round" stroke-width="6.47359" stroke="#7523E3" d="M99.2283 125.642C88.9098 125.822 81.278 118.334 81.1167 109.096L81.1146 108.976C80.9534 99.7371 88.3771 91.8664 98.7556 91.6852C109.134 91.5041 116.766 98.992 116.927 108.231L116.929 108.351C117.09 117.589 109.667 125.46 99.2283 125.642ZM99.1797 115.982C103.319 115.909 105.961 112.563 105.893 108.663L105.891 108.543C105.821 104.524 102.823 101.216 98.8031 101.286C94.6638 101.358 92.0817 104.704 92.1509 108.663L92.153 108.783C92.2221 112.742 95.1603 116.052 99.1797 115.982Z"></path>
<path mask="url(#path-1-outside-1_2_51)" stroke-linejoin="round" stroke-width="6.47359" stroke="#7523E3" d="M157.574 124.564C152.115 124.659 146.687 123.133 142.191 119.971L146.331 113.058C150.094 115.453 154.135 116.643 157.495 116.584C159.474 116.549 160.424 115.933 160.404 114.793L160.402 114.673C160.379 113.353 158.51 112.846 155.073 111.945C148.625 110.378 143.488 108.307 143.375 101.828L143.373 101.708C143.252 94.8091 148.705 90.8734 156.203 90.7425C160.943 90.6597 165.886 91.9537 169.647 94.2884L165.874 101.555C162.481 99.6943 158.801 98.6183 156.222 98.6633C154.482 98.6937 153.594 99.3693 153.61 100.329L153.612 100.449C153.634 101.709 155.565 102.275 158.942 103.237C165.392 104.924 170.53 107.055 170.64 113.354L170.642 113.474C170.767 120.613 165.493 124.425 157.574 124.564Z"></path>
<path mask="url(#path-1-outside-1_2_51)" stroke-linejoin="round" stroke-width="6.47359" stroke="#7523E3" d="M194.21 123.984C184.371 124.156 177.098 116.602 176.938 107.423L176.936 107.303C176.776 98.1246 183.72 90.2622 193.978 90.0831C200.637 89.9669 205.127 92.7689 207.962 97.0401L200.383 102.933C198.727 100.862 196.964 99.5724 194.265 99.6196C190.545 99.6845 187.903 103.031 187.972 106.99L187.974 107.11C188.048 111.31 190.743 114.443 194.582 114.376C197.342 114.328 199.059 113.038 200.763 110.908L208.478 116.294C205.556 120.786 201.289 123.861 194.21 123.984Z"></path>
<path mask="url(#path-1-outside-1_2_51)" stroke-linejoin="round" stroke-width="6.47359" stroke="#7523E3" d="M215.633 122.83L214.869 79.0368L226.267 78.8379L226.542 94.6155C228.595 91.8792 231.551 89.3673 236.171 89.2866C243.07 89.1662 247.289 93.6532 247.417 101.032L247.788 122.269L236.45 122.467L236.143 104.889C236.08 101.29 234.187 99.4028 231.427 99.451C228.668 99.4991 226.662 101.454 226.724 105.054L227.031 122.631L215.633 122.83Z"></path>
<path mask="url(#path-1-outside-1_2_51)" stroke-linejoin="round" stroke-width="6.47359" stroke="#7523E3" d="M273.225 122.605C262.907 122.785 255.275 115.297 255.114 106.059L255.112 105.939C254.95 96.7 262.374 88.8292 272.753 88.6481C283.131 88.4669 290.763 95.9549 290.924 105.193L290.926 105.313C291.087 114.552 283.664 122.423 273.225 122.605ZM273.177 112.944C277.316 112.872 279.958 109.526 279.89 105.626L279.888 105.506C279.818 101.487 276.819 98.1786 272.8 98.2487C268.661 98.321 266.079 101.667 266.148 105.626L266.15 105.746C266.219 109.705 269.157 113.015 273.177 112.944Z"></path>
<path mask="url(#path-1-outside-1_2_51)" stroke-linejoin="round" stroke-width="6.47359" stroke="#7523E3" d="M315.594 121.865C305.275 122.046 297.643 114.558 297.482 105.319L297.48 105.199C297.319 95.9604 304.743 88.0897 315.121 87.9085C325.499 87.7274 333.131 95.2153 333.293 104.454L333.295 104.574C333.456 113.812 326.032 121.683 315.594 121.865ZM315.545 112.205C319.685 112.133 322.326 108.786 322.258 104.887L322.256 104.767C322.186 100.747 319.188 97.439 315.169 97.5092C311.029 97.5814 308.447 100.927 308.516 104.886L308.518 105.006C308.588 108.966 311.526 112.275 315.545 112.205Z"></path>
<path mask="url(#path-1-outside-1_2_51)" stroke-linejoin="round" stroke-width="6.47359" stroke="#7523E3" d="M341.691 120.63L340.927 76.8365L352.265 76.6386L353.029 120.432L341.691 120.63Z"></path>
<path mask="url(#path-1-outside-1_2_51)" stroke-linejoin="round" stroke-width="6.47359" stroke="#7523E3" d="M370.655 106.442L368.919 96.3909L369.451 95.9016C376.399 95.1802 378.829 93.4575 378.785 90.9379L378.783 90.8179C378.748 88.7782 377.046 87.5477 374.167 87.598C371.347 87.6472 368.313 89.1404 365.477 91.7103L359.341 83.9562C362.936 80.2329 367.869 77.5064 374.768 77.3859C383.587 77.232 389.849 81.8634 389.986 89.7222L389.988 89.8422C390.12 97.4011 385.136 100.669 378.507 102.465L377.854 106.317L370.655 106.442ZM368.374 120.164L368.196 109.966L380.014 109.759L380.192 119.958L368.374 120.164Z"></path>
<path mask="url(#path-1-outside-1_2_51)" stroke-linejoin="round" stroke-width="6.47359" stroke="#7523E3" d="M56.8747 197.612L56.1417 155.619L72.3993 155.335C87.337 155.074 96.1864 163.561 96.398 175.679L96.4001 175.799C96.6116 187.917 87.95 197.07 72.8923 197.333L56.8747 197.612ZM72.6983 165.591L67.959 165.674L68.3329 187.091L73.0721 187.008C80.0911 186.885 84.6433 182.965 84.525 176.186L84.5229 176.066C84.4056 169.347 79.7172 165.469 72.6983 165.591Z"></path>
<path mask="url(#path-1-outside-1_2_51)" stroke-linejoin="round" stroke-width="6.47359" stroke="#7523E3" d="M121.716 197.261C111.398 197.441 103.766 189.953 103.604 180.714L103.602 180.594C103.441 171.356 110.865 163.485 121.243 163.304C131.622 163.122 139.254 170.61 139.415 179.849L139.417 179.969C139.578 189.208 132.154 197.078 121.716 197.261ZM121.667 187.6C125.807 187.528 128.449 184.181 128.381 180.282L128.379 180.162C128.308 176.142 125.31 172.834 121.291 172.904C117.151 172.977 114.569 176.322 114.639 180.282L114.641 180.401C114.71 184.361 117.648 187.67 121.667 187.6Z"></path>
<path mask="url(#path-1-outside-1_2_51)" stroke-linejoin="round" stroke-width="6.47359" stroke="#7523E3" d="M147.513 196.03L146.947 163.575L158.345 163.376L158.425 167.935C160.477 165.199 163.432 162.567 168.051 162.487C174.95 162.366 179.169 166.853 179.298 174.232L179.669 195.469L168.33 195.667L168.023 178.089C167.961 174.49 166.067 172.603 163.308 172.651C160.548 172.699 158.542 174.654 158.605 178.254L158.912 195.831L147.513 196.03Z"></path>
<path mask="url(#path-1-outside-1_2_51)" stroke-linejoin="round" stroke-width="6.47359" stroke="#7523E3" d="M187.461 175.05L186.484 170.686C190.495 170.136 192.562 168.18 192.385 164.942L187.766 165.023L187.562 153.325L199.38 153.118L199.546 162.657C199.701 171.536 194.955 174.679 187.461 175.05Z"></path>
<path mask="url(#path-1-outside-1_2_51)" stroke-linejoin="round" stroke-width="6.47359" stroke="#7523E3" d="M221.492 195.399C214.653 195.518 210.581 192.589 210.446 184.85L210.215 171.592L206.375 171.659L206.216 162.541L210.055 162.474L209.912 154.255L221.25 154.057L221.394 162.276L228.953 162.144L229.112 171.262L221.553 171.394L221.746 182.433C221.785 184.712 222.822 185.654 224.922 185.618C226.421 185.591 227.854 185.146 229.222 184.462L229.377 193.341C227.357 194.516 224.671 195.343 221.492 195.399Z"></path>
<path mask="url(#path-1-outside-1_2_51)" stroke-linejoin="round" stroke-width="6.47359" stroke="#7523E3" d="M269.965 194.553C263.126 194.672 259.054 191.743 258.919 184.004L258.688 170.746L254.848 170.813L254.689 161.694L258.529 161.627L258.385 153.409L269.723 153.211L269.867 161.43L277.426 161.298L277.585 170.416L270.026 170.548L270.219 181.586C270.258 183.866 271.295 184.808 273.395 184.772C274.894 184.745 276.327 184.3 277.695 183.616L277.85 192.495C275.83 193.67 273.144 194.497 269.965 194.553Z"></path>
<path mask="url(#path-1-outside-1_2_51)" stroke-linejoin="round" stroke-width="6.47359" stroke="#7523E3" d="M285.891 193.615L285.324 161.16L296.723 160.961L296.837 167.5C298.619 163.028 301.568 160.096 306.972 160.242L307.181 172.24L306.221 172.257C300.282 172.36 296.982 175.838 297.112 183.277L297.289 193.416L285.891 193.615Z"></path>
<path mask="url(#path-1-outside-1_2_51)" stroke-linejoin="round" stroke-width="6.47359" stroke="#7523E3" d="M313.993 157.719L313.846 149.32L325.664 149.114L325.811 157.513L313.993 157.719ZM314.85 193.109L314.284 160.654L325.622 160.456L326.189 192.911L314.85 193.109Z"></path>
<path mask="url(#path-1-outside-1_2_51)" stroke-linejoin="round" stroke-width="6.47359" stroke="#7523E3" d="M335.762 202.346L335.028 160.292L346.426 160.093L346.501 164.413C348.674 161.674 351.393 159.286 356.252 159.202C363.991 159.066 370.762 165.369 370.943 175.748L370.945 175.868C371.129 186.426 364.582 192.961 356.903 193.095C351.984 193.181 349.066 191.012 346.923 188.589L347.16 202.147L335.762 202.346ZM353.258 183.618C356.917 183.554 359.864 180.502 359.788 176.122L359.786 176.002C359.71 171.683 356.657 168.676 352.998 168.74C349.278 168.805 346.392 171.916 346.468 176.235L346.47 176.355C346.545 180.674 349.538 183.682 353.258 183.618Z"></path>
<path mask="url(#path-1-outside-1_2_51)" stroke-linejoin="round" stroke-width="6.47359" stroke="#7523E3" d="M378.422 192L378.217 180.301L390.036 180.095L390.24 191.793L378.422 192Z"></path>
</g>
<defs>
<filter color-interpolation-filters="sRGB" filterUnits="userSpaceOnUse" height="210.636" width="437.992" y="0.34082" x="0.443368" id="filter0_d_2_51">
<feFlood result="BackgroundImageFix" flood-opacity="0"></feFlood>
<feColorMatrix result="hardAlpha" values="0 0 0 0 0 0 0 0 0 0 0 0 0 0 0 0 0 0 127 0" type="matrix" in="SourceAlpha"></feColorMatrix>
<feOffset dy="5.39466" dx="-5.39466"></feOffset>
<feComposite operator="out" in2="hardAlpha"></feComposite>
<feColorMatrix values="0 0 0 0 0.458824 0 0 0 0 0.137255 0 0 0 0 0.890196 0 0 0 1 0" type="matrix"></feColorMatrix>
<feBlend result="effect1_dropShadow_2_51" in2="BackgroundImageFix" mode="normal"></feBlend>
<feBlend result="shape" in2="effect1_dropShadow_2_51" in="SourceGraphic" mode="normal"></feBlend>
</filter>
</defs>
</svg>
