<?xml version="1.0" encoding="utf-8"?>
<!-- Generator: Adobe Illustrator 27.6.1, SVG Export Plug-In . SVG Version: 6.00 Build 0)  -->
<svg version="1.1" id="Layer_1" xmlns="http://www.w3.org/2000/svg" xmlns:xlink="http://www.w3.org/1999/xlink" x="0px" y="0px"
	 viewBox="0 0 195 92" style="enable-background:new 0 0 195 92;" xml:space="preserve">
<style type="text/css">
	.st0{fill:#B5C9FF;}
	.st1{fill:#555555;}
</style>
<path class="st0" d="M27.7,10.4L160.8,0.1c16.5-1.3,30.9,11.1,32.2,27.6l1.6,20.8c1.3,16.5-11.1,30.9-27.6,32.2L33.9,91
	C17.4,92.3,3,79.9,1.7,63.4L0.1,42.6C-1.2,26.1,11.2,11.7,27.7,10.4z"/>
<path class="st1" d="M17.5,49.3l-0.8-11.9l5.3-0.4c1.4-0.1,2.5,0.2,3.2,0.8c0.6,0.5,0.9,1.1,0.9,1.9l0,0c0.1,1.4-0.7,2.2-1.5,2.8
	c1.4,0.4,2.4,1.1,2.6,2.7l0,0c0.1,2.1-1.5,3.4-4.2,3.6L17.5,49.3z M24.1,40.3L24.1,40.3c-0.1-1-0.9-1.5-2.2-1.4l-3,0.2l0.2,3.2
	l2.8-0.2C23.3,42,24.1,41.4,24.1,40.3z M25.1,45.3c-0.1-1-0.9-1.5-2.6-1.4l-3.3,0.2l0.2,3.3l3.5-0.2C24.3,47,25.2,46.4,25.1,45.3
	L25.1,45.3z M33.8,48.4c-2.7,0.2-4.9-1.8-5.1-4.3l0,0c-0.2-2.6,1.7-4.8,4.5-5s4.9,1.8,5.1,4.3l0,0C38.4,45.9,36.6,48.2,33.8,48.4z
	 M33.7,46.6c1.7-0.1,2.6-1.5,2.5-3l0,0c-0.1-1.6-1.3-2.8-2.9-2.7c-1.6,0.1-2.6,1.5-2.5,3l0,0C30.9,45.5,32.1,46.7,33.7,46.6z
	 M43.7,47.6c-1.5,0.1-2.6-0.5-2.8-2.4l-0.3-4.7l-1.1,0.1l-0.1-1.8l1.1-0.1l-0.2-2.5l2.1-0.1l0.2,2.5l2.4-0.2l0.1,1.8l-2.4,0.2
	l0.3,4.4c0.1,0.8,0.5,1.1,1.2,1c0.5,0,0.9-0.2,1.3-0.4l0.1,1.7C45,47.4,44.5,47.6,43.7,47.6z M50.2,47.2c-1.7,0.1-3.3-0.7-3.4-2.5
	l0,0c-0.1-1.9,1.3-3,3.5-3.1c1-0.1,1.7,0,2.4,0.2l0-0.2c-0.1-1.3-0.9-1.9-2.4-1.8c-1,0.1-1.7,0.3-2.5,0.7l-0.7-1.6
	c1-0.5,1.9-0.9,3.3-1c1.3-0.1,2.4,0.2,3,0.8c0.7,0.6,1.1,1.5,1.2,2.7l0.4,5.3l-2,0.1l-0.1-1.1C52.5,46.5,51.6,47.1,50.2,47.2z
	 M50.7,45.7c1.4-0.1,2.3-0.9,2.3-2.1l0-0.6c-0.5-0.2-1.2-0.3-2.1-0.2c-1.3,0.1-2.1,0.7-2,1.6l0,0C48.9,45.3,49.7,45.7,50.7,45.7z
	 M57.6,46.5l-0.6-9l2.1-0.1l0.1,1.4c0.5-0.9,1.3-1.7,2.7-1.8c2-0.1,3.3,1.1,3.4,3.2l0.4,5.7l-2.1,0.1L63.2,41
	c-0.1-1.4-0.8-2.1-2.1-2.1c-1.2,0.1-2,1-1.9,2.4l0.4,5.1L57.6,46.5z M67.4,35.4l-0.1-2l2.2-0.2l0.1,2L67.4,35.4z M68.2,45.8l-0.6-9
	l2.1-0.1l0.6,9L68.2,45.8z M77.1,45.3c-2.7,0.2-4.8-1.8-5-4.3l0,0c-0.2-2.5,1.6-4.8,4.3-5c1.7-0.1,2.8,0.4,3.7,1.3L79,38.7
	c-0.7-0.6-1.4-1-2.4-1c-1.5,0.1-2.5,1.5-2.4,3l0,0c0.1,1.6,1.3,2.8,2.9,2.7c1-0.1,1.6-0.6,2.2-1.3l1.3,1.1
	C79.8,44.4,78.9,45.2,77.1,45.3z M85.2,44.8c-1.7,0.1-3.3-0.7-3.4-2.5l0,0c-0.1-1.9,1.3-3,3.5-3.1c1-0.1,1.7,0,2.4,0.2l0-0.2
	c-0.1-1.3-0.9-1.9-2.4-1.8c-1,0.1-1.7,0.3-2.5,0.7l-0.7-1.6c1-0.5,1.9-0.9,3.3-1c1.3-0.1,2.4,0.2,3,0.8c0.7,0.6,1.1,1.5,1.2,2.7
	l0.4,5.3l-2,0.1l-0.1-1.1C87.5,44,86.6,44.7,85.2,44.8z M85.7,43.2c1.4-0.1,2.3-0.9,2.3-2.1l0-0.6c-0.5-0.2-1.2-0.3-2.1-0.2
	c-1.3,0.1-2.1,0.7-2,1.6l0,0C83.9,42.9,84.7,43.3,85.7,43.2z M92.7,44l-0.9-12.4l2.1-0.1l0.9,12.4L92.7,44z M107.7,43.2
	c-1.5,0.1-2.5-0.6-3.2-1.4l0.1,1.4l-2.1,0.1L101.7,31l2.1-0.1l0.3,4.9c0.6-1,1.5-1.8,2.9-1.9c2.1-0.1,4.3,1.4,4.5,4.4l0,0
	C111.7,41.2,109.8,43,107.7,43.2z M107,41.4c1.4-0.1,2.5-1.3,2.4-3l0,0c-0.1-1.7-1.4-2.8-2.8-2.7c-1.4,0.1-2.5,1.3-2.4,3l0,0
	C104.4,40.5,105.7,41.5,107,41.4z M114,42.5l-0.9-12.4l2.1-0.1l0.9,12.4L114,42.5z M122.9,42.1c-2.6,0.2-4.7-1.6-4.9-4.3l0,0
	c-0.2-2.6,1.5-4.8,4-5c2.8-0.2,4.4,1.9,4.6,4.5c0,0.2,0,0.4,0,0.6l-6.6,0.5c0.3,1.4,1.4,2.2,2.7,2.1c1-0.1,1.7-0.5,2.3-1.2l1.3,1
	C125.7,41.3,124.5,42,122.9,42.1z M120,37l4.6-0.3c-0.2-1.3-1.1-2.3-2.4-2.2C120.9,34.6,120,35.6,120,37z M129,41.5l-0.6-9l2.1-0.1
	l0.1,1.4c0.5-0.9,1.3-1.7,2.7-1.8c2-0.1,3.3,1.1,3.4,3.2l0.4,5.7l-2.1,0.1l-0.4-5.1c-0.1-1.4-0.8-2.1-2.1-2.1c-1.2,0.1-2,1-1.9,2.4
	l0.4,5.1L129,41.5z M143.2,40.7c-2.1,0.1-4.3-1.4-4.5-4.4l0,0c-0.2-3,1.7-4.8,3.8-4.9c1.5-0.1,2.5,0.6,3.2,1.4l-0.3-4.8l2.1-0.1
	l0.9,12.4l-2.1,0.1l-0.1-1.5C145.6,39.8,144.7,40.6,143.2,40.7L143.2,40.7z M143.6,38.9c1.4-0.1,2.5-1.3,2.4-3l0,0
	c-0.1-1.7-1.4-2.8-2.8-2.7c-1.4,0.1-2.5,1.3-2.4,3l0,0C140.9,37.9,142.2,39,143.6,38.9z M156.4,39.6l-0.5-7.2l-1.1,0.1l-0.1-1.7
	l1.1-0.1l0-0.7c-0.1-1,0.1-1.7,0.6-2.3c0.4-0.5,1.1-0.8,2-0.9c0.7-0.1,1.2,0,1.7,0.1l0.1,1.7c-0.4-0.1-0.8-0.2-1.2-0.1
	c-0.8,0.1-1.2,0.5-1.1,1.4l0,0.5l2.4-0.2l0.1,1.7l-2.3,0.2l0.5,7.2L156.4,39.6z M166.5,39.1c-2.7,0.2-4.9-1.8-5.1-4.3l0,0
	c-0.2-2.6,1.7-4.8,4.5-5c2.7-0.2,4.9,1.8,5.1,4.3l0,0C171.1,36.6,169.2,38.9,166.5,39.1L166.5,39.1z M166.4,37.3
	c1.7-0.1,2.6-1.5,2.5-3l0,0c-0.1-1.6-1.3-2.8-2.9-2.7c-1.6,0.1-2.6,1.5-2.5,3l0,0C163.6,36.2,164.8,37.4,166.4,37.3z M173.3,38.4
	l-0.6-9l2.1-0.1l0.1,2c0.5-1.4,1.4-2.4,3-2.4l0.2,2.2l-0.1,0c-1.8,0.1-3,1.4-2.8,3.8l0.2,3.4L173.3,38.4z M38.7,68.1
	c-1.7,0.1-3.3-0.7-3.4-2.5l0,0c-0.1-1.9,1.3-3,3.5-3.1c1-0.1,1.7,0,2.4,0.2l0-0.2c-0.1-1.3-0.9-1.9-2.4-1.8c-1,0.1-1.7,0.3-2.5,0.7
	l-0.7-1.6c1-0.5,1.9-0.9,3.3-1c1.3-0.1,2.4,0.2,3,0.8c0.7,0.6,1.1,1.5,1.2,2.7l0.4,5.3l-2,0.1l-0.1-1.1C41,67.3,40.1,68,38.7,68.1z
	 M39.2,66.5c1.4-0.1,2.3-0.9,2.3-2.1l0-0.6c-0.5-0.2-1.2-0.3-2.1-0.2c-1.3,0.1-2.1,0.7-2,1.6l0,0C37.4,66.2,38.2,66.6,39.2,66.5z
	 M54.2,67c-1.3,0.1-2.7-0.3-3.9-1.1l0.8-1.5c1,0.7,2.1,1,3,0.9c0.9-0.1,1.4-0.5,1.3-1.1l0,0c0-0.7-1-0.9-2.1-1.1
	c-1.3-0.3-2.9-0.7-3-2.4l0,0c-0.1-1.7,1.2-2.8,3-3c1.1-0.1,2.4,0.2,3.4,0.8L56.1,60c-0.9-0.5-1.8-0.7-2.6-0.7
	c-0.8,0.1-1.2,0.5-1.2,1l0,0c0,0.7,1,0.9,2.1,1.1c1.3,0.3,2.9,0.8,3,2.4l0,0C57.5,65.8,56.1,66.8,54.2,67z M62.7,66.4
	c-2,0.1-3.3-1.1-3.4-3.2l-0.4-5.7l2.1-0.1l0.4,5.1c0.1,1.4,0.8,2.1,2.1,2c1.2-0.1,2-1,1.9-2.3L64.9,57l2.1-0.1l0.6,9L65.5,66
	l-0.1-1.4C64.9,65.5,64.1,66.3,62.7,66.4z M70.3,68.4l-0.8-11.7l2.1-0.1l0.1,1.5c0.6-1,1.5-1.8,2.9-1.9c2.1-0.1,4.3,1.4,4.5,4.4l0,0
	c0.2,3-1.7,4.8-3.8,4.9c-1.5,0.1-2.5-0.6-3.2-1.4l0.3,4.1L70.3,68.4z M74.7,63.8c1.4-0.1,2.5-1.3,2.4-3l0,0
	c-0.1-1.7-1.4-2.8-2.8-2.7c-1.4,0.1-2.5,1.3-2.4,3l0,0C72,62.8,73.3,63.9,74.7,63.8z M85.7,64.8c-2.6,0.2-4.7-1.6-4.9-4.3l0,0
	c-0.2-2.6,1.5-4.8,4-5c2.8-0.2,4.4,1.9,4.6,4.5c0,0.2,0,0.4,0,0.6L82.8,61c0.3,1.4,1.4,2.2,2.7,2.1c1-0.1,1.7-0.5,2.4-1.2l1.3,1
	C88.4,63.9,87.3,64.7,85.7,64.8L85.7,64.8z M82.7,59.7l4.6-0.3c-0.2-1.3-1.1-2.3-2.4-2.2C83.6,57.2,82.8,58.3,82.7,59.7z M91.8,64.2
	l-0.6-9l2.1-0.1l0.1,2c0.5-1.4,1.4-2.4,3-2.4l0.2,2.2l-0.1,0c-1.8,0.1-3,1.4-2.8,3.8l0.2,3.4L91.8,64.2z M106.9,63.3
	c-1.3,0.1-2.7-0.3-3.9-1.1l0.8-1.5c1,0.7,2.1,1,3,0.9c0.9-0.1,1.4-0.5,1.3-1.1l0,0c0-0.7-1-0.9-2.1-1.1c-1.3-0.3-2.9-0.7-3-2.4l0,0
	c-0.1-1.7,1.2-2.8,3-3c1.1-0.1,2.4,0.2,3.4,0.8l-0.7,1.5c-0.9-0.5-1.8-0.7-2.6-0.7c-0.8,0.1-1.2,0.5-1.2,1l0,0c0,0.7,1,0.9,2.1,1.1
	c1.3,0.3,2.9,0.8,3,2.4l0,0C110.2,62.1,108.8,63.1,106.9,63.3z M112.3,62.7l-0.6-9l2.1-0.1l0.1,1.4c0.5-0.9,1.3-1.7,2.7-1.8
	c2-0.1,3.3,1.1,3.4,3.2l0.4,5.7l-2.1,0.1l-0.4-5.1c-0.1-1.4-0.8-2.1-2.1-2.1c-1.2,0.1-2,1-1.9,2.4l0.4,5.1L112.3,62.7z M127.1,61.9
	c-2.7,0.2-4.9-1.8-5.1-4.3l0,0c-0.2-2.6,1.7-4.8,4.5-5c2.7-0.2,4.9,1.8,5.1,4.3l0,0C131.8,59.4,129.9,61.7,127.1,61.9L127.1,61.9z
	 M127.1,60.1c1.7-0.1,2.6-1.5,2.5-3l0,0c-0.1-1.6-1.3-2.8-2.9-2.7c-1.6,0.1-2.6,1.5-2.5,3l0,0C124.2,59,125.5,60.2,127.1,60.1z
	 M138.3,61.1c-2.7,0.2-4.9-1.8-5.1-4.3l0,0c-0.2-2.6,1.7-4.8,4.5-5s4.9,1.8,5.1,4.3l0,0C142.9,58.6,141.1,60.9,138.3,61.1z
	 M138.2,59.3c1.7-0.1,2.6-1.5,2.5-3l0,0c-0.1-1.6-1.3-2.8-2.9-2.7c-1.6,0.1-2.6,1.5-2.5,3l0,0C135.4,58.2,136.6,59.4,138.2,59.3z
	 M144.4,60.5l-0.1-1.4l4.8-6.2l-5,0.3l-0.1-1.7l7.6-0.5l0.1,1.4l-4.8,6.2l5.2-0.4l0.1,1.7L144.4,60.5z M158.2,59.7
	c-2.6,0.2-4.7-1.6-4.9-4.3l0,0c-0.2-2.6,1.5-4.8,4-5c2.8-0.2,4.4,1.9,4.6,4.5c0,0.2,0,0.4,0,0.6l-6.6,0.5c0.3,1.4,1.4,2.2,2.7,2.1
	c1-0.1,1.7-0.5,2.4-1.2l1.3,1C161,58.8,159.8,59.6,158.2,59.7L158.2,59.7z M155.3,54.6l4.6-0.3c-0.2-1.3-1.1-2.3-2.4-2.2
	C156.2,52.1,155.4,53.2,155.3,54.6z"/>
</svg>
