<?xml version="1.0" encoding="utf-8"?>
<!-- Generator: Adobe Illustrator 27.6.1, SVG Export Plug-In . SVG Version: 6.00 Build 0)  -->
<svg version="1.1" id="Layer_1" xmlns="http://www.w3.org/2000/svg" xmlns:xlink="http://www.w3.org/1999/xlink" x="0px" y="0px"
	 viewBox="0 0 180 86" style="enable-background:new 0 0 180 86;" xml:space="preserve">
<style type="text/css">
	.st0{fill:#98CD76;}
	.st1{fill:#555555;}
</style>
<g>
	<path class="st0" d="M27.7,9.2L146,0.1c16.5-1.3,30.9,11.1,32.2,27.6l1.2,15.9c1.3,16.5-11.1,30.9-27.6,32.2L33.5,84.9
		C17,86.2,2.6,73.9,1.3,57.3L0.1,41.5C-1.2,24.9,11.2,10.5,27.7,9.2z"/>
	<path class="st1" d="M35.6,41.3l-0.8-11.9l2.1-0.1l0.7,10l6.2-0.4l0.1,1.9L35.6,41.3z"/>
	<path class="st1" d="M45.1,30.3l-0.1-2l2.2-0.2l0.1,2L45.1,30.3z M45.9,40.6l-0.6-9l2.1-0.1l0.6,9L45.9,40.6z"/>
	<path class="st1" d="M53.7,40.2c-1.5,0.1-2.6-0.5-2.8-2.4L50.6,33l-1.1,0.1l-0.1-1.8l1.1-0.1l-0.2-2.5l2.1-0.1l0.2,2.5l2.4-0.2
		l0.1,1.8l-2.4,0.2l0.3,4.4c0.1,0.8,0.5,1.1,1.2,1c0.5,0,0.9-0.2,1.3-0.4l0.1,1.7C55,39.9,54.5,40.2,53.7,40.2z"/>
	<path class="st1" d="M60.7,39.7c-1.5,0.1-2.6-0.5-2.8-2.4l-0.3-4.7l-1.1,0.1l-0.1-1.8l1.1-0.1l-0.2-2.5l2.1-0.1l0.2,2.5l2.4-0.2
		l0.1,1.8l-2.4,0.2l0.3,4.4c0.1,0.8,0.5,1.1,1.2,1c0.5,0,0.9-0.2,1.3-0.4l0.1,1.7C62,39.5,61.4,39.7,60.7,39.7z"/>
	<path class="st1" d="M64.7,39.3l-0.9-12.4l2.1-0.1l0.9,12.4L64.7,39.3z"/>
	<path class="st1" d="M73.6,38.9c-2.6,0.2-4.7-1.6-4.9-4.3l0,0c-0.2-2.6,1.5-4.8,4-5c2.8-0.2,4.4,1.9,4.6,4.5c0,0.2,0,0.4,0,0.6
		l-6.6,0.5c0.3,1.4,1.4,2.2,2.7,2.1c1-0.1,1.7-0.5,2.4-1.2l1.3,1C76.4,38,75.2,38.7,73.6,38.9z M70.7,33.7l4.6-0.3
		c-0.2-1.3-1.1-2.3-2.4-2.2C71.6,31.3,70.7,32.3,70.7,33.7z"/>
	<path class="st1" d="M89.9,37.7c-1.5,0.1-2.5-0.6-3.2-1.4l0.1,1.4l-2.1,0.1l-0.9-12.4l2.1-0.1l0.3,4.9c0.6-1,1.5-1.8,2.9-1.9
		c2.1-0.1,4.3,1.4,4.5,4.4l0,0C93.9,35.7,92,37.6,89.9,37.7z M89.3,36c1.4-0.1,2.5-1.3,2.4-3l0,0c-0.1-1.7-1.4-2.8-2.8-2.7
		c-1.4,0.1-2.5,1.3-2.4,3l0,0C86.6,35,87.9,36.1,89.3,36z"/>
	<path class="st1" d="M100.4,37c-2.7,0.2-4.9-1.8-5.1-4.3l0,0c-0.2-2.6,1.7-4.8,4.5-5c2.7-0.2,4.9,1.8,5.1,4.3l0,0
		C105.1,34.5,103.2,36.8,100.4,37z M100.3,35.2c1.7-0.1,2.6-1.5,2.5-3l0,0c-0.1-1.6-1.3-2.8-2.9-2.7c-1.6,0.1-2.6,1.5-2.5,3l0,0
		C97.5,34.1,98.8,35.3,100.3,35.2z"/>
	<path class="st1" d="M111,36.2c-2.1,0.1-4.3-1.4-4.5-4.4l0,0c-0.2-3,1.7-4.8,3.8-4.9c1.5-0.1,2.5,0.6,3.2,1.4l-0.3-4.8l2.1-0.1
		l0.9,12.4l-2.1,0.1l-0.1-1.5C113.4,35.3,112.5,36.1,111,36.2z M111.4,34.4c1.4-0.1,2.5-1.3,2.4-3l0,0c-0.1-1.7-1.4-2.8-2.8-2.7
		c-1.4,0.1-2.5,1.3-2.4,3l0,0C108.7,33.4,110,34.5,111.4,34.4z"/>
	<path class="st1" d="M118,25.2l-0.1-2l2.2-0.2l0.1,2L118,25.2z M118.8,35.5l-0.6-9l2.1-0.1l0.6,9L118.8,35.5z"/>
	<path class="st1" d="M127.7,35.1c-2.6,0.2-4.7-1.6-4.9-4.3l0,0c-0.2-2.6,1.5-4.8,4-5c2.8-0.2,4.4,1.9,4.6,4.5c0,0.2,0,0.4,0,0.6
		l-6.6,0.5c0.3,1.4,1.4,2.2,2.7,2.1c1-0.1,1.7-0.5,2.3-1.2l1.3,1C130.4,34.2,129.3,35,127.7,35.1z M124.7,29.9l4.6-0.3
		c-0.2-1.3-1.1-2.3-2.4-2.2C125.6,27.5,124.8,28.5,124.7,29.9z"/>
	<path class="st1" d="M136.9,34.4c-1.3,0.1-2.7-0.3-3.9-1.1l0.8-1.5c1,0.7,2.1,1,3,0.9c0.9-0.1,1.4-0.5,1.3-1.1l0,0
		c0-0.7-1-0.9-2.1-1.1c-1.3-0.3-2.9-0.7-3-2.4l0,0c-0.1-1.7,1.2-2.8,3-3c1.1-0.1,2.4,0.2,3.4,0.8l-0.7,1.5c-0.9-0.5-1.8-0.7-2.6-0.7
		c-0.8,0.1-1.2,0.5-1.2,1l0,0c0,0.7,1,0.9,2.1,1.1c1.3,0.3,2.9,0.8,3,2.4l0,0C140.1,33.2,138.7,34.3,136.9,34.4z"/>
	<path class="st1" d="M142,36.4l-0.3-0.9c1-0.3,1.5-0.8,1.3-1.7l-0.9,0.1l-0.2-2.3l2.3-0.2l0.1,2C144.5,35.2,143.7,36.1,142,36.4z"
		/>
	<path class="st1" d="M32.4,61.8c-2.7,0.2-4.8-1.8-5-4.3l0,0c-0.2-2.5,1.6-4.8,4.3-5c1.7-0.1,2.8,0.4,3.7,1.3l-1.2,1.5
		c-0.7-0.6-1.4-1-2.4-1c-1.5,0.1-2.5,1.5-2.4,3l0,0c0.1,1.6,1.3,2.8,2.9,2.7c1-0.1,1.6-0.6,2.2-1.3l1.3,1.1
		C35.1,60.9,34.1,61.7,32.4,61.8z"/>
	<path class="st1" d="M42,61.1c-2.7,0.2-4.9-1.8-5.1-4.3l0,0c-0.2-2.6,1.7-4.8,4.5-5c2.7-0.2,4.9,1.8,5.1,4.3l0,0
		C46.6,58.7,44.7,60.9,42,61.1z M41.9,59.3c1.7-0.1,2.6-1.5,2.5-3l0,0c-0.1-1.6-1.3-2.8-2.9-2.7c-1.6,0.1-2.6,1.5-2.5,3l0,0
		C39,58.2,40.3,59.4,41.9,59.3z"/>
	<path class="st1" d="M48.8,60.4l-0.6-9l2.1-0.1l0.1,1.4c0.5-0.8,1.2-1.6,2.6-1.7c1.3-0.1,2.2,0.5,2.8,1.4c0.6-1,1.6-1.7,2.9-1.8
		c2-0.1,3.2,1,3.4,3.2l0.4,5.7l-2.1,0.1L60,54.5c-0.1-1.4-0.8-2.1-2-2.1c-1.1,0.1-1.9,0.9-1.8,2.4l0.4,5.1L54.6,60l-0.4-5.1
		c-0.1-1.4-0.8-2.1-2-2c-1.1,0.1-1.9,1-1.8,2.4l0.4,5.1L48.8,60.4z"/>
	<path class="st1" d="M65.1,62l-0.8-11.7l2.1-0.1l0.1,1.5c0.6-1,1.5-1.8,2.9-1.9c2.1-0.1,4.3,1.4,4.5,4.4l0,0c0.2,3-1.7,4.8-3.8,4.9
		c-1.5,0.1-2.5-0.6-3.2-1.4l0.3,4.1L65.1,62z M69.4,57.4c1.4-0.1,2.5-1.3,2.4-3l0,0c-0.1-1.7-1.4-2.8-2.8-2.7
		c-1.4,0.1-2.5,1.3-2.4,3l0,0C66.7,56.4,68,57.5,69.4,57.4z"/>
	<path class="st1" d="M76.4,58.5l-0.9-12.4l2.1-0.1l0.9,12.4L76.4,58.5z"/>
	<path class="st1" d="M85.3,58.1c-2.6,0.2-4.7-1.6-4.9-4.3l0,0c-0.2-2.6,1.5-4.8,4-5c2.8-0.2,4.4,1.9,4.6,4.5c0,0.2,0,0.4,0,0.6
		l-6.6,0.5c0.3,1.4,1.4,2.2,2.7,2.1c1-0.1,1.7-0.5,2.4-1.2l1.3,1C88,57.2,86.9,58,85.3,58.1z M82.3,53l4.6-0.3
		c-0.2-1.3-1.1-2.3-2.4-2.2C83.2,50.5,82.4,51.6,82.3,53z"/>
	<path class="st1" d="M94.4,57.4c-1.5,0.1-2.6-0.5-2.8-2.4l-0.3-4.7l-1.1,0.1l-0.1-1.8l1.1-0.1L91,46l2.1-0.1l0.2,2.5l2.4-0.2
		l0.1,1.8l-2.4,0.2l0.3,4.4c0.1,0.8,0.5,1.1,1.2,1c0.5,0,0.9-0.2,1.3-0.4l0.1,1.7C95.7,57.1,95.2,57.3,94.4,57.4z"/>
	<path class="st1" d="M102.2,56.9c-2.6,0.2-4.7-1.6-4.9-4.3l0,0c-0.2-2.6,1.5-4.8,4-5c2.8-0.2,4.4,1.9,4.6,4.5c0,0.2,0,0.4,0,0.6
		l-6.6,0.5c0.3,1.4,1.4,2.2,2.7,2.1c1-0.1,1.7-0.5,2.4-1.2l1.3,1C105,56,103.9,56.8,102.2,56.9z M99.3,51.8l4.6-0.3
		c-0.2-1.3-1.1-2.3-2.4-2.2C100.2,49.3,99.4,50.4,99.3,51.8z"/>
	<path class="st1" d="M113.4,55.9l-0.6-9l2.1-0.1l0.1,1.4c0.5-0.8,1.2-1.6,2.6-1.7c1.3-0.1,2.2,0.5,2.8,1.4c0.6-1,1.6-1.7,2.9-1.8
		c2-0.1,3.2,1,3.4,3.2l0.4,5.7l-2.1,0.1l-0.4-5.1c-0.1-1.4-0.8-2.1-2-2.1c-1.1,0.1-1.9,0.9-1.8,2.4l0.4,5.1l-2.1,0.1l-0.4-5.1
		c-0.1-1.4-0.8-2.1-2-2s-1.9,1-1.8,2.4l0.4,5.1L113.4,55.9z"/>
	<path class="st1" d="M132.6,54.8c-2,0.1-3.3-1.1-3.4-3.2l-0.4-5.7l2.1-0.1l0.4,5.1c0.1,1.4,0.8,2.1,2.1,2c1.2-0.1,2-1,1.9-2.3
		l-0.4-5.1l2.1-0.1l0.6,9l-2.1,0.1l-0.1-1.4C134.8,53.9,134,54.7,132.6,54.8z"/>
	<path class="st1" d="M140.2,54l-0.9-12.4l2.1-0.1l0.9,12.4L140.2,54z"/>
	<path class="st1" d="M147.9,53.6c-1.5,0.1-2.6-0.5-2.8-2.4l-0.3-4.7l-1.1,0.1l-0.1-1.8l1.1-0.1l-0.2-2.5l2.1-0.1l0.2,2.5l2.4-0.2
		l0.1,1.8l-2.4,0.2l0.3,4.4c0.1,0.8,0.5,1.1,1.2,1c0.5,0,0.9-0.2,1.2-0.4l0.1,1.7C149.2,53.4,148.7,53.6,147.9,53.6z"/>
	<path class="st1" d="M151.2,42.9l-0.1-2l2.2-0.2l0.1,2L151.2,42.9z M152,53.2l-0.6-9l2.1-0.1l0.6,9L152,53.2z"/>
</g>
</svg>
