<?xml version="1.0" encoding="utf-8"?>
<!-- Generator: Adobe Illustrator 27.6.1, SVG Export Plug-In . SVG Version: 6.00 Build 0)  -->
<svg version="1.1" id="Layer_1" xmlns="http://www.w3.org/2000/svg" xmlns:xlink="http://www.w3.org/1999/xlink" x="0px" y="0px"
	 viewBox="0 0 145 145" style="enable-background:new 0 0 145 145;" xml:space="preserve">
<style type="text/css">
	.st0{fill:#D4C3E0;}
	.st1{fill:#555555;}
</style>
<g>
	<path class="st0" d="M60.8,1L60.8,1c39.5-6.4,76.8,20.4,83.2,59.9l0,0c6.4,39.5-20.4,76.8-59.9,83.2l0,0
		C44.7,150.5,7.4,123.7,1,84.2l0,0C-5.5,44.7,21.3,7.4,60.8,1z"/>
	<path class="st1" d="M56.5,53.8l-0.9-11.7l2.2-0.2l4,5.3l3.1-5.8l2.2-0.2L68,52.9l-2.1,0.2l-0.7-8.4L62,50.5l-0.1,0l-4.1-5.2
		l0.7,8.4L56.5,53.8z"/>
	<path class="st1" d="M70,42.5l-0.2-1.9l2.2-0.2l0.2,1.9L70,42.5z M70.9,52.7l-0.7-8.8l2-0.2l0.7,8.8L70.9,52.7z"/>
	<path class="st1" d="M75.7,52.3l-1-12.2l2-0.2l1,12.2L75.7,52.3z"/>
	<path class="st1" d="M84,51.8c-2.1,0.2-4.2-1.3-4.5-4.3l0,0c-0.2-2.9,1.6-4.7,3.7-4.9c1.5-0.1,2.4,0.5,3.1,1.3L86,39.2l2-0.2
		l1,12.2l-2,0.2l-0.1-1.5C86.3,50.9,85.5,51.7,84,51.8z M84.4,50c1.4-0.1,2.5-1.3,2.3-3l0,0c-0.1-1.7-1.4-2.7-2.8-2.6
		c-1.4,0.1-2.5,1.3-2.3,3l0,0C81.7,49.1,83,50.1,84.4,50z"/>
	<path class="st1" d="M34.5,75.4l-0.9-11.7l2.2-0.2l4,5.3l3.1-5.8l2.2-0.2L46,74.5L44,74.7l-0.7-8.4L40,72.1l-0.1,0l-4.1-5.2
		l0.7,8.4L34.5,75.4z"/>
	<path class="st1" d="M52.9,74.2c-2.6,0.2-4.7-1.5-4.9-4.2l0,0c-0.2-2.5,1.4-4.8,4-5c2.8-0.2,4.4,1.9,4.6,4.4c0,0.2,0,0.4,0,0.6
		l-6.5,0.5c0.3,1.4,1.4,2.1,2.7,2c1-0.1,1.7-0.5,2.3-1.2l1.3,1C55.6,73.3,54.5,74,52.9,74.2z M49.9,69.1l4.5-0.4
		c-0.2-1.3-1.1-2.3-2.4-2.1C50.8,66.7,50,67.7,49.9,69.1z"/>
	<path class="st1" d="M59,73.5l-1-12.2l2-0.2l1,12.2L59,73.5z"/>
	<path class="st1" d="M66.3,73.1c-1.7,0.1-3.2-0.7-3.4-2.5l0,0c-0.2-1.9,1.3-3,3.4-3.1c1-0.1,1.7,0,2.4,0.2l0-0.2
		c-0.1-1.3-0.9-1.9-2.3-1.8c-1,0.1-1.7,0.4-2.5,0.8l-0.7-1.5c1-0.5,1.9-0.9,3.3-1c1.3-0.1,2.3,0.2,3,0.8c0.7,0.6,1.1,1.5,1.2,2.7
		l0.4,5.2l-2,0.2l-0.1-1.1C68.5,72.3,67.6,73,66.3,73.1z M66.7,71.5c1.3-0.1,2.3-1,2.2-2.1l0-0.6c-0.5-0.2-1.2-0.3-2-0.2
		c-1.3,0.1-2,0.7-2,1.6l0,0C65,71.2,65.8,71.6,66.7,71.5z"/>
	<path class="st1" d="M76.5,72.2c-1.5,0.1-2.6-0.4-2.8-2.4l-0.4-4.7l-1.1,0.1l-0.1-1.7l1.1-0.1L73,61l2-0.2l0.2,2.4l2.4-0.2l0.1,1.7
		L75.4,65l0.3,4.3c0.1,0.8,0.5,1.1,1.2,1c0.5,0,0.8-0.2,1.2-0.4l0.1,1.7C77.8,71.9,77.2,72.2,76.5,72.2z"/>
	<path class="st1" d="M84.3,71.6c-2.7,0.2-4.9-1.7-5.1-4.2l0,0c-0.2-2.5,1.6-4.8,4.4-5c2.7-0.2,4.9,1.7,5.1,4.2l0,0
		C88.9,69.2,87.1,71.4,84.3,71.6z M84.2,69.9c1.6-0.1,2.6-1.5,2.5-3l0,0c-0.1-1.6-1.4-2.8-2.9-2.6c-1.6,0.1-2.6,1.5-2.4,3l0,0
		C81.4,68.8,82.7,70,84.2,69.9z"/>
	<path class="st1" d="M91.1,70.9L90.4,62l2-0.2l0.1,1.4c0.5-0.9,1.3-1.7,2.6-1.8c2-0.2,3.3,1.1,3.4,3.1l0.5,5.6l-2,0.2l-0.4-5
		c-0.1-1.4-0.9-2.1-2.1-2c-1.2,0.1-1.9,1-1.8,2.4l0.4,5L91.1,70.9z"/>
	<path class="st1" d="M100.7,59.8l-0.2-1.9l2.2-0.2l0.2,1.9L100.7,59.8z M101.6,70l-0.7-8.8l2-0.2l0.7,8.8L101.6,70z"/>
	<path class="st1" d="M106.3,69.7l-0.7-8.8l2-0.2l0.1,1.4c0.5-0.9,1.3-1.7,2.6-1.8c2-0.2,3.3,1.1,3.4,3.1l0.5,5.6l-2,0.2l-0.4-5
		c-0.1-1.4-0.9-2.1-2.1-2c-1.2,0.1-1.9,1-1.8,2.4l0.4,5L106.3,69.7z"/>
	<path class="st1" d="M39.5,94.9l-0.6-7.1l-1.1,0.1l-0.1-1.7l1.1-0.1l-0.1-0.7c-0.1-1,0.1-1.7,0.5-2.2c0.4-0.5,1.1-0.8,1.9-0.9
		c0.7-0.1,1.2,0,1.7,0.1l0.1,1.7C42.6,84,42.2,84,41.8,84c-0.8,0.1-1.1,0.5-1.1,1.4l0,0.5l2.3-0.2l0.1,1.7l-2.3,0.2l0.6,7.1
		L39.5,94.9z"/>
	<path class="st1" d="M49.4,94.3c-2.7,0.2-4.9-1.7-5.1-4.2l0,0c-0.2-2.5,1.6-4.8,4.4-5c2.7-0.2,4.9,1.7,5.1,4.2l0,0
		C53.9,91.8,52.1,94.1,49.4,94.3z M49.2,92.5c1.6-0.1,2.6-1.5,2.5-3l0,0c-0.1-1.6-1.4-2.8-2.9-2.6c-1.6,0.1-2.6,1.5-2.4,3l0,0
		C46.4,91.4,47.7,92.6,49.2,92.5z"/>
	<path class="st1" d="M56.1,93.5l-0.7-8.8l2-0.2l0.2,2c0.4-1.4,1.4-2.4,3-2.4l0.2,2.1l-0.1,0c-1.8,0.1-2.9,1.4-2.7,3.7l0.3,3.4
		L56.1,93.5z"/>
	<path class="st1" d="M71.1,92.5c-1.3,0.1-2.7-0.2-3.9-1l0.8-1.4c1,0.6,2.1,0.9,3,0.9c0.9-0.1,1.3-0.5,1.3-1.1l0,0
		c-0.1-0.7-1-0.8-2.1-1.1c-1.3-0.3-2.8-0.7-3-2.4l0,0c-0.1-1.7,1.2-2.8,2.9-3c1.1-0.1,2.3,0.2,3.3,0.7l-0.7,1.5
		C72,85.1,71,84.9,70.3,85c-0.8,0.1-1.2,0.5-1.2,1l0,0c0.1,0.7,1,0.8,2.1,1.1c1.3,0.3,2.8,0.8,3,2.4l0,0
		C74.3,91.3,73,92.3,71.1,92.5z"/>
	<path class="st1" d="M79.5,91.8c-2,0.2-3.3-1.1-3.4-3.1l-0.5-5.6l2-0.2l0.4,5c0.1,1.4,0.9,2.1,2.1,2c1.2-0.1,1.9-1,1.8-2.3l-0.4-5
		l2-0.2l0.7,8.8l-2,0.2l-0.1-1.4C81.7,90.9,80.9,91.7,79.5,91.8z"/>
	<path class="st1" d="M87.1,93.7l-0.9-11.5l2-0.2l0.1,1.5c0.6-1,1.4-1.8,2.9-1.9c2.1-0.2,4.2,1.3,4.5,4.3l0,0
		c0.2,2.9-1.6,4.8-3.7,4.9c-1.5,0.1-2.5-0.5-3.1-1.3l0.3,4.1L87.1,93.7z M91.3,89.1c1.4-0.1,2.4-1.3,2.3-3l0,0
		c-0.1-1.7-1.4-2.7-2.8-2.6c-1.4,0.1-2.5,1.3-2.4,3l0,0C88.6,88.2,89.9,89.2,91.3,89.1z"/>
	<path class="st1" d="M102.2,90c-2.6,0.2-4.7-1.5-4.9-4.2l0,0c-0.2-2.5,1.4-4.8,4-5c2.8-0.2,4.4,1.9,4.6,4.4c0,0.2,0,0.4,0,0.6
		l-6.5,0.5c0.3,1.4,1.4,2.1,2.7,2c1-0.1,1.7-0.5,2.3-1.2l1.3,1C104.9,89.2,103.8,89.9,102.2,90z M99.2,85l4.5-0.4
		c-0.2-1.3-1.1-2.3-2.4-2.1C100.1,82.6,99.3,83.6,99.2,85z"/>
	<path class="st1" d="M108.2,89.3l-0.7-8.8l2-0.2l0.2,2c0.4-1.4,1.4-2.4,3-2.4l0.2,2.1l-0.1,0c-1.8,0.1-2.9,1.4-2.7,3.7l0.3,3.4
		L108.2,89.3z"/>
	<path class="st1" d="M47.6,114.2c-1.3,0.1-2.7-0.2-3.9-1l0.8-1.4c1,0.6,2.1,0.9,3,0.9c0.9-0.1,1.3-0.5,1.3-1.1l0,0
		c-0.1-0.7-1-0.8-2.1-1.1c-1.3-0.3-2.8-0.7-3-2.4l0,0c-0.1-1.7,1.2-2.8,2.9-3c1.1-0.1,2.3,0.2,3.3,0.7l-0.7,1.5
		c-0.9-0.5-1.8-0.7-2.6-0.6c-0.8,0.1-1.2,0.5-1.2,1l0,0c0.1,0.7,1,0.8,2.1,1.1c1.3,0.3,2.8,0.8,3,2.4l0,0
		C50.9,113,49.5,114.1,47.6,114.2z"/>
	<path class="st1" d="M53,113.6l-0.7-8.8l2-0.2l0.1,1.4c0.5-0.9,1.3-1.7,2.6-1.8c2-0.2,3.3,1.1,3.4,3.1l0.5,5.6l-2,0.2l-0.4-5
		c-0.1-1.4-0.9-2.1-2.1-2c-1.2,0.1-1.9,1-1.8,2.4l0.4,5L53,113.6z"/>
	<path class="st1" d="M67.6,112.6c-2.7,0.2-4.9-1.7-5.1-4.2l0,0c-0.2-2.5,1.6-4.8,4.4-5c2.7-0.2,4.9,1.7,5.1,4.2l0,0
		C72.2,110.2,70.3,112.4,67.6,112.6z M67.5,110.9c1.6-0.1,2.6-1.5,2.5-3l0,0c-0.1-1.6-1.4-2.8-2.9-2.6c-1.6,0.1-2.6,1.5-2.4,3l0,0
		C64.7,109.8,65.9,111,67.5,110.9z"/>
	<path class="st1" d="M78.6,111.8c-2.7,0.2-4.9-1.7-5.1-4.2l0,0c-0.2-2.5,1.6-4.8,4.4-5c2.7-0.2,4.9,1.7,5.1,4.2l0,0
		C83.2,109.3,81.3,111.5,78.6,111.8z M78.5,110c1.6-0.1,2.6-1.5,2.5-3l0,0c-0.1-1.6-1.4-2.8-2.9-2.6c-1.6,0.1-2.6,1.5-2.4,3l0,0
		C75.7,108.9,76.9,110.1,78.5,110z"/>
	<path class="st1" d="M84.7,111.1l-0.1-1.4l4.6-6.2l-4.9,0.4l-0.1-1.7l7.5-0.6l0.1,1.4l-4.6,6.2l5.1-0.4l0.1,1.7L84.7,111.1z"/>
	<path class="st1" d="M98.3,110.2c-2.6,0.2-4.7-1.5-4.9-4.2l0,0c-0.2-2.5,1.4-4.8,4-5c2.8-0.2,4.4,1.9,4.6,4.4c0,0.2,0,0.4,0,0.6
		l-6.5,0.5c0.3,1.4,1.4,2.1,2.7,2c1-0.1,1.7-0.5,2.3-1.2l1.3,1C101,109.3,99.9,110.1,98.3,110.2z M95.3,105.1l4.5-0.4
		c-0.2-1.3-1.1-2.3-2.4-2.1C96.2,102.7,95.4,103.8,95.3,105.1z"/>
	<path class="st1" d="M107.4,109.4c-1.3,0.1-2.7-0.2-3.9-1l0.8-1.4c1,0.6,2.1,0.9,3,0.9c0.9-0.1,1.3-0.5,1.3-1.1l0,0
		c-0.1-0.7-1-0.8-2.1-1.1c-1.3-0.3-2.8-0.7-3-2.4l0,0c-0.1-1.7,1.2-2.8,2.9-3c1.1-0.1,2.3,0.2,3.3,0.7l-0.7,1.5
		c-0.9-0.5-1.8-0.7-2.6-0.6c-0.8,0.1-1.2,0.5-1.2,1l0,0c0.1,0.7,1,0.8,2.1,1.1c1.3,0.3,2.8,0.8,3,2.4l0,0
		C110.6,108.2,109.2,109.3,107.4,109.4z"/>
</g>
</svg>
