<?xml version="1.0" encoding="utf-8"?>
<!-- Generator: Adobe Illustrator 27.6.1, SVG Export Plug-In . SVG Version: 6.00 Build 0)  -->
<svg version="1.1" id="Layer_1" xmlns="http://www.w3.org/2000/svg" xmlns:xlink="http://www.w3.org/1999/xlink" x="0px" y="0px"
	 viewBox="0 0 187 75" style="enable-background:new 0 0 187 75;" xml:space="preserve">
<style type="text/css">
	.st0{fill:#94D8FF;}
	.st1{fill:#555555;}
</style>
<path class="st0" d="M33,0.1l126.5,11.4c16.5,1.5,28.7,16.1,27.2,32.6l-0.3,3c-1.5,16.5-16.1,28.7-32.6,27.2L27.3,62.9
	C10.8,61.4-1.4,46.8,0.1,30.3l0.3-3C1.9,10.8,16.5-1.4,33,0.1z"/>
<path class="st1" d="M42.9,28.5c-3.7-0.3-5.9-3.2-5.6-6.7l0,0c0.3-3.3,3.1-5.9,6.7-5.6c2.1,0.2,3.3,0.9,4.4,2l-1.5,1.5
	c-0.8-0.8-1.7-1.4-3.2-1.6c-2.2-0.2-4,1.5-4.2,3.8l0,0c-0.2,2.4,1.2,4.4,3.6,4.6c1.1,0.1,2.2-0.2,2.9-0.6l0.2-2.2l-3-0.3l0.2-1.8
	l5,0.5l-0.5,5C46.7,28,45,28.7,42.9,28.5z M49.5,28.9l6.3-11.5l1.9,0.2L61.9,30l-2.2-0.2l-0.9-3l-5.6-0.5l-1.5,2.7L49.5,28.9z
	 M54.1,24.6l4.1,0.4L56.5,20L54.1,24.6z M63.9,30.2L65,18.3l5.3,0.5c1.4,0.1,2.4,0.6,3,1.3c0.5,0.6,0.7,1.3,0.6,2l0,0
	c-0.1,1.4-1,2.1-1.9,2.5c1.3,0.6,2.2,1.5,2.1,3.1l0,0c-0.2,2.1-2,3.1-4.7,2.9L63.9,30.2z M71.8,22.4L71.8,22.4
	c0.1-1-0.6-1.6-1.9-1.7l-3-0.3l-0.3,3.1l2.8,0.3C70.8,23.9,71.7,23.5,71.8,22.4z M72,27.4c0.1-1-0.7-1.7-2.3-1.8l-3.3-0.3l-0.3,3.3
	l3.5,0.3C71,29,71.9,28.5,72,27.4L72,27.4z M75,31.2l6.3-11.5l1.9,0.2l4.1,12.4l-2.2-0.2l-0.9-3l-5.6-0.5l-1.5,2.7L75,31.2z
	 M79.6,26.9l4.1,0.4l-1.6-4.9L79.6,26.9z M102.7,34l-1.4-1.8c-1.1,0.9-2.3,1.3-3.8,1.2c-2.2-0.2-3.8-1.7-3.6-3.7l0,0
	c0.1-1.5,1.2-2.5,2.8-3.1c-0.6-0.9-0.8-1.7-0.8-2.6l0,0c0.1-1.6,1.6-2.9,3.7-2.7c1.9,0.2,3,1.6,2.9,3.1l0,0
	c-0.1,1.6-1.3,2.4-2.9,2.8l1.8,2.3c0.5-0.6,1-1.4,1.5-2.2l1.5,1c-0.6,0.9-1.2,1.8-1.9,2.5l1.7,2.1L102.7,34z M98.7,26.1
	c1.3-0.3,2-0.8,2-1.7l0,0c0.1-0.8-0.4-1.4-1.2-1.5c-0.8-0.1-1.5,0.5-1.6,1.3l0,0C97.9,24.9,98.1,25.3,98.7,26.1z M97.9,31.7
	c0.8,0.1,1.6-0.2,2.3-0.8L97.8,28c-1.1,0.4-1.7,1.1-1.8,1.8l0,0C96,30.8,96.7,31.6,97.9,31.7z M111.1,34.5l0.8-8.9l2.1,0.2l-0.1,1.4
	c0.6-0.7,1.5-1.4,2.9-1.3c1.3,0.1,2.1,0.8,2.5,1.8c0.8-0.9,1.8-1.4,3.2-1.3c1.9,0.2,3,1.5,2.8,3.7l-0.5,5.7l-2-0.2l0.5-5.1
	c0.1-1.4-0.5-2.2-1.6-2.3c-1.1-0.1-2,0.6-2.1,2l-0.5,5l-2-0.2l0.5-5.1c0.1-1.4-0.5-2.2-1.6-2.3c-1.1-0.1-2,0.7-2.1,2l-0.5,5
	L111.1,34.5z M131.4,36.6c-2.7-0.2-4.6-2.5-4.3-5.1l0,0c0.2-2.6,2.5-4.5,5.2-4.2c2.7,0.3,4.6,2.5,4.3,5.1l0,0
	C136.4,34.9,134.2,36.8,131.4,36.6z M131.6,34.8c1.7,0.2,2.8-1,3-2.6l0,0c0.1-1.6-0.9-3-2.5-3.1c-1.6-0.1-2.8,1-3,2.6l0,0
	C129,33.2,130,34.6,131.6,34.8z M138.3,37l0.8-8.9l2.1,0.2l-0.2,2c0.7-1.3,1.8-2.1,3.4-1.9l-0.2,2.2l-0.1,0
	c-1.8-0.2-3.2,0.9-3.4,3.3l-0.3,3.4L138.3,37z M149.1,38.2c-2.6-0.2-4.4-2.3-4.2-5.1l0,0c0.2-2.6,2.2-4.5,4.8-4.3
	c2.8,0.3,4.1,2.6,3.8,5.2c0,0.2-0.1,0.4-0.1,0.6l-6.6-0.6c0.1,1.5,1,2.4,2.4,2.5c1,0.1,1.7-0.2,2.5-0.8l1.1,1.2
	C152,37.8,150.8,38.3,149.1,38.2z M147,32.6l4.6,0.4c0-1.3-0.7-2.4-2.1-2.6C148.3,30.4,147.4,31.3,147,32.6z M28.7,47.1l1.1-12.4
	l2.1,0.2l-0.7,7.4l4.1-3.6l2.5,0.2l-3.9,3.3l3.2,5.6l-2.4-0.2l-2.3-4.1L31,44.7l-0.2,2.6L28.7,47.1z M42.2,48.5
	c-2.6-0.2-4.4-2.3-4.2-5.1l0,0c0.2-2.6,2.2-4.5,4.8-4.3c2.8,0.3,4.1,2.6,3.8,5.2c0,0.2-0.1,0.4-0.1,0.6L40,44.3
	c0.1,1.5,1,2.4,2.4,2.5c1,0.1,1.7-0.2,2.5-0.8l1.1,1.2C45.1,48.1,43.9,48.7,42.2,48.5z M40.1,43l4.6,0.4c0-1.3-0.7-2.4-2.1-2.6
	C41.4,40.7,40.5,41.6,40.1,43z M52.4,49.4c-2.6-0.2-4.4-2.3-4.2-5.1l0,0c0.2-2.6,2.2-4.5,4.8-4.3c2.8,0.3,4.1,2.6,3.8,5.2
	c0,0.2-0.1,0.4-0.1,0.6l-6.6-0.6c0.1,1.5,1,2.4,2.4,2.5c1,0.1,1.7-0.2,2.5-0.8l1.1,1.2C55.3,49,54.1,49.6,52.4,49.4z M50.4,43.9
	l4.6,0.4c0-1.3-0.7-2.4-2.1-2.6C51.6,41.6,50.7,42.5,50.4,43.9z M58.3,52.5l1.1-11.6l2.1,0.2l-0.1,1.5c0.7-0.9,1.7-1.5,3.2-1.4
	c2.1,0.2,4,2,3.7,5l0,0c-0.3,3-2.5,4.5-4.6,4.3c-1.5-0.1-2.4-1-2.9-1.9l-0.4,4.1L58.3,52.5z M63.3,48.6c1.4,0.1,2.7-0.9,2.8-2.6l0,0
	c0.2-1.7-0.9-3-2.3-3.1c-1.4-0.1-2.7,0.9-2.9,2.6l0,0C60.8,47.2,61.9,48.5,63.3,48.6z M73,51.3c-1.3-0.1-2.6-0.7-3.7-1.7l1-1.3
	c0.9,0.8,1.9,1.3,2.8,1.4c0.9,0.1,1.4-0.2,1.5-0.8l0,0c0.1-0.7-0.9-1-1.9-1.4c-1.3-0.5-2.7-1.2-2.6-2.9l0,0c0.2-1.7,1.7-2.6,3.4-2.5
	c1.1,0.1,2.3,0.6,3.2,1.3l-0.9,1.4c-0.8-0.6-1.7-1-2.4-1.1c-0.8-0.1-1.3,0.3-1.3,0.8l0,0c-0.1,0.7,0.9,1,1.9,1.5
	c1.3,0.5,2.7,1.3,2.5,2.9l0,0C76.4,50.6,74.8,51.4,73,51.3z M83.8,45.3l0.9-5l2.4,0.2l0,0.1l-2.1,4.8L83.8,45.3z M92.1,53.1
	c-2.6-0.2-4.4-2.3-4.2-5.1l0,0c0.2-2.6,2.2-4.5,4.8-4.3c2.8,0.3,4.1,2.6,3.8,5.2c0,0.2-0.1,0.4-0.1,0.6l-6.6-0.6
	c0.1,1.5,1,2.4,2.4,2.5c1,0.1,1.7-0.2,2.5-0.8l1.1,1.2C95,52.7,93.8,53.2,92.1,53.1z M90,47.5l4.6,0.4c0-1.3-0.7-2.4-2.1-2.6
	C91.3,45.3,90.4,46.2,90,47.5z M98.2,53.4l0.8-8.9l2.1,0.2L101,46c0.6-0.7,1.5-1.4,2.9-1.3c1.3,0.1,2.1,0.8,2.5,1.8
	c0.8-0.9,1.8-1.4,3.2-1.3c1.9,0.2,3,1.5,2.8,3.7l-0.5,5.7l-2-0.2l0.5-5.1c0.1-1.4-0.5-2.2-1.6-2.3c-1.1-0.1-2,0.6-2.1,2l-0.5,5
	l-2-0.2l0.5-5.1c0.1-1.4-0.5-2.2-1.6-2.3c-1.1-0.1-2,0.7-2.1,2l-0.5,5L98.2,53.4z M123.5,55.9c-2.7-0.2-4.4-2.5-4.2-5l0,0
	c0.2-2.5,2.4-4.5,5.1-4.2c1.7,0.2,2.7,0.9,3.4,1.9l-1.4,1.3c-0.6-0.7-1.2-1.2-2.2-1.3c-1.5-0.1-2.7,1.1-2.8,2.6l0,0
	c-0.1,1.6,0.8,3,2.4,3.1c1,0.1,1.7-0.3,2.4-0.9l1.1,1.3C126.4,55.5,125.3,56.1,123.5,55.9L123.5,55.9z M131.6,56.6
	c-1.7-0.2-3.1-1.3-2.9-3.1l0,0c0.2-1.9,1.8-2.7,4-2.5c1,0.1,1.7,0.3,2.4,0.6l0-0.2c0.1-1.3-0.6-2-2-2.1c-1-0.1-1.8,0.1-2.6,0.3
	l-0.4-1.7c1-0.3,2-0.5,3.5-0.4c1.3,0.1,2.3,0.6,2.9,1.3c0.6,0.7,0.8,1.7,0.7,2.8l-0.5,5.3l-2-0.2l0.1-1.1
	C134,56.3,133,56.8,131.6,56.6L131.6,56.6z M132.3,55.2c1.4,0.1,2.5-0.6,2.6-1.7l0.1-0.6c-0.5-0.3-1.2-0.5-2-0.5
	c-1.3-0.1-2.1,0.4-2.2,1.3l0,0C130.6,54.6,131.4,55.1,132.3,55.2L132.3,55.2z M139.1,57.1l1.1-12.4l2.1,0.2l-1.1,12.4L139.1,57.1z
	 M143.8,57.6l0.8-8.9l2.1,0.2l-0.1,1.4c0.6-0.7,1.5-1.4,2.9-1.3c1.3,0.1,2.1,0.8,2.5,1.8c0.8-0.9,1.8-1.4,3.2-1.3
	c1.9,0.2,3,1.5,2.8,3.7l-0.5,5.7l-2-0.2l0.5-5.1c0.1-1.4-0.5-2.2-1.6-2.3c-1.1-0.1-2,0.6-2.1,2l-0.5,5l-2-0.2l0.5-5.1
	c0.1-1.4-0.5-2.2-1.6-2.3c-1.1-0.1-2,0.7-2.1,2l-0.5,5L143.8,57.6z"/>
</svg>
