<svg xmlns="http://www.w3.org/2000/svg" fill="none" viewBox="0 0 26 26" height="26" width="26">
<g clip-path="url(#clip0_43_163)">
<path fill="#FBDE62" d="M19.7723 13.5818C19.3758 10.4046 16.6717 7.94385 13.3852 7.94385C9.82795 7.94385 6.94336 10.8284 6.94336 14.3857H19.827C19.827 14.1122 19.8051 13.847 19.7723 13.5818Z"></path>
<path fill="#FFAF66" d="M19.8259 14.3857C19.8259 17.593 17.48 20.2452 14.4095 20.7373C14.0732 20.792 13.7341 20.8275 13.3841 20.8275C9.82692 20.8275 6.94233 17.943 6.94233 14.3857H2.76172C2.76172 20.2479 7.51378 25 13.3759 25C19.2381 25 23.9901 20.2479 23.9901 14.3857H19.8287H19.8259Z"></path>
<path fill="#FBDE62" d="M13.3852 20.8275C13.7351 20.8275 14.0769 20.792 14.4105 20.7373C17.4783 20.2452 19.827 17.593 19.827 14.3857H6.94336C6.94336 17.943 9.82795 20.8275 13.3852 20.8275Z"></path>
<path fill="#F2411E" d="M13.3852 20.8275C13.7351 20.8275 14.0769 20.792 14.4105 20.7373C17.4783 20.2452 19.827 17.593 19.827 14.3857H6.94336C6.94336 17.943 9.82795 20.8275 13.3852 20.8275Z"></path>
<path fill="#FBDE62" d="M2.06787 8.22043L1 10.6929L5.4027 12.5944L6.47058 10.122L2.06787 8.22043Z"></path>
<path fill="#FBDE62" d="M9.74166 2.02147L7.23828 3.01465L9.00685 7.47244L11.5102 6.47926L9.74166 2.02147Z"></path>
<path fill="#FBDE62" d="M17.0774 2.00013L15.1758 6.40283L17.6482 7.4707L19.5498 3.068L17.0774 2.00013Z"></path>
<path fill="#FBDE62" d="M24.7508 8.23973L20.293 10.0083L21.2861 12.5117L25.7439 10.7431L24.7508 8.23973Z"></path>
</g>
<defs>
<clipPath id="clip0_43_163">
<rect fill="white" height="26" width="26"></rect>
</clipPath>
</defs>
</svg>
