<svg width="145" height="70" viewBox="0 0 145 70" fill="none" xmlns="http://www.w3.org/2000/svg">
<path fill-rule="evenodd" clip-rule="evenodd" d="M145 36C145 36.5523 144.552 37 144 37L143.951 37C143.398 37 142.951 36.5523 142.951 36C142.951 35.4477 143.398 35 143.951 35L144 35C144.552 35 145 35.4477 145 36ZM140.014 36C140.014 36.5523 139.566 37 139.014 37L138.915 37C138.363 37 137.915 36.5523 137.915 36C137.915 35.4477 138.363 35 138.915 35L139.014 35C139.566 35 140.014 35.4477 140.014 36ZM134.978 36C134.978 36.5523 134.53 37 133.978 37L133.879 37C133.327 37 132.879 36.5523 132.879 36C132.879 35.4477 133.327 35 133.879 35L133.978 35C134.53 35 134.978 35.4477 134.978 36ZM129.942 36C129.942 36.5523 129.495 37 128.942 37L128.843 37C128.291 37 127.843 36.5523 127.843 36C127.843 35.4477 128.291 35 128.843 35L128.942 35C129.495 35 129.942 35.4477 129.942 36ZM124.907 36C124.907 36.5523 124.459 37 123.907 37L123.808 37C123.255 37 122.808 36.5523 122.808 36C122.808 35.4477 123.255 35 123.808 35L123.907 35C124.459 35 124.907 35.4477 124.907 36ZM119.871 36C119.871 36.5523 119.423 37 118.871 37L118.772 37C118.22 37 117.772 36.5523 117.772 36C117.772 35.4477 118.22 35 118.772 35L118.871 35C119.423 35 119.871 35.4477 119.871 36ZM114.835 36C114.835 36.5523 114.387 37 113.835 37L113.736 37C113.184 37 112.736 36.5523 112.736 36C112.736 35.4477 113.184 35 113.736 35L113.835 35C114.387 35 114.835 35.4477 114.835 36ZM109.799 36C109.799 36.5523 109.352 37 108.799 37L108.701 37C108.148 37 107.701 36.5523 107.701 36C107.701 35.4477 108.148 35 108.701 35L108.799 35C109.352 35 109.799 35.4477 109.799 36ZM104.764 36C104.764 36.5523 104.316 37 103.764 37L103.665 37C103.113 37 102.665 36.5523 102.665 36C102.665 35.4477 103.113 35 103.665 35L103.764 35C104.316 35 104.764 35.4477 104.764 36ZM99.7279 36C99.7279 36.5523 99.2802 37 98.7279 37L98.6292 37C98.0769 37 97.6292 36.5523 97.6292 36C97.6292 35.4477 98.0769 35 98.6292 35L98.7279 35C99.2802 35 99.7279 35.4477 99.7279 36ZM94.6922 36C94.6922 36.5523 94.2445 37 93.6922 37L93.5935 37C93.0412 37 92.5935 36.5523 92.5935 36C92.5935 35.4477 93.0412 35 93.5935 35L93.6922 35C94.2445 35 94.6922 35.4477 94.6922 36ZM89.6565 36C89.6565 36.5523 89.2088 37 88.6565 37L88.5578 37C88.0055 37 87.5578 36.5523 87.5578 36C87.5578 35.4477 88.0055 35 88.5578 35L88.6565 35C89.2088 35 89.6565 35.4477 89.6565 36ZM84.6208 36C84.6208 36.5523 84.1731 37 83.6208 37L83.5221 37C82.9698 37 82.5221 36.5523 82.5221 36C82.5221 35.4477 82.9698 35 83.5221 35L83.6208 35C84.1731 35 84.6208 35.4477 84.6208 36ZM79.5851 36C79.5851 36.5523 79.1374 37 78.5851 37L78.4863 37C77.9341 37 77.4863 36.5523 77.4863 36C77.4863 35.4477 77.9341 35 78.4863 35L78.5851 35C79.1374 35 79.5851 35.4477 79.5851 36ZM74.5494 36C74.5494 36.5523 74.1017 37 73.5494 37L73.4506 37C72.8983 37 72.4506 36.5523 72.4506 36C72.4506 35.4477 72.8983 35 73.4506 35L73.5494 35C74.1017 35 74.5494 35.4477 74.5494 36ZM69.5137 36C69.5137 36.5523 69.0659 37 68.5137 37L68.4149 37C67.8626 37 67.4149 36.5523 67.4149 36C67.4149 35.4477 67.8626 35 68.4149 35L68.5137 35C69.0659 35 69.5137 35.4477 69.5137 36ZM64.4779 36C64.4779 36.5523 64.0302 37 63.4779 37L63.3792 37C62.8269 37 62.3792 36.5523 62.3792 36C62.3792 35.4477 62.8269 35 63.3792 35L63.4779 35C64.0302 35 64.4779 35.4477 64.4779 36ZM59.4422 36C59.4422 36.5523 58.9945 37 58.4422 37L58.3435 37C57.7912 37 57.3435 36.5523 57.3435 36C57.3435 35.4477 57.7912 35 58.3435 35L58.4422 35C58.9945 35 59.4422 35.4477 59.4422 36ZM54.4065 36C54.4065 36.5523 53.9588 37 53.4065 37L53.3078 37C52.7555 37 52.3078 36.5523 52.3078 36C52.3078 35.4477 52.7555 35 53.3078 35L53.4065 35C53.9588 35 54.4065 35.4477 54.4065 36ZM49.3708 36C49.3708 36.5523 48.9231 37 48.3708 37L48.2721 37C47.7198 37 47.2721 36.5523 47.2721 36C47.2721 35.4477 47.7198 35 48.2721 35L48.3708 35C48.9231 35 49.3708 35.4477 49.3708 36ZM44.3351 36C44.3351 36.5523 43.8874 37 43.3351 37L43.2364 37C42.6841 37 42.2364 36.5523 42.2364 36C42.2364 35.4477 42.6841 35 43.2364 35L43.3351 35C43.8874 35 44.3351 35.4477 44.3351 36ZM39.2994 36C39.2994 36.5523 38.8517 37 38.2994 37L38.2006 37C37.6484 37 37.2006 36.5523 37.2006 36C37.2006 35.4477 37.6484 35 38.2006 35L38.2994 35C38.8517 35 39.2994 35.4477 39.2994 36ZM34.2637 36C34.2637 36.5523 33.8159 37 33.2637 37L33.1649 37C32.6126 37 32.1649 36.5523 32.1649 36C32.1649 35.4477 32.6126 35 33.1649 35L33.2637 35C33.8159 35 34.2637 35.4477 34.2637 36ZM29.228 36C29.228 36.5523 28.7802 37 28.228 37L28.1292 37C27.5769 37 27.1292 36.5523 27.1292 36C27.1292 35.4477 27.5769 35 28.1292 35L28.228 35C28.7802 35 29.228 35.4477 29.228 36ZM24.1922 36C24.1922 36.5523 23.7445 37 23.1922 37L23.0935 37C22.5412 37 22.0935 36.5523 22.0935 36C22.0935 35.4477 22.5412 35 23.0935 35L23.1922 35C23.7445 35 24.1922 35.4477 24.1922 36ZM19.1565 36C19.1565 36.5523 18.7088 37 18.1565 37L18.0578 37C17.5055 37 17.0578 36.5523 17.0578 36C17.0578 35.4477 17.5055 35 18.0578 35L18.1565 35C18.7088 35 19.1565 35.4477 19.1565 36ZM14.1208 36C14.1208 36.5523 13.6731 37 13.1208 37L13.0221 37C12.4698 37 12.0221 36.5523 12.0221 36C12.0221 35.4477 12.4698 35 13.0221 35L13.1208 35C13.6731 35 14.1208 35.4477 14.1208 36ZM9.08508 36C9.08508 36.5523 8.63737 37 8.08508 37L7.98634 37C7.43407 37 6.98634 36.5523 6.98634 36C6.98634 35.4477 7.43407 35 7.98634 35L8.08508 35C8.63738 35 9.08508 35.4477 9.08508 36ZM4.04936 36C4.04936 36.5523 3.60164 37 3.04936 37L3 37C2.44771 37 2 36.5523 2 36C2 35.4477 2.44771 35 3 35L3.04936 35C3.60164 35 4.04936 35.4477 4.04936 36Z" fill="#4F3527"/>
<path fill-rule="evenodd" clip-rule="evenodd" d="M2.00001 2.5817e-07L2 70L0.5 70L0.500012 0L2.00001 2.5817e-07Z" fill="#4F3527"/>
</svg>
