<?xml version="1.0" encoding="utf-8"?>
<!-- Generator: Adobe Illustrator 24.2.3, SVG Export Plug-In . SVG Version: 6.00 Build 0)  -->
<svg version="1.1" xmlns="http://www.w3.org/2000/svg" xmlns:xlink="http://www.w3.org/1999/xlink" x="0px" y="0px"
	 viewBox="0 0 1440 540" style="enable-background:new 0 0 1440 540;" xml:space="preserve">
<style type="text/css">
	.st0{fill:#FFFFFF;}
	.st1{fill:#00C6B3;}
	.st2{fill:#FEFFFF;}
	.st3{fill:#BB2D9A;}
</style>
<g id="CTA_1_">
	<g id="Rectangle_2_copy">
		<g>
			<path class="st0" d="M891,267.9H711c-9.7,0-17.5,7.8-17.5,17.5s7.8,17.5,17.5,17.5h180c9.7,0,17.5-7.8,17.5-17.5
				S900.7,267.9,891,267.9z"/>
		</g>
	</g>
	<g id="SHOP_THE_COLLECTION">
		<g>
			<path class="st1" d="M712.3,288.6l1.2-1.4c0.8,0.7,1.7,1.1,2.7,1.1c0.8,0,1.3-0.3,1.3-0.9v0c0-0.5-0.3-0.8-1.8-1.2
				c-1.8-0.5-3-1-3-2.8v0c0-1.7,1.3-2.7,3.2-2.7c1.3,0,2.5,0.4,3.4,1.2l-1,1.5c-0.8-0.6-1.6-0.9-2.4-0.9s-1.2,0.4-1.2,0.8v0
				c0,0.6,0.4,0.8,2,1.2c1.8,0.5,2.9,1.1,2.9,2.7v0c0,1.8-1.4,2.8-3.3,2.8C714.8,290,713.4,289.5,712.3,288.6z"/>
			<path class="st1" d="M722.3,280.8h2v3.6h3.7v-3.6h2v9.1h-2v-3.7h-3.7v3.7h-2V280.8z"/>
			<path class="st1" d="M732.7,285.4L732.7,285.4c0-2.6,2-4.7,4.8-4.7c2.8,0,4.8,2.1,4.8,4.7v0c0,2.6-2,4.7-4.8,4.7
				C734.7,290,732.7,287.9,732.7,285.4z M740.3,285.4L740.3,285.4c0-1.6-1.1-2.9-2.8-2.9c-1.6,0-2.7,1.3-2.7,2.8v0
				c0,1.6,1.1,2.9,2.8,2.9S740.3,286.9,740.3,285.4z"/>
			<path class="st1" d="M745.1,280.8h3.7c2.2,0,3.5,1.3,3.5,3.1v0c0,2.1-1.6,3.2-3.7,3.2h-1.5v2.7h-2V280.8z M748.7,285.4
				c1,0,1.6-0.6,1.6-1.4v0c0-0.9-0.6-1.4-1.6-1.4h-1.5v2.8H748.7z"/>
			<path class="st1" d="M761.8,282.6H759v-1.8h7.5v1.8h-2.8v7.3h-2V282.6z"/>
			<path class="st1" d="M769.1,280.8h2v3.6h3.7v-3.6h2v9.1h-2v-3.7h-3.7v3.7h-2V280.8z"/>
			<path class="st1" d="M779.9,280.8h6.9v1.8h-4.9v1.8h4.3v1.8h-4.3v1.9h4.9v1.8h-6.9V280.8z"/>
			<path class="st1" d="M794.1,285.4L794.1,285.4c0-2.6,1.9-4.7,4.7-4.7c1.7,0,2.7,0.6,3.6,1.4l-1.3,1.5c-0.7-0.6-1.4-1-2.3-1
				c-1.5,0-2.6,1.3-2.6,2.8v0c0,1.6,1.1,2.9,2.6,2.9c1,0,1.7-0.4,2.4-1.1l1.3,1.3c-0.9,1-2,1.6-3.7,1.6
				C796.1,290,794.1,288,794.1,285.4z"/>
			<path class="st1" d="M804.4,285.4L804.4,285.4c0-2.6,2-4.7,4.8-4.7c2.8,0,4.8,2.1,4.8,4.7v0c0,2.6-2,4.7-4.8,4.7
				C806.4,290,804.4,287.9,804.4,285.4z M812,285.4L812,285.4c0-1.6-1.1-2.9-2.8-2.9c-1.6,0-2.7,1.3-2.7,2.8v0
				c0,1.6,1.1,2.9,2.8,2.9S812,286.9,812,285.4z"/>
			<path class="st1" d="M816.8,280.8h2v7.3h4.5v1.8h-6.5V280.8z"/>
			<path class="st1" d="M825.8,280.8h2v7.3h4.5v1.8h-6.5V280.8z"/>
			<path class="st1" d="M834.9,280.8h6.9v1.8h-4.9v1.8h4.3v1.8h-4.3v1.9h4.9v1.8h-6.9V280.8z"/>
			<path class="st1" d="M844.2,285.4L844.2,285.4c0-2.6,1.9-4.7,4.7-4.7c1.7,0,2.7,0.6,3.6,1.4l-1.3,1.5c-0.7-0.6-1.4-1-2.3-1
				c-1.5,0-2.6,1.3-2.6,2.8v0c0,1.6,1.1,2.9,2.6,2.9c1,0,1.7-0.4,2.4-1.1l1.3,1.3c-0.9,1-2,1.6-3.7,1.6
				C846.1,290,844.2,288,844.2,285.4z"/>
			<path class="st1" d="M857.2,282.6h-2.8v-1.8h7.5v1.8h-2.8v7.3h-2V282.6z"/>
			<path class="st1" d="M864.6,280.8h2v9.1h-2V280.8z"/>
			<path class="st1" d="M869.5,285.4L869.5,285.4c0-2.6,2-4.7,4.8-4.7c2.8,0,4.8,2.1,4.8,4.7v0c0,2.6-2,4.7-4.8,4.7
				C871.5,290,869.5,287.9,869.5,285.4z M877,285.4L877,285.4c0-1.6-1.1-2.9-2.8-2.9c-1.6,0-2.7,1.3-2.7,2.8v0
				c0,1.6,1.1,2.9,2.8,2.9S877,286.9,877,285.4z"/>
			<path class="st1" d="M881.9,280.8h1.8l4.3,5.6v-5.6h2v9.1h-1.7l-4.4-5.8v5.8h-2V280.8z"/>
		</g>
	</g>
</g>
<g id="TEXT_1_">
	<g id="We_don_x2019_t_need_to_be_so_private_when_it_comes_to_our_private_par_1_">
		<g>
			<path class="st2" d="M623.7,120h2.1l4.8,14l4.6-14h1.6l4.6,14l4.8-14h2l-6,16.9h-1.6l-4.6-13.6l-4.6,13.6h-1.6L623.7,120z"/>
			<path class="st2" d="M649,130.7L649,130.7c0-3.6,2.5-6.5,6-6.5c3.7,0,5.8,2.9,5.8,6.6c0,0.2,0,0.4,0,0.6h-9.8
				c0.3,2.7,2.2,4.2,4.4,4.2c1.7,0,2.9-0.7,3.9-1.8l1.2,1c-1.2,1.4-2.8,2.3-5.1,2.3C651.8,137.1,649,134.5,649,130.7z M658.8,129.9
				c-0.2-2.3-1.5-4.2-4-4.2c-2.2,0-3.8,1.8-4,4.2H658.8z"/>
			<path class="st2" d="M663.1,124.6c1.2-0.4,1.7-1.1,1.6-2.1h-0.9V120h2.2v2.2c0,1.9-0.8,2.9-2.7,3.3L663.1,124.6z"/>
			<path class="st2" d="M669.8,124.4h1.8v3.2c0.9-2.1,2.7-3.6,5.1-3.5v2h-0.1c-2.7,0-4.9,1.9-4.9,5.7v4.9h-1.8V124.4z"/>
			<path class="st2" d="M678.2,130.7L678.2,130.7c0-3.6,2.5-6.5,6-6.5c3.7,0,5.8,2.9,5.8,6.6c0,0.2,0,0.4,0,0.6h-9.8
				c0.3,2.7,2.2,4.2,4.4,4.2c1.7,0,2.9-0.7,3.9-1.8l1.2,1c-1.2,1.4-2.8,2.3-5.1,2.3C681,137.1,678.2,134.5,678.2,130.7z
				 M688.1,129.9c-0.2-2.3-1.5-4.2-4-4.2c-2.2,0-3.8,1.8-4,4.2H688.1z"/>
			<path class="st2" d="M699.4,135.3l0.9-1.3c1.3,1,2.8,1.6,4.3,1.6c1.5,0,2.6-0.8,2.6-2v0c0-1.2-1.5-1.7-3.1-2.2
				c-1.9-0.6-4.1-1.2-4.1-3.5v0c0-2.1,1.8-3.6,4.2-3.6c1.5,0,3.2,0.5,4.5,1.4l-0.8,1.4c-1.2-0.7-2.5-1.2-3.7-1.2
				c-1.5,0-2.4,0.8-2.4,1.8v0c0,1.2,1.5,1.6,3.2,2.1c1.9,0.6,4,1.3,4,3.6v0c0,2.4-1.9,3.7-4.4,3.7
				C702.8,137.1,700.8,136.4,699.4,135.3z"/>
			<path class="st2" d="M711.4,133.2L711.4,133.2c0-2.7,2.2-4.1,5.3-4.1c1.6,0,2.7,0.2,3.8,0.5v-0.4c0-2.2-1.4-3.4-3.7-3.4
				c-1.5,0-2.6,0.4-3.8,0.9l-0.6-1.5c1.4-0.6,2.7-1,4.5-1c1.8,0,3.1,0.5,4,1.4c0.8,0.8,1.3,2,1.3,3.6v7.6h-1.8V135
				c-0.9,1.1-2.3,2.1-4.5,2.1C713.8,137.1,711.4,135.8,711.4,133.2z M720.6,132.3v-1.2c-0.9-0.3-2.1-0.5-3.6-0.5
				c-2.3,0-3.6,1-3.6,2.6v0c0,1.6,1.4,2.5,3.1,2.5C718.7,135.6,720.6,134.2,720.6,132.3z"/>
			<path class="st2" d="M735.1,124.4h2l-5.2,12.8c-1.1,2.6-2.3,3.5-4.1,3.5c-1,0-1.8-0.2-2.6-0.6l0.6-1.5c0.6,0.3,1.2,0.5,1.9,0.5
				c1.1,0,1.8-0.6,2.5-2.3l-5.6-12.4h2l4.5,10.3L735.1,124.4z"/>
			<path class="st2" d="M740,119.7h2.1v2H740V119.7z M740.1,124.4h1.8v12.4h-1.8V124.4z"/>
			<path class="st2" d="M746.3,124.4h1.8v2.2c0.8-1.3,2.1-2.4,4.2-2.4c3,0,4.8,2,4.8,5v7.7h-1.8v-7.2c0-2.3-1.2-3.7-3.4-3.7
				c-2.1,0-3.7,1.6-3.7,3.9v7.1h-1.8V124.4z"/>
			<path class="st2" d="M760.9,139l0.8-1.4c1.4,1,3,1.6,4.8,1.6c2.7,0,4.5-1.5,4.5-4.4v-1.5c-1.1,1.4-2.6,2.6-4.9,2.6
				c-3,0-5.8-2.2-5.8-5.8v0c0-3.6,2.9-5.9,5.8-5.9c2.3,0,3.8,1.2,4.8,2.5v-2.2h1.8v10.2c0,1.9-0.6,3.4-1.6,4.4
				c-1.1,1.1-2.8,1.7-4.7,1.7C764.5,140.7,762.6,140.1,760.9,139z M771.1,130L771.1,130c0-2.6-2.2-4.2-4.6-4.2
				c-2.4,0-4.3,1.6-4.3,4.2v0c0,2.5,2,4.2,4.3,4.2C768.9,134.2,771.1,132.5,771.1,130z"/>
			<path class="st2" d="M783.2,135.3l0.9-1.3c1.3,1,2.8,1.6,4.3,1.6c1.5,0,2.6-0.8,2.6-2v0c0-1.2-1.5-1.7-3.1-2.2
				c-1.9-0.6-4.1-1.2-4.1-3.5v0c0-2.1,1.8-3.6,4.2-3.6c1.5,0,3.2,0.5,4.5,1.4l-0.8,1.4c-1.2-0.7-2.5-1.2-3.7-1.2
				c-1.5,0-2.4,0.8-2.4,1.8v0c0,1.2,1.5,1.6,3.2,2.1c1.9,0.6,4,1.3,4,3.6v0c0,2.4-1.9,3.7-4.4,3.7
				C786.5,137.1,784.6,136.4,783.2,135.3z"/>
			<path class="st2" d="M795.4,130.7L795.4,130.7c0-3.6,2.7-6.5,6.5-6.5c3.7,0,6.5,2.9,6.5,6.4v0c0,3.5-2.8,6.5-6.5,6.5
				C798.1,137.1,795.4,134.2,795.4,130.7z M806.4,130.7L806.4,130.7c0-2.7-2-4.9-4.6-4.9c-2.7,0-4.5,2.2-4.5,4.8v0
				c0,2.7,2,4.8,4.6,4.8C804.6,135.5,806.4,133.3,806.4,130.7z"/>
			<path class="st2" d="M819,119.3h1.8v17.5H819V119.3z"/>
			<path class="st2" d="M824.4,130.7L824.4,130.7c0-3.6,2.7-6.5,6.5-6.5c3.7,0,6.5,2.9,6.5,6.4v0c0,3.5-2.8,6.5-6.5,6.5
				C827.1,137.1,824.4,134.2,824.4,130.7z M835.4,130.7L835.4,130.7c0-2.7-2-4.9-4.6-4.9c-2.7,0-4.5,2.2-4.5,4.8v0
				c0,2.7,2,4.8,4.6,4.8C833.6,135.5,835.4,133.3,835.4,130.7z"/>
			<path class="st2" d="M840.7,124.4h1.8v2.2c0.8-1.3,2.1-2.4,4.2-2.4c3,0,4.8,2,4.8,5v7.7h-1.8v-7.2c0-2.3-1.2-3.7-3.4-3.7
				c-2.1,0-3.7,1.6-3.7,3.9v7.1h-1.8V124.4z"/>
			<path class="st2" d="M855.3,139l0.8-1.4c1.4,1,3,1.6,4.8,1.6c2.7,0,4.5-1.5,4.5-4.4v-1.5c-1.1,1.4-2.6,2.6-4.9,2.6
				c-3,0-5.8-2.2-5.8-5.8v0c0-3.6,2.9-5.9,5.8-5.9c2.3,0,3.8,1.2,4.8,2.5v-2.2h1.8v10.2c0,1.9-0.6,3.4-1.6,4.4
				c-1.1,1.1-2.8,1.7-4.7,1.7C858.9,140.7,857,140.1,855.3,139z M865.5,130L865.5,130c0-2.6-2.2-4.2-4.6-4.2c-2.4,0-4.3,1.6-4.3,4.2
				v0c0,2.5,2,4.2,4.3,4.2C863.3,134.2,865.5,132.5,865.5,130z"/>
			<path class="st2" d="M879.2,133.5v-7.5h-1.7v-1.6h1.7v-3.7h1.8v3.7h3.9v1.6h-3.9v7.2c0,1.5,0.8,2.1,2.1,2.1
				c0.6,0,1.2-0.1,1.8-0.4v1.6c-0.6,0.3-1.3,0.5-2.2,0.5C880.8,137.1,879.2,136.1,879.2,133.5z"/>
			<path class="st2" d="M887.2,130.7L887.2,130.7c0-3.6,2.7-6.5,6.5-6.5c3.7,0,6.5,2.9,6.5,6.4v0c0,3.5-2.8,6.5-6.5,6.5
				C889.9,137.1,887.2,134.2,887.2,130.7z M898.2,130.7L898.2,130.7c0-2.7-2-4.9-4.6-4.9c-2.7,0-4.5,2.2-4.5,4.8v0
				c0,2.7,2,4.8,4.6,4.8C896.3,135.5,898.2,133.3,898.2,130.7z"/>
			<path class="st2" d="M911.3,133.5v-7.5h-1.7v-1.6h1.7v-3.7h1.8v3.7h3.9v1.6h-3.9v7.2c0,1.5,0.8,2.1,2.1,2.1
				c0.6,0,1.2-0.1,1.8-0.4v1.6c-0.6,0.3-1.3,0.5-2.2,0.5C912.8,137.1,911.3,136.1,911.3,133.5z"/>
			<path class="st2" d="M919.4,133.2L919.4,133.2c0-2.7,2.2-4.1,5.3-4.1c1.6,0,2.7,0.2,3.8,0.5v-0.4c0-2.2-1.4-3.4-3.7-3.4
				c-1.5,0-2.6,0.4-3.8,0.9l-0.6-1.5c1.4-0.6,2.7-1,4.5-1c1.8,0,3.1,0.5,4,1.4c0.8,0.8,1.3,2,1.3,3.6v7.6h-1.8V135
				c-0.9,1.1-2.3,2.1-4.5,2.1C921.7,137.1,919.4,135.8,919.4,133.2z M928.5,132.3v-1.2c-0.9-0.3-2.1-0.5-3.6-0.5
				c-2.3,0-3.6,1-3.6,2.6v0c0,1.6,1.4,2.5,3.1,2.5C926.7,135.6,928.5,134.2,928.5,132.3z"/>
			<path class="st2" d="M936.1,134.5v2.4h-1.8v-17.5h1.8v7.6c1-1.5,2.5-2.8,4.8-2.8c3,0,5.9,2.4,5.9,6.4v0c0,4.1-2.9,6.5-5.9,6.5
				C938.5,137.1,937,135.9,936.1,134.5z M944.9,130.7L944.9,130.7c0-3-2-4.8-4.4-4.8c-2.3,0-4.5,1.9-4.5,4.8v0
				c0,2.9,2.2,4.8,4.5,4.8C942.9,135.4,944.9,133.7,944.9,130.7z"/>
			<path class="st2" d="M949.4,130.7L949.4,130.7c0-3.6,2.7-6.5,6.5-6.5c3.7,0,6.5,2.9,6.5,6.4v0c0,3.5-2.8,6.5-6.5,6.5
				C952.1,137.1,949.4,134.2,949.4,130.7z M960.4,130.7L960.4,130.7c0-2.7-2-4.9-4.6-4.9c-2.7,0-4.5,2.2-4.5,4.8v0
				c0,2.7,2,4.8,4.6,4.8C958.6,135.5,960.4,133.3,960.4,130.7z"/>
			<path class="st2" d="M964.9,130.7L964.9,130.7c0-3.6,2.7-6.5,6.5-6.5c3.7,0,6.5,2.9,6.5,6.4v0c0,3.5-2.8,6.5-6.5,6.5
				C967.6,137.1,964.9,134.2,964.9,130.7z M975.9,130.7L975.9,130.7c0-2.7-2-4.9-4.6-4.9c-2.7,0-4.5,2.2-4.5,4.8v0
				c0,2.7,2,4.8,4.6,4.8C974.1,135.5,975.9,133.3,975.9,130.7z"/>
			<path class="st2" d="M600.8,165.5v-7.5H599v-1.6h1.7v-3.7h1.8v3.7h3.9v1.6h-3.9v7.2c0,1.5,0.8,2.1,2.1,2.1c0.6,0,1.2-0.1,1.8-0.4
				v1.6c-0.6,0.3-1.3,0.5-2.2,0.5C602.3,169.1,600.8,168.1,600.8,165.5z"/>
			<path class="st2" d="M608.7,162.7L608.7,162.7c0-3.6,2.7-6.5,6.5-6.5c3.7,0,6.5,2.9,6.5,6.4v0c0,3.5-2.8,6.5-6.5,6.5
				C611.4,169.1,608.7,166.2,608.7,162.7z M619.7,162.7L619.7,162.7c0-2.7-2-4.9-4.6-4.9c-2.7,0-4.5,2.2-4.5,4.8v0
				c0,2.7,2,4.8,4.6,4.8C617.8,167.5,619.7,165.3,619.7,162.7z"/>
			<path class="st2" d="M624.9,156.4h1.8v2.5c1-1.5,2.5-2.8,4.8-2.8c3,0,5.9,2.4,5.9,6.4v0c0,4.1-2.9,6.5-5.9,6.5
				c-2.3,0-3.8-1.2-4.8-2.6v6.2h-1.8V156.4z M635.6,162.7L635.6,162.7c0-3-2-4.8-4.4-4.8c-2.3,0-4.5,1.9-4.5,4.8v0
				c0,2.9,2.2,4.8,4.5,4.8C633.6,167.4,635.6,165.7,635.6,162.7z"/>
			<path class="st2" d="M640.9,151.7h2.1v2h-2.1V151.7z M641,156.4h1.8v12.4H641V156.4z"/>
			<path class="st2" d="M646.4,162.7L646.4,162.7c0-3.6,2.7-6.5,6.4-6.5c2.4,0,3.8,1,5,2.2l-1.2,1.3c-1-1-2.1-1.9-3.8-1.9
				c-2.5,0-4.4,2.1-4.4,4.8v0c0,2.7,2,4.8,4.6,4.8c1.6,0,2.8-0.8,3.8-1.8l1.2,1.1c-1.2,1.4-2.7,2.4-5.1,2.4
				C649.2,169.1,646.4,166.2,646.4,162.7z"/>
			<path class="st2" d="M659.9,167.3l0.9-1.3c1.3,1,2.8,1.6,4.3,1.6c1.5,0,2.6-0.8,2.6-2v0c0-1.2-1.5-1.7-3.1-2.2
				c-1.9-0.6-4.1-1.2-4.1-3.5v0c0-2.1,1.8-3.6,4.2-3.6c1.5,0,3.2,0.5,4.5,1.4l-0.8,1.4c-1.2-0.7-2.5-1.2-3.7-1.2
				c-1.5,0-2.4,0.8-2.4,1.8v0c0,1.2,1.5,1.6,3.2,2.1c1.9,0.6,4,1.3,4,3.6v0c0,2.4-1.9,3.7-4.4,3.7
				C663.2,169.1,661.3,168.4,659.9,167.3z"/>
			<path class="st2" d="M679.1,165.2L679.1,165.2c0-2.7,2.2-4.1,5.3-4.1c1.6,0,2.7,0.2,3.8,0.5v-0.4c0-2.2-1.4-3.4-3.7-3.4
				c-1.5,0-2.6,0.4-3.8,0.9l-0.6-1.5c1.4-0.6,2.7-1,4.5-1c1.8,0,3.1,0.5,4,1.4c0.8,0.8,1.3,2,1.3,3.6v7.6h-1.8V167
				c-0.9,1.1-2.3,2.1-4.5,2.1C681.4,169.1,679.1,167.8,679.1,165.2z M688.3,164.3v-1.2c-0.9-0.3-2.1-0.5-3.6-0.5
				c-2.3,0-3.6,1-3.6,2.6v0c0,1.6,1.4,2.5,3.1,2.5C686.4,167.6,688.3,166.2,688.3,164.3z"/>
			<path class="st2" d="M693.9,156.4h1.8v2.2c0.8-1.3,2.1-2.4,4.2-2.4c3,0,4.8,2,4.8,5v7.7h-1.8v-7.2c0-2.3-1.2-3.7-3.4-3.7
				c-2.1,0-3.7,1.6-3.7,3.9v7.1h-1.8V156.4z"/>
			<path class="st2" d="M708,162.7L708,162.7c0-4.1,3-6.5,5.9-6.5c2.3,0,3.8,1.2,4.8,2.6v-7.5h1.8v17.5h-1.8v-2.5
				c-1,1.5-2.5,2.8-4.8,2.8C711,169.1,708,166.7,708,162.7z M718.8,162.6L718.8,162.6c0-2.9-2.2-4.8-4.5-4.8c-2.4,0-4.4,1.8-4.4,4.8
				v0c0,2.9,2,4.8,4.4,4.8C716.6,167.4,718.8,165.5,718.8,162.6z"/>
			<path class="st2" d="M731.9,151.3h1.8v7.3c0.8-1.3,2.1-2.4,4.2-2.4c3,0,4.8,2,4.8,5v7.7h-1.8v-7.2c0-2.3-1.2-3.7-3.4-3.7
				c-2.1,0-3.7,1.6-3.7,3.9v7.1h-1.8V151.3z"/>
			<path class="st2" d="M745.9,162.7L745.9,162.7c0-3.6,2.5-6.5,6-6.5c3.7,0,5.8,2.9,5.8,6.6c0,0.2,0,0.4,0,0.6h-9.8
				c0.3,2.7,2.2,4.2,4.4,4.2c1.7,0,2.9-0.7,3.9-1.8l1.2,1c-1.2,1.4-2.8,2.3-5.1,2.3C748.7,169.1,745.9,166.5,745.9,162.7z
				 M755.7,161.9c-0.2-2.3-1.5-4.2-4-4.2c-2.2,0-3.8,1.8-4,4.2H755.7z"/>
			<path class="st2" d="M761,151.3h1.8v17.5H761V151.3z"/>
			<path class="st2" d="M767.3,151.3h1.8v17.5h-1.8V151.3z"/>
			<path class="st2" d="M772.7,162.7L772.7,162.7c0-3.6,2.7-6.5,6.5-6.5c3.7,0,6.5,2.9,6.5,6.4v0c0,3.5-2.8,6.5-6.5,6.5
				C775.4,169.1,772.7,166.2,772.7,162.7z M783.8,162.7L783.8,162.7c0-2.7-2-4.9-4.6-4.9c-2.7,0-4.5,2.2-4.5,4.8v0
				c0,2.7,2,4.8,4.6,4.8C781.9,167.5,783.8,165.3,783.8,162.7z"/>
			<path class="st2" d="M796.8,165.5v-7.5h-1.7v-1.6h1.7v-3.7h1.8v3.7h3.9v1.6h-3.9v7.2c0,1.5,0.8,2.1,2.1,2.1
				c0.6,0,1.2-0.1,1.8-0.4v1.6c-0.6,0.3-1.3,0.5-2.2,0.5C798.3,169.1,796.8,168.1,796.8,165.5z"/>
			<path class="st2" d="M804.7,162.7L804.7,162.7c0-3.6,2.7-6.5,6.5-6.5c3.7,0,6.5,2.9,6.5,6.4v0c0,3.5-2.8,6.5-6.5,6.5
				C807.5,169.1,804.7,166.2,804.7,162.7z M815.8,162.7L815.8,162.7c0-2.7-2-4.9-4.6-4.9c-2.7,0-4.5,2.2-4.5,4.8v0
				c0,2.7,2,4.8,4.6,4.8C813.9,167.5,815.8,165.3,815.8,162.7z"/>
			<path class="st2" d="M827.3,165.2L827.3,165.2c0-2.7,2.2-4.1,5.3-4.1c1.6,0,2.7,0.2,3.8,0.5v-0.4c0-2.2-1.4-3.4-3.7-3.4
				c-1.5,0-2.6,0.4-3.8,0.9l-0.6-1.5c1.4-0.6,2.7-1,4.5-1c1.8,0,3.1,0.5,4,1.4c0.8,0.8,1.3,2,1.3,3.6v7.6h-1.8V167
				c-0.9,1.1-2.3,2.1-4.5,2.1C829.6,169.1,827.3,167.8,827.3,165.2z M836.4,164.3v-1.2c-0.9-0.3-2.1-0.5-3.6-0.5
				c-2.3,0-3.6,1-3.6,2.6v0c0,1.6,1.4,2.5,3.1,2.5C834.6,167.6,836.4,166.2,836.4,164.3z"/>
			<path class="st2" d="M842.1,156.4h1.8v2.2c0.8-1.3,2.1-2.4,4.2-2.4c3,0,4.8,2,4.8,5v7.7h-1.8v-7.2c0-2.3-1.2-3.7-3.4-3.7
				c-2.1,0-3.7,1.6-3.7,3.9v7.1h-1.8V156.4z"/>
			<path class="st2" d="M863.3,162.7L863.3,162.7c0-3.6,2.5-6.5,6-6.5c3.7,0,5.8,2.9,5.8,6.6c0,0.2,0,0.4,0,0.6h-9.8
				c0.3,2.7,2.2,4.2,4.4,4.2c1.7,0,2.9-0.7,3.9-1.8l1.2,1c-1.2,1.4-2.8,2.3-5.1,2.3C866.1,169.1,863.3,166.5,863.3,162.7z
				 M873.2,161.9c-0.2-2.3-1.5-4.2-4-4.2c-2.2,0-3.8,1.8-4,4.2H873.2z"/>
			<path class="st2" d="M878.3,156.4h1.8v2.1c0.8-1.2,1.9-2.4,4-2.4c2,0,3.3,1.1,4,2.5c0.9-1.4,2.2-2.5,4.4-2.5c2.9,0,4.6,1.9,4.6,5
				v7.7h-1.8v-7.2c0-2.4-1.2-3.7-3.2-3.7c-1.9,0-3.4,1.4-3.4,3.8v7.2h-1.8v-7.3c0-2.3-1.2-3.7-3.2-3.7c-2,0-3.5,1.6-3.5,3.9v7.1
				h-1.8V156.4z"/>
			<path class="st2" d="M901.1,156.4h1.8v2.5c1-1.5,2.5-2.8,4.8-2.8c3,0,5.9,2.4,5.9,6.4v0c0,4.1-2.9,6.5-5.9,6.5
				c-2.3,0-3.8-1.2-4.8-2.6v6.2h-1.8V156.4z M911.8,162.7L911.8,162.7c0-3-2-4.8-4.4-4.8c-2.3,0-4.5,1.9-4.5,4.8v0
				c0,2.9,2.2,4.8,4.5,4.8C909.8,167.4,911.8,165.7,911.8,162.7z"/>
			<path class="st2" d="M916.3,162.7L916.3,162.7c0-3.6,2.7-6.5,6.5-6.5c3.7,0,6.5,2.9,6.5,6.4v0c0,3.5-2.8,6.5-6.5,6.5
				C919,169.1,916.3,166.2,916.3,162.7z M927.3,162.7L927.3,162.7c0-2.7-2-4.9-4.6-4.9c-2.7,0-4.5,2.2-4.5,4.8v0
				c0,2.7,2,4.8,4.6,4.8C925.5,167.5,927.3,165.3,927.3,162.7z"/>
			<path class="st2" d="M930.9,156.4h2l3.3,10l3.3-10h1.5l3.4,10l3.3-10h1.9l-4.4,12.5h-1.6l-3.3-9.8l-3.4,9.8h-1.6L930.9,156.4z"/>
			<path class="st2" d="M951.3,162.7L951.3,162.7c0-3.6,2.5-6.5,6-6.5c3.7,0,5.8,2.9,5.8,6.6c0,0.2,0,0.4,0,0.6h-9.8
				c0.3,2.7,2.2,4.2,4.4,4.2c1.7,0,2.9-0.7,3.9-1.8l1.2,1c-1.2,1.4-2.8,2.3-5.1,2.3C954,169.1,951.3,166.5,951.3,162.7z
				 M961.1,161.9c-0.2-2.3-1.5-4.2-4-4.2c-2.2,0-3.8,1.8-4,4.2H961.1z"/>
			<path class="st2" d="M966.2,156.4h1.8v3.2c0.9-2.1,2.7-3.6,5.1-3.5v2H973c-2.7,0-4.9,1.9-4.9,5.7v4.9h-1.8V156.4z"/>
			<path class="st2" d="M976,151.7h2.1v2H976V151.7z M976.1,156.4h1.8v12.4h-1.8V156.4z"/>
			<path class="st2" d="M982.3,156.4h1.8v2.2c0.8-1.3,2.1-2.4,4.2-2.4c3,0,4.8,2,4.8,5v7.7h-1.8v-7.2c0-2.3-1.2-3.7-3.4-3.7
				c-2.1,0-3.7,1.6-3.7,3.9v7.1h-1.8V156.4z"/>
			<path class="st2" d="M996.9,171l0.8-1.4c1.4,1,3,1.6,4.8,1.6c2.7,0,4.5-1.5,4.5-4.4v-1.5c-1.1,1.4-2.6,2.6-4.9,2.6
				c-3,0-5.8-2.2-5.8-5.8v0c0-3.6,2.9-5.9,5.8-5.9c2.3,0,3.8,1.2,4.8,2.5v-2.2h1.8v10.2c0,1.9-0.6,3.4-1.6,4.4
				c-1.1,1.1-2.8,1.7-4.7,1.7C1000.5,172.7,998.6,172.1,996.9,171z M1007.1,162L1007.1,162c0-2.6-2.2-4.2-4.6-4.2
				c-2.4,0-4.3,1.6-4.3,4.2v0c0,2.5,2,4.2,4.3,4.2C1004.9,166.2,1007.1,164.5,1007.1,162z"/>
			<path class="st2" d="M617,194.7L617,194.7c0-3.6,2.7-6.5,6.4-6.5c2.4,0,3.8,1,5,2.2l-1.2,1.3c-1-1-2.1-1.9-3.8-1.9
				c-2.5,0-4.4,2.1-4.4,4.8v0c0,2.7,2,4.8,4.6,4.8c1.6,0,2.8-0.8,3.8-1.8l1.2,1.1c-1.2,1.4-2.7,2.4-5.1,2.4
				C619.7,201.1,617,198.2,617,194.7z"/>
			<path class="st2" d="M630.3,194.7L630.3,194.7c0-3.6,2.7-6.5,6.5-6.5c3.7,0,6.5,2.9,6.5,6.4v0c0,3.5-2.8,6.5-6.5,6.5
				C633,201.1,630.3,198.2,630.3,194.7z M641.3,194.7L641.3,194.7c0-2.7-2-4.9-4.6-4.9c-2.7,0-4.5,2.2-4.5,4.8v0
				c0,2.7,2,4.8,4.6,4.8C639.5,199.5,641.3,197.3,641.3,194.7z"/>
			<path class="st2" d="M646.7,183.3h1.8v17.5h-1.8V183.3z"/>
			<path class="st2" d="M653,183.3h1.8v17.5H653V183.3z"/>
			<path class="st2" d="M658.4,194.7L658.4,194.7c0-3.6,2.5-6.5,6-6.5c3.7,0,5.8,2.9,5.8,6.6c0,0.2,0,0.4,0,0.6h-9.8
				c0.3,2.7,2.2,4.2,4.4,4.2c1.7,0,2.9-0.7,3.9-1.8l1.2,1c-1.2,1.4-2.8,2.3-5.1,2.3C661.2,201.1,658.4,198.5,658.4,194.7z
				 M668.3,193.9c-0.2-2.3-1.5-4.2-4-4.2c-2.2,0-3.8,1.8-4,4.2H668.3z"/>
			<path class="st2" d="M672.6,194.7L672.6,194.7c0-3.6,2.7-6.5,6.4-6.5c2.4,0,3.8,1,5,2.2l-1.2,1.3c-1-1-2.1-1.9-3.8-1.9
				c-2.5,0-4.4,2.1-4.4,4.8v0c0,2.7,2,4.8,4.6,4.8c1.6,0,2.8-0.8,3.8-1.8l1.2,1.1c-1.2,1.4-2.7,2.4-5.1,2.4
				C675.4,201.1,672.6,198.2,672.6,194.7z"/>
			<path class="st2" d="M687.8,197.5v-7.5H686v-1.6h1.7v-3.7h1.8v3.7h3.9v1.6h-3.9v7.2c0,1.5,0.8,2.1,2.1,2.1c0.6,0,1.2-0.1,1.8-0.4
				v1.6c-0.6,0.3-1.3,0.5-2.2,0.5C689.3,201.1,687.8,200.1,687.8,197.5z"/>
			<path class="st2" d="M696.8,183.7h2.1v2h-2.1V183.7z M697,188.4h1.8v12.4H697V188.4z"/>
			<path class="st2" d="M702.3,194.7L702.3,194.7c0-3.6,2.7-6.5,6.5-6.5c3.7,0,6.5,2.9,6.5,6.4v0c0,3.5-2.8,6.5-6.5,6.5
				C705.1,201.1,702.3,198.2,702.3,194.7z M713.4,194.7L713.4,194.7c0-2.7-2-4.9-4.6-4.9c-2.7,0-4.5,2.2-4.5,4.8v0
				c0,2.7,2,4.8,4.6,4.8C711.5,199.5,713.4,197.3,713.4,194.7z"/>
			<path class="st2" d="M718.6,188.4h1.8v2.2c0.8-1.3,2.1-2.4,4.2-2.4c3,0,4.8,2,4.8,5v7.7h-1.8v-7.2c0-2.3-1.2-3.7-3.4-3.7
				c-2.1,0-3.7,1.6-3.7,3.9v7.1h-1.8V188.4z"/>
			<path class="st2" d="M739.8,194.7L739.8,194.7c0-3.6,2.7-6.5,6.5-6.5c3.7,0,6.5,2.9,6.5,6.4v0c0,3.5-2.8,6.5-6.5,6.5
				C742.5,201.1,739.8,198.2,739.8,194.7z M750.9,194.7L750.9,194.7c0-2.7-2-4.9-4.6-4.9c-2.7,0-4.5,2.2-4.5,4.8v0
				c0,2.7,2,4.8,4.6,4.8C749,199.5,750.9,197.3,750.9,194.7z"/>
			<path class="st2" d="M756.8,190.1h-1.7v-1.6h1.7v-1.1c0-1.4,0.4-2.5,1.1-3.2c0.6-0.6,1.5-1,2.7-1c0.9,0,1.4,0.1,2,0.3v1.6
				c-0.7-0.2-1.2-0.3-1.8-0.3c-1.4,0-2.2,0.9-2.2,2.6v1h3.9v1.6h-3.9v10.8h-1.8V190.1z"/>
			<path class="st2" d="M771.1,199.3l0.9-1.3c1.3,1,2.8,1.6,4.3,1.6c1.5,0,2.6-0.8,2.6-2v0c0-1.2-1.5-1.7-3.1-2.2
				c-1.9-0.6-4.1-1.2-4.1-3.5v0c0-2.1,1.8-3.6,4.2-3.6c1.5,0,3.2,0.5,4.5,1.4l-0.8,1.4c-1.2-0.7-2.5-1.2-3.7-1.2
				c-1.5,0-2.4,0.8-2.4,1.8v0c0,1.2,1.5,1.6,3.2,2.1c1.9,0.6,4,1.3,4,3.6v0c0,2.4-1.9,3.7-4.4,3.7
				C774.4,201.1,772.5,200.4,771.1,199.3z"/>
			<path class="st2" d="M783.3,194.7L783.3,194.7c0-3.6,2.5-6.5,6-6.5c3.7,0,5.8,2.9,5.8,6.6c0,0.2,0,0.4,0,0.6h-9.8
				c0.3,2.7,2.2,4.2,4.4,4.2c1.7,0,2.9-0.7,3.9-1.8l1.2,1c-1.2,1.4-2.8,2.3-5.1,2.3C786.1,201.1,783.3,198.5,783.3,194.7z
				 M793.2,193.9c-0.2-2.3-1.5-4.2-4-4.2c-2.2,0-3.8,1.8-4,4.2H793.2z"/>
			<path class="st2" d="M798.4,183.3h1.8v17.5h-1.8V183.3z"/>
			<path class="st2" d="M805.3,190.1h-1.7v-1.6h1.7v-1.1c0-1.4,0.4-2.5,1.1-3.2c0.6-0.6,1.5-1,2.7-1c0.9,0,1.4,0.1,2,0.3v1.6
				c-0.7-0.2-1.2-0.3-1.8-0.3c-1.4,0-2.2,0.9-2.2,2.6v1h3.9v1.6h-3.9v10.8h-1.8V190.1z"/>
			<path class="st2" d="M812.9,192.7h6.7v1.9h-6.7V192.7z"/>
			<path class="st2" d="M822.4,194.7L822.4,194.7c0-3.6,2.7-6.5,6.4-6.5c2.4,0,3.8,1,5,2.2l-1.2,1.3c-1-1-2.1-1.9-3.8-1.9
				c-2.5,0-4.4,2.1-4.4,4.8v0c0,2.7,2,4.8,4.6,4.8c1.6,0,2.8-0.8,3.8-1.8l1.2,1.1c-1.2,1.4-2.7,2.4-5.1,2.4
				C825.1,201.1,822.4,198.2,822.4,194.7z"/>
			<path class="st2" d="M835.9,197.2L835.9,197.2c0-2.7,2.2-4.1,5.3-4.1c1.6,0,2.7,0.2,3.8,0.5v-0.4c0-2.2-1.4-3.4-3.7-3.4
				c-1.5,0-2.6,0.4-3.8,0.9l-0.6-1.5c1.4-0.6,2.7-1,4.5-1c1.8,0,3.1,0.5,4,1.4c0.8,0.8,1.3,2,1.3,3.6v7.6h-1.8V199
				c-0.9,1.1-2.3,2.1-4.5,2.1C838.3,201.1,835.9,199.8,835.9,197.2z M845.1,196.3v-1.2c-0.9-0.3-2.1-0.5-3.6-0.5
				c-2.3,0-3.6,1-3.6,2.6v0c0,1.6,1.4,2.5,3.1,2.5C843.2,199.6,845.1,198.2,845.1,196.3z"/>
			<path class="st2" d="M850.8,188.4h1.8v3.2c0.9-2.1,2.7-3.6,5.1-3.5v2h-0.1c-2.7,0-4.9,1.9-4.9,5.7v4.9h-1.8V188.4z"/>
			<path class="st2" d="M859.2,194.7L859.2,194.7c0-3.6,2.5-6.5,6-6.5c3.7,0,5.8,2.9,5.8,6.6c0,0.2,0,0.4,0,0.6h-9.8
				c0.3,2.7,2.2,4.2,4.4,4.2c1.7,0,2.9-0.7,3.9-1.8l1.2,1c-1.2,1.4-2.8,2.3-5.1,2.3C862,201.1,859.2,198.5,859.2,194.7z
				 M869.1,193.9c-0.2-2.3-1.5-4.2-4-4.2c-2.2,0-3.8,1.8-4,4.2H869.1z"/>
			<path class="st2" d="M880.3,199.3l0.9-1.3c1.3,1,2.8,1.6,4.3,1.6c1.5,0,2.6-0.8,2.6-2v0c0-1.2-1.5-1.7-3.1-2.2
				c-1.9-0.6-4.1-1.2-4.1-3.5v0c0-2.1,1.8-3.6,4.2-3.6c1.5,0,3.2,0.5,4.5,1.4l-0.8,1.4c-1.2-0.7-2.5-1.2-3.7-1.2
				c-1.5,0-2.4,0.8-2.4,1.8v0c0,1.2,1.5,1.6,3.2,2.1c1.9,0.6,4,1.3,4,3.6v0c0,2.4-1.9,3.7-4.4,3.7
				C883.7,201.1,881.7,200.4,880.3,199.3z"/>
			<path class="st2" d="M892.6,194.7L892.6,194.7c0-3.6,2.7-6.5,6.5-6.5c3.7,0,6.5,2.9,6.5,6.4v0c0,3.5-2.8,6.5-6.5,6.5
				C895.3,201.1,892.6,198.2,892.6,194.7z M903.6,194.7L903.6,194.7c0-2.7-2-4.9-4.6-4.9c-2.7,0-4.5,2.2-4.5,4.8v0
				c0,2.7,2,4.8,4.6,4.8C901.7,199.5,903.6,197.3,903.6,194.7z"/>
			<path class="st2" d="M909,183.3h1.8v17.5H909V183.3z"/>
			<path class="st2" d="M915,196.1v-7.7h1.8v7.2c0,2.3,1.2,3.7,3.4,3.7c2.1,0,3.7-1.6,3.7-3.9v-7.1h1.8v12.4H924v-2.2
				c-0.8,1.3-2.1,2.4-4.2,2.4C916.7,201.1,915,199.1,915,196.1z"/>
			<path class="st2" d="M930.6,197.5v-7.5h-1.7v-1.6h1.7v-3.7h1.8v3.7h3.9v1.6h-3.9v7.2c0,1.5,0.8,2.1,2.1,2.1
				c0.6,0,1.2-0.1,1.8-0.4v1.6c-0.6,0.3-1.3,0.5-2.2,0.5C932.1,201.1,930.6,200.1,930.6,197.5z"/>
			<path class="st2" d="M939.7,183.7h2.1v2h-2.1V183.7z M939.8,188.4h1.8v12.4h-1.8V188.4z"/>
			<path class="st2" d="M945.2,194.7L945.2,194.7c0-3.6,2.7-6.5,6.5-6.5c3.7,0,6.5,2.9,6.5,6.4v0c0,3.5-2.8,6.5-6.5,6.5
				C947.9,201.1,945.2,198.2,945.2,194.7z M956.2,194.7L956.2,194.7c0-2.7-2-4.9-4.6-4.9c-2.7,0-4.5,2.2-4.5,4.8v0
				c0,2.7,2,4.8,4.6,4.8C954.3,199.5,956.2,197.3,956.2,194.7z"/>
			<path class="st2" d="M961.4,188.4h1.8v2.2c0.8-1.3,2.1-2.4,4.2-2.4c3,0,4.8,2,4.8,5v7.7h-1.8v-7.2c0-2.3-1.2-3.7-3.4-3.7
				c-2.1,0-3.7,1.6-3.7,3.9v7.1h-1.8V188.4z"/>
			<path class="st2" d="M975.2,199.3l0.9-1.3c1.3,1,2.8,1.6,4.3,1.6c1.5,0,2.6-0.8,2.6-2v0c0-1.2-1.5-1.7-3.1-2.2
				c-1.9-0.6-4.1-1.2-4.1-3.5v0c0-2.1,1.8-3.6,4.2-3.6c1.5,0,3.2,0.5,4.5,1.4l-0.8,1.4c-1.2-0.7-2.5-1.2-3.7-1.2
				c-1.5,0-2.4,0.8-2.4,1.8v0c0,1.2,1.5,1.6,3.2,2.1c1.9,0.6,4,1.3,4,3.6v0c0,2.4-1.9,3.7-4.4,3.7
				C978.6,201.1,976.6,200.4,975.2,199.3z"/>
			<path class="st2" d="M672.3,222.1h-1.7v-1.6h1.7v-1.1c0-1.4,0.4-2.5,1.1-3.2c0.6-0.6,1.5-1,2.7-1c0.9,0,1.4,0.1,2,0.3v1.6
				c-0.7-0.2-1.2-0.3-1.8-0.3c-1.4,0-2.2,0.9-2.2,2.6v1h3.9v1.6h-3.9v10.8h-1.8V222.1z"/>
			<path class="st2" d="M679.4,226.7L679.4,226.7c0-3.6,2.7-6.5,6.5-6.5c3.7,0,6.5,2.9,6.5,6.4v0c0,3.5-2.8,6.5-6.5,6.5
				C682.1,233.1,679.4,230.2,679.4,226.7z M690.4,226.7L690.4,226.7c0-2.7-2-4.9-4.6-4.9c-2.7,0-4.5,2.2-4.5,4.8v0
				c0,2.7,2,4.8,4.6,4.8C688.6,231.5,690.4,229.3,690.4,226.7z"/>
			<path class="st2" d="M695.7,220.4h1.8v3.2c0.9-2.1,2.7-3.6,5.1-3.5v2h-0.1c-2.7,0-4.9,1.9-4.9,5.7v4.9h-1.8V220.4z"/>
			<path class="st2" d="M711.5,220.4h2l3.3,10l3.3-10h1.5l3.4,10l3.3-10h1.9l-4.4,12.5h-1.6l-3.3-9.8l-3.4,9.8h-1.6L711.5,220.4z"/>
			<path class="st2" d="M731.9,226.7L731.9,226.7c0-3.6,2.7-6.5,6.5-6.5c3.7,0,6.5,2.9,6.5,6.4v0c0,3.5-2.8,6.5-6.5,6.5
				C734.6,233.1,731.9,230.2,731.9,226.7z M742.9,226.7L742.9,226.7c0-2.7-2-4.9-4.6-4.9c-2.7,0-4.5,2.2-4.5,4.8v0
				c0,2.7,2,4.8,4.6,4.8C741.1,231.5,742.9,229.3,742.9,226.7z"/>
			<path class="st2" d="M748.2,220.4h1.8v2.1c0.8-1.2,1.9-2.4,4-2.4c2,0,3.3,1.1,4,2.5c0.9-1.4,2.2-2.5,4.4-2.5c2.9,0,4.6,1.9,4.6,5
				v7.7h-1.8v-7.2c0-2.4-1.2-3.7-3.2-3.7c-1.9,0-3.4,1.4-3.4,3.8v7.2h-1.8v-7.3c0-2.3-1.2-3.7-3.2-3.7c-2,0-3.5,1.6-3.5,3.9v7.1
				h-1.8V220.4z"/>
			<path class="st2" d="M770.2,226.7L770.2,226.7c0-3.6,2.5-6.5,6-6.5c3.7,0,5.8,2.9,5.8,6.6c0,0.2,0,0.4,0,0.6h-9.8
				c0.3,2.7,2.2,4.2,4.4,4.2c1.7,0,2.9-0.7,3.9-1.8l1.2,1c-1.2,1.4-2.8,2.3-5.1,2.3C773,233.1,770.2,230.5,770.2,226.7z
				 M780.1,225.9c-0.2-2.3-1.5-4.2-4-4.2c-2.2,0-3.8,1.8-4,4.2H780.1z"/>
			<path class="st2" d="M785.2,220.4h1.8v2.2c0.8-1.3,2.1-2.4,4.2-2.4c3,0,4.8,2,4.8,5v7.7h-1.8v-7.2c0-2.3-1.2-3.7-3.4-3.7
				c-2.1,0-3.7,1.6-3.7,3.9v7.1h-1.8V220.4z"/>
			<path class="st2" d="M799.5,224.7h18.4v1.8h-18.4V224.7z"/>
			<path class="st2" d="M822.2,229.5v-7.5h-1.7v-1.6h1.7v-3.7h1.8v3.7h3.9v1.6H824v7.2c0,1.5,0.8,2.1,2.1,2.1c0.6,0,1.2-0.1,1.8-0.4
				v1.6c-0.6,0.3-1.3,0.5-2.2,0.5C823.7,233.1,822.2,232.1,822.2,229.5z"/>
			<path class="st2" d="M831.2,215.3h1.8v7.3c0.8-1.3,2.1-2.4,4.2-2.4c3,0,4.8,2,4.8,5v7.7h-1.8v-7.2c0-2.3-1.2-3.7-3.4-3.7
				c-2.1,0-3.7,1.6-3.7,3.9v7.1h-1.8V215.3z"/>
			<path class="st2" d="M845.1,229.2L845.1,229.2c0-2.7,2.2-4.1,5.3-4.1c1.6,0,2.7,0.2,3.8,0.5v-0.4c0-2.2-1.4-3.4-3.7-3.4
				c-1.5,0-2.6,0.4-3.8,0.9l-0.6-1.5c1.4-0.6,2.7-1,4.5-1c1.8,0,3.1,0.5,4,1.4c0.8,0.8,1.3,2,1.3,3.6v7.6h-1.8V231
				c-0.9,1.1-2.3,2.1-4.5,2.1C847.4,233.1,845.1,231.8,845.1,229.2z M854.2,228.3v-1.2c-0.9-0.3-2.1-0.5-3.6-0.5
				c-2.3,0-3.6,1-3.6,2.6v0c0,1.6,1.4,2.5,3.1,2.5C852.3,231.6,854.2,230.2,854.2,228.3z"/>
			<path class="st2" d="M860.4,229.5v-7.5h-1.7v-1.6h1.7v-3.7h1.8v3.7h3.9v1.6h-3.9v7.2c0,1.5,0.8,2.1,2.1,2.1
				c0.6,0,1.2-0.1,1.8-0.4v1.6c-0.6,0.3-1.3,0.5-2.2,0.5C861.9,233.1,860.4,232.1,860.4,229.5z"/>
			<path class="st2" d="M875.6,220.4h2l3.3,10l3.3-10h1.5l3.4,10l3.3-10h1.9l-4.4,12.5h-1.6l-3.3-9.8l-3.4,9.8H880L875.6,220.4z"/>
			<path class="st2" d="M896,226.7L896,226.7c0-3.6,2.7-6.5,6.5-6.5c3.7,0,6.5,2.9,6.5,6.4v0c0,3.5-2.8,6.5-6.5,6.5
				C898.7,233.1,896,230.2,896,226.7z M907,226.7L907,226.7c0-2.7-2-4.9-4.6-4.9c-2.7,0-4.5,2.2-4.5,4.8v0c0,2.7,2,4.8,4.6,4.8
				C905.1,231.5,907,229.3,907,226.7z"/>
			<path class="st2" d="M912.2,220.4h1.8v3.2c0.9-2.1,2.7-3.6,5.1-3.5v2H919c-2.7,0-4.9,1.9-4.9,5.7v4.9h-1.8V220.4z"/>
			<path class="st2" d="M922,215.3h1.8v12.1l6.7-7h2.3l-5.2,5.3l5.4,7.1h-2.2l-4.4-5.8l-2.5,2.5v3.2H922V215.3z"/>
			<path class="st2" d="M935.4,230.3h2.2v2.5h-2.2V230.3z"/>
		</g>
	</g>
	<g id="LET_x2019_S_GET_PERSONAL">
		<g>
			<path class="st0" d="M567,65h6.5v23.5h14.7v5.9H567V65z"/>
			<path class="st0" d="M593,65h22.2v5.8h-15.8v6h13.9v5.8h-13.9v6.2h16v5.8H593V65z"/>
			<path class="st0" d="M628,71H619v-6h24.4v6h-8.9v23.4H628V71z"/>
			<path class="st0" d="M646.1,75.9c2.9-0.3,4.3-1.8,4.1-4.2h-2.6V65h6.8v5.7c0,5.5-2.8,7.8-7.8,7.9L646.1,75.9z"/>
			<path class="st0" d="M658.4,90.2l3.8-4.6c2.6,2.2,5.4,3.6,8.8,3.6c2.6,0,4.2-1.1,4.2-2.8v-0.1c0-1.6-1-2.5-5.9-3.7
				c-5.9-1.5-9.7-3.2-9.7-9v-0.1c0-5.3,4.3-8.9,10.3-8.9c4.3,0,7.9,1.3,10.9,3.7l-3.4,4.9c-2.6-1.8-5.2-2.9-7.6-2.9
				c-2.5,0-3.8,1.1-3.8,2.6V73c0,1.9,1.3,2.6,6.3,3.9c6,1.6,9.3,3.7,9.3,8.8v0.1c0,5.8-4.5,9.1-10.8,9.1
				C666.4,94.9,661.9,93.3,658.4,90.2z"/>
			<path class="st0" d="M698.5,79.8L698.5,79.8c0-8.4,6.5-15.3,15.4-15.3c5.3,0,8.5,1.4,11.6,4l-4.1,4.9c-2.3-1.9-4.3-3-7.7-3
				c-4.7,0-8.4,4.2-8.4,9.2v0.1c0,5.4,3.7,9.3,8.9,9.3c2.4,0,4.5-0.6,6.1-1.8v-4.2h-6.5v-5.6h12.8v12.8c-3,2.6-7.2,4.7-12.6,4.7
				C704.8,94.9,698.5,88.5,698.5,79.8z"/>
			<path class="st0" d="M732.8,65H755v5.8h-15.8v6h13.9v5.8h-13.9v6.2h16v5.8h-22.4V65z"/>
			<path class="st0" d="M767.8,71h-8.9v-6h24.4v6h-8.9v23.4h-6.5V71z"/>
			<path class="st0" d="M800.7,65h12c7,0,11.3,4.2,11.3,10.2v0.1c0,6.8-5.3,10.3-11.9,10.3h-4.9v8.8h-6.5V65z M812.3,79.9
				c3.2,0,5.1-1.9,5.1-4.5v-0.1c0-2.9-2-4.5-5.3-4.5h-5v9H812.3z"/>
			<path class="st0" d="M828.8,65H851v5.8h-15.8v6h13.9v5.8h-13.9v6.2h16v5.8h-22.4V65z"/>
			<path class="st0" d="M856.9,65h13.4c3.7,0,6.6,1.1,8.6,3c1.6,1.6,2.5,3.9,2.5,6.7v0.1c0,4.7-2.6,7.7-6.3,9.1l7.2,10.5h-7.6
				l-6.3-9.4h-5.1v9.4h-6.5V65z M870,79.3c3.2,0,5-1.7,5-4.2v-0.1c0-2.8-1.9-4.2-5.1-4.2h-6.4v8.4H870z"/>
			<path class="st0" d="M885.3,90.2l3.8-4.6c2.6,2.2,5.4,3.6,8.8,3.6c2.6,0,4.2-1.1,4.2-2.8v-0.1c0-1.6-1-2.5-5.9-3.7
				c-5.9-1.5-9.7-3.2-9.7-9v-0.1c0-5.3,4.3-8.9,10.3-8.9c4.3,0,7.9,1.3,10.9,3.7l-3.4,4.9c-2.6-1.8-5.2-2.9-7.6-2.9
				s-3.8,1.1-3.8,2.6V73c0,1.9,1.3,2.6,6.3,3.9c6,1.6,9.3,3.7,9.3,8.8v0.1c0,5.8-4.5,9.1-10.8,9.1C893.3,94.9,888.8,93.3,885.3,90.2
				z"/>
			<path class="st0" d="M912.9,79.8L912.9,79.8c0-8.4,6.6-15.3,15.7-15.3c9.1,0,15.6,6.8,15.6,15.1v0.1c0,8.4-6.6,15.2-15.7,15.2
				C919.4,94.9,912.9,88.2,912.9,79.8z M937.4,79.8L937.4,79.8c0-5.1-3.7-9.3-8.9-9.3s-8.8,4.1-8.8,9.2v0.1c0,5,3.7,9.2,8.9,9.2
				S937.4,84.9,937.4,79.8z"/>
			<path class="st0" d="M949.9,65h6l13.8,18.1V65h6.4v29.4h-5.5l-14.2-18.7v18.7h-6.4V65z"/>
			<path class="st0" d="M993.1,64.8h6l12.6,29.6h-6.8l-2.7-6.6h-12.4l-2.7,6.6h-6.6L993.1,64.8z M999.9,82.1l-3.9-9.5l-3.9,9.5
				H999.9z"/>
			<path class="st0" d="M1016.2,65h6.5v23.5h14.7v5.9h-21.1V65z"/>
		</g>
	</g>
</g>
<g id="NEW_1_">
	<g id="Ellipse_2">
		<g>
			<circle class="st3" cx="492.8" cy="68.1" r="48"/>
		</g>
	</g>
	<g id="NEW_2_">
		<g>
			<path class="st0" d="M463.1,60.7h3.1l7.2,9.5v-9.5h3.4v15.4h-2.9l-7.5-9.8v9.8h-3.4V60.7z"/>
			<path class="st0" d="M482.7,60.7h11.6v3h-8.3v3.1h7.3v3h-7.3v3.2h8.4v3h-11.8V60.7z"/>
			<path class="st0" d="M498.5,60.7h3.6l3.2,10.5l3.5-10.5h2.9l3.5,10.5l3.2-10.5h3.6l-5.3,15.5h-3l-3.5-10.1l-3.5,10.1h-3
				L498.5,60.7z"/>
		</g>
	</g>
</g>
</svg>
