<svg xmlns="http://www.w3.org/2000/svg" fill="none" viewBox="0 0 102 96" height="96" width="102">
<path fill="#00A7B0" d="M84.3039 29.2756C76.2227 41.0673 52.0763 46.1666 52.0763 46.1666C52.0763 46.1666 47.8472 22.1991 56.1859 10.0307C61.5049 2.27158 72.1093 0.287032 79.8732 5.60279C87.6371 10.9185 89.6229 21.5165 84.3039 29.2756Z"></path>
<path fill="#00A7B0" d="M17.6959 66.2026C25.7771 54.4109 49.9235 49.3115 49.9235 49.3115C49.9235 49.3115 54.1526 73.279 45.8139 85.4475C40.4949 93.2066 29.8904 95.1911 22.1266 89.8754C14.3627 84.5596 12.3769 73.9617 17.6959 66.2026Z"></path>
<path fill="#00A7B0" d="M83.6516 67.3289C69.393 66.2322 52.8984 47.8826 52.8984 47.8826C52.8984 47.8826 71.5542 32.2375 86.2682 33.3715C95.6521 34.0952 102.673 42.2796 101.949 51.6577C101.225 61.0358 93.0355 68.0526 83.6516 67.3289Z"></path>
<path fill="#00A7B0" d="M18.3487 28.1453C32.6074 29.242 49.1019 47.5916 49.1019 47.5916C49.1019 47.5916 30.4462 63.2367 15.7322 62.1027C6.3483 61.379 -0.672792 53.1946 0.0513402 43.8165C0.775472 34.4384 8.96488 27.4216 18.3487 28.1453Z"></path>
<path fill="#00A7B0" d="M51.6506 9.68016C57.8281 22.5685 50.1762 46.0175 50.1762 46.0175C50.1762 46.0175 27.2914 37.6951 20.9161 24.3927C16.8512 15.9098 20.4346 5.7409 28.9226 1.67482C37.4106 -2.38754 47.5858 1.1936 51.6543 9.67642L51.6506 9.68016Z"></path>
<path fill="#00A7B0" d="M50.3486 85.7942C44.1711 72.9058 51.823 49.4568 51.823 49.4568C51.823 49.4568 74.7078 57.7792 81.0832 71.0816C85.148 79.5645 81.5647 89.7334 73.0767 93.7995C64.5887 97.8618 54.4135 94.2807 50.3449 85.7979L50.3486 85.7942Z"></path>
<path fill="#00A7B0" d="M50.0865 57.5257C55.7845 57.5257 60.4036 52.9094 60.4036 47.215C60.4036 41.5206 55.7845 36.9043 50.0865 36.9043C44.3886 36.9043 39.7695 41.5206 39.7695 47.215C39.7695 52.9094 44.3886 57.5257 50.0865 57.5257Z"></path>
</svg>
