<svg width="194" height="209" viewBox="0 0 194 209" fill="none" xmlns="http://www.w3.org/2000/svg">
<g filter="url(#filter0_d_2355_23)">
<mask id="path-1-outside-1_2355_23" maskUnits="userSpaceOnUse" x="3.77612" y="0.0571289" width="190" height="206" fill="black">
<rect fill="white" x="3.77612" y="0.0571289" width="190" height="206"/>
<path d="M31.9081 36.9535C26.3268 37.2513 21.0075 35.7752 16.9869 32.515L21.6728 26.4436C24.8983 28.7534 28.3585 29.8775 32.0044 29.6829C34.39 29.5556 35.6258 28.6774 35.5851 27.3257L35.5824 27.2356C35.5416 25.884 34.486 25.2634 30.1337 24.4578C23.3808 23.2838 18.1475 21.6677 17.9532 15.2249L17.9505 15.1348C17.7738 9.27774 22.2822 4.79523 29.844 4.39172C35.2003 4.1059 39.4298 5.32427 42.9336 7.89004L38.7537 14.2955C35.8105 12.3767 32.6284 11.5086 29.8378 11.6575C27.7223 11.7704 26.7128 12.6817 26.7482 13.8531L26.7509 13.9432C26.7944 15.3849 27.8936 15.958 32.3346 16.7139C39.5839 17.9065 44.1557 20.0091 44.3337 25.9112L44.3364 26.0013C44.5307 32.4441 39.56 36.5452 31.9081 36.9535Z"/>
<path d="M50.8569 35.4008L49.8649 2.51108L58.372 2.05713L59.3639 34.9469L50.8569 35.4008Z"/>
<path d="M78.5464 34.5099C70.8945 34.9182 65.3383 30.0702 65.1114 22.5462L65.1087 22.456C64.894 15.3374 69.8103 9.43422 77.0121 9.04993C85.3841 8.60318 89.4412 14.5691 89.6573 21.7327C89.6736 22.2734 89.6926 22.9041 89.6653 23.4923L73.3713 24.3617C74.1267 26.9839 76.1029 28.2323 78.7585 28.0906C80.829 27.9801 82.3813 27.1301 84.0851 25.3243L88.9295 28.9919C86.6786 32.0904 83.3626 34.2529 78.5464 34.5099ZM73.1045 19.9987L81.6115 19.5447C81.2149 16.8583 79.5429 15.2326 77.2023 15.3575C74.9518 15.4776 73.473 17.2714 73.1045 19.9987Z"/>
<path d="M108.094 32.9332C100.442 33.3415 94.8855 28.4935 94.6586 20.9695L94.6559 20.8793C94.4412 13.7607 99.3575 7.85753 106.559 7.47323C114.931 7.02648 118.988 12.9924 119.204 20.156C119.221 20.6967 119.24 21.3275 119.212 21.9156L102.919 22.785C103.674 25.4072 105.65 26.6556 108.306 26.5139C110.376 26.4034 111.929 25.5534 113.632 23.7476L118.477 27.4152C116.226 30.5137 112.91 32.6762 108.094 32.9332ZM102.652 18.422L111.159 17.968C110.762 15.2816 109.09 13.656 106.75 13.7809C104.499 13.9009 103.02 15.6947 102.652 18.422Z"/>
<path d="M125.733 38.6256L124.78 7.04246L133.332 6.58611L133.43 9.83003C135.034 7.71371 137.052 5.8461 140.698 5.65154C146.504 5.3417 151.646 9.89592 151.881 17.6903L151.883 17.7804C152.123 25.71 147.272 30.7975 141.51 31.1049C137.819 31.3019 135.609 29.7501 133.978 27.987L134.285 38.1693L125.733 38.6256ZM138.684 24.0806C141.429 23.934 143.612 21.5612 143.513 18.2723L143.51 18.1821C143.412 14.9382 141.092 12.7605 138.347 12.9071C135.556 13.056 133.42 15.4714 133.518 18.7154L133.52 18.8055C133.618 22.0494 135.893 24.2295 138.684 24.0806Z"/>
<path d="M157.648 29.7022L157.383 20.9166L166.251 20.4434L166.516 29.2291L157.648 29.7022Z"/>
<path d="M32.7053 90.9733C27.1239 91.2711 21.8047 89.795 17.7841 86.5348L22.47 80.4633C25.6955 82.7732 29.1557 83.8972 32.8016 83.7027C35.1872 83.5754 36.423 82.6972 36.3822 81.3455L36.3795 81.2554C36.3388 79.9038 35.2831 79.2832 30.9308 78.4775C24.178 77.3036 18.9447 75.6875 18.7504 69.2447L18.7476 69.1546C18.571 63.2975 23.0794 58.815 30.6412 58.4115C35.9975 58.1257 40.227 59.3441 43.7307 61.9098L39.5508 68.3153C36.6076 66.3965 33.4256 65.5284 30.6349 65.6773C28.5194 65.7902 27.51 66.7014 27.5453 67.8729L27.548 67.963C27.5915 69.4047 28.6908 69.9778 33.1318 70.7336C40.3811 71.9262 44.9528 74.0289 45.1308 79.931L45.1335 80.0211C45.3279 86.4639 40.3571 90.565 32.7053 90.9733Z"/>
<path d="M60.6817 89.4353C55.5505 89.7091 52.4668 87.6173 52.2915 81.8053L51.9912 71.8482L49.1105 72.002L48.9039 65.1537L51.7846 65L51.5985 58.8275L60.1055 58.3736L60.2917 64.546L65.9631 64.2434L66.1696 71.0916L60.4983 71.3943L60.7483 79.6843C60.7999 81.3964 61.5869 82.0764 63.1622 81.9923C64.2875 81.9323 65.3583 81.5593 66.3786 81.0084L66.5797 87.6765C65.0751 88.6142 63.0673 89.308 60.6817 89.4353Z"/>
<path d="M80.7878 88.4075C75.6116 88.6837 72.3562 85.3827 72.189 79.841L71.7093 63.9367L80.2614 63.4804L80.6596 76.6813C80.7397 79.3395 82.1786 80.7068 84.2491 80.5963C86.3196 80.4859 87.8064 78.9625 87.7263 76.3042L87.3281 63.1033L95.8352 62.6493L96.5703 87.0238L88.0633 87.4777L87.9614 84.0987C86.4471 86.2102 84.2537 88.2226 80.7878 88.4075Z"/>
<path d="M113.321 86.6715C107.515 86.9813 102.373 82.4271 102.138 74.6327L102.135 74.5426C101.896 66.613 106.747 61.5255 112.508 61.2181C116.199 61.0211 118.41 62.5729 120.041 64.336L119.695 52.8472L128.247 52.3908L129.239 85.2805L120.687 85.7369L120.589 82.493C118.985 84.6093 116.967 86.4769 113.321 86.6715ZM115.671 79.3709C118.461 79.222 120.598 76.8065 120.5 73.5626L120.497 73.4725C120.401 70.2736 118.124 68.0485 115.334 68.1974C112.588 68.3439 110.407 70.7618 110.505 74.0057L110.507 74.0958C110.605 77.3397 112.925 79.5174 115.671 79.3709Z"/>
<path d="M147.796 74.588L151.944 59.6552L160.722 59.1869L152.527 83.4512C150.584 89.286 148.355 91.6162 143.494 91.8756C140.478 92.0365 137.933 91.36 135.643 90.1735L138.073 84.042C139.493 84.7785 140.903 85.1996 141.848 85.1492C142.703 85.1036 143.282 84.8471 143.844 84.0499L133.58 60.6352L142.492 60.1596L147.796 74.588Z"/>
<path d="M162.358 83.5133L162.093 74.7276L170.96 74.2545L171.225 83.0401L162.358 83.5133Z"/>
<path d="M28.6102 145.254C23.0288 145.552 17.7095 144.076 13.689 140.816L18.3748 134.744C21.6003 137.054 25.0606 138.178 28.7065 137.984C31.092 137.856 32.3279 136.978 32.2871 135.626L32.2844 135.536C32.2436 134.185 31.188 133.564 26.8357 132.758C20.0829 131.584 14.8496 129.968 14.6552 123.526L14.6525 123.435C14.4759 117.578 18.9843 113.096 26.5461 112.692C31.9024 112.407 36.1319 113.625 39.6356 116.191L35.4557 122.596C32.5125 120.677 29.3305 119.809 26.5398 119.958C24.4243 120.071 23.4149 120.982 23.4502 122.154L23.4529 122.244C23.4964 123.686 24.5957 124.259 29.0366 125.014C36.2859 126.207 40.8577 128.31 41.0357 134.212L41.0384 134.302C41.2327 140.745 36.262 144.846 28.6102 145.254Z"/>
<path d="M59.7745 143.636C52.0327 144.049 46.2337 138.628 46.0244 131.689L46.0217 131.599C45.8125 124.661 51.3085 118.546 59.0954 118.131C66.8823 117.715 72.6812 123.137 72.8905 130.075L72.8932 130.165C73.1025 137.104 67.6064 143.218 59.7745 143.636ZM59.6458 136.378C62.7515 136.212 64.7023 133.626 64.6139 130.697L64.6112 130.607C64.5202 127.589 62.2386 125.183 59.2228 125.344C56.1171 125.51 54.2113 128.094 54.301 131.067L54.3037 131.157C54.3934 134.131 56.63 136.539 59.6458 136.378Z"/>
<path d="M90.9333 141.974C83.5515 142.367 78.0213 136.886 77.8134 129.993L77.8107 129.903C77.6028 123.01 82.7387 116.914 90.4356 116.503C95.4318 116.237 98.8278 118.222 100.996 121.355L95.3652 125.988C94.1024 124.476 92.7672 123.554 90.7417 123.662C87.951 123.811 86.0003 126.397 86.09 129.371L86.0927 129.461C86.1878 132.615 88.2403 134.897 91.121 134.743C93.1915 134.633 94.4683 133.617 95.726 131.97L101.567 135.81C99.4174 139.265 96.2446 141.69 90.9333 141.974Z"/>
<path d="M106.243 113.945L106.053 107.637L114.92 107.164L115.11 113.472L106.243 113.945ZM107.225 140.518L106.49 116.143L114.997 115.689L115.732 140.064L107.225 140.518Z"/>
<path d="M129.782 139.855C125.146 140.103 121.553 137.587 121.408 132.766L121.405 132.676C121.251 127.585 125 124.813 130.716 124.508C132.967 124.387 135.185 124.675 136.596 125.141L136.584 124.736C136.507 122.168 134.888 120.81 131.602 120.985C129.036 121.122 127.072 121.769 124.891 122.697L122.955 116.799C125.667 115.526 128.569 114.604 132.755 114.381C137.121 114.148 140.123 115.025 142.117 116.859C144.017 118.563 144.858 121.045 144.961 124.469L145.384 138.481L136.967 138.93L136.89 136.362C135.235 138.301 132.977 139.685 129.782 139.855ZM132.681 134.331C135.201 134.196 136.909 132.526 136.836 130.093L136.802 128.966C135.891 128.654 134.667 128.448 133.407 128.516C130.931 128.648 129.526 129.896 129.582 131.743L129.585 131.833C129.635 133.5 130.925 134.424 132.681 134.331Z"/>
<path d="M152.209 138.117L151.217 105.227L159.724 104.773L160.716 137.663L152.209 138.117Z"/>
<path d="M167.458 137.303L167.193 128.518L176.06 128.045L176.325 136.83L167.458 137.303Z"/>
<path d="M6.72733 199.943L5.77612 168.405L20.6747 167.61C25.4909 167.353 28.8597 168.436 31.0391 170.441C32.9403 172.19 33.9575 174.527 34.0513 177.636L34.054 177.726C34.2008 182.592 31.7316 185.928 27.866 187.804L35.7143 198.396L25.6769 198.931L19.0423 189.719L15.1714 189.925L15.4594 199.477L6.72733 199.943ZM14.9648 183.077L20.7712 182.767C23.6969 182.611 25.4089 181.075 25.3396 178.778L25.3368 178.688C25.2608 176.165 23.3773 175.002 20.4966 175.155L14.7352 175.463L14.9648 183.077Z"/>
<path d="M52.5204 198.086C44.8685 198.494 39.3123 193.646 39.0854 186.122L39.0827 186.032C38.868 178.913 43.7843 173.01 50.9861 172.626C59.3581 172.179 63.4152 178.145 63.6313 185.309C63.6476 185.849 63.6666 186.48 63.6392 187.068L47.3453 187.938C48.1006 190.56 50.0769 191.808 52.7325 191.666C54.803 191.556 56.3553 190.706 58.0591 188.9L62.9034 192.568C60.6526 195.666 57.3365 197.829 52.5204 198.086ZM47.0785 183.574L55.5855 183.12C55.1889 180.434 53.5169 178.808 51.1763 178.933C48.9258 179.053 47.447 180.847 47.0785 183.574Z"/>
<path d="M70.1594 203.778L69.2068 172.195L77.7589 171.739L77.8567 174.982C79.461 172.866 81.4785 170.999 85.1244 170.804C90.9308 170.494 96.0724 175.048 96.3075 182.843L96.3102 182.933C96.5493 190.863 91.6985 195.95 85.9371 196.257C82.2462 196.454 80.0354 194.903 78.4043 193.139L78.7114 203.322L70.1594 203.778ZM83.1104 189.233C85.8561 189.087 88.0387 186.714 87.9395 183.425L87.9368 183.335C87.839 180.091 85.5191 177.913 82.7734 178.06C79.9828 178.208 77.8465 180.624 77.9444 183.868L77.9471 183.958C78.0449 187.202 80.3198 189.382 83.1104 189.233Z"/>
<path d="M114.736 194.766C107.084 195.174 101.528 190.326 101.301 182.802L101.298 182.712C101.083 175.593 106 169.69 113.201 169.306C121.573 168.859 125.63 174.825 125.846 181.989C125.863 182.529 125.882 183.16 125.854 183.748L109.561 184.618C110.316 187.24 112.292 188.488 114.948 188.346C117.018 188.236 118.571 187.386 120.274 185.58L125.119 189.248C122.868 192.346 119.552 194.509 114.736 194.766ZM109.294 180.255L117.801 179.801C117.404 177.114 115.732 175.489 113.392 175.613C111.141 175.733 109.662 177.527 109.294 180.255Z"/>
<path d="M139.15 193.418C134.514 193.665 130.922 191.149 130.776 186.328L130.774 186.238C130.62 181.147 134.368 178.375 140.085 178.07C142.335 177.95 144.553 178.238 145.965 178.704L145.953 178.298C145.875 175.73 144.256 174.373 140.97 174.548C138.405 174.685 136.441 175.331 134.26 176.26L132.323 170.361C135.035 169.088 137.938 168.166 142.124 167.943C146.49 167.71 149.492 168.588 151.486 170.422C153.386 172.125 154.227 174.608 154.33 178.032L154.753 192.044L146.336 192.493L146.258 189.925C144.603 191.863 142.346 193.247 139.15 193.418ZM142.049 187.893C144.57 187.759 146.278 186.088 146.204 183.655L146.17 182.529C145.259 182.216 144.036 182.011 142.776 182.078C140.3 182.21 138.895 183.458 138.951 185.306L138.953 185.396C139.004 187.063 140.294 187.987 142.049 187.893Z"/>
<path d="M170.825 191.682C165.694 191.956 162.61 189.864 162.435 184.052L162.135 174.095L159.254 174.249L159.047 167.401L161.928 167.247L161.742 161.075L170.249 160.621L170.435 166.793L176.107 166.491L176.313 173.339L170.642 173.641L170.892 181.931C170.943 183.644 171.73 184.324 173.306 184.24C174.431 184.179 175.502 183.806 176.522 183.256L176.723 189.924C175.219 190.861 173.211 191.555 170.825 191.682Z"/>
<path d="M182.453 190.566L182.188 181.78L191.055 181.307L191.32 190.092L182.453 190.566Z"/>
</mask>
<path d="M31.9081 36.9535C26.3268 37.2513 21.0075 35.7752 16.9869 32.515L21.6728 26.4436C24.8983 28.7534 28.3585 29.8775 32.0044 29.6829C34.39 29.5556 35.6258 28.6774 35.5851 27.3257L35.5824 27.2356C35.5416 25.884 34.486 25.2634 30.1337 24.4578C23.3808 23.2838 18.1475 21.6677 17.9532 15.2249L17.9505 15.1348C17.7738 9.27774 22.2822 4.79523 29.844 4.39172C35.2003 4.1059 39.4298 5.32427 42.9336 7.89004L38.7537 14.2955C35.8105 12.3767 32.6284 11.5086 29.8378 11.6575C27.7223 11.7704 26.7128 12.6817 26.7482 13.8531L26.7509 13.9432C26.7944 15.3849 27.8936 15.958 32.3346 16.7139C39.5839 17.9065 44.1557 20.0091 44.3337 25.9112L44.3364 26.0013C44.5307 32.4441 39.56 36.5452 31.9081 36.9535Z" fill="white"/>
<path d="M50.8569 35.4008L49.8649 2.51108L58.372 2.05713L59.3639 34.9469L50.8569 35.4008Z" fill="white"/>
<path d="M78.5464 34.5099C70.8945 34.9182 65.3383 30.0702 65.1114 22.5462L65.1087 22.456C64.894 15.3374 69.8103 9.43422 77.0121 9.04993C85.3841 8.60318 89.4412 14.5691 89.6573 21.7327C89.6736 22.2734 89.6926 22.9041 89.6653 23.4923L73.3713 24.3617C74.1267 26.9839 76.1029 28.2323 78.7585 28.0906C80.829 27.9801 82.3813 27.1301 84.0851 25.3243L88.9295 28.9919C86.6786 32.0904 83.3626 34.2529 78.5464 34.5099ZM73.1045 19.9987L81.6115 19.5447C81.2149 16.8583 79.5429 15.2326 77.2023 15.3575C74.9518 15.4776 73.473 17.2714 73.1045 19.9987Z" fill="white"/>
<path d="M108.094 32.9332C100.442 33.3415 94.8855 28.4935 94.6586 20.9695L94.6559 20.8793C94.4412 13.7607 99.3575 7.85753 106.559 7.47323C114.931 7.02648 118.988 12.9924 119.204 20.156C119.221 20.6967 119.24 21.3275 119.212 21.9156L102.919 22.785C103.674 25.4072 105.65 26.6556 108.306 26.5139C110.376 26.4034 111.929 25.5534 113.632 23.7476L118.477 27.4152C116.226 30.5137 112.91 32.6762 108.094 32.9332ZM102.652 18.422L111.159 17.968C110.762 15.2816 109.09 13.656 106.75 13.7809C104.499 13.9009 103.02 15.6947 102.652 18.422Z" fill="white"/>
<path d="M125.733 38.6256L124.78 7.04246L133.332 6.58611L133.43 9.83003C135.034 7.71371 137.052 5.8461 140.698 5.65154C146.504 5.3417 151.646 9.89592 151.881 17.6903L151.883 17.7804C152.123 25.71 147.272 30.7975 141.51 31.1049C137.819 31.3019 135.609 29.7501 133.978 27.987L134.285 38.1693L125.733 38.6256ZM138.684 24.0806C141.429 23.934 143.612 21.5612 143.513 18.2723L143.51 18.1821C143.412 14.9382 141.092 12.7605 138.347 12.9071C135.556 13.056 133.42 15.4714 133.518 18.7154L133.52 18.8055C133.618 22.0494 135.893 24.2295 138.684 24.0806Z" fill="white"/>
<path d="M157.648 29.7022L157.383 20.9166L166.251 20.4434L166.516 29.2291L157.648 29.7022Z" fill="white"/>
<path d="M32.7053 90.9733C27.1239 91.2711 21.8047 89.795 17.7841 86.5348L22.47 80.4633C25.6955 82.7732 29.1557 83.8972 32.8016 83.7027C35.1872 83.5754 36.423 82.6972 36.3822 81.3455L36.3795 81.2554C36.3388 79.9038 35.2831 79.2832 30.9308 78.4775C24.178 77.3036 18.9447 75.6875 18.7504 69.2447L18.7476 69.1546C18.571 63.2975 23.0794 58.815 30.6412 58.4115C35.9975 58.1257 40.227 59.3441 43.7307 61.9098L39.5508 68.3153C36.6076 66.3965 33.4256 65.5284 30.6349 65.6773C28.5194 65.7902 27.51 66.7014 27.5453 67.8729L27.548 67.963C27.5915 69.4047 28.6908 69.9778 33.1318 70.7336C40.3811 71.9262 44.9528 74.0289 45.1308 79.931L45.1335 80.0211C45.3279 86.4639 40.3571 90.565 32.7053 90.9733Z" fill="white"/>
<path d="M60.6817 89.4353C55.5505 89.7091 52.4668 87.6173 52.2915 81.8053L51.9912 71.8482L49.1105 72.002L48.9039 65.1537L51.7846 65L51.5985 58.8275L60.1055 58.3736L60.2917 64.546L65.9631 64.2434L66.1696 71.0916L60.4983 71.3943L60.7483 79.6843C60.7999 81.3964 61.5869 82.0764 63.1622 81.9923C64.2875 81.9323 65.3583 81.5593 66.3786 81.0084L66.5797 87.6765C65.0751 88.6142 63.0673 89.308 60.6817 89.4353Z" fill="white"/>
<path d="M80.7878 88.4075C75.6116 88.6837 72.3562 85.3827 72.189 79.841L71.7093 63.9367L80.2614 63.4804L80.6596 76.6813C80.7397 79.3395 82.1786 80.7068 84.2491 80.5963C86.3196 80.4859 87.8064 78.9625 87.7263 76.3042L87.3281 63.1033L95.8352 62.6493L96.5703 87.0238L88.0633 87.4777L87.9614 84.0987C86.4471 86.2102 84.2537 88.2226 80.7878 88.4075Z" fill="white"/>
<path d="M113.321 86.6715C107.515 86.9813 102.373 82.4271 102.138 74.6327L102.135 74.5426C101.896 66.613 106.747 61.5255 112.508 61.2181C116.199 61.0211 118.41 62.5729 120.041 64.336L119.695 52.8472L128.247 52.3908L129.239 85.2805L120.687 85.7369L120.589 82.493C118.985 84.6093 116.967 86.4769 113.321 86.6715ZM115.671 79.3709C118.461 79.222 120.598 76.8065 120.5 73.5626L120.497 73.4725C120.401 70.2736 118.124 68.0485 115.334 68.1974C112.588 68.3439 110.407 70.7618 110.505 74.0057L110.507 74.0958C110.605 77.3397 112.925 79.5174 115.671 79.3709Z" fill="white"/>
<path d="M147.796 74.588L151.944 59.6552L160.722 59.1869L152.527 83.4512C150.584 89.286 148.355 91.6162 143.494 91.8756C140.478 92.0365 137.933 91.36 135.643 90.1735L138.073 84.042C139.493 84.7785 140.903 85.1996 141.848 85.1492C142.703 85.1036 143.282 84.8471 143.844 84.0499L133.58 60.6352L142.492 60.1596L147.796 74.588Z" fill="white"/>
<path d="M162.358 83.5133L162.093 74.7276L170.96 74.2545L171.225 83.0401L162.358 83.5133Z" fill="white"/>
<path d="M28.6102 145.254C23.0288 145.552 17.7095 144.076 13.689 140.816L18.3748 134.744C21.6003 137.054 25.0606 138.178 28.7065 137.984C31.092 137.856 32.3279 136.978 32.2871 135.626L32.2844 135.536C32.2436 134.185 31.188 133.564 26.8357 132.758C20.0829 131.584 14.8496 129.968 14.6552 123.526L14.6525 123.435C14.4759 117.578 18.9843 113.096 26.5461 112.692C31.9024 112.407 36.1319 113.625 39.6356 116.191L35.4557 122.596C32.5125 120.677 29.3305 119.809 26.5398 119.958C24.4243 120.071 23.4149 120.982 23.4502 122.154L23.4529 122.244C23.4964 123.686 24.5957 124.259 29.0366 125.014C36.2859 126.207 40.8577 128.31 41.0357 134.212L41.0384 134.302C41.2327 140.745 36.262 144.846 28.6102 145.254Z" fill="white"/>
<path d="M59.7745 143.636C52.0327 144.049 46.2337 138.628 46.0244 131.689L46.0217 131.599C45.8125 124.661 51.3085 118.546 59.0954 118.131C66.8823 117.715 72.6812 123.137 72.8905 130.075L72.8932 130.165C73.1025 137.104 67.6064 143.218 59.7745 143.636ZM59.6458 136.378C62.7515 136.212 64.7023 133.626 64.6139 130.697L64.6112 130.607C64.5202 127.589 62.2386 125.183 59.2228 125.344C56.1171 125.51 54.2113 128.094 54.301 131.067L54.3037 131.157C54.3934 134.131 56.63 136.539 59.6458 136.378Z" fill="white"/>
<path d="M90.9333 141.974C83.5515 142.367 78.0213 136.886 77.8134 129.993L77.8107 129.903C77.6028 123.01 82.7387 116.914 90.4356 116.503C95.4318 116.237 98.8278 118.222 100.996 121.355L95.3652 125.988C94.1024 124.476 92.7672 123.554 90.7417 123.662C87.951 123.811 86.0003 126.397 86.09 129.371L86.0927 129.461C86.1878 132.615 88.2403 134.897 91.121 134.743C93.1915 134.633 94.4683 133.617 95.726 131.97L101.567 135.81C99.4174 139.265 96.2446 141.69 90.9333 141.974Z" fill="white"/>
<path d="M106.243 113.945L106.053 107.637L114.92 107.164L115.11 113.472L106.243 113.945ZM107.225 140.518L106.49 116.143L114.997 115.689L115.732 140.064L107.225 140.518Z" fill="white"/>
<path d="M129.782 139.855C125.146 140.103 121.553 137.587 121.408 132.766L121.405 132.676C121.251 127.585 125 124.813 130.716 124.508C132.967 124.387 135.185 124.675 136.596 125.141L136.584 124.736C136.507 122.168 134.888 120.81 131.602 120.985C129.036 121.122 127.072 121.769 124.891 122.697L122.955 116.799C125.667 115.526 128.569 114.604 132.755 114.381C137.121 114.148 140.123 115.025 142.117 116.859C144.017 118.563 144.858 121.045 144.961 124.469L145.384 138.481L136.967 138.93L136.89 136.362C135.235 138.301 132.977 139.685 129.782 139.855ZM132.681 134.331C135.201 134.196 136.909 132.526 136.836 130.093L136.802 128.966C135.891 128.654 134.667 128.448 133.407 128.516C130.931 128.648 129.526 129.896 129.582 131.743L129.585 131.833C129.635 133.5 130.925 134.424 132.681 134.331Z" fill="white"/>
<path d="M152.209 138.117L151.217 105.227L159.724 104.773L160.716 137.663L152.209 138.117Z" fill="white"/>
<path d="M167.458 137.303L167.193 128.518L176.06 128.045L176.325 136.83L167.458 137.303Z" fill="white"/>
<path d="M6.72733 199.943L5.77612 168.405L20.6747 167.61C25.4909 167.353 28.8597 168.436 31.0391 170.441C32.9403 172.19 33.9575 174.527 34.0513 177.636L34.054 177.726C34.2008 182.592 31.7316 185.928 27.866 187.804L35.7143 198.396L25.6769 198.931L19.0423 189.719L15.1714 189.925L15.4594 199.477L6.72733 199.943ZM14.9648 183.077L20.7712 182.767C23.6969 182.611 25.4089 181.075 25.3396 178.778L25.3368 178.688C25.2608 176.165 23.3773 175.002 20.4966 175.155L14.7352 175.463L14.9648 183.077Z" fill="white"/>
<path d="M52.5204 198.086C44.8685 198.494 39.3123 193.646 39.0854 186.122L39.0827 186.032C38.868 178.913 43.7843 173.01 50.9861 172.626C59.3581 172.179 63.4152 178.145 63.6313 185.309C63.6476 185.849 63.6666 186.48 63.6392 187.068L47.3453 187.938C48.1006 190.56 50.0769 191.808 52.7325 191.666C54.803 191.556 56.3553 190.706 58.0591 188.9L62.9034 192.568C60.6526 195.666 57.3365 197.829 52.5204 198.086ZM47.0785 183.574L55.5855 183.12C55.1889 180.434 53.5169 178.808 51.1763 178.933C48.9258 179.053 47.447 180.847 47.0785 183.574Z" fill="white"/>
<path d="M70.1594 203.778L69.2068 172.195L77.7589 171.739L77.8567 174.982C79.461 172.866 81.4785 170.999 85.1244 170.804C90.9308 170.494 96.0724 175.048 96.3075 182.843L96.3102 182.933C96.5493 190.863 91.6985 195.95 85.9371 196.257C82.2462 196.454 80.0354 194.903 78.4043 193.139L78.7114 203.322L70.1594 203.778ZM83.1104 189.233C85.8561 189.087 88.0387 186.714 87.9395 183.425L87.9368 183.335C87.839 180.091 85.5191 177.913 82.7734 178.06C79.9828 178.208 77.8465 180.624 77.9444 183.868L77.9471 183.958C78.0449 187.202 80.3198 189.382 83.1104 189.233Z" fill="white"/>
<path d="M114.736 194.766C107.084 195.174 101.528 190.326 101.301 182.802L101.298 182.712C101.083 175.593 106 169.69 113.201 169.306C121.573 168.859 125.63 174.825 125.846 181.989C125.863 182.529 125.882 183.16 125.854 183.748L109.561 184.618C110.316 187.24 112.292 188.488 114.948 188.346C117.018 188.236 118.571 187.386 120.274 185.58L125.119 189.248C122.868 192.346 119.552 194.509 114.736 194.766ZM109.294 180.255L117.801 179.801C117.404 177.114 115.732 175.489 113.392 175.613C111.141 175.733 109.662 177.527 109.294 180.255Z" fill="white"/>
<path d="M139.15 193.418C134.514 193.665 130.922 191.149 130.776 186.328L130.774 186.238C130.62 181.147 134.368 178.375 140.085 178.07C142.335 177.95 144.553 178.238 145.965 178.704L145.953 178.298C145.875 175.73 144.256 174.373 140.97 174.548C138.405 174.685 136.441 175.331 134.26 176.26L132.323 170.361C135.035 169.088 137.938 168.166 142.124 167.943C146.49 167.71 149.492 168.588 151.486 170.422C153.386 172.125 154.227 174.608 154.33 178.032L154.753 192.044L146.336 192.493L146.258 189.925C144.603 191.863 142.346 193.247 139.15 193.418ZM142.049 187.893C144.57 187.759 146.278 186.088 146.204 183.655L146.17 182.529C145.259 182.216 144.036 182.011 142.776 182.078C140.3 182.21 138.895 183.458 138.951 185.306L138.953 185.396C139.004 187.063 140.294 187.987 142.049 187.893Z" fill="white"/>
<path d="M170.825 191.682C165.694 191.956 162.61 189.864 162.435 184.052L162.135 174.095L159.254 174.249L159.047 167.401L161.928 167.247L161.742 161.075L170.249 160.621L170.435 166.793L176.107 166.491L176.313 173.339L170.642 173.641L170.892 181.931C170.943 183.644 171.73 184.324 173.306 184.24C174.431 184.179 175.502 183.806 176.522 183.256L176.723 189.924C175.219 190.861 173.211 191.555 170.825 191.682Z" fill="white"/>
<path d="M182.453 190.566L182.188 181.78L191.055 181.307L191.32 190.092L182.453 190.566Z" fill="white"/>
<path d="M31.9081 36.9535C26.3268 37.2513 21.0075 35.7752 16.9869 32.515L21.6728 26.4436C24.8983 28.7534 28.3585 29.8775 32.0044 29.6829C34.39 29.5556 35.6258 28.6774 35.5851 27.3257L35.5824 27.2356C35.5416 25.884 34.486 25.2634 30.1337 24.4578C23.3808 23.2838 18.1475 21.6677 17.9532 15.2249L17.9505 15.1348C17.7738 9.27774 22.2822 4.79523 29.844 4.39172C35.2003 4.1059 39.4298 5.32427 42.9336 7.89004L38.7537 14.2955C35.8105 12.3767 32.6284 11.5086 29.8378 11.6575C27.7223 11.7704 26.7128 12.6817 26.7482 13.8531L26.7509 13.9432C26.7944 15.3849 27.8936 15.958 32.3346 16.7139C39.5839 17.9065 44.1557 20.0091 44.3337 25.9112L44.3364 26.0013C44.5307 32.4441 39.56 36.5452 31.9081 36.9535Z" stroke="#E334C3" stroke-width="3.82678" stroke-linejoin="round" mask="url(#path-1-outside-1_2355_23)"/>
<path d="M50.8569 35.4008L49.8649 2.51108L58.372 2.05713L59.3639 34.9469L50.8569 35.4008Z" stroke="#E334C3" stroke-width="3.82678" stroke-linejoin="round" mask="url(#path-1-outside-1_2355_23)"/>
<path d="M78.5464 34.5099C70.8945 34.9182 65.3383 30.0702 65.1114 22.5462L65.1087 22.456C64.894 15.3374 69.8103 9.43422 77.0121 9.04993C85.3841 8.60318 89.4412 14.5691 89.6573 21.7327C89.6736 22.2734 89.6926 22.9041 89.6653 23.4923L73.3713 24.3617C74.1267 26.9839 76.1029 28.2323 78.7585 28.0906C80.829 27.9801 82.3813 27.1301 84.0851 25.3243L88.9295 28.9919C86.6786 32.0904 83.3626 34.2529 78.5464 34.5099ZM73.1045 19.9987L81.6115 19.5447C81.2149 16.8583 79.5429 15.2326 77.2023 15.3575C74.9518 15.4776 73.473 17.2714 73.1045 19.9987Z" stroke="#E334C3" stroke-width="3.82678" stroke-linejoin="round" mask="url(#path-1-outside-1_2355_23)"/>
<path d="M108.094 32.9332C100.442 33.3415 94.8855 28.4935 94.6586 20.9695L94.6559 20.8793C94.4412 13.7607 99.3575 7.85753 106.559 7.47323C114.931 7.02648 118.988 12.9924 119.204 20.156C119.221 20.6967 119.24 21.3275 119.212 21.9156L102.919 22.785C103.674 25.4072 105.65 26.6556 108.306 26.5139C110.376 26.4034 111.929 25.5534 113.632 23.7476L118.477 27.4152C116.226 30.5137 112.91 32.6762 108.094 32.9332ZM102.652 18.422L111.159 17.968C110.762 15.2816 109.09 13.656 106.75 13.7809C104.499 13.9009 103.02 15.6947 102.652 18.422Z" stroke="#E334C3" stroke-width="3.82678" stroke-linejoin="round" mask="url(#path-1-outside-1_2355_23)"/>
<path d="M125.733 38.6256L124.78 7.04246L133.332 6.58611L133.43 9.83003C135.034 7.71371 137.052 5.8461 140.698 5.65154C146.504 5.3417 151.646 9.89592 151.881 17.6903L151.883 17.7804C152.123 25.71 147.272 30.7975 141.51 31.1049C137.819 31.3019 135.609 29.7501 133.978 27.987L134.285 38.1693L125.733 38.6256ZM138.684 24.0806C141.429 23.934 143.612 21.5612 143.513 18.2723L143.51 18.1821C143.412 14.9382 141.092 12.7605 138.347 12.9071C135.556 13.056 133.42 15.4714 133.518 18.7154L133.52 18.8055C133.618 22.0494 135.893 24.2295 138.684 24.0806Z" stroke="#E334C3" stroke-width="3.82678" stroke-linejoin="round" mask="url(#path-1-outside-1_2355_23)"/>
<path d="M157.648 29.7022L157.383 20.9166L166.251 20.4434L166.516 29.2291L157.648 29.7022Z" stroke="#E334C3" stroke-width="3.82678" stroke-linejoin="round" mask="url(#path-1-outside-1_2355_23)"/>
<path d="M32.7053 90.9733C27.1239 91.2711 21.8047 89.795 17.7841 86.5348L22.47 80.4633C25.6955 82.7732 29.1557 83.8972 32.8016 83.7027C35.1872 83.5754 36.423 82.6972 36.3822 81.3455L36.3795 81.2554C36.3388 79.9038 35.2831 79.2832 30.9308 78.4775C24.178 77.3036 18.9447 75.6875 18.7504 69.2447L18.7476 69.1546C18.571 63.2975 23.0794 58.815 30.6412 58.4115C35.9975 58.1257 40.227 59.3441 43.7307 61.9098L39.5508 68.3153C36.6076 66.3965 33.4256 65.5284 30.6349 65.6773C28.5194 65.7902 27.51 66.7014 27.5453 67.8729L27.548 67.963C27.5915 69.4047 28.6908 69.9778 33.1318 70.7336C40.3811 71.9262 44.9528 74.0289 45.1308 79.931L45.1335 80.0211C45.3279 86.4639 40.3571 90.565 32.7053 90.9733Z" stroke="#E334C3" stroke-width="3.82678" stroke-linejoin="round" mask="url(#path-1-outside-1_2355_23)"/>
<path d="M60.6817 89.4353C55.5505 89.7091 52.4668 87.6173 52.2915 81.8053L51.9912 71.8482L49.1105 72.002L48.9039 65.1537L51.7846 65L51.5985 58.8275L60.1055 58.3736L60.2917 64.546L65.9631 64.2434L66.1696 71.0916L60.4983 71.3943L60.7483 79.6843C60.7999 81.3964 61.5869 82.0764 63.1622 81.9923C64.2875 81.9323 65.3583 81.5593 66.3786 81.0084L66.5797 87.6765C65.0751 88.6142 63.0673 89.308 60.6817 89.4353Z" stroke="#E334C3" stroke-width="3.82678" stroke-linejoin="round" mask="url(#path-1-outside-1_2355_23)"/>
<path d="M80.7878 88.4075C75.6116 88.6837 72.3562 85.3827 72.189 79.841L71.7093 63.9367L80.2614 63.4804L80.6596 76.6813C80.7397 79.3395 82.1786 80.7068 84.2491 80.5963C86.3196 80.4859 87.8064 78.9625 87.7263 76.3042L87.3281 63.1033L95.8352 62.6493L96.5703 87.0238L88.0633 87.4777L87.9614 84.0987C86.4471 86.2102 84.2537 88.2226 80.7878 88.4075Z" stroke="#E334C3" stroke-width="3.82678" stroke-linejoin="round" mask="url(#path-1-outside-1_2355_23)"/>
<path d="M113.321 86.6715C107.515 86.9813 102.373 82.4271 102.138 74.6327L102.135 74.5426C101.896 66.613 106.747 61.5255 112.508 61.2181C116.199 61.0211 118.41 62.5729 120.041 64.336L119.695 52.8472L128.247 52.3908L129.239 85.2805L120.687 85.7369L120.589 82.493C118.985 84.6093 116.967 86.4769 113.321 86.6715ZM115.671 79.3709C118.461 79.222 120.598 76.8065 120.5 73.5626L120.497 73.4725C120.401 70.2736 118.124 68.0485 115.334 68.1974C112.588 68.3439 110.407 70.7618 110.505 74.0057L110.507 74.0958C110.605 77.3397 112.925 79.5174 115.671 79.3709Z" stroke="#E334C3" stroke-width="3.82678" stroke-linejoin="round" mask="url(#path-1-outside-1_2355_23)"/>
<path d="M147.796 74.588L151.944 59.6552L160.722 59.1869L152.527 83.4512C150.584 89.286 148.355 91.6162 143.494 91.8756C140.478 92.0365 137.933 91.36 135.643 90.1735L138.073 84.042C139.493 84.7785 140.903 85.1996 141.848 85.1492C142.703 85.1036 143.282 84.8471 143.844 84.0499L133.58 60.6352L142.492 60.1596L147.796 74.588Z" stroke="#E334C3" stroke-width="3.82678" stroke-linejoin="round" mask="url(#path-1-outside-1_2355_23)"/>
<path d="M162.358 83.5133L162.093 74.7276L170.96 74.2545L171.225 83.0401L162.358 83.5133Z" stroke="#E334C3" stroke-width="3.82678" stroke-linejoin="round" mask="url(#path-1-outside-1_2355_23)"/>
<path d="M28.6102 145.254C23.0288 145.552 17.7095 144.076 13.689 140.816L18.3748 134.744C21.6003 137.054 25.0606 138.178 28.7065 137.984C31.092 137.856 32.3279 136.978 32.2871 135.626L32.2844 135.536C32.2436 134.185 31.188 133.564 26.8357 132.758C20.0829 131.584 14.8496 129.968 14.6552 123.526L14.6525 123.435C14.4759 117.578 18.9843 113.096 26.5461 112.692C31.9024 112.407 36.1319 113.625 39.6356 116.191L35.4557 122.596C32.5125 120.677 29.3305 119.809 26.5398 119.958C24.4243 120.071 23.4149 120.982 23.4502 122.154L23.4529 122.244C23.4964 123.686 24.5957 124.259 29.0366 125.014C36.2859 126.207 40.8577 128.31 41.0357 134.212L41.0384 134.302C41.2327 140.745 36.262 144.846 28.6102 145.254Z" stroke="#E334C3" stroke-width="3.82678" stroke-linejoin="round" mask="url(#path-1-outside-1_2355_23)"/>
<path d="M59.7745 143.636C52.0327 144.049 46.2337 138.628 46.0244 131.689L46.0217 131.599C45.8125 124.661 51.3085 118.546 59.0954 118.131C66.8823 117.715 72.6812 123.137 72.8905 130.075L72.8932 130.165C73.1025 137.104 67.6064 143.218 59.7745 143.636ZM59.6458 136.378C62.7515 136.212 64.7023 133.626 64.6139 130.697L64.6112 130.607C64.5202 127.589 62.2386 125.183 59.2228 125.344C56.1171 125.51 54.2113 128.094 54.301 131.067L54.3037 131.157C54.3934 134.131 56.63 136.539 59.6458 136.378Z" stroke="#E334C3" stroke-width="3.82678" stroke-linejoin="round" mask="url(#path-1-outside-1_2355_23)"/>
<path d="M90.9333 141.974C83.5515 142.367 78.0213 136.886 77.8134 129.993L77.8107 129.903C77.6028 123.01 82.7387 116.914 90.4356 116.503C95.4318 116.237 98.8278 118.222 100.996 121.355L95.3652 125.988C94.1024 124.476 92.7672 123.554 90.7417 123.662C87.951 123.811 86.0003 126.397 86.09 129.371L86.0927 129.461C86.1878 132.615 88.2403 134.897 91.121 134.743C93.1915 134.633 94.4683 133.617 95.726 131.97L101.567 135.81C99.4174 139.265 96.2446 141.69 90.9333 141.974Z" stroke="#E334C3" stroke-width="3.82678" stroke-linejoin="round" mask="url(#path-1-outside-1_2355_23)"/>
<path d="M106.243 113.945L106.053 107.637L114.92 107.164L115.11 113.472L106.243 113.945ZM107.225 140.518L106.49 116.143L114.997 115.689L115.732 140.064L107.225 140.518Z" stroke="#E334C3" stroke-width="3.82678" stroke-linejoin="round" mask="url(#path-1-outside-1_2355_23)"/>
<path d="M129.782 139.855C125.146 140.103 121.553 137.587 121.408 132.766L121.405 132.676C121.251 127.585 125 124.813 130.716 124.508C132.967 124.387 135.185 124.675 136.596 125.141L136.584 124.736C136.507 122.168 134.888 120.81 131.602 120.985C129.036 121.122 127.072 121.769 124.891 122.697L122.955 116.799C125.667 115.526 128.569 114.604 132.755 114.381C137.121 114.148 140.123 115.025 142.117 116.859C144.017 118.563 144.858 121.045 144.961 124.469L145.384 138.481L136.967 138.93L136.89 136.362C135.235 138.301 132.977 139.685 129.782 139.855ZM132.681 134.331C135.201 134.196 136.909 132.526 136.836 130.093L136.802 128.966C135.891 128.654 134.667 128.448 133.407 128.516C130.931 128.648 129.526 129.896 129.582 131.743L129.585 131.833C129.635 133.5 130.925 134.424 132.681 134.331Z" stroke="#E334C3" stroke-width="3.82678" stroke-linejoin="round" mask="url(#path-1-outside-1_2355_23)"/>
<path d="M152.209 138.117L151.217 105.227L159.724 104.773L160.716 137.663L152.209 138.117Z" stroke="#E334C3" stroke-width="3.82678" stroke-linejoin="round" mask="url(#path-1-outside-1_2355_23)"/>
<path d="M167.458 137.303L167.193 128.518L176.06 128.045L176.325 136.83L167.458 137.303Z" stroke="#E334C3" stroke-width="3.82678" stroke-linejoin="round" mask="url(#path-1-outside-1_2355_23)"/>
<path d="M6.72733 199.943L5.77612 168.405L20.6747 167.61C25.4909 167.353 28.8597 168.436 31.0391 170.441C32.9403 172.19 33.9575 174.527 34.0513 177.636L34.054 177.726C34.2008 182.592 31.7316 185.928 27.866 187.804L35.7143 198.396L25.6769 198.931L19.0423 189.719L15.1714 189.925L15.4594 199.477L6.72733 199.943ZM14.9648 183.077L20.7712 182.767C23.6969 182.611 25.4089 181.075 25.3396 178.778L25.3368 178.688C25.2608 176.165 23.3773 175.002 20.4966 175.155L14.7352 175.463L14.9648 183.077Z" stroke="#E334C3" stroke-width="3.82678" stroke-linejoin="round" mask="url(#path-1-outside-1_2355_23)"/>
<path d="M52.5204 198.086C44.8685 198.494 39.3123 193.646 39.0854 186.122L39.0827 186.032C38.868 178.913 43.7843 173.01 50.9861 172.626C59.3581 172.179 63.4152 178.145 63.6313 185.309C63.6476 185.849 63.6666 186.48 63.6392 187.068L47.3453 187.938C48.1006 190.56 50.0769 191.808 52.7325 191.666C54.803 191.556 56.3553 190.706 58.0591 188.9L62.9034 192.568C60.6526 195.666 57.3365 197.829 52.5204 198.086ZM47.0785 183.574L55.5855 183.12C55.1889 180.434 53.5169 178.808 51.1763 178.933C48.9258 179.053 47.447 180.847 47.0785 183.574Z" stroke="#E334C3" stroke-width="3.82678" stroke-linejoin="round" mask="url(#path-1-outside-1_2355_23)"/>
<path d="M70.1594 203.778L69.2068 172.195L77.7589 171.739L77.8567 174.982C79.461 172.866 81.4785 170.999 85.1244 170.804C90.9308 170.494 96.0724 175.048 96.3075 182.843L96.3102 182.933C96.5493 190.863 91.6985 195.95 85.9371 196.257C82.2462 196.454 80.0354 194.903 78.4043 193.139L78.7114 203.322L70.1594 203.778ZM83.1104 189.233C85.8561 189.087 88.0387 186.714 87.9395 183.425L87.9368 183.335C87.839 180.091 85.5191 177.913 82.7734 178.06C79.9828 178.208 77.8465 180.624 77.9444 183.868L77.9471 183.958C78.0449 187.202 80.3198 189.382 83.1104 189.233Z" stroke="#E334C3" stroke-width="3.82678" stroke-linejoin="round" mask="url(#path-1-outside-1_2355_23)"/>
<path d="M114.736 194.766C107.084 195.174 101.528 190.326 101.301 182.802L101.298 182.712C101.083 175.593 106 169.69 113.201 169.306C121.573 168.859 125.63 174.825 125.846 181.989C125.863 182.529 125.882 183.16 125.854 183.748L109.561 184.618C110.316 187.24 112.292 188.488 114.948 188.346C117.018 188.236 118.571 187.386 120.274 185.58L125.119 189.248C122.868 192.346 119.552 194.509 114.736 194.766ZM109.294 180.255L117.801 179.801C117.404 177.114 115.732 175.489 113.392 175.613C111.141 175.733 109.662 177.527 109.294 180.255Z" stroke="#E334C3" stroke-width="3.82678" stroke-linejoin="round" mask="url(#path-1-outside-1_2355_23)"/>
<path d="M139.15 193.418C134.514 193.665 130.922 191.149 130.776 186.328L130.774 186.238C130.62 181.147 134.368 178.375 140.085 178.07C142.335 177.95 144.553 178.238 145.965 178.704L145.953 178.298C145.875 175.73 144.256 174.373 140.97 174.548C138.405 174.685 136.441 175.331 134.26 176.26L132.323 170.361C135.035 169.088 137.938 168.166 142.124 167.943C146.49 167.71 149.492 168.588 151.486 170.422C153.386 172.125 154.227 174.608 154.33 178.032L154.753 192.044L146.336 192.493L146.258 189.925C144.603 191.863 142.346 193.247 139.15 193.418ZM142.049 187.893C144.57 187.759 146.278 186.088 146.204 183.655L146.17 182.529C145.259 182.216 144.036 182.011 142.776 182.078C140.3 182.21 138.895 183.458 138.951 185.306L138.953 185.396C139.004 187.063 140.294 187.987 142.049 187.893Z" stroke="#E334C3" stroke-width="3.82678" stroke-linejoin="round" mask="url(#path-1-outside-1_2355_23)"/>
<path d="M170.825 191.682C165.694 191.956 162.61 189.864 162.435 184.052L162.135 174.095L159.254 174.249L159.047 167.401L161.928 167.247L161.742 161.075L170.249 160.621L170.435 166.793L176.107 166.491L176.313 173.339L170.642 173.641L170.892 181.931C170.943 183.644 171.73 184.324 173.306 184.24C174.431 184.179 175.502 183.806 176.522 183.256L176.723 189.924C175.219 190.861 173.211 191.555 170.825 191.682Z" stroke="#E334C3" stroke-width="3.82678" stroke-linejoin="round" mask="url(#path-1-outside-1_2355_23)"/>
<path d="M182.453 190.566L182.188 181.78L191.055 181.307L191.32 190.092L182.453 190.566Z" stroke="#E334C3" stroke-width="3.82678" stroke-linejoin="round" mask="url(#path-1-outside-1_2355_23)"/>
</g>
<defs>
<filter id="filter0_d_2355_23" x="0.673807" y="0.143799" width="192.56" height="208.737" filterUnits="userSpaceOnUse" color-interpolation-filters="sRGB">
<feFlood flood-opacity="0" result="BackgroundImageFix"/>
<feColorMatrix in="SourceAlpha" type="matrix" values="0 0 0 0 0 0 0 0 0 0 0 0 0 0 0 0 0 0 127 0" result="hardAlpha"/>
<feOffset dx="-3.18899" dy="3.18899"/>
<feComposite in2="hardAlpha" operator="out"/>
<feColorMatrix type="matrix" values="0 0 0 0 0.890196 0 0 0 0 0.203922 0 0 0 0 0.764706 0 0 0 1 0"/>
<feBlend mode="normal" in2="BackgroundImageFix" result="effect1_dropShadow_2355_23"/>
<feBlend mode="normal" in="SourceGraphic" in2="effect1_dropShadow_2355_23" result="shape"/>
</filter>
</defs>
</svg>
