<svg width="23" height="24" viewBox="0 0 23 24" fill="none" xmlns="http://www.w3.org/2000/svg">
<path d="M11.4875 23.0068C17.8318 23.0068 22.9749 17.8566 22.9749 11.5034C22.9749 5.15026 17.8318 0 11.4875 0C5.14312 0 0 5.15026 0 11.5034C0 17.8566 5.14312 23.0068 11.4875 23.0068Z" fill="#00C9D4"/>
<path d="M11.4778 19.397L17.7813 15.7524C17.9226 15.6706 18.0101 15.5186 18.0101 15.355V8.06682C18.0101 7.90322 17.9226 7.75116 17.7813 7.66936L11.4778 4.02479C11.3355 3.94299 11.1616 3.94299 11.0194 4.02479L4.71677 7.66936C4.57549 7.75116 4.48804 7.90322 4.48804 8.06682V15.355C4.48804 15.5186 4.57549 15.6706 4.71677 15.7524L11.0203 19.397C11.1626 19.4788 11.3365 19.4788 11.4787 19.397H11.4778Z" fill="white"/>
<path d="M11.0014 14.001V10.4777L9.7174 14.001H8.97739L7.69342 10.4777V14.001H6.93323V9.55284H8.09898L9.357 12.9838L10.615 9.55284H11.7683V14.001H11.0014Z" fill="#00C9D4"/>
<path d="M15.3829 14.8672C15.108 15.1492 14.6553 15.3128 14.0662 15.3128C13.0513 15.3128 12.6448 14.7883 12.592 14.7229L13.0369 14.2503C13.0763 14.2956 13.404 14.6699 14.0201 14.6699C14.4516 14.6699 14.688 14.5313 14.8187 14.3418C14.9561 14.1704 14.9696 13.9549 14.9696 13.7451V13.5025C14.9437 13.5353 14.5833 13.9818 13.875 13.9818C13.2666 13.9818 12.4468 13.5747 12.4468 12.3679C12.4468 11.6143 12.9254 10.754 13.9538 10.754C14.5823 10.754 14.9225 11.1611 15.0023 11.2727L15.0148 10.8666H15.7557V13.6017C15.7557 14.0809 15.7298 14.5073 15.3819 14.8682L15.3829 14.8672ZM14.1316 11.3843C13.5357 11.3843 13.2599 11.8636 13.2599 12.3814C13.2599 12.9973 13.5943 13.3582 14.0922 13.3582C14.5371 13.3582 14.9773 13.03 14.9831 12.3679C14.9831 11.7318 14.6034 11.3843 14.1316 11.3843Z" fill="#00C9D4"/>
</svg>
