<svg width="18" height="19" viewBox="0 0 18 19" fill="none" xmlns="http://www.w3.org/2000/svg">
<path d="M18 9.00077C18 13.972 13.9697 18.0015 8.99923 18.0015C4.0288 18.0015 0 13.972 0 9.00077C0 4.02956 4.02803 0 8.99847 0C13.9689 0 17.9992 4.03033 17.9992 9.00077H18Z" fill="#0063A7"/>
<path d="M12.4857 12.6354C11.9528 13.6652 10.6975 14.7755 9.02743 14.7755C7.35732 14.7755 5.87739 13.5586 5.38127 12.6009C4.77396 11.4315 4.95492 10.519 4.95492 10.519C4.95492 10.1195 5.59827 9.766 6.58745 9.54823C6.75538 9.68395 6.93711 9.80511 7.12728 9.91016C6.16187 10.0965 5.51699 10.4255 5.51699 10.8027C5.51699 11.384 7.04293 11.8563 8.92621 11.8563C10.8095 11.8563 12.337 11.384 12.337 10.8027C12.337 10.4293 11.7036 10.1019 10.7527 9.91553C10.9437 9.81048 11.1254 9.69009 11.2949 9.5536C12.2695 9.7729 12.9006 10.1233 12.9006 10.519C12.9006 10.519 13.1444 11.3663 12.4857 12.6354ZM8.95075 6.47641C8.37794 6.47641 7.91402 6.93879 7.91402 7.51083C7.91402 8.08286 8.37718 8.54371 8.95075 8.54371C9.52432 8.54371 9.9867 8.08133 9.9867 7.51083C9.9867 6.94032 9.52278 6.47641 8.95075 6.47641ZM9.32188 9.87489V10.7805C9.32188 10.9592 9.17695 11.1041 8.99752 11.1041C8.81809 11.1041 8.67393 10.9592 8.67393 10.7805V9.88409C6.99386 9.74683 5.67495 8.34435 5.67495 6.6313C5.67495 4.82471 7.13802 3.36011 8.94384 3.36011C10.7497 3.36011 12.215 4.82471 12.215 6.6313C12.215 8.30754 10.949 9.68779 9.32111 9.87489H9.32188ZM10.5465 6.99247C10.3601 5.99945 8.92774 4.52259 8.92774 4.52259C8.92774 4.52259 7.50148 6.35295 7.32205 6.9848C7.05367 7.92337 7.61574 8.75382 8.55201 8.94399C8.59341 8.95242 8.63329 8.95626 8.67393 8.96162C8.90244 8.99306 9.11944 8.98769 9.32111 8.94629C10.1953 8.76992 10.7704 7.96708 10.5457 6.9917L10.5465 6.99247Z" fill="white"/>
</svg>
