<svg width="23" height="24" viewBox="0 0 23 24" fill="none" xmlns="http://www.w3.org/2000/svg">
<path d="M22.975 11.9387C22.975 18.2927 17.8307 23.4431 11.4865 23.4431C5.14231 23.4431 0 18.2927 0 11.9387C0 5.5847 5.14133 0.434265 11.4855 0.434265C17.8298 0.434265 22.974 5.58568 22.974 11.9387H22.975Z" fill="#3FAE49"/>
<path d="M18.9054 9.54724C18.4924 9.40905 15.657 9.0817 13.3883 11.0782C12.1697 12.1504 11.2125 14.877 11.2125 14.877C11.2125 14.877 11.1068 13.2952 11.0403 13.0207C10.9708 12.7453 10.8445 11.8348 10.8445 11.8348C10.8445 11.8348 12.1501 11.1468 13.2493 9.49432C13.6545 8.88568 14.0744 7.01662 14.5559 6.32859C15.0384 5.64056 11.8487 7.4018 11.3143 8.37798C10.5245 9.82167 10.5939 11.232 10.5939 11.232C10.5939 11.232 10.1134 9.68348 9.39303 8.27409C9.06907 7.64389 8.91247 6.17667 8.71378 6.1904C8.5151 6.2051 8.71868 8.11532 9.33137 9.42473C10.3209 11.5408 10.3551 12.9854 10.3551 12.9854C10.3551 12.9854 9.11702 10.6469 7.78691 9.32182C7.1292 8.66907 5.17367 7.67035 4.55511 7.53215C3.93556 7.39494 5.51721 10.8361 6.82383 11.9367C8.12947 13.0384 10.5352 14.2086 10.5352 14.2086C10.5352 14.2086 10.8455 15.6866 10.5019 16.5128C10.1574 17.3381 9.19532 17.8889 9.19532 17.8889C8.80774 18.1418 8.85179 18.3701 9.47035 18.5093C10.0889 18.6455 10.1555 18.5093 10.639 17.8889C11.1195 17.2704 11.326 15.961 11.326 15.961C11.326 15.961 13.4558 15.6856 14.8309 14.7927C16.2051 13.8979 16.7414 12.7443 17.1535 11.7809C17.5655 10.8175 19.3175 9.68348 18.9044 9.54626L18.9054 9.54724ZM11.8986 8.5152C12.1736 8.17118 13.2718 7.34496 13.2718 7.34496C13.2718 7.34496 12.5642 8.18686 12.1501 8.9435C11.7391 9.70112 11.1205 10.6646 11.1205 10.6646C11.1205 10.6646 11.6246 8.85823 11.8986 8.5152ZM7.57257 11.0605C6.47148 9.89028 6.05943 9.16794 6.05943 9.16794C6.05943 9.16794 7.64891 10.4235 8.26748 11.0429C8.88604 11.6623 9.91764 13.2452 9.91764 13.2452C9.91764 13.2452 8.67267 12.2298 7.57355 11.0605H7.57257ZM14.0284 12.5405C13.2043 13.3657 11.556 15.0829 11.556 15.0829C11.556 15.0829 13.1142 12.8688 13.7328 12.1798C14.3513 11.4918 16.207 10.6665 16.207 10.6665C16.207 10.6665 14.8544 11.7142 14.0293 12.5415L14.0284 12.5405Z" fill="white"/>
</svg>
