<svg width="407" height="44" viewBox="0 0 407 44" fill="none" xmlns="http://www.w3.org/2000/svg">
<path d="M0.74 1.13325H15.8V31.7333H29.36V42.8333H0.74V1.13325ZM51.0941 43.6733C47.8941 43.6733 44.9741 43.1533 42.3341 42.1133C39.7341 41.0733 37.4941 39.6133 35.6141 37.7333C33.7741 35.8533 32.3341 33.5733 31.2941 30.8933C30.2941 28.2133 29.7941 25.2333 29.7941 21.9533C29.7941 18.6733 30.2941 15.7133 31.2941 13.0733C32.3341 10.3933 33.7741 8.11325 35.6141 6.23325C37.4941 4.31325 39.7341 2.85325 42.3341 1.85325C44.9741 0.813249 47.8941 0.293249 51.0941 0.293249C54.2941 0.293249 57.1941 0.813249 59.7941 1.85325C62.4341 2.85325 64.6741 4.31325 66.5141 6.23325C68.3941 8.11325 69.8341 10.3933 70.8341 13.0733C71.8741 15.7133 72.3941 18.6733 72.3941 21.9533C72.3941 25.2333 71.8741 28.2133 70.8341 30.8933C69.8341 33.5733 68.3941 35.8533 66.5141 37.7333C64.6741 39.6133 62.4341 41.0733 59.7941 42.1133C57.1941 43.1533 54.2941 43.6733 51.0941 43.6733ZM51.0941 32.3333C53.1741 32.3333 54.7341 31.3933 55.7741 29.5133C56.8141 27.6333 57.3341 25.1133 57.3341 21.9533C57.3341 18.8333 56.8141 16.3333 55.7741 14.4533C54.7341 12.5732 53.1741 11.6332 51.0941 11.6332C49.0141 11.6332 47.4541 12.5732 46.4141 14.4533C45.3741 16.3333 44.8541 18.8333 44.8541 21.9533C44.8541 25.1133 45.3741 27.6333 46.4141 29.5133C47.4541 31.3933 49.0141 32.3333 51.0941 32.3333ZM71.8433 1.13325H87.2033L92.9033 40.1333L98.6633 1.13325H113.843L106.043 42.8333H79.7033L71.8433 1.13325ZM116.053 1.13325H131.113V42.8333H116.053V1.13325ZM134.568 1.13325H158.028L164.508 40.1933L162.588 1.13325H176.868V42.8333H153.468L146.988 3.77325L148.848 42.8333H134.568V1.13325ZM186.33 14.8733H180.27V1.13325H194.07V14.8733L187.29 23.5133H179.61L186.33 14.8733ZM212.615 1.13325H227.675V31.7333H241.235V42.8333H212.615V1.13325ZM243.787 1.13325H258.847V42.8333H243.787V1.13325ZM262.303 1.13325H282.403C288.003 1.13325 292.163 2.03325 294.883 3.83325C297.643 5.59325 299.023 8.01325 299.023 11.0932C299.023 13.8133 298.163 15.9133 296.443 17.3933C294.723 18.8333 292.383 19.8533 289.423 20.4533C290.983 20.6933 292.423 21.0533 293.743 21.5333C295.103 22.0133 296.263 22.6533 297.223 23.4533C298.183 24.2533 298.923 25.2133 299.443 26.3333C300.003 27.4533 300.283 28.7533 300.283 30.2333C300.283 31.9933 299.943 33.6533 299.263 35.2133C298.623 36.7333 297.563 38.0733 296.083 39.2333C294.643 40.3533 292.763 41.2333 290.443 41.8733C288.163 42.5133 285.363 42.8333 282.043 42.8333H262.303V1.13325ZM277.363 11.5133V18.1133H280.903C282.063 18.1133 282.943 17.8333 283.543 17.2733C284.143 16.6733 284.443 15.8533 284.443 14.8133C284.443 13.7733 284.143 12.9733 283.543 12.4133C282.943 11.8133 282.063 11.5133 280.903 11.5133H277.363ZM277.363 25.0133V32.4533H281.203C282.483 32.4533 283.463 32.1333 284.143 31.4933C284.863 30.8133 285.223 29.8933 285.223 28.7333C285.223 27.5733 284.863 26.6733 284.143 26.0333C283.463 25.3533 282.483 25.0133 281.203 25.0133H277.363ZM302.967 1.13325H318.027V42.8333H302.967V1.13325ZM321.482 1.13325H339.362C343.162 1.13325 346.462 1.61325 349.262 2.57325C352.062 3.53325 354.382 4.91325 356.222 6.71325C358.102 8.47325 359.482 10.6533 360.362 13.2533C361.282 15.8133 361.742 18.7133 361.742 21.9533C361.742 25.1933 361.282 28.1133 360.362 30.7133C359.482 33.2733 358.102 35.4533 356.222 37.2533C354.382 39.0533 352.062 40.4333 349.262 41.3933C346.462 42.3533 343.162 42.8333 339.362 42.8333H321.482V1.13325ZM339.002 31.7333C341.482 31.7333 343.362 30.9933 344.642 29.5133C345.962 28.0333 346.622 25.5133 346.622 21.9533C346.622 18.3933 345.962 15.8933 344.642 14.4533C343.362 12.9732 341.482 12.2332 339.002 12.2332H336.542V31.7333H339.002ZM385.371 43.6733C382.171 43.6733 379.251 43.1533 376.611 42.1133C374.011 41.0733 371.771 39.6133 369.891 37.7333C368.051 35.8533 366.611 33.5733 365.571 30.8933C364.571 28.2133 364.071 25.2333 364.071 21.9533C364.071 18.6733 364.571 15.7133 365.571 13.0733C366.611 10.3933 368.051 8.11325 369.891 6.23325C371.771 4.31325 374.011 2.85325 376.611 1.85325C379.251 0.813249 382.171 0.293249 385.371 0.293249C388.571 0.293249 391.471 0.813249 394.071 1.85325C396.711 2.85325 398.951 4.31325 400.791 6.23325C402.671 8.11325 404.111 10.3933 405.111 13.0733C406.151 15.7133 406.671 18.6733 406.671 21.9533C406.671 25.2333 406.151 28.2133 405.111 30.8933C404.111 33.5733 402.671 35.8533 400.791 37.7333C398.951 39.6133 396.711 41.0733 394.071 42.1133C391.471 43.1533 388.571 43.6733 385.371 43.6733ZM385.371 32.3333C387.451 32.3333 389.011 31.3933 390.051 29.5133C391.091 27.6333 391.611 25.1133 391.611 21.9533C391.611 18.8333 391.091 16.3333 390.051 14.4533C389.011 12.5732 387.451 11.6332 385.371 11.6332C383.291 11.6332 381.731 12.5732 380.691 14.4533C379.651 16.3333 379.131 18.8333 379.131 21.9533C379.131 25.1133 379.651 27.6333 380.691 29.5133C381.731 31.3933 383.291 32.3333 385.371 32.3333Z" fill="#FFC451"/>
</svg>
