<svg xmlns="http://www.w3.org/2000/svg" fill="none" viewBox="0 0 20 20" height="20" width="20">
<g clip-path="url(#clip0_43_280)">
<g clip-path="url(#clip1_43_280)">
<path fill="#81ECA2" d="M16.1294 8.15143L16.075 8.70513C15.7746 8.33826 15.2653 8.04272 14.5268 8.04272C14.4725 8.04272 14.4216 8.04782 14.3672 8.05122V9.72081C14.5302 9.62909 14.7237 9.57644 14.9359 9.57644C15.6031 9.58153 16.0683 10.0741 16.0683 10.7874C16.0683 11.5008 15.6031 11.9985 14.9359 11.9985C14.722 11.9985 14.5302 11.9475 14.3672 11.8541V13.5118H14.3486C14.4063 13.5152 14.4657 13.5203 14.5251 13.5203C15.2636 13.5203 15.7729 13.2298 16.0734 12.8579V13.4931C16.0734 14.2761 15.3009 14.5716 14.7153 14.5716C14.0634 14.5716 13.588 14.3576 13.1008 13.8871L12.0771 14.9113C12.6679 15.606 13.5982 16.051 14.7373 16.051C16.2041 16.051 17.7964 15.3003 17.7964 13.5644V8.15312H16.1277L16.1294 8.15143Z"></path>
<path fill="#61DEFF" d="M13.8037 10.7859C13.8037 11.2699 14.0193 11.6555 14.3673 11.8525V9.71924C14.0193 9.91626 13.8037 10.3018 13.8037 10.7859Z"></path>
<path fill="#13A74B" d="M14.3674 11.8524C14.0194 11.6554 13.8038 11.2699 13.8038 10.7858C13.8038 10.3017 14.0194 9.91617 14.3674 9.71915V8.04956C13.0483 8.13448 12.0959 9.27415 12.0959 10.7841C12.0959 12.294 13.0398 13.4133 14.3487 13.5067H14.3674V11.849V11.8524Z"></path>
<path fill="#61DEFF" d="M11.5509 3L8.68364 7.32769L5.81636 3H3V13.5084H5.81636V8.44528L7.4953 10.9743H9.87198L11.5509 8.44528V13.5084H14.3503C13.0414 13.415 12.0976 12.2889 12.0976 10.7858C12.0976 9.28262 13.0499 8.13616 14.369 8.05124V3H11.5526H11.5509Z"></path>
</g>
</g>
<defs>
<clipPath id="clip0_43_280">
<rect fill="white" height="20" width="20"></rect>
</clipPath>
<clipPath id="clip1_43_280">
<rect transform="translate(3 3)" fill="white" height="13.0476" width="14.7999"></rect>
</clipPath>
</defs>
</svg>
