<svg width="658" height="126" viewBox="0 0 658 126" fill="none" xmlns="http://www.w3.org/2000/svg">
<path d="M0.98 1.35H44.8V14.3H31.71V50H14.14V14.3H0.98V1.35ZM76.1791 31.45H66.1691V50H48.5991V1.35H66.1691V18.78H76.1791V1.35H93.7491V50H76.1791V31.45ZM98.5179 1.35H116.088V50H98.5179V1.35ZM138.179 50.98C135.939 50.98 133.839 50.8167 131.879 50.49C129.966 50.21 128.263 49.86 126.769 49.44C125.276 49.02 124.016 48.6 122.989 48.18C121.963 47.7133 121.216 47.34 120.749 47.06V35.37C122.569 36.1167 124.693 36.7933 127.119 37.4C129.593 38.0067 132.369 38.31 135.449 38.31C137.783 38.31 139.369 38.03 140.209 37.47C141.049 36.8633 141.469 36.0467 141.469 35.02C141.469 34.1333 141.143 33.4567 140.489 32.99C139.883 32.5233 138.903 32.1033 137.549 31.73L136.429 31.45C134.049 30.8433 131.833 30.1433 129.779 29.35C127.773 28.5567 126.023 27.5767 124.529 26.41C123.083 25.1967 121.939 23.75 121.099 22.07C120.306 20.39 119.909 18.36 119.909 15.98C119.909 13.74 120.329 11.6867 121.169 9.82C122.056 7.90667 123.316 6.25 124.949 4.85C126.583 3.45 128.589 2.35333 130.969 1.56C133.349 0.766664 136.056 0.369996 139.089 0.369996C141.049 0.369996 142.869 0.486663 144.549 0.719996C146.276 0.906663 147.816 1.16333 149.169 1.49C150.569 1.81666 151.783 2.16666 152.809 2.54C153.883 2.91333 154.723 3.26333 155.329 3.59V15.14C153.789 14.6267 151.923 14.16 149.729 13.74C147.536 13.2733 145.109 13.04 142.449 13.04C140.489 13.04 139.113 13.2733 138.319 13.74C137.573 14.16 137.199 14.79 137.199 15.63C137.199 16.4233 137.503 17.03 138.109 17.45C138.716 17.8233 139.719 18.1967 141.119 18.57L142.169 18.85C144.596 19.4567 146.813 20.1567 148.819 20.95C150.826 21.7433 152.553 22.7233 153.999 23.89C155.493 25.01 156.636 26.41 157.429 28.09C158.269 29.77 158.689 31.8 158.689 34.18C158.689 36.6533 158.246 38.94 157.359 41.04C156.473 43.0933 155.166 44.8667 153.439 46.36C151.713 47.8067 149.566 48.95 146.999 49.79C144.433 50.5833 141.493 50.98 138.179 50.98ZM173.079 1.35H190.649V50H173.079V1.35ZM212.74 50.98C210.5 50.98 208.4 50.8167 206.44 50.49C204.527 50.21 202.824 49.86 201.33 49.44C199.837 49.02 198.577 48.6 197.55 48.18C196.524 47.7133 195.777 47.34 195.31 47.06V35.37C197.13 36.1167 199.254 36.7933 201.68 37.4C204.154 38.0067 206.93 38.31 210.01 38.31C212.344 38.31 213.93 38.03 214.77 37.47C215.61 36.8633 216.03 36.0467 216.03 35.02C216.03 34.1333 215.704 33.4567 215.05 32.99C214.444 32.5233 213.464 32.1033 212.11 31.73L210.99 31.45C208.61 30.8433 206.394 30.1433 204.34 29.35C202.334 28.5567 200.584 27.5767 199.09 26.41C197.644 25.1967 196.5 23.75 195.66 22.07C194.867 20.39 194.47 18.36 194.47 15.98C194.47 13.74 194.89 11.6867 195.73 9.82C196.617 7.90667 197.877 6.25 199.51 4.85C201.144 3.45 203.15 2.35333 205.53 1.56C207.91 0.766664 210.617 0.369996 213.65 0.369996C215.61 0.369996 217.43 0.486663 219.11 0.719996C220.837 0.906663 222.377 1.16333 223.73 1.49C225.13 1.81666 226.344 2.16666 227.37 2.54C228.444 2.91333 229.284 3.26333 229.89 3.59V15.14C228.35 14.6267 226.484 14.16 224.29 13.74C222.097 13.2733 219.67 13.04 217.01 13.04C215.05 13.04 213.674 13.2733 212.88 13.74C212.134 14.16 211.76 14.79 211.76 15.63C211.76 16.4233 212.064 17.03 212.67 17.45C213.277 17.8233 214.28 18.1967 215.68 18.57L216.73 18.85C219.157 19.4567 221.374 20.1567 223.38 20.95C225.387 21.7433 227.114 22.7233 228.56 23.89C230.054 25.01 231.197 26.41 231.99 28.09C232.83 29.77 233.25 31.8 233.25 34.18C233.25 36.6533 232.807 38.94 231.92 41.04C231.034 43.0933 229.727 44.8667 228 46.36C226.274 47.8067 224.127 48.95 221.56 49.79C218.994 50.5833 216.054 50.98 212.74 50.98ZM265 50.98C262.76 50.98 260.66 50.8167 258.7 50.49C256.786 50.21 255.083 49.86 253.59 49.44C252.096 49.02 250.836 48.6 249.81 48.18C248.783 47.7133 248.036 47.34 247.57 47.06V35.37C249.39 36.1167 251.513 36.7933 253.94 37.4C256.413 38.0067 259.19 38.31 262.27 38.31C264.603 38.31 266.19 38.03 267.03 37.47C267.87 36.8633 268.29 36.0467 268.29 35.02C268.29 34.1333 267.963 33.4567 267.31 32.99C266.703 32.5233 265.723 32.1033 264.37 31.73L263.25 31.45C260.87 30.8433 258.653 30.1433 256.6 29.35C254.593 28.5567 252.843 27.5767 251.35 26.41C249.903 25.1967 248.76 23.75 247.92 22.07C247.126 20.39 246.73 18.36 246.73 15.98C246.73 13.74 247.15 11.6867 247.99 9.82C248.876 7.90667 250.136 6.25 251.77 4.85C253.403 3.45 255.41 2.35333 257.79 1.56C260.17 0.766664 262.876 0.369996 265.91 0.369996C267.87 0.369996 269.69 0.486663 271.37 0.719996C273.096 0.906663 274.636 1.16333 275.99 1.49C277.39 1.81666 278.603 2.16666 279.63 2.54C280.703 2.91333 281.543 3.26333 282.15 3.59V15.14C280.61 14.6267 278.743 14.16 276.55 13.74C274.356 13.2733 271.93 13.04 269.27 13.04C267.31 13.04 265.933 13.2733 265.14 13.74C264.393 14.16 264.02 14.79 264.02 15.63C264.02 16.4233 264.323 17.03 264.93 17.45C265.536 17.8233 266.54 18.1967 267.94 18.57L268.99 18.85C271.416 19.4567 273.633 20.1567 275.64 20.95C277.646 21.7433 279.373 22.7233 280.82 23.89C282.313 25.01 283.456 26.41 284.25 28.09C285.09 29.77 285.51 31.8 285.51 34.18C285.51 36.6533 285.066 38.94 284.18 41.04C283.293 43.0933 281.986 44.8667 280.26 46.36C278.533 47.8067 276.386 48.95 273.82 49.79C271.253 50.5833 268.313 50.98 265 50.98ZM289.697 1.35H324.557V13.81H307.267V19.55H322.317V30.68H307.267V37.54H325.117V50H289.697V1.35ZM327.482 50L338.612 24.73L327.902 1.35H345.892L351.352 15L355.832 1.35H373.542L362.832 25.85L373.962 50H356.042L350.162 35.37L345.192 50H327.482ZM399.353 50.98C395.807 50.98 392.633 50.5367 389.833 49.65C387.033 48.7633 384.677 47.5033 382.763 45.87C380.85 44.19 379.38 42.1833 378.353 39.85C377.373 37.47 376.883 34.81 376.883 31.87V1.35H394.453V32.64C394.453 34.2733 394.897 35.5333 395.783 36.42C396.67 37.3067 397.86 37.75 399.353 37.75C400.847 37.75 402.037 37.3067 402.923 36.42C403.81 35.5333 404.253 34.2733 404.253 32.64V1.35H421.823V31.87C421.823 34.81 421.31 37.47 420.283 39.85C419.303 42.1833 417.857 44.19 415.943 45.87C414.03 47.5033 411.673 48.7633 408.873 49.65C406.12 50.5367 402.947 50.98 399.353 50.98ZM431.704 1.35H462.434L471.534 50H453.614L452.214 40.76H441.574L440.244 50H422.534L431.704 1.35ZM443.394 28.58H450.464L446.894 4.5L443.394 28.58ZM474.812 1.35H492.382V37.05H508.202V50H474.812V1.35ZM29.61 107.45H19.6V126H2.03V77.35H19.6V94.78H29.61V77.35H47.18V126H29.61V107.45ZM51.9488 77.35H86.8088V89.81H69.5188V95.55H84.5688V106.68H69.5188V113.54H87.3688V126H51.9488V77.35ZM98.9034 77.35H129.633L138.733 126H120.813L119.413 116.76H108.773L107.443 126H89.7334L98.9034 77.35ZM110.593 104.58H117.663L114.093 80.5L110.593 104.58ZM142.011 77.35H159.581V113.05H175.401V126H142.011V77.35ZM169.757 77.35H213.577V90.3H200.487V126H182.917V90.3H169.757V77.35ZM244.956 107.45H234.946V126H217.376V77.35H234.946V94.78H244.956V77.35H262.526V126H244.956V107.45ZM295.066 107.59V126H277.496V77.35H299.756C306.85 77.35 312.216 78.6567 315.856 81.27C319.543 83.8367 321.386 87.64 321.386 92.68C321.386 99.1667 318.166 103.53 311.726 105.77L323.906 126H305.356L295.066 107.59ZM295.066 89.81V99.4H298.916C300.643 99.4 301.95 98.98 302.836 98.14C303.77 97.3 304.236 96.1333 304.236 94.64C304.236 93.1 303.77 91.91 302.836 91.07C301.95 90.23 300.643 89.81 298.916 89.81H295.066ZM327.21 77.35H362.07V89.81H344.78V95.55H359.83V106.68H344.78V113.54H362.63V126H327.21V77.35ZM366.465 77.35H387.325C391.758 77.35 395.608 77.91 398.875 79.03C402.141 80.15 404.848 81.76 406.995 83.86C409.188 85.9133 410.798 88.4567 411.825 91.49C412.898 94.4767 413.435 97.86 413.435 101.64C413.435 105.42 412.898 108.827 411.825 111.86C410.798 114.847 409.188 117.39 406.995 119.49C404.848 121.59 402.141 123.2 398.875 124.32C395.608 125.44 391.758 126 387.325 126H366.465V77.35ZM386.905 113.05C389.798 113.05 391.991 112.187 393.485 110.46C395.025 108.733 395.795 105.793 395.795 101.64C395.795 97.4867 395.025 94.57 393.485 92.89C391.991 91.1633 389.798 90.3 386.905 90.3H384.035V113.05H386.905ZM417.409 77.35H452.269V89.81H434.979V95.55H450.029V106.68H434.979V113.54H452.829V126H417.409V77.35ZM456.664 77.35H490.614V90.02H474.234V97.44H488.374V109.2H474.234V126H456.664V77.35ZM494.483 77.35H512.053V126H494.483V77.35ZM516.784 77.35H544.154L551.714 122.92L549.474 77.35H566.134V126H538.834L531.274 80.43L533.444 126H516.784V77.35ZM570.873 77.35H605.733V89.81H588.443V95.55H603.493V106.68H588.443V113.54H606.293V126H570.873V77.35ZM610.128 77.35H630.988C635.421 77.35 639.271 77.91 642.538 79.03C645.804 80.15 648.511 81.76 650.658 83.86C652.851 85.9133 654.461 88.4567 655.488 91.49C656.561 94.4767 657.098 97.86 657.098 101.64C657.098 105.42 656.561 108.827 655.488 111.86C654.461 114.847 652.851 117.39 650.658 119.49C648.511 121.59 645.804 123.2 642.538 124.32C639.271 125.44 635.421 126 630.988 126H610.128V77.35ZM630.568 113.05C633.461 113.05 635.654 112.187 637.148 110.46C638.688 108.733 639.458 105.793 639.458 101.64C639.458 97.4867 638.688 94.57 637.148 92.89C635.654 91.1633 633.461 90.3 630.568 90.3H627.698V113.05H630.568Z" fill="#AF1685"/>
</svg>
