<svg width="407" height="136" viewBox="0 0 407 136" fill="none" xmlns="http://www.w3.org/2000/svg">
<path d="M0.98 1.35H44.8V14.3H31.71V50H14.14V14.3H0.98V1.35ZM76.1791 31.45H66.1691V50H48.5991V1.35H66.1691V18.78H76.1791V1.35H93.7491V50H76.1791V31.45ZM98.5179 1.35H116.088V50H98.5179V1.35ZM138.179 50.98C135.939 50.98 133.839 50.8167 131.879 50.49C129.966 50.21 128.263 49.86 126.769 49.44C125.276 49.02 124.016 48.6 122.989 48.18C121.963 47.7133 121.216 47.34 120.749 47.06V35.37C122.569 36.1167 124.693 36.7933 127.119 37.4C129.593 38.0067 132.369 38.31 135.449 38.31C137.783 38.31 139.369 38.03 140.209 37.47C141.049 36.8633 141.469 36.0467 141.469 35.02C141.469 34.1333 141.143 33.4567 140.489 32.99C139.883 32.5233 138.903 32.1033 137.549 31.73L136.429 31.45C134.049 30.8433 131.833 30.1433 129.779 29.35C127.773 28.5567 126.023 27.5767 124.529 26.41C123.083 25.1967 121.939 23.75 121.099 22.07C120.306 20.39 119.909 18.36 119.909 15.98C119.909 13.74 120.329 11.6867 121.169 9.82C122.056 7.90667 123.316 6.25 124.949 4.85C126.583 3.45 128.589 2.35333 130.969 1.56C133.349 0.766664 136.056 0.369996 139.089 0.369996C141.049 0.369996 142.869 0.486663 144.549 0.719996C146.276 0.906663 147.816 1.16333 149.169 1.49C150.569 1.81666 151.783 2.16666 152.809 2.54C153.883 2.91333 154.723 3.26333 155.329 3.59V15.14C153.789 14.6267 151.923 14.16 149.729 13.74C147.536 13.2733 145.109 13.04 142.449 13.04C140.489 13.04 139.113 13.2733 138.319 13.74C137.573 14.16 137.199 14.79 137.199 15.63C137.199 16.4233 137.503 17.03 138.109 17.45C138.716 17.8233 139.719 18.1967 141.119 18.57L142.169 18.85C144.596 19.4567 146.813 20.1567 148.819 20.95C150.826 21.7433 152.553 22.7233 153.999 23.89C155.493 25.01 156.636 26.41 157.429 28.09C158.269 29.77 158.689 31.8 158.689 34.18C158.689 36.6533 158.246 38.94 157.359 41.04C156.473 43.0933 155.166 44.8667 153.439 46.36C151.713 47.8067 149.566 48.95 146.999 49.79C144.433 50.5833 141.493 50.98 138.179 50.98ZM173.079 1.35H190.649V50H173.079V1.35ZM212.74 50.98C210.5 50.98 208.4 50.8167 206.44 50.49C204.527 50.21 202.824 49.86 201.33 49.44C199.837 49.02 198.577 48.6 197.55 48.18C196.524 47.7133 195.777 47.34 195.31 47.06V35.37C197.13 36.1167 199.254 36.7933 201.68 37.4C204.154 38.0067 206.93 38.31 210.01 38.31C212.344 38.31 213.93 38.03 214.77 37.47C215.61 36.8633 216.03 36.0467 216.03 35.02C216.03 34.1333 215.704 33.4567 215.05 32.99C214.444 32.5233 213.464 32.1033 212.11 31.73L210.99 31.45C208.61 30.8433 206.394 30.1433 204.34 29.35C202.334 28.5567 200.584 27.5767 199.09 26.41C197.644 25.1967 196.5 23.75 195.66 22.07C194.867 20.39 194.47 18.36 194.47 15.98C194.47 13.74 194.89 11.6867 195.73 9.82C196.617 7.90667 197.877 6.25 199.51 4.85C201.144 3.45 203.15 2.35333 205.53 1.56C207.91 0.766664 210.617 0.369996 213.65 0.369996C215.61 0.369996 217.43 0.486663 219.11 0.719996C220.837 0.906663 222.377 1.16333 223.73 1.49C225.13 1.81666 226.344 2.16666 227.37 2.54C228.444 2.91333 229.284 3.26333 229.89 3.59V15.14C228.35 14.6267 226.484 14.16 224.29 13.74C222.097 13.2733 219.67 13.04 217.01 13.04C215.05 13.04 213.674 13.2733 212.88 13.74C212.134 14.16 211.76 14.79 211.76 15.63C211.76 16.4233 212.064 17.03 212.67 17.45C213.277 17.8233 214.28 18.1967 215.68 18.57L216.73 18.85C219.157 19.4567 221.374 20.1567 223.38 20.95C225.387 21.7433 227.114 22.7233 228.56 23.89C230.054 25.01 231.197 26.41 231.99 28.09C232.83 29.77 233.25 31.8 233.25 34.18C233.25 36.6533 232.807 38.94 231.92 41.04C231.034 43.0933 229.727 44.8667 228 46.36C226.274 47.8067 224.127 48.95 221.56 49.79C218.994 50.5833 216.054 50.98 212.74 50.98ZM255.34 1.35H286.07L295.17 50H277.25L275.85 40.76H265.21L263.88 50H246.17L255.34 1.35ZM267.03 28.58H274.1L270.53 4.5L267.03 28.58ZM19.39 126.98C17.15 126.98 15.05 126.817 13.09 126.49C11.1767 126.21 9.47333 125.86 7.98 125.44C6.48667 125.02 5.22667 124.6 4.2 124.18C3.17333 123.713 2.42667 123.34 1.96 123.06V111.37C3.78 112.117 5.90333 112.793 8.33 113.4C10.8033 114.007 13.58 114.31 16.66 114.31C18.9933 114.31 20.58 114.03 21.42 113.47C22.26 112.863 22.68 112.047 22.68 111.02C22.68 110.133 22.3533 109.457 21.7 108.99C21.0933 108.523 20.1133 108.103 18.76 107.73L17.64 107.45C15.26 106.843 13.0433 106.143 10.99 105.35C8.98333 104.557 7.23333 103.577 5.74 102.41C4.29333 101.197 3.15 99.75 2.31 98.07C1.51667 96.39 1.12 94.36 1.12 91.98C1.12 89.74 1.54 87.6867 2.38 85.82C3.26667 83.9067 4.52667 82.25 6.16 80.85C7.79333 79.45 9.8 78.3533 12.18 77.56C14.56 76.7667 17.2667 76.37 20.3 76.37C22.26 76.37 24.08 76.4867 25.76 76.72C27.4867 76.9067 29.0267 77.1633 30.38 77.49C31.78 77.8167 32.9933 78.1667 34.02 78.54C35.0933 78.9133 35.9333 79.2633 36.54 79.59V91.14C35 90.6267 33.1333 90.16 30.94 89.74C28.7467 89.2733 26.32 89.04 23.66 89.04C21.7 89.04 20.3233 89.2733 19.53 89.74C18.7833 90.16 18.41 90.79 18.41 91.63C18.41 92.4233 18.7133 93.03 19.32 93.45C19.9267 93.8233 20.93 94.1967 22.33 94.57L23.38 94.85C25.8067 95.4567 28.0233 96.1567 30.03 96.95C32.0367 97.7433 33.7633 98.7233 35.21 99.89C36.7033 101.01 37.8467 102.41 38.64 104.09C39.48 105.77 39.9 107.8 39.9 110.18C39.9 112.653 39.4567 114.94 38.57 117.04C37.6833 119.093 36.3767 120.867 34.65 122.36C32.9233 123.807 30.7767 124.95 28.21 125.79C25.6433 126.583 22.7033 126.98 19.39 126.98ZM44.0874 77.35H78.9474V89.81H61.6574V95.55H76.7074V106.68H61.6574V113.54H79.5074V126H44.0874V77.35ZM81.8721 126L93.0021 100.73L82.2921 77.35H100.282L105.742 91L110.222 77.35H127.932L117.222 101.85L128.352 126H110.432L104.552 111.37L99.5821 126H81.8721ZM141.685 77.35H176.545V89.81H159.255V95.55H174.305V106.68H159.255V113.54H177.105V126H141.685V77.35ZM180.94 77.35H201.8C206.233 77.35 210.083 77.91 213.35 79.03C216.617 80.15 219.323 81.76 221.47 83.86C223.663 85.9133 225.273 88.4567 226.3 91.49C227.373 94.4767 227.91 97.86 227.91 101.64C227.91 105.42 227.373 108.827 226.3 111.86C225.273 114.847 223.663 117.39 221.47 119.49C219.323 121.59 216.617 123.2 213.35 124.32C210.083 125.44 206.233 126 201.8 126H180.94V77.35ZM201.38 113.05C204.273 113.05 206.467 112.187 207.96 110.46C209.5 108.733 210.27 105.793 210.27 101.64C210.27 97.4867 209.5 94.57 207.96 92.89C206.467 91.1633 204.273 90.3 201.38 90.3H198.51V113.05H201.38ZM266.79 126.98C263.056 126.98 259.65 126.373 256.57 125.16C253.536 123.947 250.923 122.243 248.73 120.05C246.583 117.857 244.903 115.197 243.69 112.07C242.523 108.943 241.94 105.467 241.94 101.64C241.94 97.8133 242.523 94.36 243.69 91.28C244.903 88.1533 246.583 85.4933 248.73 83.3C250.923 81.06 253.536 79.3567 256.57 78.19C259.65 76.9767 263.056 76.37 266.79 76.37C270.523 76.37 273.906 76.9767 276.94 78.19C280.02 79.3567 282.633 81.06 284.78 83.3C286.973 85.4933 288.653 88.1533 289.82 91.28C291.033 94.36 291.64 97.8133 291.64 101.64C291.64 106.307 290.776 110.437 289.05 114.03C287.323 117.577 284.92 120.447 281.84 122.64L292.69 135.8H273.93L267 126.98H266.79ZM266.79 113.75C269.216 113.75 271.036 112.653 272.25 110.46C273.463 108.267 274.07 105.327 274.07 101.64C274.07 98 273.463 95.0833 272.25 92.89C271.036 90.6967 269.216 89.6 266.79 89.6C264.363 89.6 262.543 90.6967 261.33 92.89C260.116 95.0833 259.51 98 259.51 101.64C259.51 105.327 260.116 108.267 261.33 110.46C262.543 112.653 264.363 113.75 266.79 113.75ZM318.093 126.98C314.546 126.98 311.373 126.537 308.573 125.65C305.773 124.763 303.416 123.503 301.503 121.87C299.59 120.19 298.12 118.183 297.093 115.85C296.113 113.47 295.623 110.81 295.623 107.87V77.35H313.193V108.64C313.193 110.273 313.636 111.533 314.523 112.42C315.41 113.307 316.6 113.75 318.093 113.75C319.586 113.75 320.776 113.307 321.663 112.42C322.55 111.533 322.993 110.273 322.993 108.64V77.35H340.563V107.87C340.563 110.81 340.05 113.47 339.023 115.85C338.043 118.183 336.596 120.19 334.683 121.87C332.77 123.503 330.413 124.763 327.613 125.65C324.86 126.537 321.686 126.98 318.093 126.98ZM345.137 77.35H362.707V126H345.137V77.35ZM366.108 126L382.488 90.3H366.668V77.35H406.778L390.398 113.05H406.498V126H366.108Z" fill="#FEC256"/>
</svg>
