<svg width="464" height="145" viewBox="0 0 464 145" fill="none" xmlns="http://www.w3.org/2000/svg">
<path d="M0.12 1.4H50.2V16.2H35.24V57H15.16V16.2H0.12V1.4ZM86.0619 35.8H74.6219V57H54.5419V1.4H74.6219V21.32H86.0619V1.4H106.142V57H86.0619V35.8ZM111.592 1.4H131.672V57H111.592V1.4ZM156.919 58.12C154.359 58.12 151.959 57.9333 149.719 57.56C147.533 57.24 145.586 56.84 143.879 56.36C142.173 55.88 140.733 55.4 139.559 54.92C138.386 54.3867 137.533 53.96 136.999 53.64V40.28C139.079 41.1333 141.506 41.9067 144.279 42.6C147.106 43.2933 150.279 43.64 153.799 43.64C156.466 43.64 158.279 43.32 159.239 42.68C160.199 41.9867 160.679 41.0533 160.679 39.88C160.679 38.8667 160.306 38.0933 159.559 37.56C158.866 37.0267 157.746 36.5467 156.199 36.12L154.919 35.8C152.199 35.1067 149.666 34.3067 147.319 33.4C145.026 32.4933 143.026 31.3733 141.319 30.04C139.666 28.6533 138.359 27 137.399 25.08C136.493 23.16 136.039 20.84 136.039 18.12C136.039 15.56 136.519 13.2133 137.479 11.08C138.493 8.89333 139.933 7 141.799 5.4C143.666 3.8 145.959 2.54667 148.679 1.64C151.399 0.73333 154.493 0.279996 157.959 0.279996C160.199 0.279996 162.279 0.413329 164.199 0.679996C166.173 0.893329 167.933 1.18666 169.479 1.56C171.079 1.93333 172.466 2.33333 173.639 2.76C174.866 3.18666 175.826 3.58666 176.519 3.96V17.16C174.759 16.5733 172.626 16.04 170.119 15.56C167.613 15.0267 164.839 14.76 161.799 14.76C159.559 14.76 157.986 15.0267 157.079 15.56C156.226 16.04 155.799 16.76 155.799 17.72C155.799 18.6267 156.146 19.32 156.839 19.8C157.533 20.2267 158.679 20.6533 160.279 21.08L161.479 21.4C164.253 22.0933 166.786 22.8933 169.079 23.8C171.373 24.7067 173.346 25.8267 174.999 27.16C176.706 28.44 178.013 30.04 178.919 31.96C179.879 33.88 180.359 36.2 180.359 38.92C180.359 41.7467 179.853 44.36 178.839 46.76C177.826 49.1067 176.333 51.1333 174.359 52.84C172.386 54.4933 169.933 55.8 166.999 56.76C164.066 57.6667 160.706 58.12 156.919 58.12ZM196.804 1.4H216.884V57H196.804V1.4ZM242.132 58.12C239.572 58.12 237.172 57.9333 234.932 57.56C232.745 57.24 230.799 56.84 229.092 56.36C227.385 55.88 225.945 55.4 224.772 54.92C223.599 54.3867 222.745 53.96 222.212 53.64V40.28C224.292 41.1333 226.719 41.9067 229.492 42.6C232.319 43.2933 235.492 43.64 239.012 43.64C241.679 43.64 243.492 43.32 244.452 42.68C245.412 41.9867 245.892 41.0533 245.892 39.88C245.892 38.8667 245.519 38.0933 244.772 37.56C244.079 37.0267 242.959 36.5467 241.412 36.12L240.132 35.8C237.412 35.1067 234.879 34.3067 232.532 33.4C230.239 32.4933 228.239 31.3733 226.532 30.04C224.879 28.6533 223.572 27 222.612 25.08C221.705 23.16 221.252 20.84 221.252 18.12C221.252 15.56 221.732 13.2133 222.692 11.08C223.705 8.89333 225.145 7 227.012 5.4C228.879 3.8 231.172 2.54667 233.892 1.64C236.612 0.73333 239.705 0.279996 243.172 0.279996C245.412 0.279996 247.492 0.413329 249.412 0.679996C251.385 0.893329 253.145 1.18666 254.692 1.56C256.292 1.93333 257.679 2.33333 258.852 2.76C260.079 3.18666 261.039 3.58666 261.732 3.96V17.16C259.972 16.5733 257.839 16.04 255.332 15.56C252.825 15.0267 250.052 14.76 247.012 14.76C244.772 14.76 243.199 15.0267 242.292 15.56C241.439 16.04 241.012 16.76 241.012 17.72C241.012 18.6267 241.359 19.32 242.052 19.8C242.745 20.2267 243.892 20.6533 245.492 21.08L246.692 21.4C249.465 22.0933 251.999 22.8933 254.292 23.8C256.585 24.7067 258.559 25.8267 260.212 27.16C261.919 28.44 263.225 30.04 264.132 31.96C265.092 33.88 265.572 36.2 265.572 38.92C265.572 41.7467 265.065 44.36 264.052 46.76C263.039 49.1067 261.545 51.1333 259.572 52.84C257.599 54.4933 255.145 55.8 252.212 56.76C249.279 57.6667 245.919 58.12 242.132 58.12ZM290.817 1.4H325.937L336.337 57H315.857L314.257 46.44H302.097L300.577 57H280.337L290.817 1.4ZM304.177 32.52H312.257L308.177 5L304.177 32.52ZM21.16 134.12C18.6 134.12 16.2 133.933 13.96 133.56C11.7733 133.24 9.82667 132.84 8.12 132.36C6.41333 131.88 4.97333 131.4 3.8 130.92C2.62667 130.387 1.77333 129.96 1.24 129.64V116.28C3.32 117.133 5.74667 117.907 8.52 118.6C11.3467 119.293 14.52 119.64 18.04 119.64C20.7067 119.64 22.52 119.32 23.48 118.68C24.44 117.987 24.92 117.053 24.92 115.88C24.92 114.867 24.5467 114.093 23.8 113.56C23.1067 113.027 21.9867 112.547 20.44 112.12L19.16 111.8C16.44 111.107 13.9067 110.307 11.56 109.4C9.26667 108.493 7.26667 107.373 5.56 106.04C3.90667 104.653 2.6 103 1.64 101.08C0.733333 99.16 0.28 96.84 0.28 94.12C0.28 91.56 0.76 89.2133 1.72 87.08C2.73333 84.8933 4.17333 83 6.04 81.4C7.90667 79.8 10.2 78.5467 12.92 77.64C15.64 76.7333 18.7333 76.28 22.2 76.28C24.44 76.28 26.52 76.4133 28.44 76.68C30.4133 76.8933 32.1733 77.1867 33.72 77.56C35.32 77.9333 36.7067 78.3333 37.88 78.76C39.1067 79.1867 40.0667 79.5867 40.76 79.96V93.16C39 92.5733 36.8667 92.04 34.36 91.56C31.8533 91.0267 29.08 90.76 26.04 90.76C23.8 90.76 22.2267 91.0267 21.32 91.56C20.4667 92.04 20.04 92.76 20.04 93.72C20.04 94.6267 20.3867 95.32 21.08 95.8C21.7733 96.2267 22.92 96.6533 24.52 97.08L25.72 97.4C28.4933 98.0933 31.0267 98.8933 33.32 99.8C35.6133 100.707 37.5867 101.827 39.24 103.16C40.9467 104.44 42.2533 106.04 43.16 107.96C44.12 109.88 44.6 112.2 44.6 114.92C44.6 117.747 44.0933 120.36 43.08 122.76C42.0667 125.107 40.5733 127.133 38.6 128.84C36.6267 130.493 34.1733 131.8 31.24 132.76C28.3067 133.667 24.9467 134.12 21.16 134.12ZM49.3856 77.4H89.2256V91.64H69.4656V98.2H86.6656V110.92H69.4656V118.76H89.8656V133H49.3856V77.4ZM92.5681 133L105.288 104.12L93.0481 77.4H113.608L119.848 93L124.968 77.4H145.208L132.968 105.4L145.688 133H125.208L118.488 116.28L112.808 133H92.5681ZM160.926 77.4H200.766V91.64H181.006V98.2H198.206V110.92H181.006V118.76H201.406V133H160.926V77.4ZM205.789 77.4H229.629C234.695 77.4 239.095 78.04 242.829 79.32C246.562 80.6 249.655 82.44 252.109 84.84C254.615 87.1867 256.455 90.0933 257.629 93.56C258.855 96.9733 259.469 100.84 259.469 105.16C259.469 109.48 258.855 113.373 257.629 116.84C256.455 120.253 254.615 123.16 252.109 125.56C249.655 127.96 246.562 129.8 242.829 131.08C239.095 132.36 234.695 133 229.629 133H205.789V77.4ZM229.149 118.2C232.455 118.2 234.962 117.213 236.669 115.24C238.429 113.267 239.309 109.907 239.309 105.16C239.309 100.413 238.429 97.08 236.669 95.16C234.962 93.1867 232.455 92.2 229.149 92.2H225.869V118.2H229.149ZM303.903 134.12C299.636 134.12 295.743 133.427 292.223 132.04C288.756 130.653 285.769 128.707 283.263 126.2C280.809 123.693 278.889 120.653 277.503 117.08C276.169 113.507 275.503 109.533 275.503 105.16C275.503 100.787 276.169 96.84 277.503 93.32C278.889 89.7467 280.809 86.7067 283.263 84.2C285.769 81.64 288.756 79.6933 292.223 78.36C295.743 76.9733 299.636 76.28 303.903 76.28C308.169 76.28 312.036 76.9733 315.503 78.36C319.023 79.6933 322.009 81.64 324.463 84.2C326.969 86.7067 328.889 89.7467 330.223 93.32C331.609 96.84 332.303 100.787 332.303 105.16C332.303 110.493 331.316 115.213 329.343 119.32C327.369 123.373 324.623 126.653 321.103 129.16L333.503 144.2H312.063L304.143 134.12H303.903ZM303.903 119C306.676 119 308.756 117.747 310.143 115.24C311.529 112.733 312.223 109.373 312.223 105.16C312.223 101 311.529 97.6667 310.143 95.16C308.756 92.6533 306.676 91.4 303.903 91.4C301.129 91.4 299.049 92.6533 297.663 95.16C296.276 97.6667 295.583 101 295.583 105.16C295.583 109.373 296.276 112.733 297.663 115.24C299.049 117.747 301.129 119 303.903 119ZM362.535 134.12C358.482 134.12 354.855 133.613 351.655 132.6C348.455 131.587 345.762 130.147 343.575 128.28C341.388 126.36 339.708 124.067 338.535 121.4C337.415 118.68 336.855 115.64 336.855 112.28V77.4H356.935V113.16C356.935 115.027 357.442 116.467 358.455 117.48C359.468 118.493 360.828 119 362.535 119C364.242 119 365.602 118.493 366.615 117.48C367.628 116.467 368.135 115.027 368.135 113.16V77.4H388.215V112.28C388.215 115.64 387.628 118.68 386.455 121.4C385.335 124.067 383.682 126.36 381.495 128.28C379.308 130.147 376.615 131.587 373.415 132.6C370.268 133.613 366.642 134.12 362.535 134.12ZM393.442 77.4H413.522V133H393.442V77.4ZM417.409 133L436.129 92.2H418.049V77.4H463.889L445.169 118.2H463.569V133H417.409Z" fill="#FEC256"/>
</svg>
