<svg width="643" height="211" viewBox="0 0 643 211" fill="none" xmlns="http://www.w3.org/2000/svg">
<path d="M2.32 1.4H22.4V42.2H40.48V57H2.32V1.4ZM44.6825 1.4H84.5225V15.64H64.7625V22.2H81.9625V34.92H64.7625V42.76H85.1625V57H44.6825V1.4ZM88.345 1.4H138.425V16.2H123.465V57H103.385V16.2H88.345V1.4ZM164.886 1.4H214.966V16.2H200.006V57H179.926V16.2H164.886V1.4ZM250.828 35.8H239.388V57H219.308V1.4H239.388V21.32H250.828V1.4H270.908V57H250.828V35.8ZM285.158 1.4H320.278L330.678 57H310.198L308.598 46.44H296.438L294.918 57H274.678L285.158 1.4ZM298.518 32.52H306.598L302.518 5L298.518 32.52ZM326.817 1.4H376.897V16.2H361.937V57H341.857V16.2H326.817V1.4ZM404.557 1.4H431.357C438.824 1.4 444.371 2.6 447.997 5C451.677 7.34667 453.517 10.5733 453.517 14.68C453.517 18.3067 452.371 21.1067 450.077 23.08C447.784 25 444.664 26.36 440.717 27.16C442.797 27.48 444.717 27.96 446.477 28.6C448.291 29.24 449.837 30.0933 451.117 31.16C452.397 32.2267 453.384 33.5067 454.077 35C454.824 36.4933 455.197 38.2267 455.197 40.2C455.197 42.5467 454.744 44.76 453.837 46.84C452.984 48.8667 451.571 50.6533 449.597 52.2C447.677 53.6933 445.171 54.8667 442.077 55.72C439.037 56.5733 435.304 57 430.877 57H404.557V1.4ZM424.637 15.24V24.04H429.357C430.904 24.04 432.077 23.6667 432.877 22.92C433.677 22.12 434.077 21.0267 434.077 19.64C434.077 18.2533 433.677 17.1867 432.877 16.44C432.077 15.64 430.904 15.24 429.357 15.24H424.637ZM424.637 33.24V43.16H429.757C431.464 43.16 432.771 42.7333 433.677 41.88C434.637 40.9733 435.117 39.7467 435.117 38.2C435.117 36.6533 434.637 35.4533 433.677 34.6C432.771 33.6933 431.464 33.24 429.757 33.24H424.637ZM459.576 1.4H479.656V57H459.576V1.4ZM514.911 58.12C510.111 58.12 505.791 57.4533 501.951 56.12C498.165 54.7333 494.965 52.8133 492.351 50.36C489.738 47.8533 487.738 44.8667 486.351 41.4C484.965 37.88 484.271 33.9867 484.271 29.72C484.271 25.4 484.965 21.4533 486.351 17.88C487.791 14.2533 489.818 11.1333 492.431 8.52C495.045 5.90666 498.218 3.88 501.951 2.44C505.685 0.999996 509.898 0.279996 514.591 0.279996C517.098 0.279996 519.391 0.439997 521.471 0.759999C523.605 1.02667 525.471 1.37333 527.071 1.8C528.671 2.22666 530.031 2.68 531.151 3.16C532.271 3.58666 533.098 3.96 533.631 4.28V18.28C532.725 17.7467 531.098 17.1333 528.751 16.44C526.405 15.7467 523.471 15.4 519.951 15.4C514.778 15.4 510.885 16.7333 508.271 19.4C505.658 22.0667 504.351 25.6933 504.351 30.28C504.351 32.4667 504.645 34.36 505.231 35.96C505.818 37.56 506.591 38.8933 507.551 39.96C508.565 40.9733 509.711 41.7467 510.991 42.28C512.325 42.76 513.685 43 515.071 43H516.031V28.6H534.031V54.12C533.285 54.44 532.325 54.84 531.151 55.32C530.031 55.7467 528.671 56.1733 527.071 56.6C525.525 57.0267 523.738 57.3733 521.711 57.64C519.685 57.96 517.418 58.12 514.911 58.12ZM0.64 77.4H21.12L28.72 129.4L36.4 77.4H56.64L46.24 133H11.12L0.64 77.4ZM62.2325 77.4H97.3525L107.752 133H87.2725L85.6725 122.44H73.5125L71.9925 133H51.7525L62.2325 77.4ZM75.5925 108.52H83.6725L79.5925 81L75.5925 108.52ZM138.455 134.12C133.655 134.12 129.335 133.453 125.495 132.12C121.708 130.733 118.508 128.813 115.895 126.36C113.282 123.853 111.282 120.867 109.895 117.4C108.508 113.88 107.815 109.987 107.815 105.72C107.815 101.4 108.508 97.4533 109.895 93.88C111.335 90.2533 113.362 87.1333 115.975 84.52C118.588 81.9067 121.762 79.88 125.495 78.44C129.228 77 133.442 76.28 138.135 76.28C140.642 76.28 142.935 76.44 145.015 76.76C147.148 77.0267 149.015 77.3733 150.615 77.8C152.215 78.2267 153.575 78.68 154.695 79.16C155.815 79.5867 156.642 79.96 157.175 80.28V94.28C156.268 93.7467 154.642 93.1333 152.295 92.44C149.948 91.7467 147.015 91.4 143.495 91.4C138.322 91.4 134.428 92.7333 131.815 95.4C129.202 98.0667 127.895 101.693 127.895 106.28C127.895 108.467 128.188 110.36 128.775 111.96C129.362 113.56 130.135 114.893 131.095 115.96C132.108 116.973 133.255 117.747 134.535 118.28C135.868 118.76 137.228 119 138.615 119H139.575V104.6H157.575V130.12C156.828 130.44 155.868 130.84 154.695 131.32C153.575 131.747 152.215 132.173 150.615 132.6C149.068 133.027 147.282 133.373 145.255 133.64C143.228 133.96 140.962 134.12 138.455 134.12ZM162.611 77.4H182.691V133H162.611V77.4ZM188.098 77.4H219.378L228.018 129.48L225.458 77.4H244.498V133H213.298L204.658 80.92L207.138 133H188.098V77.4ZM258.714 77.4H293.834L304.234 133H283.754L282.154 122.44H269.994L268.474 133H248.234L258.714 77.4ZM272.074 108.52H280.154L276.074 81L272.074 108.52ZM331.298 77.4H371.138V91.64H351.378V98.2H368.578V110.92H351.378V118.76H371.778V133H331.298V77.4ZM376.161 77.4H407.441L416.081 129.48L413.521 77.4H432.561V133H401.361L392.721 80.92L395.201 133H376.161V77.4ZM437.976 77.4H477.816V91.64H458.056V98.2H475.256V110.92H458.056V118.76H478.456V133H437.976V77.4ZM502.919 111.96V133H482.839V77.4H508.279C516.385 77.4 522.519 78.8933 526.679 81.88C530.892 84.8133 532.999 89.16 532.999 94.92C532.999 102.333 529.319 107.32 521.959 109.88L535.879 133H514.679L502.919 111.96ZM502.919 91.64V102.6H507.319C509.292 102.6 510.785 102.12 511.799 101.16C512.865 100.2 513.399 98.8667 513.399 97.16C513.399 95.4 512.865 94.04 511.799 93.08C510.785 92.12 509.292 91.64 507.319 91.64H502.919ZM566.767 134.12C561.967 134.12 557.647 133.453 553.807 132.12C550.021 130.733 546.821 128.813 544.207 126.36C541.594 123.853 539.594 120.867 538.207 117.4C536.821 113.88 536.127 109.987 536.127 105.72C536.127 101.4 536.821 97.4533 538.207 93.88C539.647 90.2533 541.674 87.1333 544.287 84.52C546.901 81.9067 550.074 79.88 553.807 78.44C557.541 77 561.754 76.28 566.447 76.28C568.954 76.28 571.247 76.44 573.327 76.76C575.461 77.0267 577.327 77.3733 578.927 77.8C580.527 78.2267 581.887 78.68 583.007 79.16C584.127 79.5867 584.954 79.96 585.487 80.28V94.28C584.581 93.7467 582.954 93.1333 580.607 92.44C578.261 91.7467 575.327 91.4 571.807 91.4C566.634 91.4 562.741 92.7333 560.127 95.4C557.514 98.0667 556.207 101.693 556.207 106.28C556.207 108.467 556.501 110.36 557.087 111.96C557.674 113.56 558.447 114.893 559.407 115.96C560.421 116.973 561.567 117.747 562.847 118.28C564.181 118.76 565.541 119 566.927 119H567.887V104.6H585.887V130.12C585.141 130.44 584.181 130.84 583.007 131.32C581.887 131.747 580.527 132.173 578.927 132.6C577.381 133.027 575.594 133.373 573.567 133.64C571.541 133.96 569.274 134.12 566.767 134.12ZM605.355 112.2L587.915 77.4H608.315L615.515 94.6L622.635 77.4H642.795L625.435 112.2V133H605.355V112.2ZM22.16 210.12C19.6 210.12 17.2 209.933 14.96 209.56C12.7733 209.24 10.8267 208.84 9.12 208.36C7.41333 207.88 5.97333 207.4 4.8 206.92C3.62667 206.387 2.77333 205.96 2.24 205.64V192.28C4.32 193.133 6.74667 193.907 9.52 194.6C12.3467 195.293 15.52 195.64 19.04 195.64C21.7067 195.64 23.52 195.32 24.48 194.68C25.44 193.987 25.92 193.053 25.92 191.88C25.92 190.867 25.5467 190.093 24.8 189.56C24.1067 189.027 22.9867 188.547 21.44 188.12L20.16 187.8C17.44 187.107 14.9067 186.307 12.56 185.4C10.2667 184.493 8.26667 183.373 6.56 182.04C4.90667 180.653 3.6 179 2.64 177.08C1.73333 175.16 1.28 172.84 1.28 170.12C1.28 167.56 1.76 165.213 2.72 163.08C3.73333 160.893 5.17333 159 7.04 157.4C8.90667 155.8 11.2 154.547 13.92 153.64C16.64 152.733 19.7333 152.28 23.2 152.28C25.44 152.28 27.52 152.413 29.44 152.68C31.4133 152.893 33.1733 153.187 34.72 153.56C36.32 153.933 37.7067 154.333 38.88 154.76C40.1067 155.187 41.0667 155.587 41.76 155.96V169.16C40 168.573 37.8667 168.04 35.36 167.56C32.8533 167.027 30.08 166.76 27.04 166.76C24.8 166.76 23.2267 167.027 22.32 167.56C21.4667 168.04 21.04 168.76 21.04 169.72C21.04 170.627 21.3867 171.32 22.08 171.8C22.7733 172.227 23.92 172.653 25.52 173.08L26.72 173.4C29.4933 174.093 32.0267 174.893 34.32 175.8C36.6133 176.707 38.5867 177.827 40.24 179.16C41.9467 180.44 43.2533 182.04 44.16 183.96C45.12 185.88 45.6 188.2 45.6 190.92C45.6 193.747 45.0933 196.36 44.08 198.76C43.0667 201.107 41.5733 203.133 39.6 204.84C37.6267 206.493 35.1733 207.8 32.24 208.76C29.3067 209.667 25.9467 210.12 22.16 210.12ZM81.9056 187.8H70.4656V209H50.3856V153.4H70.4656V173.32H81.9056V153.4H101.986V209H81.9056V187.8ZM107.436 153.4H127.516V209H107.436V153.4ZM132.923 153.4H164.203L172.843 205.48L170.283 153.4H189.323V209H158.123L149.483 156.92L151.963 209H132.923V153.4ZM194.739 153.4H234.579V167.64H214.819V174.2H232.019V186.92H214.819V194.76H235.219V209H194.739V153.4Z" fill="#AF1685"/>
</svg>
