<svg width="323" height="119" viewBox="0 0 323 119" fill="none" xmlns="http://www.w3.org/2000/svg">
<path d="M1.305 0.724998H12.6V23.675H22.77V32H1.305V0.724998ZM25.1339 0.724998H47.5439V8.735H36.4289V12.425H46.1039V19.58H36.4289V23.99H47.9039V32H25.1339V0.724998ZM49.6941 0.724998H77.8641V9.05H69.4491V32H58.1541V9.05H49.6941V0.724998ZM92.7482 0.724998H120.918V9.05H112.503V32H101.208V9.05H92.7482V0.724998ZM141.09 20.075H134.655V32H123.36V0.724998H134.655V11.93H141.09V0.724998H152.385V32H141.09V20.075ZM160.401 0.724998H180.156L186.006 32H174.486L173.586 26.06H166.746L165.891 32H154.506L160.401 0.724998ZM167.916 18.23H172.461L170.166 2.75L167.916 18.23ZM183.834 0.724998H212.005V9.05H203.589V32H192.294V9.05H183.834V0.724998ZM227.564 0.724998H242.639C246.839 0.724998 249.959 1.4 251.999 2.75C254.069 4.07 255.104 5.885 255.104 8.195C255.104 10.235 254.459 11.81 253.169 12.92C251.879 14 250.124 14.765 247.904 15.215C249.074 15.395 250.154 15.665 251.144 16.025C252.164 16.385 253.034 16.865 253.754 17.465C254.474 18.065 255.029 18.785 255.419 19.625C255.839 20.465 256.049 21.44 256.049 22.55C256.049 23.87 255.794 25.115 255.284 26.285C254.804 27.425 254.009 28.43 252.899 29.3C251.819 30.14 250.409 30.8 248.669 31.28C246.959 31.76 244.859 32 242.369 32H227.564V0.724998ZM238.859 8.51V13.46H241.514C242.384 13.46 243.044 13.25 243.494 12.83C243.944 12.38 244.169 11.765 244.169 10.985C244.169 10.205 243.944 9.605 243.494 9.185C243.044 8.735 242.384 8.51 241.514 8.51H238.859ZM238.859 18.635V24.215H241.739C242.699 24.215 243.434 23.975 243.944 23.495C244.484 22.985 244.754 22.295 244.754 21.425C244.754 20.555 244.484 19.88 243.944 19.4C243.434 18.89 242.699 18.635 241.739 18.635H238.859ZM258.512 0.724998H269.807V32H258.512V0.724998ZM289.638 32.63C286.938 32.63 284.508 32.255 282.348 31.505C280.218 30.725 278.418 29.645 276.948 28.265C275.478 26.855 274.353 25.175 273.573 23.225C272.793 21.245 272.403 19.055 272.403 16.655C272.403 14.225 272.793 12.005 273.573 9.995C274.383 7.955 275.523 6.2 276.993 4.73C278.463 3.26 280.248 2.12 282.348 1.31C284.448 0.499998 286.818 0.0949977 289.458 0.0949977C290.868 0.0949977 292.158 0.184998 293.328 0.365C294.528 0.514999 295.578 0.709999 296.478 0.949997C297.378 1.19 298.143 1.445 298.773 1.715C299.403 1.955 299.868 2.165 300.168 2.345V10.22C299.658 9.92 298.743 9.575 297.423 9.185C296.103 8.795 294.453 8.6 292.473 8.6C289.563 8.6 287.373 9.35 285.903 10.85C284.433 12.35 283.698 14.39 283.698 16.97C283.698 18.2 283.863 19.265 284.193 20.165C284.523 21.065 284.958 21.815 285.498 22.415C286.068 22.985 286.713 23.42 287.433 23.72C288.183 23.99 288.948 24.125 289.728 24.125H290.268V16.025H300.393V30.38C299.973 30.56 299.433 30.785 298.773 31.055C298.143 31.295 297.378 31.535 296.478 31.775C295.608 32.015 294.603 32.21 293.463 32.36C292.323 32.54 291.048 32.63 289.638 32.63ZM0.36 43.725H11.88L16.155 72.975L20.475 43.725H31.86L26.01 75H6.255L0.36 43.725ZM35.0058 43.725H54.7608L60.6108 75H49.0908L48.1908 69.06H41.3508L40.4958 75H29.1108L35.0058 43.725ZM42.5208 61.23H47.0658L44.7708 45.75L42.5208 61.23ZM77.8809 75.63C75.1809 75.63 72.7509 75.255 70.5909 74.505C68.4609 73.725 66.6609 72.645 65.1909 71.265C63.7209 69.855 62.5959 68.175 61.8159 66.225C61.0359 64.245 60.6459 62.055 60.6459 59.655C60.6459 57.225 61.0359 55.005 61.8159 52.995C62.6259 50.955 63.7659 49.2 65.2359 47.73C66.7059 46.26 68.4909 45.12 70.5909 44.31C72.6909 43.5 75.0609 43.095 77.7009 43.095C79.1109 43.095 80.4009 43.185 81.5709 43.365C82.7709 43.515 83.8209 43.71 84.7209 43.95C85.6209 44.19 86.3859 44.445 87.0159 44.715C87.6459 44.955 88.1109 45.165 88.4109 45.345V53.22C87.9009 52.92 86.9859 52.575 85.6659 52.185C84.3459 51.795 82.6959 51.6 80.7159 51.6C77.8059 51.6 75.6159 52.35 74.1459 53.85C72.6759 55.35 71.9409 57.39 71.9409 59.97C71.9409 61.2 72.1059 62.265 72.4359 63.165C72.7659 64.065 73.2009 64.815 73.7409 65.415C74.3109 65.985 74.9559 66.42 75.6759 66.72C76.4259 66.99 77.1909 67.125 77.9709 67.125H78.5109V59.025H88.6359V73.38C88.2159 73.56 87.6759 73.785 87.0159 74.055C86.3859 74.295 85.6209 74.535 84.7209 74.775C83.8509 75.015 82.8459 75.21 81.7059 75.36C80.5659 75.54 79.2909 75.63 77.8809 75.63ZM91.4685 43.725H102.763V75H91.4685V43.725ZM105.805 43.725H123.4L128.26 73.02L126.82 43.725H137.53V75H119.98L115.12 45.705L116.515 75H105.805V43.725ZM145.526 43.725H165.281L171.131 75H159.611L158.711 69.06H151.871L151.016 75H139.631L145.526 43.725ZM153.041 61.23H157.586L155.291 45.75L153.041 61.23ZM1.305 86.725H23.715V94.735H12.6V98.425H22.275V105.58H12.6V109.99H24.075V118H1.305V86.725ZM26.5402 86.725H44.1352L48.9952 116.02L47.5552 86.725H58.2652V118H40.7152L35.8552 88.705L37.2502 118H26.5402V86.725ZM61.3114 86.725H83.7214V94.735H72.6064V98.425H82.2814V105.58H72.6064V109.99H84.0814V118H61.3114V86.725ZM97.8416 106.165V118H86.5466V86.725H100.857C105.417 86.725 108.867 87.565 111.207 89.245C113.577 90.895 114.762 93.34 114.762 96.58C114.762 100.75 112.692 103.555 108.552 104.995L116.382 118H104.457L97.8416 106.165ZM97.8416 94.735V100.9H100.317C101.427 100.9 102.267 100.63 102.837 100.09C103.437 99.55 103.737 98.8 103.737 97.84C103.737 96.85 103.437 96.085 102.837 95.545C102.267 95.005 101.427 94.735 100.317 94.735H97.8416ZM133.757 118.63C131.057 118.63 128.627 118.255 126.467 117.505C124.337 116.725 122.537 115.645 121.067 114.265C119.597 112.855 118.472 111.175 117.692 109.225C116.912 107.245 116.522 105.055 116.522 102.655C116.522 100.225 116.912 98.005 117.692 95.995C118.502 93.955 119.642 92.2 121.112 90.73C122.582 89.26 124.367 88.12 126.467 87.31C128.567 86.5 130.937 86.095 133.577 86.095C134.987 86.095 136.277 86.185 137.447 86.365C138.647 86.515 139.697 86.71 140.597 86.95C141.497 87.19 142.262 87.445 142.892 87.715C143.522 87.955 143.987 88.165 144.287 88.345V96.22C143.777 95.92 142.862 95.575 141.542 95.185C140.222 94.795 138.572 94.6 136.592 94.6C133.682 94.6 131.492 95.35 130.022 96.85C128.552 98.35 127.817 100.39 127.817 102.97C127.817 104.2 127.982 105.265 128.312 106.165C128.642 107.065 129.077 107.815 129.617 108.415C130.187 108.985 130.832 109.42 131.552 109.72C132.302 109.99 133.067 110.125 133.847 110.125H134.387V102.025H144.512V116.38C144.092 116.56 143.552 116.785 142.892 117.055C142.262 117.295 141.497 117.535 140.597 117.775C139.727 118.015 138.722 118.21 137.582 118.36C136.442 118.54 135.167 118.63 133.757 118.63ZM155.462 106.3L145.652 86.725H157.127L161.177 96.4L165.182 86.725H176.522L166.757 106.3V118H155.462V106.3ZM202.92 118.63C201.48 118.63 200.13 118.525 198.87 118.315C197.64 118.135 196.545 117.91 195.585 117.64C194.625 117.37 193.815 117.1 193.155 116.83C192.495 116.53 192.015 116.29 191.715 116.11V108.595C192.885 109.075 194.25 109.51 195.81 109.9C197.4 110.29 199.185 110.485 201.165 110.485C202.665 110.485 203.685 110.305 204.225 109.945C204.765 109.555 205.035 109.03 205.035 108.37C205.035 107.8 204.825 107.365 204.405 107.065C204.015 106.765 203.385 106.495 202.515 106.255L201.795 106.075C200.265 105.685 198.84 105.235 197.52 104.725C196.23 104.215 195.105 103.585 194.145 102.835C193.215 102.055 192.48 101.125 191.94 100.045C191.43 98.965 191.175 97.66 191.175 96.13C191.175 94.69 191.445 93.37 191.985 92.17C192.555 90.94 193.365 89.875 194.415 88.975C195.465 88.075 196.755 87.37 198.285 86.86C199.815 86.35 201.555 86.095 203.505 86.095C204.765 86.095 205.935 86.17 207.015 86.32C208.125 86.44 209.115 86.605 209.985 86.815C210.885 87.025 211.665 87.25 212.325 87.49C213.015 87.73 213.555 87.955 213.945 88.165V95.59C212.955 95.26 211.755 94.96 210.345 94.69C208.935 94.39 207.375 94.24 205.665 94.24C204.405 94.24 203.52 94.39 203.01 94.69C202.53 94.96 202.29 95.365 202.29 95.905C202.29 96.415 202.485 96.805 202.875 97.075C203.265 97.315 203.91 97.555 204.81 97.795L205.485 97.975C207.045 98.365 208.47 98.815 209.76 99.325C211.05 99.835 212.16 100.465 213.09 101.215C214.05 101.935 214.785 102.835 215.295 103.915C215.835 104.995 216.105 106.3 216.105 107.83C216.105 109.42 215.82 110.89 215.25 112.24C214.68 113.56 213.84 114.7 212.73 115.66C211.62 116.59 210.24 117.325 208.59 117.865C206.94 118.375 205.05 118.63 202.92 118.63ZM236.527 106.075H230.092V118H218.797V86.725H230.092V97.93H236.527V86.725H247.822V118H236.527V106.075ZM250.888 86.725H262.183V118H250.888V86.725ZM265.225 86.725H282.82L287.68 116.02L286.24 86.725H296.95V118H279.4L274.54 88.705L275.935 118H265.225V86.725ZM299.996 86.725H322.406V94.735H311.291V98.425H320.966V105.58H311.291V109.99H322.766V118H299.996V86.725Z" fill="#AF1685"/>
</svg>
