<svg xmlns="http://www.w3.org/2000/svg" fill="none" viewBox="0 0 84 80" height="80" width="84">
<path fill="#FFF312" d="M0 0H84V75C84 77.7614 81.7614 80 79 80H5C2.23858 80 0 77.7614 0 75V0Z"></path>
<path fill="#FF3F12" d="M18.1187 65V51H20.9587L27.5187 59.62V51H30.5587V65H27.9387L21.1587 56.1V65H18.1187Z"></path>
<path fill="#FF3F12" d="M34.1194 65V51H44.6794V53.74H37.1794V56.58H43.7794V59.32H37.1794V62.26H44.7794V65H34.1194Z"></path>
<path fill="#FF3F12" d="M51.4179 65.1L46.6379 51H49.9379L52.8379 60.48L55.9779 50.96H58.6179L61.7579 60.48L64.6579 51H67.8779L63.0979 65.1H60.4179L57.2579 55.94L54.0979 65.1H51.4179Z"></path>
</svg>