<svg xmlns="http://www.w3.org/2000/svg" fill="none" viewBox="0 0 92 96" height="96" width="92">
<mask height="96" width="92" y="0" x="0" maskUnits="userSpaceOnUse" style="mask-type:luminance" id="mask0_1519_134">
<path fill="white" d="M91.46 0H0V95.06H91.46V0Z"></path>
</mask>
<g mask="url(#mask0_1519_134)">
<path fill="#BB52D5" d="M87.69 44.89L82.24 41.02C80.02 39.44 78.33 36.98 77.32 34.35C76.31 31.72 75.91 28.74 76.47 26.06L77.86 19.37C78.25 17.5 77.81 16.27 77.18 15.6C76.56 14.94 75.43 14.47 73.67 14.82L67.19 16.08C64.55 16.6 61.67 16.09 59.15 14.97C56.63 13.84 54.3 12.02 52.84 9.68997L49.26 3.92997C48.28 2.34997 47.17 1.82997 46.3 1.81997C45.42 1.80997 44.27 2.30997 43.23 3.88997L43.14 4.16997L39.61 9.53997C38.11 11.82 35.75 13.57 33.21 14.62C30.67 15.67 27.78 16.09 25.15 15.51L18.71 14.07C16.97 13.68 15.81 14.11 15.15 14.78C14.48 15.46 14.02 16.7 14.36 18.56L15.59 25.29C16.08 28 15.61 30.96 14.54 33.55C13.47 36.14 11.73 38.55 9.48001 40.05L3.94001 43.77C2.42001 44.79 1.87001 45.98 1.86001 46.97C1.85001 47.95 2.36001 49.13 3.83001 50.18L9.28001 54.05C11.5 55.63 13.19 58.09 14.2 60.72C15.21 63.35 15.61 66.33 15.05 69.01L13.66 75.72C13.27 77.59 13.71 78.82 14.34 79.49C14.95 80.15 16.09 80.62 17.85 80.27V80.25L24.24 79.01C26.88 78.49 29.76 78.99 32.28 80.12C34.8 81.24 37.14 83.07 38.59 85.41L42.17 91.17C43.15 92.75 44.26 93.27 45.13 93.28C46.01 93.29 47.16 92.79 48.2 91.21L51.92 85.55C53.42 83.27 55.78 81.52 58.32 80.47C60.86 79.42 63.75 79 66.38 79.58L72.82 81.02C74.56 81.41 75.72 80.98 76.38 80.31C77.05 79.63 77.51 78.39 77.17 76.53L75.94 69.8C75.45 67.09 75.92 64.13 76.99 61.54C78.06 58.95 79.8 56.54 82.05 55.04L87.59 51.32C89.11 50.3 89.66 49.11 89.67 48.12C89.68 47.14 89.17 45.96 87.7 44.91L87.69 44.89Z"></path>
<path fill="#C1EFEC" d="M45.1202 95.06C45.1202 95.06 45.0802 95.06 45.0702 95.06C44.0802 95.05 42.1802 94.65 40.6002 92.1L37.0202 86.34C35.8402 84.43 33.8802 82.8 31.5102 81.75C29.1502 80.7 26.6802 80.35 24.5502 80.77L18.1602 82.03C15.2702 82.59 13.6802 81.45 12.9902 80.71C12.3002 79.98 11.2402 78.31 11.8602 75.34L13.2502 68.63C13.7102 66.42 13.4302 63.83 12.4802 61.35C11.5202 58.86 10.0102 56.78 8.20021 55.51L2.75021 51.64C0.330209 49.92 -0.00979051 47.95 0.000209492 46.93C0.0102095 45.9 0.40021 43.92 2.88021 42.26L8.42021 38.54C10.2402 37.32 11.8002 35.3 12.8202 32.85C13.8302 30.41 14.1702 27.84 13.7702 25.63L12.5402 18.87C12.0002 15.87 13.1102 14.22 13.8302 13.49C14.5302 12.78 16.1002 11.7 18.8602 12.24H19.4202L19.5802 12.4L25.5202 13.73C27.6402 14.2 30.1202 13.92 32.5002 12.94C34.8802 11.95 36.8602 10.39 38.0902 8.53L41.5102 3.3L42.1402 1.42L42.6902 1.66C44.0902 0.22 45.5402 0.01 46.3202 0C47.3102 0.01 49.2102 0.42 50.7902 2.97L54.3702 8.73C55.5602 10.63 57.5102 12.26 59.8802 13.32C62.2402 14.37 64.7102 14.73 66.8402 14.31L73.3202 13.05C76.2102 12.49 77.8002 13.63 78.4902 14.37C79.1802 15.1 80.2402 16.77 79.6202 19.74L78.2302 26.44C77.7702 28.65 78.0502 31.24 79.0002 33.72C79.9602 36.21 81.4702 38.29 83.2802 39.56L88.7302 43.43C91.1402 45.14 91.4802 47.11 91.4602 48.13C91.4502 49.16 91.0602 51.14 88.5802 52.8L83.0402 56.52C81.2202 57.74 79.6602 59.76 78.6502 62.21C77.6402 64.66 77.3002 67.24 77.7002 69.46L78.9302 76.19C79.4702 79.19 78.3602 80.85 77.6402 81.57C76.9202 82.3 75.2902 83.42 72.4002 82.77L65.9502 81.33C63.8302 80.86 61.3502 81.14 58.9702 82.12C56.5902 83.1 54.6102 84.67 53.3802 86.53L49.6602 92.19C48.0202 94.68 46.1302 95.07 45.1102 95.07L45.1202 95.06ZM43.6902 90.24C44.2502 91.13 44.8102 91.45 45.1202 91.46C45.4502 91.46 46.0402 91.13 46.6502 90.21L50.3702 84.55C51.9902 82.09 54.5502 80.05 57.5902 78.79C60.6502 77.52 63.8902 77.18 66.7302 77.81L73.1802 79.25C74.0502 79.44 74.7402 79.37 75.0602 79.03C75.3402 78.74 75.5702 78.01 75.3602 76.83L74.1302 70.1C73.6002 67.2 74.0202 63.91 75.2902 60.82C76.5702 57.72 78.6002 55.12 81.0102 53.51L86.5502 49.79C87.7002 49.02 87.8302 48.33 87.8402 48.07C87.8402 47.53 87.4002 46.91 86.6302 46.35L81.1802 42.48C78.8002 40.79 76.8302 38.13 75.6202 34.99C74.4202 31.87 74.0902 28.56 74.6802 25.68L76.0702 18.98C76.3102 17.82 76.1102 17.1 75.8402 16.81C75.5402 16.49 74.8502 16.4 73.9902 16.56L67.5102 17.82C64.6602 18.38 61.4202 17.94 58.3902 16.58C55.4002 15.25 52.9002 13.15 51.3302 10.68L51.2802 10.61L47.7002 4.85C47.1202 3.92 46.5502 3.59 46.2402 3.59C45.9302 3.57 45.3902 3.87 44.8202 4.68L44.7402 4.93L41.0802 10.49C39.4602 12.95 36.9002 14.99 33.8602 16.25C30.8002 17.52 27.5602 17.87 24.7202 17.23L18.2502 15.78C17.3902 15.59 16.7102 15.67 16.3802 16C16.1002 16.29 15.8702 17.02 16.0802 18.19L17.3102 24.92C17.8302 27.81 17.4202 31.11 16.1502 34.19C14.8702 37.29 12.8402 39.89 10.4302 41.5L4.83021 45.26C3.73021 46.01 3.60021 46.69 3.60021 46.94C3.60021 47.48 4.04021 48.1 4.81021 48.65L10.2602 52.52C12.6402 54.21 14.6102 56.87 15.8202 60.01C17.0202 63.13 17.3502 66.44 16.7602 69.32L15.3702 76.03C15.1302 77.19 15.3302 77.91 15.6002 78.2C15.8602 78.48 16.4202 78.59 17.1202 78.5L17.4602 78.43L23.8402 77.19C26.6902 76.63 29.9302 77.07 32.9602 78.42C35.9802 79.77 38.5102 81.89 40.0702 84.41L43.6802 90.21L43.6902 90.24Z"></path>
<path fill="white" d="M26.5701 53.9301V42.5601H28.8801L34.2101 49.5601V42.5601H36.6801V53.9301H34.5501L29.0501 46.7001V53.9301H26.5801H26.5701Z"></path>
<path fill="white" d="M39.3999 53.9301V42.5601H47.9699V44.7801H41.8799V47.0901H47.2399V49.3101H41.8799V51.7001H48.0499V53.9201H39.3899L39.3999 53.9301Z"></path>
<path fill="white" d="M53.2799 54.01L49.3999 42.56H52.0799L54.4299 50.26L56.9799 42.53H59.1199L61.6699 50.26L64.0199 42.56H66.6299L62.7499 54.01H60.5699L57.9999 46.57L55.4299 54.01H53.2499H53.2799Z"></path>
</g>
</svg>
