<svg xmlns="http://www.w3.org/2000/svg" fill="none" viewBox="0 0 150 40" height="40" width="150">
<path fill="#FFF312" d="M0 0H145C147.761 0 150 2.23858 150 5V35C150 37.7614 147.761 40 145 40H0V0Z"></path>
<path fill="#FF3F12" d="M85.5527 26V13.4H88.1087L94.0127 21.158V13.4H96.7487V26H94.3907L88.2887 17.99V26H85.5527Z"></path>
<path fill="#FF3F12" d="M99.9534 26V13.4H109.457V15.866H102.707V18.422H108.647V20.888H102.707V23.534H109.547V26H99.9534Z"></path>
<path fill="#FF3F12" d="M115.522 26.09L111.22 13.4H114.19L116.8 21.932L119.626 13.364H122.002L124.828 21.932L127.438 13.4H130.336L126.034 26.09H123.622L120.778 17.846L117.934 26.09H115.522Z"></path>
</svg>