<svg xmlns="http://www.w3.org/2000/svg" fill="none" viewBox="0 0 38 38" height="38" width="38">
<circle fill="#46AE2C" r="18.6416" cy="18.6416" cx="18.6416"></circle>
<path fill="white" d="M7.00897 17.6802C5.60867 17.6802 4.56864 16.5994 4.56864 15.2331V15.2195C4.56864 13.8668 5.58827 12.7587 7.04976 12.7587C7.94704 12.7587 8.48405 13.0578 8.92589 13.4929L8.25973 14.261C7.89266 13.9279 7.51879 13.724 7.04296 13.724C6.24084 13.724 5.66305 14.3902 5.66305 15.2059V15.2195C5.66305 16.0352 6.22725 16.7149 7.04296 16.7149C7.58677 16.7149 7.91985 16.4974 8.29372 16.1575L8.95988 16.8305C8.47046 17.3539 7.92665 17.6802 7.00897 17.6802ZM11.8404 17.6802C10.3721 17.6802 9.31845 16.5858 9.31845 15.2331V15.2195C9.31845 13.8668 10.3857 12.7587 11.854 12.7587C13.3222 12.7587 14.3759 13.8532 14.3759 15.2059V15.2195C14.3759 16.5722 13.3086 17.6802 11.8404 17.6802ZM11.854 16.7149C12.6969 16.7149 13.2815 16.0488 13.2815 15.2331V15.2195C13.2815 14.4038 12.6833 13.724 11.8404 13.724C10.9975 13.724 10.4129 14.3902 10.4129 15.2059V15.2195C10.4129 16.0352 11.0111 16.7149 11.854 16.7149ZM15.1685 17.5986V12.8403H16.2969L17.5477 14.8524L18.7984 12.8403H19.9268V17.5986H18.8868V14.4921L17.5477 16.5246H17.5205L16.195 14.5125V17.5986H15.1685ZM20.9816 17.5986V12.8403H22.0284V17.5986H20.9816ZM23.0816 17.5986V12.8403H24.0469L26.2765 15.7701V12.8403H27.3097V17.5986H26.4192L24.1149 14.5737V17.5986H23.0816ZM30.6068 17.6802C29.1249 17.6802 28.1053 16.6402 28.1053 15.2331V15.2195C28.1053 13.8668 29.1589 12.7587 30.6 12.7587C31.4565 12.7587 31.9731 12.9899 32.4694 13.4113L31.81 14.2066C31.4429 13.9007 31.1166 13.724 30.566 13.724C29.8047 13.724 29.1997 14.397 29.1997 15.2059V15.2195C29.1997 16.0896 29.7979 16.7285 30.6408 16.7285C31.0215 16.7285 31.3614 16.6334 31.6265 16.443V15.7633H30.5728V14.8592H32.6393V16.9257C32.1499 17.3403 31.4769 17.6802 30.6068 17.6802ZM10.475 25.6666C9.75443 25.6666 9.02709 25.4151 8.45609 24.9053L9.07467 24.1643C9.50292 24.5178 9.95156 24.7421 10.4954 24.7421C10.9236 24.7421 11.1819 24.5722 11.1819 24.2935V24.2799C11.1819 24.0148 11.0188 23.8788 10.2235 23.6749C9.265 23.4302 8.64642 23.1651 8.64642 22.2202V22.2066C8.64642 21.3433 9.33978 20.7723 10.3118 20.7723C11.0052 20.7723 11.5966 20.9899 12.0792 21.3773L11.5354 22.1658C11.1139 21.8736 10.6993 21.6968 10.2982 21.6968C9.89718 21.6968 9.68645 21.8803 9.68645 22.1115V22.1251C9.68645 22.4378 9.89038 22.5397 10.7129 22.7504C11.6782 23.002 12.222 23.3486 12.222 24.1779V24.1915C12.222 25.1364 11.5014 25.6666 10.475 25.6666ZM15.3057 25.6802C13.8374 25.6802 12.7838 24.5858 12.7838 23.2331V23.2195C12.7838 21.8668 13.851 20.7587 15.3193 20.7587C16.7876 20.7587 17.8412 21.8532 17.8412 23.2059V23.2195C17.8412 24.5722 16.774 25.6802 15.3057 25.6802ZM15.3193 24.7149C16.1622 24.7149 16.7468 24.0488 16.7468 23.2331V23.2195C16.7468 22.4038 16.1486 21.724 15.3057 21.724C14.4628 21.724 13.8782 22.3902 13.8782 23.2059V23.2195C13.8782 24.0352 14.4764 24.7149 15.3193 24.7149ZM20.945 25.6802C19.4767 25.6802 18.4231 24.5858 18.4231 23.2331V23.2195C18.4231 21.8668 19.4903 20.7587 20.9586 20.7587C22.4269 20.7587 23.4805 21.8532 23.4805 23.2059V23.2195C23.4805 24.5722 22.4133 25.6802 20.945 25.6802ZM20.9586 24.7149C21.8015 24.7149 22.3861 24.0488 22.3861 23.2331V23.2195C22.3861 22.4038 21.7879 21.724 20.945 21.724C20.1021 21.724 19.5175 22.3902 19.5175 23.2059V23.2195C19.5175 24.0352 20.1157 24.7149 20.9586 24.7149ZM24.2732 25.5986V20.8403H25.2385L27.4681 23.7701V20.8403H28.5013V25.5986H27.6108L25.3064 22.5737V25.5986H24.2732Z"></path>
</svg>
