<svg width="1141" height="59" viewBox="0 0 1141 59" fill="none" xmlns="http://www.w3.org/2000/svg">
<path d="M0.484063 1.73325H20.5641V42.5333H38.6441V57.3333H0.484063V1.73325ZM42.0466 1.73325H81.8866V15.9733H62.1266V22.5332H79.3266V35.2533H62.1266V43.0933H82.5266V57.3333H42.0466V1.73325ZM84.9091 1.73325H134.989V16.5332H120.029V57.3333H99.9491V16.5332H84.9091V1.73325ZM146.531 20.0533H138.451V1.73325H156.851V20.0533L147.811 31.5732H137.571L146.531 20.0533ZM181.574 58.4533C179.014 58.4533 176.614 58.2666 174.374 57.8933C172.187 57.5733 170.241 57.1733 168.534 56.6933C166.827 56.2133 165.387 55.7333 164.214 55.2533C163.041 54.7199 162.187 54.2933 161.654 53.9733V40.6133C163.734 41.4666 166.161 42.2399 168.934 42.9333C171.761 43.6266 174.934 43.9733 178.454 43.9733C181.121 43.9733 182.934 43.6533 183.894 43.0133C184.854 42.3199 185.334 41.3866 185.334 40.2133C185.334 39.1999 184.961 38.4266 184.214 37.8933C183.521 37.3599 182.401 36.8799 180.854 36.4533L179.574 36.1333C176.854 35.4399 174.321 34.6399 171.974 33.7333C169.681 32.8266 167.681 31.7066 165.974 30.3733C164.321 28.9866 163.014 27.3333 162.054 25.4133C161.147 23.4932 160.694 21.1732 160.694 18.4532C160.694 15.8932 161.174 13.5466 162.134 11.4133C163.147 9.22658 164.587 7.33325 166.454 5.73325C168.321 4.13325 170.614 2.87992 173.334 1.97325C176.054 1.06658 179.147 0.613248 182.614 0.613248C184.854 0.613248 186.934 0.746581 188.854 1.01325C190.827 1.22658 192.587 1.51992 194.134 1.89325C195.734 2.26658 197.121 2.66658 198.294 3.09325C199.521 3.51992 200.481 3.91992 201.174 4.29325V17.4932C199.414 16.9066 197.281 16.3733 194.774 15.8933C192.267 15.3599 189.494 15.0933 186.454 15.0933C184.214 15.0933 182.641 15.3599 181.734 15.8933C180.881 16.3733 180.454 17.0933 180.454 18.0532C180.454 18.9599 180.801 19.6532 181.494 20.1332C182.187 20.5599 183.334 20.9866 184.934 21.4132L186.134 21.7333C188.907 22.4266 191.441 23.2266 193.734 24.1333C196.027 25.0399 198.001 26.1599 199.654 27.4932C201.361 28.7733 202.667 30.3733 203.574 32.2933C204.534 34.2133 205.014 36.5333 205.014 39.2533C205.014 42.0799 204.507 44.6933 203.494 47.0933C202.481 49.4399 200.987 51.4666 199.014 53.1733C197.041 54.8266 194.587 56.1333 191.654 57.0933C188.721 57.9999 185.361 58.4533 181.574 58.4533ZM219.859 1.73325H244.339C248.552 1.73325 252.232 2.18658 255.379 3.09325C258.526 3.99992 261.139 5.30658 263.219 7.01325C265.299 8.66658 266.846 10.6666 267.859 13.0133C268.872 15.3599 269.379 17.9999 269.379 20.9333C269.379 23.8666 268.872 26.5333 267.859 28.9333C266.846 31.2799 265.299 33.3066 263.219 35.0133C261.139 36.7199 258.526 38.0533 255.379 39.0133C252.232 39.9199 248.552 40.3733 244.339 40.3733H239.939V57.3333H219.859V1.73325ZM239.939 15.9733V26.9332H243.779C245.646 26.9332 247.086 26.4532 248.099 25.4932C249.112 24.5333 249.619 23.1999 249.619 21.4933C249.619 19.7866 249.112 18.4533 248.099 17.4932C247.086 16.4799 245.646 15.9733 243.779 15.9733H239.939ZM298.19 58.4533C294.136 58.4533 290.51 57.9466 287.31 56.9333C284.11 55.9199 281.416 54.4799 279.23 52.6133C277.043 50.6933 275.363 48.3999 274.19 45.7333C273.07 43.0133 272.51 39.9733 272.51 36.6133V1.73325H292.59V37.4933C292.59 39.3599 293.096 40.7999 294.11 41.8133C295.123 42.8266 296.483 43.3333 298.19 43.3333C299.896 43.3333 301.256 42.8266 302.27 41.8133C303.283 40.7999 303.79 39.3599 303.79 37.4933V1.73325H323.87V36.6133C323.87 39.9733 323.283 43.0133 322.11 45.7333C320.99 48.3999 319.336 50.6933 317.15 52.6133C314.963 54.4799 312.27 55.9199 309.07 56.9333C305.923 57.9466 302.296 58.4533 298.19 58.4533ZM327.097 1.73325H377.177V16.5332H362.217V57.3333H342.137V16.5332H327.097V1.73325ZM419.498 58.4533C415.231 58.4533 411.338 57.7599 407.818 56.3733C404.351 54.9866 401.364 53.0399 398.858 50.5333C396.404 48.0266 394.484 44.9866 393.098 41.4133C391.764 37.8399 391.098 33.8666 391.098 29.4933C391.098 25.1199 391.764 21.1733 393.098 17.6533C394.484 14.0799 396.404 11.0399 398.858 8.53325C401.364 5.97325 404.351 4.02658 407.818 2.69325C411.338 1.30658 415.231 0.613248 419.498 0.613248C423.764 0.613248 427.631 1.30658 431.098 2.69325C434.618 4.02658 437.604 5.97325 440.058 8.53325C442.564 11.0399 444.484 14.0799 445.818 17.6533C447.204 21.1733 447.898 25.1199 447.898 29.4933C447.898 33.8666 447.204 37.8399 445.818 41.4133C444.484 44.9866 442.564 48.0266 440.058 50.5333C437.604 53.0399 434.618 54.9866 431.098 56.3733C427.631 57.7599 423.764 58.4533 419.498 58.4533ZM419.498 43.3333C422.271 43.3333 424.351 42.0799 425.738 39.5733C427.124 37.0666 427.818 33.7066 427.818 29.4933C427.818 25.3332 427.124 21.9999 425.738 19.4933C424.351 16.9866 422.271 15.7332 419.498 15.7332C416.724 15.7332 414.644 16.9866 413.258 19.4933C411.871 21.9999 411.178 25.3332 411.178 29.4933C411.178 33.7066 411.871 37.0666 413.258 39.5733C414.644 42.0799 416.724 43.3333 419.498 43.3333ZM477.33 58.4533C473.277 58.4533 469.65 57.9466 466.45 56.9333C463.25 55.9199 460.557 54.4799 458.37 52.6133C456.184 50.6933 454.504 48.3999 453.33 45.7333C452.21 43.0133 451.65 39.9733 451.65 36.6133V1.73325H471.73V37.4933C471.73 39.3599 472.237 40.7999 473.25 41.8133C474.264 42.8266 475.624 43.3333 477.33 43.3333C479.037 43.3333 480.397 42.8266 481.41 41.8133C482.424 40.7999 482.93 39.3599 482.93 37.4933V1.73325H503.01V36.6133C503.01 39.9733 502.424 43.0133 501.25 45.7333C500.13 48.3999 498.477 50.6933 496.29 52.6133C494.104 54.4799 491.41 55.9199 488.21 56.9333C485.064 57.9466 481.437 58.4533 477.33 58.4533ZM527.517 36.2933V57.3333H507.437V1.73325H532.877C540.984 1.73325 547.117 3.22658 551.277 6.21325C555.491 9.14658 557.597 13.4932 557.597 19.2533C557.597 26.6666 553.917 31.6533 546.557 34.2133L560.477 57.3333H539.277L527.517 36.2933ZM527.517 15.9733V26.9332H531.917C533.891 26.9332 535.384 26.4532 536.397 25.4932C537.464 24.5333 537.997 23.1999 537.997 21.4933C537.997 19.7332 537.464 18.3732 536.397 17.4133C535.384 16.4533 533.891 15.9733 531.917 15.9733H527.517ZM582.277 58.4533C579.717 58.4533 577.317 58.2666 575.077 57.8933C572.891 57.5733 570.944 57.1733 569.237 56.6933C567.531 56.2133 566.091 55.7333 564.917 55.2533C563.744 54.7199 562.891 54.2933 562.357 53.9733V40.6133C564.437 41.4666 566.864 42.2399 569.637 42.9333C572.464 43.6266 575.637 43.9733 579.157 43.9733C581.824 43.9733 583.637 43.6533 584.597 43.0133C585.557 42.3199 586.037 41.3866 586.037 40.2133C586.037 39.1999 585.664 38.4266 584.917 37.8933C584.224 37.3599 583.104 36.8799 581.557 36.4533L580.277 36.1333C577.557 35.4399 575.024 34.6399 572.677 33.7333C570.384 32.8266 568.384 31.7066 566.677 30.3733C565.024 28.9866 563.717 27.3333 562.757 25.4133C561.851 23.4932 561.397 21.1732 561.397 18.4532C561.397 15.8932 561.877 13.5466 562.837 11.4133C563.851 9.22658 565.291 7.33325 567.157 5.73325C569.024 4.13325 571.317 2.87992 574.037 1.97325C576.757 1.06658 579.851 0.613248 583.317 0.613248C585.557 0.613248 587.637 0.746581 589.557 1.01325C591.531 1.22658 593.291 1.51992 594.837 1.89325C596.437 2.26658 597.824 2.66658 598.997 3.09325C600.224 3.51992 601.184 3.91992 601.877 4.29325V17.4932C600.117 16.9066 597.984 16.3733 595.477 15.8933C592.971 15.3599 590.197 15.0933 587.157 15.0933C584.917 15.0933 583.344 15.3599 582.437 15.8933C581.584 16.3733 581.157 17.0933 581.157 18.0532C581.157 18.9599 581.504 19.6532 582.197 20.1332C582.891 20.5599 584.037 20.9866 585.637 21.4132L586.837 21.7333C589.611 22.4266 592.144 23.2266 594.437 24.1333C596.731 25.0399 598.704 26.1599 600.357 27.4932C602.064 28.7733 603.371 30.3733 604.277 32.2933C605.237 34.2133 605.717 36.5333 605.717 39.2533C605.717 42.0799 605.211 44.6933 604.197 47.0933C603.184 49.4399 601.691 51.4666 599.717 53.1733C597.744 54.8266 595.291 56.1333 592.357 57.0933C589.424 57.9999 586.064 58.4533 582.277 58.4533ZM609.703 1.73325H649.543V15.9733H629.783V22.5332H646.983V35.2533H629.783V43.0933H650.183V57.3333H609.703V1.73325ZM653.765 1.73325H673.845V42.5333H691.925V57.3333H653.765V1.73325ZM687.242 1.73325H707.722L715.322 53.7333L723.002 1.73325H743.242L732.842 57.3333H697.722L687.242 1.73325ZM746.187 1.73325H786.027V15.9733H766.267V22.5332H783.467V35.2533H766.267V43.0933H786.667V57.3333H746.187V1.73325ZM809.933 58.4533C807.373 58.4533 804.973 58.2666 802.733 57.8933C800.547 57.5733 798.6 57.1733 796.893 56.6933C795.187 56.2133 793.747 55.7333 792.573 55.2533C791.4 54.7199 790.547 54.2933 790.013 53.9733V40.6133C792.093 41.4666 794.52 42.2399 797.293 42.9333C800.12 43.6266 803.293 43.9733 806.813 43.9733C809.48 43.9733 811.293 43.6533 812.253 43.0133C813.213 42.3199 813.693 41.3866 813.693 40.2133C813.693 39.1999 813.32 38.4266 812.573 37.8933C811.88 37.3599 810.76 36.8799 809.213 36.4533L807.933 36.1333C805.213 35.4399 802.68 34.6399 800.333 33.7333C798.04 32.8266 796.04 31.7066 794.333 30.3733C792.68 28.9866 791.373 27.3333 790.413 25.4133C789.507 23.4932 789.053 21.1732 789.053 18.4532C789.053 15.8932 789.533 13.5466 790.493 11.4133C791.507 9.22658 792.947 7.33325 794.813 5.73325C796.68 4.13325 798.973 2.87992 801.693 1.97325C804.413 1.06658 807.507 0.613248 810.973 0.613248C813.213 0.613248 815.293 0.746581 817.213 1.01325C819.187 1.22658 820.947 1.51992 822.493 1.89325C824.093 2.26658 825.48 2.66658 826.653 3.09325C827.88 3.51992 828.84 3.91992 829.533 4.29325V17.4932C827.773 16.9066 825.64 16.3733 823.133 15.8933C820.627 15.3599 817.853 15.0933 814.813 15.0933C812.573 15.0933 811 15.3599 810.093 15.8933C809.24 16.3733 808.813 17.0933 808.813 18.0532C808.813 18.9599 809.16 19.6532 809.853 20.1332C810.547 20.5599 811.693 20.9866 813.293 21.4132L814.493 21.7333C817.267 22.4266 819.8 23.2266 822.093 24.1333C824.387 25.0399 826.36 26.1599 828.013 27.4932C829.72 28.7733 831.027 30.3733 831.933 32.2933C832.893 34.2133 833.373 36.5333 833.373 39.2533C833.373 42.0799 832.867 44.6933 831.853 47.0933C830.84 49.4399 829.347 51.4666 827.373 53.1733C825.4 54.8266 822.947 56.1333 820.013 57.0933C817.08 57.9999 813.72 58.4533 809.933 58.4533ZM876.138 58.4533C871.872 58.4533 867.978 57.7599 864.458 56.3733C860.992 54.9866 858.005 53.0399 855.498 50.5333C853.045 48.0266 851.125 44.9866 849.738 41.4133C848.405 37.8399 847.738 33.8666 847.738 29.4933C847.738 25.1199 848.405 21.1733 849.738 17.6533C851.125 14.0799 853.045 11.0399 855.498 8.53325C858.005 5.97325 860.992 4.02658 864.458 2.69325C867.978 1.30658 871.872 0.613248 876.138 0.613248C880.405 0.613248 884.272 1.30658 887.738 2.69325C891.258 4.02658 894.245 5.97325 896.698 8.53325C899.205 11.0399 901.125 14.0799 902.458 17.6533C903.845 21.1733 904.538 25.1199 904.538 29.4933C904.538 33.8666 903.845 37.8399 902.458 41.4133C901.125 44.9866 899.205 48.0266 896.698 50.5333C894.245 53.0399 891.258 54.9866 887.738 56.3733C884.272 57.7599 880.405 58.4533 876.138 58.4533ZM876.138 43.3333C878.912 43.3333 880.992 42.0799 882.378 39.5733C883.765 37.0666 884.458 33.7066 884.458 29.4933C884.458 25.3332 883.765 21.9999 882.378 19.4933C880.992 16.9866 878.912 15.7332 876.138 15.7332C873.365 15.7332 871.285 16.9866 869.898 19.4933C868.512 21.9999 867.818 25.3332 867.818 29.4933C867.818 33.7066 868.512 37.0666 869.898 39.5733C871.285 42.0799 873.365 43.3333 876.138 43.3333ZM908.375 1.73325H939.655L948.295 53.8133L945.735 1.73325H964.775V57.3333H933.575L924.935 5.25325L927.415 57.3333H908.375V1.73325ZM979.05 1.73325H1029.13V16.5332H1014.17V57.3333H994.09V16.5332H979.05V1.73325ZM1059.03 58.4533C1054.76 58.4533 1050.87 57.7599 1047.35 56.3733C1043.88 54.9866 1040.9 53.0399 1038.39 50.5333C1035.94 48.0266 1034.02 44.9866 1032.63 41.4133C1031.3 37.8399 1030.63 33.8666 1030.63 29.4933C1030.63 25.1199 1031.3 21.1733 1032.63 17.6533C1034.02 14.0799 1035.94 11.0399 1038.39 8.53325C1040.9 5.97325 1043.88 4.02658 1047.35 2.69325C1050.87 1.30658 1054.76 0.613248 1059.03 0.613248C1063.3 0.613248 1067.16 1.30658 1070.63 2.69325C1074.15 4.02658 1077.14 5.97325 1079.59 8.53325C1082.1 11.0399 1084.02 14.0799 1085.35 17.6533C1086.74 21.1733 1087.43 25.1199 1087.43 29.4933C1087.43 33.8666 1086.74 37.8399 1085.35 41.4133C1084.02 44.9866 1082.1 48.0266 1079.59 50.5333C1077.14 53.0399 1074.15 54.9866 1070.63 56.3733C1067.16 57.7599 1063.3 58.4533 1059.03 58.4533ZM1059.03 43.3333C1061.8 43.3333 1063.88 42.0799 1065.27 39.5733C1066.66 37.0666 1067.35 33.7066 1067.35 29.4933C1067.35 25.3332 1066.66 21.9999 1065.27 19.4933C1063.88 16.9866 1061.8 15.7332 1059.03 15.7332C1056.26 15.7332 1054.18 16.9866 1052.79 19.4933C1051.4 21.9999 1050.71 25.3332 1050.71 29.4933C1050.71 33.7066 1051.4 37.0666 1052.79 39.5733C1054.18 42.0799 1056.26 43.3333 1059.03 43.3333ZM1091.27 1.73325H1115.75C1119.96 1.73325 1123.64 2.18658 1126.79 3.09325C1129.93 3.99992 1132.55 5.30658 1134.63 7.01325C1136.71 8.66658 1138.25 10.6666 1139.27 13.0133C1140.28 15.3599 1140.79 17.9999 1140.79 20.9333C1140.79 23.8666 1140.28 26.5333 1139.27 28.9333C1138.25 31.2799 1136.71 33.3066 1134.63 35.0133C1132.55 36.7199 1129.93 38.0533 1126.79 39.0133C1123.64 39.9199 1119.96 40.3733 1115.75 40.3733H1111.35V57.3333H1091.27V1.73325ZM1111.35 15.9733V26.9332H1115.19C1117.05 26.9332 1118.49 26.4532 1119.51 25.4932C1120.52 24.5333 1121.03 23.1999 1121.03 21.4933C1121.03 19.7866 1120.52 18.4533 1119.51 17.4932C1118.49 16.4799 1117.05 15.9733 1115.19 15.9733H1111.35Z" fill="#AF1685"/>
</svg>
