<svg width="1156" height="375" viewBox="0 0 1156 375" fill="none" xmlns="http://www.w3.org/2000/svg">
<mask id="mask0_810_690" style="mask-type:alpha" maskUnits="userSpaceOnUse" x="48" y="15" width="1062" height="323">
<path d="M537.425 93.4106C365.863 -0.396769 141.675 16.1203 48 16.1203V338H1110V159.939C930.018 153.09 845.465 154.069 832.133 153.09C658.676 148.394 567.247 109.717 537.425 93.4106Z" fill="#E1E4FF"/>
</mask>
<g mask="url(#mask0_810_690)">
<rect x="54" y="14" width="132" height="325" fill="#A0ABFF"/>
<rect x="186" y="16" width="133" height="322" fill="#B5BDFF"/>
<rect x="319" y="16" width="133" height="322" fill="#C0C7FF"/>
<rect x="452" y="15" width="133" height="324" fill="#DAB9F9"/>
<rect x="585" y="16" width="132" height="322" fill="#E3C7FD"/>
<rect x="717" y="16" width="133" height="322" fill="#EAD3FF"/>
<rect x="850" y="16" width="133" height="322" fill="#EEDCFF"/>
<rect x="983" y="16" width="127" height="322" fill="#EBD6FF"/>
</g>
<path d="M2.87117 16H4.70117V5.425H3.42617L0.591172 6.325L0.981172 7.825L2.87117 7.3V16ZM7.73844 16H9.82344L14.5484 6.895V5.5H7.16844V7.12H12.4484L7.73844 16ZM20.9261 16H22.7411V11.53C22.7411 10.3 23.4761 9.565 24.5261 9.565C25.6061 9.565 26.2211 10.27 26.2211 11.5V16H28.0361V10.945C28.0361 9.115 27.0011 7.915 25.2161 7.915C23.9861 7.915 23.2511 8.56 22.7411 9.295V5.05H20.9261V16ZM30.2279 16H32.0429V12.985C32.0429 10.885 33.1529 9.85 34.7429 9.85H34.8479V7.93C33.4529 7.87 32.5379 8.68 32.0429 9.865V8.08H30.2279V16ZM39.1392 16.15C40.7892 16.15 42.0792 15.325 42.0792 13.66V13.63C42.0792 12.205 40.7742 11.68 39.6192 11.32C38.6892 11.02 37.8342 10.78 37.8342 10.195V10.165C37.8342 9.715 38.2392 9.385 38.9442 9.385C39.6042 9.385 40.4142 9.67 41.1792 10.135L41.8992 8.845C41.0592 8.29 39.9792 7.945 38.9892 7.945C37.4142 7.945 36.1692 8.86 36.1692 10.36V10.39C36.1692 11.905 37.4742 12.385 38.6442 12.715C39.5742 13 40.4142 13.21 40.4142 13.825V13.855C40.4142 14.38 39.9642 14.71 39.1842 14.71C38.3742 14.71 37.4592 14.38 36.5892 13.735L35.7792 14.965C36.7692 15.745 38.0142 16.15 39.1392 16.15Z" fill="#363636"/>
<path d="M7.746 171.15C10.041 171.15 11.751 169.995 11.751 168.105V168.075C11.751 166.83 11.016 166.08 9.861 165.555C10.746 165.09 11.391 164.385 11.391 163.215V163.185C11.391 161.565 9.846 160.35 7.746 160.35C5.646 160.35 4.101 161.58 4.101 163.185V163.215C4.101 164.385 4.746 165.09 5.631 165.555C4.446 166.05 3.741 166.845 3.741 168.105V168.135C3.741 169.95 5.451 171.15 7.746 171.15ZM7.746 164.94C6.666 164.94 5.871 164.295 5.871 163.395V163.365C5.871 162.555 6.621 161.895 7.746 161.895C8.871 161.895 9.621 162.555 9.621 163.365V163.395C9.621 164.295 8.826 164.94 7.746 164.94ZM7.746 169.605C6.366 169.605 5.556 168.885 5.556 168.03V168C5.556 167.04 6.501 166.425 7.746 166.425C8.991 166.425 9.936 167.04 9.936 168V168.03C9.936 168.9 9.126 169.605 7.746 169.605ZM18.0913 171H19.9213V166.53C19.9213 165.3 20.6563 164.565 21.7063 164.565C22.7863 164.565 23.4013 165.27 23.4013 166.5V171H25.2163V165.945C25.2163 164.115 24.1813 162.915 22.3963 162.915C21.1663 162.915 20.4313 163.56 19.9213 164.295V160.05H18.0913V171ZM27.3931 171H29.2231V167.985C29.2231 165.885 30.3331 164.85 31.9231 164.85H32.0281V162.93C30.6331 162.87 29.7181 163.68 29.2231 164.865V163.08H27.3931V171ZM36.3194 171.15C37.9694 171.15 39.2594 170.325 39.2594 168.66V168.63C39.2594 167.205 37.9544 166.68 36.7994 166.32C35.8694 166.02 35.0144 165.78 35.0144 165.195V165.165C35.0144 164.73 35.4194 164.385 36.1244 164.385C36.7844 164.385 37.5944 164.67 38.3594 165.135L39.0794 163.845C38.2394 163.29 37.1594 162.945 36.1694 162.945C34.5944 162.945 33.3494 163.86 33.3494 165.375V165.405C33.3494 166.905 34.6544 167.385 35.8244 167.715C36.7544 168 37.5944 168.21 37.5944 168.825V168.855C37.5944 169.38 37.1444 169.71 36.3644 169.71C35.5544 169.71 34.6394 169.38 33.7694 168.735L32.9594 169.965C33.9494 170.76 35.1944 171.15 36.3194 171.15Z" fill="#363636"/>
<path d="M84.5955 233H86.4255L88.4655 225.365L92.1405 233H93.6855L96.5055 222.5H94.6905L92.6805 229.925L89.1255 222.5H87.4155L84.5955 233ZM104.248 229.67C104.473 229.13 104.593 228.545 104.593 227.99C104.593 226.265 103.468 224.915 101.428 224.915C100.138 224.915 99.0275 225.455 98.2175 226.265C97.3025 227.18 96.7625 228.455 96.7625 229.715C96.7625 231.83 98.1425 233.18 100.333 233.18C101.698 233.18 102.688 232.715 103.438 232.085L102.583 230.945C101.893 231.44 101.278 231.695 100.513 231.695C99.1775 231.695 98.4875 230.855 98.4875 229.67H104.248ZM99.4625 227.18C99.9425 226.7 100.573 226.4 101.293 226.4C102.388 226.4 102.868 227.09 102.868 227.915C102.868 228.14 102.838 228.335 102.793 228.47H98.6825C98.8475 227.975 99.1175 227.525 99.4625 227.18ZM106.545 233.06H108.15L111.39 227.645L111.705 233.06H113.34L118.08 225.08H116.25L113.16 230.495L112.86 225.05H111.315L108.105 230.48L107.955 225.08H106.11L106.545 233.06ZM122.469 233.165C123.549 233.165 124.614 232.685 125.424 231.875C126.294 231.005 126.864 229.76 126.864 228.305C126.864 226.205 125.544 224.915 123.774 224.915C122.739 224.915 121.959 225.41 121.239 226.13L122.349 222.05H120.534L117.594 233H119.409L119.784 231.59C120.264 232.475 121.074 233.165 122.469 233.165ZM122.244 231.605C121.074 231.605 120.249 230.765 120.249 229.61C120.249 228.725 120.624 227.9 121.224 227.3C121.749 226.775 122.409 226.475 123.099 226.475C124.224 226.475 124.974 227.225 124.974 228.425C124.974 229.4 124.614 230.255 124.014 230.84C123.549 231.32 122.904 231.605 122.244 231.605ZM131.933 233.18C133.193 233.18 134.333 232.64 135.158 231.8C136.028 230.945 136.553 229.76 136.553 228.545C136.553 226.445 135.098 224.915 132.833 224.915C131.573 224.915 130.433 225.455 129.608 226.295C128.738 227.165 128.213 228.335 128.213 229.565C128.213 231.65 129.668 233.18 131.933 233.18ZM132.038 231.605C130.838 231.605 130.013 230.855 130.013 229.505C130.013 228.74 130.358 227.855 130.973 227.255C131.438 226.805 132.053 226.49 132.728 226.49C133.928 226.49 134.753 227.24 134.753 228.59C134.753 229.355 134.408 230.24 133.793 230.84C133.343 231.305 132.713 231.605 132.038 231.605ZM137.31 233H139.125L139.92 230.06C140.52 227.87 141.885 226.85 143.475 226.85H143.58L144.09 224.93C142.68 224.84 141.645 225.605 140.775 226.865L141.24 225.08H139.425L137.31 233ZM143.492 233H145.307L146.507 228.545C146.822 227.375 147.662 226.565 148.682 226.565C149.537 226.565 150.047 227.015 150.047 227.81C150.047 228.035 150.002 228.35 149.942 228.605L148.757 233H150.572L151.727 228.68C151.847 228.215 151.967 227.705 151.967 227.285C151.967 225.83 151.007 224.915 149.552 224.915C148.532 224.915 147.767 225.47 147.152 226.085L147.422 225.08H145.607L143.492 233Z" fill="#363636"/>
<path d="M90.9508 257H92.7808V246.425H91.5058L88.6708 247.325L89.0608 248.825L90.9508 248.3V257ZM100.408 257H102.178V254.645H103.678V253.13H102.178V246.425H100.603L94.768 253.325L95.113 254.645H100.408V257ZM96.958 253.13L100.408 248.975V253.13H96.958ZM105.293 253.295H109.733V251.51H105.293V253.295ZM112.792 257H114.622V246.425H113.347L110.512 247.325L110.902 248.825L112.792 248.3V257ZM117.659 257H119.744L124.469 247.895V246.5H117.089V248.12H122.369L117.659 257ZM130.832 257H132.662V252.53C132.662 251.3 133.397 250.565 134.447 250.565C135.527 250.565 136.142 251.27 136.142 252.5V257H137.957V251.945C137.957 250.115 136.922 248.915 135.137 248.915C133.907 248.915 133.172 249.56 132.662 250.295V246.05H130.832V257ZM140.133 257H141.963V253.985C141.963 251.885 143.073 250.85 144.663 250.85H144.768V248.93C143.373 248.87 142.458 249.68 141.963 250.865V249.08H140.133V257ZM149.06 257.15C150.71 257.15 152 256.325 152 254.66V254.63C152 253.205 150.695 252.68 149.54 252.32C148.61 252.02 147.755 251.78 147.755 251.195V251.165C147.755 250.73 148.16 250.385 148.865 250.385C149.525 250.385 150.335 250.67 151.1 251.135L151.82 249.845C150.98 249.29 149.9 248.945 148.91 248.945C147.335 248.945 146.09 249.86 146.09 251.375V251.405C146.09 252.905 147.395 253.385 148.565 253.715C149.495 254 150.335 254.21 150.335 254.825V254.855C150.335 255.38 149.885 255.71 149.105 255.71C148.295 255.71 147.38 255.38 146.51 254.735L145.7 255.965C146.69 256.76 147.935 257.15 149.06 257.15Z" fill="#363636"/>
<path d="M230.491 233H232.351L235.171 222.5H233.311L230.491 233ZM234.936 233H236.751L237.951 228.545C238.266 227.375 239.106 226.565 240.126 226.565C240.981 226.565 241.491 227.015 241.491 227.81C241.491 228.035 241.446 228.35 241.386 228.605L240.201 233H242.016L243.171 228.68C243.291 228.215 243.411 227.705 243.411 227.285C243.411 225.83 242.451 224.915 240.996 224.915C239.976 224.915 239.211 225.47 238.596 226.085L238.866 225.08H237.051L234.936 233ZM244.629 233H246.444L248.154 226.64H250.314L250.734 225.08H248.544L248.664 224.63C248.874 223.865 249.309 223.52 249.969 223.52C250.344 223.52 250.719 223.61 251.079 223.76L251.484 222.245C251.094 222.08 250.554 221.975 249.924 221.975C249.054 221.975 248.334 222.23 247.809 222.755C247.404 223.16 247.089 223.7 246.894 224.525L246.744 225.08H245.754L245.334 226.64H246.324L244.629 233ZM252.309 233.165C253.374 233.165 254.244 232.7 254.919 231.95L254.649 233H256.404L257.589 228.575C257.679 228.185 257.754 227.81 257.754 227.42C257.754 225.875 256.659 224.975 254.589 224.975C253.509 224.975 252.579 225.185 251.769 225.5L252.069 226.97C252.699 226.715 253.434 226.535 254.229 226.535C255.474 226.535 255.984 227 255.984 227.735C255.984 227.975 255.939 228.2 255.894 228.395L255.849 228.53C255.144 228.32 254.319 228.14 253.389 228.14C252.264 228.14 251.304 228.485 250.674 229.1C250.209 229.58 249.924 230.21 249.924 231.005C249.924 232.31 250.959 233.165 252.309 233.165ZM253.029 231.86C252.234 231.86 251.739 231.425 251.739 230.795C251.739 230.42 251.874 230.09 252.129 229.835C252.474 229.505 252.999 229.31 253.659 229.31C254.379 229.31 255.069 229.445 255.579 229.61L255.474 229.97C255.174 231.035 254.124 231.86 253.029 231.86ZM258.564 233H260.379L261.579 228.545C261.894 227.375 262.734 226.565 263.754 226.565C264.609 226.565 265.119 227.015 265.119 227.81C265.119 228.035 265.074 228.35 265.014 228.605L263.829 233H265.644L266.799 228.68C266.919 228.215 267.039 227.705 267.039 227.285C267.039 225.83 266.079 224.915 264.624 224.915C263.604 224.915 262.839 225.47 262.224 226.085L262.494 225.08H260.679L258.564 233ZM270.702 233.135C271.257 233.135 271.752 233.045 272.187 232.85L272.607 231.275C272.217 231.44 271.812 231.53 271.452 231.53C270.942 231.53 270.657 231.32 270.657 230.915C270.657 230.795 270.687 230.615 270.717 230.465L271.737 226.64H273.852L274.272 225.08H272.157L272.742 222.905H270.927L270.342 225.08H269.337L268.917 226.64H269.922L268.857 230.66C268.767 230.96 268.722 231.275 268.722 231.575C268.722 232.505 269.427 233.135 270.702 233.135Z" fill="#363636"/>
<path d="M222.861 257H224.691V246.425H223.416L220.581 247.325L220.971 248.825L222.861 248.3V257ZM226.873 257H234.463V255.38H229.468L231.628 253.58C233.488 252.065 234.358 251.18 234.358 249.515V249.485C234.358 247.61 232.948 246.35 230.893 246.35C229.018 246.35 228.028 247.145 227.023 248.54L228.343 249.575C229.138 248.525 229.798 248 230.758 248C231.718 248 232.453 248.615 232.453 249.635C232.453 250.58 231.913 251.24 230.488 252.47L226.873 255.545V257ZM236.177 253.295H240.617V251.51H236.177V253.295ZM243.676 257H245.506V246.425H244.231L241.396 247.325L241.786 248.825L243.676 248.3V257ZM251.514 257.18C253.839 257.18 255.414 255.77 255.414 253.625V253.595C255.414 251.375 253.794 250.295 251.754 250.295C251.049 250.295 250.584 250.415 250.089 250.595L250.254 248.15H254.949V246.5H248.664L248.364 251.645L249.474 252.38C250.014 252.125 250.659 251.915 251.409 251.915C252.684 251.915 253.584 252.59 253.584 253.655V253.685C253.584 254.78 252.759 255.5 251.499 255.5C250.524 255.5 249.639 255.02 248.799 254.24L247.659 255.575C248.649 256.535 249.909 257.18 251.514 257.18ZM261.921 257H263.751V252.53C263.751 251.3 264.486 250.565 265.536 250.565C266.616 250.565 267.231 251.27 267.231 252.5V257H269.046V251.945C269.046 250.115 268.011 248.915 266.226 248.915C264.996 248.915 264.261 249.56 263.751 250.295V246.05H261.921V257ZM271.223 257H273.053V253.985C273.053 251.885 274.163 250.85 275.753 250.85H275.858V248.93C274.463 248.87 273.548 249.68 273.053 250.865V249.08H271.223V257ZM280.149 257.15C281.799 257.15 283.089 256.325 283.089 254.66V254.63C283.089 253.205 281.784 252.68 280.629 252.32C279.699 252.02 278.844 251.78 278.844 251.195V251.165C278.844 250.73 279.249 250.385 279.954 250.385C280.614 250.385 281.424 250.67 282.189 251.135L282.909 249.845C282.069 249.29 280.989 248.945 279.999 248.945C278.424 248.945 277.179 249.86 277.179 251.375V251.405C277.179 252.905 278.484 253.385 279.654 253.715C280.584 254 281.424 254.21 281.424 254.825V254.855C281.424 255.38 280.974 255.71 280.194 255.71C279.384 255.71 278.469 255.38 277.599 254.735L276.789 255.965C277.779 256.76 279.024 257.15 280.149 257.15Z" fill="#363636"/>
<path d="M360.016 233H361.861L364.231 224.21H367.561L368.026 222.5H359.506L359.041 224.21H362.386L360.016 233ZM369.755 233.18C371.015 233.18 372.155 232.64 372.98 231.8C373.85 230.945 374.375 229.76 374.375 228.545C374.375 226.445 372.92 224.915 370.655 224.915C369.395 224.915 368.255 225.455 367.43 226.295C366.56 227.165 366.035 228.335 366.035 229.565C366.035 231.65 367.49 233.18 369.755 233.18ZM369.86 231.605C368.66 231.605 367.835 230.855 367.835 229.505C367.835 228.74 368.18 227.855 368.795 227.255C369.26 226.805 369.875 226.49 370.55 226.49C371.75 226.49 372.575 227.24 372.575 228.59C372.575 229.355 372.23 230.24 371.615 230.84C371.165 231.305 370.535 231.605 369.86 231.605ZM381.088 233H382.903L385.843 222.05H384.028L382.828 226.49C382.348 225.605 381.553 224.915 380.158 224.915C379.063 224.915 377.998 225.395 377.188 226.205C376.318 227.075 375.748 228.32 375.748 229.775C375.748 231.875 377.083 233.165 378.838 233.165C379.873 233.165 380.668 232.67 381.373 231.95L381.088 233ZM379.528 231.605C378.388 231.605 377.638 230.855 377.638 229.655C377.638 228.68 378.013 227.825 378.598 227.24C379.078 226.76 379.708 226.475 380.383 226.475C381.553 226.475 382.378 227.315 382.378 228.47C382.378 229.355 381.988 230.18 381.388 230.78C380.878 231.305 380.203 231.605 379.528 231.605ZM391.122 233H392.937L395.877 222.05H394.062L392.862 226.49C392.382 225.605 391.587 224.915 390.192 224.915C389.097 224.915 388.032 225.395 387.222 226.205C386.352 227.075 385.782 228.32 385.782 229.775C385.782 231.875 387.117 233.165 388.872 233.165C389.907 233.165 390.702 232.67 391.407 231.95L391.122 233ZM389.562 231.605C388.422 231.605 387.672 230.855 387.672 229.655C387.672 228.68 388.047 227.825 388.632 227.24C389.112 226.76 389.742 226.475 390.417 226.475C391.587 226.475 392.412 227.315 392.412 228.47C392.412 229.355 392.022 230.18 391.422 230.78C390.912 231.305 390.237 231.605 389.562 231.605ZM395.306 233H397.121L400.061 222.05H398.246L395.306 233ZM407.563 229.67C407.788 229.13 407.908 228.545 407.908 227.99C407.908 226.265 406.783 224.915 404.743 224.915C403.453 224.915 402.343 225.455 401.533 226.265C400.618 227.18 400.078 228.455 400.078 229.715C400.078 231.83 401.458 233.18 403.648 233.18C405.013 233.18 406.003 232.715 406.753 232.085L405.898 230.945C405.208 231.44 404.593 231.695 403.828 231.695C402.493 231.695 401.803 230.855 401.803 229.67H407.563ZM402.778 227.18C403.258 226.7 403.888 226.4 404.608 226.4C405.703 226.4 406.183 227.09 406.183 227.915C406.183 228.14 406.153 228.335 406.108 228.47H401.998C402.163 227.975 402.433 227.525 402.778 227.18ZM408.487 233H410.302L411.097 230.06C411.697 227.87 413.062 226.85 414.652 226.85H414.757L415.267 224.93C413.857 224.84 412.822 225.605 411.952 226.865L412.417 225.08H410.602L408.487 233Z" fill="#363636"/>
<path d="M358.047 257H359.877V246.425H358.602L355.767 247.325L356.157 248.825L358.047 248.3V257ZM363.995 257H365.825V246.425H364.55L361.715 247.325L362.105 248.825L363.995 248.3V257ZM368.112 253.295H372.552V251.51H368.112V253.295ZM375.611 257H377.441V246.425H376.166L373.331 247.325L373.721 248.825L375.611 248.3V257ZM385.068 257H386.838V254.645H388.338V253.13H386.838V246.425H385.263L379.428 253.325L379.773 254.645H385.068V257ZM381.618 253.13L385.068 248.975V253.13H381.618ZM394.735 257H396.565V252.53C396.565 251.3 397.3 250.565 398.35 250.565C399.43 250.565 400.045 251.27 400.045 252.5V257H401.86V251.945C401.86 250.115 400.825 248.915 399.04 248.915C397.81 248.915 397.075 249.56 396.565 250.295V246.05H394.735V257ZM404.037 257H405.867V253.985C405.867 251.885 406.977 250.85 408.567 250.85H408.672V248.93C407.277 248.87 406.362 249.68 405.867 250.865V249.08H404.037V257ZM412.963 257.15C414.613 257.15 415.903 256.325 415.903 254.66V254.63C415.903 253.205 414.598 252.68 413.443 252.32C412.513 252.02 411.658 251.78 411.658 251.195V251.165C411.658 250.73 412.063 250.385 412.768 250.385C413.428 250.385 414.238 250.67 415.003 251.135L415.723 249.845C414.883 249.29 413.803 248.945 412.813 248.945C411.238 248.945 409.993 249.86 409.993 251.375V251.405C409.993 252.905 411.298 253.385 412.468 253.715C413.398 254 414.238 254.21 414.238 254.825V254.855C414.238 255.38 413.788 255.71 413.008 255.71C412.198 255.71 411.283 255.38 410.413 254.735L409.603 255.965C410.593 256.76 411.838 257.15 412.963 257.15Z" fill="#363636"/>
<path d="M481.754 233H483.614L484.529 229.595H486.719C488.459 229.595 489.899 229.1 490.829 228.185C491.474 227.525 491.849 226.655 491.849 225.605C491.849 224.735 491.579 224.045 491.069 223.535C490.349 222.8 489.314 222.5 487.889 222.5H484.574L481.754 233ZM489.539 224.705C489.809 224.975 489.929 225.335 489.929 225.755C489.929 226.325 489.734 226.775 489.374 227.15C488.834 227.675 487.964 227.96 486.824 227.96H484.964L485.969 224.18H487.829C488.609 224.18 489.164 224.345 489.539 224.705ZM491.651 233H493.466L494.261 230.06C494.861 227.87 496.226 226.85 497.816 226.85H497.921L498.431 224.93C497.021 224.84 495.986 225.605 495.116 226.865L495.581 225.08H493.766L491.651 233ZM505.83 229.67C506.055 229.13 506.175 228.545 506.175 227.99C506.175 226.265 505.05 224.915 503.01 224.915C501.72 224.915 500.61 225.455 499.8 226.265C498.885 227.18 498.345 228.455 498.345 229.715C498.345 231.83 499.725 233.18 501.915 233.18C503.28 233.18 504.27 232.715 505.02 232.085L504.165 230.945C503.475 231.44 502.86 231.695 502.095 231.695C500.76 231.695 500.07 230.855 500.07 229.67H505.83ZM501.045 227.18C501.525 226.7 502.155 226.4 502.875 226.4C503.97 226.4 504.45 227.09 504.45 227.915C504.45 228.14 504.42 228.335 504.375 228.47H500.265C500.43 227.975 500.7 227.525 501.045 227.18ZM509.934 233.18C511.749 233.18 513.099 232.13 513.099 230.495C513.099 229.34 512.124 228.785 510.924 228.275C510.024 227.9 509.664 227.645 509.664 227.24C509.664 226.73 510.099 226.34 510.879 226.34C511.614 226.34 512.334 226.64 513.054 227.21L514.059 226.04C513.414 225.47 512.259 224.915 511.014 224.915C509.109 224.915 507.909 226.07 507.909 227.555C507.909 228.77 508.869 229.28 510.189 229.82C510.984 230.15 511.344 230.42 511.344 230.81C511.344 231.395 510.789 231.755 510.084 231.755C509.274 231.755 508.359 231.485 507.519 230.645L506.424 231.755C507.354 232.715 508.734 233.18 509.934 233.18ZM518.454 233.18C519.789 233.18 520.674 232.67 521.499 231.92L520.539 230.735C519.909 231.29 519.309 231.62 518.514 231.62C517.494 231.62 516.639 230.87 516.639 229.64C516.639 228.725 517.029 227.87 517.614 227.27C518.094 226.79 518.724 226.49 519.354 226.49C520.374 226.49 520.884 227 521.304 227.675L522.714 226.715C522.174 225.755 521.199 224.915 519.504 224.915C518.244 224.915 517.074 225.455 516.219 226.31C515.364 227.165 514.824 228.35 514.824 229.655C514.824 231.815 516.414 233.18 518.454 233.18ZM522.647 233H524.462L525.662 228.545C525.977 227.375 526.817 226.565 527.837 226.565C528.692 226.565 529.202 227.015 529.202 227.81C529.202 228.035 529.157 228.35 529.097 228.605L527.912 233H529.727L530.882 228.68C531.002 228.215 531.122 227.705 531.122 227.285C531.122 225.83 530.162 224.915 528.707 224.915C527.687 224.915 526.922 225.47 526.307 226.085L527.402 222.05H525.587L522.647 233ZM536.24 233.18C537.5 233.18 538.64 232.64 539.465 231.8C540.335 230.945 540.86 229.76 540.86 228.545C540.86 226.445 539.405 224.915 537.14 224.915C535.88 224.915 534.74 225.455 533.915 226.295C533.045 227.165 532.52 228.335 532.52 229.565C532.52 231.65 533.975 233.18 536.24 233.18ZM536.345 231.605C535.145 231.605 534.32 230.855 534.32 229.505C534.32 228.74 534.665 227.855 535.28 227.255C535.745 226.805 536.36 226.49 537.035 226.49C538.235 226.49 539.06 227.24 539.06 228.59C539.06 229.355 538.715 230.24 538.1 230.84C537.65 231.305 537.02 231.605 536.345 231.605ZM545.937 233.18C547.197 233.18 548.337 232.64 549.162 231.8C550.032 230.945 550.557 229.76 550.557 228.545C550.557 226.445 549.102 224.915 546.837 224.915C545.577 224.915 544.437 225.455 543.612 226.295C542.742 227.165 542.217 228.335 542.217 229.565C542.217 231.65 543.672 233.18 545.937 233.18ZM546.042 231.605C544.842 231.605 544.017 230.855 544.017 229.505C544.017 228.74 544.362 227.855 544.977 227.255C545.442 226.805 546.057 226.49 546.732 226.49C547.932 226.49 548.757 227.24 548.757 228.59C548.757 229.355 548.412 230.24 547.797 230.84C547.347 231.305 546.717 231.605 546.042 231.605ZM551.419 233H553.234L556.174 222.05H554.359L551.419 233Z" fill="#363636"/>
<path d="M488.57 257H490.4V246.425H489.125L486.29 247.325L486.68 248.825L488.57 248.3V257ZM497.262 257.18C500.022 257.18 501.852 254.75 501.852 251.75V251.72C501.852 248.72 500.037 246.32 497.292 246.32C494.532 246.32 492.702 248.75 492.702 251.75V251.78C492.702 254.78 494.502 257.18 497.262 257.18ZM497.292 255.515C495.657 255.515 494.607 253.82 494.607 251.75V251.72C494.607 249.65 495.642 247.985 497.262 247.985C498.882 247.985 499.947 249.68 499.947 251.75V251.78C499.947 253.835 498.927 255.515 497.292 255.515ZM503.542 253.295H507.982V251.51H503.542V253.295ZM511.041 257H512.871V246.425H511.596L508.761 247.325L509.151 248.825L511.041 248.3V257ZM518.983 257.18C521.173 257.18 522.658 255.785 522.658 253.85V253.82C522.658 251.885 521.158 251.075 519.568 250.88L522.493 247.88V246.5H515.548V248.105H520.093L517.258 251.12L517.558 252.275H518.413C519.883 252.275 520.828 252.86 520.828 253.895V253.925C520.828 254.885 520.033 255.515 519.013 255.515C517.843 255.515 517.003 255.02 516.253 254.135L514.963 255.35C515.848 256.415 517.153 257.18 518.983 257.18ZM529.212 257H531.042V252.53C531.042 251.3 531.777 250.565 532.827 250.565C533.907 250.565 534.522 251.27 534.522 252.5V257H536.337V251.945C536.337 250.115 535.302 248.915 533.517 248.915C532.287 248.915 531.552 249.56 531.042 250.295V246.05H529.212V257ZM538.514 257H540.344V253.985C540.344 251.885 541.454 250.85 543.044 250.85H543.149V248.93C541.754 248.87 540.839 249.68 540.344 250.865V249.08H538.514V257ZM547.44 257.15C549.09 257.15 550.38 256.325 550.38 254.66V254.63C550.38 253.205 549.075 252.68 547.92 252.32C546.99 252.02 546.135 251.78 546.135 251.195V251.165C546.135 250.73 546.54 250.385 547.245 250.385C547.905 250.385 548.715 250.67 549.48 251.135L550.2 249.845C549.36 249.29 548.28 248.945 547.29 248.945C545.715 248.945 544.47 249.86 544.47 251.375V251.405C544.47 252.905 545.775 253.385 546.945 253.715C547.875 254 548.715 254.21 548.715 254.825V254.855C548.715 255.38 548.265 255.71 547.485 255.71C546.675 255.71 545.76 255.38 544.89 254.735L544.08 255.965C545.07 256.76 546.315 257.15 547.44 257.15Z" fill="#363636"/>
<path d="M606.659 233.15C607.919 233.15 609.074 232.73 609.839 231.965C610.394 231.41 610.754 230.675 610.754 229.79C610.754 228.32 609.749 227.6 608.144 226.97C606.629 226.37 606.104 226.04 606.104 225.365C606.104 224.66 606.824 223.985 608.054 223.985C609.149 223.985 609.959 224.405 610.754 225.185L612.044 223.925C611.189 222.98 609.929 222.35 608.189 222.35C606.899 222.35 605.774 222.77 605.024 223.52C604.469 224.075 604.154 224.81 604.154 225.65C604.154 227.105 605.249 227.825 606.854 228.47C608.354 229.055 608.789 229.43 608.789 230.06C608.789 230.93 607.934 231.515 606.764 231.515C605.414 231.515 604.454 231.005 603.599 230.03L602.204 231.185C603.164 232.46 604.679 233.15 606.659 233.15ZM616.06 233.18C617.395 233.18 618.28 232.67 619.105 231.92L618.145 230.735C617.515 231.29 616.915 231.62 616.12 231.62C615.1 231.62 614.245 230.87 614.245 229.64C614.245 228.725 614.635 227.87 615.22 227.27C615.7 226.79 616.33 226.49 616.96 226.49C617.98 226.49 618.49 227 618.91 227.675L620.32 226.715C619.78 225.755 618.805 224.915 617.11 224.915C615.85 224.915 614.68 225.455 613.825 226.31C612.97 227.165 612.43 228.35 612.43 229.655C612.43 231.815 614.02 233.18 616.06 233.18ZM620.253 233H622.068L623.268 228.545C623.583 227.375 624.423 226.565 625.443 226.565C626.298 226.565 626.808 227.015 626.808 227.81C626.808 228.035 626.763 228.35 626.703 228.605L625.518 233H627.333L628.488 228.68C628.608 228.215 628.728 227.705 628.728 227.285C628.728 225.83 627.768 224.915 626.313 224.915C625.293 224.915 624.528 225.47 623.913 226.085L625.008 222.05H623.193L620.253 233ZM633.845 233.18C635.105 233.18 636.245 232.64 637.07 231.8C637.94 230.945 638.465 229.76 638.465 228.545C638.465 226.445 637.01 224.915 634.745 224.915C633.485 224.915 632.345 225.455 631.52 226.295C630.65 227.165 630.125 228.335 630.125 229.565C630.125 231.65 631.58 233.18 633.845 233.18ZM633.95 231.605C632.75 231.605 631.925 230.855 631.925 229.505C631.925 228.74 632.27 227.855 632.885 227.255C633.35 226.805 633.965 226.49 634.64 226.49C635.84 226.49 636.665 227.24 636.665 228.59C636.665 229.355 636.32 230.24 635.705 230.84C635.255 231.305 634.625 231.605 633.95 231.605ZM643.542 233.18C644.802 233.18 645.942 232.64 646.767 231.8C647.637 230.945 648.162 229.76 648.162 228.545C648.162 226.445 646.707 224.915 644.442 224.915C643.182 224.915 642.042 225.455 641.217 226.295C640.347 227.165 639.822 228.335 639.822 229.565C639.822 231.65 641.277 233.18 643.542 233.18ZM643.647 231.605C642.447 231.605 641.622 230.855 641.622 229.505C641.622 228.74 641.967 227.855 642.582 227.255C643.047 226.805 643.662 226.49 644.337 226.49C645.537 226.49 646.362 227.24 646.362 228.59C646.362 229.355 646.017 230.24 645.402 230.84C644.952 231.305 644.322 231.605 643.647 231.605ZM649.025 233H650.84L653.78 222.05H651.965L649.025 233ZM653.932 229.295H658.372L658.852 227.51H654.412L653.932 229.295ZM657.953 233H659.963L661.703 230.465H666.668L667.073 233H668.963L667.178 222.425H665.408L657.953 233ZM662.828 228.83L665.768 224.585L666.443 228.83H662.828ZM673.453 235.43C674.863 235.43 675.838 235.055 676.573 234.32C677.188 233.72 677.533 233.06 677.923 231.62L679.663 225.08H677.848L677.473 226.505C677.038 225.695 676.363 224.915 674.863 224.915C673.768 224.915 672.673 225.395 671.863 226.205C671.038 227.03 670.483 228.185 670.483 229.505C670.483 231.35 671.968 232.37 673.528 232.37C674.638 232.37 675.418 231.935 676.243 231.17L676.108 231.65C675.913 232.34 675.673 232.865 675.283 233.255C674.833 233.705 674.203 233.96 673.348 233.96C672.283 233.96 671.233 233.585 670.393 232.955L669.388 234.215C670.408 234.98 671.908 235.43 673.453 235.43ZM674.203 230.885C673.183 230.885 672.373 230.315 672.373 229.19C672.373 228.44 672.688 227.75 673.198 227.24C673.693 226.76 674.338 226.46 675.043 226.46C676.213 226.46 676.963 227.225 676.963 228.23C676.963 228.92 676.663 229.55 676.153 230.06C675.643 230.57 674.938 230.885 674.203 230.885ZM687.898 229.67C688.123 229.13 688.243 228.545 688.243 227.99C688.243 226.265 687.118 224.915 685.078 224.915C683.788 224.915 682.678 225.455 681.868 226.265C680.953 227.18 680.413 228.455 680.413 229.715C680.413 231.83 681.793 233.18 683.983 233.18C685.348 233.18 686.338 232.715 687.088 232.085L686.233 230.945C685.543 231.44 684.928 231.695 684.163 231.695C682.828 231.695 682.138 230.855 682.138 229.67H687.898ZM683.113 227.18C683.593 226.7 684.223 226.4 684.943 226.4C686.038 226.4 686.518 227.09 686.518 227.915C686.518 228.14 686.488 228.335 686.443 228.47H682.333C682.498 227.975 682.768 227.525 683.113 227.18ZM694.777 233H696.592L699.532 222.05H697.717L696.517 226.49C696.037 225.605 695.242 224.915 693.847 224.915C692.752 224.915 691.687 225.395 690.877 226.205C690.007 227.075 689.437 228.32 689.437 229.775C689.437 231.875 690.772 233.165 692.527 233.165C693.562 233.165 694.357 232.67 695.062 231.95L694.777 233ZM693.217 231.605C692.077 231.605 691.327 230.855 691.327 229.655C691.327 228.68 691.702 227.825 692.287 227.24C692.767 226.76 693.397 226.475 694.072 226.475C695.242 226.475 696.067 227.315 696.067 228.47C696.067 229.355 695.677 230.18 695.077 230.78C694.567 231.305 693.892 231.605 693.217 231.605Z" fill="#363636"/>
<path d="M627.572 255.5C626.672 255.5 625.967 255.17 625.172 254.51L624.167 255.92C625.052 256.655 626.072 257.18 627.527 257.18C630.362 257.18 632.027 254.84 632.027 251.465V251.435C632.027 249.365 631.532 248.21 630.767 247.445C630.017 246.695 629.162 246.32 627.842 246.32C625.517 246.32 623.927 247.895 623.927 249.95V249.98C623.927 252.005 625.412 253.31 627.647 253.31C628.727 253.31 629.537 252.89 630.122 252.2C630.092 253.595 629.417 255.5 627.572 255.5ZM627.917 251.765C626.612 251.765 625.772 250.985 625.772 249.905V249.875C625.772 248.78 626.552 247.925 627.857 247.925C629.192 247.925 630.047 248.75 630.047 249.845V249.875C630.047 250.895 629.252 251.765 627.917 251.765ZM633.725 253.295H638.165V251.51H633.725V253.295ZM641.224 257H643.054V246.425H641.779L638.944 247.325L639.334 248.825L641.224 248.3V257ZM647.171 257H649.001V246.425H647.726L644.891 247.325L645.281 248.825L647.171 248.3V257ZM656.071 257H657.901V252.53C657.901 251.3 658.636 250.565 659.686 250.565C660.766 250.565 661.381 251.27 661.381 252.5V257H663.196V251.945C663.196 250.115 662.161 248.915 660.376 248.915C659.146 248.915 658.411 249.56 657.901 250.295V246.05H656.071V257ZM665.373 257H667.203V253.985C667.203 251.885 668.313 250.85 669.903 250.85H670.008V248.93C668.613 248.87 667.698 249.68 667.203 250.865V249.08H665.373V257ZM674.299 257.15C675.949 257.15 677.239 256.325 677.239 254.66V254.63C677.239 253.205 675.934 252.68 674.779 252.32C673.849 252.02 672.994 251.78 672.994 251.195V251.165C672.994 250.73 673.399 250.385 674.104 250.385C674.764 250.385 675.574 250.67 676.339 251.135L677.059 249.845C676.219 249.29 675.139 248.945 674.149 248.945C672.574 248.945 671.329 249.86 671.329 251.375V251.405C671.329 252.905 672.634 253.385 673.804 253.715C674.734 254 675.574 254.21 675.574 254.825V254.855C675.574 255.38 675.124 255.71 674.344 255.71C673.534 255.71 672.619 255.38 671.749 254.735L670.939 255.965C671.929 256.76 673.174 257.15 674.299 257.15Z" fill="#363636"/>
<path d="M768.003 233H769.848L772.218 224.21H775.548L776.013 222.5H767.493L767.028 224.21H770.373L768.003 233ZM781.492 229.67C781.717 229.13 781.837 228.545 781.837 227.99C781.837 226.265 780.712 224.915 778.672 224.915C777.382 224.915 776.272 225.455 775.462 226.265C774.547 227.18 774.007 228.455 774.007 229.715C774.007 231.83 775.387 233.18 777.577 233.18C778.942 233.18 779.932 232.715 780.682 232.085L779.827 230.945C779.137 231.44 778.522 231.695 777.757 231.695C776.422 231.695 775.732 230.855 775.732 229.67H781.492ZM776.707 227.18C777.187 226.7 777.817 226.4 778.537 226.4C779.632 226.4 780.112 227.09 780.112 227.915C780.112 228.14 780.082 228.335 780.037 228.47H775.927C776.092 227.975 776.362 227.525 776.707 227.18ZM790.486 229.67C790.711 229.13 790.831 228.545 790.831 227.99C790.831 226.265 789.706 224.915 787.666 224.915C786.376 224.915 785.266 225.455 784.456 226.265C783.541 227.18 783.001 228.455 783.001 229.715C783.001 231.83 784.381 233.18 786.571 233.18C787.936 233.18 788.926 232.715 789.676 232.085L788.821 230.945C788.131 231.44 787.516 231.695 786.751 231.695C785.416 231.695 784.726 230.855 784.726 229.67H790.486ZM785.701 227.18C786.181 226.7 786.811 226.4 787.531 226.4C788.626 226.4 789.106 227.09 789.106 227.915C789.106 228.14 789.076 228.335 789.031 228.47H784.921C785.086 227.975 785.356 227.525 785.701 227.18ZM791.41 233H793.225L794.425 228.545C794.74 227.375 795.58 226.565 796.6 226.565C797.455 226.565 797.965 227.015 797.965 227.81C797.965 228.035 797.92 228.35 797.86 228.605L796.675 233H798.49L799.645 228.68C799.765 228.215 799.885 227.705 799.885 227.285C799.885 225.83 798.925 224.915 797.47 224.915C796.45 224.915 795.685 225.47 795.07 226.085L795.34 225.08H793.525L791.41 233Z" fill="#363636"/>
<path d="M758.011 257.15C760.306 257.15 762.016 255.98 762.016 254.105V254.075C762.016 252.83 761.281 252.08 760.126 251.555C761.011 251.09 761.656 250.385 761.656 249.215V249.185C761.656 247.565 760.111 246.35 758.011 246.35C755.911 246.35 754.366 247.58 754.366 249.185V249.215C754.366 250.385 755.011 251.09 755.896 251.555C754.711 252.05 754.006 252.845 754.006 254.105V254.135C754.006 255.95 755.716 257.15 758.011 257.15ZM758.011 250.94C756.931 250.94 756.136 250.295 756.136 249.38V249.35C756.136 248.555 756.886 247.895 758.011 247.895C759.136 247.895 759.886 248.555 759.886 249.365V249.395C759.886 250.295 759.091 250.94 758.011 250.94ZM758.011 255.605C756.631 255.605 755.821 254.885 755.821 254.03V254C755.821 253.04 756.766 252.41 758.011 252.41C759.256 252.41 760.216 253.04 760.216 254V254.03C760.216 254.9 759.391 255.605 758.011 255.605ZM763.574 253.295H768.014V251.51H763.574V253.295ZM771.073 257H772.903V246.425H771.628L768.793 247.325L769.183 248.825L771.073 248.3V257ZM779.765 257.18C782.525 257.18 784.355 254.75 784.355 251.75V251.72C784.355 248.72 782.54 246.32 779.795 246.32C777.035 246.32 775.205 248.75 775.205 251.75V251.78C775.205 254.78 777.005 257.18 779.765 257.18ZM779.795 255.515C778.16 255.515 777.11 253.82 777.11 251.75V251.72C777.11 249.635 778.145 247.985 779.765 247.985C781.385 247.985 782.45 249.68 782.45 251.75V251.78C782.45 253.835 781.43 255.515 779.795 255.515ZM790.842 257H792.657V252.53C792.657 251.3 793.392 250.565 794.442 250.565C795.522 250.565 796.137 251.27 796.137 252.5V257H797.952V251.945C797.952 250.115 796.917 248.915 795.132 248.915C793.902 248.915 793.167 249.56 792.657 250.295V246.05H790.842V257ZM800.143 257H801.958V253.985C801.958 251.885 803.068 250.85 804.658 250.85H804.763V248.93C803.368 248.87 802.453 249.68 801.958 250.865V249.08H800.143V257ZM809.055 257.15C810.705 257.15 811.995 256.325 811.995 254.66V254.63C811.995 253.205 810.69 252.68 809.535 252.32C808.605 252.02 807.75 251.78 807.75 251.195V251.165C807.75 250.715 808.155 250.385 808.86 250.385C809.52 250.385 810.33 250.67 811.095 251.135L811.815 249.845C810.975 249.29 809.895 248.945 808.905 248.945C807.33 248.945 806.085 249.86 806.085 251.36V251.39C806.085 252.905 807.39 253.385 808.56 253.715C809.49 254 810.33 254.21 810.33 254.825V254.855C810.33 255.38 809.88 255.71 809.1 255.71C808.29 255.71 807.375 255.38 806.505 254.735L805.695 255.965C806.685 256.745 807.93 257.15 809.055 257.15Z" fill="#363636"/>
<path d="M895.352 233H897.362L899.102 230.465H904.067L904.472 233H906.362L904.577 222.425H902.807L895.352 233ZM900.227 228.83L903.167 224.585L903.842 228.83H900.227ZM913.192 233H915.007L917.947 222.05H916.132L914.932 226.49C914.452 225.605 913.657 224.915 912.262 224.915C911.167 224.915 910.102 225.395 909.292 226.205C908.422 227.075 907.852 228.32 907.852 229.775C907.852 231.875 909.187 233.165 910.942 233.165C911.977 233.165 912.772 232.67 913.477 231.95L913.192 233ZM911.632 231.605C910.492 231.605 909.742 230.855 909.742 229.655C909.742 228.68 910.117 227.825 910.702 227.24C911.182 226.76 911.812 226.475 912.487 226.475C913.657 226.475 914.482 227.315 914.482 228.47C914.482 229.355 914.092 230.18 913.492 230.78C912.982 231.305 912.307 231.605 911.632 231.605ZM920.331 233.165C921.351 233.165 922.116 232.61 922.731 231.98L922.461 233H924.276L926.391 225.08H924.576L923.376 229.535C923.076 230.705 922.221 231.515 921.201 231.515C920.346 231.515 919.836 231.065 919.836 230.27C919.836 230.045 919.881 229.715 919.956 229.475L921.126 225.08H919.311L918.156 229.4C918.036 229.865 917.931 230.375 917.931 230.795C917.931 232.25 918.876 233.165 920.331 233.165ZM926.648 233H928.463L931.403 222.05H929.588L926.648 233ZM933.7 233.135C934.255 233.135 934.75 233.045 935.185 232.85L935.605 231.275C935.215 231.44 934.81 231.53 934.45 231.53C933.94 231.53 933.655 231.32 933.655 230.915C933.655 230.795 933.685 230.615 933.715 230.465L934.735 226.64H936.85L937.27 225.08H935.155L935.74 222.905H933.925L933.34 225.08H932.335L931.915 226.64H932.92L931.855 230.66C931.765 230.96 931.72 231.275 931.72 231.575C931.72 232.505 932.425 233.135 933.7 233.135Z" fill="#363636"/>
<path d="M892.008 257H894.093L898.818 247.895V246.5H891.438V248.12H896.718L892.008 257ZM899.945 253.295H904.385V251.51H899.945V253.295ZM909.758 255.5C908.858 255.5 908.153 255.17 907.358 254.51L906.353 255.92C907.238 256.655 908.258 257.18 909.713 257.18C912.548 257.18 914.213 254.84 914.213 251.465V251.435C914.213 249.365 913.718 248.21 912.953 247.43C912.203 246.695 911.348 246.32 910.028 246.32C907.703 246.32 906.113 247.895 906.113 249.95V249.98C906.113 252.005 907.598 253.31 909.833 253.31C910.913 253.31 911.723 252.89 912.308 252.185C912.293 253.58 911.618 255.5 909.758 255.5ZM910.103 251.765C908.798 251.765 907.958 250.985 907.958 249.89V249.86C907.958 248.78 908.738 247.91 910.043 247.91C911.378 247.91 912.233 248.75 912.233 249.845V249.875C912.233 250.895 911.438 251.765 910.103 251.765ZM920.709 257H922.524V252.53C922.524 251.3 923.259 250.565 924.309 250.565C925.389 250.565 926.004 251.27 926.004 252.5V257H927.819V251.945C927.819 250.115 926.784 248.915 924.999 248.915C923.769 248.915 923.034 249.56 922.524 250.295V246.05H920.709V257ZM930.011 257H931.826V253.985C931.826 251.885 932.936 250.85 934.526 250.85H934.631V248.93C933.236 248.87 932.321 249.68 931.826 250.865V249.08H930.011V257ZM938.922 257.15C940.572 257.15 941.862 256.325 941.862 254.66V254.63C941.862 253.205 940.557 252.68 939.402 252.32C938.472 252.02 937.617 251.78 937.617 251.195V251.165C937.617 250.715 938.022 250.385 938.727 250.385C939.387 250.385 940.197 250.67 940.962 251.135L941.682 249.845C940.842 249.29 939.762 248.945 938.772 248.945C937.197 248.945 935.952 249.86 935.952 251.36V251.39C935.952 252.905 937.257 253.385 938.427 253.715C939.357 254 940.197 254.21 940.197 254.825V254.855C940.197 255.38 939.747 255.71 938.967 255.71C938.157 255.71 937.242 255.38 936.372 254.735L935.562 255.965C936.552 256.745 937.797 257.15 938.922 257.15Z" fill="#363636"/>
<path d="M1026.45 233.15C1027.71 233.15 1028.86 232.73 1029.63 231.965C1030.18 231.41 1030.54 230.675 1030.54 229.79C1030.54 228.32 1029.54 227.6 1027.93 226.97C1026.42 226.37 1025.89 226.04 1025.89 225.365C1025.89 224.66 1026.61 223.985 1027.84 223.985C1028.94 223.985 1029.75 224.405 1030.54 225.185L1031.83 223.925C1030.98 222.98 1029.72 222.35 1027.98 222.35C1026.69 222.35 1025.56 222.77 1024.81 223.52C1024.26 224.075 1023.94 224.81 1023.94 225.65C1023.94 227.105 1025.04 227.825 1026.64 228.47C1028.14 229.055 1028.58 229.43 1028.58 230.06C1028.58 230.93 1027.72 231.515 1026.55 231.515C1025.2 231.515 1024.24 231.005 1023.39 230.03L1021.99 231.185C1022.95 232.46 1024.47 233.15 1026.45 233.15ZM1039.7 229.67C1039.93 229.13 1040.05 228.545 1040.05 227.99C1040.05 226.265 1038.92 224.915 1036.88 224.915C1035.59 224.915 1034.48 225.455 1033.67 226.265C1032.76 227.18 1032.22 228.455 1032.22 229.715C1032.22 231.83 1033.6 233.18 1035.79 233.18C1037.15 233.18 1038.14 232.715 1038.89 232.085L1038.04 230.945C1037.35 231.44 1036.73 231.695 1035.97 231.695C1034.63 231.695 1033.94 230.855 1033.94 229.67H1039.7ZM1034.92 227.18C1035.4 226.7 1036.03 226.4 1036.75 226.4C1037.84 226.4 1038.32 227.09 1038.32 227.915C1038.32 228.14 1038.29 228.335 1038.25 228.47H1034.14C1034.3 227.975 1034.57 227.525 1034.92 227.18ZM1040.63 233H1042.44L1043.64 228.545C1043.96 227.375 1044.8 226.565 1045.82 226.565C1046.67 226.565 1047.18 227.015 1047.18 227.81C1047.18 228.035 1047.14 228.35 1047.08 228.605L1045.89 233H1047.71L1048.86 228.68C1048.98 228.215 1049.1 227.705 1049.1 227.285C1049.1 225.83 1048.14 224.915 1046.69 224.915C1045.67 224.915 1044.9 225.47 1044.29 226.085L1044.56 225.08H1042.74L1040.63 233ZM1050 233H1051.82L1053.95 225.08H1052.13L1050 233ZM1052.39 223.865H1054.34L1054.82 222.14H1052.85L1052.39 223.865ZM1058.51 233.18C1059.77 233.18 1060.91 232.64 1061.74 231.8C1062.61 230.945 1063.13 229.76 1063.13 228.545C1063.13 226.445 1061.68 224.915 1059.41 224.915C1058.15 224.915 1057.01 225.455 1056.19 226.295C1055.32 227.165 1054.79 228.335 1054.79 229.565C1054.79 231.65 1056.25 233.18 1058.51 233.18ZM1058.62 231.605C1057.42 231.605 1056.59 230.855 1056.59 229.505C1056.59 228.74 1056.94 227.855 1057.55 227.255C1058.02 226.805 1058.63 226.49 1059.31 226.49C1060.51 226.49 1061.33 227.24 1061.33 228.59C1061.33 229.355 1060.99 230.24 1060.37 230.84C1059.92 231.305 1059.29 231.605 1058.62 231.605ZM1063.89 233H1065.7L1066.5 230.06C1067.1 227.87 1068.46 226.85 1070.05 226.85H1070.16L1070.67 224.93C1069.26 224.84 1068.22 225.605 1067.35 226.865L1067.82 225.08H1066L1063.89 233Z" fill="#363636"/>
<path d="M1021.71 257H1023.79L1028.52 247.895V246.5H1021.14V248.12H1026.42L1021.71 257ZM1029.64 253.295H1034.08V251.51H1029.64V253.295ZM1039.65 257.15C1041.95 257.15 1043.66 255.995 1043.66 254.105V254.075C1043.66 252.83 1042.92 252.08 1041.77 251.555C1042.65 251.09 1043.3 250.385 1043.3 249.215V249.185C1043.3 247.565 1041.75 246.35 1039.65 246.35C1037.55 246.35 1036.01 247.58 1036.01 249.185V249.215C1036.01 250.385 1036.65 251.09 1037.54 251.555C1036.35 252.05 1035.65 252.845 1035.65 254.105V254.135C1035.65 255.95 1037.36 257.15 1039.65 257.15ZM1039.65 250.94C1038.57 250.94 1037.78 250.295 1037.78 249.395V249.365C1037.78 248.555 1038.53 247.895 1039.65 247.895C1040.78 247.895 1041.53 248.555 1041.53 249.365V249.395C1041.53 250.295 1040.73 250.94 1039.65 250.94ZM1039.65 255.605C1038.27 255.605 1037.46 254.885 1037.46 254.03V254C1037.46 253.04 1038.41 252.425 1039.65 252.425C1040.9 252.425 1041.84 253.04 1041.84 254V254.03C1041.84 254.9 1041.03 255.605 1039.65 255.605ZM1050 257H1051.83V252.53C1051.83 251.3 1052.56 250.565 1053.61 250.565C1054.69 250.565 1055.31 251.27 1055.31 252.5V257H1057.12V251.945C1057.12 250.115 1056.09 248.915 1054.3 248.915C1053.07 248.915 1052.34 249.56 1051.83 250.295V246.05H1050V257ZM1059.3 257H1061.13V253.985C1061.13 251.885 1062.24 250.85 1063.83 250.85H1063.93V248.93C1062.54 248.87 1061.62 249.68 1061.13 250.865V249.08H1059.3V257ZM1068.22 257.15C1069.87 257.15 1071.16 256.325 1071.16 254.66V254.63C1071.16 253.205 1069.86 252.68 1068.7 252.32C1067.77 252.02 1066.92 251.78 1066.92 251.195V251.165C1066.92 250.73 1067.32 250.385 1068.03 250.385C1068.69 250.385 1069.5 250.67 1070.26 251.135L1070.98 249.845C1070.14 249.29 1069.06 248.945 1068.07 248.945C1066.5 248.945 1065.25 249.86 1065.25 251.375V251.405C1065.25 252.905 1066.56 253.385 1067.73 253.715C1068.66 254 1069.5 254.21 1069.5 254.825V254.855C1069.5 255.38 1069.05 255.71 1068.27 255.71C1067.46 255.71 1066.54 255.38 1065.67 254.735L1064.86 255.965C1065.85 256.76 1067.1 257.15 1068.22 257.15Z" fill="#363636"/>
<path d="M80.4165 369.18C83.1765 369.18 85.0065 366.75 85.0065 363.75V363.72C85.0065 360.72 83.1915 358.32 80.4465 358.32C77.6865 358.32 75.8565 360.75 75.8565 363.75V363.78C75.8565 366.78 77.6565 369.18 80.4165 369.18ZM80.4465 367.515C78.8115 367.515 77.7615 365.82 77.7615 363.75V363.72C77.7615 361.635 78.7965 359.985 80.4165 359.985C82.0365 359.985 83.1015 361.68 83.1015 363.75V363.78C83.1015 365.835 82.0815 367.515 80.4465 367.515ZM86.696 365.295H91.136V363.51H86.696V365.295ZM96.4975 369.18C98.6875 369.18 100.173 367.785 100.173 365.85V365.82C100.173 363.885 98.6725 363.075 97.0825 362.88L100.008 359.88V358.5H93.0625V360.105H97.6075L94.7725 363.12L95.0725 364.275H95.9275C97.3975 364.275 98.3425 364.86 98.3425 365.895V365.925C98.3425 366.885 97.5625 367.515 96.5275 367.515C95.3575 367.515 94.5175 367.02 93.7675 366.135L92.4775 367.335C93.3625 368.415 94.6675 369.18 96.4975 369.18ZM106.742 369H108.557V364.53C108.557 363.315 109.247 362.565 110.252 362.565C111.257 362.565 111.857 363.255 111.857 364.485V369H113.672V364.53C113.672 363.255 114.377 362.565 115.367 362.565C116.387 362.565 116.972 363.24 116.972 364.5V369H118.787V363.945C118.787 362.01 117.737 360.915 116.012 360.915C114.812 360.915 113.972 361.47 113.342 362.31C112.922 361.47 112.112 360.915 110.972 360.915C109.757 360.915 109.067 361.575 108.557 362.28V361.08H106.742V369ZM124.76 369.18C127.205 369.18 129.005 367.305 129.005 365.055V365.025C129.005 362.76 127.22 360.915 124.79 360.915C122.36 360.915 120.56 362.79 120.56 365.055V365.085C120.56 367.335 122.345 369.18 124.76 369.18ZM124.79 367.59C123.38 367.59 122.375 366.435 122.375 365.055V365.025C122.375 363.645 123.305 362.505 124.76 362.505C126.185 362.505 127.19 363.66 127.19 365.055V365.085C127.19 366.45 126.26 367.59 124.79 367.59ZM130.853 369H132.668V364.53C132.668 363.3 133.403 362.565 134.453 362.565C135.533 362.565 136.148 363.27 136.148 364.5V369H137.963V363.945C137.963 362.115 136.928 360.915 135.143 360.915C133.913 360.915 133.178 361.56 132.668 362.295V361.08H130.853V369ZM142.81 369.135C143.5 369.135 143.995 368.985 144.445 368.73V367.245C144.085 367.425 143.725 367.515 143.32 367.515C142.705 367.515 142.345 367.23 142.345 366.525V362.64H144.475V361.08H142.345V358.905H140.53V361.08H139.525V362.64H140.53V366.81C140.53 368.55 141.475 369.135 142.81 369.135ZM146.322 369H148.137V364.53C148.137 363.3 148.872 362.565 149.922 362.565C151.002 362.565 151.617 363.27 151.617 364.5V369H153.432V363.945C153.432 362.115 152.397 360.915 150.612 360.915C149.382 360.915 148.647 361.56 148.137 362.295V358.05H146.322V369ZM158.339 369.15C159.989 369.15 161.279 368.325 161.279 366.66V366.63C161.279 365.205 159.974 364.68 158.819 364.32C157.889 364.02 157.034 363.78 157.034 363.195V363.165C157.034 362.715 157.439 362.385 158.144 362.385C158.804 362.385 159.614 362.67 160.379 363.135L161.099 361.845C160.259 361.29 159.179 360.945 158.189 360.945C156.614 360.945 155.369 361.86 155.369 363.36V363.39C155.369 364.905 156.674 365.385 157.844 365.715C158.774 366 159.614 366.21 159.614 366.825V366.855C159.614 367.38 159.164 367.71 158.384 367.71C157.574 367.71 156.659 367.38 155.789 366.735L154.979 367.965C155.969 368.745 157.214 369.15 158.339 369.15Z" fill="#363636"/>
<path d="M214.347 369H216.117V366.645H217.617V365.13H216.117V358.425H214.542L208.707 365.325L209.052 366.645H214.347V369ZM210.897 365.13L214.347 360.975V365.13H210.897ZM219.231 365.295H223.671V363.51H219.231V365.295ZM226.73 369H228.56V358.425H227.285L224.45 359.325L224.84 360.825L226.73 360.3V369ZM232.677 369H234.507V358.425H233.232L230.397 359.325L230.787 360.825L232.677 360.3V369ZM241.577 369H243.407V364.53C243.407 363.315 244.097 362.565 245.102 362.565C246.107 362.565 246.707 363.255 246.707 364.485V369H248.522V364.53C248.522 363.255 249.227 362.565 250.217 362.565C251.237 362.565 251.822 363.24 251.822 364.5V369H253.637V363.945C253.637 362.01 252.587 360.915 250.862 360.915C249.662 360.915 248.822 361.47 248.192 362.31C247.772 361.47 246.962 360.915 245.822 360.915C244.607 360.915 243.917 361.575 243.407 362.28V361.08H241.577V369ZM259.595 369.18C262.04 369.18 263.84 367.305 263.84 365.055V365.025C263.84 362.76 262.055 360.915 259.625 360.915C257.195 360.915 255.395 362.79 255.395 365.055V365.085C255.395 367.335 257.18 369.18 259.595 369.18ZM259.625 367.59C258.215 367.59 257.21 366.435 257.21 365.055V365.025C257.21 363.645 258.14 362.505 259.595 362.505C261.02 362.505 262.025 363.66 262.025 365.055V365.085C262.025 366.45 261.095 367.59 259.625 367.59ZM265.673 369H267.503V364.53C267.503 363.3 268.238 362.565 269.288 362.565C270.368 362.565 270.983 363.27 270.983 364.5V369H272.798V363.945C272.798 362.115 271.763 360.915 269.978 360.915C268.748 360.915 268.013 361.56 267.503 362.295V361.08H265.673V369ZM277.645 369.135C278.335 369.135 278.83 368.985 279.28 368.73V367.245C278.92 367.425 278.56 367.515 278.155 367.515C277.54 367.515 277.18 367.23 277.18 366.525V362.64H279.31V361.08H277.18V358.905H275.365V361.08H274.36V362.64H275.365V366.81C275.365 368.55 276.31 369.135 277.645 369.135ZM281.142 369H282.972V364.53C282.972 363.3 283.707 362.565 284.757 362.565C285.837 362.565 286.452 363.27 286.452 364.5V369H288.267V363.945C288.267 362.115 287.232 360.915 285.447 360.915C284.217 360.915 283.482 361.56 282.972 362.295V358.05H281.142V369ZM293.174 369.15C294.824 369.15 296.114 368.325 296.114 366.66V366.63C296.114 365.205 294.809 364.68 293.654 364.32C292.724 364.02 291.869 363.78 291.869 363.195V363.165C291.869 362.73 292.274 362.385 292.979 362.385C293.639 362.385 294.449 362.67 295.214 363.135L295.934 361.845C295.094 361.29 294.014 360.945 293.024 360.945C291.449 360.945 290.204 361.86 290.204 363.375V363.405C290.204 364.905 291.509 365.385 292.679 365.715C293.609 366 294.449 366.21 294.449 366.825V366.855C294.449 367.38 293.999 367.71 293.219 367.71C292.409 367.71 291.494 367.38 290.624 366.735L289.814 367.965C290.804 368.76 292.049 369.15 293.174 369.15Z" fill="#363636"/>
<path d="M363.963 369H365.793V358.425H364.518L361.683 359.325L362.073 360.825L363.963 360.3V369ZM368.081 365.295H372.521V363.51H368.081V365.295ZM374.099 369H381.689V367.38H376.694L378.854 365.58C380.714 364.065 381.584 363.18 381.584 361.515V361.485C381.584 359.61 380.174 358.35 378.119 358.35C376.244 358.35 375.254 359.145 374.249 360.54L375.569 361.575C376.364 360.525 377.024 360 377.984 360C378.944 360 379.679 360.615 379.679 361.635C379.679 362.58 379.139 363.24 377.714 364.47L374.099 367.545V369ZM391.62 366.96L389.4 361.08H387.45L390.75 369.015C390.45 369.69 390.135 369.915 389.625 369.915C389.25 369.915 388.89 369.795 388.56 369.615L387.945 370.95C388.5 371.265 389.07 371.445 389.82 371.445C391.095 371.445 391.8 370.845 392.43 369.21L395.58 361.08H393.69L391.62 366.96ZM397.121 369H398.951V365.985C398.951 363.885 400.061 362.85 401.651 362.85H401.756V360.93C400.361 360.87 399.446 361.68 398.951 362.865V361.08H397.121V369ZM406.047 369.15C407.697 369.15 408.987 368.325 408.987 366.66V366.63C408.987 365.205 407.682 364.68 406.527 364.32C405.597 364.02 404.742 363.78 404.742 363.195V363.165C404.742 362.73 405.147 362.385 405.852 362.385C406.512 362.385 407.322 362.67 408.087 363.135L408.807 361.845C407.967 361.29 406.887 360.945 405.897 360.945C404.322 360.945 403.077 361.86 403.077 363.375V363.405C403.077 364.905 404.382 365.385 405.552 365.715C406.482 366 407.322 366.21 407.322 366.825V366.855C407.322 367.38 406.872 367.71 406.092 367.71C405.282 367.71 404.367 367.38 403.497 366.735L402.687 367.965C403.677 368.76 404.922 369.15 406.047 369.15Z" fill="#363636"/>
<path d="M496.723 369.18C498.913 369.18 500.398 367.785 500.398 365.85V365.82C500.398 363.885 498.898 363.075 497.308 362.88L500.233 359.88V358.5H493.288V360.105H497.833L494.998 363.12L495.298 364.275H496.153C497.623 364.275 498.568 364.86 498.568 365.895V365.925C498.568 366.885 497.773 367.515 496.753 367.515C495.583 367.515 494.743 367.02 493.993 366.135L492.703 367.35C493.588 368.415 494.893 369.18 496.723 369.18ZM502.17 365.295H506.61V363.51H502.17V365.295ZM512.013 369.18C514.338 369.18 515.913 367.77 515.913 365.625V365.595C515.913 363.375 514.293 362.295 512.253 362.295C511.548 362.295 511.083 362.415 510.588 362.595L510.753 360.15H515.448V358.5H509.163L508.863 363.645L509.973 364.38C510.513 364.125 511.158 363.915 511.908 363.915C513.183 363.915 514.083 364.59 514.083 365.655V365.685C514.083 366.78 513.258 367.5 511.998 367.5C511.023 367.5 510.138 367.02 509.298 366.24L508.158 367.575C509.148 368.535 510.408 369.18 512.013 369.18ZM525.856 366.96L523.636 361.08H521.686L524.986 369.015C524.686 369.69 524.371 369.915 523.861 369.915C523.486 369.915 523.126 369.795 522.796 369.615L522.181 370.95C522.736 371.265 523.306 371.445 524.056 371.445C525.331 371.445 526.036 370.845 526.666 369.21L529.816 361.08H527.926L525.856 366.96ZM531.356 369H533.186V365.985C533.186 363.885 534.296 362.85 535.886 362.85H535.991V360.93C534.596 360.87 533.681 361.68 533.186 362.865V361.08H531.356V369ZM540.283 369.15C541.933 369.15 543.223 368.325 543.223 366.66V366.63C543.223 365.205 541.918 364.68 540.763 364.32C539.833 364.02 538.978 363.78 538.978 363.195V363.165C538.978 362.73 539.383 362.385 540.088 362.385C540.748 362.385 541.558 362.67 542.323 363.135L543.043 361.845C542.203 361.29 541.123 360.945 540.133 360.945C538.558 360.945 537.313 361.86 537.313 363.375V363.405C537.313 364.905 538.618 365.385 539.788 365.715C540.718 366 541.558 366.21 541.558 366.825V366.855C541.558 367.38 541.108 367.71 540.328 367.71C539.518 367.71 538.603 367.38 537.733 366.735L536.923 367.965C537.913 368.76 539.158 369.15 540.283 369.15Z" fill="#363636"/>
<path d="M627.117 369.18C629.322 369.18 631.017 367.695 631.017 365.61V365.58C631.017 363.48 629.382 362.28 627.357 362.28C626.232 362.28 625.452 362.7 624.837 363.345C624.867 361.905 625.527 360 627.357 360C628.287 360 628.902 360.345 629.637 360.93L630.627 359.49C629.712 358.755 628.782 358.32 627.417 358.32C624.447 358.32 622.917 360.825 622.917 364.035V364.065C622.917 366.18 623.397 367.275 624.192 368.07C624.897 368.775 625.827 369.18 627.117 369.18ZM627.072 367.575C625.767 367.575 624.897 366.765 624.897 365.7V365.67C624.897 364.665 625.722 363.825 627.027 363.825C628.332 363.825 629.172 364.605 629.172 365.655V365.685C629.172 366.765 628.377 367.575 627.072 367.575ZM632.746 365.295H637.186V363.51H632.746V365.295ZM640.245 369H642.075V358.425H640.8L637.965 359.325L638.355 360.825L640.245 360.3V369ZM648.187 369.18C650.377 369.18 651.862 367.785 651.862 365.85V365.82C651.862 363.885 650.362 363.075 648.772 362.88L651.697 359.88V358.5H644.752V360.105H649.297L646.462 363.12L646.762 364.275H647.617C649.087 364.275 650.032 364.86 650.032 365.895V365.925C650.032 366.885 649.237 367.515 648.217 367.515C647.047 367.515 646.207 367.02 645.457 366.135L644.167 367.35C645.052 368.415 646.357 369.18 648.187 369.18ZM661.852 366.96L659.632 361.08H657.682L660.982 369.015C660.682 369.69 660.367 369.915 659.857 369.915C659.482 369.915 659.122 369.795 658.792 369.615L658.177 370.95C658.732 371.265 659.302 371.445 660.052 371.445C661.327 371.445 662.032 370.845 662.662 369.21L665.812 361.08H663.922L661.852 366.96ZM667.352 369H669.182V365.985C669.182 363.885 670.292 362.85 671.882 362.85H671.987V360.93C670.592 360.87 669.677 361.68 669.182 362.865V361.08H667.352V369ZM676.278 369.15C677.928 369.15 679.218 368.325 679.218 366.66V366.63C679.218 365.205 677.913 364.68 676.758 364.32C675.828 364.02 674.973 363.78 674.973 363.195V363.165C674.973 362.73 675.378 362.385 676.083 362.385C676.743 362.385 677.553 362.67 678.318 363.135L679.038 361.845C678.198 361.29 677.118 360.945 676.128 360.945C674.553 360.945 673.308 361.86 673.308 363.375V363.405C673.308 364.905 674.613 365.385 675.783 365.715C676.713 366 677.553 366.21 677.553 366.825V366.855C677.553 367.38 677.103 367.71 676.323 367.71C675.513 367.71 674.598 367.38 673.728 366.735L672.918 367.965C673.908 368.76 675.153 369.15 676.278 369.15Z" fill="#363636"/>
<path d="M754.134 369H755.964V358.425H754.689L751.854 359.325L752.244 360.825L754.134 360.3V369ZM763.591 369H765.361V366.645H766.861V365.13H765.361V358.425H763.786L757.951 365.325L758.296 366.645H763.591V369ZM760.141 365.13L763.591 360.975V365.13H760.141ZM768.476 365.295H772.916V363.51H768.476V365.295ZM775.975 369H777.805V358.425H776.53L773.695 359.325L774.085 360.825L775.975 360.3V369ZM780.842 369H782.927L787.652 359.895V358.5H780.272V360.12H785.552L780.842 369ZM797.45 366.96L795.23 361.08H793.28L796.58 369.015C796.28 369.69 795.965 369.915 795.455 369.915C795.08 369.915 794.72 369.795 794.39 369.615L793.775 370.95C794.33 371.265 794.9 371.445 795.65 371.445C796.925 371.445 797.63 370.845 798.26 369.21L801.41 361.08H799.52L797.45 366.96ZM802.95 369H804.78V365.985C804.78 363.885 805.89 362.85 807.48 362.85H807.585V360.93C806.19 360.87 805.275 361.68 804.78 362.865V361.08H802.95V369ZM811.876 369.15C813.526 369.15 814.816 368.325 814.816 366.66V366.63C814.816 365.205 813.511 364.68 812.356 364.32C811.426 364.02 810.571 363.78 810.571 363.195V363.165C810.571 362.73 810.976 362.385 811.681 362.385C812.341 362.385 813.151 362.67 813.916 363.135L814.636 361.845C813.796 361.29 812.716 360.945 811.726 360.945C810.151 360.945 808.906 361.86 808.906 363.375V363.405C808.906 364.905 810.211 365.385 811.381 365.715C812.311 366 813.151 366.21 813.151 366.825V366.855C813.151 367.38 812.701 367.71 811.921 367.71C811.111 367.71 810.196 367.38 809.326 366.735L808.516 367.965C809.506 368.76 810.751 369.15 811.876 369.15Z" fill="#363636"/>
<path d="M884.805 369H886.635V358.425H885.36L882.525 359.325L882.915 360.825L884.805 360.3V369ZM892.807 369.15C895.102 369.15 896.812 367.995 896.812 366.105V366.075C896.812 364.83 896.077 364.08 894.922 363.555C895.807 363.09 896.452 362.385 896.452 361.215V361.185C896.452 359.565 894.907 358.35 892.807 358.35C890.707 358.35 889.162 359.58 889.162 361.185V361.215C889.162 362.385 889.807 363.09 890.692 363.555C889.507 364.05 888.802 364.845 888.802 366.105V366.135C888.802 367.95 890.512 369.15 892.807 369.15ZM892.807 362.94C891.727 362.94 890.932 362.295 890.932 361.395V361.365C890.932 360.555 891.682 359.895 892.807 359.895C893.932 359.895 894.682 360.555 894.682 361.365V361.395C894.682 362.295 893.887 362.94 892.807 362.94ZM892.807 367.605C891.427 367.605 890.617 366.885 890.617 366.03V366C890.617 365.04 891.562 364.425 892.807 364.425C894.052 364.425 894.997 365.04 894.997 366V366.03C894.997 366.9 894.187 367.605 892.807 367.605ZM898.37 365.295H902.81V363.51H898.37V365.295ZM908.708 369.18C910.913 369.18 912.608 367.695 912.608 365.61V365.58C912.608 363.48 910.973 362.28 908.948 362.28C907.823 362.28 907.043 362.7 906.428 363.345C906.458 361.905 907.118 360 908.948 360C909.878 360 910.493 360.345 911.228 360.93L912.218 359.49C911.303 358.755 910.373 358.32 909.008 358.32C906.038 358.32 904.508 360.825 904.508 364.035V364.065C904.508 366.18 904.988 367.275 905.783 368.07C906.488 368.775 907.418 369.18 908.708 369.18ZM908.663 367.575C907.358 367.575 906.488 366.765 906.488 365.7V365.67C906.488 364.665 907.313 363.825 908.618 363.825C909.923 363.825 910.763 364.605 910.763 365.655V365.685C910.763 366.765 909.968 367.575 908.663 367.575ZM919.677 369H921.447V366.645H922.947V365.13H921.447V358.425H919.872L914.037 365.325L914.382 366.645H919.677V369ZM916.227 365.13L919.677 360.975V365.13H916.227ZM932.779 366.96L930.559 361.08H928.609L931.909 369.015C931.609 369.69 931.294 369.915 930.784 369.915C930.409 369.915 930.049 369.795 929.719 369.615L929.104 370.95C929.659 371.265 930.229 371.445 930.979 371.445C932.254 371.445 932.959 370.845 933.589 369.21L936.739 361.08H934.849L932.779 366.96ZM938.279 369H940.109V365.985C940.109 363.885 941.219 362.85 942.809 362.85H942.914V360.93C941.519 360.87 940.604 361.68 940.109 362.865V361.08H938.279V369ZM947.206 369.15C948.856 369.15 950.146 368.325 950.146 366.66V366.63C950.146 365.205 948.841 364.68 947.686 364.32C946.756 364.02 945.901 363.78 945.901 363.195V363.165C945.901 362.73 946.306 362.385 947.011 362.385C947.671 362.385 948.481 362.67 949.246 363.135L949.966 361.845C949.126 361.29 948.046 360.945 947.056 360.945C945.481 360.945 944.236 361.86 944.236 363.375V363.405C944.236 364.905 945.541 365.385 946.711 365.715C947.641 366 948.481 366.21 948.481 366.825V366.855C948.481 367.38 948.031 367.71 947.251 367.71C946.441 367.71 945.526 367.38 944.656 366.735L943.846 367.965C944.836 368.76 946.081 369.15 947.206 369.15Z" fill="#363636"/>
<path d="M1014.43 369.18C1016.64 369.18 1018.33 367.695 1018.33 365.61V365.58C1018.33 363.48 1016.7 362.28 1014.67 362.28C1013.55 362.28 1012.77 362.7 1012.15 363.345C1012.18 361.905 1012.84 360 1014.67 360C1015.6 360 1016.22 360.345 1016.95 360.915L1017.94 359.49C1017.03 358.755 1016.1 358.32 1014.73 358.32C1011.76 358.32 1010.23 360.825 1010.23 364.035V364.065C1010.23 366.18 1010.71 367.275 1011.51 368.07C1012.21 368.775 1013.14 369.18 1014.43 369.18ZM1014.39 367.575C1013.08 367.575 1012.21 366.765 1012.21 365.7V365.67C1012.21 364.665 1013.04 363.825 1014.34 363.825C1015.65 363.825 1016.49 364.605 1016.49 365.655V365.685C1016.49 366.765 1015.69 367.575 1014.39 367.575ZM1023.78 369.18C1026.11 369.18 1027.68 367.77 1027.68 365.625V365.595C1027.68 363.375 1026.06 362.295 1024.02 362.295C1023.32 362.295 1022.85 362.415 1022.36 362.595L1022.52 360.135H1027.22V358.5H1020.93L1020.63 363.645L1021.74 364.38C1022.28 364.125 1022.93 363.915 1023.68 363.915C1024.95 363.915 1025.85 364.59 1025.85 365.655V365.685C1025.85 366.78 1025.03 367.5 1023.77 367.5C1022.79 367.5 1021.91 367.02 1021.07 366.24L1019.93 367.575C1020.92 368.535 1022.18 369.18 1023.78 369.18ZM1032.47 367.41H1034.18V364.545H1037.06V362.88H1034.18V360.03H1032.47V362.88H1029.59V364.545H1032.47V367.41ZM1047.15 366.96L1044.91 361.08H1042.96L1046.26 369.015C1045.96 369.69 1045.65 369.915 1045.14 369.915C1044.76 369.915 1044.4 369.795 1044.07 369.615L1043.46 370.965C1044.01 371.265 1044.58 371.445 1045.33 371.445C1046.61 371.445 1047.31 370.845 1047.94 369.225L1051.09 361.08H1049.2L1047.15 366.96ZM1055.82 369.18C1057.28 369.18 1058.31 368.595 1059.06 367.695L1058 366.75C1057.37 367.365 1056.74 367.695 1055.85 367.695C1054.68 367.695 1053.77 366.975 1053.57 365.685H1059.39C1059.41 365.505 1059.42 365.34 1059.42 365.175C1059.42 362.895 1058.15 360.915 1055.63 360.915C1053.36 360.915 1051.76 362.775 1051.76 365.04V365.07C1051.76 367.515 1053.53 369.18 1055.82 369.18ZM1053.56 364.485C1053.72 363.255 1054.5 362.4 1055.61 362.4C1056.81 362.4 1057.5 363.315 1057.62 364.485H1053.56ZM1063.53 369.165C1064.74 369.165 1065.57 368.655 1066.11 368.01V369H1067.88V364.305C1067.88 363.27 1067.61 362.43 1067.02 361.86C1066.47 361.29 1065.58 360.975 1064.4 360.975C1063.14 360.975 1062.28 361.23 1061.41 361.62L1061.89 363.045C1062.61 362.745 1063.27 362.55 1064.16 362.55C1065.43 362.55 1066.12 363.15 1066.12 364.275V364.47C1065.51 364.275 1064.88 364.14 1063.99 364.14C1062.06 364.14 1060.72 364.98 1060.72 366.69V366.72C1060.72 368.31 1062.04 369.165 1063.53 369.165ZM1064.04 367.845C1063.17 367.845 1062.49 367.41 1062.49 366.645V366.615C1062.49 365.79 1063.18 365.295 1064.35 365.295C1065.07 365.295 1065.69 365.43 1066.15 365.61V366.15C1066.15 367.155 1065.24 367.845 1064.04 367.845ZM1070.05 369H1071.87V365.985C1071.87 363.885 1072.98 362.85 1074.57 362.85H1074.67V360.93C1073.28 360.87 1072.36 361.68 1071.87 362.865V361.08H1070.05V369ZM1078.96 369.15C1080.61 369.15 1081.9 368.325 1081.9 366.66V366.63C1081.9 365.205 1080.6 364.68 1079.44 364.32C1078.51 364.02 1077.66 363.78 1077.66 363.195V363.165C1077.66 362.715 1078.06 362.385 1078.77 362.385C1079.43 362.385 1080.24 362.67 1081 363.135L1081.72 361.845C1080.88 361.29 1079.8 360.945 1078.81 360.945C1077.24 360.945 1075.99 361.86 1075.99 363.36V363.39C1075.99 364.905 1077.3 365.385 1078.47 365.715C1079.4 366 1080.24 366.21 1080.24 366.825V366.855C1080.24 367.38 1079.79 367.71 1079.01 367.71C1078.2 367.71 1077.28 367.38 1076.41 366.735L1075.6 367.965C1076.59 368.745 1077.84 369.15 1078.96 369.15Z" fill="#363636"/>
<path d="M1125.66 345H1127.55L1128.63 342.465H1133.59L1134.66 345H1136.61L1131.99 334.425H1130.28L1125.66 345ZM1129.3 340.83L1131.1 336.63L1132.92 340.83H1129.3ZM1141.34 347.43C1142.77 347.43 1143.88 347.085 1144.6 346.365C1145.26 345.705 1145.6 344.715 1145.6 343.38V337.08H1143.79V338.265C1143.17 337.53 1142.35 336.915 1141.01 336.915C1139.17 336.915 1137.41 338.295 1137.41 340.635V340.665C1137.41 342.99 1139.14 344.37 1141.01 344.37C1142.32 344.37 1143.14 343.77 1143.8 342.93V343.53C1143.8 345.12 1142.92 345.945 1141.3 345.945C1140.22 345.945 1139.33 345.645 1138.48 345.12L1137.8 346.485C1138.82 347.1 1140.04 347.43 1141.34 347.43ZM1141.49 342.825C1140.25 342.825 1139.24 341.94 1139.24 340.65V340.62C1139.24 339.315 1140.23 338.46 1141.49 338.46C1142.75 338.46 1143.82 339.33 1143.82 340.62V340.65C1143.82 341.94 1142.75 342.825 1141.49 342.825ZM1151.51 345.18C1152.97 345.18 1154 344.595 1154.75 343.695L1153.69 342.75C1153.06 343.365 1152.43 343.695 1151.54 343.695C1150.37 343.695 1149.46 342.975 1149.26 341.685H1155.08C1155.1 341.505 1155.11 341.34 1155.11 341.175C1155.11 338.895 1153.84 336.915 1151.32 336.915C1149.05 336.915 1147.45 338.775 1147.45 341.04V341.07C1147.45 343.515 1149.22 345.18 1151.51 345.18ZM1149.25 340.485C1149.41 339.255 1150.19 338.4 1151.3 338.4C1152.5 338.4 1153.19 339.315 1153.31 340.485H1149.25Z" fill="#363636"/>
</svg>
