<svg xmlns="http://www.w3.org/2000/svg" fill="none" viewBox="0 0 651 148" height="148" width="651">
<g filter="url(#filter0_d_1765_827)">
<mask fill="black" height="142" width="646" y="0.654053" x="5.18494" maskUnits="userSpaceOnUse" id="path-1-outside-1_1765_827">
<rect height="142" width="646" y="0.654053" x="5.18494" fill="white"></rect>
<path d="M22.2089 70.0925L20.9512 38.7417L8.58836 39.2377L8.18494 29.1818L44.4454 27.7271L44.8488 37.783L32.4268 38.2814L33.6845 69.6321L22.2089 70.0925Z"></path>
<path d="M53.2774 68.8461L51.545 25.6649L62.784 25.214L63.4081 40.7711C65.3716 38.0261 68.232 35.4822 72.7867 35.2995C79.5892 35.0266 83.8511 39.3585 84.143 46.6342L84.9831 67.5742L73.8032 68.0227L73.1079 50.691C72.9656 47.1419 71.0559 45.3226 68.3349 45.4317C65.6139 45.5409 63.6786 47.5144 63.821 51.0636L64.5163 68.3952L53.2774 68.8461Z"></path>
<path d="M92.3842 32.3212L92.052 24.0398L103.705 23.5723L104.037 31.8537L92.3842 32.3212ZM94.0209 67.2116L92.7371 35.2101L103.917 34.7616L105.201 66.7631L94.0209 67.2116Z"></path>
<path d="M127.221 66.5907C121.838 66.8066 116.45 65.4231 111.945 62.4044L115.874 55.4926C119.639 57.7707 123.652 58.8539 126.964 58.721C128.917 58.6427 129.839 58.0132 129.794 56.8893L129.789 56.771C129.737 55.4697 127.882 55.0108 124.472 54.1997C118.077 52.7973 112.963 50.8695 112.707 44.4811L112.702 44.3628C112.429 37.5602 117.72 33.5562 125.114 33.2595C129.787 33.0721 134.692 34.238 138.454 36.4569L134.894 43.7095C131.505 41.9495 127.852 40.9704 125.309 41.0724C123.593 41.1412 122.732 41.8275 122.77 42.7739L122.775 42.8922C122.824 44.1344 124.741 44.65 128.094 45.5227C134.494 47.0434 139.61 49.0303 139.859 55.2413L139.864 55.3596C140.146 62.3988 135.029 66.2774 127.221 66.5907Z"></path>
<path d="M165.839 29.3743L165.507 21.093L177.16 20.6255L177.493 28.9068L165.839 29.3743ZM167.476 64.2647L166.192 32.2633L177.372 31.8148L178.656 63.8162L167.476 64.2647Z"></path>
<path d="M200.676 63.6438C195.293 63.8597 189.906 62.4762 185.4 59.4576L189.329 52.5457C193.094 54.8238 197.107 55.907 200.42 55.7742C202.372 55.6958 203.295 55.0663 203.249 53.9425L203.245 53.8241C203.192 52.5228 201.337 52.064 197.928 51.2528C191.532 49.8505 186.419 47.9227 186.162 41.5342L186.158 41.4159C185.885 34.6134 191.175 30.6093 198.569 30.3127C203.242 30.1252 208.147 31.2911 211.909 33.5101L208.349 40.7626C204.961 39.0026 201.307 38.0235 198.764 38.1255C197.048 38.1944 196.187 38.8806 196.225 39.8271L196.23 39.9454C196.28 41.1876 198.196 41.7032 201.549 42.5759C207.95 44.0965 213.065 46.0835 213.315 52.2945L213.319 52.4128C213.602 59.4519 208.484 63.3306 200.676 63.6438Z"></path>
<path d="M262.2 61.2941C249.424 61.8067 239.577 52.6628 239.1 40.7732L239.095 40.6549C238.618 28.7652 247.814 18.739 260.591 18.2264C273.368 17.7138 283.215 26.8576 283.691 38.7473L283.696 38.8656C284.173 50.7552 274.977 60.7815 262.2 61.2941ZM261.903 50.9377C268.174 50.6861 272.169 45.4305 271.93 39.4561L271.925 39.3378C271.683 33.3043 267.217 28.3289 260.888 28.5828C254.559 28.8367 250.563 34.0923 250.803 40.0667L250.807 40.185C251.047 46.1594 255.574 51.1916 261.903 50.9377Z"></path>
<path d="M303.487 59.5193C296.685 59.7922 292.361 55.4035 292.069 48.1278L291.232 27.247L302.471 26.7961L303.166 44.1278C303.306 47.6177 305.216 49.4371 307.937 49.3279C310.658 49.2187 312.593 47.2452 312.453 43.7552L311.758 26.4235L322.938 25.975L324.221 57.9765L313.042 58.425L312.864 53.9886C310.9 56.7335 308.042 59.3365 303.487 59.5193Z"></path>
<path d="M333.2 57.6163L331.916 25.6148L343.155 25.1639L343.414 31.6115C345.072 27.1607 347.916 24.2027 353.249 24.2258L353.723 36.0563L352.777 36.0942C346.921 36.3292 343.744 39.8337 344.038 47.1686L344.439 57.1654L333.2 57.6163Z"></path>
<path d="M379.758 55.7485L379.411 47.1122L394.434 34.66C398.158 31.489 399.618 29.4753 399.518 26.9909C399.412 24.329 397.514 22.8054 394.674 22.9194C391.894 23.0309 389.772 24.775 386.668 28.6321L378.661 22.4953C382.867 16.5796 387.177 13.2665 395.163 12.9462C404.213 12.5831 410.64 17.7168 410.954 25.5249L410.958 25.6432C411.224 32.2683 407.931 35.8367 401.957 40.52L395.058 45.7735L412.153 45.0877L412.528 54.4338L379.758 55.7485Z"></path>
<path d="M439.24 54.1916C427.469 54.6639 419.745 45.2571 419.275 33.545L419.27 33.4267C418.8 21.7145 425.86 11.5962 437.631 11.1239C449.402 10.6517 457.127 20.0584 457.596 31.7706L457.601 31.8889C458.071 43.6011 451.071 53.717 439.24 54.1916ZM438.951 44.0127C443.564 43.8276 446.335 39.0359 446.071 32.47L446.066 32.3517C445.801 25.7266 442.532 21.0586 437.919 21.2437C433.364 21.4265 430.535 26.2205 430.8 32.8456L430.805 32.9639C431.071 39.589 434.337 44.1978 438.951 44.0127Z"></path>
<path d="M465.217 52.3201L464.87 43.6838L479.894 31.2316C483.617 28.0606 485.077 26.0468 484.977 23.5624C484.871 20.9006 482.973 19.377 480.133 19.4909C477.353 19.6025 475.231 21.3465 472.127 25.2037L464.12 19.0669C468.326 13.1511 472.637 9.83809 480.622 9.51773C489.672 9.15465 496.099 14.2883 496.413 22.0965L496.417 22.2148C496.683 28.8398 493.39 32.4083 487.416 37.0916L480.517 42.3451L497.612 41.6593L497.987 51.0054L465.217 52.3201Z"></path>
<path d="M525.042 49.92L524.719 41.8753L504.607 42.6821L502.449 34.6518L522.896 8.23654L534.43 7.77379L535.437 32.8544L540.701 32.6432L541.045 41.2203L535.781 41.4315L536.103 49.4763L525.042 49.92ZM514.44 33.756L524.378 33.3573L523.898 21.4085L514.44 33.756Z"></path>
<path d="M547.829 35.3789L547.435 25.5596L566.837 24.7812L567.231 34.6005L547.829 35.3789Z"></path>
<path d="M575.065 47.9132L574.718 39.277L589.741 26.8247C593.465 23.6537 594.925 21.64 594.825 19.1556C594.718 16.4937 592.821 14.9702 589.981 15.0841C587.201 15.1956 585.079 16.9397 581.975 20.7968L573.968 14.6601C578.174 8.7443 582.484 5.43125 590.47 5.11088C599.52 4.74781 605.947 9.8815 606.26 17.6896L606.265 17.8079C606.531 24.433 603.238 28.0015 597.264 32.6847L590.365 37.9383L607.46 37.2525L607.835 46.5985L575.065 47.9132Z"></path>
<path d="M630.939 46.5011C623.604 46.7954 618.415 44.4559 613.935 40.6068L620.193 32.6536C623.619 35.36 626.88 36.8881 630.429 36.7457C634.215 36.5939 636.387 34.6108 636.268 31.6532L636.263 31.5349C636.142 28.5181 633.587 26.8432 629.978 26.988C627.435 27.09 625.341 28.0627 623.436 29.3241L616.48 25.7521L616.823 4.76464L644.506 3.65405L644.886 13.1184L626.253 13.866L626.149 20.1504C628.007 19.1871 629.935 18.5173 632.715 18.4058C640.168 18.1068 647.078 21.9769 647.438 30.9681L647.443 31.0864C647.811 40.255 640.995 46.0977 630.939 46.5011Z"></path>
<path d="M79.1465 139.576C71.8116 139.871 64.7982 137.841 59.4692 133.493L65.5515 125.606C69.8227 128.693 74.3871 130.228 79.1785 130.036C82.3136 129.91 83.9271 128.779 83.8559 127.005L83.8512 126.886C83.78 125.112 82.3839 124.279 76.6507 123.146C67.7563 121.489 60.8541 119.277 60.5147 110.819L60.51 110.7C60.2015 103.01 66.0711 97.2057 76.0087 96.807C83.0479 96.5246 88.625 98.1968 93.2653 101.625L87.8526 109.959C83.9577 107.39 79.7625 106.195 76.095 106.342C73.3149 106.454 71.9994 107.632 72.0611 109.17L72.0659 109.289C72.1418 111.182 73.5947 111.953 79.4438 113.022C88.9913 114.712 95.0299 117.551 95.3408 125.3L95.3456 125.418C95.6849 133.877 89.2024 139.173 79.1465 139.576Z"></path>
<path d="M119.275 138.026C109.574 138.415 102.231 131.126 101.868 122.076L101.863 121.957C101.5 112.907 108.174 104.996 118.289 104.59C124.855 104.327 129.346 106.991 132.238 111.141L124.894 117.123C123.214 115.117 121.446 113.884 118.784 113.991C115.117 114.138 112.585 117.498 112.742 121.402L112.747 121.521C112.913 125.661 115.641 128.692 119.427 128.54C122.148 128.431 123.814 127.12 125.446 124.981L133.177 130.121C130.395 134.617 126.255 137.746 119.275 138.026Z"></path>
<path d="M140.381 136.409L138.649 93.2276L149.888 92.7767L150.512 108.334C152.475 105.589 155.336 103.045 159.89 102.862C166.693 102.589 170.955 106.921 171.247 114.197L172.087 135.137L160.907 135.585L160.212 118.254C160.069 114.705 158.159 112.885 155.438 112.994C152.717 113.104 150.782 115.077 150.925 118.626L151.62 135.958L140.381 136.409Z"></path>
<path d="M197.186 134.9C187.011 135.308 179.316 128.093 178.951 118.983L178.946 118.865C178.58 109.755 185.727 101.826 195.961 101.415C206.194 101.005 213.89 108.22 214.255 117.33L214.26 117.448C214.625 126.558 207.478 134.487 197.186 134.9ZM196.922 125.372C201.003 125.208 203.535 121.848 203.381 118.003L203.376 117.885C203.217 113.922 200.185 110.725 196.222 110.884C192.141 111.048 189.668 114.406 189.825 118.31L189.83 118.428C189.986 122.332 192.959 125.531 196.922 125.372Z"></path>
<path d="M238.962 133.224C228.788 133.632 221.092 126.417 220.727 117.307L220.722 117.189C220.357 108.079 227.504 100.15 237.737 99.7392C247.971 99.3287 255.666 106.544 256.031 115.654L256.036 115.772C256.402 124.882 249.255 132.811 238.962 133.224ZM238.698 123.696C242.78 123.532 245.311 120.172 245.157 116.327L245.152 116.209C244.993 112.246 241.962 109.049 237.999 109.208C233.917 109.372 231.445 112.73 231.602 116.634L231.606 116.752C231.763 120.656 234.735 123.855 238.698 123.696Z"></path>
<path d="M264.677 131.422L262.945 88.2411L274.125 87.7926L275.857 130.974L264.677 131.422Z"></path>
<path d="M317.153 129.317L316.531 113.819L299.698 88.5441L312.771 88.0196L321.894 102.762L329.866 87.3338L342.702 86.8189L328 113.181L328.628 128.857L317.153 129.317Z"></path>
<path d="M359.614 128.384C349.558 128.787 342.189 122.329 341.793 112.45L341.788 112.332C341.413 102.986 347.801 95.3237 357.265 94.944C368.268 94.5026 373.68 102.402 374.057 111.808C374.086 112.517 374.119 113.346 374.091 114.117L352.677 114.976C353.705 118.43 356.319 120.103 359.809 119.963C362.53 119.854 364.56 118.765 366.777 116.425L373.195 121.322C370.275 125.349 365.943 128.13 359.614 128.384ZM352.27 109.245L363.45 108.797C362.893 105.264 360.673 103.102 357.598 103.225C354.64 103.344 352.719 105.672 352.27 109.245Z"></path>
<path d="M391.699 127.038C385.606 127.282 380.85 123.918 380.596 117.589L380.591 117.47C380.323 110.786 385.216 107.213 392.728 106.911C395.685 106.793 398.605 107.209 400.468 107.845L400.446 107.313C400.311 103.941 398.165 102.131 393.846 102.304C390.475 102.44 387.901 103.254 385.045 104.435L382.422 96.6602C385.971 95.0366 389.776 93.8768 395.277 93.6561C401.015 93.4259 404.973 94.6298 407.619 97.0713C410.139 99.3401 411.278 102.612 411.458 107.108L412.196 125.504L401.135 125.948L400.999 122.576C398.849 125.092 395.898 126.869 391.699 127.038ZM395.439 119.837C398.751 119.704 400.975 117.541 400.847 114.347L400.788 112.868C399.586 112.442 397.974 112.152 396.318 112.218C393.064 112.349 391.233 113.962 391.331 116.388L391.335 116.506C391.423 118.695 393.132 119.93 395.439 119.837Z"></path>
<path d="M420.87 125.156L419.586 93.1548L430.825 92.7039L431.084 99.1516C432.742 94.7007 435.585 91.7427 440.919 91.7658L441.393 103.596L440.447 103.634C434.591 103.869 431.413 107.374 431.708 114.709L432.109 124.705L420.87 125.156Z"></path>
<path d="M469.143 123.22L467.482 81.813L485.286 81.0987C495.697 80.681 502.657 85.7934 503.022 94.9028L503.027 95.0212C503.421 104.84 496.115 110.288 485.881 110.699L480.144 110.929L480.618 122.759L469.143 123.22ZM479.783 101.938L485.284 101.717C489.307 101.556 491.762 99.2649 491.632 96.0115L491.627 95.8932C491.485 92.3441 488.867 90.6124 484.786 90.7761L479.344 90.9945L479.783 101.938Z"></path>
<path d="M519.581 121.907C513.488 122.152 508.732 118.788 508.478 112.458L508.473 112.34C508.205 105.656 513.098 102.082 520.61 101.781C523.568 101.662 526.488 102.078 528.35 102.715L528.329 102.182C528.193 98.8106 526.047 97.0008 521.729 97.174C518.357 97.3093 515.783 98.1235 512.927 99.3045L510.305 91.5298C513.854 89.9062 517.658 88.7464 523.159 88.5257C528.897 88.2955 532.856 89.4994 535.501 91.9409C538.022 94.2097 539.16 97.4819 539.34 101.977L540.078 120.374L529.017 120.818L528.882 117.446C526.731 119.961 523.781 121.739 519.581 121.907ZM523.321 114.707C526.634 114.574 528.857 112.411 528.729 109.217L528.67 107.738C527.468 107.312 525.857 107.021 524.2 107.088C520.947 107.218 519.116 108.832 519.213 111.257L519.218 111.376C519.306 113.564 521.014 114.799 523.321 114.707Z"></path>
<path d="M564.871 128.977C558.719 129.224 553.462 128.132 548.753 125.951L552.062 118.353C555.569 120.108 559.045 121.094 563.363 120.921C568.923 120.698 571.592 117.806 571.388 112.719L571.338 111.477C569.195 114.17 566.325 116.477 561.711 116.662C553.844 116.978 547.227 111.555 546.86 102.387L546.855 102.269C546.485 93.0407 552.764 87.1011 560.099 86.8068C564.949 86.6122 567.867 88.4503 570.335 90.899L570.183 87.1132L581.422 86.6623L582.397 110.974C582.632 116.83 581.497 121.023 578.769 123.917C575.989 126.991 571.555 128.709 564.871 128.977ZM564.677 107.893C568.522 107.739 571.136 104.968 570.994 101.419L570.989 101.3C570.847 97.7512 567.96 95.2008 564.174 95.3527C560.329 95.507 557.715 98.278 557.86 101.886L557.864 102.005C558.007 105.554 560.832 108.047 564.677 107.893Z"></path>
<path d="M607.627 118.434C597.571 118.838 590.202 112.379 589.806 102.501L589.801 102.382C589.426 93.0362 595.814 85.374 605.278 84.9943C616.28 84.5529 621.693 92.4527 622.07 101.858C622.098 102.568 622.132 103.396 622.103 104.167L600.69 105.026C601.717 108.481 604.332 110.153 607.822 110.013C610.543 109.904 612.573 108.815 614.79 106.475L621.207 111.372C618.288 115.4 613.956 118.18 607.627 118.434ZM600.282 99.2956L611.462 98.8471C610.906 95.3146 608.686 93.1522 605.61 93.2756C602.653 93.3943 600.732 95.7228 600.282 99.2956Z"></path>
</mask>
<path fill="white" d="M22.2089 70.0925L20.9512 38.7417L8.58836 39.2377L8.18494 29.1818L44.4454 27.7271L44.8488 37.783L32.4268 38.2814L33.6845 69.6321L22.2089 70.0925Z"></path>
<path fill="white" d="M53.2774 68.8461L51.545 25.6649L62.784 25.214L63.4081 40.7711C65.3716 38.0261 68.232 35.4822 72.7867 35.2995C79.5892 35.0266 83.8511 39.3585 84.143 46.6342L84.9831 67.5742L73.8032 68.0227L73.1079 50.691C72.9656 47.1419 71.0559 45.3226 68.3349 45.4317C65.6139 45.5409 63.6786 47.5144 63.821 51.0636L64.5163 68.3952L53.2774 68.8461Z"></path>
<path fill="white" d="M92.3842 32.3212L92.052 24.0398L103.705 23.5723L104.037 31.8537L92.3842 32.3212ZM94.0209 67.2116L92.7371 35.2101L103.917 34.7616L105.201 66.7631L94.0209 67.2116Z"></path>
<path fill="white" d="M127.221 66.5907C121.838 66.8066 116.45 65.4231 111.945 62.4044L115.874 55.4926C119.639 57.7707 123.652 58.8539 126.964 58.721C128.917 58.6427 129.839 58.0132 129.794 56.8893L129.789 56.771C129.737 55.4697 127.882 55.0108 124.472 54.1997C118.077 52.7973 112.963 50.8695 112.707 44.4811L112.702 44.3628C112.429 37.5602 117.72 33.5562 125.114 33.2595C129.787 33.0721 134.692 34.238 138.454 36.4569L134.894 43.7095C131.505 41.9495 127.852 40.9704 125.309 41.0724C123.593 41.1412 122.732 41.8275 122.77 42.7739L122.775 42.8922C122.824 44.1344 124.741 44.65 128.094 45.5227C134.494 47.0434 139.61 49.0303 139.859 55.2413L139.864 55.3596C140.146 62.3988 135.029 66.2774 127.221 66.5907Z"></path>
<path fill="white" d="M165.839 29.3743L165.507 21.093L177.16 20.6255L177.493 28.9068L165.839 29.3743ZM167.476 64.2647L166.192 32.2633L177.372 31.8148L178.656 63.8162L167.476 64.2647Z"></path>
<path fill="white" d="M200.676 63.6438C195.293 63.8597 189.906 62.4762 185.4 59.4576L189.329 52.5457C193.094 54.8238 197.107 55.907 200.42 55.7742C202.372 55.6958 203.295 55.0663 203.249 53.9425L203.245 53.8241C203.192 52.5228 201.337 52.064 197.928 51.2528C191.532 49.8505 186.419 47.9227 186.162 41.5342L186.158 41.4159C185.885 34.6134 191.175 30.6093 198.569 30.3127C203.242 30.1252 208.147 31.2911 211.909 33.5101L208.349 40.7626C204.961 39.0026 201.307 38.0235 198.764 38.1255C197.048 38.1944 196.187 38.8806 196.225 39.8271L196.23 39.9454C196.28 41.1876 198.196 41.7032 201.549 42.5759C207.95 44.0965 213.065 46.0835 213.315 52.2945L213.319 52.4128C213.602 59.4519 208.484 63.3306 200.676 63.6438Z"></path>
<path fill="white" d="M262.2 61.2941C249.424 61.8067 239.577 52.6628 239.1 40.7732L239.095 40.6549C238.618 28.7652 247.814 18.739 260.591 18.2264C273.368 17.7138 283.215 26.8576 283.691 38.7473L283.696 38.8656C284.173 50.7552 274.977 60.7815 262.2 61.2941ZM261.903 50.9377C268.174 50.6861 272.169 45.4305 271.93 39.4561L271.925 39.3378C271.683 33.3043 267.217 28.3289 260.888 28.5828C254.559 28.8367 250.563 34.0923 250.803 40.0667L250.807 40.185C251.047 46.1594 255.574 51.1916 261.903 50.9377Z"></path>
<path fill="white" d="M303.487 59.5193C296.685 59.7922 292.361 55.4035 292.069 48.1278L291.232 27.247L302.471 26.7961L303.166 44.1278C303.306 47.6177 305.216 49.4371 307.937 49.3279C310.658 49.2187 312.593 47.2452 312.453 43.7552L311.758 26.4235L322.938 25.975L324.221 57.9765L313.042 58.425L312.864 53.9886C310.9 56.7335 308.042 59.3365 303.487 59.5193Z"></path>
<path fill="white" d="M333.2 57.6163L331.916 25.6148L343.155 25.1639L343.414 31.6115C345.072 27.1607 347.916 24.2027 353.249 24.2258L353.723 36.0563L352.777 36.0942C346.921 36.3292 343.744 39.8337 344.038 47.1686L344.439 57.1654L333.2 57.6163Z"></path>
<path fill="white" d="M379.758 55.7485L379.411 47.1122L394.434 34.66C398.158 31.489 399.618 29.4753 399.518 26.9909C399.412 24.329 397.514 22.8054 394.674 22.9194C391.894 23.0309 389.772 24.775 386.668 28.6321L378.661 22.4953C382.867 16.5796 387.177 13.2665 395.163 12.9462C404.213 12.5831 410.64 17.7168 410.954 25.5249L410.958 25.6432C411.224 32.2683 407.931 35.8367 401.957 40.52L395.058 45.7735L412.153 45.0877L412.528 54.4338L379.758 55.7485Z"></path>
<path fill="white" d="M439.24 54.1916C427.469 54.6639 419.745 45.2571 419.275 33.545L419.27 33.4267C418.8 21.7145 425.86 11.5962 437.631 11.1239C449.402 10.6517 457.127 20.0584 457.596 31.7706L457.601 31.8889C458.071 43.6011 451.071 53.717 439.24 54.1916ZM438.951 44.0127C443.564 43.8276 446.335 39.0359 446.071 32.47L446.066 32.3517C445.801 25.7266 442.532 21.0586 437.919 21.2437C433.364 21.4265 430.535 26.2205 430.8 32.8456L430.805 32.9639C431.071 39.589 434.337 44.1978 438.951 44.0127Z"></path>
<path fill="white" d="M465.217 52.3201L464.87 43.6838L479.894 31.2316C483.617 28.0606 485.077 26.0468 484.977 23.5624C484.871 20.9006 482.973 19.377 480.133 19.4909C477.353 19.6025 475.231 21.3465 472.127 25.2037L464.12 19.0669C468.326 13.1511 472.637 9.83809 480.622 9.51773C489.672 9.15465 496.099 14.2883 496.413 22.0965L496.417 22.2148C496.683 28.8398 493.39 32.4083 487.416 37.0916L480.517 42.3451L497.612 41.6593L497.987 51.0054L465.217 52.3201Z"></path>
<path fill="white" d="M525.042 49.92L524.719 41.8753L504.607 42.6821L502.449 34.6518L522.896 8.23654L534.43 7.77379L535.437 32.8544L540.701 32.6432L541.045 41.2203L535.781 41.4315L536.103 49.4763L525.042 49.92ZM514.44 33.756L524.378 33.3573L523.898 21.4085L514.44 33.756Z"></path>
<path fill="white" d="M547.829 35.3789L547.435 25.5596L566.837 24.7812L567.231 34.6005L547.829 35.3789Z"></path>
<path fill="white" d="M575.065 47.9132L574.718 39.277L589.741 26.8247C593.465 23.6537 594.925 21.64 594.825 19.1556C594.718 16.4937 592.821 14.9702 589.981 15.0841C587.201 15.1956 585.079 16.9397 581.975 20.7968L573.968 14.6601C578.174 8.7443 582.484 5.43125 590.47 5.11088C599.52 4.74781 605.947 9.8815 606.26 17.6896L606.265 17.8079C606.531 24.433 603.238 28.0015 597.264 32.6847L590.365 37.9383L607.46 37.2525L607.835 46.5985L575.065 47.9132Z"></path>
<path fill="white" d="M630.939 46.5011C623.604 46.7954 618.415 44.4559 613.935 40.6068L620.193 32.6536C623.619 35.36 626.88 36.8881 630.429 36.7457C634.215 36.5939 636.387 34.6108 636.268 31.6532L636.263 31.5349C636.142 28.5181 633.587 26.8432 629.978 26.988C627.435 27.09 625.341 28.0627 623.436 29.3241L616.48 25.7521L616.823 4.76464L644.506 3.65405L644.886 13.1184L626.253 13.866L626.149 20.1504C628.007 19.1871 629.935 18.5173 632.715 18.4058C640.168 18.1068 647.078 21.9769 647.438 30.9681L647.443 31.0864C647.811 40.255 640.995 46.0977 630.939 46.5011Z"></path>
<path fill="white" d="M79.1465 139.576C71.8116 139.871 64.7982 137.841 59.4692 133.493L65.5515 125.606C69.8227 128.693 74.3871 130.228 79.1785 130.036C82.3136 129.91 83.9271 128.779 83.8559 127.005L83.8512 126.886C83.78 125.112 82.3839 124.279 76.6507 123.146C67.7563 121.489 60.8541 119.277 60.5147 110.819L60.51 110.7C60.2015 103.01 66.0711 97.2057 76.0087 96.807C83.0479 96.5246 88.625 98.1968 93.2653 101.625L87.8526 109.959C83.9577 107.39 79.7625 106.195 76.095 106.342C73.3149 106.454 71.9994 107.632 72.0611 109.17L72.0659 109.289C72.1418 111.182 73.5947 111.953 79.4438 113.022C88.9913 114.712 95.0299 117.551 95.3408 125.3L95.3456 125.418C95.6849 133.877 89.2024 139.173 79.1465 139.576Z"></path>
<path fill="white" d="M119.275 138.026C109.574 138.415 102.231 131.126 101.868 122.076L101.863 121.957C101.5 112.907 108.174 104.996 118.289 104.59C124.855 104.327 129.346 106.991 132.238 111.141L124.894 117.123C123.214 115.117 121.446 113.884 118.784 113.991C115.117 114.138 112.585 117.498 112.742 121.402L112.747 121.521C112.913 125.661 115.641 128.692 119.427 128.54C122.148 128.431 123.814 127.12 125.446 124.981L133.177 130.121C130.395 134.617 126.255 137.746 119.275 138.026Z"></path>
<path fill="white" d="M140.381 136.409L138.649 93.2276L149.888 92.7767L150.512 108.334C152.475 105.589 155.336 103.045 159.89 102.862C166.693 102.589 170.955 106.921 171.247 114.197L172.087 135.137L160.907 135.585L160.212 118.254C160.069 114.705 158.159 112.885 155.438 112.994C152.717 113.104 150.782 115.077 150.925 118.626L151.62 135.958L140.381 136.409Z"></path>
<path fill="white" d="M197.186 134.9C187.011 135.308 179.316 128.093 178.951 118.983L178.946 118.865C178.58 109.755 185.727 101.826 195.961 101.415C206.194 101.005 213.89 108.22 214.255 117.33L214.26 117.448C214.625 126.558 207.478 134.487 197.186 134.9ZM196.922 125.372C201.003 125.208 203.535 121.848 203.381 118.003L203.376 117.885C203.217 113.922 200.185 110.725 196.222 110.884C192.141 111.048 189.668 114.406 189.825 118.31L189.83 118.428C189.986 122.332 192.959 125.531 196.922 125.372Z"></path>
<path fill="white" d="M238.962 133.224C228.788 133.632 221.092 126.417 220.727 117.307L220.722 117.189C220.357 108.079 227.504 100.15 237.737 99.7392C247.971 99.3287 255.666 106.544 256.031 115.654L256.036 115.772C256.402 124.882 249.255 132.811 238.962 133.224ZM238.698 123.696C242.78 123.532 245.311 120.172 245.157 116.327L245.152 116.209C244.993 112.246 241.962 109.049 237.999 109.208C233.917 109.372 231.445 112.73 231.602 116.634L231.606 116.752C231.763 120.656 234.735 123.855 238.698 123.696Z"></path>
<path fill="white" d="M264.677 131.422L262.945 88.2411L274.125 87.7926L275.857 130.974L264.677 131.422Z"></path>
<path fill="white" d="M317.153 129.317L316.531 113.819L299.698 88.5441L312.771 88.0196L321.894 102.762L329.866 87.3338L342.702 86.8189L328 113.181L328.628 128.857L317.153 129.317Z"></path>
<path fill="white" d="M359.614 128.384C349.558 128.787 342.189 122.329 341.793 112.45L341.788 112.332C341.413 102.986 347.801 95.3237 357.265 94.944C368.268 94.5026 373.68 102.402 374.057 111.808C374.086 112.517 374.119 113.346 374.091 114.117L352.677 114.976C353.705 118.43 356.319 120.103 359.809 119.963C362.53 119.854 364.56 118.765 366.777 116.425L373.195 121.322C370.275 125.349 365.943 128.13 359.614 128.384ZM352.27 109.245L363.45 108.797C362.893 105.264 360.673 103.102 357.598 103.225C354.64 103.344 352.719 105.672 352.27 109.245Z"></path>
<path fill="white" d="M391.699 127.038C385.606 127.282 380.85 123.918 380.596 117.589L380.591 117.47C380.323 110.786 385.216 107.213 392.728 106.911C395.685 106.793 398.605 107.209 400.468 107.845L400.446 107.313C400.311 103.941 398.165 102.131 393.846 102.304C390.475 102.44 387.901 103.254 385.045 104.435L382.422 96.6602C385.971 95.0366 389.776 93.8768 395.277 93.6561C401.015 93.4259 404.973 94.6298 407.619 97.0713C410.139 99.3401 411.278 102.612 411.458 107.108L412.196 125.504L401.135 125.948L400.999 122.576C398.849 125.092 395.898 126.869 391.699 127.038ZM395.439 119.837C398.751 119.704 400.975 117.541 400.847 114.347L400.788 112.868C399.586 112.442 397.974 112.152 396.318 112.218C393.064 112.349 391.233 113.962 391.331 116.388L391.335 116.506C391.423 118.695 393.132 119.93 395.439 119.837Z"></path>
<path fill="white" d="M420.87 125.156L419.586 93.1548L430.825 92.7039L431.084 99.1516C432.742 94.7007 435.585 91.7427 440.919 91.7658L441.393 103.596L440.447 103.634C434.591 103.869 431.413 107.374 431.708 114.709L432.109 124.705L420.87 125.156Z"></path>
<path fill="white" d="M469.143 123.22L467.482 81.813L485.286 81.0987C495.697 80.681 502.657 85.7934 503.022 94.9028L503.027 95.0212C503.421 104.84 496.115 110.288 485.881 110.699L480.144 110.929L480.618 122.759L469.143 123.22ZM479.783 101.938L485.284 101.717C489.307 101.556 491.762 99.2649 491.632 96.0115L491.627 95.8932C491.485 92.3441 488.867 90.6124 484.786 90.7761L479.344 90.9945L479.783 101.938Z"></path>
<path fill="white" d="M519.581 121.907C513.488 122.152 508.732 118.788 508.478 112.458L508.473 112.34C508.205 105.656 513.098 102.082 520.61 101.781C523.568 101.662 526.488 102.078 528.35 102.715L528.329 102.182C528.193 98.8106 526.047 97.0008 521.729 97.174C518.357 97.3093 515.783 98.1235 512.927 99.3045L510.305 91.5298C513.854 89.9062 517.658 88.7464 523.159 88.5257C528.897 88.2955 532.856 89.4994 535.501 91.9409C538.022 94.2097 539.16 97.4819 539.34 101.977L540.078 120.374L529.017 120.818L528.882 117.446C526.731 119.961 523.781 121.739 519.581 121.907ZM523.321 114.707C526.634 114.574 528.857 112.411 528.729 109.217L528.67 107.738C527.468 107.312 525.857 107.021 524.2 107.088C520.947 107.218 519.116 108.832 519.213 111.257L519.218 111.376C519.306 113.564 521.014 114.799 523.321 114.707Z"></path>
<path fill="white" d="M564.871 128.977C558.719 129.224 553.462 128.132 548.753 125.951L552.062 118.353C555.569 120.108 559.045 121.094 563.363 120.921C568.923 120.698 571.592 117.806 571.388 112.719L571.338 111.477C569.195 114.17 566.325 116.477 561.711 116.662C553.844 116.978 547.227 111.555 546.86 102.387L546.855 102.269C546.485 93.0407 552.764 87.1011 560.099 86.8068C564.949 86.6122 567.867 88.4503 570.335 90.899L570.183 87.1132L581.422 86.6623L582.397 110.974C582.632 116.83 581.497 121.023 578.769 123.917C575.989 126.991 571.555 128.709 564.871 128.977ZM564.677 107.893C568.522 107.739 571.136 104.968 570.994 101.419L570.989 101.3C570.847 97.7512 567.96 95.2008 564.174 95.3527C560.329 95.507 557.715 98.278 557.86 101.886L557.864 102.005C558.007 105.554 560.832 108.047 564.677 107.893Z"></path>
<path fill="white" d="M607.627 118.434C597.571 118.838 590.202 112.379 589.806 102.501L589.801 102.382C589.426 93.0362 595.814 85.374 605.278 84.9943C616.28 84.5529 621.693 92.4527 622.07 101.858C622.098 102.568 622.132 103.396 622.103 104.167L600.69 105.026C601.717 108.481 604.332 110.153 607.822 110.013C610.543 109.904 612.573 108.815 614.79 106.475L621.207 111.372C618.288 115.4 613.956 118.18 607.627 118.434ZM600.282 99.2956L611.462 98.8471C610.906 95.3146 608.686 93.1522 605.61 93.2756C602.653 93.3943 600.732 95.7228 600.282 99.2956Z"></path>
<path mask="url(#path-1-outside-1_1765_827)" stroke-linejoin="round" stroke-width="5.87496" stroke="#7523E3" d="M22.2089 70.0925L20.9512 38.7417L8.58836 39.2377L8.18494 29.1818L44.4454 27.7271L44.8488 37.783L32.4268 38.2814L33.6845 69.6321L22.2089 70.0925Z"></path>
<path mask="url(#path-1-outside-1_1765_827)" stroke-linejoin="round" stroke-width="5.87496" stroke="#7523E3" d="M53.2774 68.8461L51.545 25.6649L62.784 25.214L63.4081 40.7711C65.3716 38.0261 68.232 35.4822 72.7867 35.2995C79.5892 35.0266 83.8511 39.3585 84.143 46.6342L84.9831 67.5742L73.8032 68.0227L73.1079 50.691C72.9656 47.1419 71.0559 45.3226 68.3349 45.4317C65.6139 45.5409 63.6786 47.5144 63.821 51.0636L64.5163 68.3952L53.2774 68.8461Z"></path>
<path mask="url(#path-1-outside-1_1765_827)" stroke-linejoin="round" stroke-width="5.87496" stroke="#7523E3" d="M92.3842 32.3212L92.052 24.0398L103.705 23.5723L104.037 31.8537L92.3842 32.3212ZM94.0209 67.2116L92.7371 35.2101L103.917 34.7616L105.201 66.7631L94.0209 67.2116Z"></path>
<path mask="url(#path-1-outside-1_1765_827)" stroke-linejoin="round" stroke-width="5.87496" stroke="#7523E3" d="M127.221 66.5907C121.838 66.8066 116.45 65.4231 111.945 62.4044L115.874 55.4926C119.639 57.7707 123.652 58.8539 126.964 58.721C128.917 58.6427 129.839 58.0132 129.794 56.8893L129.789 56.771C129.737 55.4697 127.882 55.0108 124.472 54.1997C118.077 52.7973 112.963 50.8695 112.707 44.4811L112.702 44.3628C112.429 37.5602 117.72 33.5562 125.114 33.2595C129.787 33.0721 134.692 34.238 138.454 36.4569L134.894 43.7095C131.505 41.9495 127.852 40.9704 125.309 41.0724C123.593 41.1412 122.732 41.8275 122.77 42.7739L122.775 42.8922C122.824 44.1344 124.741 44.65 128.094 45.5227C134.494 47.0434 139.61 49.0303 139.859 55.2413L139.864 55.3596C140.146 62.3988 135.029 66.2774 127.221 66.5907Z"></path>
<path mask="url(#path-1-outside-1_1765_827)" stroke-linejoin="round" stroke-width="5.87496" stroke="#7523E3" d="M165.839 29.3743L165.507 21.093L177.16 20.6255L177.493 28.9068L165.839 29.3743ZM167.476 64.2647L166.192 32.2633L177.372 31.8148L178.656 63.8162L167.476 64.2647Z"></path>
<path mask="url(#path-1-outside-1_1765_827)" stroke-linejoin="round" stroke-width="5.87496" stroke="#7523E3" d="M200.676 63.6438C195.293 63.8597 189.906 62.4762 185.4 59.4576L189.329 52.5457C193.094 54.8238 197.107 55.907 200.42 55.7742C202.372 55.6958 203.295 55.0663 203.249 53.9425L203.245 53.8241C203.192 52.5228 201.337 52.064 197.928 51.2528C191.532 49.8505 186.419 47.9227 186.162 41.5342L186.158 41.4159C185.885 34.6134 191.175 30.6093 198.569 30.3127C203.242 30.1252 208.147 31.2911 211.909 33.5101L208.349 40.7626C204.961 39.0026 201.307 38.0235 198.764 38.1255C197.048 38.1944 196.187 38.8806 196.225 39.8271L196.23 39.9454C196.28 41.1876 198.196 41.7032 201.549 42.5759C207.95 44.0965 213.065 46.0835 213.315 52.2945L213.319 52.4128C213.602 59.4519 208.484 63.3306 200.676 63.6438Z"></path>
<path mask="url(#path-1-outside-1_1765_827)" stroke-linejoin="round" stroke-width="5.87496" stroke="#7523E3" d="M262.2 61.2941C249.424 61.8067 239.577 52.6628 239.1 40.7732L239.095 40.6549C238.618 28.7652 247.814 18.739 260.591 18.2264C273.368 17.7138 283.215 26.8576 283.691 38.7473L283.696 38.8656C284.173 50.7552 274.977 60.7815 262.2 61.2941ZM261.903 50.9377C268.174 50.6861 272.169 45.4305 271.93 39.4561L271.925 39.3378C271.683 33.3043 267.217 28.3289 260.888 28.5828C254.559 28.8367 250.563 34.0923 250.803 40.0667L250.807 40.185C251.047 46.1594 255.574 51.1916 261.903 50.9377Z"></path>
<path mask="url(#path-1-outside-1_1765_827)" stroke-linejoin="round" stroke-width="5.87496" stroke="#7523E3" d="M303.487 59.5193C296.685 59.7922 292.361 55.4035 292.069 48.1278L291.232 27.247L302.471 26.7961L303.166 44.1278C303.306 47.6177 305.216 49.4371 307.937 49.3279C310.658 49.2187 312.593 47.2452 312.453 43.7552L311.758 26.4235L322.938 25.975L324.221 57.9765L313.042 58.425L312.864 53.9886C310.9 56.7335 308.042 59.3365 303.487 59.5193Z"></path>
<path mask="url(#path-1-outside-1_1765_827)" stroke-linejoin="round" stroke-width="5.87496" stroke="#7523E3" d="M333.2 57.6163L331.916 25.6148L343.155 25.1639L343.414 31.6115C345.072 27.1607 347.916 24.2027 353.249 24.2258L353.723 36.0563L352.777 36.0942C346.921 36.3292 343.744 39.8337 344.038 47.1686L344.439 57.1654L333.2 57.6163Z"></path>
<path mask="url(#path-1-outside-1_1765_827)" stroke-linejoin="round" stroke-width="5.87496" stroke="#7523E3" d="M379.758 55.7485L379.411 47.1122L394.434 34.66C398.158 31.489 399.618 29.4753 399.518 26.9909C399.412 24.329 397.514 22.8054 394.674 22.9194C391.894 23.0309 389.772 24.775 386.668 28.6321L378.661 22.4953C382.867 16.5796 387.177 13.2665 395.163 12.9462C404.213 12.5831 410.64 17.7168 410.954 25.5249L410.958 25.6432C411.224 32.2683 407.931 35.8367 401.957 40.52L395.058 45.7735L412.153 45.0877L412.528 54.4338L379.758 55.7485Z"></path>
<path mask="url(#path-1-outside-1_1765_827)" stroke-linejoin="round" stroke-width="5.87496" stroke="#7523E3" d="M439.24 54.1916C427.469 54.6639 419.745 45.2571 419.275 33.545L419.27 33.4267C418.8 21.7145 425.86 11.5962 437.631 11.1239C449.402 10.6517 457.127 20.0584 457.596 31.7706L457.601 31.8889C458.071 43.6011 451.071 53.717 439.24 54.1916ZM438.951 44.0127C443.564 43.8276 446.335 39.0359 446.071 32.47L446.066 32.3517C445.801 25.7266 442.532 21.0586 437.919 21.2437C433.364 21.4265 430.535 26.2205 430.8 32.8456L430.805 32.9639C431.071 39.589 434.337 44.1978 438.951 44.0127Z"></path>
<path mask="url(#path-1-outside-1_1765_827)" stroke-linejoin="round" stroke-width="5.87496" stroke="#7523E3" d="M465.217 52.3201L464.87 43.6838L479.894 31.2316C483.617 28.0606 485.077 26.0468 484.977 23.5624C484.871 20.9006 482.973 19.377 480.133 19.4909C477.353 19.6025 475.231 21.3465 472.127 25.2037L464.12 19.0669C468.326 13.1511 472.637 9.83809 480.622 9.51773C489.672 9.15465 496.099 14.2883 496.413 22.0965L496.417 22.2148C496.683 28.8398 493.39 32.4083 487.416 37.0916L480.517 42.3451L497.612 41.6593L497.987 51.0054L465.217 52.3201Z"></path>
<path mask="url(#path-1-outside-1_1765_827)" stroke-linejoin="round" stroke-width="5.87496" stroke="#7523E3" d="M525.042 49.92L524.719 41.8753L504.607 42.6821L502.449 34.6518L522.896 8.23654L534.43 7.77379L535.437 32.8544L540.701 32.6432L541.045 41.2203L535.781 41.4315L536.103 49.4763L525.042 49.92ZM514.44 33.756L524.378 33.3573L523.898 21.4085L514.44 33.756Z"></path>
<path mask="url(#path-1-outside-1_1765_827)" stroke-linejoin="round" stroke-width="5.87496" stroke="#7523E3" d="M547.829 35.3789L547.435 25.5596L566.837 24.7812L567.231 34.6005L547.829 35.3789Z"></path>
<path mask="url(#path-1-outside-1_1765_827)" stroke-linejoin="round" stroke-width="5.87496" stroke="#7523E3" d="M575.065 47.9132L574.718 39.277L589.741 26.8247C593.465 23.6537 594.925 21.64 594.825 19.1556C594.718 16.4937 592.821 14.9702 589.981 15.0841C587.201 15.1956 585.079 16.9397 581.975 20.7968L573.968 14.6601C578.174 8.7443 582.484 5.43125 590.47 5.11088C599.52 4.74781 605.947 9.8815 606.26 17.6896L606.265 17.8079C606.531 24.433 603.238 28.0015 597.264 32.6847L590.365 37.9383L607.46 37.2525L607.835 46.5985L575.065 47.9132Z"></path>
<path mask="url(#path-1-outside-1_1765_827)" stroke-linejoin="round" stroke-width="5.87496" stroke="#7523E3" d="M630.939 46.5011C623.604 46.7954 618.415 44.4559 613.935 40.6068L620.193 32.6536C623.619 35.36 626.88 36.8881 630.429 36.7457C634.215 36.5939 636.387 34.6108 636.268 31.6532L636.263 31.5349C636.142 28.5181 633.587 26.8432 629.978 26.988C627.435 27.09 625.341 28.0627 623.436 29.3241L616.48 25.7521L616.823 4.76464L644.506 3.65405L644.886 13.1184L626.253 13.866L626.149 20.1504C628.007 19.1871 629.935 18.5173 632.715 18.4058C640.168 18.1068 647.078 21.9769 647.438 30.9681L647.443 31.0864C647.811 40.255 640.995 46.0977 630.939 46.5011Z"></path>
<path mask="url(#path-1-outside-1_1765_827)" stroke-linejoin="round" stroke-width="5.87496" stroke="#7523E3" d="M79.1465 139.576C71.8116 139.871 64.7982 137.841 59.4692 133.493L65.5515 125.606C69.8227 128.693 74.3871 130.228 79.1785 130.036C82.3136 129.91 83.9271 128.779 83.8559 127.005L83.8512 126.886C83.78 125.112 82.3839 124.279 76.6507 123.146C67.7563 121.489 60.8541 119.277 60.5147 110.819L60.51 110.7C60.2015 103.01 66.0711 97.2057 76.0087 96.807C83.0479 96.5246 88.625 98.1968 93.2653 101.625L87.8526 109.959C83.9577 107.39 79.7625 106.195 76.095 106.342C73.3149 106.454 71.9994 107.632 72.0611 109.17L72.0659 109.289C72.1418 111.182 73.5947 111.953 79.4438 113.022C88.9913 114.712 95.0299 117.551 95.3408 125.3L95.3456 125.418C95.6849 133.877 89.2024 139.173 79.1465 139.576Z"></path>
<path mask="url(#path-1-outside-1_1765_827)" stroke-linejoin="round" stroke-width="5.87496" stroke="#7523E3" d="M119.275 138.026C109.574 138.415 102.231 131.126 101.868 122.076L101.863 121.957C101.5 112.907 108.174 104.996 118.289 104.59C124.855 104.327 129.346 106.991 132.238 111.141L124.894 117.123C123.214 115.117 121.446 113.884 118.784 113.991C115.117 114.138 112.585 117.498 112.742 121.402L112.747 121.521C112.913 125.661 115.641 128.692 119.427 128.54C122.148 128.431 123.814 127.12 125.446 124.981L133.177 130.121C130.395 134.617 126.255 137.746 119.275 138.026Z"></path>
<path mask="url(#path-1-outside-1_1765_827)" stroke-linejoin="round" stroke-width="5.87496" stroke="#7523E3" d="M140.381 136.409L138.649 93.2276L149.888 92.7767L150.512 108.334C152.475 105.589 155.336 103.045 159.89 102.862C166.693 102.589 170.955 106.921 171.247 114.197L172.087 135.137L160.907 135.585L160.212 118.254C160.069 114.705 158.159 112.885 155.438 112.994C152.717 113.104 150.782 115.077 150.925 118.626L151.62 135.958L140.381 136.409Z"></path>
<path mask="url(#path-1-outside-1_1765_827)" stroke-linejoin="round" stroke-width="5.87496" stroke="#7523E3" d="M197.186 134.9C187.011 135.308 179.316 128.093 178.951 118.983L178.946 118.865C178.58 109.755 185.727 101.826 195.961 101.415C206.194 101.005 213.89 108.22 214.255 117.33L214.26 117.448C214.625 126.558 207.478 134.487 197.186 134.9ZM196.922 125.372C201.003 125.208 203.535 121.848 203.381 118.003L203.376 117.885C203.217 113.922 200.185 110.725 196.222 110.884C192.141 111.048 189.668 114.406 189.825 118.31L189.83 118.428C189.986 122.332 192.959 125.531 196.922 125.372Z"></path>
<path mask="url(#path-1-outside-1_1765_827)" stroke-linejoin="round" stroke-width="5.87496" stroke="#7523E3" d="M238.962 133.224C228.788 133.632 221.092 126.417 220.727 117.307L220.722 117.189C220.357 108.079 227.504 100.15 237.737 99.7392C247.971 99.3287 255.666 106.544 256.031 115.654L256.036 115.772C256.402 124.882 249.255 132.811 238.962 133.224ZM238.698 123.696C242.78 123.532 245.311 120.172 245.157 116.327L245.152 116.209C244.993 112.246 241.962 109.049 237.999 109.208C233.917 109.372 231.445 112.73 231.602 116.634L231.606 116.752C231.763 120.656 234.735 123.855 238.698 123.696Z"></path>
<path mask="url(#path-1-outside-1_1765_827)" stroke-linejoin="round" stroke-width="5.87496" stroke="#7523E3" d="M264.677 131.422L262.945 88.2411L274.125 87.7926L275.857 130.974L264.677 131.422Z"></path>
<path mask="url(#path-1-outside-1_1765_827)" stroke-linejoin="round" stroke-width="5.87496" stroke="#7523E3" d="M317.153 129.317L316.531 113.819L299.698 88.5441L312.771 88.0196L321.894 102.762L329.866 87.3338L342.702 86.8189L328 113.181L328.628 128.857L317.153 129.317Z"></path>
<path mask="url(#path-1-outside-1_1765_827)" stroke-linejoin="round" stroke-width="5.87496" stroke="#7523E3" d="M359.614 128.384C349.558 128.787 342.189 122.329 341.793 112.45L341.788 112.332C341.413 102.986 347.801 95.3237 357.265 94.944C368.268 94.5026 373.68 102.402 374.057 111.808C374.086 112.517 374.119 113.346 374.091 114.117L352.677 114.976C353.705 118.43 356.319 120.103 359.809 119.963C362.53 119.854 364.56 118.765 366.777 116.425L373.195 121.322C370.275 125.349 365.943 128.13 359.614 128.384ZM352.27 109.245L363.45 108.797C362.893 105.264 360.673 103.102 357.598 103.225C354.64 103.344 352.719 105.672 352.27 109.245Z"></path>
<path mask="url(#path-1-outside-1_1765_827)" stroke-linejoin="round" stroke-width="5.87496" stroke="#7523E3" d="M391.699 127.038C385.606 127.282 380.85 123.918 380.596 117.589L380.591 117.47C380.323 110.786 385.216 107.213 392.728 106.911C395.685 106.793 398.605 107.209 400.468 107.845L400.446 107.313C400.311 103.941 398.165 102.131 393.846 102.304C390.475 102.44 387.901 103.254 385.045 104.435L382.422 96.6602C385.971 95.0366 389.776 93.8768 395.277 93.6561C401.015 93.4259 404.973 94.6298 407.619 97.0713C410.139 99.3401 411.278 102.612 411.458 107.108L412.196 125.504L401.135 125.948L400.999 122.576C398.849 125.092 395.898 126.869 391.699 127.038ZM395.439 119.837C398.751 119.704 400.975 117.541 400.847 114.347L400.788 112.868C399.586 112.442 397.974 112.152 396.318 112.218C393.064 112.349 391.233 113.962 391.331 116.388L391.335 116.506C391.423 118.695 393.132 119.93 395.439 119.837Z"></path>
<path mask="url(#path-1-outside-1_1765_827)" stroke-linejoin="round" stroke-width="5.87496" stroke="#7523E3" d="M420.87 125.156L419.586 93.1548L430.825 92.7039L431.084 99.1516C432.742 94.7007 435.585 91.7427 440.919 91.7658L441.393 103.596L440.447 103.634C434.591 103.869 431.413 107.374 431.708 114.709L432.109 124.705L420.87 125.156Z"></path>
<path mask="url(#path-1-outside-1_1765_827)" stroke-linejoin="round" stroke-width="5.87496" stroke="#7523E3" d="M469.143 123.22L467.482 81.813L485.286 81.0987C495.697 80.681 502.657 85.7934 503.022 94.9028L503.027 95.0212C503.421 104.84 496.115 110.288 485.881 110.699L480.144 110.929L480.618 122.759L469.143 123.22ZM479.783 101.938L485.284 101.717C489.307 101.556 491.762 99.2649 491.632 96.0115L491.627 95.8932C491.485 92.3441 488.867 90.6124 484.786 90.7761L479.344 90.9945L479.783 101.938Z"></path>
<path mask="url(#path-1-outside-1_1765_827)" stroke-linejoin="round" stroke-width="5.87496" stroke="#7523E3" d="M519.581 121.907C513.488 122.152 508.732 118.788 508.478 112.458L508.473 112.34C508.205 105.656 513.098 102.082 520.61 101.781C523.568 101.662 526.488 102.078 528.35 102.715L528.329 102.182C528.193 98.8106 526.047 97.0008 521.729 97.174C518.357 97.3093 515.783 98.1235 512.927 99.3045L510.305 91.5298C513.854 89.9062 517.658 88.7464 523.159 88.5257C528.897 88.2955 532.856 89.4994 535.501 91.9409C538.022 94.2097 539.16 97.4819 539.34 101.977L540.078 120.374L529.017 120.818L528.882 117.446C526.731 119.961 523.781 121.739 519.581 121.907ZM523.321 114.707C526.634 114.574 528.857 112.411 528.729 109.217L528.67 107.738C527.468 107.312 525.857 107.021 524.2 107.088C520.947 107.218 519.116 108.832 519.213 111.257L519.218 111.376C519.306 113.564 521.014 114.799 523.321 114.707Z"></path>
<path mask="url(#path-1-outside-1_1765_827)" stroke-linejoin="round" stroke-width="5.87496" stroke="#7523E3" d="M564.871 128.977C558.719 129.224 553.462 128.132 548.753 125.951L552.062 118.353C555.569 120.108 559.045 121.094 563.363 120.921C568.923 120.698 571.592 117.806 571.388 112.719L571.338 111.477C569.195 114.17 566.325 116.477 561.711 116.662C553.844 116.978 547.227 111.555 546.86 102.387L546.855 102.269C546.485 93.0407 552.764 87.1011 560.099 86.8068C564.949 86.6122 567.867 88.4503 570.335 90.899L570.183 87.1132L581.422 86.6623L582.397 110.974C582.632 116.83 581.497 121.023 578.769 123.917C575.989 126.991 571.555 128.709 564.871 128.977ZM564.677 107.893C568.522 107.739 571.136 104.968 570.994 101.419L570.989 101.3C570.847 97.7512 567.96 95.2008 564.174 95.3527C560.329 95.507 557.715 98.278 557.86 101.886L557.864 102.005C558.007 105.554 560.832 108.047 564.677 107.893Z"></path>
<path mask="url(#path-1-outside-1_1765_827)" stroke-linejoin="round" stroke-width="5.87496" stroke="#7523E3" d="M607.627 118.434C597.571 118.838 590.202 112.379 589.806 102.501L589.801 102.382C589.426 93.0362 595.814 85.374 605.278 84.9943C616.28 84.5529 621.693 92.4527 622.07 101.858C622.098 102.568 622.132 103.396 622.103 104.167L600.69 105.026C601.717 108.481 604.332 110.153 607.822 110.013C610.543 109.904 612.573 108.815 614.79 106.475L621.207 111.372C618.288 115.4 613.956 118.18 607.627 118.434ZM600.282 99.2956L611.462 98.8471C610.906 95.3146 608.686 93.1522 605.61 93.2756C602.653 93.3943 600.732 95.7228 600.282 99.2956Z"></path>
</g>
<defs>
<filter color-interpolation-filters="sRGB" filterUnits="userSpaceOnUse" height="146.721" width="650.043" y="0.716553" x="0.351651" id="filter0_d_1765_827">
<feFlood result="BackgroundImageFix" flood-opacity="0"></feFlood>
<feColorMatrix result="hardAlpha" values="0 0 0 0 0 0 0 0 0 0 0 0 0 0 0 0 0 0 127 0" type="matrix" in="SourceAlpha"></feColorMatrix>
<feOffset dy="4.8958" dx="-4.8958"></feOffset>
<feComposite operator="out" in2="hardAlpha"></feComposite>
<feColorMatrix values="0 0 0 0 0.458824 0 0 0 0 0.137255 0 0 0 0 0.890196 0 0 0 1 0" type="matrix"></feColorMatrix>
<feBlend result="effect1_dropShadow_1765_827" in2="BackgroundImageFix" mode="normal"></feBlend>
<feBlend result="shape" in2="effect1_dropShadow_1765_827" in="SourceGraphic" mode="normal"></feBlend>
</filter>
</defs>
</svg>
