<svg width="269" height="53" viewBox="0 0 269 53" fill="none" xmlns="http://www.w3.org/2000/svg">
<path d="M0.281992 1.15H7.84199L8.74199 20.71L9.70199 1.15H19.812L20.742 20.71L21.672 1.15H29.142L26.712 22H15.672L14.742 2.56L13.842 22H2.71199L0.281992 1.15ZM42.0582 14.05H37.7682V22H30.2382V1.15H37.7682V8.62H42.0582V1.15H49.5882V22H42.0582V14.05ZM57.2419 14.2L50.7019 1.15H58.3519L61.0519 7.6L63.7219 1.15H71.2819L64.7719 14.2V22H57.2419V14.2ZM86.4509 14.2L79.9109 1.15H87.5609L90.2609 7.6L92.9309 1.15H100.491L93.9809 14.2V22H86.4509V14.2ZM109.321 22.42C107.721 22.42 106.261 22.16 104.941 21.64C103.641 21.12 102.521 20.39 101.581 19.45C100.661 18.51 99.9414 17.37 99.4214 16.03C98.9214 14.69 98.6714 13.2 98.6714 11.56C98.6714 9.92 98.9214 8.44 99.4214 7.12C99.9414 5.78 100.661 4.64 101.581 3.7C102.521 2.74 103.641 2.01 104.941 1.51C106.261 0.989999 107.721 0.729998 109.321 0.729998C110.921 0.729998 112.371 0.989999 113.671 1.51C114.991 2.01 116.111 2.74 117.031 3.7C117.971 4.64 118.691 5.78 119.191 7.12C119.711 8.44 119.971 9.92 119.971 11.56C119.971 13.2 119.711 14.69 119.191 16.03C118.691 17.37 117.971 18.51 117.031 19.45C116.111 20.39 114.991 21.12 113.671 21.64C112.371 22.16 110.921 22.42 109.321 22.42ZM109.321 16.75C110.361 16.75 111.141 16.28 111.661 15.34C112.181 14.4 112.441 13.14 112.441 11.56C112.441 10 112.181 8.75 111.661 7.81C111.141 6.87 110.361 6.4 109.321 6.4C108.281 6.4 107.501 6.87 106.981 7.81C106.461 8.75 106.201 10 106.201 11.56C106.201 13.14 106.461 14.4 106.981 15.34C107.501 16.28 108.281 16.75 109.321 16.75ZM131.009 22.42C129.489 22.42 128.129 22.23 126.929 21.85C125.729 21.47 124.719 20.93 123.899 20.23C123.079 19.51 122.449 18.65 122.009 17.65C121.589 16.63 121.379 15.49 121.379 14.23V1.15H128.909V14.56C128.909 15.26 129.099 15.8 129.479 16.18C129.859 16.56 130.369 16.75 131.009 16.75C131.649 16.75 132.159 16.56 132.539 16.18C132.919 15.8 133.109 15.26 133.109 14.56V1.15H140.639V14.23C140.639 15.49 140.419 16.63 139.979 17.65C139.559 18.65 138.939 19.51 138.119 20.23C137.299 20.93 136.289 21.47 135.089 21.85C133.909 22.23 132.549 22.42 131.009 22.42ZM157.883 22.42C156.923 22.42 156.023 22.35 155.183 22.21C154.363 22.09 153.633 21.94 152.993 21.76C152.353 21.58 151.813 21.4 151.373 21.22C150.933 21.02 150.613 20.86 150.413 20.74V15.73C151.193 16.05 152.103 16.34 153.143 16.6C154.203 16.86 155.393 16.99 156.713 16.99C157.713 16.99 158.393 16.87 158.753 16.63C159.113 16.37 159.293 16.02 159.293 15.58C159.293 15.2 159.153 14.91 158.873 14.71C158.613 14.51 158.193 14.33 157.613 14.17L157.133 14.05C156.113 13.79 155.163 13.49 154.283 13.15C153.423 12.81 152.673 12.39 152.033 11.89C151.413 11.37 150.923 10.75 150.563 10.03C150.223 9.31 150.053 8.44 150.053 7.42C150.053 6.46 150.233 5.58 150.593 4.78C150.973 3.96 151.513 3.25 152.213 2.65C152.913 2.05 153.773 1.58 154.793 1.24C155.813 0.899999 156.973 0.729998 158.273 0.729998C159.113 0.729998 159.893 0.779998 160.613 0.879998C161.353 0.959998 162.013 1.07 162.593 1.21C163.193 1.35 163.713 1.5 164.153 1.66C164.613 1.82 164.973 1.97 165.233 2.11V7.06C164.573 6.84 163.773 6.64 162.833 6.46C161.893 6.26 160.853 6.16 159.713 6.16C158.873 6.16 158.283 6.26 157.943 6.46C157.623 6.64 157.463 6.91 157.463 7.27C157.463 7.61 157.593 7.87 157.853 8.05C158.113 8.21 158.543 8.37 159.143 8.53L159.593 8.65C160.633 8.91 161.583 9.21 162.443 9.55C163.303 9.89 164.043 10.31 164.663 10.81C165.303 11.29 165.793 11.89 166.133 12.61C166.493 13.33 166.673 14.2 166.673 15.22C166.673 16.28 166.483 17.26 166.103 18.16C165.723 19.04 165.163 19.8 164.423 20.44C163.683 21.06 162.763 21.55 161.663 21.91C160.563 22.25 159.303 22.42 157.883 22.42ZM179.988 14.05H175.698V22H168.168V1.15H175.698V8.62H179.988V1.15H187.518V22H179.988V14.05ZM199.614 22.42C198.014 22.42 196.554 22.16 195.234 21.64C193.934 21.12 192.814 20.39 191.874 19.45C190.954 18.51 190.234 17.37 189.714 16.03C189.214 14.69 188.964 13.2 188.964 11.56C188.964 9.92 189.214 8.44 189.714 7.12C190.234 5.78 190.954 4.64 191.874 3.7C192.814 2.74 193.934 2.01 195.234 1.51C196.554 0.989999 198.014 0.729998 199.614 0.729998C201.214 0.729998 202.664 0.989999 203.964 1.51C205.284 2.01 206.404 2.74 207.324 3.7C208.264 4.64 208.984 5.78 209.484 7.12C210.004 8.44 210.264 9.92 210.264 11.56C210.264 13.2 210.004 14.69 209.484 16.03C208.984 17.37 208.264 18.51 207.324 19.45C206.404 20.39 205.284 21.12 203.964 21.64C202.664 22.16 201.214 22.42 199.614 22.42ZM199.614 16.75C200.654 16.75 201.434 16.28 201.954 15.34C202.474 14.4 202.734 13.14 202.734 11.56C202.734 10 202.474 8.75 201.954 7.81C201.434 6.87 200.654 6.4 199.614 6.4C198.574 6.4 197.794 6.87 197.274 7.81C196.754 8.75 196.494 10 196.494 11.56C196.494 13.14 196.754 14.4 197.274 15.34C197.794 16.28 198.574 16.75 199.614 16.75ZM221.302 22.42C219.782 22.42 218.422 22.23 217.222 21.85C216.022 21.47 215.012 20.93 214.192 20.23C213.372 19.51 212.742 18.65 212.302 17.65C211.882 16.63 211.672 15.49 211.672 14.23V1.15H219.202V14.56C219.202 15.26 219.392 15.8 219.772 16.18C220.152 16.56 220.662 16.75 221.302 16.75C221.942 16.75 222.452 16.56 222.832 16.18C223.212 15.8 223.402 15.26 223.402 14.56V1.15H230.932V14.23C230.932 15.49 230.712 16.63 230.272 17.65C229.852 18.65 229.232 19.51 228.412 20.23C227.592 20.93 226.582 21.47 225.382 21.85C224.202 22.23 222.842 22.42 221.302 22.42ZM232.592 1.15H240.122V16.45H246.902V22H232.592V1.15ZM248.178 1.15H257.118C259.018 1.15 260.668 1.39 262.068 1.87C263.468 2.35 264.628 3.04 265.548 3.94C266.488 4.82 267.178 5.91 267.618 7.21C268.078 8.49 268.308 9.94 268.308 11.56C268.308 13.18 268.078 14.64 267.618 15.94C267.178 17.22 266.488 18.31 265.548 19.21C264.628 20.11 263.468 20.8 262.068 21.28C260.668 21.76 259.018 22 257.118 22H248.178V1.15ZM256.938 16.45C258.178 16.45 259.118 16.08 259.758 15.34C260.418 14.6 260.748 13.34 260.748 11.56C260.748 9.78 260.418 8.53 259.758 7.81C259.118 7.07 258.178 6.7 256.938 6.7H255.708V16.45H256.938ZM63.128 31.15H81.908V36.7H76.298V52H68.768V36.7H63.128V31.15ZM90.7662 44.11V52H83.2362V31.15H92.7762C95.8162 31.15 98.1162 31.71 99.6762 32.83C101.256 33.93 102.046 35.56 102.046 37.72C102.046 40.5 100.666 42.37 97.9062 43.33L103.126 52H95.1762L90.7662 44.11ZM90.7662 36.49V40.6H92.4162C93.1562 40.6 93.7162 40.42 94.0962 40.06C94.4962 39.7 94.6962 39.2 94.6962 38.56C94.6962 37.9 94.4962 37.39 94.0962 37.03C93.7162 36.67 93.1562 36.49 92.4162 36.49H90.7662ZM112.874 52.42C111.354 52.42 109.994 52.23 108.794 51.85C107.594 51.47 106.584 50.93 105.764 50.23C104.944 49.51 104.314 48.65 103.874 47.65C103.454 46.63 103.244 45.49 103.244 44.23V31.15H110.774V44.56C110.774 45.26 110.964 45.8 111.344 46.18C111.724 46.56 112.234 46.75 112.874 46.75C113.514 46.75 114.024 46.56 114.404 46.18C114.784 45.8 114.974 45.26 114.974 44.56V31.15H122.504V44.23C122.504 45.49 122.284 46.63 121.844 47.65C121.424 48.65 120.804 49.51 119.984 50.23C119.164 50.93 118.154 51.47 116.954 51.85C115.774 52.23 114.414 52.42 112.874 52.42ZM131.663 52.42C130.703 52.42 129.803 52.35 128.963 52.21C128.143 52.09 127.413 51.94 126.773 51.76C126.133 51.58 125.593 51.4 125.153 51.22C124.713 51.02 124.393 50.86 124.193 50.74V45.73C124.973 46.05 125.883 46.34 126.923 46.6C127.983 46.86 129.173 46.99 130.493 46.99C131.493 46.99 132.173 46.87 132.533 46.63C132.893 46.37 133.073 46.02 133.073 45.58C133.073 45.2 132.933 44.91 132.653 44.71C132.393 44.51 131.973 44.33 131.393 44.17L130.913 44.05C129.893 43.79 128.943 43.49 128.063 43.15C127.203 42.81 126.453 42.39 125.813 41.89C125.193 41.37 124.703 40.75 124.343 40.03C124.003 39.31 123.833 38.44 123.833 37.42C123.833 36.46 124.013 35.58 124.373 34.78C124.753 33.96 125.293 33.25 125.993 32.65C126.693 32.05 127.553 31.58 128.573 31.24C129.593 30.9 130.753 30.73 132.053 30.73C132.893 30.73 133.673 30.78 134.393 30.88C135.133 30.96 135.793 31.07 136.373 31.21C136.973 31.35 137.493 31.5 137.933 31.66C138.393 31.82 138.753 31.97 139.013 32.11V37.06C138.353 36.84 137.553 36.64 136.613 36.46C135.673 36.26 134.633 36.16 133.493 36.16C132.653 36.16 132.063 36.26 131.723 36.46C131.403 36.64 131.243 36.91 131.243 37.27C131.243 37.61 131.373 37.87 131.633 38.05C131.893 38.21 132.323 38.37 132.923 38.53L133.373 38.65C134.413 38.91 135.363 39.21 136.223 39.55C137.083 39.89 137.823 40.31 138.443 40.81C139.083 41.29 139.573 41.89 139.913 42.61C140.273 43.33 140.453 44.2 140.453 45.22C140.453 46.28 140.263 47.26 139.883 48.16C139.503 49.04 138.943 49.8 138.203 50.44C137.463 51.06 136.543 51.55 135.443 51.91C134.343 52.25 133.083 52.42 131.663 52.42ZM140.296 31.15H159.076V36.7H153.466V52H145.936V36.7H140.296V31.15ZM178.089 52.42C176.569 52.42 175.209 52.23 174.009 51.85C172.809 51.47 171.799 50.93 170.979 50.23C170.159 49.51 169.529 48.65 169.089 47.65C168.669 46.63 168.459 45.49 168.459 44.23V31.15H175.989V44.56C175.989 45.26 176.179 45.8 176.559 46.18C176.939 46.56 177.449 46.75 178.089 46.75C178.729 46.75 179.239 46.56 179.619 46.18C179.999 45.8 180.189 45.26 180.189 44.56V31.15H187.719V44.23C187.719 45.49 187.499 46.63 187.059 47.65C186.639 48.65 186.019 49.51 185.199 50.23C184.379 50.93 183.369 51.47 182.169 51.85C180.989 52.23 179.629 52.42 178.089 52.42ZM196.877 52.42C195.917 52.42 195.017 52.35 194.177 52.21C193.357 52.09 192.627 51.94 191.987 51.76C191.347 51.58 190.807 51.4 190.367 51.22C189.927 51.02 189.607 50.86 189.407 50.74V45.73C190.187 46.05 191.097 46.34 192.137 46.6C193.197 46.86 194.387 46.99 195.707 46.99C196.707 46.99 197.387 46.87 197.747 46.63C198.107 46.37 198.287 46.02 198.287 45.58C198.287 45.2 198.147 44.91 197.867 44.71C197.607 44.51 197.187 44.33 196.607 44.17L196.127 44.05C195.107 43.79 194.157 43.49 193.277 43.15C192.417 42.81 191.667 42.39 191.027 41.89C190.407 41.37 189.917 40.75 189.557 40.03C189.217 39.31 189.047 38.44 189.047 37.42C189.047 36.46 189.227 35.58 189.587 34.78C189.967 33.96 190.507 33.25 191.207 32.65C191.907 32.05 192.767 31.58 193.787 31.24C194.807 30.9 195.967 30.73 197.267 30.73C198.107 30.73 198.887 30.78 199.607 30.88C200.347 30.96 201.007 31.07 201.587 31.21C202.187 31.35 202.707 31.5 203.147 31.66C203.607 31.82 203.967 31.97 204.227 32.11V37.06C203.567 36.84 202.767 36.64 201.827 36.46C200.887 36.26 199.847 36.16 198.707 36.16C197.867 36.16 197.277 36.26 196.937 36.46C196.617 36.64 196.457 36.91 196.457 37.27C196.457 37.61 196.587 37.87 196.847 38.05C197.107 38.21 197.537 38.37 198.137 38.53L198.587 38.65C199.627 38.91 200.577 39.21 201.437 39.55C202.297 39.89 203.037 40.31 203.657 40.81C204.297 41.29 204.787 41.89 205.127 42.61C205.487 43.33 205.667 44.2 205.667 45.22C205.667 46.28 205.477 47.26 205.097 48.16C204.717 49.04 204.157 49.8 203.417 50.44C202.677 51.06 201.757 51.55 200.657 51.91C199.557 52.25 198.297 52.42 196.877 52.42Z" fill="#B5FDFF"/>
</svg>
