<svg xmlns="http://www.w3.org/2000/svg" fill="none" viewBox="0 0 390 86" height="86" width="390">
<g clip-path="url(#clip0_1510_78)">
<path fill="#E7F8F7" d="M577.938 86.1428C546.365 88.0828 546.157 78.4655 514.54 78.4655C482.926 78.4655 482.926 86.1478 451.309 86.1478C419.695 86.1478 419.695 78.4655 388.078 78.4655C356.464 78.4655 356.464 86.1478 324.847 86.1478C293.233 86.1478 293.233 78.4655 261.616 78.4655C230.002 78.4655 230.002 86.1478 198.385 86.1478C166.767 86.1478 166.771 78.4655 135.154 78.4655C103.536 78.4655 103.536 86.1478 71.9225 86.1478C40.309 86.1478 40.309 78.4655 8.69147 78.4655C-22.9261 78.4655 -22.9261 86.1478 -54.5436 86.1478C-86.1612 86.1478 -86.0348 80.4055 -117.612 78.4703C-119.234 78.3733 -121 80.3667 -121 78.4267C-121 76.4866 -114.541 76.4866 -114.541 74.5466C-114.541 72.6065 -121 72.6065 -121 70.6713C-121 68.7361 -114.541 68.7313 -114.541 66.7912C-114.541 64.8512 -121 64.8512 -121 62.9111C-121 60.9711 -114.541 60.9711 -114.541 59.031C-114.541 57.091 -121 21.5602 -121 19.6202C-121 17.6801 -114.541 17.6801 -114.541 15.7401C-114.541 13.8 -121 13.8 -121 11.86C-121 9.91988 -114.541 9.91988 -114.541 7.97498C-114.541 6.03008 -119.569 0.360283 -117.938 0.258483C-86.365 -1.68162 -86.1571 7.93618 -54.5395 7.93618C-22.922 7.93618 -22.9261 0.253583 8.69147 0.253583C40.309 0.253583 40.3049 7.93618 71.9225 7.93618C103.54 7.93618 103.536 0.253583 135.149 0.253583C166.763 0.253583 166.763 7.93618 198.38 7.93618C229.998 7.93618 229.998 0.253583 261.611 0.253583C293.225 0.253583 293.225 7.93618 324.842 7.93618C356.46 7.93618 356.456 0.253583 388.073 0.253583C419.691 0.253583 419.687 7.93618 451.305 7.93618C482.922 7.93618 482.922 0.253583 514.536 0.253583C546.149 0.253583 546.027 5.99618 577.603 7.93138C579.23 8.03318 581 6.03498 581 7.97498C581 9.91508 574.541 9.91508 574.541 11.8551C574.541 13.7952 581 13.7952 581 15.7352C581 17.6753 574.541 17.6753 574.541 19.6153C574.541 21.5553 581 57.0861 581 59.0262C581 60.9662 574.541 60.9662 574.541 62.9063C574.541 64.8463 581 64.8463 581 66.7864C581 68.7264 574.541 68.7264 574.541 70.6665C574.541 72.6065 581 72.6065 581 74.5466C581 76.4866 574.297 77.2238 574.594 79.1299C575.222 83.1555 579.565 86.0458 577.938 86.1478V86.1428Z"></path>
</g>
<defs>
<clipPath id="clip0_1510_78">
<rect fill="white" height="86" width="390"></rect>
</clipPath>
</defs>
</svg>