<svg xmlns="http://www.w3.org/2000/svg" fill="none" viewBox="0 0 1488 137" height="137" width="1488">
<g clip-path="url(#clip0_1522_148)">
<path fill="#E7F8F7" d="M1735.97 136.304C1642.92 141.529 1642.31 115.627 1549.12 115.627C1455.95 115.627 1455.95 136.317 1362.76 136.317C1269.59 136.317 1269.59 115.627 1176.4 115.627C1083.23 115.627 1083.23 136.317 990.041 136.317C896.866 136.317 896.866 115.627 803.68 115.627C710.506 115.627 710.506 136.317 617.32 136.317C524.134 136.317 524.146 115.627 430.959 115.627C337.773 115.627 337.773 136.317 244.599 136.317C151.425 136.317 151.425 115.627 58.2388 115.627C-34.9474 115.627 -34.9474 136.317 -128.134 136.317C-221.32 136.317 -220.947 120.852 -314.013 115.64C-318.796 115.379 -324 120.747 -324 115.523C-324 110.298 -304.964 110.298 -304.964 105.073C-304.964 99.8484 -324 99.8484 -324 94.6367C-324 89.425 -304.964 89.412 -304.964 84.1872C-304.964 78.9625 -324 78.9625 -324 73.7378C-324 68.5131 -304.964 68.5131 -304.964 63.2883C-304.964 58.0636 -324 58.0636 -324 52.8389C-324 47.6141 -304.964 47.6141 -304.964 42.3894C-304.964 37.1647 -324 37.1647 -324 31.94C-324 26.7152 -304.964 26.7152 -304.964 21.4774C-304.964 16.2397 -319.782 0.970382 -314.975 0.696084C-221.921 -4.52864 -221.308 21.3729 -128.122 21.3729C-34.9354 21.3729 -34.9474 0.683022 58.2388 0.683022C151.425 0.683022 151.413 21.3729 244.599 21.3729C337.785 21.3729 337.773 0.683022 430.947 0.683022C524.122 0.683022 524.122 21.3729 617.308 21.3729C710.494 21.3729 710.494 0.683022 803.668 0.683022C896.842 0.683022 896.842 21.3729 990.028 21.3729C1083.21 21.3729 1083.2 0.683022 1176.39 0.683022C1269.57 0.683022 1269.56 21.3729 1362.75 21.3729C1455.94 21.3729 1455.94 0.683022 1549.11 0.683022C1642.28 0.683022 1641.92 16.1482 1734.99 21.3599C1739.78 21.6342 1745 16.2527 1745 21.4774C1745 26.7022 1725.96 26.7022 1725.96 31.9269C1725.96 37.1516 1745 37.1516 1745 42.3764C1745 47.6011 1725.96 47.6011 1725.96 52.8258C1725.96 58.0505 1745 58.0505 1745 63.2753C1745 68.5 1725.96 68.5 1725.96 73.7247C1725.96 78.9495 1745 78.9495 1745 84.1742C1745 89.3989 1725.96 89.3989 1725.96 94.6236C1725.96 99.8484 1745 99.8484 1745 105.073C1745 110.298 1725.24 112.283 1726.12 117.417C1727.97 128.258 1740.77 136.043 1735.97 136.317V136.304Z"></path>
</g>
<defs>
<clipPath id="clip0_1522_148">
<rect fill="white" height="137" width="1488"></rect>
</clipPath>
</defs>
</svg>
