<?xml version="1.0" encoding="utf-8"?>
<!-- Generator: Adobe Illustrator 26.5.0, SVG Export Plug-In . SVG Version: 6.00 Build 0)  -->
<svg version="1.1" id="Layer_1" xmlns="http://www.w3.org/2000/svg" xmlns:xlink="http://www.w3.org/1999/xlink" x="0px" y="0px"
	 viewBox="0 0 100 58" style="enable-background:new 0 0 100 58;" xml:space="preserve">
<style type="text/css">
	.st0{fill-rule:evenodd;clip-rule:evenodd;fill:#FFFFFF;}
</style>
<g>
	<g>
		<path class="st0" d="M98.5,25.8L70.2,1.2c-1.8-1.5-4.4-1.3-5.9,0.4c-1.5,1.8-1.3,4.5,0.4,6l19.9,17.3H1.5c-0.8,0-1.5,0.7-1.5,1.5
			v5.3c0,0.8,0.7,1.5,1.5,1.5h83.1L64.7,50.4c-1.8,1.5-2,4.2-0.4,6c0.8,1,2,1.5,3.2,1.5c1,0,2-0.3,2.7-1l28.3-24.6
			c0.9-0.8,1.5-2,1.5-3.2C100,27.8,99.4,26.6,98.5,25.8z"/>
	</g>
</g>
</svg>
