<svg xmlns="http://www.w3.org/2000/svg" fill="none" viewBox="0 0 347 519" height="519" width="347">
<rect fill="#FFE5AD" height="515" width="344" y="1.87451" x="1.5"></rect>
<rect stroke-width="3" stroke="black" height="515" width="344" y="1.87451" x="1.5"></rect>
<mask fill="white" id="path-2-inside-1_4_1202">
<path d="M0 0H347V46H0V0Z"></path>
</mask>
<path fill="url(#paint0_linear_4_1202)" d="M0 0H347V46H0V0Z"></path>
<path mask="url(#path-2-inside-1_4_1202)" fill="black" d="M0 0V-3H-3V0H0ZM347 0H350V-3H347V0ZM0 3H347V-3H0V3ZM344 0V46H350V0H344ZM3 46V0H-3V46H3Z"></path>
<g filter="url(#filter0_i_4_1202)">
<rect fill-opacity="0.8" fill="#D9D9D9" height="29" width="30" y="9.62549" x="8"></rect>
</g>
<g filter="url(#filter1_i_4_1202)">
<rect fill-opacity="0.8" fill="#D9D9D9" height="29" width="30" y="9.62549" x="46"></rect>
</g>
<path fill="#D9D9D9" d="M91.784 30.8175C88.264 30.8175 86.088 28.2575 86.088 25.0575V25.0255C86.088 21.9535 88.344 19.2335 91.704 19.2335C93.592 19.2335 94.76 19.7775 95.88 20.7215L95.064 21.6815C94.2 20.9295 93.24 20.4015 91.656 20.4015C89.176 20.4015 87.4 22.4975 87.4 24.9935V25.0255C87.4 27.6975 89.112 29.6815 91.832 29.6815C93.112 29.6815 94.296 29.1855 95.064 28.5615V25.7775H91.656V24.6415H96.28V29.1055C95.24 30.0335 93.672 30.8175 91.784 30.8175ZM102.699 30.8175C100.219 30.8175 98.4109 28.8655 98.4109 26.5295V26.4975C98.4109 24.1615 100.235 22.1775 102.731 22.1775C105.211 22.1775 107.035 24.1295 107.035 26.4655V26.4975C107.035 28.8335 105.195 30.8175 102.699 30.8175ZM102.731 29.7135C104.523 29.7135 105.771 28.2735 105.771 26.5295V26.4975C105.771 24.7215 104.443 23.2655 102.699 23.2655C100.907 23.2655 99.6749 24.7215 99.6749 26.4655V26.4975C99.6749 28.2735 100.987 29.7135 102.731 29.7135ZM113.043 30.8175C110.563 30.8175 108.755 28.8655 108.755 26.5295V26.4975C108.755 24.1615 110.579 22.1775 113.075 22.1775C115.555 22.1775 117.379 24.1295 117.379 26.4655V26.4975C117.379 28.8335 115.539 30.8175 113.043 30.8175ZM113.075 29.7135C114.867 29.7135 116.115 28.2735 116.115 26.5295V26.4975C116.115 24.7215 114.787 23.2655 113.043 23.2655C111.251 23.2655 110.019 24.7215 110.019 26.4655V26.4975C110.019 28.2735 111.331 29.7135 113.075 29.7135ZM123.082 30.8015C121.098 30.8015 119.13 29.2335 119.13 26.5135V26.4815C119.13 23.7775 121.098 22.1775 123.082 22.1775C124.618 22.1775 125.61 23.0095 126.25 23.9375V18.9455H127.482V30.6255H126.25V28.9615C125.578 29.9535 124.602 30.8015 123.082 30.8015ZM123.306 29.6975C124.842 29.6975 126.298 28.4015 126.298 26.4975V26.4655C126.298 24.5615 124.842 23.2815 123.306 23.2815C121.706 23.2815 120.394 24.4655 120.394 26.4655V26.4975C120.394 28.4495 121.754 29.6975 123.306 29.6975ZM134.635 30.8015C133.099 30.8015 132.107 29.9695 131.467 29.0415V30.6255H130.235V18.9455H131.467V24.0175C132.139 23.0255 133.115 22.1775 134.635 22.1775C136.619 22.1775 138.587 23.7455 138.587 26.4655V26.4975C138.587 29.2015 136.635 30.8015 134.635 30.8015ZM134.411 29.6975C136.011 29.6975 137.323 28.5135 137.323 26.5135V26.4815C137.323 24.5295 135.979 23.2815 134.411 23.2815C132.875 23.2815 131.419 24.5775 131.419 26.4655V26.4975C131.419 28.4175 132.875 29.6975 134.411 29.6975ZM143.99 29.2495L146.646 22.3535H147.958L144.486 30.8975C143.782 32.6095 142.982 33.2335 141.734 33.2335C141.046 33.2335 140.534 33.0895 139.974 32.8175L140.39 31.8415C140.79 32.0495 141.158 32.1455 141.686 32.1455C142.422 32.1455 142.886 31.7615 143.382 30.5935L139.622 22.3535H140.982L143.99 29.2495ZM153.039 30.8175C150.767 30.8175 148.911 29.0735 148.911 26.5135V26.4815C148.911 24.0975 150.591 22.1775 152.879 22.1775C155.327 22.1775 156.735 24.1295 156.735 26.5455C156.735 26.7055 156.735 26.8015 156.719 26.9455H150.159C150.335 28.7375 151.599 29.7455 153.071 29.7455C154.207 29.7455 155.007 29.2815 155.679 28.5775L156.447 29.2655C155.615 30.1935 154.607 30.8175 153.039 30.8175ZM150.159 26.0335H155.487C155.359 24.5295 154.495 23.2175 152.847 23.2175C151.407 23.2175 150.319 24.4175 150.159 26.0335ZM157.484 33.1855V32.1775H167.148V33.1855H157.484ZM172.533 30.7855C170.757 30.7855 169.301 30.1935 167.957 28.9935L168.741 28.0655C169.909 29.1215 171.029 29.6495 172.581 29.6495C174.085 29.6495 175.077 28.8495 175.077 27.7455V27.7135C175.077 26.6735 174.517 26.0815 172.165 25.5855C169.589 25.0255 168.405 24.1935 168.405 22.3535V22.3215C168.405 20.5615 169.957 19.2655 172.085 19.2655C173.717 19.2655 174.885 19.7295 176.021 20.6415L175.285 21.6175C174.245 20.7695 173.205 20.4015 172.053 20.4015C170.597 20.4015 169.669 21.2015 169.669 22.2095V22.2415C169.669 23.2975 170.245 23.8895 172.709 24.4175C175.205 24.9615 176.357 25.8735 176.357 27.5855V27.6175C176.357 29.5375 174.757 30.7855 172.533 30.7855ZM181.41 30.7695C180.082 30.7695 179.074 30.1135 179.074 28.4335V23.4415H177.922V22.3535H179.074V19.8575H180.306V22.3535H182.93V23.4415H180.306V28.2735C180.306 29.2815 180.866 29.6495 181.698 29.6495C182.114 29.6495 182.466 29.5695 182.898 29.3615V30.4175C182.466 30.6415 182.002 30.7695 181.41 30.7695ZM185.11 30.6255V22.3535H186.342V24.5135C186.95 23.1375 188.15 22.1455 189.718 22.2095V23.5375H189.622C187.814 23.5375 186.342 24.8335 186.342 27.3295V30.6255H185.11ZM194.851 30.8175C192.579 30.8175 190.723 29.0735 190.723 26.5135V26.4815C190.723 24.0975 192.403 22.1775 194.691 22.1775C197.139 22.1775 198.547 24.1295 198.547 26.5455C198.547 26.7055 198.547 26.8015 198.531 26.9455H191.971C192.147 28.7375 193.411 29.7455 194.883 29.7455C196.019 29.7455 196.819 29.2815 197.491 28.5775L198.259 29.2655C197.427 30.1935 196.419 30.8175 194.851 30.8175ZM191.971 26.0335H197.299C197.171 24.5295 196.307 23.2175 194.659 23.2175C193.219 23.2175 192.131 24.4175 191.971 26.0335ZM203.44 30.7855C202.256 30.7855 200.944 30.3215 200.016 29.5695L200.64 28.6895C201.536 29.3615 202.528 29.7455 203.504 29.7455C204.496 29.7455 205.216 29.2335 205.216 28.4335V28.4015C205.216 27.5695 204.24 27.2495 203.152 26.9455C201.856 26.5775 200.416 26.1295 200.416 24.6095V24.5775C200.416 23.1535 201.6 22.2095 203.232 22.2095C204.24 22.2095 205.36 22.5615 206.208 23.1215L205.648 24.0495C204.88 23.5535 204 23.2495 203.2 23.2495C202.224 23.2495 201.6 23.7615 201.6 24.4495V24.4815C201.6 25.2655 202.624 25.5695 203.728 25.9055C205.008 26.2895 206.384 26.7855 206.384 28.2735V28.3055C206.384 29.8735 205.088 30.7855 203.44 30.7855ZM211.253 30.7855C210.069 30.7855 208.757 30.3215 207.829 29.5695L208.453 28.6895C209.349 29.3615 210.341 29.7455 211.317 29.7455C212.309 29.7455 213.029 29.2335 213.029 28.4335V28.4015C213.029 27.5695 212.053 27.2495 210.965 26.9455C209.669 26.5775 208.229 26.1295 208.229 24.6095V24.5775C208.229 23.1535 209.413 22.2095 211.045 22.2095C212.053 22.2095 213.173 22.5615 214.021 23.1215L213.461 24.0495C212.693 23.5535 211.813 23.2495 211.013 23.2495C210.037 23.2495 209.413 23.7615 209.413 24.4495V24.4815C209.413 25.2655 210.437 25.5695 211.541 25.9055C212.821 26.2895 214.197 26.7855 214.197 28.2735V28.3055C214.197 29.8735 212.901 30.7855 211.253 30.7855ZM216.341 30.6255V28.9455H217.813V30.6255H216.341ZM220.502 20.5455V19.1855H221.91V20.5455H220.502ZM219.798 33.2335C219.51 33.2335 219.302 33.2175 219.03 33.1535V32.1455C219.222 32.1775 219.462 32.1935 219.638 32.1935C220.198 32.1935 220.582 31.8575 220.582 31.0895V22.3535H221.814V31.1055C221.814 32.5615 221.046 33.2335 219.798 33.2335ZM224.673 33.1855V22.3535H225.905V24.0175C226.577 23.0255 227.553 22.1775 229.073 22.1775C231.057 22.1775 233.025 23.7455 233.025 26.4655V26.4975C233.025 29.2015 231.073 30.8015 229.073 30.8015C227.537 30.8015 226.545 29.9695 225.905 29.0415V33.1855H224.673ZM228.849 29.6975C230.449 29.6975 231.761 28.5135 231.761 26.5135V26.4815C231.761 24.5295 230.417 23.2815 228.849 23.2815C227.313 23.2815 225.857 24.5775 225.857 26.4655V26.4975C225.857 28.4175 227.313 29.6975 228.849 29.6975ZM238.962 33.2175C237.586 33.2175 236.306 32.8335 235.202 32.0655L235.762 31.1055C236.706 31.7935 237.762 32.1615 238.946 32.1615C240.77 32.1615 241.954 31.1535 241.954 29.2175V28.2415C241.234 29.2015 240.226 29.9855 238.706 29.9855C236.722 29.9855 234.818 28.4975 234.818 26.1135V26.0815C234.818 23.6655 236.738 22.1775 238.706 22.1775C240.258 22.1775 241.266 22.9455 241.938 23.8415V22.3535H243.17V29.1855C243.17 30.4655 242.786 31.4415 242.114 32.1135C241.378 32.8495 240.274 33.2175 238.962 33.2175ZM238.946 28.8975C240.514 28.8975 241.986 27.7615 241.986 26.0975V26.0655C241.986 24.3695 240.514 23.2655 238.946 23.2655C237.378 23.2655 236.082 24.3535 236.082 26.0495V26.0815C236.082 27.7455 237.41 28.8975 238.946 28.8975Z"></path>
<defs>
<filter color-interpolation-filters="sRGB" filterUnits="userSpaceOnUse" height="30" width="31" y="9.62549" x="8" id="filter0_i_4_1202">
<feFlood result="BackgroundImageFix" flood-opacity="0"></feFlood>
<feBlend result="shape" in2="BackgroundImageFix" in="SourceGraphic" mode="normal"></feBlend>
<feColorMatrix result="hardAlpha" values="0 0 0 0 0 0 0 0 0 0 0 0 0 0 0 0 0 0 127 0" type="matrix" in="SourceAlpha"></feColorMatrix>
<feOffset dy="2" dx="3"></feOffset>
<feGaussianBlur stdDeviation="0.5"></feGaussianBlur>
<feComposite k3="1" k2="-1" operator="arithmetic" in2="hardAlpha"></feComposite>
<feColorMatrix values="0 0 0 0 0 0 0 0 0 0 0 0 0 0 0 0 0 0 0.25 0" type="matrix"></feColorMatrix>
<feBlend result="effect1_innerShadow_4_1202" in2="shape" mode="normal"></feBlend>
</filter>
<filter color-interpolation-filters="sRGB" filterUnits="userSpaceOnUse" height="30" width="31" y="9.62549" x="46" id="filter1_i_4_1202">
<feFlood result="BackgroundImageFix" flood-opacity="0"></feFlood>
<feBlend result="shape" in2="BackgroundImageFix" in="SourceGraphic" mode="normal"></feBlend>
<feColorMatrix result="hardAlpha" values="0 0 0 0 0 0 0 0 0 0 0 0 0 0 0 0 0 0 127 0" type="matrix" in="SourceAlpha"></feColorMatrix>
<feOffset dy="2" dx="3"></feOffset>
<feGaussianBlur stdDeviation="0.5"></feGaussianBlur>
<feComposite k3="1" k2="-1" operator="arithmetic" in2="hardAlpha"></feComposite>
<feColorMatrix values="0 0 0 0 0 0 0 0 0 0 0 0 0 0 0 0 0 0 0.25 0" type="matrix"></feColorMatrix>
<feBlend result="effect1_innerShadow_4_1202" in2="shape" mode="normal"></feBlend>
</filter>
<linearGradient gradientUnits="userSpaceOnUse" y2="22.455" x2="450.257" y1="22.455" x1="64.4479" id="paint0_linear_4_1202">
<stop stop-color="#01697D"></stop>
<stop stop-color="#02BFE3" offset="1"></stop>
</linearGradient>
</defs>
</svg>
