<svg xmlns="http://www.w3.org/2000/svg" fill="none" viewBox="0 0 348 519" height="519" width="348">
<rect fill="#FFE5AD" height="515" width="344" y="1.87451" x="1.85254"></rect>
<rect stroke-width="3" stroke="black" height="515" width="344" y="1.87451" x="1.85254"></rect>
<mask fill="white" id="path-2-inside-1_4_1239">
<path d="M0.352539 0H347.353V46H0.352539V0Z"></path>
</mask>
<path fill="url(#paint0_linear_4_1239)" d="M0.352539 0H347.353V46H0.352539V0Z"></path>
<path mask="url(#path-2-inside-1_4_1239)" fill="black" d="M0.352539 0V-3H-2.64746V0H0.352539ZM347.353 0H350.353V-3H347.353V0ZM0.352539 3H347.353V-3H0.352539V3ZM344.353 0V46H350.353V0H344.353ZM3.35254 46V0H-2.64746V46H3.35254Z"></path>
<g filter="url(#filter0_i_4_1239)">
<rect fill-opacity="0.8" fill="#D9D9D9" height="29" width="30" y="9.62549" x="8.35254"></rect>
</g>
<g filter="url(#filter1_i_4_1239)">
<rect fill-opacity="0.8" fill="#D9D9D9" height="29" width="30" y="9.62549" x="46.3525"></rect>
</g>
<path fill="#D9D9D9" d="M86.9365 30.6255V19.4255H88.2005V26.1135L94.6325 19.4255H96.2645L91.4645 24.3215L96.4725 30.6255H94.8885L90.5845 25.2015L88.2005 27.6175V30.6255H86.9365ZM98.2605 20.5455V19.1855H99.6685V20.5455H98.2605ZM98.3405 30.6255V22.3535H99.5725V30.6255H98.3405ZM105.904 30.8015C103.92 30.8015 101.952 29.2335 101.952 26.5135V26.4815C101.952 23.7775 103.92 22.1775 105.904 22.1775C107.44 22.1775 108.432 23.0095 109.072 23.9375V18.9455H110.304V30.6255H109.072V28.9615C108.4 29.9535 107.424 30.8015 105.904 30.8015ZM106.128 29.6975C107.664 29.6975 109.12 28.4015 109.12 26.4975V26.4655C109.12 24.5615 107.664 23.2815 106.128 23.2815C104.528 23.2815 103.216 24.4655 103.216 26.4655V26.4975C103.216 28.4495 104.576 29.6975 106.128 29.6975ZM115.793 30.7855C114.609 30.7855 113.297 30.3215 112.369 29.5695L112.993 28.6895C113.889 29.3615 114.881 29.7455 115.857 29.7455C116.849 29.7455 117.569 29.2335 117.569 28.4335V28.4015C117.569 27.5695 116.593 27.2495 115.505 26.9455C114.209 26.5775 112.769 26.1295 112.769 24.6095V24.5775C112.769 23.1535 113.953 22.2095 115.585 22.2095C116.593 22.2095 117.713 22.5615 118.561 23.1215L118.001 24.0495C117.233 23.5535 116.353 23.2495 115.553 23.2495C114.577 23.2495 113.953 23.7615 113.953 24.4495V24.4815C113.953 25.2655 114.977 25.5695 116.081 25.9055C117.361 26.2895 118.737 26.7855 118.737 28.2735V28.3055C118.737 29.8735 117.441 30.7855 115.793 30.7855ZM119.617 33.1855V32.1775H129.281V33.1855H119.617ZM134.667 30.7855C132.891 30.7855 131.435 30.1935 130.091 28.9935L130.875 28.0655C132.043 29.1215 133.163 29.6495 134.715 29.6495C136.219 29.6495 137.211 28.8495 137.211 27.7455V27.7135C137.211 26.6735 136.651 26.0815 134.299 25.5855C131.723 25.0255 130.539 24.1935 130.539 22.3535V22.3215C130.539 20.5615 132.091 19.2655 134.219 19.2655C135.851 19.2655 137.019 19.7295 138.155 20.6415L137.419 21.6175C136.379 20.7695 135.339 20.4015 134.187 20.4015C132.731 20.4015 131.803 21.2015 131.803 22.2095V22.2415C131.803 23.2975 132.379 23.8895 134.843 24.4175C137.339 24.9615 138.491 25.8735 138.491 27.5855V27.6175C138.491 29.5375 136.891 30.7855 134.667 30.7855ZM140.966 30.6255V18.9455H142.198V30.6255H140.966ZM148.673 30.8175C146.401 30.8175 144.545 29.0735 144.545 26.5135V26.4815C144.545 24.0975 146.225 22.1775 148.513 22.1775C150.961 22.1775 152.369 24.1295 152.369 26.5455C152.369 26.7055 152.369 26.8015 152.353 26.9455H145.793C145.969 28.7375 147.233 29.7455 148.705 29.7455C149.841 29.7455 150.641 29.2815 151.313 28.5775L152.081 29.2655C151.249 30.1935 150.241 30.8175 148.673 30.8175ZM145.793 26.0335H151.121C150.993 24.5295 150.129 23.2175 148.481 23.2175C147.041 23.2175 145.953 24.4175 145.793 26.0335ZM158.141 30.8175C155.869 30.8175 154.013 29.0735 154.013 26.5135V26.4815C154.013 24.0975 155.693 22.1775 157.981 22.1775C160.429 22.1775 161.837 24.1295 161.837 26.5455C161.837 26.7055 161.837 26.8015 161.821 26.9455H155.261C155.437 28.7375 156.701 29.7455 158.173 29.7455C159.309 29.7455 160.109 29.2815 160.781 28.5775L161.549 29.2655C160.717 30.1935 159.709 30.8175 158.141 30.8175ZM155.261 26.0335H160.589C160.461 24.5295 159.597 23.2175 157.949 23.2175C156.509 23.2175 155.421 24.4175 155.261 26.0335ZM163.994 33.1855V22.3535H165.226V24.0175C165.898 23.0255 166.874 22.1775 168.394 22.1775C170.378 22.1775 172.346 23.7455 172.346 26.4655V26.4975C172.346 29.2015 170.394 30.8015 168.394 30.8015C166.858 30.8015 165.866 29.9695 165.226 29.0415V33.1855H163.994ZM168.17 29.6975C169.77 29.6975 171.082 28.5135 171.082 26.5135V26.4815C171.082 24.5295 169.738 23.2815 168.17 23.2815C166.634 23.2815 165.178 24.5775 165.178 26.4655V26.4975C165.178 28.4175 166.634 29.6975 168.17 29.6975ZM174.319 30.6255V28.9455H175.791V30.6255H174.319ZM178.479 20.5455V19.1855H179.887V20.5455H178.479ZM177.775 33.2335C177.487 33.2335 177.279 33.2175 177.007 33.1535V32.1455C177.199 32.1775 177.439 32.1935 177.615 32.1935C178.175 32.1935 178.559 31.8575 178.559 31.0895V22.3535H179.791V31.1055C179.791 32.5615 179.023 33.2335 177.775 33.2335ZM182.65 33.1855V22.3535H183.882V24.0175C184.554 23.0255 185.53 22.1775 187.05 22.1775C189.034 22.1775 191.002 23.7455 191.002 26.4655V26.4975C191.002 29.2015 189.05 30.8015 187.05 30.8015C185.514 30.8015 184.522 29.9695 183.882 29.0415V33.1855H182.65ZM186.826 29.6975C188.426 29.6975 189.738 28.5135 189.738 26.5135V26.4815C189.738 24.5295 188.394 23.2815 186.826 23.2815C185.29 23.2815 183.834 24.5775 183.834 26.4655V26.4975C183.834 28.4175 185.29 29.6975 186.826 29.6975ZM196.939 33.2175C195.563 33.2175 194.283 32.8335 193.179 32.0655L193.739 31.1055C194.683 31.7935 195.739 32.1615 196.923 32.1615C198.747 32.1615 199.931 31.1535 199.931 29.2175V28.2415C199.211 29.2015 198.203 29.9855 196.683 29.9855C194.699 29.9855 192.795 28.4975 192.795 26.1135V26.0815C192.795 23.6655 194.715 22.1775 196.683 22.1775C198.235 22.1775 199.243 22.9455 199.915 23.8415V22.3535H201.147V29.1855C201.147 30.4655 200.763 31.4415 200.091 32.1135C199.355 32.8495 198.251 33.2175 196.939 33.2175ZM196.923 28.8975C198.491 28.8975 199.963 27.7615 199.963 26.0975V26.0655C199.963 24.3695 198.491 23.2655 196.923 23.2655C195.355 23.2655 194.059 24.3535 194.059 26.0495V26.0815C194.059 27.7455 195.387 28.8975 196.923 28.8975Z"></path>
<defs>
<filter color-interpolation-filters="sRGB" filterUnits="userSpaceOnUse" height="30" width="31" y="9.62549" x="8.35254" id="filter0_i_4_1239">
<feFlood result="BackgroundImageFix" flood-opacity="0"></feFlood>
<feBlend result="shape" in2="BackgroundImageFix" in="SourceGraphic" mode="normal"></feBlend>
<feColorMatrix result="hardAlpha" values="0 0 0 0 0 0 0 0 0 0 0 0 0 0 0 0 0 0 127 0" type="matrix" in="SourceAlpha"></feColorMatrix>
<feOffset dy="2" dx="3"></feOffset>
<feGaussianBlur stdDeviation="0.5"></feGaussianBlur>
<feComposite k3="1" k2="-1" operator="arithmetic" in2="hardAlpha"></feComposite>
<feColorMatrix values="0 0 0 0 0 0 0 0 0 0 0 0 0 0 0 0 0 0 0.25 0" type="matrix"></feColorMatrix>
<feBlend result="effect1_innerShadow_4_1239" in2="shape" mode="normal"></feBlend>
</filter>
<filter color-interpolation-filters="sRGB" filterUnits="userSpaceOnUse" height="30" width="31" y="9.62549" x="46.3525" id="filter1_i_4_1239">
<feFlood result="BackgroundImageFix" flood-opacity="0"></feFlood>
<feBlend result="shape" in2="BackgroundImageFix" in="SourceGraphic" mode="normal"></feBlend>
<feColorMatrix result="hardAlpha" values="0 0 0 0 0 0 0 0 0 0 0 0 0 0 0 0 0 0 127 0" type="matrix" in="SourceAlpha"></feColorMatrix>
<feOffset dy="2" dx="3"></feOffset>
<feGaussianBlur stdDeviation="0.5"></feGaussianBlur>
<feComposite k3="1" k2="-1" operator="arithmetic" in2="hardAlpha"></feComposite>
<feColorMatrix values="0 0 0 0 0 0 0 0 0 0 0 0 0 0 0 0 0 0 0.25 0" type="matrix"></feColorMatrix>
<feBlend result="effect1_innerShadow_4_1239" in2="shape" mode="normal"></feBlend>
</filter>
<linearGradient gradientUnits="userSpaceOnUse" y2="22.455" x2="450.61" y1="22.455" x1="64.8004" id="paint0_linear_4_1239">
<stop stop-color="#01697D"></stop>
<stop stop-color="#02BFE3" offset="1"></stop>
</linearGradient>
</defs>
</svg>
