<svg xmlns="http://www.w3.org/2000/svg" fill="none" viewBox="0 0 345 553" height="553" width="345">
<g filter="url(#filter0_dddddddd_2_127)">
<rect fill="#EFEFEF" height="522" width="314" x="31"></rect>
<rect stroke-width="3" stroke="#0C0C0C" height="519" width="311" y="1.5" x="32.5"></rect>
</g>
<mask fill="white" id="path-3-inside-1_2_127">
<path d="M31.5 0H343.139V33.4999H31.5V0Z"></path>
</mask>
<path fill="url(#paint0_linear_2_127)" d="M31.5 0H343.139V33.4999H31.5V0Z"></path>
<path mask="url(#path-3-inside-1_2_127)" fill="black" d="M31.5 0V-3H30.5V0H31.5ZM343.139 0H344.139V-3H343.139V0ZM31.5 3H343.139V-3H31.5V3ZM342.139 0V33.4999H344.139V0H342.139ZM32.5 33.4999V0H30.5V33.4999H32.5Z"></path>
<g filter="url(#filter1_i_2_127)">
<rect fill-opacity="0.8" fill="#D9D9D9" height="17.2285" width="18.6053" y="9.57141" x="45.4541"></rect>
</g>
<g filter="url(#filter2_i_2_127)">
<rect fill-opacity="0.8" fill="#D9D9D9" height="17.2285" width="18.6053" y="9.57141" x="68.7109"></rect>
</g>
<path fill="#D9D9D9" d="M102.834 24.8715V13.6715H104.098V23.7035H110.402V24.8715H102.834ZM114.996 25.0475C113.46 25.0475 111.908 24.1675 111.908 22.4715V22.4395C111.908 20.6955 113.348 19.7675 115.444 19.7675C116.5 19.7675 117.252 19.9115 117.988 20.1195V19.8315C117.988 18.3435 117.076 17.5755 115.524 17.5755C114.548 17.5755 113.78 17.8315 113.012 18.1835L112.644 17.1755C113.556 16.7595 114.452 16.4875 115.652 16.4875C116.82 16.4875 117.716 16.7915 118.324 17.3995C118.884 17.9595 119.172 18.7595 119.172 19.8155V24.8715H117.988V23.6235C117.412 24.3755 116.452 25.0475 114.996 25.0475ZM115.236 24.0715C116.756 24.0715 118.004 23.1435 118.004 21.8315V21.0315C117.396 20.8555 116.58 20.6795 115.572 20.6795C114.02 20.6795 113.156 21.3515 113.156 22.3915V22.4235C113.156 23.4635 114.116 24.0715 115.236 24.0715ZM124.534 25.0315C123.35 25.0315 122.038 24.5675 121.11 23.8155L121.734 22.9355C122.63 23.6075 123.622 23.9915 124.598 23.9915C125.59 23.9915 126.31 23.4795 126.31 22.6795V22.6475C126.31 21.8155 125.334 21.4955 124.246 21.1915C122.95 20.8235 121.51 20.3755 121.51 18.8555V18.8235C121.51 17.3995 122.694 16.4555 124.326 16.4555C125.334 16.4555 126.454 16.8075 127.302 17.3675L126.742 18.2955C125.974 17.7995 125.094 17.4955 124.294 17.4955C123.318 17.4955 122.694 18.0075 122.694 18.6955V18.7275C122.694 19.5115 123.718 19.8155 124.822 20.1515C126.102 20.5355 127.478 21.0315 127.478 22.5195V22.5515C127.478 24.1195 126.182 25.0315 124.534 25.0315ZM132.378 25.0155C131.05 25.0155 130.042 24.3595 130.042 22.6795V17.6875H128.89V16.5995H130.042V14.1035H131.274V16.5995H133.898V17.6875H131.274V22.5195C131.274 23.5275 131.834 23.8955 132.666 23.8955C133.082 23.8955 133.434 23.8155 133.866 23.6075V24.6635C133.434 24.8875 132.97 25.0155 132.378 25.0155ZM134.671 27.4315V26.4235H144.335V27.4315H134.671ZM151.081 25.0635C147.673 25.0635 145.385 22.3915 145.385 19.3035V19.2715C145.385 16.1835 147.705 13.4795 151.113 13.4795C154.521 13.4795 156.809 16.1515 156.809 19.2395V19.2715C156.809 22.3595 154.489 25.0635 151.081 25.0635ZM151.113 23.8955C153.673 23.8955 155.497 21.8475 155.497 19.3035V19.2715C155.497 16.7275 153.641 14.6475 151.081 14.6475C148.521 14.6475 146.697 16.6955 146.697 19.2395V19.2715C146.697 21.8155 148.553 23.8955 151.113 23.8955ZM159.267 24.8715V16.5995H160.499V18.0395C161.043 17.1435 161.907 16.4235 163.331 16.4235C165.331 16.4235 166.499 17.7675 166.499 19.7355V24.8715H165.267V20.0395C165.267 18.5035 164.435 17.5435 162.979 17.5435C161.555 17.5435 160.499 18.5835 160.499 20.1355V24.8715H159.267ZM172.742 25.0635C170.47 25.0635 168.614 23.3195 168.614 20.7595V20.7275C168.614 18.3435 170.294 16.4235 172.582 16.4235C175.03 16.4235 176.438 18.3755 176.438 20.7915C176.438 20.9515 176.438 21.0475 176.422 21.1915H169.862C170.038 22.9835 171.302 23.9915 172.774 23.9915C173.91 23.9915 174.71 23.5275 175.382 22.8235L176.15 23.5115C175.318 24.4395 174.31 25.0635 172.742 25.0635ZM169.862 20.2795H175.19C175.062 18.7755 174.198 17.4635 172.55 17.4635C171.11 17.4635 170.022 18.6635 169.862 20.2795ZM177.187 27.4315V26.4235H186.851V27.4315H177.187ZM190.957 25.0155C189.629 25.0155 188.621 24.3595 188.621 22.6795V17.6875H187.469V16.5995H188.621V14.1035H189.853V16.5995H192.477V17.6875H189.853V22.5195C189.853 23.5275 190.413 23.8955 191.245 23.8955C191.661 23.8955 192.013 23.8155 192.445 23.6075V24.6635C192.013 24.8875 191.549 25.0155 190.957 25.0155ZM198.199 25.0635C195.719 25.0635 193.911 23.1115 193.911 20.7755V20.7435C193.911 18.4075 195.735 16.4235 198.231 16.4235C200.711 16.4235 202.535 18.3755 202.535 20.7115V20.7435C202.535 23.0795 200.695 25.0635 198.199 25.0635ZM198.231 23.9595C200.023 23.9595 201.271 22.5195 201.271 20.7755V20.7435C201.271 18.9675 199.943 17.5115 198.199 17.5115C196.407 17.5115 195.175 18.9675 195.175 20.7115V20.7435C195.175 22.5195 196.487 23.9595 198.231 23.9595ZM203.359 27.4315V26.4235H213.023V27.4315H203.359ZM214.568 24.8715V13.6715H219.336C220.616 13.6715 221.624 14.0395 222.264 14.6635C222.728 15.1435 222.984 15.7355 222.984 16.4555V16.4875C222.984 17.9435 222.088 18.6955 221.208 19.0795C222.536 19.4795 223.608 20.2475 223.608 21.7835V21.8155C223.608 23.7355 221.992 24.8715 219.544 24.8715H214.568ZM221.704 16.6635V16.6315C221.704 15.5275 220.824 14.8075 219.224 14.8075H215.816V18.6635H219.128C220.648 18.6635 221.704 17.9755 221.704 16.6635ZM222.328 21.7035C222.328 20.4875 221.304 19.7835 219.352 19.7835H215.816V23.7355H219.576C221.272 23.7355 222.328 22.9835 222.328 21.7355V21.7035ZM229.523 25.0635C227.251 25.0635 225.395 23.3195 225.395 20.7595V20.7275C225.395 18.3435 227.075 16.4235 229.363 16.4235C231.811 16.4235 233.219 18.3755 233.219 20.7915C233.219 20.9515 233.219 21.0475 233.203 21.1915H226.643C226.819 22.9835 228.083 23.9915 229.555 23.9915C230.691 23.9915 231.491 23.5275 232.163 22.8235L232.931 23.5115C232.099 24.4395 231.091 25.0635 229.523 25.0635ZM226.643 20.2795H231.971C231.843 18.7755 230.979 17.4635 229.331 17.4635C227.891 17.4635 226.803 18.6635 226.643 20.2795ZM238.848 25.0475C236.864 25.0475 234.896 23.4795 234.896 20.7595V20.7275C234.896 18.0235 236.864 16.4235 238.848 16.4235C240.384 16.4235 241.376 17.2555 242.016 18.1835V13.1915H243.248V24.8715H242.016V23.2075C241.344 24.1995 240.368 25.0475 238.848 25.0475ZM239.072 23.9435C240.608 23.9435 242.064 22.6475 242.064 20.7435V20.7115C242.064 18.8075 240.608 17.5275 239.072 17.5275C237.472 17.5275 236.16 18.7115 236.16 20.7115V20.7435C236.16 22.6955 237.52 23.9435 239.072 23.9435ZM244.593 27.4315V26.4235H254.257V27.4315H244.593ZM255.627 14.7915V13.4315H257.035V14.7915H255.627ZM255.707 24.8715V16.5995H256.939V24.8715H255.707ZM262.534 25.0315C261.35 25.0315 260.038 24.5675 259.11 23.8155L259.734 22.9355C260.63 23.6075 261.622 23.9915 262.598 23.9915C263.59 23.9915 264.31 23.4795 264.31 22.6795V22.6475C264.31 21.8155 263.334 21.4955 262.246 21.1915C260.95 20.8235 259.51 20.3755 259.51 18.8555V18.8235C259.51 17.3995 260.694 16.4555 262.326 16.4555C263.334 16.4555 264.454 16.8075 265.302 17.3675L264.742 18.2955C263.974 17.7995 263.094 17.4955 262.294 17.4955C261.318 17.4955 260.694 18.0075 260.694 18.6955V18.7275C260.694 19.5115 261.718 19.8155 262.822 20.1515C264.102 20.5355 265.478 21.0315 265.478 22.5195V22.5515C265.478 24.1195 264.182 25.0315 262.534 25.0315ZM266.359 27.4315V26.4235H276.023V27.4315H266.359ZM279.824 25.0475C278.288 25.0475 276.736 24.1675 276.736 22.4715V22.4395C276.736 20.6955 278.176 19.7675 280.272 19.7675C281.328 19.7675 282.08 19.9115 282.816 20.1195V19.8315C282.816 18.3435 281.904 17.5755 280.352 17.5755C279.376 17.5755 278.608 17.8315 277.84 18.1835L277.472 17.1755C278.384 16.7595 279.28 16.4875 280.48 16.4875C281.648 16.4875 282.544 16.7915 283.152 17.3995C283.712 17.9595 284 18.7595 284 19.8155V24.8715H282.816V23.6235C282.24 24.3755 281.28 25.0475 279.824 25.0475ZM280.064 24.0715C281.584 24.0715 282.832 23.1435 282.832 21.8315V21.0315C282.224 20.8555 281.408 20.6795 280.4 20.6795C278.848 20.6795 277.984 21.3515 277.984 22.3915V22.4235C277.984 23.4635 278.944 24.0715 280.064 24.0715ZM285.218 27.4315V26.4235H294.882V27.4315H285.218ZM296.428 24.8715V13.6715H301.244C302.62 13.6715 303.724 14.0875 304.428 14.7915C304.972 15.3355 305.292 16.1195 305.292 16.9995V17.0315C305.292 18.8875 304.012 19.9755 302.252 20.2955L305.692 24.8715H304.14L300.892 20.5195H297.692V24.8715H296.428ZM297.692 19.3835H301.132C302.812 19.3835 304.012 18.5195 304.012 17.0795V17.0475C304.012 15.6715 302.956 14.8395 301.148 14.8395H297.692V19.3835ZM307.638 24.8715V23.1915H309.11V24.8715H307.638ZM311.56 24.8715V23.1915H313.032V24.8715H311.56ZM315.482 24.8715V23.1915H316.954V24.8715H315.482Z"></path>
<defs>
<filter color-interpolation-filters="sRGB" filterUnits="userSpaceOnUse" height="553" width="345" y="0" x="0" id="filter0_dddddddd_2_127">
<feFlood result="BackgroundImageFix" flood-opacity="0"></feFlood>
<feColorMatrix result="hardAlpha" values="0 0 0 0 0 0 0 0 0 0 0 0 0 0 0 0 0 0 127 0" type="matrix" in="SourceAlpha"></feColorMatrix>
<feOffset dy="29" dx="-29"></feOffset>
<feGaussianBlur stdDeviation="1"></feGaussianBlur>
<feComposite operator="out" in2="hardAlpha"></feComposite>
<feColorMatrix values="0 0 0 0 0 0 0 0 0 0 0 0 0 0 0 0 0 0 1 0" type="matrix"></feColorMatrix>
<feBlend result="effect1_dropShadow_2_127" in2="BackgroundImageFix" mode="normal"></feBlend>
<feColorMatrix result="hardAlpha" values="0 0 0 0 0 0 0 0 0 0 0 0 0 0 0 0 0 0 127 0" type="matrix" in="SourceAlpha"></feColorMatrix>
<feOffset dy="26" dx="-26"></feOffset>
<feComposite operator="out" in2="hardAlpha"></feComposite>
<feColorMatrix values="0 0 0 0 0.937255 0 0 0 0 0.937255 0 0 0 0 0.937255 0 0 0 1 0" type="matrix"></feColorMatrix>
<feBlend result="effect2_dropShadow_2_127" in2="effect1_dropShadow_2_127" mode="normal"></feBlend>
<feColorMatrix result="hardAlpha" values="0 0 0 0 0 0 0 0 0 0 0 0 0 0 0 0 0 0 127 0" type="matrix" in="SourceAlpha"></feColorMatrix>
<feOffset dy="23" dx="-22"></feOffset>
<feGaussianBlur stdDeviation="1.5"></feGaussianBlur>
<feComposite operator="out" in2="hardAlpha"></feComposite>
<feColorMatrix values="0 0 0 0 0 0 0 0 0 0 0 0 0 0 0 0 0 0 0.35 0" type="matrix"></feColorMatrix>
<feBlend result="effect3_dropShadow_2_127" in2="effect2_dropShadow_2_127" mode="normal"></feBlend>
<feColorMatrix result="hardAlpha" values="0 0 0 0 0 0 0 0 0 0 0 0 0 0 0 0 0 0 127 0" type="matrix" in="SourceAlpha"></feColorMatrix>
<feOffset dy="19" dx="-19"></feOffset>
<feGaussianBlur stdDeviation="1"></feGaussianBlur>
<feComposite operator="out" in2="hardAlpha"></feComposite>
<feColorMatrix values="0 0 0 0 0 0 0 0 0 0 0 0 0 0 0 0 0 0 1 0" type="matrix"></feColorMatrix>
<feBlend result="effect4_dropShadow_2_127" in2="effect3_dropShadow_2_127" mode="normal"></feBlend>
<feColorMatrix result="hardAlpha" values="0 0 0 0 0 0 0 0 0 0 0 0 0 0 0 0 0 0 127 0" type="matrix" in="SourceAlpha"></feColorMatrix>
<feOffset dy="16" dx="-16"></feOffset>
<feComposite operator="out" in2="hardAlpha"></feComposite>
<feColorMatrix values="0 0 0 0 0.937255 0 0 0 0 0.937255 0 0 0 0 0.937255 0 0 0 1 0" type="matrix"></feColorMatrix>
<feBlend result="effect5_dropShadow_2_127" in2="effect4_dropShadow_2_127" mode="normal"></feBlend>
<feColorMatrix result="hardAlpha" values="0 0 0 0 0 0 0 0 0 0 0 0 0 0 0 0 0 0 127 0" type="matrix" in="SourceAlpha"></feColorMatrix>
<feOffset dy="13" dx="-12"></feOffset>
<feGaussianBlur stdDeviation="1.5"></feGaussianBlur>
<feComposite operator="out" in2="hardAlpha"></feComposite>
<feColorMatrix values="0 0 0 0 0 0 0 0 0 0 0 0 0 0 0 0 0 0 0.35 0" type="matrix"></feColorMatrix>
<feBlend result="effect6_dropShadow_2_127" in2="effect5_dropShadow_2_127" mode="normal"></feBlend>
<feColorMatrix result="hardAlpha" values="0 0 0 0 0 0 0 0 0 0 0 0 0 0 0 0 0 0 127 0" type="matrix" in="SourceAlpha"></feColorMatrix>
<feOffset dy="8" dx="-9"></feOffset>
<feGaussianBlur stdDeviation="1"></feGaussianBlur>
<feComposite operator="out" in2="hardAlpha"></feComposite>
<feColorMatrix values="0 0 0 0 0 0 0 0 0 0 0 0 0 0 0 0 0 0 1 0" type="matrix"></feColorMatrix>
<feBlend result="effect7_dropShadow_2_127" in2="effect6_dropShadow_2_127" mode="normal"></feBlend>
<feColorMatrix result="hardAlpha" values="0 0 0 0 0 0 0 0 0 0 0 0 0 0 0 0 0 0 127 0" type="matrix" in="SourceAlpha"></feColorMatrix>
<feOffset dy="6" dx="-6"></feOffset>
<feComposite operator="out" in2="hardAlpha"></feComposite>
<feColorMatrix values="0 0 0 0 0.937255 0 0 0 0 0.937255 0 0 0 0 0.937255 0 0 0 1 0" type="matrix"></feColorMatrix>
<feBlend result="effect8_dropShadow_2_127" in2="effect7_dropShadow_2_127" mode="normal"></feBlend>
<feBlend result="shape" in2="effect8_dropShadow_2_127" in="SourceGraphic" mode="normal"></feBlend>
</filter>
<filter color-interpolation-filters="sRGB" filterUnits="userSpaceOnUse" height="18.2285" width="19.6055" y="9.57141" x="45.4541" id="filter1_i_2_127">
<feFlood result="BackgroundImageFix" flood-opacity="0"></feFlood>
<feBlend result="shape" in2="BackgroundImageFix" in="SourceGraphic" mode="normal"></feBlend>
<feColorMatrix result="hardAlpha" values="0 0 0 0 0 0 0 0 0 0 0 0 0 0 0 0 0 0 127 0" type="matrix" in="SourceAlpha"></feColorMatrix>
<feOffset dy="2" dx="3"></feOffset>
<feGaussianBlur stdDeviation="0.5"></feGaussianBlur>
<feComposite k3="1" k2="-1" operator="arithmetic" in2="hardAlpha"></feComposite>
<feColorMatrix values="0 0 0 0 0 0 0 0 0 0 0 0 0 0 0 0 0 0 0.25 0" type="matrix"></feColorMatrix>
<feBlend result="effect1_innerShadow_2_127" in2="shape" mode="normal"></feBlend>
</filter>
<filter color-interpolation-filters="sRGB" filterUnits="userSpaceOnUse" height="18.2285" width="19.6055" y="9.57141" x="68.7109" id="filter2_i_2_127">
<feFlood result="BackgroundImageFix" flood-opacity="0"></feFlood>
<feBlend result="shape" in2="BackgroundImageFix" in="SourceGraphic" mode="normal"></feBlend>
<feColorMatrix result="hardAlpha" values="0 0 0 0 0 0 0 0 0 0 0 0 0 0 0 0 0 0 127 0" type="matrix" in="SourceAlpha"></feColorMatrix>
<feOffset dy="2" dx="3"></feOffset>
<feGaussianBlur stdDeviation="0.5"></feGaussianBlur>
<feComposite k3="1" k2="-1" operator="arithmetic" in2="hardAlpha"></feComposite>
<feColorMatrix values="0 0 0 0 0 0 0 0 0 0 0 0 0 0 0 0 0 0 0.25 0" type="matrix"></feColorMatrix>
<feBlend result="effect1_innerShadow_2_127" in2="shape" mode="normal"></feBlend>
</filter>
<linearGradient gradientUnits="userSpaceOnUse" y2="16.3531" x2="435.874" y1="16.3531" x1="89.3804" id="paint0_linear_2_127">
<stop stop-color="#01697D"></stop>
<stop stop-color="#02BFE3" offset="1"></stop>
</linearGradient>
</defs>
</svg>
