<svg xmlns="http://www.w3.org/2000/svg" fill="none" viewBox="0 0 314 441" height="441" width="314">
<rect fill="#FFE5AD" height="438" width="311" y="1.5" x="1.5"></rect>
<rect stroke-width="3" stroke="#0C0C0C" height="438" width="311" y="1.5" x="1.5"></rect>
<mask fill="black" height="25" width="294" y="54" x="9.64014" maskUnits="userSpaceOnUse" id="path-2-outside-1_1689_111">
<rect height="25" width="294" y="54" x="9.64014" fill="white"></rect>
<path d="M20.0828 75.2288V68.9068L13.6401 58.3378H18.9729L22.4476 64.491L25.9464 58.3378H31.1826L24.7641 68.8344V75.2288H20.0828Z"></path>
<path d="M39.8025 75.5666C34.5904 75.5666 30.7296 71.6817 30.7296 66.8316V66.7833C30.7296 61.9332 34.6387 58 39.8508 58C45.0629 58 48.9237 61.8849 48.9237 66.7351V66.7833C48.9237 71.6335 45.0146 75.5666 39.8025 75.5666ZM39.8508 71.3439C42.4086 71.3439 44.1218 69.2687 44.1218 66.8316V66.7833C44.1218 64.3221 42.3844 62.2227 39.8025 62.2227C37.2206 62.2227 35.5074 64.2979 35.5074 66.7351V66.7833C35.5074 69.2205 37.2689 71.3439 39.8508 71.3439Z"></path>
<path d="M59.1802 75.5425C54.4025 75.5425 51.3862 73.1054 51.3862 67.8209V58.3378H56.1157V67.7244C56.1157 70.1615 57.3464 71.3198 59.2285 71.3198C61.1348 71.3198 62.3654 70.2098 62.3654 67.845V58.3378H67.0949V67.7003C67.0949 73.1295 63.9821 75.5425 59.1802 75.5425Z"></path>
<path d="M69.431 67.0005L69.9859 58.3378H74.9809V58.4585L71.9163 67.0005H69.431Z"></path>
<path d="M82.7068 75.3495L75.878 58.3378H81.0901L84.9268 69.0274L88.7876 58.3378H93.9031L87.0502 75.3495H82.7068Z"></path>
<path d="M95.7796 75.2288V58.3378H109.365V62.2951H100.413V64.8771H108.52V68.5689H100.413V71.2474H109.485V75.2288H95.7796Z"></path>
<path d="M119.073 75.2288V58.3378H127.735C129.859 58.3378 131.355 58.8687 132.344 59.8339C133.02 60.5337 133.43 61.4265 133.43 62.5847V62.633C133.43 64.5875 132.32 65.7457 130.824 66.3972C132.875 67.0729 134.178 68.2311 134.178 70.5235V70.5717C134.178 73.4673 131.813 75.2288 127.784 75.2288H119.073ZM128.821 63.5982V63.5499C128.821 62.6088 128.073 62.1021 126.698 62.1021H123.633V65.0701H126.577C128.001 65.0701 128.821 64.5875 128.821 63.5982ZM129.497 69.872C129.497 68.955 128.773 68.3518 127.204 68.3518H123.633V71.4645H127.253C128.7 71.4645 129.497 70.9095 129.497 69.9202V69.872Z"></path>
<path d="M136.563 75.2288V58.3378H150.148V62.2951H141.196V64.8771H149.304V68.5689H141.196V71.2474H150.269V75.2288H136.563Z"></path>
<path d="M152.922 75.2288V58.3378H166.508V62.2951H157.555V64.8771H165.663V68.5689H157.555V71.2474H166.628V75.2288H152.922Z"></path>
<path d="M169.282 75.2288V58.3378H173.649L180.599 67.2659V58.3378H185.232V75.2288H181.154L173.915 65.9629V75.2288H169.282Z"></path>
<path d="M203.559 75.5666C198.733 75.5666 194.848 71.8748 194.848 66.8316V66.7833C194.848 61.8608 198.612 58 203.727 58C207.178 58 209.398 59.4478 210.894 61.4989L207.371 64.2255C206.406 63.0432 205.296 62.2469 203.679 62.2469C201.314 62.2469 199.649 64.2738 199.649 66.7351V66.7833C199.649 69.317 201.314 71.2956 203.679 71.2956C205.441 71.2956 206.478 70.4752 207.492 69.2446L211.015 71.7541C209.422 73.9499 207.275 75.5666 203.559 75.5666Z"></path>
<path d="M213.294 75.2288V58.3378H217.975V64.6599H223.983V58.3378H228.664V75.2288H223.983V68.8102H217.975V75.2288H213.294Z"></path>
<path d="M240.41 75.5666C235.197 75.5666 231.337 71.6817 231.337 66.8316V66.7833C231.337 61.9332 235.246 58 240.458 58C245.67 58 249.531 61.8849 249.531 66.7351V66.7833C249.531 71.6335 245.622 75.5666 240.41 75.5666ZM240.458 71.3439C243.016 71.3439 244.729 69.2687 244.729 66.8316V66.7833C244.729 64.3221 242.991 62.2227 240.41 62.2227C237.828 62.2227 236.114 64.2979 236.114 66.7351V66.7833C236.114 69.2205 237.876 71.3439 240.458 71.3439Z"></path>
<path d="M258.704 75.5184C255.712 75.5184 252.889 74.5773 250.79 72.7193L253.396 69.6065C255.085 70.9337 256.919 71.6334 258.873 71.6334C260.152 71.6334 260.828 71.1991 260.828 70.4752V70.427C260.828 69.7031 260.273 69.3411 257.956 68.7861C254.361 67.9657 251.586 66.9522 251.586 63.5016V63.4534C251.586 60.3165 254.071 58.0483 258.125 58.0483C260.997 58.0483 263.241 58.8204 265.075 60.2924L262.734 63.5982C261.19 62.4882 259.501 61.9332 258.004 61.9332C256.87 61.9332 256.315 62.3917 256.315 63.019V63.0673C256.315 63.8395 256.894 64.1773 259.259 64.7081C263.12 65.5527 265.533 66.8074 265.533 69.9685V70.0167C265.533 73.4673 262.806 75.5184 258.704 75.5184Z"></path>
<path d="M268.051 75.2288V58.3378H281.636V62.2951H272.684V64.8771H280.791V68.5689H272.684V71.2474H281.757V75.2288H268.051Z"></path>
<path d="M284.41 75.2288V58.3378H288.778L295.727 67.2659V58.3378H300.36V75.2288H296.282L289.043 65.9629V75.2288H284.41Z"></path>
</mask>
<path fill="#FFCB3D" d="M20.0828 75.2288V68.9068L13.6401 58.3378H18.9729L22.4476 64.491L25.9464 58.3378H31.1826L24.7641 68.8344V75.2288H20.0828Z"></path>
<path fill="#FFCB3D" d="M39.8025 75.5666C34.5904 75.5666 30.7296 71.6817 30.7296 66.8316V66.7833C30.7296 61.9332 34.6387 58 39.8508 58C45.0629 58 48.9237 61.8849 48.9237 66.7351V66.7833C48.9237 71.6335 45.0146 75.5666 39.8025 75.5666ZM39.8508 71.3439C42.4086 71.3439 44.1218 69.2687 44.1218 66.8316V66.7833C44.1218 64.3221 42.3844 62.2227 39.8025 62.2227C37.2206 62.2227 35.5074 64.2979 35.5074 66.7351V66.7833C35.5074 69.2205 37.2689 71.3439 39.8508 71.3439Z"></path>
<path fill="#FFCB3D" d="M59.1802 75.5425C54.4025 75.5425 51.3862 73.1054 51.3862 67.8209V58.3378H56.1157V67.7244C56.1157 70.1615 57.3464 71.3198 59.2285 71.3198C61.1348 71.3198 62.3654 70.2098 62.3654 67.845V58.3378H67.0949V67.7003C67.0949 73.1295 63.9821 75.5425 59.1802 75.5425Z"></path>
<path fill="#FFCB3D" d="M69.431 67.0005L69.9859 58.3378H74.9809V58.4585L71.9163 67.0005H69.431Z"></path>
<path fill="#FFCB3D" d="M82.7068 75.3495L75.878 58.3378H81.0901L84.9268 69.0274L88.7876 58.3378H93.9031L87.0502 75.3495H82.7068Z"></path>
<path fill="#FFCB3D" d="M95.7796 75.2288V58.3378H109.365V62.2951H100.413V64.8771H108.52V68.5689H100.413V71.2474H109.485V75.2288H95.7796Z"></path>
<path fill="#FFCB3D" d="M119.073 75.2288V58.3378H127.735C129.859 58.3378 131.355 58.8687 132.344 59.8339C133.02 60.5337 133.43 61.4265 133.43 62.5847V62.633C133.43 64.5875 132.32 65.7457 130.824 66.3972C132.875 67.0729 134.178 68.2311 134.178 70.5235V70.5717C134.178 73.4673 131.813 75.2288 127.784 75.2288H119.073ZM128.821 63.5982V63.5499C128.821 62.6088 128.073 62.1021 126.698 62.1021H123.633V65.0701H126.577C128.001 65.0701 128.821 64.5875 128.821 63.5982ZM129.497 69.872C129.497 68.955 128.773 68.3518 127.204 68.3518H123.633V71.4645H127.253C128.7 71.4645 129.497 70.9095 129.497 69.9202V69.872Z"></path>
<path fill="#FFCB3D" d="M136.563 75.2288V58.3378H150.148V62.2951H141.196V64.8771H149.304V68.5689H141.196V71.2474H150.269V75.2288H136.563Z"></path>
<path fill="#FFCB3D" d="M152.922 75.2288V58.3378H166.508V62.2951H157.555V64.8771H165.663V68.5689H157.555V71.2474H166.628V75.2288H152.922Z"></path>
<path fill="#FFCB3D" d="M169.282 75.2288V58.3378H173.649L180.599 67.2659V58.3378H185.232V75.2288H181.154L173.915 65.9629V75.2288H169.282Z"></path>
<path fill="#FFCB3D" d="M203.559 75.5666C198.733 75.5666 194.848 71.8748 194.848 66.8316V66.7833C194.848 61.8608 198.612 58 203.727 58C207.178 58 209.398 59.4478 210.894 61.4989L207.371 64.2255C206.406 63.0432 205.296 62.2469 203.679 62.2469C201.314 62.2469 199.649 64.2738 199.649 66.7351V66.7833C199.649 69.317 201.314 71.2956 203.679 71.2956C205.441 71.2956 206.478 70.4752 207.492 69.2446L211.015 71.7541C209.422 73.9499 207.275 75.5666 203.559 75.5666Z"></path>
<path fill="#FFCB3D" d="M213.294 75.2288V58.3378H217.975V64.6599H223.983V58.3378H228.664V75.2288H223.983V68.8102H217.975V75.2288H213.294Z"></path>
<path fill="#FFCB3D" d="M240.41 75.5666C235.197 75.5666 231.337 71.6817 231.337 66.8316V66.7833C231.337 61.9332 235.246 58 240.458 58C245.67 58 249.531 61.8849 249.531 66.7351V66.7833C249.531 71.6335 245.622 75.5666 240.41 75.5666ZM240.458 71.3439C243.016 71.3439 244.729 69.2687 244.729 66.8316V66.7833C244.729 64.3221 242.991 62.2227 240.41 62.2227C237.828 62.2227 236.114 64.2979 236.114 66.7351V66.7833C236.114 69.2205 237.876 71.3439 240.458 71.3439Z"></path>
<path fill="#FFCB3D" d="M258.704 75.5184C255.712 75.5184 252.889 74.5773 250.79 72.7193L253.396 69.6065C255.085 70.9337 256.919 71.6334 258.873 71.6334C260.152 71.6334 260.828 71.1991 260.828 70.4752V70.427C260.828 69.7031 260.273 69.3411 257.956 68.7861C254.361 67.9657 251.586 66.9522 251.586 63.5016V63.4534C251.586 60.3165 254.071 58.0483 258.125 58.0483C260.997 58.0483 263.241 58.8204 265.075 60.2924L262.734 63.5982C261.19 62.4882 259.501 61.9332 258.004 61.9332C256.87 61.9332 256.315 62.3917 256.315 63.019V63.0673C256.315 63.8395 256.894 64.1773 259.259 64.7081C263.12 65.5527 265.533 66.8074 265.533 69.9685V70.0167C265.533 73.4673 262.806 75.5184 258.704 75.5184Z"></path>
<path fill="#FFCB3D" d="M268.051 75.2288V58.3378H281.636V62.2951H272.684V64.8771H280.791V68.5689H272.684V71.2474H281.757V75.2288H268.051Z"></path>
<path fill="#FFCB3D" d="M284.41 75.2288V58.3378H288.778L295.727 67.2659V58.3378H300.36V75.2288H296.282L289.043 65.9629V75.2288H284.41Z"></path>
<path mask="url(#path-2-outside-1_1689_111)" stroke-linejoin="round" stroke-width="6.45792" stroke="#7523E3" d="M20.0828 75.2288V68.9068L13.6401 58.3378H18.9729L22.4476 64.491L25.9464 58.3378H31.1826L24.7641 68.8344V75.2288H20.0828Z"></path>
<path mask="url(#path-2-outside-1_1689_111)" stroke-linejoin="round" stroke-width="6.45792" stroke="#7523E3" d="M39.8025 75.5666C34.5904 75.5666 30.7296 71.6817 30.7296 66.8316V66.7833C30.7296 61.9332 34.6387 58 39.8508 58C45.0629 58 48.9237 61.8849 48.9237 66.7351V66.7833C48.9237 71.6335 45.0146 75.5666 39.8025 75.5666ZM39.8508 71.3439C42.4086 71.3439 44.1218 69.2687 44.1218 66.8316V66.7833C44.1218 64.3221 42.3844 62.2227 39.8025 62.2227C37.2206 62.2227 35.5074 64.2979 35.5074 66.7351V66.7833C35.5074 69.2205 37.2689 71.3439 39.8508 71.3439Z"></path>
<path mask="url(#path-2-outside-1_1689_111)" stroke-linejoin="round" stroke-width="6.45792" stroke="#7523E3" d="M59.1802 75.5425C54.4025 75.5425 51.3862 73.1054 51.3862 67.8209V58.3378H56.1157V67.7244C56.1157 70.1615 57.3464 71.3198 59.2285 71.3198C61.1348 71.3198 62.3654 70.2098 62.3654 67.845V58.3378H67.0949V67.7003C67.0949 73.1295 63.9821 75.5425 59.1802 75.5425Z"></path>
<path mask="url(#path-2-outside-1_1689_111)" stroke-linejoin="round" stroke-width="6.45792" stroke="#7523E3" d="M69.431 67.0005L69.9859 58.3378H74.9809V58.4585L71.9163 67.0005H69.431Z"></path>
<path mask="url(#path-2-outside-1_1689_111)" stroke-linejoin="round" stroke-width="6.45792" stroke="#7523E3" d="M82.7068 75.3495L75.878 58.3378H81.0901L84.9268 69.0274L88.7876 58.3378H93.9031L87.0502 75.3495H82.7068Z"></path>
<path mask="url(#path-2-outside-1_1689_111)" stroke-linejoin="round" stroke-width="6.45792" stroke="#7523E3" d="M95.7796 75.2288V58.3378H109.365V62.2951H100.413V64.8771H108.52V68.5689H100.413V71.2474H109.485V75.2288H95.7796Z"></path>
<path mask="url(#path-2-outside-1_1689_111)" stroke-linejoin="round" stroke-width="6.45792" stroke="#7523E3" d="M119.073 75.2288V58.3378H127.735C129.859 58.3378 131.355 58.8687 132.344 59.8339C133.02 60.5337 133.43 61.4265 133.43 62.5847V62.633C133.43 64.5875 132.32 65.7457 130.824 66.3972C132.875 67.0729 134.178 68.2311 134.178 70.5235V70.5717C134.178 73.4673 131.813 75.2288 127.784 75.2288H119.073ZM128.821 63.5982V63.5499C128.821 62.6088 128.073 62.1021 126.698 62.1021H123.633V65.0701H126.577C128.001 65.0701 128.821 64.5875 128.821 63.5982ZM129.497 69.872C129.497 68.955 128.773 68.3518 127.204 68.3518H123.633V71.4645H127.253C128.7 71.4645 129.497 70.9095 129.497 69.9202V69.872Z"></path>
<path mask="url(#path-2-outside-1_1689_111)" stroke-linejoin="round" stroke-width="6.45792" stroke="#7523E3" d="M136.563 75.2288V58.3378H150.148V62.2951H141.196V64.8771H149.304V68.5689H141.196V71.2474H150.269V75.2288H136.563Z"></path>
<path mask="url(#path-2-outside-1_1689_111)" stroke-linejoin="round" stroke-width="6.45792" stroke="#7523E3" d="M152.922 75.2288V58.3378H166.508V62.2951H157.555V64.8771H165.663V68.5689H157.555V71.2474H166.628V75.2288H152.922Z"></path>
<path mask="url(#path-2-outside-1_1689_111)" stroke-linejoin="round" stroke-width="6.45792" stroke="#7523E3" d="M169.282 75.2288V58.3378H173.649L180.599 67.2659V58.3378H185.232V75.2288H181.154L173.915 65.9629V75.2288H169.282Z"></path>
<path mask="url(#path-2-outside-1_1689_111)" stroke-linejoin="round" stroke-width="6.45792" stroke="#7523E3" d="M203.559 75.5666C198.733 75.5666 194.848 71.8748 194.848 66.8316V66.7833C194.848 61.8608 198.612 58 203.727 58C207.178 58 209.398 59.4478 210.894 61.4989L207.371 64.2255C206.406 63.0432 205.296 62.2469 203.679 62.2469C201.314 62.2469 199.649 64.2738 199.649 66.7351V66.7833C199.649 69.317 201.314 71.2956 203.679 71.2956C205.441 71.2956 206.478 70.4752 207.492 69.2446L211.015 71.7541C209.422 73.9499 207.275 75.5666 203.559 75.5666Z"></path>
<path mask="url(#path-2-outside-1_1689_111)" stroke-linejoin="round" stroke-width="6.45792" stroke="#7523E3" d="M213.294 75.2288V58.3378H217.975V64.6599H223.983V58.3378H228.664V75.2288H223.983V68.8102H217.975V75.2288H213.294Z"></path>
<path mask="url(#path-2-outside-1_1689_111)" stroke-linejoin="round" stroke-width="6.45792" stroke="#7523E3" d="M240.41 75.5666C235.197 75.5666 231.337 71.6817 231.337 66.8316V66.7833C231.337 61.9332 235.246 58 240.458 58C245.67 58 249.531 61.8849 249.531 66.7351V66.7833C249.531 71.6335 245.622 75.5666 240.41 75.5666ZM240.458 71.3439C243.016 71.3439 244.729 69.2687 244.729 66.8316V66.7833C244.729 64.3221 242.991 62.2227 240.41 62.2227C237.828 62.2227 236.114 64.2979 236.114 66.7351V66.7833C236.114 69.2205 237.876 71.3439 240.458 71.3439Z"></path>
<path mask="url(#path-2-outside-1_1689_111)" stroke-linejoin="round" stroke-width="6.45792" stroke="#7523E3" d="M258.704 75.5184C255.712 75.5184 252.889 74.5773 250.79 72.7193L253.396 69.6065C255.085 70.9337 256.919 71.6334 258.873 71.6334C260.152 71.6334 260.828 71.1991 260.828 70.4752V70.427C260.828 69.7031 260.273 69.3411 257.956 68.7861C254.361 67.9657 251.586 66.9522 251.586 63.5016V63.4534C251.586 60.3165 254.071 58.0483 258.125 58.0483C260.997 58.0483 263.241 58.8204 265.075 60.2924L262.734 63.5982C261.19 62.4882 259.501 61.9332 258.004 61.9332C256.87 61.9332 256.315 62.3917 256.315 63.019V63.0673C256.315 63.8395 256.894 64.1773 259.259 64.7081C263.12 65.5527 265.533 66.8074 265.533 69.9685V70.0167C265.533 73.4673 262.806 75.5184 258.704 75.5184Z"></path>
<path mask="url(#path-2-outside-1_1689_111)" stroke-linejoin="round" stroke-width="6.45792" stroke="#7523E3" d="M268.051 75.2288V58.3378H281.636V62.2951H272.684V64.8771H280.791V68.5689H272.684V71.2474H281.757V75.2288H268.051Z"></path>
<path mask="url(#path-2-outside-1_1689_111)" stroke-linejoin="round" stroke-width="6.45792" stroke="#7523E3" d="M284.41 75.2288V58.3378H288.778L295.727 67.2659V58.3378H300.36V75.2288H296.282L289.043 65.9629V75.2288H284.41Z"></path>
<rect fill="#FFECDF" height="293" width="256" y="99.5667" x="29"></rect>
<rect stroke-dasharray="0.5 8" stroke-linecap="round" stroke-width="3" stroke="#7523E3" height="293" width="256" y="99.5667" x="29"></rect>
<mask fill="white" id="path-4-inside-2_1689_111">
<path d="M0.25 0H311.889V33.4999H0.25V0Z"></path>
</mask>
<path fill="url(#paint0_linear_1689_111)" d="M0.25 0H311.889V33.4999H0.25V0Z"></path>
<path mask="url(#path-4-inside-2_1689_111)" fill="black" d="M0.25 0V-3H-0.75V0H0.25ZM311.889 0H312.889V-3H311.889V0ZM0.25 3H311.889V-3H0.25V3ZM310.889 0V33.4999H312.889V0H310.889ZM1.25 33.4999V0H-0.75V33.4999H1.25Z"></path>
<g filter="url(#filter0_i_1689_111)">
<rect fill="#D9D9D9" height="17.2285" width="18.6053" y="9.57129" x="14.2041"></rect>
</g>
<g filter="url(#filter1_i_1689_111)">
<rect fill="#D9D9D9" height="17.2285" width="18.6053" y="9.57129" x="37.4609"></rect>
</g>
<g filter="url(#filter2_i_1689_111)">
<rect fill="#D9D9D9" height="17.2285" width="18.6053" y="9.57129" x="60.7178"></rect>
</g>
<path fill="#D9D9D9" d="M95.544 24.8713V14.8393H91.784V13.6713H100.584V14.8393H96.824V24.8713H95.544ZM107.393 25.0633C103.985 25.0633 101.697 22.3913 101.697 19.3033V19.2713C101.697 16.1833 104.017 13.4793 107.425 13.4793C110.833 13.4793 113.121 16.1513 113.121 19.2393V19.2713C113.121 22.3593 110.801 25.0633 107.393 25.0633ZM107.425 23.8953C109.985 23.8953 111.809 21.8473 111.809 19.3033V19.2713C111.809 16.7273 109.953 14.6473 107.393 14.6473C104.833 14.6473 103.009 16.6953 103.009 19.2393V19.2713C103.009 21.8153 104.865 23.8953 107.425 23.8953ZM117.982 24.8713V14.8393H114.222V13.6713H123.022V14.8393H119.262V24.8713H117.982ZM125.397 24.8713V13.6713H133.493V14.8233H126.661V18.6473H132.773V19.7993H126.661V23.7193H133.573V24.8713H125.397ZM139.955 25.0313C138.179 25.0313 136.723 24.4393 135.379 23.2393L136.163 22.3113C137.331 23.3673 138.451 23.8953 140.003 23.8953C141.507 23.8953 142.499 23.0953 142.499 21.9913V21.9593C142.499 20.9193 141.939 20.3273 139.587 19.8313C137.011 19.2713 135.827 18.4393 135.827 16.5993V16.5673C135.827 14.8073 137.379 13.5113 139.507 13.5113C141.139 13.5113 142.307 13.9753 143.443 14.8873L142.707 15.8633C141.667 15.0153 140.627 14.6473 139.475 14.6473C138.019 14.6473 137.091 15.4473 137.091 16.4553V16.4873C137.091 17.5433 137.667 18.1353 140.131 18.6633C142.627 19.2073 143.779 20.1193 143.779 21.8313V21.8633C143.779 23.7833 142.179 25.0313 139.955 25.0313ZM151.147 24.8713V13.6713H152.427L156.507 19.7833L160.587 13.6713H161.867V24.8713H160.603V15.7993L156.523 21.7993H156.459L152.379 15.8153V24.8713H151.147ZM170.157 25.0633C166.925 25.0633 164.541 22.5193 164.541 19.3033V19.2713C164.541 16.1033 166.909 13.4793 170.205 13.4793C172.237 13.4793 173.453 14.1993 174.573 15.2553L173.709 16.1833C172.765 15.2873 171.709 14.6473 170.189 14.6473C167.709 14.6473 165.853 16.6633 165.853 19.2393V19.2713C165.853 21.8633 167.725 23.8953 170.189 23.8953C171.725 23.8953 172.733 23.3033 173.805 22.2793L174.637 23.0953C173.469 24.2793 172.189 25.0633 170.157 25.0633ZM181.737 25.0633C178.217 25.0633 176.041 22.5033 176.041 19.3033V19.2713C176.041 16.1993 178.297 13.4793 181.657 13.4793C183.545 13.4793 184.713 14.0233 185.833 14.9673L185.017 15.9273C184.153 15.1753 183.193 14.6473 181.609 14.6473C179.129 14.6473 177.353 16.7433 177.353 19.2393V19.2713C177.353 21.9433 179.065 23.9273 181.785 23.9273C183.065 23.9273 184.249 23.4313 185.017 22.8073V20.0233H181.609V18.8873H186.233V23.3513C185.193 24.2793 183.625 25.0633 181.737 25.0633ZM194.284 25.0633C190.876 25.0633 188.588 22.3913 188.588 19.3033V19.2713C188.588 16.1833 190.908 13.4793 194.316 13.4793C197.724 13.4793 200.012 16.1513 200.012 19.2393V19.2713C200.012 22.3593 197.692 25.0633 194.284 25.0633ZM194.316 23.8953C196.876 23.8953 198.7 21.8473 198.7 19.3033V19.2713C198.7 16.7273 196.844 14.6473 194.284 14.6473C191.724 14.6473 189.9 16.6953 189.9 19.2393V19.2713C189.9 21.8153 191.756 23.8953 194.316 23.8953ZM201.062 24.8713L206.166 13.5913H207.35L212.454 24.8713H211.094L209.782 21.9113H203.686L202.358 24.8713H201.062ZM204.182 20.7593H209.286L206.742 15.0633L204.182 20.7593ZM216.185 24.8713V14.8393H212.425V13.6713H221.225V14.8393H217.465V24.8713H216.185ZM227.205 25.0313C225.429 25.0313 223.973 24.4393 222.629 23.2393L223.413 22.3113C224.581 23.3673 225.701 23.8953 227.253 23.8953C228.757 23.8953 229.749 23.0953 229.749 21.9913V21.9593C229.749 20.9193 229.189 20.3273 226.837 19.8313C224.261 19.2713 223.077 18.4393 223.077 16.5993V16.5673C223.077 14.8073 224.629 13.5113 226.757 13.5113C228.389 13.5113 229.557 13.9753 230.693 14.8873L229.957 15.8633C228.917 15.0153 227.877 14.6473 226.725 14.6473C225.269 14.6473 224.341 15.4473 224.341 16.4553V16.4873C224.341 17.5433 224.917 18.1353 227.381 18.6633C229.877 19.2073 231.029 20.1193 231.029 21.8313V21.8633C231.029 23.7833 229.429 25.0313 227.205 25.0313Z"></path>
<defs>
<filter color-interpolation-filters="sRGB" filterUnits="userSpaceOnUse" height="18.2285" width="19.6055" y="9.57129" x="14.2041" id="filter0_i_1689_111">
<feFlood result="BackgroundImageFix" flood-opacity="0"></feFlood>
<feBlend result="shape" in2="BackgroundImageFix" in="SourceGraphic" mode="normal"></feBlend>
<feColorMatrix result="hardAlpha" values="0 0 0 0 0 0 0 0 0 0 0 0 0 0 0 0 0 0 127 0" type="matrix" in="SourceAlpha"></feColorMatrix>
<feOffset dy="2" dx="3"></feOffset>
<feGaussianBlur stdDeviation="0.5"></feGaussianBlur>
<feComposite k3="1" k2="-1" operator="arithmetic" in2="hardAlpha"></feComposite>
<feColorMatrix values="0 0 0 0 0 0 0 0 0 0 0 0 0 0 0 0 0 0 0.25 0" type="matrix"></feColorMatrix>
<feBlend result="effect1_innerShadow_1689_111" in2="shape" mode="normal"></feBlend>
</filter>
<filter color-interpolation-filters="sRGB" filterUnits="userSpaceOnUse" height="18.2285" width="19.6055" y="9.57129" x="37.4609" id="filter1_i_1689_111">
<feFlood result="BackgroundImageFix" flood-opacity="0"></feFlood>
<feBlend result="shape" in2="BackgroundImageFix" in="SourceGraphic" mode="normal"></feBlend>
<feColorMatrix result="hardAlpha" values="0 0 0 0 0 0 0 0 0 0 0 0 0 0 0 0 0 0 127 0" type="matrix" in="SourceAlpha"></feColorMatrix>
<feOffset dy="2" dx="3"></feOffset>
<feGaussianBlur stdDeviation="0.5"></feGaussianBlur>
<feComposite k3="1" k2="-1" operator="arithmetic" in2="hardAlpha"></feComposite>
<feColorMatrix values="0 0 0 0 0 0 0 0 0 0 0 0 0 0 0 0 0 0 0.25 0" type="matrix"></feColorMatrix>
<feBlend result="effect1_innerShadow_1689_111" in2="shape" mode="normal"></feBlend>
</filter>
<filter color-interpolation-filters="sRGB" filterUnits="userSpaceOnUse" height="18.2285" width="19.6055" y="9.57129" x="60.7178" id="filter2_i_1689_111">
<feFlood result="BackgroundImageFix" flood-opacity="0"></feFlood>
<feBlend result="shape" in2="BackgroundImageFix" in="SourceGraphic" mode="normal"></feBlend>
<feColorMatrix result="hardAlpha" values="0 0 0 0 0 0 0 0 0 0 0 0 0 0 0 0 0 0 127 0" type="matrix" in="SourceAlpha"></feColorMatrix>
<feOffset dy="2" dx="3"></feOffset>
<feGaussianBlur stdDeviation="0.5"></feGaussianBlur>
<feComposite k3="1" k2="-1" operator="arithmetic" in2="hardAlpha"></feComposite>
<feColorMatrix values="0 0 0 0 0 0 0 0 0 0 0 0 0 0 0 0 0 0 0.25 0" type="matrix"></feColorMatrix>
<feBlend result="effect1_innerShadow_1689_111" in2="shape" mode="normal"></feBlend>
</filter>
<linearGradient gradientUnits="userSpaceOnUse" y2="16.3531" x2="404.624" y1="16.3531" x1="58.1304" id="paint0_linear_1689_111">
<stop stop-color="#01697D"></stop>
<stop stop-color="#02BFE3" offset="1"></stop>
</linearGradient>
</defs>
</svg>
