<svg xmlns="http://www.w3.org/2000/svg" fill="none" viewBox="0 0 764 419" height="419" width="764">
<rect fill="#FF7753" height="415.498" width="761.281" y="1.27875" x="1.27875"></rect>
<rect stroke-width="2.5575" stroke="black" height="415.498" width="761.281" y="1.27875" x="1.27875"></rect>
<mask fill="white" id="path-2-inside-1_4_1328">
<path d="M0 0.0239258H763.839V39.2389H0V0.0239258Z"></path>
</mask>
<path fill="url(#paint0_linear_4_1328)" d="M0 0.0239258H763.839V39.2389H0V0.0239258Z"></path>
<path mask="url(#path-2-inside-1_4_1328)" fill="black" d="M0 0.0239258V-2.53357H-2.5575V0.0239258H0ZM763.839 0.0239258H766.396V-2.53357H763.839V0.0239258ZM0 2.58142H763.839V-2.53357H0V2.58142ZM761.281 0.0239258V39.2389H766.396V0.0239258H761.281ZM2.5575 39.2389V0.0239258H-2.5575V39.2389H2.5575Z"></path>
<g filter="url(#filter0_i_4_1328)">
<rect fill-opacity="0.8" fill="#D9D9D9" height="24.7225" width="24.7225" y="8.52539" x="17.9025"></rect>
</g>
<g filter="url(#filter1_i_4_1328)">
<rect fill-opacity="0.8" fill="#D9D9D9" height="24.7225" width="24.7225" y="8.52539" x="49.4449"></rect>
</g>
<path fill="#D9D9D9" d="M129.225 26.6729V17.1249H132.54C135.54 17.1249 137.614 19.1845 137.614 21.8716V21.8989C137.614 24.5859 135.54 26.6729 132.54 26.6729H129.225ZM132.54 18.1206H130.303V25.6771H132.54C134.954 25.6771 136.495 24.0403 136.495 21.9261V21.8989C136.495 19.7847 134.954 18.1206 132.54 18.1206ZM139.745 18.0797V16.9203H140.945V18.0797H139.745ZM139.813 26.6729V19.621H140.863V26.6729H139.813ZM146.26 26.8229C144.569 26.8229 142.891 25.4862 142.891 23.1674V23.1401C142.891 20.8349 144.569 19.4709 146.26 19.4709C147.57 19.4709 148.415 20.1802 148.961 20.9713V16.7157H150.011V26.6729H148.961V25.2543C148.388 26.1 147.556 26.8229 146.26 26.8229ZM146.451 25.8817C147.761 25.8817 149.002 24.7769 149.002 23.1537V23.1265C149.002 21.5033 147.761 20.4121 146.451 20.4121C145.087 20.4121 143.969 21.4215 143.969 23.1265V23.1537C143.969 24.8178 145.128 25.8817 146.451 25.8817ZM159.899 26.8093C158.385 26.8093 157.143 26.3046 155.998 25.2816L156.666 24.4905C157.662 25.3907 158.616 25.8408 159.939 25.8408C161.222 25.8408 162.067 25.1588 162.067 24.2177V24.1904C162.067 23.3038 161.59 22.7991 159.585 22.3763C157.389 21.8989 156.379 21.1896 156.379 19.621V19.5937C156.379 18.0933 157.703 16.9885 159.517 16.9885C160.908 16.9885 161.904 17.384 162.872 18.1615L162.245 18.9935C161.358 18.2706 160.471 17.9569 159.489 17.9569C158.248 17.9569 157.457 18.6389 157.457 19.4982V19.5255C157.457 20.4257 157.948 20.9304 160.049 21.3805C162.176 21.8443 163.159 22.6218 163.159 24.0813V24.1085C163.159 25.7453 161.795 26.8093 159.899 26.8093ZM168.391 26.8365C166.277 26.8365 164.736 25.1725 164.736 23.181V23.1537C164.736 21.1623 166.291 19.4709 168.419 19.4709C170.533 19.4709 172.088 21.135 172.088 23.1265V23.1537C172.088 25.1452 170.519 26.8365 168.391 26.8365ZM168.419 25.8954C169.946 25.8954 171.01 24.6678 171.01 23.181V23.1537C171.01 21.6397 169.878 20.3985 168.391 20.3985C166.864 20.3985 165.814 21.6397 165.814 23.1265V23.1537C165.814 24.6678 166.932 25.8954 168.419 25.8954ZM173.99 26.6729V19.621H175.041V20.8077C175.504 20.112 176.132 19.4709 177.319 19.4709C178.464 19.4709 179.201 20.0847 179.583 20.8759C180.088 20.0984 180.838 19.4709 182.065 19.4709C183.688 19.4709 184.684 20.5621 184.684 22.3081V26.6729H183.634V22.5536C183.634 21.1896 182.952 20.4257 181.806 20.4257C180.742 20.4257 179.869 21.2169 179.869 22.6081V26.6729H178.819V22.5263C178.819 21.2032 178.123 20.4257 177.005 20.4257C175.886 20.4257 175.041 21.3533 175.041 22.6491V26.6729H173.99ZM190.047 26.8365C188.11 26.8365 186.528 25.3498 186.528 23.1674V23.1401C186.528 21.1077 187.96 19.4709 189.911 19.4709C191.998 19.4709 193.198 21.135 193.198 23.1947C193.198 23.3311 193.198 23.4129 193.184 23.5357H187.592C187.742 25.0633 188.819 25.9227 190.074 25.9227C191.043 25.9227 191.725 25.5271 192.298 24.9269L192.952 25.5135C192.243 26.3046 191.384 26.8365 190.047 26.8365ZM187.592 22.7582H192.134C192.025 21.476 191.288 20.3575 189.883 20.3575C188.656 20.3575 187.728 21.3805 187.592 22.7582ZM198.256 26.8365C196.141 26.8365 194.6 25.1725 194.6 23.181V23.1537C194.6 21.1623 196.155 19.4709 198.283 19.4709C200.397 19.4709 201.952 21.135 201.952 23.1265V23.1537C201.952 25.1452 200.383 26.8365 198.256 26.8365ZM198.283 25.8954C199.811 25.8954 200.874 24.6678 200.874 23.181V23.1537C200.874 21.6397 199.742 20.3985 198.256 20.3985C196.728 20.3985 195.678 21.6397 195.678 23.1265V23.1537C195.678 24.6678 196.796 25.8954 198.283 25.8954ZM203.855 26.6729V19.621H204.905V20.8486C205.369 20.0847 206.105 19.4709 207.319 19.4709C209.024 19.4709 210.02 20.6167 210.02 22.2944V26.6729H208.97V22.5536C208.97 21.2441 208.26 20.4257 207.019 20.4257C205.805 20.4257 204.905 21.3123 204.905 22.6354V26.6729H203.855ZM215.342 26.8365C213.405 26.8365 211.823 25.3498 211.823 23.1674V23.1401C211.823 21.1077 213.255 19.4709 215.206 19.4709C217.293 19.4709 218.493 21.135 218.493 23.1947C218.493 23.3311 218.493 23.4129 218.479 23.5357H212.887C213.037 25.0633 214.115 25.9227 215.37 25.9227C216.338 25.9227 217.02 25.5271 217.593 24.9269L218.248 25.5135C217.538 26.3046 216.679 26.8365 215.342 26.8365ZM212.887 22.7582H217.429C217.32 21.476 216.584 20.3575 215.179 20.3575C213.951 20.3575 213.023 21.3805 212.887 22.7582ZM227.872 26.8093C226.358 26.8093 225.117 26.3046 223.971 25.2816L224.639 24.4905C225.635 25.3907 226.59 25.8408 227.913 25.8408C229.195 25.8408 230.041 25.1588 230.041 24.2177V24.1904C230.041 23.3038 229.563 22.7991 227.558 22.3763C225.362 21.8989 224.353 21.1896 224.353 19.621V19.5937C224.353 18.0933 225.676 16.9885 227.49 16.9885C228.881 16.9885 229.877 17.384 230.846 18.1615L230.218 18.9935C229.331 18.2706 228.445 17.9569 227.463 17.9569C226.222 17.9569 225.43 18.6389 225.43 19.4982V19.5255C225.43 20.4257 225.921 20.9304 228.022 21.3805C230.15 21.8443 231.132 22.6218 231.132 24.0813V24.1085C231.132 25.7453 229.768 26.8093 227.872 26.8093ZM235.246 26.8229C233.937 26.8229 232.614 26.0727 232.614 24.6269V24.5996C232.614 23.1128 233.842 22.3217 235.628 22.3217C236.529 22.3217 237.17 22.4445 237.797 22.6218V22.3763C237.797 21.1077 237.02 20.453 235.697 20.453C234.864 20.453 234.21 20.6713 233.555 20.9713L233.241 20.112C234.019 19.7574 234.783 19.5255 235.806 19.5255C236.801 19.5255 237.565 19.7847 238.084 20.303C238.561 20.7804 238.806 21.4624 238.806 22.3626V26.6729H237.797V25.6089C237.306 26.25 236.488 26.8229 235.246 26.8229ZM235.451 25.9909C236.747 25.9909 237.811 25.1997 237.811 24.0813V23.3993C237.292 23.2492 236.597 23.0992 235.737 23.0992C234.414 23.0992 233.678 23.6721 233.678 24.5587V24.5859C233.678 25.4725 234.496 25.9909 235.451 25.9909ZM243.793 25.4998L246.057 19.621H247.176L244.216 26.9047C243.616 28.3642 242.934 28.8962 241.87 28.8962C241.283 28.8962 240.847 28.7734 240.369 28.5415L240.724 27.7095C241.065 27.8868 241.379 27.9686 241.829 27.9686C242.456 27.9686 242.852 27.6413 243.275 26.6456L240.069 19.621H241.229L243.793 25.4998ZM253.104 26.6729V17.1249H259.965V18.1206H254.181V21.5306H259.351V22.5127H254.181V26.6729H253.104ZM261.878 26.6729V19.621H262.928V21.4624C263.446 20.2893 264.469 19.4437 265.806 19.4982V20.6303H265.724C264.183 20.6303 262.928 21.7352 262.928 23.863V26.6729H261.878ZM270.182 26.8365C268.245 26.8365 266.663 25.3498 266.663 23.1674V23.1401C266.663 21.1077 268.095 19.4709 270.046 19.4709C272.132 19.4709 273.333 21.135 273.333 23.1947C273.333 23.3311 273.333 23.4129 273.319 23.5357H267.727C267.877 25.0633 268.954 25.9227 270.209 25.9227C271.178 25.9227 271.86 25.5271 272.433 24.9269L273.087 25.5135C272.378 26.3046 271.519 26.8365 270.182 26.8365ZM267.727 22.7582H272.269C272.16 21.476 271.423 20.3575 270.018 20.3575C268.791 20.3575 267.863 21.3805 267.727 22.7582ZM278.254 26.8365C276.317 26.8365 274.735 25.3498 274.735 23.1674V23.1401C274.735 21.1077 276.167 19.4709 278.118 19.4709C280.205 19.4709 281.405 21.135 281.405 23.1947C281.405 23.3311 281.405 23.4129 281.391 23.5357H275.799C275.949 25.0633 277.026 25.9227 278.281 25.9227C279.25 25.9227 279.932 25.5271 280.505 24.9269L281.159 25.5135C280.45 26.3046 279.591 26.8365 278.254 26.8365ZM275.799 22.7582H280.341C280.232 21.476 279.495 20.3575 278.09 20.3575C276.863 20.3575 275.935 21.3805 275.799 22.7582ZM291.943 26.8365C288.942 26.8365 287.087 24.6541 287.087 21.9261V21.8989C287.087 19.28 289.011 16.9612 291.875 16.9612C293.484 16.9612 294.48 17.4249 295.435 18.2297L294.739 19.0481C294.003 18.407 293.184 17.9569 291.834 17.9569C289.72 17.9569 288.206 19.7437 288.206 21.8716V21.8989C288.206 24.1767 289.665 25.8681 291.984 25.8681C293.075 25.8681 294.085 25.4453 294.739 24.9133V22.5399H291.834V21.5715H295.776V25.3771C294.889 26.1682 293.553 26.8365 291.943 26.8365ZM298.056 18.0797V16.9203H299.257V18.0797H298.056ZM298.124 26.6729V19.621H299.175V26.6729H298.124ZM302.008 26.6729V20.5485H301.039V19.6346H302.008V19.0208C302.008 18.2161 302.226 17.6023 302.622 17.2067C302.976 16.8521 303.494 16.6611 304.136 16.6611C304.627 16.6611 304.954 16.7157 305.295 16.8384V17.7523C304.913 17.6432 304.627 17.575 304.272 17.575C303.454 17.575 303.044 18.066 303.044 19.0754V19.6483H305.281V20.5485H303.058V26.6729H302.008ZM308.98 26.7956C307.848 26.7956 306.989 26.2364 306.989 24.8042V20.5485H306.007V19.621H306.989V17.4931H308.039V19.621H310.276V20.5485H308.039V24.6678C308.039 25.5271 308.517 25.8408 309.226 25.8408C309.58 25.8408 309.881 25.7726 310.249 25.5953V26.4955C309.881 26.6865 309.485 26.7956 308.98 26.7956ZM313.963 23.9721L313.758 21.7625L313.827 21.6943C315.6 21.6533 316.541 20.9168 316.541 19.771V19.7437C316.541 18.7617 315.777 17.9705 314.549 17.9705C313.54 17.9705 312.763 18.4479 312.067 19.2527L311.371 18.5843C312.149 17.6432 313.117 17.0021 314.577 17.0021C316.418 17.0021 317.632 18.1479 317.632 19.7028V19.7301C317.632 21.4351 316.35 22.2808 314.795 22.499L314.659 23.9721H313.963ZM313.676 26.6729V25.2407H314.931V26.6729H313.676ZM321.289 23.9721L321.085 21.7625L321.153 21.6943C322.926 21.6533 323.867 20.9168 323.867 19.771V19.7437C323.867 18.7617 323.103 17.9705 321.876 17.9705C320.866 17.9705 320.089 18.4479 319.393 19.2527L318.698 18.5843C319.475 17.6432 320.443 17.0021 321.903 17.0021C323.744 17.0021 324.958 18.1479 324.958 19.7028V19.7301C324.958 21.4351 323.676 22.2808 322.121 22.499L321.985 23.9721H321.289ZM321.003 26.6729V25.2407H322.258V26.6729H321.003ZM328.615 23.9721L328.411 21.7625L328.479 21.6943C330.252 21.6533 331.193 20.9168 331.193 19.771V19.7437C331.193 18.7617 330.429 17.9705 329.202 17.9705C328.192 17.9705 327.415 18.4479 326.719 19.2527L326.024 18.5843C326.801 17.6432 327.77 17.0021 329.229 17.0021C331.07 17.0021 332.284 18.1479 332.284 19.7028V19.7301C332.284 21.4351 331.002 22.2808 329.447 22.499L329.311 23.9721H328.615ZM328.329 26.6729V25.2407H329.584V26.6729H328.329ZM334.496 23.9721L334.182 17.8887V17.1249H335.409V17.8887L335.082 23.9721H334.496ZM334.168 26.6729V25.2407H335.423V26.6729H334.168ZM338.199 23.9721L337.885 17.8887V17.1249H339.113V17.8887L338.785 23.9721H338.199ZM337.871 26.6729V25.2407H339.126V26.6729H337.871Z"></path>
<defs>
<filter color-interpolation-filters="sRGB" filterUnits="userSpaceOnUse" height="25.5752" width="25.575" y="8.52539" x="17.9025" id="filter0_i_4_1328">
<feFlood result="BackgroundImageFix" flood-opacity="0"></feFlood>
<feBlend result="shape" in2="BackgroundImageFix" in="SourceGraphic" mode="normal"></feBlend>
<feColorMatrix result="hardAlpha" values="0 0 0 0 0 0 0 0 0 0 0 0 0 0 0 0 0 0 127 0" type="matrix" in="SourceAlpha"></feColorMatrix>
<feOffset dy="1.705" dx="2.5575"></feOffset>
<feGaussianBlur stdDeviation="0.426249"></feGaussianBlur>
<feComposite k3="1" k2="-1" operator="arithmetic" in2="hardAlpha"></feComposite>
<feColorMatrix values="0 0 0 0 0 0 0 0 0 0 0 0 0 0 0 0 0 0 0.25 0" type="matrix"></feColorMatrix>
<feBlend result="effect1_innerShadow_4_1328" in2="shape" mode="normal"></feBlend>
</filter>
<filter color-interpolation-filters="sRGB" filterUnits="userSpaceOnUse" height="25.5752" width="25.575" y="8.52539" x="49.4449" id="filter1_i_4_1328">
<feFlood result="BackgroundImageFix" flood-opacity="0"></feFlood>
<feBlend result="shape" in2="BackgroundImageFix" in="SourceGraphic" mode="normal"></feBlend>
<feColorMatrix result="hardAlpha" values="0 0 0 0 0 0 0 0 0 0 0 0 0 0 0 0 0 0 127 0" type="matrix" in="SourceAlpha"></feColorMatrix>
<feOffset dy="1.705" dx="2.5575"></feOffset>
<feGaussianBlur stdDeviation="0.426249"></feGaussianBlur>
<feComposite k3="1" k2="-1" operator="arithmetic" in2="hardAlpha"></feComposite>
<feColorMatrix values="0 0 0 0 0 0 0 0 0 0 0 0 0 0 0 0 0 0 0.25 0" type="matrix"></feColorMatrix>
<feBlend result="effect1_innerShadow_4_1328" in2="shape" mode="normal"></feBlend>
</filter>
<linearGradient gradientUnits="userSpaceOnUse" y2="19.1668" x2="991.135" y1="19.1668" x1="141.867" id="paint0_linear_4_1328">
<stop stop-color="#01697D"></stop>
<stop stop-color="#02BFE3" offset="1"></stop>
</linearGradient>
</defs>
</svg>
