<svg xmlns="http://www.w3.org/2000/svg" fill="none" viewBox="0 0 772 423" height="423" width="772">
<rect fill="#BEFCFF" height="419.938" width="769.415" y="1.29241" x="1.29241"></rect>
<rect stroke-width="2.58482" stroke="black" height="419.938" width="769.415" y="1.29241" x="1.29241"></rect>
<mask fill="white" id="path-2-inside-1_4_1312">
<path d="M0 0.0239258H772V39.6579H0V0.0239258Z"></path>
</mask>
<path fill="url(#paint0_linear_4_1312)" d="M0 0.0239258H772V39.6579H0V0.0239258Z"></path>
<path mask="url(#path-2-inside-1_4_1312)" fill="black" d="M0 0.0239258V-2.5609H-2.58482V0.0239258H0ZM772 0.0239258H774.585V-2.5609H772V0.0239258ZM0 2.60875H772V-2.5609H0V2.60875ZM769.415 0.0239258V39.6579H774.585V0.0239258H769.415ZM2.58482 39.6579V0.0239258H-2.58482V39.6579H2.58482Z"></path>
<g filter="url(#filter0_i_4_1312)">
<rect fill-opacity="0.8" fill="#D9D9D9" height="24.9866" width="24.9866" y="8.61572" x="18.0938"></rect>
</g>
<g filter="url(#filter1_i_4_1312)">
<rect fill-opacity="0.8" fill="#D9D9D9" height="24.9866" width="24.9866" y="8.61572" x="49.9733"></rect>
</g>
<path fill="#D9D9D9" d="M130.606 26.7544V17.1044H133.956C136.989 17.1044 139.084 19.186 139.084 21.9018V21.9294C139.084 24.6452 136.989 26.7544 133.956 26.7544H130.606ZM133.956 18.1108H131.695V25.748H133.956C136.396 25.748 137.954 24.0938 137.954 21.957V21.9294C137.954 19.7926 136.396 18.1108 133.956 18.1108ZM141.238 18.0694V16.8976H142.451V18.0694H141.238ZM141.307 26.7544V19.6272H142.368V26.7544H141.307ZM147.823 26.906C146.114 26.906 144.418 25.555 144.418 23.2115V23.1839C144.418 20.8541 146.114 19.4755 147.823 19.4755C149.147 19.4755 150.001 20.1924 150.553 20.992V16.6908H151.614V26.7544H150.553V25.3207C149.974 26.1754 149.133 26.906 147.823 26.906ZM148.016 25.9548C149.34 25.9548 150.594 24.8382 150.594 23.1977V23.1701C150.594 21.5296 149.34 20.4268 148.016 20.4268C146.638 20.4268 145.507 21.4469 145.507 23.1701V23.1977C145.507 24.8795 146.679 25.9548 148.016 25.9548ZM161.607 26.8923C160.077 26.8923 158.822 26.3822 157.664 25.3483L158.34 24.5487C159.346 25.4585 160.311 25.9135 161.648 25.9135C162.944 25.9135 163.799 25.2242 163.799 24.273V24.2454C163.799 23.3493 163.316 22.8393 161.29 22.4119C159.07 21.9294 158.05 21.2125 158.05 19.6272V19.5996C158.05 18.0832 159.388 16.9665 161.221 16.9665C162.627 16.9665 163.634 17.3663 164.612 18.1521L163.978 18.993C163.082 18.2624 162.186 17.9453 161.193 17.9453C159.939 17.9453 159.139 18.6346 159.139 19.5031V19.5307C159.139 20.4405 159.636 20.9506 161.759 21.4055C163.909 21.8743 164.902 22.66 164.902 24.1351V24.1627C164.902 25.817 163.523 26.8923 161.607 26.8923ZM170.191 26.9198C168.054 26.9198 166.496 25.238 166.496 23.2253V23.1977C166.496 21.185 168.068 19.4755 170.218 19.4755C172.355 19.4755 173.927 21.1574 173.927 23.1701V23.1977C173.927 25.2104 172.341 26.9198 170.191 26.9198ZM170.218 25.9686C171.762 25.9686 172.838 24.7279 172.838 23.2253V23.1977C172.838 21.6675 171.693 20.413 170.191 20.413C168.647 20.413 167.585 21.6675 167.585 23.1701V23.1977C167.585 24.7279 168.716 25.9686 170.218 25.9686ZM175.85 26.7544V19.6272H176.911V20.8265C177.38 20.1235 178.014 19.4755 179.213 19.4755C180.371 19.4755 181.116 20.0959 181.502 20.8955C182.012 20.1097 182.77 19.4755 184.011 19.4755C185.651 19.4755 186.658 20.5784 186.658 22.343V26.7544H185.596V22.5911C185.596 21.2125 184.907 20.4405 183.749 20.4405C182.673 20.4405 181.791 21.2401 181.791 22.6463V26.7544H180.73V22.5635C180.73 21.2263 180.027 20.4405 178.896 20.4405C177.766 20.4405 176.911 21.378 176.911 22.6876V26.7544H175.85ZM192.078 26.9198C190.12 26.9198 188.521 25.4172 188.521 23.2115V23.1839C188.521 21.1298 189.968 19.4755 191.94 19.4755C194.049 19.4755 195.262 21.1574 195.262 23.239C195.262 23.3769 195.262 23.4596 195.248 23.5837H189.596C189.748 25.1277 190.837 25.9962 192.105 25.9962C193.084 25.9962 193.773 25.5964 194.352 24.9898L195.014 25.5826C194.297 26.3822 193.429 26.9198 192.078 26.9198ZM189.596 22.7979H194.187C194.077 21.502 193.332 20.3716 191.912 20.3716C190.672 20.3716 189.734 21.4055 189.596 22.7979ZM200.374 26.9198C198.237 26.9198 196.679 25.238 196.679 23.2253V23.1977C196.679 21.185 198.251 19.4755 200.401 19.4755C202.538 19.4755 204.11 21.1574 204.11 23.1701V23.1977C204.11 25.2104 202.524 26.9198 200.374 26.9198ZM200.401 25.9686C201.945 25.9686 203.021 24.7279 203.021 23.2253V23.1977C203.021 21.6675 201.877 20.413 200.374 20.413C198.83 20.413 197.768 21.6675 197.768 23.1701V23.1977C197.768 24.7279 198.899 25.9686 200.401 25.9686ZM206.033 26.7544V19.6272H207.094V20.8679C207.563 20.0959 208.307 19.4755 209.534 19.4755C211.257 19.4755 212.264 20.6335 212.264 22.3292V26.7544H211.202V22.5911C211.202 21.2677 210.485 20.4405 209.231 20.4405C208.004 20.4405 207.094 21.3366 207.094 22.6738V26.7544H206.033ZM217.643 26.9198C215.686 26.9198 214.086 25.4172 214.086 23.2115V23.1839C214.086 21.1298 215.534 19.4755 217.505 19.4755C219.615 19.4755 220.828 21.1574 220.828 23.239C220.828 23.3769 220.828 23.4596 220.814 23.5837H215.162C215.313 25.1277 216.402 25.9962 217.671 25.9962C218.65 25.9962 219.339 25.5964 219.918 24.9898L220.58 25.5826C219.863 26.3822 218.994 26.9198 217.643 26.9198ZM215.162 22.7979H219.752C219.642 21.502 218.898 20.3716 217.478 20.3716C216.237 20.3716 215.3 21.4055 215.162 22.7979ZM230.307 26.8923C228.777 26.8923 227.522 26.3822 226.364 25.3483L227.04 24.5487C228.046 25.4585 229.011 25.9135 230.348 25.9135C231.644 25.9135 232.499 25.2242 232.499 24.273V24.2454C232.499 23.3493 232.016 22.8393 229.99 22.4119C227.77 21.9294 226.75 21.2125 226.75 19.6272V19.5996C226.75 18.0832 228.087 16.9665 229.921 16.9665C231.327 16.9665 232.333 17.3663 233.312 18.1521L232.678 18.993C231.782 18.2624 230.886 17.9453 229.893 17.9453C228.639 17.9453 227.839 18.6346 227.839 19.5031V19.5307C227.839 20.4405 228.335 20.9506 230.458 21.4055C232.609 21.8743 233.602 22.66 233.602 24.1351V24.1627C233.602 25.817 232.223 26.8923 230.307 26.8923ZM237.76 26.906C236.437 26.906 235.099 26.1478 235.099 24.6865V24.659C235.099 23.1563 236.34 22.3568 238.146 22.3568C239.056 22.3568 239.704 22.4808 240.338 22.66V22.4119C240.338 21.1298 239.552 20.4681 238.215 20.4681C237.374 20.4681 236.712 20.6887 236.051 20.992L235.733 20.1235C236.519 19.765 237.291 19.5307 238.325 19.5307C239.332 19.5307 240.104 19.7926 240.627 20.3165C241.11 20.799 241.358 21.4883 241.358 22.3981V26.7544H240.338V25.6791C239.842 26.327 239.014 26.906 237.76 26.906ZM237.967 26.0651C239.276 26.0651 240.352 25.2655 240.352 24.1351V23.4458C239.828 23.2942 239.125 23.1425 238.256 23.1425C236.919 23.1425 236.175 23.7215 236.175 24.6176V24.6452C236.175 25.5413 237.002 26.0651 237.967 26.0651ZM246.398 25.5688L248.686 19.6272H249.817L246.825 26.9888C246.218 28.4638 245.529 29.0015 244.454 29.0015C243.861 29.0015 243.42 28.8774 242.937 28.643L243.296 27.8021C243.641 27.9813 243.958 28.064 244.413 28.064C245.047 28.064 245.446 27.7332 245.874 26.7268L242.634 19.6272H243.806L246.398 25.5688ZM255.808 26.7544V17.1044H262.742V18.1108H256.897V21.5572H262.122V22.5498H256.897V26.7544H255.808ZM264.676 26.7544V19.6272H265.737V21.4883C266.261 20.3027 267.295 19.448 268.646 19.5031V20.6473H268.563C267.006 20.6473 265.737 21.764 265.737 23.9145V26.7544H264.676ZM273.069 26.9198C271.111 26.9198 269.512 25.4172 269.512 23.2115V23.1839C269.512 21.1298 270.96 19.4755 272.931 19.4755C275.04 19.4755 276.253 21.1574 276.253 23.239C276.253 23.3769 276.253 23.4596 276.239 23.5837H270.587C270.739 25.1277 271.828 25.9962 273.096 25.9962C274.075 25.9962 274.764 25.5964 275.343 24.9898L276.005 25.5826C275.288 26.3822 274.42 26.9198 273.069 26.9198ZM270.587 22.7979H275.178C275.068 21.502 274.323 20.3716 272.903 20.3716C271.663 20.3716 270.725 21.4055 270.587 22.7979ZM281.227 26.9198C279.27 26.9198 277.67 25.4172 277.67 23.2115V23.1839C277.67 21.1298 279.118 19.4755 281.089 19.4755C283.198 19.4755 284.412 21.1574 284.412 23.239C284.412 23.3769 284.412 23.4596 284.398 23.5837H278.746C278.897 25.1277 279.986 25.9962 281.255 25.9962C282.233 25.9962 282.923 25.5964 283.502 24.9898L284.163 25.5826C283.447 26.3822 282.578 26.9198 281.227 26.9198ZM278.746 22.7979H283.336C283.226 21.502 282.482 20.3716 281.062 20.3716C279.821 20.3716 278.884 21.4055 278.746 22.7979ZM295.062 26.9198C292.03 26.9198 290.155 24.7141 290.155 21.957V21.9294C290.155 19.2825 292.099 16.939 294.994 16.939C296.62 16.939 297.627 17.4077 298.592 18.221L297.889 19.0482C297.144 18.4003 296.317 17.9453 294.952 17.9453C292.815 17.9453 291.285 19.7513 291.285 21.9018V21.9294C291.285 24.2316 292.76 25.941 295.104 25.941C296.207 25.941 297.227 25.5137 297.889 24.976V22.5773H294.952V21.5985H298.936V25.4448C298.04 26.2443 296.689 26.9198 295.062 26.9198ZM301.241 18.0694V16.8976H302.454V18.0694H301.241ZM301.31 26.7544V19.6272H302.371V26.7544H301.31ZM305.235 26.7544V20.5646H304.256V19.641H305.235V19.0206C305.235 18.2073 305.455 17.5869 305.855 17.1871C306.213 16.8287 306.737 16.6357 307.385 16.6357C307.881 16.6357 308.212 16.6908 308.557 16.8149V17.7385C308.171 17.6283 307.881 17.5593 307.523 17.5593C306.696 17.5593 306.282 18.0556 306.282 19.0758V19.6548H308.543V20.5646H306.296V26.7544H305.235ZM312.282 26.8785C311.137 26.8785 310.269 26.3133 310.269 24.8658V20.5646H309.276V19.6272H310.269V17.4766H311.33V19.6272H313.591V20.5646H311.33V24.7279C311.33 25.5964 311.813 25.9135 312.53 25.9135C312.888 25.9135 313.192 25.8445 313.564 25.6653V26.5752C313.192 26.7682 312.792 26.8785 312.282 26.8785ZM317.318 24.0248L317.111 21.7915L317.18 21.7226C318.972 21.6813 319.923 20.9368 319.923 19.7788V19.7513C319.923 18.7587 319.151 17.9591 317.91 17.9591C316.89 17.9591 316.104 18.4416 315.401 19.255L314.698 18.5795C315.484 17.6283 316.463 16.9803 317.938 16.9803C319.799 16.9803 321.026 18.1383 321.026 19.7099V19.7375C321.026 21.4607 319.73 22.3154 318.158 22.536L318.021 24.0248H317.318ZM317.028 26.7544V25.3069H318.296V26.7544H317.028ZM324.722 24.0248L324.515 21.7915L324.584 21.7226C326.376 21.6813 327.327 20.9368 327.327 19.7788V19.7513C327.327 18.7587 326.555 17.9591 325.315 17.9591C324.295 17.9591 323.509 18.4416 322.806 19.255L322.103 18.5795C322.888 17.6283 323.867 16.9803 325.342 16.9803C327.203 16.9803 328.43 18.1383 328.43 19.7099V19.7375C328.43 21.4607 327.134 22.3154 325.563 22.536L325.425 24.0248H324.722ZM324.432 26.7544V25.3069H325.701V26.7544H324.432ZM332.126 24.0248L331.92 21.7915L331.989 21.7226C333.781 21.6813 334.732 20.9368 334.732 19.7788V19.7513C334.732 18.7587 333.96 17.9591 332.719 17.9591C331.699 17.9591 330.913 18.4416 330.21 19.255L329.507 18.5795C330.293 17.6283 331.272 16.9803 332.747 16.9803C334.608 16.9803 335.835 18.1383 335.835 19.7099V19.7375C335.835 21.4607 334.539 22.3154 332.967 22.536L332.829 24.0248H332.126ZM331.837 26.7544V25.3069H333.105V26.7544H331.837ZM338.07 24.0248L337.752 17.8764V17.1044H338.993V17.8764L338.662 24.0248H338.07ZM337.739 26.7544V25.3069H339.007V26.7544H337.739ZM341.812 24.0248L341.495 17.8764V17.1044H342.736V17.8764L342.405 24.0248H341.812ZM341.481 26.7544V25.3069H342.75V26.7544H341.481Z"></path>
<defs>
<filter color-interpolation-filters="sRGB" filterUnits="userSpaceOnUse" height="25.8484" width="25.8482" y="8.61572" x="18.0938" id="filter0_i_4_1312">
<feFlood result="BackgroundImageFix" flood-opacity="0"></feFlood>
<feBlend result="shape" in2="BackgroundImageFix" in="SourceGraphic" mode="normal"></feBlend>
<feColorMatrix result="hardAlpha" values="0 0 0 0 0 0 0 0 0 0 0 0 0 0 0 0 0 0 127 0" type="matrix" in="SourceAlpha"></feColorMatrix>
<feOffset dy="1.72321" dx="2.58482"></feOffset>
<feGaussianBlur stdDeviation="0.430804"></feGaussianBlur>
<feComposite k3="1" k2="-1" operator="arithmetic" in2="hardAlpha"></feComposite>
<feColorMatrix values="0 0 0 0 0 0 0 0 0 0 0 0 0 0 0 0 0 0 0.25 0" type="matrix"></feColorMatrix>
<feBlend result="effect1_innerShadow_4_1312" in2="shape" mode="normal"></feBlend>
</filter>
<filter color-interpolation-filters="sRGB" filterUnits="userSpaceOnUse" height="25.8484" width="25.8482" y="8.61572" x="49.9733" id="filter1_i_4_1312">
<feFlood result="BackgroundImageFix" flood-opacity="0"></feFlood>
<feBlend result="shape" in2="BackgroundImageFix" in="SourceGraphic" mode="normal"></feBlend>
<feColorMatrix result="hardAlpha" values="0 0 0 0 0 0 0 0 0 0 0 0 0 0 0 0 0 0 127 0" type="matrix" in="SourceAlpha"></feColorMatrix>
<feOffset dy="1.72321" dx="2.58482"></feOffset>
<feGaussianBlur stdDeviation="0.430804"></feGaussianBlur>
<feComposite k3="1" k2="-1" operator="arithmetic" in2="hardAlpha"></feComposite>
<feColorMatrix values="0 0 0 0 0 0 0 0 0 0 0 0 0 0 0 0 0 0 0.25 0" type="matrix"></feColorMatrix>
<feBlend result="effect1_innerShadow_4_1312" in2="shape" mode="normal"></feBlend>
</filter>
<linearGradient gradientUnits="userSpaceOnUse" y2="19.3713" x2="1001.72" y1="19.3713" x1="143.383" id="paint0_linear_4_1312">
<stop stop-color="#01697D"></stop>
<stop stop-color="#02BFE3" offset="1"></stop>
</linearGradient>
</defs>
</svg>
