<svg xmlns="http://www.w3.org/2000/svg" fill="none" viewBox="0 0 20 20" height="20" width="20">
<g clip-path="url(#clip0_43_262)">
<path fill="#C3B0FF" d="M9.62224 10.9361L9.47028 9.18485L11.2215 9.03289C12.6948 8.90502 14.1162 9.34422 15.2022 10.1837C15.2541 9.91315 15.2781 9.61849 15.2781 9.31272C15.2781 7.94693 14.8464 6.84058 13.2989 6.84058C12.8746 6.84058 12.4094 6.92397 11.9591 7.07408C12.2408 6.69047 12.4632 6.27536 12.5947 5.87137C13.0729 4.39994 12.1537 3.64755 10.8546 3.22503C9.55553 2.8025 8.3695 2.87107 7.89138 4.34435C7.7598 4.74834 7.69679 5.21719 7.69865 5.69161C7.42252 5.30615 7.09451 4.96516 6.75167 4.71498C5.49892 3.80507 4.50006 4.44627 3.69764 5.55077C2.89521 6.65526 2.59314 7.80423 3.84589 8.71414C4.19058 8.96432 4.61866 9.17002 5.07455 9.31272C4.62052 9.45727 4.19058 9.66111 3.84589 9.91129C2.59314 10.8212 2.89521 11.9702 3.69764 13.0747C4.50006 14.1792 5.49892 14.8204 6.75167 13.9105C7.09451 13.6603 7.42252 13.3193 7.69865 12.9338C7.69679 13.4082 7.7598 13.8771 7.89138 14.2811C8.3695 15.7525 9.55553 15.8211 10.8546 15.4004C11.2123 15.2837 11.5384 15.1428 11.8164 14.9686C10.597 14.0439 9.76679 12.5854 9.6241 10.938L9.62224 10.9361Z"></path>
<path fill="#61DEFF" d="M17.1738 13.7493C17.046 12.2704 16.2936 11.0232 15.2021 10.1819C15.0242 11.1159 14.4979 11.7812 13.297 11.7812C12.8726 11.7812 12.4075 11.6978 11.9571 11.5477C12.2388 11.9294 12.4612 12.3464 12.5928 12.7504C12.9393 13.8178 12.5502 14.5053 11.8145 14.9649C12.78 15.6988 13.9901 16.0954 15.2966 15.9805C16.2639 15.8971 17.2554 14.7148 17.172 13.7474L17.1738 13.7493Z"></path>
<path fill="#C3B0FF" d="M9.62224 10.9361L9.47028 9.18485L11.2215 9.03289C12.6948 8.90502 14.1162 9.34422 15.2022 10.1837C15.2541 9.91315 15.2781 9.61849 15.2781 9.31272C15.2781 7.94693 14.8464 6.84058 13.2989 6.84058C12.8746 6.84058 12.4094 6.92397 11.9591 7.07408C12.2408 6.69047 12.4632 6.27536 12.5947 5.87137C13.0729 4.39994 12.1537 3.64755 10.8546 3.22503C9.55553 2.8025 8.3695 2.87107 7.89138 4.34435C7.7598 4.74834 7.69679 5.21719 7.69865 5.69161C7.42252 5.30615 7.09451 4.96516 6.75167 4.71498C5.49892 3.80507 4.50006 4.44627 3.69764 5.55077C2.89521 6.65526 2.59314 7.80423 3.84589 8.71414C4.19058 8.96432 4.61866 9.17002 5.07455 9.31272C4.62052 9.45727 4.19058 9.66111 3.84589 9.91129C2.59314 10.8212 2.89521 11.9702 3.69764 13.0747C4.50006 14.1792 5.49892 14.8204 6.75167 13.9105C7.09451 13.6603 7.42252 13.3193 7.69865 12.9338C7.69679 13.4082 7.7598 13.8771 7.89138 14.2811C8.3695 15.7525 9.55553 15.8211 10.8546 15.4004C11.2123 15.2837 11.5384 15.1428 11.8164 14.9686C10.597 14.0439 9.76679 12.5854 9.6241 10.938L9.62224 10.9361Z"></path>
<path fill="#61DEFF" d="M17.1738 13.7493C17.046 12.2704 16.2936 11.0232 15.2021 10.1819C15.0242 11.1159 14.4979 11.7812 13.297 11.7812C12.8726 11.7812 12.4075 11.6978 11.9571 11.5477C12.2388 11.9294 12.4612 12.3464 12.5928 12.7504C12.9393 13.8178 12.5502 14.5053 11.8145 14.9649C12.78 15.6988 13.9901 16.0954 15.2966 15.9805C16.2639 15.8971 17.2554 14.7148 17.172 13.7474L17.1738 13.7493Z"></path>
<path fill="#8563E0" d="M12.5933 12.7522C12.4617 12.3482 12.2394 11.9312 11.9577 11.5495C12.408 11.6996 12.8731 11.783 13.2975 11.783C14.4965 11.783 15.0247 11.1177 15.2026 10.1837C14.1166 9.34419 12.6971 8.90499 11.222 9.03286L9.4707 9.18482L9.62266 10.9361C9.76536 12.5835 10.5956 14.042 11.815 14.9667C12.5488 14.5071 12.9399 13.8196 12.5933 12.7522Z"></path>
</g>
<defs>
<clipPath id="clip0_43_262">
<rect fill="white" height="20" width="20"></rect>
</clipPath>
</defs>
</svg>
