<?xml version="1.0" encoding="utf-8"?>
<!-- Generator: Adobe Illustrator 27.6.1, SVG Export Plug-In . SVG Version: 6.00 Build 0)  -->
<svg version="1.1" id="Layer_1" xmlns="http://www.w3.org/2000/svg" xmlns:xlink="http://www.w3.org/1999/xlink" x="0px" y="0px"
	 viewBox="0 0 188 88" style="enable-background:new 0 0 188 88;" xml:space="preserve">
<style type="text/css">
	.st0{fill:#B8C6E6;}
	.st1{fill:#555555;}
</style>
<g>
	<path class="st0" d="M27.7,9.8l126.2-9.8c16.5-1.3,30.9,11.1,32.2,27.6l1.4,18.1c1.3,16.5-11.1,30.9-27.6,32.2L33.7,87.8
		C17.2,89.1,2.8,76.7,1.5,60.2L0.1,42.1C-1.2,25.6,11.2,11.1,27.7,9.8z"/>
	<path class="st1" d="M13.9,45.9l-1-11.9l5.3-0.4c1.4-0.1,2.5,0.2,3.2,0.8c0.6,0.5,0.9,1.1,1,1.9l0,0c0.1,1.4-0.6,2.3-1.5,2.8
		c1.4,0.4,2.5,1.1,2.6,2.7l0,0c0.2,2.1-1.5,3.4-4.1,3.6L13.9,45.9z M20.3,36.9L20.3,36.9c-0.1-1-0.9-1.5-2.2-1.4l-3,0.2l0.3,3.2
		l2.8-0.2C19.5,38.6,20.4,38,20.3,36.9z M21.4,41.8c-0.1-1-0.9-1.5-2.6-1.4l-3.3,0.3l0.3,3.3l3.5-0.3C20.6,43.5,21.5,42.9,21.4,41.8
		L21.4,41.8z"/>
	<path class="st1" d="M30.1,44.8c-2.7,0.2-4.9-1.7-5.1-4.2l0,0c-0.2-2.6,1.7-4.8,4.4-5.1c2.7-0.2,4.9,1.7,5.1,4.3l0,0
		C34.8,42.3,32.9,44.6,30.1,44.8z M30,43c1.7-0.1,2.6-1.5,2.5-3.1l0,0c-0.1-1.6-1.4-2.8-3-2.7c-1.6,0.1-2.6,1.5-2.5,3.1l0,0
		C27.2,41.9,28.4,43.2,30,43z"/>
	<path class="st1" d="M40,44c-1.5,0.1-2.6-0.5-2.8-2.4l-0.4-4.7l-1.1,0.1l-0.1-1.8l1.1-0.1l-0.2-2.5l2.1-0.2l0.2,2.5l2.4-0.2
		l0.1,1.8l-2.4,0.2l0.4,4.4c0.1,0.8,0.5,1.1,1.2,1c0.5,0,0.9-0.2,1.2-0.4l0.1,1.7C41.3,43.7,40.8,43.9,40,44z"/>
	<path class="st1" d="M46.6,43.5c-1.7,0.1-3.3-0.7-3.4-2.5l0,0c-0.2-1.9,1.3-3,3.5-3.2c1-0.1,1.7,0,2.4,0.2l0-0.2
		c-0.1-1.3-0.9-1.9-2.4-1.8c-1,0.1-1.7,0.4-2.5,0.8l-0.7-1.6c1-0.5,1.9-0.9,3.3-1c1.3-0.1,2.4,0.2,3,0.8c0.7,0.6,1.1,1.5,1.2,2.7
		l0.4,5.3l-2,0.2l-0.1-1.1C48.8,42.7,47.9,43.4,46.6,43.5z M47,41.9c1.4-0.1,2.3-1,2.2-2.1l0-0.6C48.7,39,47.9,39,47.1,39
		c-1.3,0.1-2.1,0.7-2,1.7l0,0C45.2,41.6,46,42,47,41.9z"/>
	<path class="st1" d="M53.9,42.7l-0.7-8.9l2.1-0.2l0.1,1.4c0.5-0.9,1.3-1.7,2.7-1.8c2-0.2,3.3,1.1,3.5,3.2l0.5,5.7l-2.1,0.2
		l-0.4-5.1c-0.1-1.4-0.9-2.1-2.1-2c-1.2,0.1-1.9,1-1.8,2.4l0.4,5L53.9,42.7z"/>
	<path class="st1" d="M63.6,31.5l-0.2-1.9l2.2-0.2l0.2,1.9L63.6,31.5z M64.5,41.8l-0.7-8.9l2.1-0.2l0.7,8.9L64.5,41.8z"/>
	<path class="st1" d="M73.4,41.3c-2.7,0.2-4.8-1.7-5-4.2l0,0c-0.2-2.5,1.6-4.8,4.3-5.1c1.7-0.1,2.8,0.4,3.7,1.3l-1.2,1.5
		c-0.7-0.6-1.4-1-2.4-0.9c-1.5,0.1-2.5,1.5-2.4,3.1l0,0c0.1,1.6,1.3,2.8,2.9,2.6c1-0.1,1.6-0.6,2.2-1.3l1.3,1.1
		C76.1,40.4,75.2,41.2,73.4,41.3z"/>
	<path class="st1" d="M81.5,40.6c-1.7,0.1-3.3-0.7-3.4-2.5l0,0c-0.2-1.9,1.3-3,3.5-3.2c1-0.1,1.7,0,2.4,0.2l0-0.2
		c-0.1-1.3-0.9-1.9-2.4-1.8c-1,0.1-1.7,0.4-2.5,0.8l-0.7-1.6c1-0.5,1.9-0.9,3.3-1c1.3-0.1,2.4,0.2,3,0.8c0.7,0.6,1.1,1.5,1.2,2.7
		l0.4,5.3l-2,0.2l-0.1-1.1C83.8,39.9,82.9,40.5,81.5,40.6z M82,39.1c1.4-0.1,2.3-1,2.2-2.1l0-0.6c-0.5-0.2-1.2-0.3-2.1-0.2
		c-1.3,0.1-2.1,0.7-2,1.7l0,0C80.2,38.7,81,39.2,82,39.1z"/>
	<path class="st1" d="M89,39.8l-1-12.4l2.1-0.2l1,12.4L89,39.8z"/>
	<path class="st1" d="M103.9,38.8c-1.5,0.1-2.5-0.5-3.2-1.3l0.1,1.4L98.8,39l-1-12.4l2.1-0.2l0.4,4.9c0.6-1,1.5-1.8,2.9-1.9
		c2.1-0.2,4.3,1.3,4.5,4.3l0,0C107.9,36.8,106.1,38.6,103.9,38.8z M103.3,37.1c1.4-0.1,2.5-1.3,2.3-3.1l0,0
		c-0.1-1.7-1.4-2.8-2.8-2.7c-1.4,0.1-2.5,1.4-2.4,3.1l0,0C100.6,36.1,101.9,37.2,103.3,37.1z"/>
	<path class="st1" d="M110.3,38.1l-1-12.4l2.1-0.2l1,12.4L110.3,38.1z"/>
	<path class="st1" d="M119.1,37.6c-2.6,0.2-4.7-1.5-5-4.3l0,0c-0.2-2.6,1.4-4.8,4-5c2.8-0.2,4.5,1.9,4.7,4.5c0,0.2,0,0.4,0,0.6
		l-6.6,0.5c0.3,1.4,1.4,2.2,2.8,2.1c1-0.1,1.7-0.5,2.3-1.3l1.3,1C121.9,36.7,120.8,37.4,119.1,37.6z M116.2,32.5l4.6-0.4
		c-0.2-1.3-1.1-2.3-2.5-2.2C117,30,116.2,31.1,116.2,32.5z"/>
	<path class="st1" d="M125.2,36.9l-0.7-8.9l2.1-0.2l0.1,1.4c0.5-0.9,1.3-1.7,2.7-1.8c2-0.2,3.3,1.1,3.5,3.2l0.5,5.7l-2.1,0.2
		l-0.4-5.1c-0.1-1.4-0.9-2.1-2.1-2c-1.2,0.1-1.9,1-1.8,2.4l0.4,5L125.2,36.9z"/>
	<path class="st1" d="M139.5,35.9c-2.1,0.2-4.3-1.3-4.5-4.3l0,0c-0.2-3,1.6-4.8,3.8-5c1.5-0.1,2.5,0.5,3.2,1.3l-0.4-4.8l2.1-0.2
		l1,12.4l-2.1,0.2l-0.1-1.5C141.8,35,140.9,35.8,139.5,35.9z M139.8,34.1c1.4-0.1,2.5-1.4,2.4-3.1l0,0c-0.1-1.7-1.5-2.8-2.8-2.7
		c-1.4,0.1-2.5,1.3-2.3,3.1l0,0C137.2,33.2,138.4,34.2,139.8,34.1z"/>
	<path class="st1" d="M152.7,34.6l-0.6-7.2l-1.1,0.1l-0.1-1.7l1.1-0.1l-0.1-0.7c-0.1-1,0.1-1.7,0.5-2.3c0.4-0.5,1.1-0.8,1.9-0.9
		c0.7-0.1,1.2,0,1.7,0.1l0.1,1.7c-0.4-0.1-0.8-0.2-1.2-0.1c-0.8,0.1-1.2,0.5-1.1,1.5l0,0.5l2.4-0.2l0.1,1.7l-2.3,0.2l0.6,7.2
		L152.7,34.6z"/>
	<path class="st1" d="M162.7,34c-2.7,0.2-4.9-1.7-5.1-4.2l0,0c-0.2-2.6,1.7-4.8,4.4-5.1c2.7-0.2,4.9,1.7,5.1,4.3l0,0
		C167.3,31.5,165.4,33.8,162.7,34z M162.6,32.2c1.7-0.1,2.6-1.5,2.5-3.1l0,0c-0.1-1.6-1.4-2.8-3-2.7c-1.6,0.1-2.6,1.5-2.5,3.1l0,0
		C159.7,31.1,161,32.4,162.6,32.2z"/>
	<path class="st1" d="M169.5,33.3l-0.7-8.9l2.1-0.2l0.2,2c0.4-1.4,1.4-2.4,3-2.4l0.2,2.2l-0.1,0c-1.8,0.1-3,1.4-2.8,3.8l0.3,3.4
		L169.5,33.3z"/>
	<path class="st1" d="M31.8,64.7c-1.7,0.1-3.3-0.7-3.4-2.5l0,0c-0.2-1.9,1.3-3,3.5-3.2c1-0.1,1.7,0,2.4,0.2l0-0.2
		c-0.1-1.3-0.9-1.9-2.4-1.8c-1,0.1-1.7,0.4-2.5,0.8l-0.7-1.6c1-0.5,1.9-0.9,3.3-1c1.3-0.1,2.4,0.2,3,0.8c0.7,0.6,1.1,1.5,1.2,2.7
		l0.4,5.3l-2,0.2l-0.1-1.1C34,64,33.2,64.6,31.8,64.7z M32.2,63.2c1.4-0.1,2.3-1,2.2-2.1l0-0.6c-0.5-0.2-1.2-0.3-2.1-0.2
		c-1.3,0.1-2.1,0.7-2,1.7l0,0C30.5,62.8,31.3,63.3,32.2,63.2z"/>
	<path class="st1" d="M47.3,63.5c-1.3,0.1-2.7-0.2-3.9-1l0.8-1.5c1,0.6,2.1,0.9,3,0.9c0.9-0.1,1.4-0.5,1.3-1.1l0,0
		c-0.1-0.7-1-0.9-2.1-1.1c-1.4-0.3-2.9-0.7-3-2.4l0,0c-0.1-1.7,1.2-2.9,3-3c1.1-0.1,2.4,0.2,3.4,0.7l-0.7,1.5
		c-0.9-0.5-1.8-0.7-2.6-0.6c-0.8,0.1-1.2,0.5-1.2,1l0,0c0.1,0.7,1,0.9,2.1,1.1c1.3,0.3,2.9,0.8,3,2.4l0,0
		C50.5,62.3,49.2,63.3,47.3,63.5z"/>
	<path class="st1" d="M55.8,62.8c-2,0.2-3.3-1.1-3.5-3.2l-0.5-5.7l2.1-0.2l0.4,5.1c0.1,1.4,0.9,2.1,2.1,2c1.2-0.1,2-1,1.8-2.4
		l-0.4-5l2.1-0.2l0.7,8.9l-2.1,0.2L58.5,61C58,61.9,57.2,62.7,55.8,62.8z"/>
	<path class="st1" d="M63.4,64.7L62.5,53l2.1-0.2l0.1,1.5c0.6-1,1.5-1.8,2.9-1.9c2.1-0.2,4.3,1.3,4.5,4.3l0,0c0.2,3-1.7,4.8-3.8,5
		c-1.5,0.1-2.5-0.5-3.2-1.3l0.3,4.1L63.4,64.7z M67.7,60c1.4-0.1,2.5-1.3,2.3-3.1l0,0c-0.1-1.7-1.4-2.8-2.8-2.7
		c-1.4,0.1-2.5,1.4-2.4,3.1l0,0C65,59.1,66.3,60.1,67.7,60z"/>
	<path class="st1" d="M78.7,60.9c-2.6,0.2-4.7-1.5-5-4.3l0,0c-0.2-2.6,1.4-4.8,4-5c2.8-0.2,4.5,1.9,4.7,4.5c0,0.2,0,0.4,0,0.6
		l-6.6,0.5c0.3,1.4,1.4,2.2,2.8,2.1c1-0.1,1.7-0.5,2.3-1.3l1.3,1C81.5,60,80.3,60.8,78.7,60.9z M75.7,55.8l4.6-0.4
		c-0.2-1.3-1.1-2.3-2.5-2.2C76.6,53.4,75.8,54.4,75.7,55.8z"/>
	<path class="st1" d="M84.8,60.2l-0.7-8.9l2.1-0.2l0.2,2c0.5-1.4,1.4-2.4,3-2.4l0.2,2.2l-0.1,0c-1.8,0.1-3,1.4-2.8,3.8l0.3,3.4
		L84.8,60.2z"/>
	<path class="st1" d="M100,59.2c-1.3,0.1-2.7-0.2-3.9-1l0.8-1.5c1,0.6,2.1,0.9,3,0.9c0.9-0.1,1.4-0.5,1.3-1.1l0,0
		c-0.1-0.7-1-0.9-2.1-1.1c-1.4-0.3-2.9-0.7-3-2.4l0,0c-0.1-1.7,1.2-2.9,3-3c1.1-0.1,2.4,0.2,3.4,0.7l-0.7,1.5
		c-0.9-0.5-1.8-0.7-2.6-0.6c-0.8,0.1-1.2,0.5-1.2,1l0,0c0.1,0.7,1,0.9,2.1,1.1c1.3,0.3,2.9,0.8,3,2.4l0,0
		C103.2,58,101.8,59,100,59.2z"/>
	<path class="st1" d="M105.4,58.6l-0.7-8.9l2.1-0.2l0.1,1.4c0.5-0.9,1.3-1.7,2.7-1.8c2-0.2,3.3,1.1,3.5,3.2l0.5,5.7l-2.1,0.2
		l-0.4-5.1c-0.1-1.4-0.9-2.1-2.1-2c-1.2,0.1-1.9,1-1.8,2.4l0.4,5L105.4,58.6z"/>
	<path class="st1" d="M120.2,57.6c-2.7,0.2-4.9-1.7-5.1-4.2l0,0c-0.2-2.6,1.7-4.8,4.4-5.1c2.7-0.2,4.9,1.7,5.1,4.3l0,0
		C124.8,55,122.9,57.3,120.2,57.6z M120,55.8c1.7-0.1,2.6-1.5,2.5-3.1l0,0c-0.1-1.6-1.4-2.8-3-2.7c-1.6,0.1-2.6,1.5-2.5,3.1l0,0
		C117.2,54.7,118.5,55.9,120,55.8z"/>
	<path class="st1" d="M131.3,56.6c-2.7,0.2-4.9-1.7-5.1-4.2l0,0c-0.2-2.6,1.7-4.8,4.4-5.1c2.7-0.2,4.9,1.7,5.1,4.3l0,0
		C135.9,54.1,134.1,56.4,131.3,56.6z M131.2,54.9c1.7-0.1,2.6-1.5,2.5-3.1l0,0c-0.1-1.6-1.4-2.8-3-2.7c-1.6,0.1-2.6,1.5-2.5,3.1l0,0
		C128.3,53.8,129.6,55,131.2,54.9z"/>
	<path class="st1" d="M137.4,55.9l-0.1-1.4l4.7-6.3l-5,0.4l-0.1-1.7l7.6-0.6l0.1,1.4l-4.7,6.3l5.2-0.4l0.1,1.7L137.4,55.9z"/>
	<path class="st1" d="M151.2,55c-2.6,0.2-4.7-1.5-5-4.3l0,0c-0.2-2.6,1.4-4.8,4-5c2.8-0.2,4.5,1.9,4.7,4.5c0,0.2,0,0.4,0,0.6
		l-6.6,0.5c0.3,1.4,1.4,2.2,2.8,2.1c1-0.1,1.7-0.5,2.3-1.3l1.3,1C153.9,54.1,152.8,54.9,151.2,55z M148.2,49.9l4.6-0.4
		c-0.2-1.3-1.1-2.3-2.5-2.2C149.1,47.5,148.3,48.5,148.2,49.9z"/>
	<path class="st1" d="M158.2,47.7l0.1-2.1l-1.6,1.4l-0.7-1l1.9-1l-2-0.7l0.5-1.1l1.8,1.1l-0.4-2l1.2-0.1l-0.1,2.1l1.6-1.4l0.7,1
		l-1.9,1l2,0.7l-0.5,1.1l-1.8-1.1l0.4,2L158.2,47.7z"/>
</g>
</svg>
