<?xml version="1.0" encoding="utf-8"?>
<!-- Generator: Adobe Illustrator 27.6.1, SVG Export Plug-In . SVG Version: 6.00 Build 0)  -->
<svg version="1.1" id="Layer_1" xmlns="http://www.w3.org/2000/svg" xmlns:xlink="http://www.w3.org/1999/xlink" x="0px" y="0px"
	 viewBox="0 0 173 109" style="enable-background:new 0 0 173 109;" xml:space="preserve">
<style type="text/css">
	.st0{fill:#FFCD05;}
	.st1{fill:#555555;}
</style>
<g>
	<path class="st0" d="M26.1,14.3L134.5,0.3C151-1.9,166,9.7,168.1,26.1l4.4,33.9c2.1,16.4-9.5,31.5-25.9,33.6L38.3,107.8
		c-16.4,2.1-31.5-9.5-33.6-25.9L0.3,47.9C-1.9,31.5,9.7,16.4,26.1,14.3z"/>
	<path class="st1" d="M21.3,47.7l-1.5-11.8l4.7-0.6c2.8-0.4,4.7,1,5,3.4l0,0c0.3,2.6-1.6,4.3-4.2,4.6l-2.3,0.3l0.5,3.8L21.3,47.7z
		 M22.7,41.8l2.4-0.3c1.6-0.2,2.4-1.2,2.3-2.4l0,0c-0.2-1.4-1.3-2-2.8-1.8l-2.4,0.3L22.7,41.8z"/>
	<path class="st1" d="M34.8,46.2c-1.7,0.2-3.3-0.6-3.5-2.3l0,0c-0.2-1.9,1.2-3.1,3.3-3.3c1-0.1,1.7-0.1,2.4,0.1l0-0.2
		c-0.2-1.3-1-1.8-2.5-1.7c-1,0.1-1.7,0.4-2.5,0.9L31.3,38c0.9-0.6,1.9-1,3.3-1.2c1.3-0.2,2.4,0.1,3.1,0.6c0.7,0.6,1.2,1.5,1.3,2.6
		l0.7,5.3l-2,0.3l-0.1-1.1C37,45.3,36.1,46,34.8,46.2z M35.2,44.6c1.3-0.2,2.3-1.1,2.1-2.2l-0.1-0.6c-0.5-0.1-1.3-0.2-2.1-0.1
		c-1.3,0.2-2,0.8-1.9,1.8l0,0C33.4,44.4,34.2,44.8,35.2,44.6z"/>
	<path class="st1" d="M45.2,44.9c-1.3,0.2-2.7-0.1-3.9-0.8l0.7-1.5c1.1,0.6,2.1,0.8,3.1,0.7c0.9-0.1,1.3-0.5,1.3-1.1l0,0
		c-0.1-0.7-1.1-0.8-2.1-1c-1.4-0.2-2.9-0.6-3.1-2.2l0,0c-0.2-1.7,1-2.9,2.8-3.1c1.1-0.1,2.4,0.1,3.4,0.6l-0.6,1.6
		c-0.9-0.4-1.9-0.6-2.6-0.5c-0.8,0.1-1.2,0.5-1.1,1l0,0c0.1,0.7,1.1,0.8,2.2,1c1.4,0.2,2.9,0.6,3.1,2.2l0,0
		C48.3,43.5,47,44.6,45.2,44.9z"/>
	<path class="st1" d="M53.4,43.8c-1.3,0.2-2.7-0.1-3.9-0.8l0.7-1.5c1.1,0.6,2.1,0.8,3.1,0.7c0.9-0.1,1.3-0.5,1.3-1.1l0,0
		c-0.1-0.7-1.1-0.8-2.1-1c-1.4-0.2-2.9-0.6-3.1-2.2l0,0c-0.2-1.7,1-2.9,2.8-3.1c1.1-0.1,2.4,0.1,3.4,0.6l-0.6,1.6
		c-0.9-0.4-1.9-0.6-2.6-0.5c-0.8,0.1-1.2,0.5-1.1,1l0,0c0.1,0.7,1.1,0.8,2.2,1c1.4,0.2,2.9,0.6,3.1,2.2l0,0
		C56.6,42.4,55.3,43.6,53.4,43.8z"/>
	<path class="st1" d="M57.5,32.7l-0.2-1.9l2.2-0.3l0.2,1.9L57.5,32.7z M58.9,42.9L57.8,34l2.1-0.3l1.1,8.9L58.9,42.9z"/>
	<path class="st1" d="M63.6,42.3l-1.1-8.9l2.1-0.3l0.2,1.4c0.5-0.9,1.2-1.7,2.6-1.9c2-0.3,3.3,0.9,3.6,3l0.7,5.7l-2,0.3l-0.6-5.1
		c-0.2-1.4-1-2.1-2.2-1.9c-1.2,0.2-1.9,1.1-1.7,2.5l0.6,5L63.6,42.3z"/>
	<path class="st1" d="M78.4,43.2c-1.5,0.2-2.9,0-4.1-0.6l0.6-1.6c1,0.5,2.1,0.7,3.3,0.5c1.8-0.2,2.7-1.3,2.5-3.1l-0.1-0.7
		c-0.6,1-1.5,1.8-2.9,2c-2.1,0.3-4.2-1-4.6-3.6l0,0c-0.3-2.6,1.4-4.4,3.5-4.7c1.5-0.2,2.5,0.4,3.3,1.1l-0.2-1.3l2-0.3l0.9,7.1
		c0.2,1.5-0.1,2.7-0.7,3.5C81.2,42.5,80,43,78.4,43.2z M77.9,38c1.4-0.2,2.5-1.3,2.3-2.8l0,0c-0.2-1.5-1.5-2.3-2.9-2.1
		c-1.4,0.2-2.4,1.3-2.2,2.8l0,0C75.3,37.3,76.5,38.2,77.9,38z"/>
	<path class="st1" d="M93.1,38.7c-1.7,0.2-3.3-0.6-3.5-2.3l0,0c-0.2-1.9,1.2-3.1,3.3-3.3c1-0.1,1.7-0.1,2.4,0.1l0-0.2
		c-0.2-1.3-1-1.8-2.5-1.7c-1,0.1-1.7,0.4-2.5,0.9l-0.8-1.5c0.9-0.6,1.9-1,3.3-1.2c1.3-0.2,2.4,0.1,3.1,0.6c0.7,0.6,1.2,1.5,1.3,2.6
		l0.7,5.3l-2,0.3l-0.1-1.1C95.3,37.9,94.4,38.6,93.1,38.7z M93.4,37.2c1.3-0.2,2.3-1.1,2.1-2.2l-0.1-0.6c-0.5-0.1-1.3-0.2-2.1-0.1
		c-1.3,0.2-2,0.8-1.9,1.8l0,0C91.6,36.9,92.5,37.3,93.4,37.2z"/>
	<path class="st1" d="M100.3,37.6l-1.1-8.9l2.1-0.3l0.3,2c0.4-1.4,1.3-2.4,2.9-2.6l0.3,2.2l-0.1,0c-1.8,0.2-2.9,1.6-2.6,3.9l0.4,3.4
		L100.3,37.6z"/>
	<path class="st1" d="M111.3,36.4c-2.7,0.3-5-1.5-5.3-4l0,0c-0.3-2.5,1.4-4.9,4.2-5.3c2.7-0.3,5,1.5,5.3,4l0,0
		C115.8,33.7,114,36.1,111.3,36.4z M111.1,34.6c1.7-0.2,2.5-1.6,2.3-3.2l0,0c-0.2-1.6-1.5-2.7-3.1-2.5c-1.6,0.2-2.5,1.6-2.3,3.2l0,0
		C108.2,33.7,109.5,34.8,111.1,34.6z"/>
	<path class="st1" d="M121.2,35.1c-2,0.3-3.3-0.9-3.6-3l-0.7-5.7l2-0.3l0.6,5.1c0.2,1.4,1,2.1,2.2,1.9c1.2-0.2,1.9-1.1,1.7-2.4
		l-0.6-5l2.1-0.3l1.1,8.9l-2.1,0.3l-0.2-1.4C123.3,34.1,122.6,35,121.2,35.1z"/>
	<path class="st1" d="M128.6,34l-1.1-8.9l2.1-0.3l0.2,1.4c0.5-0.9,1.2-1.7,2.6-1.9c2-0.3,3.3,0.9,3.6,3l0.7,5.7l-2,0.3l-0.6-5.1
		c-0.2-1.4-1-2.1-2.2-1.9c-1.2,0.2-1.9,1.1-1.7,2.5l0.6,5L128.6,34z"/>
	<path class="st1" d="M142.7,32.4c-2.1,0.3-4.3-1.1-4.7-4.1l0,0c-0.4-3,1.4-4.9,3.5-5.1c1.5-0.2,2.5,0.4,3.2,1.2l-0.6-4.8l2-0.3
		l1.6,12.3l-2,0.3l-0.2-1.5C145,31.3,144.2,32.2,142.7,32.4z M143,30.5c1.4-0.2,2.4-1.5,2.2-3.2l0,0c-0.2-1.7-1.6-2.7-2.9-2.5
		c-1.4,0.2-2.4,1.4-2.2,3.2l0,0C140.3,29.7,141.6,30.7,143,30.5z"/>
	<path class="st1" d="M44.9,64.9L43.7,56l2.1-0.3l0.2,1.3c0.5-0.9,1.2-1.7,2.5-1.9c1.3-0.2,2.3,0.3,2.9,1.2c0.6-1,1.5-1.8,2.8-2
		c1.9-0.2,3.3,0.8,3.6,3l0.7,5.7l-2,0.3l-0.6-5.1c-0.2-1.4-0.9-2.1-2.1-1.9c-1.1,0.1-1.8,1-1.6,2.5l0.6,5l-2,0.3L50,59.1
		c-0.2-1.4-1-2.1-2.1-1.9c-1.1,0.1-1.8,1.1-1.6,2.5l0.6,5L44.9,64.9z"/>
	<path class="st1" d="M65.2,62.5c-2.7,0.3-5-1.5-5.3-4l0,0c-0.3-2.5,1.4-4.9,4.2-5.3c2.7-0.3,5,1.5,5.3,4l0,0
		C69.7,59.8,67.9,62.1,65.2,62.5z M65,60.7c1.7-0.2,2.5-1.6,2.3-3.2l0,0c-0.2-1.6-1.5-2.7-3.1-2.5c-1.6,0.2-2.5,1.6-2.3,3.2l0,0
		C62.1,59.8,63.4,60.9,65,60.7z"/>
	<path class="st1" d="M72,61.4l-1.1-8.9l2.1-0.3l0.3,2c0.4-1.4,1.3-2.4,2.9-2.6l0.3,2.2l-0.1,0c-1.8,0.2-2.9,1.6-2.6,3.9l0.4,3.4
		L72,61.4z"/>
	<path class="st1" d="M82.8,60.2c-2.6,0.3-4.8-1.3-5.2-4l0,0c-0.3-2.5,1.2-4.9,3.8-5.2c2.8-0.4,4.6,1.7,4.9,4.2c0,0.2,0,0.4,0,0.6
		l-6.5,0.8c0.4,1.4,1.5,2.1,2.9,1.9c1-0.1,1.7-0.6,2.3-1.4l1.3,0.9C85.5,59.2,84.4,60,82.8,60.2z M79.5,55.3l4.6-0.6
		c-0.3-1.3-1.2-2.2-2.6-2.1C80.3,52.8,79.5,53.9,79.5,55.3z"/>
	<path class="st1" d="M96.9,58.4c-1.5,0.2-2.6-0.3-2.9-2.3l-0.6-4.7l-1.1,0.1L92,49.8l1.1-0.1l-0.3-2.4l2-0.3l0.3,2.4l2.4-0.3
		l0.2,1.8l-2.4,0.3l0.6,4.4c0.1,0.8,0.5,1.1,1.2,1c0.5-0.1,0.8-0.2,1.2-0.5l0.2,1.7C98.2,58,97.7,58.3,96.9,58.4z"/>
	<path class="st1" d="M100.8,57.7l-1.6-12.3l2.1-0.3l0.6,4.8c0.5-0.9,1.2-1.7,2.6-1.9c2-0.3,3.3,0.9,3.6,3l0.7,5.7l-2,0.3l-0.6-5.1
		c-0.2-1.4-1-2.1-2.2-1.9c-1.2,0.2-1.9,1.1-1.7,2.5l0.6,5L100.8,57.7z"/>
	<path class="st1" d="M113.9,56.2c-1.7,0.2-3.3-0.6-3.5-2.3l0,0c-0.2-1.9,1.1-3.1,3.3-3.3c1-0.1,1.7-0.1,2.4,0.1l0-0.2
		c-0.2-1.3-1-1.8-2.5-1.7c-1,0.1-1.7,0.4-2.5,0.9l-0.8-1.5c0.9-0.6,1.9-1,3.3-1.2c1.3-0.2,2.4,0.1,3.1,0.6c0.7,0.6,1.2,1.5,1.3,2.6
		l0.7,5.3l-2,0.3l-0.1-1.1C116.1,55.4,115.2,56.1,113.9,56.2z M114.2,54.7c1.3-0.2,2.3-1.1,2.1-2.2l-0.1-0.6
		c-0.5-0.1-1.3-0.2-2.1-0.1c-1.3,0.2-2,0.8-1.9,1.8l0,0C112.4,54.4,113.3,54.8,114.2,54.7z"/>
	<path class="st1" d="M121.2,55.1l-1.1-8.9l2.1-0.3l0.2,1.4c0.5-0.9,1.2-1.7,2.6-1.9c2-0.3,3.3,0.9,3.6,3l0.7,5.7l-2,0.3l-0.6-5.1
		c-0.2-1.4-1-2.1-2.2-1.9c-1.2,0.2-1.9,1.1-1.7,2.5l0.6,5L121.2,55.1z"/>
	<path class="st1" d="M51.2,84.4c-2.6,0.3-4.9-1.5-5.2-4l0,0c-0.3-2.5,1.4-4.9,4-5.2c1.7-0.2,2.8,0.3,3.8,1.1l-1.1,1.5
		c-0.7-0.6-1.4-0.9-2.4-0.8c-1.5,0.2-2.4,1.6-2.2,3.2l0,0c0.2,1.6,1.5,2.7,3,2.5c1-0.1,1.6-0.7,2.2-1.4l1.4,1.1
		C53.9,83.4,52.9,84.2,51.2,84.4z"/>
	<path class="st1" d="M59.8,83.3c-2,0.3-3.3-0.9-3.6-3l-0.7-5.7l2-0.3l0.6,5.1c0.2,1.4,1,2.1,2.2,1.9c1.2-0.2,1.9-1.1,1.7-2.4
		l-0.6-5l2.1-0.3l1.1,8.9l-2.1,0.3l-0.2-1.4C61.9,82.3,61.2,83.2,59.8,83.3z"/>
	<path class="st1" d="M67.5,84.9L66,73.3L68,73l0.2,1.5c0.5-1,1.4-1.9,2.8-2.1c2.1-0.3,4.3,1.1,4.7,4.1l0,0c0.4,3-1.4,4.9-3.5,5.1
		c-1.5,0.2-2.5-0.4-3.2-1.2l0.5,4.1L67.5,84.9z M71.5,80c1.4-0.2,2.4-1.4,2.2-3.2l0,0c-0.2-1.7-1.5-2.7-2.9-2.5
		c-1.4,0.2-2.5,1.5-2.2,3.2l0,0C68.8,79.2,70.1,80.2,71.5,80z"/>
	<path class="st1" d="M82.6,80.4c-2.6,0.3-4.9-1.5-5.2-4l0,0c-0.3-2.5,1.4-4.9,4-5.2c1.7-0.2,2.8,0.3,3.8,1.1l-1.1,1.5
		c-0.7-0.6-1.4-0.9-2.4-0.8c-1.5,0.2-2.4,1.6-2.2,3.2l0,0c0.2,1.6,1.5,2.7,3,2.5c1-0.1,1.6-0.7,2.2-1.4l1.4,1.1
		C85.3,79.4,84.3,80.2,82.6,80.4z"/>
	<path class="st1" d="M90.7,79.4c-1.7,0.2-3.3-0.6-3.5-2.3l0,0c-0.2-1.9,1.2-3.1,3.3-3.3c1-0.1,1.7-0.1,2.4,0.1l0-0.2
		c-0.2-1.3-1-1.8-2.5-1.7c-1,0.1-1.7,0.4-2.5,0.9l-0.8-1.5c0.9-0.6,1.9-1,3.3-1.2c1.3-0.2,2.4,0.1,3.1,0.6c0.7,0.6,1.2,1.5,1.3,2.6
		l0.7,5.3l-2,0.3l-0.1-1.1C92.9,78.5,92,79.2,90.7,79.4z M91.1,77.8c1.3-0.2,2.3-1.1,2.1-2.2L93.1,75c-0.5-0.1-1.3-0.2-2.1-0.1
		c-1.3,0.2-2,0.8-1.9,1.8l0,0C89.3,77.5,90.1,77.9,91.1,77.8z"/>
	<path class="st1" d="M98,78.3l-1.6-12.3l2.1-0.3l0.9,7.4l3.2-4.4l2.5-0.3l-3.1,4.1l4.3,4.8l-2.4,0.3l-3.1-3.5l-1.1,1.5L100,78
		L98,78.3z"/>
	<path class="st1" d="M111.5,76.7c-2.6,0.3-4.8-1.3-5.2-4l0,0c-0.3-2.5,1.2-4.9,3.8-5.2c2.8-0.4,4.6,1.7,4.9,4.2c0,0.2,0,0.4,0,0.6
		l-6.5,0.8c0.4,1.4,1.5,2.1,2.9,1.9c1-0.1,1.7-0.6,2.3-1.4l1.3,0.9C114.2,75.7,113.1,76.5,111.5,76.7z M108.3,71.8l4.6-0.6
		c-0.3-1.3-1.2-2.2-2.6-2.1C109,69.3,108.3,70.4,108.3,71.8z"/>
	<path class="st1" d="M120.6,75.5c-1.3,0.2-2.7-0.1-3.9-0.8l0.7-1.5c1.1,0.6,2.1,0.8,3.1,0.7c0.9-0.1,1.3-0.5,1.3-1.1l0,0
		c-0.1-0.7-1.1-0.8-2.2-1c-1.4-0.2-2.9-0.6-3.1-2.2l0,0c-0.2-1.7,1.1-2.9,2.8-3.1c1.1-0.1,2.4,0.1,3.4,0.6l-0.6,1.6
		c-0.9-0.4-1.9-0.6-2.6-0.5c-0.8,0.1-1.2,0.5-1.1,1l0,0c0.1,0.7,1.1,0.8,2.2,1c1.4,0.2,2.9,0.6,3.1,2.2l0,0
		C123.8,74.2,122.5,75.3,120.6,75.5z"/>
	<path class="st1" d="M127.1,70.7l-0.7-2.7l0.1-0.1c2.1-0.3,3-1.2,2.9-2.3l0,0c-0.1-0.9-0.9-1.5-2.1-1.4c-1.1,0.1-1.9,0.7-2.6,1.7
		l-1.4-1.2c0.8-1.2,2-2.2,3.8-2.4c2.4-0.3,4.1,0.8,4.4,2.9l0,0c0.3,2.1-1.1,3.3-3,3.8l0,1.4L127.1,70.7z M127.1,74.5l-0.3-2.3
		l2.3-0.3l0.3,2.3L127.1,74.5z"/>
</g>
</svg>
