<?xml version="1.0" encoding="utf-8"?>
<!-- Generator: Adobe Illustrator 27.6.1, SVG Export Plug-In . SVG Version: 6.00 Build 0)  -->
<svg version="1.1" id="Layer_1" xmlns="http://www.w3.org/2000/svg" xmlns:xlink="http://www.w3.org/1999/xlink" x="0px" y="0px"
	 viewBox="0 0 147 147" style="enable-background:new 0 0 147 147;" xml:space="preserve">
<style type="text/css">
	.st0{fill:#FFCC00;}
	.st1{fill:#555555;}
</style>
<path class="st0" d="M82.8,0.6L82.8,0.6c40.2,5.2,68.5,42,63.2,82.2l0,0c-5.2,40.2-42,68.5-82.2,63.2l0,0
	c-40.2-5.2-68.5-42-63.2-82.2l0,0C5.9,23.7,42.7-4.6,82.8,0.6z"/>
<path class="st1" d="M30.9,53.9l1.5-11.8l2.2,0.3l2.9,6l4.3-5.1l2.2,0.3l-1.5,11.8l-2.1-0.3l1.1-8.5l-4.5,5.1l-0.1,0l-3-6L33,54.2
	L30.9,53.9z M47.9,56.3c-1.7-0.2-3-1.4-2.8-3.2l0,0c0.3-1.9,1.9-2.7,4.1-2.4c1,0.1,1.7,0.4,2.3,0.7l0-0.2c0.2-1.3-0.5-2-2-2.2
	c-1-0.1-1.8,0-2.6,0.2l-0.3-1.7c1.1-0.3,2-0.5,3.5-0.3c1.3,0.2,2.3,0.7,2.8,1.4c0.6,0.7,0.8,1.7,0.6,2.9l-0.7,5.3l-2-0.3l0.1-1.1
	C50.3,56.1,49.3,56.5,47.9,56.3z M48.7,54.9c1.3,0.2,2.5-0.5,2.6-1.6l0.1-0.6c-0.5-0.3-1.2-0.5-2-0.6c-1.3-0.2-2.2,0.3-2.3,1.2l0,0
	C47,54.2,47.7,54.8,48.7,54.9z M58.8,60.4c-1.5-0.2-2.8-0.7-3.8-1.6l1-1.4c0.9,0.7,1.8,1.2,3,1.3c1.8,0.2,2.9-0.6,3.2-2.3l0.1-0.7
	c-0.9,0.8-1.9,1.4-3.3,1.2c-2.1-0.3-3.8-2.1-3.5-4.7l0,0c0.3-2.6,2.5-3.9,4.6-3.7c1.5,0.2,2.3,1,2.9,1.9l0.2-1.3l2,0.3l-0.9,7.1
	c-0.2,1.5-0.7,2.6-1.6,3.2C61.7,60.3,60.4,60.6,58.8,60.4z M59.7,55.2c1.4,0.2,2.7-0.7,2.9-2.1l0,0c0.2-1.4-0.9-2.6-2.3-2.8
	s-2.7,0.6-2.8,2.1l0,0C57.3,53.9,58.3,55,59.7,55.2z M66.5,58.6l1.2-8.9l2.1,0.3l-0.2,1.4c0.7-0.8,1.6-1.4,3-1.2
	c2,0.3,3,1.8,2.7,3.8l-0.7,5.7l-2-0.3l0.7-5.1c0.2-1.4-0.4-2.3-1.6-2.4c-1.2-0.2-2.1,0.6-2.3,1.9l-0.7,5L66.5,58.6z M81.1,60.7
	c-2.6-0.3-4.3-2.5-4-5.2l0,0c0.3-2.5,2.4-4.4,5-4.1c2.8,0.4,4,2.8,3.6,5.3c0,0.2-0.1,0.4-0.1,0.6L79,56.4c0,1.5,1,2.4,2.3,2.6
	c1,0.1,1.8-0.1,2.5-0.7l1.1,1.2C83.9,60.4,82.7,60.9,81.1,60.7z M79.2,55.1l4.6,0.6c0-1.3-0.6-2.5-2-2.6
	C80.6,52.9,79.6,53.7,79.2,55.1z M90.2,61.8c-1.3-0.2-2.6-0.8-3.6-1.8l1.1-1.3c0.9,0.9,1.9,1.4,2.8,1.5c0.9,0.1,1.4-0.2,1.5-0.8l0,0
	c0.1-0.7-0.8-1.1-1.8-1.5c-1.3-0.5-2.7-1.3-2.4-3l0,0c0.2-1.7,1.8-2.5,3.5-2.3c1.1,0.1,2.3,0.7,3.1,1.4l-1,1.3
	c-0.8-0.6-1.7-1.1-2.4-1.2c-0.8-0.1-1.3,0.2-1.4,0.7l0,0c-0.1,0.7,0.8,1.1,1.8,1.5c1.2,0.6,2.6,1.4,2.4,3l0,0
	C93.6,61.3,92.1,62.1,90.2,61.8z M97,52.1l0.3-1.9l2.2,0.3l-0.3,1.9L97,52.1z M95.7,62.4l1.2-8.9l2.1,0.3l-1.2,8.9L95.7,62.4z
	 M103.5,63.6c-2-0.3-3-1.8-2.7-3.8l0.7-5.7l2,0.3l-0.7,5.1c-0.2,1.4,0.4,2.2,1.6,2.4c1.2,0.2,2.1-0.5,2.3-1.9l0.7-5l2.1,0.3
	l-1.2,8.9l-2.1-0.3l0.2-1.4C105.8,63.2,104.9,63.8,103.5,63.6z M110.9,64.4l1.2-8.9l2.1,0.3l-0.2,1.3c0.7-0.7,1.5-1.4,2.9-1.2
	c1.3,0.2,2.1,0.9,2.5,1.9c0.8-0.9,1.9-1.4,3.2-1.2c1.9,0.3,3,1.6,2.7,3.8l-0.7,5.7l-2-0.3l0.7-5.1c0.2-1.4-0.4-2.3-1.5-2.4
	c-1.1-0.1-2,0.5-2.2,2l-0.7,5l-2-0.3l0.7-5.1c0.2-1.4-0.4-2.2-1.5-2.4c-1.1-0.1-2,0.6-2.2,2l-0.7,5L110.9,64.4z M50.5,69.4l0.3-2
	c0.2-1.9,1.2-2.5,3-2.5l0.1,0.9c-1.1,0.1-1.6,0.5-1.6,1.4l0.9,0.1l-0.3,2.3L50.5,69.4z M58.2,77.9c-2.6-0.3-4.3-2.7-4-5.2l0,0
	c0.3-2.5,2.6-4.4,5.2-4c1.7,0.2,2.6,1,3.4,2l-1.5,1.2c-0.5-0.7-1.1-1.3-2.1-1.4c-1.5-0.2-2.7,0.9-2.9,2.5l0,0
	c-0.2,1.6,0.7,3,2.3,3.2c1,0.1,1.7-0.2,2.5-0.8l1.1,1.4C61,77.5,59.9,78.1,58.2,77.9z M66.2,78.9c-1.7-0.2-3-1.4-2.8-3.2l0,0
	c0.3-1.9,1.9-2.7,4.1-2.4c1,0.1,1.7,0.4,2.3,0.7l0-0.2c0.2-1.3-0.5-2-2-2.2c-1-0.1-1.8,0-2.6,0.2l-0.3-1.7c1.1-0.3,2-0.5,3.5-0.3
	c1.3,0.2,2.3,0.7,2.8,1.4c0.6,0.7,0.8,1.7,0.6,2.9l-0.7,5.3l-2-0.3l0.1-1.1C68.6,78.6,67.6,79.1,66.2,78.9z M67,77.5
	c1.3,0.2,2.5-0.5,2.6-1.6l0.1-0.6c-0.5-0.3-1.2-0.5-2-0.6c-1.3-0.2-2.2,0.3-2.3,1.2l0,0C65.3,76.8,66,77.4,67,77.5z M76.6,80.3
	c-2-0.3-3-1.8-2.7-3.8l0.7-5.7l2,0.3L76,76.1c-0.2,1.4,0.4,2.2,1.6,2.4c1.2,0.2,2.1-0.5,2.3-1.9l0.7-5l2.1,0.3l-1.2,8.9l-2.1-0.3
	l0.2-1.4C78.9,79.8,78,80.4,76.6,80.3z M87.1,81.6c-1.3-0.2-2.6-0.8-3.6-1.8l1.1-1.3c0.9,0.9,1.9,1.4,2.8,1.5
	c0.9,0.1,1.4-0.2,1.5-0.8l0,0c0.1-0.7-0.8-1.1-1.8-1.5c-1.3-0.5-2.7-1.3-2.4-3l0,0c0.2-1.7,1.8-2.5,3.5-2.3c1.1,0.1,2.3,0.7,3.1,1.4
	l-1,1.3c-0.8-0.6-1.7-1.1-2.4-1.2c-0.8-0.1-1.3,0.2-1.4,0.7l0,0c-0.1,0.7,0.8,1.1,1.8,1.5c1.2,0.6,2.6,1.4,2.4,3l0,0
	C90.5,81.1,88.9,81.8,87.1,81.6z M96.5,82.9c-2.6-0.3-4.3-2.5-4-5.2l0,0c0.3-2.5,2.4-4.4,5-4.1c2.8,0.4,4,2.8,3.6,5.3
	c0,0.2-0.1,0.4-0.1,0.6l-6.5-0.9c0,1.5,1,2.4,2.3,2.6c1,0.1,1.8-0.1,2.5-0.7l1.1,1.2C99.4,82.6,98.2,83.1,96.5,82.9z M94.7,77.3
	l4.6,0.6c0-1.3-0.6-2.5-2-2.6C96.1,75.1,95,75.9,94.7,77.3z M23.1,82.8l0.3-1.9l2.2,0.3l-0.3,1.9L23.1,82.8z M21.9,93.1l1.2-8.9
	l2.1,0.3l-1.2,8.9L21.9,93.1z M29.5,94.3c-1.5-0.2-2.5-1-2.2-2.9l0.6-4.7l-1.1-0.1l0.2-1.8l1.1,0.1l0.3-2.4l2,0.3l-0.3,2.4l2.4,0.3
	l-0.2,1.8L30,86.9l-0.6,4.4c-0.1,0.8,0.3,1.2,1,1.3c0.5,0.1,0.9,0,1.3-0.1L31.4,94C30.9,94.3,30.3,94.4,29.5,94.3z M34.1,87.6
	L34,86.6c1.1-0.1,1.6-0.5,1.7-1.4l-0.9-0.1l0.3-2.3l2.2,0.3l-0.3,2C36.8,87,35.9,87.6,34.1,87.6z M40.9,95.8
	c-1.3-0.2-2.6-0.8-3.6-1.8l1.1-1.3c0.9,0.9,1.9,1.4,2.8,1.5c0.9,0.1,1.4-0.2,1.5-0.8l0,0c0.1-0.7-0.8-1.1-1.8-1.5
	c-1.3-0.5-2.7-1.3-2.4-3l0,0c0.2-1.7,1.8-2.5,3.5-2.3c1.1,0.1,2.3,0.7,3.1,1.4l-1,1.3c-0.8-0.6-1.7-1.1-2.4-1.2
	c-0.8-0.1-1.3,0.2-1.4,0.7l0,0c-0.1,0.7,0.8,1.1,1.8,1.5c1.2,0.6,2.6,1.4,2.4,3l0,0C44.3,95.3,42.7,96,40.9,95.8z M53.9,97.5
	c-1.7-0.2-3-1.4-2.8-3.2l0,0c0.3-1.9,1.9-2.7,4.1-2.4c1,0.1,1.7,0.4,2.3,0.7l0-0.2c0.2-1.3-0.5-2-2-2.2c-1-0.1-1.8,0-2.6,0.2
	l-0.3-1.7c1.1-0.3,2-0.5,3.5-0.3c1.3,0.2,2.3,0.7,2.8,1.4c0.6,0.7,0.8,1.7,0.6,2.9l-0.7,5.3l-2-0.3l0.1-1.1
	C56.2,97.2,55.2,97.6,53.9,97.5z M54.6,96.1c1.3,0.2,2.5-0.5,2.6-1.6l0.1-0.6c-0.5-0.3-1.2-0.5-2-0.6c-1.3-0.2-2.2,0.3-2.3,1.2l0,0
	C53,95.3,53.7,95.9,54.6,96.1z M61.3,98.2l1.6-12.3l2.1,0.3l-1.6,12.3L61.3,98.2z M66.2,98.9l1.6-12.3l2.1,0.3l-1.6,12.3L66.2,98.9z
	 M71,99.5l1.6-12.3l2.1,0.3L73,99.8L71,99.5z M84.4,104c-1.5-0.2-2.8-0.7-3.8-1.6l1-1.4c0.9,0.7,1.8,1.2,3,1.3
	c1.8,0.2,2.9-0.6,3.2-2.3l0.1-0.7c-0.9,0.8-1.9,1.4-3.3,1.2c-2.1-0.3-3.8-2.1-3.5-4.7l0,0c0.3-2.6,2.5-3.9,4.6-3.7
	c1.5,0.2,2.3,1,2.9,1.9l0.2-1.3l2,0.3l-0.9,7.1c-0.2,1.5-0.7,2.6-1.6,3.2C87.3,104,86,104.2,84.4,104z M85.2,98.9
	c1.4,0.2,2.7-0.7,2.9-2.1l0,0c0.2-1.4-0.9-2.6-2.3-2.8c-1.4-0.2-2.7,0.6-2.8,2.1l0,0C82.8,97.5,83.8,98.7,85.2,98.9z M96.3,103
	c-2.7-0.4-4.4-2.7-4.1-5.2l0,0c0.3-2.5,2.6-4.4,5.4-4c2.7,0.4,4.5,2.7,4.1,5.2l0,0C101.3,101.5,99,103.4,96.3,103z M96.5,101.2
	c1.7,0.2,2.9-0.9,3.1-2.5l0,0c0.2-1.6-0.8-3-2.4-3.2c-1.6-0.2-2.8,0.9-3,2.5l0,0C94,99.6,94.9,101,96.5,101.2z M107.3,104.4
	c-2.7-0.4-4.4-2.7-4.1-5.2l0,0c0.3-2.5,2.6-4.4,5.4-4s4.5,2.7,4.1,5.2l0,0C112.4,103,110.1,104.8,107.3,104.4z M107.6,102.7
	c1.7,0.2,2.9-0.9,3.1-2.5l0,0c0.2-1.6-0.8-3-2.4-3.2c-1.6-0.2-2.8,0.9-3.1,2.5l0,0C105.1,101,106,102.5,107.6,102.7z M117.9,105.8
	c-2.1-0.3-3.9-2.2-3.5-5.2l0,0c0.4-2.9,2.6-4.4,4.7-4.1c1.5,0.2,2.3,1,2.8,2l0.6-4.8l2,0.3l-1.6,12.3l-2-0.3l0.2-1.5
	C120.3,105.4,119.3,106,117.9,105.8z M118.6,104.1c1.4,0.2,2.7-0.8,3-2.5l0,0c0.2-1.7-0.8-3-2.2-3.2c-1.4-0.2-2.7,0.8-2.9,2.5l0,0
	C116.2,102.6,117.2,103.9,118.6,104.1L118.6,104.1z"/>
</svg>
