<svg width="2" height="40" viewBox="0 0 2 40" fill="none" xmlns="http://www.w3.org/2000/svg">
<path fill-rule="evenodd" clip-rule="evenodd" d="M0.75 8.94366e-09C1.16421 4.00421e-09 1.5 0.335786 1.5 0.75L1.5 0.802168C1.5 1.21638 1.16421 1.55217 0.75 1.55217C0.335786 1.55217 1.45052e-08 1.21638 9.56576e-09 0.802168L8.94366e-09 0.75C4.00421e-09 0.335786 0.335786 1.38831e-08 0.75 8.94366e-09ZM0.75 4.22561C1.16421 4.22561 1.5 4.5614 1.5 4.97561L1.5 5.07995C1.5 5.49416 1.16421 5.82995 0.75 5.82995C0.335787 5.82995 6.55172e-08 5.49416 6.05778e-08 5.07995L5.93336e-08 4.97561C5.43941e-08 4.5614 0.335786 4.22561 0.75 4.22561ZM0.75 8.50339C1.16421 8.50339 1.5 8.83917 1.5 9.25339L1.5 9.35772C1.5 9.77194 1.16421 10.1077 0.75 10.1077C0.335787 10.1077 1.16529e-07 9.77194 1.1159e-07 9.35772L1.10346e-07 9.25339C1.05406e-07 8.83917 0.335787 8.50339 0.75 8.50339ZM0.75 12.7812C1.16421 12.7812 1.5 13.117 1.5 13.5312L1.5 13.6355C1.5 14.0497 1.16421 14.3855 0.75 14.3855C0.335787 14.3855 1.67541e-07 14.0497 1.62602e-07 13.6355L1.61358e-07 13.5312C1.56418e-07 13.117 0.335787 12.7812 0.75 12.7812ZM0.75 17.0589C1.16421 17.0589 1.5 17.3947 1.5 17.8089L1.5 17.9133C1.5 18.3275 1.16421 18.6633 0.75 18.6633C0.335787 18.6633 2.18553e-07 18.3275 2.13614e-07 17.9133L2.1237e-07 17.8089C2.0743e-07 17.3947 0.335787 17.0589 0.75 17.0589ZM0.75 21.3367C1.16421 21.3367 1.5 21.6725 1.5 22.0867L1.5 22.1911C1.5 22.6053 1.16421 22.9411 0.75 22.9411C0.335787 22.9411 2.69565e-07 22.6053 2.64626e-07 22.1911L2.63381e-07 22.0867C2.58442e-07 21.6725 0.335787 21.3367 0.75 21.3367ZM0.75 25.6145C1.16421 25.6145 1.5 25.9503 1.5 26.3645L1.5 26.4688C1.5 26.883 1.16421 27.2188 0.75 27.2188C0.335787 27.2188 3.20577e-07 26.883 3.15638e-07 26.4688L3.14393e-07 26.3645C3.09454e-07 25.9503 0.335787 25.6145 0.75 25.6145ZM0.75 29.8923C1.16421 29.8923 1.5 30.2281 1.5 30.6423L1.5 30.7466C1.5 31.1608 1.16421 31.4966 0.75 31.4966C0.335787 31.4966 3.71589e-07 31.1608 3.6665e-07 30.7466L3.65406e-07 30.6423C3.60466e-07 30.2281 0.335787 29.8923 0.75 29.8923ZM0.75 34.1701C1.16421 34.1701 1.5 34.5058 1.5 34.9201L1.5 35.0244C1.5 35.4386 1.16421 35.7744 0.75 35.7744C0.335787 35.7744 4.22601e-07 35.4386 4.17662e-07 35.0244L4.16417e-07 34.9201C4.11478e-07 34.5058 0.335787 34.1701 0.75 34.1701ZM0.75 38.4478C1.16421 38.4478 1.5 38.7836 1.5 39.1978L1.5 39.25C1.5 39.6642 1.16421 40 0.75 40C0.335787 40 4.72991e-07 39.6642 4.68052e-07 39.25L4.67429e-07 39.1978C4.6249e-07 38.7836 0.335787 38.4478 0.75 38.4478Z" fill="#4F3527"/>
</svg>
