<svg xmlns="http://www.w3.org/2000/svg" fill="none" viewBox="0 0 21 25" height="25" width="21">
<path fill="#8563E0" d="M16.1616 8.87886C18.6134 8.87886 20.601 6.89126 20.601 4.43943C20.601 1.9876 18.6134 0 16.1616 0C13.7098 0 11.7222 1.9876 11.7222 4.43943C11.7222 6.89126 13.7098 8.87886 16.1616 8.87886Z"></path>
<path fill="#61DEFF" d="M9.53158 16.7897L12.6431 13.6782L15.1401 16.1752L16.6569 14.6584C16.6179 14.5565 16.5789 14.4546 16.5339 14.3557C16.429 14.1219 16.3061 13.894 16.1622 13.6782C15.9884 13.4144 15.7846 13.1656 15.5537 12.9348L11.537 8.91805L8.18566 5.56674C6.31217 3.69325 3.27861 3.69325 1.40512 5.56674C-0.468373 7.44023 -0.468373 10.4738 1.40512 12.3473L4.75642 15.6986L8.77319 19.7154C9.00401 19.9462 9.25281 20.15 9.51659 20.3239C9.73542 20.4678 9.96024 20.5907 10.194 20.6956C10.293 20.7405 10.3949 20.7825 10.4968 20.8185L12.0286 19.2867L9.53158 16.7897Z"></path>
<path fill="#F2411E" d="M20.7464 16.7892L17.635 13.6777L16.6577 14.6549C17.2872 16.3576 16.9215 18.345 15.5546 19.7119C14.1877 21.0788 12.2003 21.4445 10.4977 20.815L9.53247 21.7802L12.644 24.8917L15.141 22.3947L17.6379 24.8917L20.7494 21.7802L18.2525 19.2832L20.7494 16.7862L20.7464 16.7892Z"></path>
<path fill="#8563E0" d="M15.5546 19.7149C16.9215 18.348 17.2872 16.3606 16.6577 14.6579L15.141 16.1747L12.644 13.6777L9.53247 16.7892L12.0295 19.2862L10.4977 20.818C12.2003 21.4475 14.1877 21.0818 15.5546 19.7149Z"></path>
</svg>
