<?xml version="1.0" encoding="utf-8"?>
<!-- Generator: Adobe Illustrator 24.2.3, SVG Export Plug-In . SVG Version: 6.00 Build 0)  -->
<svg version="1.1" xmlns="http://www.w3.org/2000/svg" xmlns:xlink="http://www.w3.org/1999/xlink" x="0px" y="0px"
	 viewBox="0 0 768 768" style="enable-background:new 0 0 768 768;" xml:space="preserve">
<style type="text/css">
	.st0{fill:#FFFFFF;}
	.st1{fill:#00C6B3;}
	.st2{fill:#BB2D9A;}
</style>
<g id="CTA_1_">
	<g id="Rectangle_2_copy">
		<g>
			<path class="st0" d="M511.2,675.2H254.7c-11.7,0-21.2,9.5-21.2,21.2c0,11.7,9.5,21.2,21.2,21.2h256.5c11.7,0,21.2-9.5,21.2-21.2
				C532.5,684.7,523,675.2,511.2,675.2z"/>
		</g>
	</g>
	<g id="SHOP_THE_COLLECTION">
		<g>
			<path class="st1" d="M260.8,700.9l1.6-2c1.1,0.9,2.3,1.5,3.8,1.5c1.1,0,1.8-0.5,1.8-1.2v0c0-0.7-0.4-1.1-2.5-1.6
				c-2.5-0.6-4.2-1.4-4.2-3.9v0c0-2.3,1.8-3.8,4.4-3.8c1.8,0,3.4,0.6,4.7,1.6l-1.4,2.1c-1.1-0.8-2.2-1.2-3.3-1.2
				c-1.1,0-1.6,0.5-1.6,1.1v0c0,0.8,0.5,1.1,2.7,1.7c2.6,0.7,4,1.6,4,3.8v0c0,2.5-1.9,3.9-4.6,3.9
				C264.2,702.9,262.3,702.2,260.8,700.9z"/>
			<path class="st1" d="M274.5,690.1h2.8v5h5.1v-5h2.8v12.6h-2.8v-5.1h-5.1v5.1h-2.8V690.1z"/>
			<path class="st1" d="M289,696.4L289,696.4c0-3.6,2.8-6.6,6.7-6.6s6.7,2.9,6.7,6.5v0c0,3.6-2.8,6.5-6.7,6.5S289,700,289,696.4z
				 M299.5,696.4L299.5,696.4c0-2.2-1.6-4-3.8-4s-3.8,1.8-3.8,3.9v0c0,2.2,1.6,4,3.8,4C297.9,700.3,299.5,698.6,299.5,696.4z"/>
			<path class="st1" d="M306.2,690.1h5.1c3,0,4.8,1.8,4.8,4.4v0c0,2.9-2.3,4.4-5.1,4.4h-2.1v3.8h-2.8V690.1z M311.1,696.4
				c1.4,0,2.2-0.8,2.2-1.9v0c0-1.2-0.9-1.9-2.3-1.9h-2.1v3.9H311.1z"/>
			<path class="st1" d="M329.2,692.6h-3.8v-2.6h10.4v2.6H332v10h-2.8V692.6z"/>
			<path class="st1" d="M339.3,690.1h2.8v5h5.1v-5h2.8v12.6h-2.8v-5.1h-5.1v5.1h-2.8V690.1z"/>
			<path class="st1" d="M354.3,690.1h9.5v2.5h-6.8v2.6h5.9v2.5h-5.9v2.6h6.8v2.5h-9.6V690.1z"/>
			<path class="st1" d="M373.9,696.4L373.9,696.4c0-3.6,2.7-6.6,6.6-6.6c2.4,0,3.8,0.8,5,1.9l-1.8,2c-1-0.9-2-1.4-3.2-1.4
				c-2.1,0-3.7,1.8-3.7,3.9v0c0,2.2,1.5,4,3.7,4c1.4,0,2.3-0.6,3.3-1.5l1.8,1.8c-1.3,1.4-2.7,2.2-5.2,2.2
				C376.7,702.9,373.9,700,373.9,696.4z"/>
			<path class="st1" d="M388.2,696.4L388.2,696.4c0-3.6,2.8-6.6,6.7-6.6c3.9,0,6.7,2.9,6.7,6.5v0c0,3.6-2.8,6.5-6.7,6.5
				C391,702.9,388.2,700,388.2,696.4z M398.7,696.4L398.7,696.4c0-2.2-1.6-4-3.8-4c-2.2,0-3.8,1.8-3.8,3.9v0c0,2.2,1.6,4,3.8,4
				C397.2,700.3,398.7,698.6,398.7,696.4z"/>
			<path class="st1" d="M405.4,690.1h2.8v10.1h6.3v2.5h-9.1V690.1z"/>
			<path class="st1" d="M417.9,690.1h2.8v10.1h6.3v2.5h-9.1V690.1z"/>
			<path class="st1" d="M430.4,690.1h9.5v2.5h-6.8v2.6h5.9v2.5h-5.9v2.6h6.8v2.5h-9.6V690.1z"/>
			<path class="st1" d="M443.3,696.4L443.3,696.4c0-3.6,2.7-6.6,6.6-6.6c2.4,0,3.8,0.8,5,1.9l-1.8,2c-1-0.9-2-1.4-3.2-1.4
				c-2.1,0-3.7,1.8-3.7,3.9v0c0,2.2,1.5,4,3.7,4c1.4,0,2.3-0.6,3.3-1.5l1.8,1.8c-1.3,1.4-2.7,2.2-5.2,2.2
				C446,702.9,443.3,700,443.3,696.4z"/>
			<path class="st1" d="M461.4,692.6h-3.8v-2.6H468v2.6h-3.8v10h-2.8V692.6z"/>
			<path class="st1" d="M471.6,690.1h2.8v12.6h-2.8V690.1z"/>
			<path class="st1" d="M478.3,696.4L478.3,696.4c0-3.6,2.8-6.6,6.7-6.6c3.9,0,6.7,2.9,6.7,6.5v0c0,3.6-2.8,6.5-6.7,6.5
				C481.1,702.9,478.3,700,478.3,696.4z M488.8,696.4L488.8,696.4c0-2.2-1.6-4-3.8-4c-2.2,0-3.8,1.8-3.8,3.9v0c0,2.2,1.6,4,3.8,4
				C487.3,700.3,488.8,698.6,488.8,696.4z"/>
			<path class="st1" d="M495.5,690.1h2.6l5.9,7.8v-7.8h2.7v12.6h-2.4l-6.1-8v8h-2.7V690.1z"/>
		</g>
	</g>
</g>
<g id="TEXT_1_">
	<g id="LET_x2019_S_GET_PERSONAL">
		<g>
			<path class="st0" d="M244.7,65.8h8.5v30.8h19.2v7.7h-27.7V65.8z"/>
			<path class="st0" d="M278.8,65.8h29v7.5h-20.6v7.8h18.1v7.5h-18.1v8.1h20.9v7.5h-29.3V65.8z"/>
			<path class="st0" d="M324.6,73.6h-11.7v-7.8h31.9v7.8h-11.7v30.7h-8.5V73.6z"/>
			<path class="st0" d="M348.4,80c3.8-0.4,5.7-2.3,5.4-5.4h-3.4v-8.8h8.9v7.4c0,7.3-3.6,10.2-10.2,10.3L348.4,80z"/>
			<path class="st0" d="M364.4,98.7l5-6c3.5,2.9,7.1,4.7,11.5,4.7c3.5,0,5.6-1.4,5.6-3.6v-0.1c0-2.1-1.3-3.2-7.8-4.9
				c-7.8-2-12.8-4.1-12.8-11.8v-0.1c0-7,5.6-11.6,13.5-11.6c5.6,0,10.4,1.8,14.3,4.9l-4.4,6.4c-3.4-2.4-6.8-3.8-10-3.8
				s-4.9,1.5-4.9,3.4v0.1c0,2.5,1.6,3.4,8.3,5.1c7.8,2,12.2,4.8,12.2,11.5v0.1c0,7.6-5.8,11.9-14.1,11.9
				C374.9,104.8,369,102.8,364.4,98.7z"/>
			<path class="st0" d="M417,85.2V85c0-10.9,8.5-19.9,20.2-19.9c6.9,0,11.1,1.9,15.1,5.3l-5.3,6.4c-3-2.5-5.6-3.9-10.1-3.9
				c-6.2,0-11.1,5.4-11.1,12V85c0,7,4.8,12.2,11.7,12.2c3.1,0,5.8-0.8,8-2.3v-5.5H437v-7.3h16.7v16.7c-4,3.4-9.4,6.1-16.4,6.1
				C425.2,105,417,96.5,417,85.2z"/>
			<path class="st0" d="M461.8,65.8h29v7.5h-20.6v7.8h18.1v7.5h-18.1v8.1h20.9v7.5h-29.3V65.8z"/>
			<path class="st0" d="M507.6,73.6h-11.7v-7.8h31.9v7.8h-11.7v30.7h-8.5V73.6z"/>
			<path class="st0" d="M231.4,130.8h15.7c9.2,0,14.7,5.4,14.7,13.3v0.1c0,8.9-6.9,13.5-15.6,13.5h-6.4v11.5h-8.5V130.8z
				 M246.6,150.2c4.2,0,6.7-2.5,6.7-5.8v-0.1c0-3.8-2.6-5.8-6.9-5.8h-6.5v11.8H246.6z"/>
			<path class="st0" d="M268.1,130.8h29v7.5h-20.6v7.8h18.1v7.5h-18.1v8.1h20.9v7.5h-29.3V130.8z"/>
			<path class="st0" d="M305,130.8h17.6c4.9,0,8.7,1.4,11.2,3.9c2.1,2.1,3.3,5.2,3.3,8.8v0.1c0,6.2-3.4,10.1-8.2,11.9l9.4,13.7h-9.9
				l-8.2-12.3h-6.7v12.3H305V130.8z M322,149.5c4.1,0,6.5-2.2,6.5-5.4v-0.1c0-3.6-2.5-5.5-6.7-5.5h-8.4v11.1H322z"/>
			<path class="st0" d="M342.1,163.7l5-6c3.5,2.9,7.1,4.7,11.5,4.7c3.5,0,5.6-1.4,5.6-3.6v-0.1c0-2.1-1.3-3.2-7.8-4.9
				c-7.8-2-12.8-4.1-12.8-11.8v-0.1c0-7,5.6-11.6,13.5-11.6c5.6,0,10.4,1.8,14.3,4.9l-4.4,6.4c-3.4-2.4-6.8-3.8-10-3.8
				s-4.9,1.5-4.9,3.4v0.1c0,2.5,1.6,3.4,8.3,5.1c7.8,2,12.2,4.8,12.2,11.5v0.1c0,7.6-5.8,11.9-14.1,11.9
				C352.6,169.8,346.7,167.8,342.1,163.7z"/>
			<path class="st0" d="M378.3,150.2V150c0-10.9,8.6-19.9,20.5-19.9c11.9,0,20.4,8.9,20.4,19.8v0.1c0,10.9-8.6,19.9-20.5,19.9
				C386.8,170,378.3,161.1,378.3,150.2z M410.3,150.2V150c0-6.6-4.8-12.1-11.7-12.1c-6.8,0-11.5,5.4-11.5,12v0.1
				c0,6.6,4.8,12.1,11.7,12.1S410.3,156.8,410.3,150.2z"/>
			<path class="st0" d="M426.7,130.8h7.8l18,23.7v-23.7h8.4v38.5h-7.2l-18.6-24.5v24.5h-8.4V130.8z"/>
			<path class="st0" d="M483.4,130.5h7.8l16.5,38.8h-8.9l-3.5-8.6H479l-3.5,8.6h-8.6L483.4,130.5z M492.3,153.2l-5.1-12.5l-5.1,12.5
				H492.3z"/>
			<path class="st0" d="M513.6,130.8h8.5v30.8h19.2v7.7h-27.7V130.8z"/>
		</g>
	</g>
</g>
<g id="NEW_1_">
	<g id="Ellipse_2">
		<g>
			<circle class="st2" cx="110.5" cy="83" r="48"/>
		</g>
	</g>
	<g id="NEW_2_">
		<g>
			<path class="st0" d="M80.8,75.5h3.1l7.2,9.5v-9.5h3.4V91h-2.9l-7.5-9.8V91h-3.4V75.5z"/>
			<path class="st0" d="M100.4,75.5H112v3h-8.3v3.1h7.3v3h-7.3V88h8.4v3h-11.8V75.5z"/>
			<path class="st0" d="M116.2,75.5h3.6L123,86l3.5-10.5h2.9l3.5,10.5l3.2-10.5h3.6l-5.3,15.5h-3L127.9,81l-3.5,10.1h-3L116.2,75.5z
				"/>
		</g>
	</g>
</g>
</svg>
