<svg width="456" height="45" viewBox="0 0 456 45" fill="none" xmlns="http://www.w3.org/2000/svg">
<path d="M24.38 27.4333H15.8V43.3333H0.74V1.63325H15.8V16.5733H24.38V1.63325H39.44V43.3333H24.38V27.4333ZM49.5275 1.63325H75.8675L83.6675 43.3333H68.3075L67.1075 35.4133H57.9875L56.8475 43.3333H41.6675L49.5275 1.63325ZM59.5475 24.9733H65.6075L62.5475 4.33325L59.5475 24.9733ZM85.8767 1.63325H104.237C107.397 1.63325 110.157 1.97325 112.517 2.65325C114.877 3.33325 116.837 4.31325 118.397 5.59325C119.957 6.83325 121.117 8.33325 121.877 10.0933C122.637 11.8532 123.017 13.8332 123.017 16.0333C123.017 18.2333 122.637 20.2333 121.877 22.0333C121.117 23.7933 119.957 25.3133 118.397 26.5933C116.837 27.8733 114.877 28.8733 112.517 29.5933C110.157 30.2733 107.397 30.6133 104.237 30.6133H100.937V43.3333H85.8767V1.63325ZM100.937 12.3133V20.5333H103.817C105.217 20.5333 106.297 20.1733 107.057 19.4533C107.817 18.7333 108.197 17.7333 108.197 16.4533C108.197 15.1733 107.817 14.1733 107.057 13.4533C106.297 12.6933 105.217 12.3133 103.817 12.3133H100.937ZM125.545 1.63325H143.905C147.065 1.63325 149.825 1.97325 152.185 2.65325C154.545 3.33325 156.505 4.31325 158.065 5.59325C159.625 6.83325 160.785 8.33325 161.545 10.0933C162.305 11.8532 162.685 13.8332 162.685 16.0333C162.685 18.2333 162.305 20.2333 161.545 22.0333C160.785 23.7933 159.625 25.3133 158.065 26.5933C156.505 27.8733 154.545 28.8733 152.185 29.5933C149.825 30.2733 147.065 30.6133 143.905 30.6133H140.605V43.3333H125.545V1.63325ZM140.605 12.3133V20.5333H143.485C144.885 20.5333 145.965 20.1733 146.725 19.4533C147.485 18.7333 147.865 17.7333 147.865 16.4533C147.865 15.1733 147.485 14.1733 146.725 13.4533C145.965 12.6933 144.885 12.3133 143.485 12.3133H140.605ZM173.458 27.7333L160.378 1.63325H175.678L181.078 14.5333L186.418 1.63325H201.538L188.518 27.7333V43.3333H173.458V27.7333ZM243.696 27.4333H235.116V43.3333H220.056V1.63325H235.116V16.5733H243.696V1.63325H258.756V43.3333H243.696V27.4333ZM282.95 44.1733C279.75 44.1733 276.83 43.6533 274.19 42.6133C271.59 41.5733 269.35 40.1133 267.47 38.2333C265.63 36.3533 264.19 34.0733 263.15 31.3933C262.15 28.7133 261.65 25.7333 261.65 22.4533C261.65 19.1733 262.15 16.2133 263.15 13.5733C264.19 10.8933 265.63 8.61325 267.47 6.73325C269.35 4.81325 271.59 3.35325 274.19 2.35325C276.83 1.31325 279.75 0.793249 282.95 0.793249C286.15 0.793249 289.05 1.31325 291.65 2.35325C294.29 3.35325 296.53 4.81325 298.37 6.73325C300.25 8.61325 301.69 10.8933 302.69 13.5733C303.73 16.2133 304.25 19.1733 304.25 22.4533C304.25 25.7333 303.73 28.7133 302.69 31.3933C301.69 34.0733 300.25 36.3533 298.37 38.2333C296.53 40.1133 294.29 41.5733 291.65 42.6133C289.05 43.6533 286.15 44.1733 282.95 44.1733ZM282.95 32.8333C285.03 32.8333 286.59 31.8933 287.63 30.0133C288.67 28.1333 289.19 25.6133 289.19 22.4533C289.19 19.3333 288.67 16.8333 287.63 14.9533C286.59 13.0732 285.03 12.1332 282.95 12.1332C280.87 12.1332 279.31 13.0732 278.27 14.9533C277.23 16.8333 276.71 19.3333 276.71 22.4533C276.71 25.6133 277.23 28.1333 278.27 30.0133C279.31 31.8933 280.87 32.8333 282.95 32.8333ZM327.95 44.1733C324.75 44.1733 321.83 43.6533 319.19 42.6133C316.59 41.5733 314.35 40.1133 312.47 38.2333C310.63 36.3533 309.19 34.0733 308.15 31.3933C307.15 28.7133 306.65 25.7333 306.65 22.4533C306.65 19.1733 307.15 16.2133 308.15 13.5733C309.19 10.8933 310.63 8.61325 312.47 6.73325C314.35 4.81325 316.59 3.35325 319.19 2.35325C321.83 1.31325 324.75 0.793249 327.95 0.793249C331.15 0.793249 334.05 1.31325 336.65 2.35325C339.29 3.35325 341.53 4.81325 343.37 6.73325C345.25 8.61325 346.69 10.8933 347.69 13.5733C348.73 16.2133 349.25 19.1733 349.25 22.4533C349.25 25.7333 348.73 28.7133 347.69 31.3933C346.69 34.0733 345.25 36.3533 343.37 38.2333C341.53 40.1133 339.29 41.5733 336.65 42.6133C334.05 43.6533 331.15 44.1733 327.95 44.1733ZM327.95 32.8333C330.03 32.8333 331.59 31.8933 332.63 30.0133C333.67 28.1333 334.19 25.6133 334.19 22.4533C334.19 19.3333 333.67 16.8333 332.63 14.9533C331.59 13.0732 330.03 12.1332 327.95 12.1332C325.87 12.1332 324.31 13.0732 323.27 14.9533C322.23 16.8333 321.71 19.3333 321.71 22.4533C321.71 25.6133 322.23 28.1333 323.27 30.0133C324.31 31.8933 325.87 32.8333 327.95 32.8333ZM351.821 20.2933H369.521V31.6933H351.821V20.2933ZM396.099 27.4333H387.519V43.3333H372.459V1.63325H387.519V16.5733H396.099V1.63325H411.159V43.3333H396.099V27.4333ZM421.246 1.63325H447.586L455.386 43.3333H440.026L438.826 35.4133H429.706L428.566 43.3333H413.386L421.246 1.63325ZM431.266 24.9733H437.326L434.266 4.33325L431.266 24.9733Z" fill="#FFC451"/>
</svg>
