<svg xmlns="http://www.w3.org/2000/svg" fill="none" viewBox="0 0 579 164" height="164" width="579">
<g filter="url(#filter0_d_2355_22)">
<mask fill="black" height="158" width="573" y="0.592285" x="5.45923" maskUnits="userSpaceOnUse" id="path-1-outside-1_2355_22">
<rect height="158" width="573" y="0.592285" x="5.45923" fill="white"></rect>
<path d="M64.0694 71.2454C55.4955 71.5894 47.2975 69.2173 41.0683 64.1345L48.1781 54.9153C53.1707 58.524 58.5062 60.3184 64.1068 60.0937C67.7715 59.9467 69.6576 58.6244 69.5744 56.5501L69.5688 56.4118C69.4856 54.3375 67.8537 53.3641 61.152 52.0401C50.7552 50.1025 42.6871 47.5174 42.2904 37.6298L42.2849 37.4915C41.9243 28.5027 48.7854 21.7175 60.4017 21.2514C68.6298 20.9213 75.149 22.876 80.5732 26.883L74.2462 36.6248C69.6934 33.6217 64.7895 32.2256 60.5025 32.3976C57.2527 32.5279 55.7151 33.9055 55.7873 35.7032L55.7928 35.8415C55.8816 38.0541 57.5799 38.9556 64.417 40.2049C75.5772 42.1811 82.6359 45.4993 82.9993 54.5572L83.0048 54.6955C83.4015 64.5831 75.824 70.7738 64.0694 71.2454Z"></path>
<path d="M93.1697 69.2469L91.1447 18.7715L104.213 18.2472L106.238 68.7226L93.1697 69.2469Z"></path>
<path d="M135.714 68.4404C123.96 68.912 115.346 61.3624 114.883 49.8153L114.878 49.677C114.439 38.7522 121.906 29.7957 132.969 29.3519C145.83 28.8359 152.156 38.0701 152.597 49.0641C152.631 49.8938 152.669 50.8618 152.636 51.7635L127.606 52.7676C128.807 56.8056 131.863 58.7606 135.943 58.5969C139.123 58.4693 141.496 57.1968 144.088 54.4611L151.589 60.1854C148.177 64.8932 143.113 68.1436 135.714 68.4404ZM127.13 46.069L140.198 45.5447C139.547 41.4154 136.953 38.8878 133.357 39.0321C129.9 39.1708 127.655 41.8926 127.13 46.069Z"></path>
<path d="M181.104 66.6195C169.349 67.0911 160.736 59.5415 160.273 47.9944L160.267 47.8561C159.829 36.9313 167.295 27.9748 178.358 27.5309C191.219 27.015 197.546 36.2492 197.987 47.2432C198.02 48.0729 198.059 49.0409 198.026 49.9426L172.996 50.9467C174.196 54.9846 177.253 56.9397 181.332 56.776C184.513 56.6484 186.886 55.3759 189.477 52.6402L196.979 58.3645C193.566 63.0723 188.502 66.3227 181.104 66.6195ZM172.519 44.248L185.587 43.7238C184.937 39.5945 182.342 37.0669 178.747 37.2111C175.29 37.3498 173.044 40.0716 172.519 44.248Z"></path>
<path d="M208.301 75.709L206.357 27.2388L219.494 26.7117L219.694 31.6901C222.128 28.476 225.2 25.6518 230.801 25.4271C239.72 25.0692 247.692 32.1598 248.172 44.1218L248.178 44.26C248.666 56.4295 241.288 64.1358 232.437 64.4909C226.767 64.7183 223.346 62.2931 220.812 59.5553L221.439 75.1819L208.301 75.709ZM227.986 53.6578C232.203 53.4886 235.522 49.8927 235.319 44.8451L235.314 44.7068C235.114 39.7284 231.516 36.3408 227.298 36.51C223.011 36.682 219.764 40.3443 219.964 45.3227L219.969 45.4609C220.169 50.4393 223.699 53.8298 227.986 53.6578Z"></path>
<path d="M257.22 62.6656L256.679 49.1824L270.3 48.636L270.841 62.1191L257.22 62.6656Z"></path>
<path d="M323.253 60.8475C314.679 61.1915 306.481 58.8194 300.252 53.7366L307.361 44.5174C312.354 48.1262 317.69 49.9206 323.29 49.6959C326.955 49.5489 328.841 48.2266 328.758 46.1523L328.752 46.014C328.669 43.9396 327.037 42.9663 320.335 41.6423C309.939 39.7047 301.871 37.1196 301.474 27.2319L301.468 27.0937C301.108 18.1049 307.969 11.3196 319.585 10.8536C327.813 10.5235 334.332 12.4781 339.757 16.4851L333.43 26.227C328.877 23.2239 323.973 21.8277 319.686 21.9997C316.436 22.1301 314.899 23.5076 314.971 25.3054L314.976 25.4437C315.065 27.6563 316.763 28.5577 323.6 29.8071C334.761 31.7833 341.819 35.1014 342.183 44.1593L342.188 44.2976C342.585 54.1853 335.007 60.376 323.253 60.8475Z"></path>
<path d="M366.229 59.0542C358.346 59.3704 353.575 56.0991 353.217 47.1794L352.604 31.8985L348.179 32.0761L347.757 21.5661L352.182 21.3886L351.802 11.9158L364.871 11.3915L365.251 20.8643L373.963 20.5148L374.384 31.0247L365.672 31.3743L366.183 44.0968C366.288 46.7243 367.508 47.7835 369.928 47.6864C371.657 47.617 373.297 47.0664 374.856 46.2421L375.267 56.4754C372.969 57.8835 369.893 58.9072 366.229 59.0542Z"></path>
<path d="M397.116 57.8843C389.164 58.2033 384.11 53.0734 383.769 44.5686L382.79 20.1607L395.928 19.6336L396.74 39.8929C396.904 43.9724 399.136 46.0991 402.317 45.9715C405.497 45.8439 407.76 43.5369 407.596 39.4574L406.783 19.1981L419.852 18.6738L421.352 56.081L408.284 56.6052L408.076 51.4194C405.781 54.628 402.44 57.6707 397.116 57.8843Z"></path>
<path d="M447.093 55.8794C438.173 56.2372 430.201 49.1467 429.721 37.1847L429.716 37.0464C429.227 24.877 436.606 17.1706 445.456 16.8156C451.126 16.5881 454.548 19.0133 457.081 21.7511L456.374 4.11933L469.511 3.59229L471.536 54.0677L458.399 54.5947L458.199 49.6163C455.766 52.8305 452.693 55.6547 447.093 55.8794ZM450.593 44.7273C454.88 44.5553 458.126 40.893 457.927 35.9146L457.921 35.7764C457.724 30.8671 454.192 27.4075 449.905 27.5795C445.687 27.7487 442.371 31.4138 442.571 36.3922L442.577 36.5305C442.776 41.5089 446.375 44.8965 450.593 44.7273Z"></path>
<path d="M499.896 38.04L506.045 15.216L519.528 14.6751L507.302 51.7325C504.405 60.6442 501.014 64.1738 493.546 64.4734C488.914 64.6592 484.992 63.57 481.454 61.7035L485.096 52.3464C487.289 53.505 489.463 54.1796 490.915 54.1213C492.229 54.0686 493.114 53.6868 493.965 52.4753L477.834 16.3477L491.524 15.7985L499.896 38.04Z"></path>
<path d="M522.413 52.0266L521.872 38.5435L535.493 37.997L536.034 51.4802L522.413 52.0266Z"></path>
<path d="M31.4604 155.62C22.8865 155.964 14.6884 153.592 8.45923 148.509L15.569 139.29C20.5617 142.899 25.8971 144.693 31.4978 144.469C35.1624 144.322 37.0485 142.999 36.9653 140.925L36.9598 140.787C36.8766 138.712 35.2446 137.739 28.543 136.415C18.1461 134.477 10.078 131.892 9.68136 122.005L9.67581 121.866C9.3152 112.878 16.1763 106.092 27.7926 105.626C36.0208 105.296 42.54 107.251 47.9641 111.258L41.6372 121C37.0843 117.997 32.1804 116.601 27.8935 116.773C24.6437 116.903 23.1061 118.28 23.1782 120.078L23.1837 120.216C23.2725 122.429 24.9708 123.331 31.808 124.58C42.9682 126.556 50.0268 129.874 50.3902 138.932L50.3958 139.07C50.7924 148.958 43.2149 155.149 31.4604 155.62Z"></path>
<path d="M79.3348 153.769C67.442 154.246 58.4466 145.812 58.0195 135.163L58.0139 135.025C57.5867 124.377 65.9411 115.108 77.9031 114.628C89.865 114.148 98.8604 122.582 99.2876 133.231L99.2931 133.369C99.7203 144.017 91.3659 153.286 79.3348 153.769ZM79.0265 142.631C83.7975 142.44 86.7564 138.512 86.5761 134.018L86.5705 133.879C86.3847 129.247 82.8413 125.511 78.2086 125.696C73.4376 125.888 70.5479 129.813 70.7309 134.376L70.7365 134.515C70.9196 139.078 74.3938 142.817 79.0265 142.631Z"></path>
<path d="M127.2 151.849C115.86 152.304 107.277 143.783 106.853 133.204L106.847 133.066C106.423 122.487 114.224 113.24 126.048 112.766C133.723 112.458 138.972 115.571 142.353 120.422L133.769 127.415C131.805 125.07 129.738 123.629 126.627 123.754C122.34 123.926 119.381 127.854 119.564 132.417L119.57 132.556C119.764 137.396 122.953 140.938 127.378 140.761C130.559 140.633 132.506 139.101 134.414 136.6L143.451 142.609C140.199 147.864 135.359 151.521 127.2 151.849Z"></path>
<path d="M150.304 109.161L149.916 99.4805L163.537 98.934L163.926 108.614L150.304 109.161ZM152.217 149.945L150.717 112.538L163.785 112.013L165.286 149.421L152.217 149.945Z"></path>
<path d="M186.877 149.385C179.755 149.671 174.195 145.739 173.899 138.34L173.893 138.202C173.58 130.389 179.299 126.212 188.08 125.859C191.537 125.721 194.95 126.207 197.127 126.951L197.102 126.329C196.944 122.387 194.435 120.272 189.388 120.474C185.446 120.632 182.437 121.584 179.099 122.965L176.034 113.877C180.182 111.979 184.629 110.623 191.06 110.365C197.767 110.096 202.394 111.503 205.487 114.357C208.432 117.009 209.763 120.834 209.974 126.089L210.837 147.593L197.907 148.112L197.749 144.171C195.235 147.111 191.786 149.188 186.877 149.385ZM191.249 140.969C195.121 140.813 197.72 138.285 197.571 134.551L197.501 132.823C196.096 132.325 194.213 131.985 192.276 132.063C188.474 132.215 186.333 134.102 186.447 136.937L186.452 137.075C186.555 139.633 188.552 141.077 191.249 140.969Z"></path>
<path d="M221.321 147.173L219.296 96.6971L232.365 96.1728L234.39 146.648L221.321 147.173Z"></path>
<path d="M244.746 146.233L244.205 132.75L257.827 132.203L258.368 145.686L244.746 146.233Z"></path>
<path d="M291.731 144.348L289.79 95.9467L312.676 95.0286C320.075 94.7318 325.269 96.4625 328.649 99.582C331.598 102.303 333.197 105.91 333.388 110.681L333.394 110.819C333.694 118.286 329.949 123.354 324.036 126.153L336.26 142.561L320.841 143.18L310.504 128.913L304.557 129.151L305.145 143.81L291.731 144.348ZM304.136 118.641L313.055 118.283C317.55 118.103 320.158 115.782 320.016 112.256L320.011 112.118C319.855 108.245 316.943 106.423 312.517 106.601L303.667 106.956L304.136 118.641Z"></path>
<path d="M362.086 142.426C350.332 142.897 341.718 135.348 341.255 123.801L341.249 123.662C340.811 112.737 348.278 103.781 359.341 103.337C372.202 102.821 378.528 112.055 378.969 123.049C379.002 123.879 379.041 124.847 379.008 125.749L353.978 126.753C355.179 130.791 358.235 132.746 362.315 132.582C365.495 132.455 367.868 131.182 370.459 128.446L377.961 134.171C374.548 138.878 369.485 142.129 362.086 142.426ZM353.501 120.054L366.57 119.53C365.919 115.401 363.325 112.873 359.729 113.017C356.272 113.156 354.026 115.878 353.501 120.054Z"></path>
<path d="M389.284 151.515L387.339 103.045L400.477 102.518L400.676 107.496C403.11 104.282 406.182 101.458 411.783 101.233C420.703 100.875 428.674 107.966 429.154 119.928L429.16 120.066C429.648 132.236 422.27 139.942 413.419 140.297C407.749 140.525 404.328 138.099 401.794 135.361L402.421 150.988L389.284 151.515ZM408.968 129.464C413.186 129.295 416.504 125.699 416.302 120.651L416.296 120.513C416.096 115.535 412.498 112.147 408.28 112.316C403.993 112.488 400.746 116.15 400.946 121.129L400.952 121.267C401.151 126.246 404.681 129.636 408.968 129.464Z"></path>
<path d="M457.659 138.591C445.905 139.063 437.291 131.513 436.828 119.966L436.822 119.828C436.384 108.903 443.851 99.9467 454.914 99.5029C467.775 98.987 474.101 108.221 474.542 119.215C474.576 120.045 474.614 121.013 474.581 121.915L449.551 122.919C450.752 126.957 453.808 128.912 457.888 128.748C461.068 128.62 463.441 127.348 466.033 124.612L473.534 130.337C470.122 135.044 465.058 138.295 457.659 138.591ZM449.074 116.22L462.143 115.696C461.492 111.567 458.898 109.039 455.302 109.183C451.845 109.322 449.6 112.044 449.074 116.22Z"></path>
<path d="M495.164 137.018C488.042 137.303 482.482 133.371 482.185 125.973L482.18 125.834C481.866 118.021 487.585 113.844 496.367 113.492C499.824 113.353 503.237 113.839 505.414 114.583L505.389 113.961C505.231 110.02 502.722 107.904 497.674 108.107C493.733 108.265 490.724 109.216 487.386 110.597L484.32 101.509C488.469 99.6111 492.916 98.2554 499.346 97.9974C506.053 97.7283 510.681 99.1356 513.773 101.99C516.719 104.642 518.05 108.466 518.261 113.721L519.123 135.225L506.193 135.744L506.035 131.803C503.522 134.743 500.073 136.821 495.164 137.018ZM499.535 128.601C503.407 128.445 506.007 125.917 505.857 122.183L505.788 120.455C504.383 119.957 502.499 119.617 500.563 119.695C496.76 119.847 494.62 121.734 494.733 124.569L494.739 124.707C494.842 127.266 496.839 128.709 499.535 128.601Z"></path>
<path d="M543.821 134.996C535.939 135.313 531.167 132.041 530.81 123.122L530.196 107.841L525.771 108.018L525.35 97.5083L529.775 97.3307L529.395 87.858L542.463 87.3337L542.843 96.8065L551.555 96.457L551.977 106.967L543.265 107.316L543.775 120.039C543.881 122.666 545.1 123.726 547.521 123.629C549.249 123.559 550.889 123.009 552.449 122.184L552.859 132.418C550.561 133.826 547.486 134.849 543.821 134.996Z"></path>
<path d="M561.676 133.518L561.135 120.035L574.756 119.489L575.297 132.972L561.676 133.518Z"></path>
</mask>
<path fill="white" d="M64.0694 71.2454C55.4955 71.5894 47.2975 69.2173 41.0683 64.1345L48.1781 54.9153C53.1707 58.524 58.5062 60.3184 64.1068 60.0937C67.7715 59.9467 69.6576 58.6244 69.5744 56.5501L69.5688 56.4118C69.4856 54.3375 67.8537 53.3641 61.152 52.0401C50.7552 50.1025 42.6871 47.5174 42.2904 37.6298L42.2849 37.4915C41.9243 28.5027 48.7854 21.7175 60.4017 21.2514C68.6298 20.9213 75.149 22.876 80.5732 26.883L74.2462 36.6248C69.6934 33.6217 64.7895 32.2256 60.5025 32.3976C57.2527 32.5279 55.7151 33.9055 55.7873 35.7032L55.7928 35.8415C55.8816 38.0541 57.5799 38.9556 64.417 40.2049C75.5772 42.1811 82.6359 45.4993 82.9993 54.5572L83.0048 54.6955C83.4015 64.5831 75.824 70.7738 64.0694 71.2454Z"></path>
<path fill="white" d="M93.1697 69.2469L91.1447 18.7715L104.213 18.2472L106.238 68.7226L93.1697 69.2469Z"></path>
<path fill="white" d="M135.714 68.4404C123.96 68.912 115.346 61.3624 114.883 49.8153L114.878 49.677C114.439 38.7522 121.906 29.7957 132.969 29.3519C145.83 28.8359 152.156 38.0701 152.597 49.0641C152.631 49.8938 152.669 50.8618 152.636 51.7635L127.606 52.7676C128.807 56.8056 131.863 58.7606 135.943 58.5969C139.123 58.4693 141.496 57.1968 144.088 54.4611L151.589 60.1854C148.177 64.8932 143.113 68.1436 135.714 68.4404ZM127.13 46.069L140.198 45.5447C139.547 41.4154 136.953 38.8878 133.357 39.0321C129.9 39.1708 127.655 41.8926 127.13 46.069Z"></path>
<path fill="white" d="M181.104 66.6195C169.349 67.0911 160.736 59.5415 160.273 47.9944L160.267 47.8561C159.829 36.9313 167.295 27.9748 178.358 27.5309C191.219 27.015 197.546 36.2492 197.987 47.2432C198.02 48.0729 198.059 49.0409 198.026 49.9426L172.996 50.9467C174.196 54.9846 177.253 56.9397 181.332 56.776C184.513 56.6484 186.886 55.3759 189.477 52.6402L196.979 58.3645C193.566 63.0723 188.502 66.3227 181.104 66.6195ZM172.519 44.248L185.587 43.7238C184.937 39.5945 182.342 37.0669 178.747 37.2111C175.29 37.3498 173.044 40.0716 172.519 44.248Z"></path>
<path fill="white" d="M208.301 75.709L206.357 27.2388L219.494 26.7117L219.694 31.6901C222.128 28.476 225.2 25.6518 230.801 25.4271C239.72 25.0692 247.692 32.1598 248.172 44.1218L248.178 44.26C248.666 56.4295 241.288 64.1358 232.437 64.4909C226.767 64.7183 223.346 62.2931 220.812 59.5553L221.439 75.1819L208.301 75.709ZM227.986 53.6578C232.203 53.4886 235.522 49.8927 235.319 44.8451L235.314 44.7068C235.114 39.7284 231.516 36.3408 227.298 36.51C223.011 36.682 219.764 40.3443 219.964 45.3227L219.969 45.4609C220.169 50.4393 223.699 53.8298 227.986 53.6578Z"></path>
<path fill="white" d="M257.22 62.6656L256.679 49.1824L270.3 48.636L270.841 62.1191L257.22 62.6656Z"></path>
<path fill="white" d="M323.253 60.8475C314.679 61.1915 306.481 58.8194 300.252 53.7366L307.361 44.5174C312.354 48.1262 317.69 49.9206 323.29 49.6959C326.955 49.5489 328.841 48.2266 328.758 46.1523L328.752 46.014C328.669 43.9396 327.037 42.9663 320.335 41.6423C309.939 39.7047 301.871 37.1196 301.474 27.2319L301.468 27.0937C301.108 18.1049 307.969 11.3196 319.585 10.8536C327.813 10.5235 334.332 12.4781 339.757 16.4851L333.43 26.227C328.877 23.2239 323.973 21.8277 319.686 21.9997C316.436 22.1301 314.899 23.5076 314.971 25.3054L314.976 25.4437C315.065 27.6563 316.763 28.5577 323.6 29.8071C334.761 31.7833 341.819 35.1014 342.183 44.1593L342.188 44.2976C342.585 54.1853 335.007 60.376 323.253 60.8475Z"></path>
<path fill="white" d="M366.229 59.0542C358.346 59.3704 353.575 56.0991 353.217 47.1794L352.604 31.8985L348.179 32.0761L347.757 21.5661L352.182 21.3886L351.802 11.9158L364.871 11.3915L365.251 20.8643L373.963 20.5148L374.384 31.0247L365.672 31.3743L366.183 44.0968C366.288 46.7243 367.508 47.7835 369.928 47.6864C371.657 47.617 373.297 47.0664 374.856 46.2421L375.267 56.4754C372.969 57.8835 369.893 58.9072 366.229 59.0542Z"></path>
<path fill="white" d="M397.116 57.8843C389.164 58.2033 384.11 53.0734 383.769 44.5686L382.79 20.1607L395.928 19.6336L396.74 39.8929C396.904 43.9724 399.136 46.0991 402.317 45.9715C405.497 45.8439 407.76 43.5369 407.596 39.4574L406.783 19.1981L419.852 18.6738L421.352 56.081L408.284 56.6052L408.076 51.4194C405.781 54.628 402.44 57.6707 397.116 57.8843Z"></path>
<path fill="white" d="M447.093 55.8794C438.173 56.2372 430.201 49.1467 429.721 37.1847L429.716 37.0464C429.227 24.877 436.606 17.1706 445.456 16.8156C451.126 16.5881 454.548 19.0133 457.081 21.7511L456.374 4.11933L469.511 3.59229L471.536 54.0677L458.399 54.5947L458.199 49.6163C455.766 52.8305 452.693 55.6547 447.093 55.8794ZM450.593 44.7273C454.88 44.5553 458.126 40.893 457.927 35.9146L457.921 35.7764C457.724 30.8671 454.192 27.4075 449.905 27.5795C445.687 27.7487 442.371 31.4138 442.571 36.3922L442.577 36.5305C442.776 41.5089 446.375 44.8965 450.593 44.7273Z"></path>
<path fill="white" d="M499.896 38.04L506.045 15.216L519.528 14.6751L507.302 51.7325C504.405 60.6442 501.014 64.1738 493.546 64.4734C488.914 64.6592 484.992 63.57 481.454 61.7035L485.096 52.3464C487.289 53.505 489.463 54.1796 490.915 54.1213C492.229 54.0686 493.114 53.6868 493.965 52.4753L477.834 16.3477L491.524 15.7985L499.896 38.04Z"></path>
<path fill="white" d="M522.413 52.0266L521.872 38.5435L535.493 37.997L536.034 51.4802L522.413 52.0266Z"></path>
<path fill="white" d="M31.4604 155.62C22.8865 155.964 14.6884 153.592 8.45923 148.509L15.569 139.29C20.5617 142.899 25.8971 144.693 31.4978 144.469C35.1624 144.322 37.0485 142.999 36.9653 140.925L36.9598 140.787C36.8766 138.712 35.2446 137.739 28.543 136.415C18.1461 134.477 10.078 131.892 9.68136 122.005L9.67581 121.866C9.3152 112.878 16.1763 106.092 27.7926 105.626C36.0208 105.296 42.54 107.251 47.9641 111.258L41.6372 121C37.0843 117.997 32.1804 116.601 27.8935 116.773C24.6437 116.903 23.1061 118.28 23.1782 120.078L23.1837 120.216C23.2725 122.429 24.9708 123.331 31.808 124.58C42.9682 126.556 50.0268 129.874 50.3902 138.932L50.3958 139.07C50.7924 148.958 43.2149 155.149 31.4604 155.62Z"></path>
<path fill="white" d="M79.3348 153.769C67.442 154.246 58.4466 145.812 58.0195 135.163L58.0139 135.025C57.5867 124.377 65.9411 115.108 77.9031 114.628C89.865 114.148 98.8604 122.582 99.2876 133.231L99.2931 133.369C99.7203 144.017 91.3659 153.286 79.3348 153.769ZM79.0265 142.631C83.7975 142.44 86.7564 138.512 86.5761 134.018L86.5705 133.879C86.3847 129.247 82.8413 125.511 78.2086 125.696C73.4376 125.888 70.5479 129.813 70.7309 134.376L70.7365 134.515C70.9196 139.078 74.3938 142.817 79.0265 142.631Z"></path>
<path fill="white" d="M127.2 151.849C115.86 152.304 107.277 143.783 106.853 133.204L106.847 133.066C106.423 122.487 114.224 113.24 126.048 112.766C133.723 112.458 138.972 115.571 142.353 120.422L133.769 127.415C131.805 125.07 129.738 123.629 126.627 123.754C122.34 123.926 119.381 127.854 119.564 132.417L119.57 132.556C119.764 137.396 122.953 140.938 127.378 140.761C130.559 140.633 132.506 139.101 134.414 136.6L143.451 142.609C140.199 147.864 135.359 151.521 127.2 151.849Z"></path>
<path fill="white" d="M150.304 109.161L149.916 99.4805L163.537 98.934L163.926 108.614L150.304 109.161ZM152.217 149.945L150.717 112.538L163.785 112.013L165.286 149.421L152.217 149.945Z"></path>
<path fill="white" d="M186.877 149.385C179.755 149.671 174.195 145.739 173.899 138.34L173.893 138.202C173.58 130.389 179.299 126.212 188.08 125.859C191.537 125.721 194.95 126.207 197.127 126.951L197.102 126.329C196.944 122.387 194.435 120.272 189.388 120.474C185.446 120.632 182.437 121.584 179.099 122.965L176.034 113.877C180.182 111.979 184.629 110.623 191.06 110.365C197.767 110.096 202.394 111.503 205.487 114.357C208.432 117.009 209.763 120.834 209.974 126.089L210.837 147.593L197.907 148.112L197.749 144.171C195.235 147.111 191.786 149.188 186.877 149.385ZM191.249 140.969C195.121 140.813 197.72 138.285 197.571 134.551L197.501 132.823C196.096 132.325 194.213 131.985 192.276 132.063C188.474 132.215 186.333 134.102 186.447 136.937L186.452 137.075C186.555 139.633 188.552 141.077 191.249 140.969Z"></path>
<path fill="white" d="M221.321 147.173L219.296 96.6971L232.365 96.1728L234.39 146.648L221.321 147.173Z"></path>
<path fill="white" d="M244.746 146.233L244.205 132.75L257.827 132.203L258.368 145.686L244.746 146.233Z"></path>
<path fill="white" d="M291.731 144.348L289.79 95.9467L312.676 95.0286C320.075 94.7318 325.269 96.4625 328.649 99.582C331.598 102.303 333.197 105.91 333.388 110.681L333.394 110.819C333.694 118.286 329.949 123.354 324.036 126.153L336.26 142.561L320.841 143.18L310.504 128.913L304.557 129.151L305.145 143.81L291.731 144.348ZM304.136 118.641L313.055 118.283C317.55 118.103 320.158 115.782 320.016 112.256L320.011 112.118C319.855 108.245 316.943 106.423 312.517 106.601L303.667 106.956L304.136 118.641Z"></path>
<path fill="white" d="M362.086 142.426C350.332 142.897 341.718 135.348 341.255 123.801L341.249 123.662C340.811 112.737 348.278 103.781 359.341 103.337C372.202 102.821 378.528 112.055 378.969 123.049C379.002 123.879 379.041 124.847 379.008 125.749L353.978 126.753C355.179 130.791 358.235 132.746 362.315 132.582C365.495 132.455 367.868 131.182 370.459 128.446L377.961 134.171C374.548 138.878 369.485 142.129 362.086 142.426ZM353.501 120.054L366.57 119.53C365.919 115.401 363.325 112.873 359.729 113.017C356.272 113.156 354.026 115.878 353.501 120.054Z"></path>
<path fill="white" d="M389.284 151.515L387.339 103.045L400.477 102.518L400.676 107.496C403.11 104.282 406.182 101.458 411.783 101.233C420.703 100.875 428.674 107.966 429.154 119.928L429.16 120.066C429.648 132.236 422.27 139.942 413.419 140.297C407.749 140.525 404.328 138.099 401.794 135.361L402.421 150.988L389.284 151.515ZM408.968 129.464C413.186 129.295 416.504 125.699 416.302 120.651L416.296 120.513C416.096 115.535 412.498 112.147 408.28 112.316C403.993 112.488 400.746 116.15 400.946 121.129L400.952 121.267C401.151 126.246 404.681 129.636 408.968 129.464Z"></path>
<path fill="white" d="M457.659 138.591C445.905 139.063 437.291 131.513 436.828 119.966L436.822 119.828C436.384 108.903 443.851 99.9467 454.914 99.5029C467.775 98.987 474.101 108.221 474.542 119.215C474.576 120.045 474.614 121.013 474.581 121.915L449.551 122.919C450.752 126.957 453.808 128.912 457.888 128.748C461.068 128.62 463.441 127.348 466.033 124.612L473.534 130.337C470.122 135.044 465.058 138.295 457.659 138.591ZM449.074 116.22L462.143 115.696C461.492 111.567 458.898 109.039 455.302 109.183C451.845 109.322 449.6 112.044 449.074 116.22Z"></path>
<path fill="white" d="M495.164 137.018C488.042 137.303 482.482 133.371 482.185 125.973L482.18 125.834C481.866 118.021 487.585 113.844 496.367 113.492C499.824 113.353 503.237 113.839 505.414 114.583L505.389 113.961C505.231 110.02 502.722 107.904 497.674 108.107C493.733 108.265 490.724 109.216 487.386 110.597L484.32 101.509C488.469 99.6111 492.916 98.2554 499.346 97.9974C506.053 97.7283 510.681 99.1356 513.773 101.99C516.719 104.642 518.05 108.466 518.261 113.721L519.123 135.225L506.193 135.744L506.035 131.803C503.522 134.743 500.073 136.821 495.164 137.018ZM499.535 128.601C503.407 128.445 506.007 125.917 505.857 122.183L505.788 120.455C504.383 119.957 502.499 119.617 500.563 119.695C496.76 119.847 494.62 121.734 494.733 124.569L494.739 124.707C494.842 127.266 496.839 128.709 499.535 128.601Z"></path>
<path fill="white" d="M543.821 134.996C535.939 135.313 531.167 132.041 530.81 123.122L530.196 107.841L525.771 108.018L525.35 97.5083L529.775 97.3307L529.395 87.858L542.463 87.3337L542.843 96.8065L551.555 96.457L551.977 106.967L543.265 107.316L543.775 120.039C543.881 122.666 545.1 123.726 547.521 123.629C549.249 123.559 550.889 123.009 552.449 122.184L552.859 132.418C550.561 133.826 547.486 134.849 543.821 134.996Z"></path>
<path fill="white" d="M561.676 133.518L561.135 120.035L574.756 119.489L575.297 132.972L561.676 133.518Z"></path>
<path mask="url(#path-1-outside-1_2355_22)" stroke-linejoin="round" stroke-width="5.87496" stroke="#E334C3" d="M64.0694 71.2454C55.4955 71.5894 47.2975 69.2173 41.0683 64.1345L48.1781 54.9153C53.1707 58.524 58.5062 60.3184 64.1068 60.0937C67.7715 59.9467 69.6576 58.6244 69.5744 56.5501L69.5688 56.4118C69.4856 54.3375 67.8537 53.3641 61.152 52.0401C50.7552 50.1025 42.6871 47.5174 42.2904 37.6298L42.2849 37.4915C41.9243 28.5027 48.7854 21.7175 60.4017 21.2514C68.6298 20.9213 75.149 22.876 80.5732 26.883L74.2462 36.6248C69.6934 33.6217 64.7895 32.2256 60.5025 32.3976C57.2527 32.5279 55.7151 33.9055 55.7873 35.7032L55.7928 35.8415C55.8816 38.0541 57.5799 38.9556 64.417 40.2049C75.5772 42.1811 82.6359 45.4993 82.9993 54.5572L83.0048 54.6955C83.4015 64.5831 75.824 70.7738 64.0694 71.2454Z"></path>
<path mask="url(#path-1-outside-1_2355_22)" stroke-linejoin="round" stroke-width="5.87496" stroke="#E334C3" d="M93.1697 69.2469L91.1447 18.7715L104.213 18.2472L106.238 68.7226L93.1697 69.2469Z"></path>
<path mask="url(#path-1-outside-1_2355_22)" stroke-linejoin="round" stroke-width="5.87496" stroke="#E334C3" d="M135.714 68.4404C123.96 68.912 115.346 61.3624 114.883 49.8153L114.878 49.677C114.439 38.7522 121.906 29.7957 132.969 29.3519C145.83 28.8359 152.156 38.0701 152.597 49.0641C152.631 49.8938 152.669 50.8618 152.636 51.7635L127.606 52.7676C128.807 56.8056 131.863 58.7606 135.943 58.5969C139.123 58.4693 141.496 57.1968 144.088 54.4611L151.589 60.1854C148.177 64.8932 143.113 68.1436 135.714 68.4404ZM127.13 46.069L140.198 45.5447C139.547 41.4154 136.953 38.8878 133.357 39.0321C129.9 39.1708 127.655 41.8926 127.13 46.069Z"></path>
<path mask="url(#path-1-outside-1_2355_22)" stroke-linejoin="round" stroke-width="5.87496" stroke="#E334C3" d="M181.104 66.6195C169.349 67.0911 160.736 59.5415 160.273 47.9944L160.267 47.8561C159.829 36.9313 167.295 27.9748 178.358 27.5309C191.219 27.015 197.546 36.2492 197.987 47.2432C198.02 48.0729 198.059 49.0409 198.026 49.9426L172.996 50.9467C174.196 54.9846 177.253 56.9397 181.332 56.776C184.513 56.6484 186.886 55.3759 189.477 52.6402L196.979 58.3645C193.566 63.0723 188.502 66.3227 181.104 66.6195ZM172.519 44.248L185.587 43.7238C184.937 39.5945 182.342 37.0669 178.747 37.2111C175.29 37.3498 173.044 40.0716 172.519 44.248Z"></path>
<path mask="url(#path-1-outside-1_2355_22)" stroke-linejoin="round" stroke-width="5.87496" stroke="#E334C3" d="M208.301 75.709L206.357 27.2388L219.494 26.7117L219.694 31.6901C222.128 28.476 225.2 25.6518 230.801 25.4271C239.72 25.0692 247.692 32.1598 248.172 44.1218L248.178 44.26C248.666 56.4295 241.288 64.1358 232.437 64.4909C226.767 64.7183 223.346 62.2931 220.812 59.5553L221.439 75.1819L208.301 75.709ZM227.986 53.6578C232.203 53.4886 235.522 49.8927 235.319 44.8451L235.314 44.7068C235.114 39.7284 231.516 36.3408 227.298 36.51C223.011 36.682 219.764 40.3443 219.964 45.3227L219.969 45.4609C220.169 50.4393 223.699 53.8298 227.986 53.6578Z"></path>
<path mask="url(#path-1-outside-1_2355_22)" stroke-linejoin="round" stroke-width="5.87496" stroke="#E334C3" d="M257.22 62.6656L256.679 49.1824L270.3 48.636L270.841 62.1191L257.22 62.6656Z"></path>
<path mask="url(#path-1-outside-1_2355_22)" stroke-linejoin="round" stroke-width="5.87496" stroke="#E334C3" d="M323.253 60.8475C314.679 61.1915 306.481 58.8194 300.252 53.7366L307.361 44.5174C312.354 48.1262 317.69 49.9206 323.29 49.6959C326.955 49.5489 328.841 48.2266 328.758 46.1523L328.752 46.014C328.669 43.9396 327.037 42.9663 320.335 41.6423C309.939 39.7047 301.871 37.1196 301.474 27.2319L301.468 27.0937C301.108 18.1049 307.969 11.3196 319.585 10.8536C327.813 10.5235 334.332 12.4781 339.757 16.4851L333.43 26.227C328.877 23.2239 323.973 21.8277 319.686 21.9997C316.436 22.1301 314.899 23.5076 314.971 25.3054L314.976 25.4437C315.065 27.6563 316.763 28.5577 323.6 29.8071C334.761 31.7833 341.819 35.1014 342.183 44.1593L342.188 44.2976C342.585 54.1853 335.007 60.376 323.253 60.8475Z"></path>
<path mask="url(#path-1-outside-1_2355_22)" stroke-linejoin="round" stroke-width="5.87496" stroke="#E334C3" d="M366.229 59.0542C358.346 59.3704 353.575 56.0991 353.217 47.1794L352.604 31.8985L348.179 32.0761L347.757 21.5661L352.182 21.3886L351.802 11.9158L364.871 11.3915L365.251 20.8643L373.963 20.5148L374.384 31.0247L365.672 31.3743L366.183 44.0968C366.288 46.7243 367.508 47.7835 369.928 47.6864C371.657 47.617 373.297 47.0664 374.856 46.2421L375.267 56.4754C372.969 57.8835 369.893 58.9072 366.229 59.0542Z"></path>
<path mask="url(#path-1-outside-1_2355_22)" stroke-linejoin="round" stroke-width="5.87496" stroke="#E334C3" d="M397.116 57.8843C389.164 58.2033 384.11 53.0734 383.769 44.5686L382.79 20.1607L395.928 19.6336L396.74 39.8929C396.904 43.9724 399.136 46.0991 402.317 45.9715C405.497 45.8439 407.76 43.5369 407.596 39.4574L406.783 19.1981L419.852 18.6738L421.352 56.081L408.284 56.6052L408.076 51.4194C405.781 54.628 402.44 57.6707 397.116 57.8843Z"></path>
<path mask="url(#path-1-outside-1_2355_22)" stroke-linejoin="round" stroke-width="5.87496" stroke="#E334C3" d="M447.093 55.8794C438.173 56.2372 430.201 49.1467 429.721 37.1847L429.716 37.0464C429.227 24.877 436.606 17.1706 445.456 16.8156C451.126 16.5881 454.548 19.0133 457.081 21.7511L456.374 4.11933L469.511 3.59229L471.536 54.0677L458.399 54.5947L458.199 49.6163C455.766 52.8305 452.693 55.6547 447.093 55.8794ZM450.593 44.7273C454.88 44.5553 458.126 40.893 457.927 35.9146L457.921 35.7764C457.724 30.8671 454.192 27.4075 449.905 27.5795C445.687 27.7487 442.371 31.4138 442.571 36.3922L442.577 36.5305C442.776 41.5089 446.375 44.8965 450.593 44.7273Z"></path>
<path mask="url(#path-1-outside-1_2355_22)" stroke-linejoin="round" stroke-width="5.87496" stroke="#E334C3" d="M499.896 38.04L506.045 15.216L519.528 14.6751L507.302 51.7325C504.405 60.6442 501.014 64.1738 493.546 64.4734C488.914 64.6592 484.992 63.57 481.454 61.7035L485.096 52.3464C487.289 53.505 489.463 54.1796 490.915 54.1213C492.229 54.0686 493.114 53.6868 493.965 52.4753L477.834 16.3477L491.524 15.7985L499.896 38.04Z"></path>
<path mask="url(#path-1-outside-1_2355_22)" stroke-linejoin="round" stroke-width="5.87496" stroke="#E334C3" d="M522.413 52.0266L521.872 38.5435L535.493 37.997L536.034 51.4802L522.413 52.0266Z"></path>
<path mask="url(#path-1-outside-1_2355_22)" stroke-linejoin="round" stroke-width="5.87496" stroke="#E334C3" d="M31.4604 155.62C22.8865 155.964 14.6884 153.592 8.45923 148.509L15.569 139.29C20.5617 142.899 25.8971 144.693 31.4978 144.469C35.1624 144.322 37.0485 142.999 36.9653 140.925L36.9598 140.787C36.8766 138.712 35.2446 137.739 28.543 136.415C18.1461 134.477 10.078 131.892 9.68136 122.005L9.67581 121.866C9.3152 112.878 16.1763 106.092 27.7926 105.626C36.0208 105.296 42.54 107.251 47.9641 111.258L41.6372 121C37.0843 117.997 32.1804 116.601 27.8935 116.773C24.6437 116.903 23.1061 118.28 23.1782 120.078L23.1837 120.216C23.2725 122.429 24.9708 123.331 31.808 124.58C42.9682 126.556 50.0268 129.874 50.3902 138.932L50.3958 139.07C50.7924 148.958 43.2149 155.149 31.4604 155.62Z"></path>
<path mask="url(#path-1-outside-1_2355_22)" stroke-linejoin="round" stroke-width="5.87496" stroke="#E334C3" d="M79.3348 153.769C67.442 154.246 58.4466 145.812 58.0195 135.163L58.0139 135.025C57.5867 124.377 65.9411 115.108 77.9031 114.628C89.865 114.148 98.8604 122.582 99.2876 133.231L99.2931 133.369C99.7203 144.017 91.3659 153.286 79.3348 153.769ZM79.0265 142.631C83.7975 142.44 86.7564 138.512 86.5761 134.018L86.5705 133.879C86.3847 129.247 82.8413 125.511 78.2086 125.696C73.4376 125.888 70.5479 129.813 70.7309 134.376L70.7365 134.515C70.9196 139.078 74.3938 142.817 79.0265 142.631Z"></path>
<path mask="url(#path-1-outside-1_2355_22)" stroke-linejoin="round" stroke-width="5.87496" stroke="#E334C3" d="M127.2 151.849C115.86 152.304 107.277 143.783 106.853 133.204L106.847 133.066C106.423 122.487 114.224 113.24 126.048 112.766C133.723 112.458 138.972 115.571 142.353 120.422L133.769 127.415C131.805 125.07 129.738 123.629 126.627 123.754C122.34 123.926 119.381 127.854 119.564 132.417L119.57 132.556C119.764 137.396 122.953 140.938 127.378 140.761C130.559 140.633 132.506 139.101 134.414 136.6L143.451 142.609C140.199 147.864 135.359 151.521 127.2 151.849Z"></path>
<path mask="url(#path-1-outside-1_2355_22)" stroke-linejoin="round" stroke-width="5.87496" stroke="#E334C3" d="M150.304 109.161L149.916 99.4805L163.537 98.934L163.926 108.614L150.304 109.161ZM152.217 149.945L150.717 112.538L163.785 112.013L165.286 149.421L152.217 149.945Z"></path>
<path mask="url(#path-1-outside-1_2355_22)" stroke-linejoin="round" stroke-width="5.87496" stroke="#E334C3" d="M186.877 149.385C179.755 149.671 174.195 145.739 173.899 138.34L173.893 138.202C173.58 130.389 179.299 126.212 188.08 125.859C191.537 125.721 194.95 126.207 197.127 126.951L197.102 126.329C196.944 122.387 194.435 120.272 189.388 120.474C185.446 120.632 182.437 121.584 179.099 122.965L176.034 113.877C180.182 111.979 184.629 110.623 191.06 110.365C197.767 110.096 202.394 111.503 205.487 114.357C208.432 117.009 209.763 120.834 209.974 126.089L210.837 147.593L197.907 148.112L197.749 144.171C195.235 147.111 191.786 149.188 186.877 149.385ZM191.249 140.969C195.121 140.813 197.72 138.285 197.571 134.551L197.501 132.823C196.096 132.325 194.213 131.985 192.276 132.063C188.474 132.215 186.333 134.102 186.447 136.937L186.452 137.075C186.555 139.633 188.552 141.077 191.249 140.969Z"></path>
<path mask="url(#path-1-outside-1_2355_22)" stroke-linejoin="round" stroke-width="5.87496" stroke="#E334C3" d="M221.321 147.173L219.296 96.6971L232.365 96.1728L234.39 146.648L221.321 147.173Z"></path>
<path mask="url(#path-1-outside-1_2355_22)" stroke-linejoin="round" stroke-width="5.87496" stroke="#E334C3" d="M244.746 146.233L244.205 132.75L257.827 132.203L258.368 145.686L244.746 146.233Z"></path>
<path mask="url(#path-1-outside-1_2355_22)" stroke-linejoin="round" stroke-width="5.87496" stroke="#E334C3" d="M291.731 144.348L289.79 95.9467L312.676 95.0286C320.075 94.7318 325.269 96.4625 328.649 99.582C331.598 102.303 333.197 105.91 333.388 110.681L333.394 110.819C333.694 118.286 329.949 123.354 324.036 126.153L336.26 142.561L320.841 143.18L310.504 128.913L304.557 129.151L305.145 143.81L291.731 144.348ZM304.136 118.641L313.055 118.283C317.55 118.103 320.158 115.782 320.016 112.256L320.011 112.118C319.855 108.245 316.943 106.423 312.517 106.601L303.667 106.956L304.136 118.641Z"></path>
<path mask="url(#path-1-outside-1_2355_22)" stroke-linejoin="round" stroke-width="5.87496" stroke="#E334C3" d="M362.086 142.426C350.332 142.897 341.718 135.348 341.255 123.801L341.249 123.662C340.811 112.737 348.278 103.781 359.341 103.337C372.202 102.821 378.528 112.055 378.969 123.049C379.002 123.879 379.041 124.847 379.008 125.749L353.978 126.753C355.179 130.791 358.235 132.746 362.315 132.582C365.495 132.455 367.868 131.182 370.459 128.446L377.961 134.171C374.548 138.878 369.485 142.129 362.086 142.426ZM353.501 120.054L366.57 119.53C365.919 115.401 363.325 112.873 359.729 113.017C356.272 113.156 354.026 115.878 353.501 120.054Z"></path>
<path mask="url(#path-1-outside-1_2355_22)" stroke-linejoin="round" stroke-width="5.87496" stroke="#E334C3" d="M389.284 151.515L387.339 103.045L400.477 102.518L400.676 107.496C403.11 104.282 406.182 101.458 411.783 101.233C420.703 100.875 428.674 107.966 429.154 119.928L429.16 120.066C429.648 132.236 422.27 139.942 413.419 140.297C407.749 140.525 404.328 138.099 401.794 135.361L402.421 150.988L389.284 151.515ZM408.968 129.464C413.186 129.295 416.504 125.699 416.302 120.651L416.296 120.513C416.096 115.535 412.498 112.147 408.28 112.316C403.993 112.488 400.746 116.15 400.946 121.129L400.952 121.267C401.151 126.246 404.681 129.636 408.968 129.464Z"></path>
<path mask="url(#path-1-outside-1_2355_22)" stroke-linejoin="round" stroke-width="5.87496" stroke="#E334C3" d="M457.659 138.591C445.905 139.063 437.291 131.513 436.828 119.966L436.822 119.828C436.384 108.903 443.851 99.9467 454.914 99.5029C467.775 98.987 474.101 108.221 474.542 119.215C474.576 120.045 474.614 121.013 474.581 121.915L449.551 122.919C450.752 126.957 453.808 128.912 457.888 128.748C461.068 128.62 463.441 127.348 466.033 124.612L473.534 130.337C470.122 135.044 465.058 138.295 457.659 138.591ZM449.074 116.22L462.143 115.696C461.492 111.567 458.898 109.039 455.302 109.183C451.845 109.322 449.6 112.044 449.074 116.22Z"></path>
<path mask="url(#path-1-outside-1_2355_22)" stroke-linejoin="round" stroke-width="5.87496" stroke="#E334C3" d="M495.164 137.018C488.042 137.303 482.482 133.371 482.185 125.973L482.18 125.834C481.866 118.021 487.585 113.844 496.367 113.492C499.824 113.353 503.237 113.839 505.414 114.583L505.389 113.961C505.231 110.02 502.722 107.904 497.674 108.107C493.733 108.265 490.724 109.216 487.386 110.597L484.32 101.509C488.469 99.6111 492.916 98.2554 499.346 97.9974C506.053 97.7283 510.681 99.1356 513.773 101.99C516.719 104.642 518.05 108.466 518.261 113.721L519.123 135.225L506.193 135.744L506.035 131.803C503.522 134.743 500.073 136.821 495.164 137.018ZM499.535 128.601C503.407 128.445 506.007 125.917 505.857 122.183L505.788 120.455C504.383 119.957 502.499 119.617 500.563 119.695C496.76 119.847 494.62 121.734 494.733 124.569L494.739 124.707C494.842 127.266 496.839 128.709 499.535 128.601Z"></path>
<path mask="url(#path-1-outside-1_2355_22)" stroke-linejoin="round" stroke-width="5.87496" stroke="#E334C3" d="M543.821 134.996C535.939 135.313 531.167 132.041 530.81 123.122L530.196 107.841L525.771 108.018L525.35 97.5083L529.775 97.3307L529.395 87.858L542.463 87.3337L542.843 96.8065L551.555 96.457L551.977 106.967L543.265 107.316L543.775 120.039C543.881 122.666 545.1 123.726 547.521 123.629C549.249 123.559 550.889 123.009 552.449 122.184L552.859 132.418C550.561 133.826 547.486 134.849 543.821 134.996Z"></path>
<path mask="url(#path-1-outside-1_2355_22)" stroke-linejoin="round" stroke-width="5.87496" stroke="#E334C3" d="M561.676 133.518L561.135 120.035L574.756 119.489L575.297 132.972L561.676 133.518Z"></path>
</g>
<defs>
<filter color-interpolation-filters="sRGB" filterUnits="userSpaceOnUse" height="162.831" width="577.609" y="0.654785" x="0.625928" id="filter0_d_2355_22">
<feFlood result="BackgroundImageFix" flood-opacity="0"></feFlood>
<feColorMatrix result="hardAlpha" values="0 0 0 0 0 0 0 0 0 0 0 0 0 0 0 0 0 0 127 0" type="matrix" in="SourceAlpha"></feColorMatrix>
<feOffset dy="4.8958" dx="-4.8958"></feOffset>
<feComposite operator="out" in2="hardAlpha"></feComposite>
<feColorMatrix values="0 0 0 0 0.890196 0 0 0 0 0.203922 0 0 0 0 0.764706 0 0 0 1 0" type="matrix"></feColorMatrix>
<feBlend result="effect1_dropShadow_2355_22" in2="BackgroundImageFix" mode="normal"></feBlend>
<feBlend result="shape" in2="effect1_dropShadow_2355_22" in="SourceGraphic" mode="normal"></feBlend>
</filter>
</defs>
</svg>
