<svg width="23" height="24" viewBox="0 0 23 24" fill="none" xmlns="http://www.w3.org/2000/svg">
<path d="M22.975 11.5044C22.975 17.8584 17.8307 23.0089 11.4865 23.0089C5.14231 23.0089 0 17.8584 0 11.5044C0 5.15043 5.14133 0 11.4855 0C17.8298 0 22.974 5.15141 22.974 11.5044H22.975Z" fill="#510C76"/>
<path d="M12.5631 11.2566L16.7854 6.1414V5.01331H10.955V6.18453H15.0246L10.8023 11.3007V12.4395H16.9273V11.2566H12.5631Z" fill="white"/>
<path d="M9.80601 10.0725V9.0993H5.37427V10.1794H8.17249L5.26465 13.7028V14.6829H9.90976V13.596H6.89817L9.80601 10.0725Z" fill="white"/>
<path d="M14.4217 14.485V13.5637H10.8405V14.6595H12.749L10.7592 17.0695V17.9967H14.497V16.8951H12.4329L14.4217 14.485Z" fill="white"/>
</svg>
