<svg width="23" height="24" viewBox="0 0 23 24" fill="none" xmlns="http://www.w3.org/2000/svg">
<path d="M22.975 12.3731C22.975 18.7271 17.8307 23.8775 11.4865 23.8775C5.14231 23.8775 0 18.7271 0 12.3731C0 6.01909 5.14133 0.868652 11.4855 0.868652C17.8298 0.868652 22.974 6.02007 22.974 12.3731H22.975Z" fill="#F99C25"/>
<path d="M13.0707 12.4164C13.0707 13.2913 12.3598 14.0032 11.4851 14.0032C10.6104 14.0032 9.89948 13.2913 9.89948 12.4164C9.89948 11.5416 10.6104 10.8286 11.4851 10.8286C12.3598 10.8286 13.0707 11.5384 13.0707 12.4164Z" fill="white"/>
<path d="M12.2091 7.47177C12.2091 9.07578 11.8848 10.3745 11.4841 10.3745C11.0834 10.3745 10.7592 9.07578 10.7592 7.47177C10.7592 5.86777 11.0834 4.56903 11.4841 4.56903C11.8848 4.56903 12.2091 5.86885 12.2091 7.47177Z" fill="white"/>
<path d="M12.2091 17.2695C12.2091 15.6665 11.8848 14.3667 11.4841 14.3667C11.0834 14.3667 10.7592 15.6655 10.7592 17.2695C10.7592 18.8735 11.0834 20.1722 11.4841 20.1722C11.8848 20.1722 12.2091 18.8724 12.2091 17.2695Z" fill="white"/>
<path d="M16.3755 13.0961C14.7759 13.0961 13.4768 12.7714 13.4768 12.3701C13.4768 11.9688 14.7748 11.6442 16.3755 11.6442C17.9762 11.6442 19.2753 11.9688 19.2753 12.3701C19.2753 12.7714 17.9784 13.0961 16.3755 13.0961Z" fill="white"/>
<path d="M6.59474 13.0961C8.19437 13.0961 9.49346 12.7714 9.49346 12.3701C9.49346 11.9688 8.19544 11.6442 6.59474 11.6442C4.99404 11.6442 3.69495 11.9688 3.69495 12.3701C3.69495 12.7714 4.99188 13.0961 6.59474 13.0961Z" fill="white"/>
<path d="M15.352 15.4584C13.9678 14.6537 13.007 13.7195 13.2095 13.3733C13.4088 13.0249 14.6949 13.3959 16.0802 14.2028C17.4655 15.0075 18.4242 15.9406 18.2227 16.2857C18.0224 16.6342 16.7362 16.2631 15.3531 15.4573L15.352 15.4584Z" fill="white"/>
<path d="M6.89095 10.5396C8.27621 11.3443 9.56022 11.7153 9.76058 11.3701C9.96202 11.0239 9.00116 10.0908 7.61805 9.28396C6.23386 8.48034 4.94877 8.1082 4.74842 8.45446C4.54806 8.79964 5.50568 9.73378 6.89095 10.5396Z" fill="white"/>
<path d="M13.1958 17.0182C12.4267 15.6105 12.0895 14.3129 12.4396 14.1209C12.7919 13.9288 13.6999 14.9148 14.4669 16.3203C15.236 17.7269 15.5732 19.0235 15.222 19.2144C14.8708 19.4075 13.9628 18.4227 13.1969 17.0171L13.1958 17.0182Z" fill="white"/>
<path d="M8.50338 8.42106C9.27034 9.82659 10.1773 10.8114 10.5285 10.6194C10.8797 10.4274 10.5425 9.13084 9.77339 7.72423C9.00643 6.31655 8.09943 5.33279 7.74827 5.52587C7.39711 5.7168 7.73427 7.01446 8.50338 8.41999V8.42106Z" fill="white"/>
<path d="M7.54353 15.3624C9.03436 14.7799 10.1266 14.0065 9.98013 13.6322C9.83579 13.26 8.50761 13.4272 7.01678 14.0097C5.52595 14.5911 4.4326 15.3656 4.58018 15.741C4.72345 16.1121 6.0527 15.9427 7.54353 15.3624Z" fill="white"/>
<path d="M12.9351 7.76843C12.347 9.26025 12.1746 10.586 12.5484 10.7348C12.92 10.8804 13.6967 9.78988 14.2827 8.29806C14.8708 6.80624 15.0421 5.47838 14.6683 5.33168C14.2977 5.18282 13.5211 6.27661 12.9351 7.76843Z" fill="white"/>
<path d="M8.13373 16.1919C9.1646 14.9632 10.2483 14.178 10.5553 14.4358C10.8623 14.6914 10.2741 15.8974 9.24539 17.1228C8.21452 18.3503 7.13087 19.1356 6.82495 18.8789C6.51687 18.62 7.10502 17.4173 8.13373 16.1919Z" fill="white"/>
<path d="M15.2692 9.04453C13.996 10.0153 13.1612 11.0627 13.4036 11.382C13.6448 11.6992 14.875 11.1695 16.1482 10.1966C17.4215 9.22682 18.2563 8.17942 18.0139 7.86013C17.7716 7.543 16.5403 8.07263 15.2692 9.04345V9.04453Z" fill="white"/>
</svg>
