<svg width="19" height="20" viewBox="0 0 19 20" fill="none" xmlns="http://www.w3.org/2000/svg">
<path d="M19 9.50081C19 14.7482 14.7458 19.0016 9.49919 19.0016C4.25262 19.0016 0 14.7482 0 9.50081C0 4.25343 4.25181 0 9.49838 0C14.745 0 18.9992 4.25424 18.9992 9.50081H19Z" fill="#A4CD39"/>
<path d="M8.69711 5.66595C8.69711 5.66595 8.96098 5.35918 9.06296 5.63519C9.36083 6.4365 9.01359 7.10993 9.01359 7.10993C9.01359 7.10993 9.19814 7.33899 9.26127 7.55753C9.3244 7.77607 9.29769 7.65466 9.35111 7.891C9.40534 8.12816 9.42396 8.36612 9.42396 8.36612C9.42396 8.36612 9.62307 8.12897 9.81328 8.02294C9.96302 7.93876 10.1613 7.93147 10.1613 7.93147C10.1613 7.93147 9.99864 7.63037 10.0391 7.38189C10.1921 6.45107 10.7522 6.06903 10.9238 6.13783C11.0954 6.20663 11.0768 6.20663 11.0768 6.20663C11.0768 6.20663 11.3293 5.64085 12.0076 5.57367C12.4082 5.53401 12.2277 5.77764 12.2277 5.77764C12.2277 5.77764 12.9837 5.35999 13.7009 5.68051C13.9275 5.78169 13.7081 5.97838 13.7081 5.97838C13.7081 5.97838 14.8753 5.90958 14.677 6.52796C14.5111 7.04598 14.1655 7.09293 14.1655 7.09293C14.1655 7.09293 14.4358 7.11074 14.2618 7.44016C13.9663 8.00108 13.2581 8.18644 13.2581 8.18644C13.2581 8.18644 13.6191 8.28518 13.3439 8.52558C13.0687 8.76597 12.6057 9.02984 11.9922 9.09216C11.3665 9.15611 10.8768 8.99989 10.5798 8.82425C10.2423 8.62513 10.2593 8.22933 10.2593 8.22933C10.2593 8.22933 9.479 8.10954 9.5478 9.44992C9.60122 10.4981 9.50733 11.0291 9.50733 11.0291C9.50733 11.0291 9.56561 10.8842 9.77119 10.8227C9.96383 10.7652 10.0537 10.7765 10.0537 10.7765C10.0537 10.7765 9.96707 10.4139 10.1298 10.1816C10.4883 9.67008 11.0306 9.49929 11.1334 9.56809C11.2362 9.63689 11.1609 9.7324 11.1609 9.7324C11.1609 9.7324 11.6191 9.38193 12.1743 9.54705C12.4398 9.62637 12.2277 9.8012 12.2277 9.8012C12.2277 9.8012 13.2889 9.50982 13.7162 10.265C13.8385 10.4811 13.5689 10.4892 13.5689 10.4892C13.5689 10.4892 14.3451 10.5944 14.7337 11.2606C15.1157 11.9154 14.6066 11.9154 14.6066 11.9154C14.6066 11.9154 14.7385 12.0659 14.9166 12.2756C15.2412 12.6568 15.0542 13.2177 14.7693 13.3804C14.3071 13.6443 13.8595 13.4176 13.7519 13.3804C13.7519 13.3804 13.8409 13.7325 13.5309 13.7665C13.2217 13.8005 12.7773 13.4816 12.7773 13.4816C12.7773 13.4816 12.923 13.9769 12.2884 13.8053C11.6539 13.6337 11.2977 13.2412 11.2977 13.2412C11.2977 13.2412 11.5252 13.6151 11.0509 13.5059C10.5134 13.3828 10.0893 12.6058 9.91365 12.0263C9.772 11.5584 9.99054 11.0663 9.99054 11.0663C9.99054 11.0663 9.67002 11.059 9.54213 11.4872C9.47091 11.7268 9.30174 14.2044 9.30174 14.2044C9.30174 14.2044 9.16414 14.6512 8.88894 14.2044C8.61374 13.7576 9.09291 10.902 9.12934 10.524C9.19652 9.83843 9.27341 9.76721 8.92213 9.5001C8.73516 9.35765 8.49476 9.48715 8.49476 9.48715C8.49476 9.48715 8.1969 10.6389 7.35026 10.7612C7.00788 10.8105 6.99898 10.5629 6.99898 10.5629C6.99898 10.5629 6.70193 10.9174 6.22033 11.021C5.73873 11.1238 5.78568 10.7693 5.78568 10.7693C5.78568 10.7693 5.19805 11.2274 4.3587 10.9449C4.1183 10.864 4.2899 10.6171 4.2899 10.6171C4.2899 10.6171 3.6796 10.7393 3.43516 10.2966C3.32751 10.1015 3.81639 9.70164 3.81639 9.70164C3.81639 9.70164 3.52258 9.8093 3.62537 9.4653C3.72817 9.1213 4.3765 8.71255 4.3765 8.71255C4.3765 8.71255 3.86901 8.54015 4.3765 8.26576C5.30408 7.76393 6.0973 7.92419 6.0973 7.92419C6.0973 7.92419 5.84558 7.70322 6.25028 7.66437C6.66227 7.62552 7.15843 8.10711 7.15843 8.10711C7.15843 8.10711 6.92532 7.80763 7.26689 7.85296C7.517 7.88615 8.08925 8.34427 8.22685 8.65346C8.36445 8.96266 8.47048 9.12535 8.47048 9.12535C8.47048 9.12535 8.64693 9.06545 8.9367 9.17553C9.19571 9.27428 9.11962 8.99908 9.11962 8.99908C9.11962 8.99908 9.04354 7.67165 8.76834 7.39646C8.49314 7.12126 8.2568 7.60285 7.53238 7.21353C7.12444 6.99499 6.8978 6.69308 6.87595 6.51906C6.86057 6.39684 7.12039 6.40493 7.12039 6.40493C7.12039 6.40493 6.58618 6.18397 6.43401 5.67242C6.34336 5.36889 6.7772 5.36727 6.7772 5.36727C6.7772 5.36727 6.27699 4.8104 6.65498 4.6728C7.03297 4.53521 7.44253 4.88325 7.44253 4.88325C7.44253 4.88325 7.38668 4.39275 7.79948 4.69628C8.21228 4.9998 8.16533 5.08965 8.16533 5.08965C8.16533 5.08965 8.26732 4.73594 8.44053 4.95205C8.7303 5.31385 8.69226 5.66514 8.69226 5.66514L8.69711 5.66595Z" fill="white"/>
</svg>
