<svg xmlns="http://www.w3.org/2000/svg" fill="none" viewBox="0 0 20 20" height="20" width="20">
<g clip-path="url(#clip0_43_245)">
<path fill="#C3B0FF" d="M16.1958 2.00224L14.3755 2.208C12.8101 2.38468 11.4706 3.19431 10.5784 4.3506C11.9827 5.75739 12.5888 7.87092 11.9783 9.9084C11.9783 9.9084 11.976 9.91735 11.9738 9.9263C14.778 9.3515 16.728 6.72133 16.3993 3.82054L16.1936 2L16.1958 2.00224Z"></path>
<path fill="#81ECA2" d="M9.65705 10.2148L9.45132 8.39424C9.28136 6.89129 9.72414 5.46214 10.5784 4.35282C9.94553 3.71764 9.14942 3.2256 8.22809 2.95051L5.1555 2.02905L4.2364 5.09982C3.35085 8.05876 5.03027 11.1743 7.98658 12.0599L9.60115 12.543C8.74466 15.4751 6.33176 16.2602 6.33176 16.2602L7.42528 17.2554C7.42528 17.2554 9.58102 16.665 11.0614 12.9724C11.408 12.1047 11.9313 10.0963 11.976 9.92404C11.8128 9.95758 11.6473 9.98442 11.4774 10.0046L9.65705 10.2103V10.2148Z"></path>
<path fill="#13A74B" d="M10.5779 4.35278C9.72138 5.46211 9.2786 6.89349 9.45079 8.39421L9.65653 10.2148L11.4768 10.009C11.6468 9.98886 11.8123 9.96202 11.9755 9.92848C11.9755 9.92177 11.98 9.91058 11.98 9.91058C12.5905 7.8731 11.9822 5.75957 10.5801 4.35278H10.5779Z"></path>
</g>
<defs>
<clipPath id="clip0_43_245">
<rect fill="white" height="20" width="20"></rect>
</clipPath>
</defs>
</svg>
