<svg xmlns="http://www.w3.org/2000/svg" fill="none" viewBox="0 0 102 102" height="102" width="102">
<path stroke-width="2" stroke="#E6421E" d="M51.3461 2.15507L50.6704 1.53553L49.9946 2.15507L44.8967 6.82875L38.7655 3.63205L37.9522 3.20797L37.4596 3.98182L33.7462 9.81614L26.9982 8.31617L26.1031 8.11721L25.8275 8.99172L23.7489 15.5861L16.8423 15.8869L15.9266 15.9267L15.8868 16.8424L15.586 23.749L8.99163 25.8276L8.11712 26.1032L8.31608 26.9983L9.81605 33.7463L3.98173 37.4597L3.20787 37.9523L3.63196 38.7656L6.82866 44.8968L2.15498 49.9947L1.53544 50.6705L2.15498 51.3462L6.82866 56.4441L3.63196 62.5753L3.20787 63.3887L3.98173 63.8812L9.81605 67.5947L8.31608 74.3426L8.11712 75.2377L8.99163 75.5134L15.586 77.5919L15.8868 84.4985L15.9266 85.4142L16.8423 85.4541L23.7489 85.7549L25.8275 92.3492L26.1031 93.2237L26.9982 93.0248L33.7462 91.5248L37.4596 97.3591L37.9522 98.133L38.7655 97.7089L44.8967 94.5122L49.9946 99.1859L50.6704 99.8054L51.3461 99.1859L56.444 94.5122L62.5752 97.7089L63.3886 98.133L63.8811 97.3591L67.5946 91.5248L74.3425 93.0248L75.2376 93.2237L75.5133 92.3492L77.5918 85.7549L84.4984 85.4541L85.4141 85.4142L85.454 84.4985L85.7548 77.5919L92.3491 75.5134L93.2236 75.2377L93.0247 74.3426L91.5247 67.5947L97.359 63.8812L98.1329 63.3887L97.7088 62.5753L94.5121 56.4441L99.1858 51.3462L99.8053 50.6705L99.1858 49.9947L94.5121 44.8968L97.7088 38.7656L98.1329 37.9523L97.359 37.4597L91.5247 33.7463L93.0247 26.9983L93.2236 26.1032L92.3491 25.8276L85.7548 23.749L85.454 16.8424L85.4141 15.9267L84.4984 15.8869L77.5918 15.5861L75.5133 8.99172L75.2376 8.11721L74.3425 8.31617L67.5946 9.81615L63.8811 3.98182L63.3886 3.20797L62.5752 3.63205L56.444 6.82875L51.3461 2.15507Z"></path>
</svg>