<svg xmlns="http://www.w3.org/2000/svg" fill="none" viewBox="0 0 68 49" height="49" width="68">
<path fill="#E6421E" d="M0.688049 10.7232L1.89471 0.154022L4.21994 0.419487L3.25461 8.87487L8.52412 9.47647L8.28279 11.5903L0.688049 10.7232Z"></path>
<path fill="#E6421E" d="M10.746 11.8715L11.9527 1.30232L14.2779 1.56778L13.0713 12.137L10.746 11.8715Z"></path>
<path fill="#E6421E" d="M16.3166 12.5075L17.5232 1.93829L20.0297 2.22444L22.2976 7.01089L25.586 2.8588L28.0925 3.14495L26.8858 13.7142L24.5757 13.4504L25.3634 6.55024L21.8735 10.7252L21.8132 10.7183L19.3791 5.91291L18.5965 12.7678L16.3166 12.5075Z"></path>
<path fill="#E6421E" d="M30.1345 14.0851L31.3412 3.51585L33.6664 3.78132L32.4598 14.3505L30.1345 14.0851Z"></path>
<path fill="#E6421E" d="M38.1662 15.002L39.1281 6.57685L35.912 6.20968L36.1568 4.06563L44.9142 5.06544L44.6694 7.20948L41.4533 6.84231L40.4914 15.2675L38.1662 15.002Z"></path>
<path fill="#E6421E" d="M46.0997 15.9078L47.3064 5.33855L55.2786 6.24872L55.0424 8.31727L49.3804 7.67084L49.1356 9.81489L54.1182 10.3837L53.882 12.4523L48.8994 11.8834L48.646 14.103L54.3836 14.758L54.1474 16.8266L46.0997 15.9078Z"></path>
<path fill="#E6421E" d="M56.8188 17.1315L58.0254 6.56232L62.1474 7.03291C65.4692 7.41215 67.5039 9.9541 67.1643 12.9286L67.1609 12.9588C66.8213 15.9333 64.2625 17.9814 60.9408 17.6021L56.8188 17.1315ZM61.9078 9.13166L60.111 8.92653L59.3836 15.2983L61.1804 15.5034C63.0828 15.7206 64.5127 14.5837 64.7265 12.7114L64.7299 12.6812C64.9437 10.809 63.8103 9.34886 61.9078 9.13166Z"></path>
<path fill="#E6421E" d="M15.3559 28.5018L16.3178 20.0766L13.1017 19.7094L13.3465 17.5654L22.1038 18.5652L21.8591 20.7092L18.643 20.3421L17.6811 28.7672L15.3559 28.5018Z"></path>
<path fill="#E6421E" d="M23.3951 29.4196L24.6018 18.8504L26.927 19.1158L25.7203 29.6851L23.3951 29.4196Z"></path>
<path fill="#E6421E" d="M28.9657 30.0556L30.1723 19.4863L32.6787 19.7725L34.9467 24.5589L38.2351 20.4068L40.7415 20.693L39.5349 31.2622L37.2247 30.9985L38.0125 24.0983L34.5226 28.2733L34.4622 28.2664L32.0282 23.461L31.2456 30.3159L28.9657 30.0556Z"></path>
<path fill="#E6421E" d="M42.6779 31.6211L43.8846 21.0518L51.8568 21.962L51.6206 24.0305L45.9586 23.3841L45.7138 25.5282L50.6964 26.097L50.4602 28.1656L45.4776 27.5967L45.2242 29.8162L50.9618 30.4713L50.7256 32.5398L42.6779 31.6211Z"></path>
<path fill="#E6421E" d="M13.7599 44.607C10.4985 44.2347 8.43574 41.5366 8.77878 38.5319L8.78223 38.5017C9.12526 35.497 11.7768 33.3066 15.0381 33.6789C18.2995 34.0512 20.3623 36.7494 20.0192 39.754L20.0158 39.7842C19.6728 42.7889 17.0213 44.9794 13.7599 44.607ZM14.0349 42.4664C15.9071 42.6802 17.3746 41.3488 17.5814 39.5369L17.5849 39.5067C17.7917 37.6948 16.6354 36.0332 14.7632 35.8195C12.8909 35.6057 11.4235 36.9372 11.2166 38.7491L11.2131 38.7793C11.0063 40.5911 12.1626 42.2527 14.0349 42.4664Z"></path>
<path fill="#E6421E" d="M22.0791 45.3733L23.2857 34.8041L25.4298 35.0488L29.6393 42.1219L30.3822 35.6142L32.6772 35.8763L31.4706 46.4455L29.4926 46.2197L25.1412 38.9163L24.3741 45.6353L22.0791 45.3733Z"></path>
<path fill="#E6421E" d="M34.6117 46.8041L35.8184 36.2349L38.1436 36.5003L37.1783 44.9557L42.4478 45.5573L42.2065 47.6712L34.6117 46.8041Z"></path>
<path fill="#E6421E" d="M45.5774 48.056L46.0532 43.8887L42.7225 37.0231L45.4403 37.3334L47.4774 41.864L50.5286 37.9143L53.1709 38.216L48.3836 44.1089L47.9027 48.3215L45.5774 48.056Z"></path>
</svg>