<svg width="580" height="209" viewBox="0 0 580 209" fill="none" xmlns="http://www.w3.org/2000/svg">
<path d="M0.12 1.4H50.2V16.2H35.24V57H15.16V16.2H0.12V1.4ZM86.0619 35.8H74.6219V57H54.5419V1.4H74.6219V21.32H86.0619V1.4H106.142V57H86.0619V35.8ZM111.592 1.4H131.672V57H111.592V1.4ZM156.919 58.12C154.359 58.12 151.959 57.9333 149.719 57.56C147.533 57.24 145.586 56.84 143.879 56.36C142.173 55.88 140.733 55.4 139.559 54.92C138.386 54.3867 137.533 53.96 136.999 53.64V40.28C139.079 41.1333 141.506 41.9067 144.279 42.6C147.106 43.2933 150.279 43.64 153.799 43.64C156.466 43.64 158.279 43.32 159.239 42.68C160.199 41.9867 160.679 41.0533 160.679 39.88C160.679 38.8667 160.306 38.0933 159.559 37.56C158.866 37.0267 157.746 36.5467 156.199 36.12L154.919 35.8C152.199 35.1067 149.666 34.3067 147.319 33.4C145.026 32.4933 143.026 31.3733 141.319 30.04C139.666 28.6533 138.359 27 137.399 25.08C136.493 23.16 136.039 20.84 136.039 18.12C136.039 15.56 136.519 13.2133 137.479 11.08C138.493 8.89333 139.933 7 141.799 5.4C143.666 3.8 145.959 2.54667 148.679 1.64C151.399 0.73333 154.493 0.279996 157.959 0.279996C160.199 0.279996 162.279 0.413329 164.199 0.679996C166.173 0.893329 167.933 1.18666 169.479 1.56C171.079 1.93333 172.466 2.33333 173.639 2.76C174.866 3.18666 175.826 3.58666 176.519 3.96V17.16C174.759 16.5733 172.626 16.04 170.119 15.56C167.613 15.0267 164.839 14.76 161.799 14.76C159.559 14.76 157.986 15.0267 157.079 15.56C156.226 16.04 155.799 16.76 155.799 17.72C155.799 18.6267 156.146 19.32 156.839 19.8C157.533 20.2267 158.679 20.6533 160.279 21.08L161.479 21.4C164.253 22.0933 166.786 22.8933 169.079 23.8C171.373 24.7067 173.346 25.8267 174.999 27.16C176.706 28.44 178.013 30.04 178.919 31.96C179.879 33.88 180.359 36.2 180.359 38.92C180.359 41.7467 179.853 44.36 178.839 46.76C177.826 49.1067 176.333 51.1333 174.359 52.84C172.386 54.4933 169.933 55.8 166.999 56.76C164.066 57.6667 160.706 58.12 156.919 58.12ZM196.804 1.4H216.884V57H196.804V1.4ZM242.132 58.12C239.572 58.12 237.172 57.9333 234.932 57.56C232.745 57.24 230.799 56.84 229.092 56.36C227.385 55.88 225.945 55.4 224.772 54.92C223.599 54.3867 222.745 53.96 222.212 53.64V40.28C224.292 41.1333 226.719 41.9067 229.492 42.6C232.319 43.2933 235.492 43.64 239.012 43.64C241.679 43.64 243.492 43.32 244.452 42.68C245.412 41.9867 245.892 41.0533 245.892 39.88C245.892 38.8667 245.519 38.0933 244.772 37.56C244.079 37.0267 242.959 36.5467 241.412 36.12L240.132 35.8C237.412 35.1067 234.879 34.3067 232.532 33.4C230.239 32.4933 228.239 31.3733 226.532 30.04C224.879 28.6533 223.572 27 222.612 25.08C221.705 23.16 221.252 20.84 221.252 18.12C221.252 15.56 221.732 13.2133 222.692 11.08C223.705 8.89333 225.145 7 227.012 5.4C228.879 3.8 231.172 2.54667 233.892 1.64C236.612 0.73333 239.705 0.279996 243.172 0.279996C245.412 0.279996 247.492 0.413329 249.412 0.679996C251.385 0.893329 253.145 1.18666 254.692 1.56C256.292 1.93333 257.679 2.33333 258.852 2.76C260.079 3.18666 261.039 3.58666 261.732 3.96V17.16C259.972 16.5733 257.839 16.04 255.332 15.56C252.825 15.0267 250.052 14.76 247.012 14.76C244.772 14.76 243.199 15.0267 242.292 15.56C241.439 16.04 241.012 16.76 241.012 17.72C241.012 18.6267 241.359 19.32 242.052 19.8C242.745 20.2267 243.892 20.6533 245.492 21.08L246.692 21.4C249.465 22.0933 251.999 22.8933 254.292 23.8C256.585 24.7067 258.559 25.8267 260.212 27.16C261.919 28.44 263.225 30.04 264.132 31.96C265.092 33.88 265.572 36.2 265.572 38.92C265.572 41.7467 265.065 44.36 264.052 46.76C263.039 49.1067 261.545 51.1333 259.572 52.84C257.599 54.4933 255.145 55.8 252.212 56.76C249.279 57.6667 245.919 58.12 242.132 58.12ZM301.857 58.12C299.297 58.12 296.897 57.9333 294.657 57.56C292.47 57.24 290.524 56.84 288.817 56.36C287.11 55.88 285.67 55.4 284.497 54.92C283.324 54.3867 282.47 53.96 281.937 53.64V40.28C284.017 41.1333 286.444 41.9067 289.217 42.6C292.044 43.2933 295.217 43.64 298.737 43.64C301.404 43.64 303.217 43.32 304.177 42.68C305.137 41.9867 305.617 41.0533 305.617 39.88C305.617 38.8667 305.244 38.0933 304.497 37.56C303.804 37.0267 302.684 36.5467 301.137 36.12L299.857 35.8C297.137 35.1067 294.604 34.3067 292.257 33.4C289.964 32.4933 287.964 31.3733 286.257 30.04C284.604 28.6533 283.297 27 282.337 25.08C281.43 23.16 280.977 20.84 280.977 18.12C280.977 15.56 281.457 13.2133 282.417 11.08C283.43 8.89333 284.87 7 286.737 5.4C288.604 3.8 290.897 2.54667 293.617 1.64C296.337 0.73333 299.43 0.279996 302.897 0.279996C305.137 0.279996 307.217 0.413329 309.137 0.679996C311.11 0.893329 312.87 1.18666 314.417 1.56C316.017 1.93333 317.404 2.33333 318.577 2.76C319.804 3.18666 320.764 3.58666 321.457 3.96V17.16C319.697 16.5733 317.564 16.04 315.057 15.56C312.55 15.0267 309.777 14.76 306.737 14.76C304.497 14.76 302.924 15.0267 302.017 15.56C301.164 16.04 300.737 16.76 300.737 17.72C300.737 18.6267 301.084 19.32 301.777 19.8C302.47 20.2267 303.617 20.6533 305.217 21.08L306.417 21.4C309.19 22.0933 311.724 22.8933 314.017 23.8C316.31 24.7067 318.284 25.8267 319.937 27.16C321.644 28.44 322.95 30.04 323.857 31.96C324.817 33.88 325.297 36.2 325.297 38.92C325.297 41.7467 324.79 44.36 323.777 46.76C322.764 49.1067 321.27 51.1333 319.297 52.84C317.324 54.4933 314.87 55.8 311.937 56.76C309.004 57.6667 305.644 58.12 301.857 58.12ZM330.083 1.4H369.923V15.64H350.163V22.2H367.363V34.92H350.163V42.76H370.563V57H330.083V1.4ZM373.265 57L385.985 28.12L373.745 1.4H394.305L400.545 17L405.665 1.4H425.905L413.665 29.4L426.385 57H405.905L399.185 40.28L393.505 57H373.265ZM455.404 58.12C451.35 58.12 447.724 57.6133 444.524 56.6C441.324 55.5867 438.63 54.1467 436.444 52.28C434.257 50.36 432.577 48.0667 431.404 45.4C430.284 42.68 429.724 39.64 429.724 36.28V1.4H449.804V37.16C449.804 39.0267 450.31 40.4667 451.324 41.48C452.337 42.4933 453.697 43 455.404 43C457.11 43 458.47 42.4933 459.484 41.48C460.497 40.4667 461.004 39.0267 461.004 37.16V1.4H481.084V36.28C481.084 39.64 480.497 42.68 479.324 45.4C478.204 48.0667 476.55 50.36 474.364 52.28C472.177 54.1467 469.484 55.5867 466.284 56.6C463.137 57.6133 459.51 58.12 455.404 58.12ZM492.376 1.4H527.496L537.896 57H517.416L515.816 46.44H503.656L502.136 57H481.896L492.376 1.4ZM505.736 32.52H513.816L509.736 5L505.736 32.52ZM541.642 1.4H561.722V42.2H579.802V57H541.642V1.4ZM32.84 111.8H21.4V133H1.32V77.4H21.4V97.32H32.84V77.4H52.92V133H32.84V111.8ZM58.37 77.4H98.21V91.64H78.45V98.2H95.65V110.92H78.45V118.76H98.85V133H58.37V77.4ZM112.032 77.4H147.152L157.552 133H137.073L135.472 122.44H123.312L121.792 133H101.552L112.032 77.4ZM125.393 108.52H133.472L129.392 81L125.393 108.52ZM161.298 77.4H181.378V118.2H199.458V133H161.298V77.4ZM193.007 77.4H243.088V92.2H228.127V133H208.047V92.2H193.007V77.4ZM278.949 111.8H267.509V133H247.429V77.4H267.509V97.32H278.949V77.4H299.029V133H278.949V111.8ZM21.4 187.96V209H1.32V153.4H26.76C34.8667 153.4 41 154.893 45.16 157.88C49.3733 160.813 51.48 165.16 51.48 170.92C51.48 178.333 47.8 183.32 40.44 185.88L54.36 209H33.16L21.4 187.96ZM21.4 167.64V178.6H25.8C27.7733 178.6 29.2667 178.12 30.28 177.16C31.3467 176.2 31.88 174.867 31.88 173.16C31.88 171.4 31.3467 170.04 30.28 169.08C29.2667 168.12 27.7733 167.64 25.8 167.64H21.4ZM58.1356 153.4H97.9756V167.64H78.2156V174.2H95.4156V186.92H78.2156V194.76H98.6156V209H58.1356V153.4ZM102.998 153.4H126.838C131.905 153.4 136.305 154.04 140.038 155.32C143.771 156.6 146.865 158.44 149.318 160.84C151.825 163.187 153.665 166.093 154.838 169.56C156.065 172.973 156.678 176.84 156.678 181.16C156.678 185.48 156.065 189.373 154.838 192.84C153.665 196.253 151.825 199.16 149.318 201.56C146.865 203.96 143.771 205.8 140.038 207.08C136.305 208.36 131.905 209 126.838 209H102.998V153.4ZM126.358 194.2C129.665 194.2 132.171 193.213 133.878 191.24C135.638 189.267 136.518 185.907 136.518 181.16C136.518 176.413 135.638 173.08 133.878 171.16C132.171 169.187 129.665 168.2 126.358 168.2H123.078V194.2H126.358ZM161.22 153.4H201.06V167.64H181.3V174.2H198.5V186.92H181.3V194.76H201.7V209H161.22V153.4ZM206.082 153.4H244.882V167.88H226.162V176.36H242.322V189.8H226.162V209H206.082V153.4ZM249.304 153.4H269.384V209H249.304V153.4ZM274.792 153.4H306.072L314.712 205.48L312.152 153.4H331.192V209H299.992L291.352 156.92L293.832 209H274.792V153.4ZM336.608 153.4H376.448V167.64H356.688V174.2H373.888V186.92H356.688V194.76H377.088V209H336.608V153.4ZM381.47 153.4H405.31C410.377 153.4 414.777 154.04 418.51 155.32C422.243 156.6 425.337 158.44 427.79 160.84C430.297 163.187 432.137 166.093 433.31 169.56C434.537 172.973 435.15 176.84 435.15 181.16C435.15 185.48 434.537 189.373 433.31 192.84C432.137 196.253 430.297 199.16 427.79 201.56C425.337 203.96 422.243 205.8 418.51 207.08C414.777 208.36 410.377 209 405.31 209H381.47V153.4ZM404.83 194.2C408.137 194.2 410.643 193.213 412.35 191.24C414.11 189.267 414.99 185.907 414.99 181.16C414.99 176.413 414.11 173.08 412.35 171.16C410.643 169.187 408.137 168.2 404.83 168.2H401.55V194.2H404.83Z" fill="#AF1685"/>
</svg>
