<svg xmlns="http://www.w3.org/2000/svg" fill="none" viewBox="0 0 91 90" height="90" width="91">
<path fill="#D33A17" d="M91 44.6301L85.0962 50.2782L89.1678 57.3383L81.9025 61.0953L83.7857 69.0127L75.7315 70.5887L75.2989 78.7078L67.1303 77.9766L64.4074 85.6545L56.7732 82.6665L51.9764 89.2602L45.5 84.2676L39.0236 89.2602L34.2268 82.6665L26.5926 85.6545L23.8697 77.9766L15.7011 78.7078L15.2685 70.5887L7.21435 69.0127L9.09746 61.0953L1.83221 57.3383L5.9038 50.2782L0 44.6301L5.9038 38.982L1.83221 31.9219L9.09746 28.1649L7.21435 20.2474L15.2685 18.6715L15.7011 10.5524L23.8697 11.2836L26.5926 3.60571L34.2268 6.59365L39.0236 0L45.5 4.99252L51.9764 0L56.7732 6.59365L64.4074 3.61831L67.1303 11.2836L75.2989 10.565L75.7315 18.6715L83.7857 20.2474L81.9025 28.1649L89.1678 31.9219L85.0962 38.982L91 44.6301Z"></path>
<path fill="#FFE8DB" d="M20.6579 51.8961V37.9519H24.2635L30.0005 45.3224V37.9519H33.8252V51.8961H30.4587L24.4826 44.2467V51.8961H20.6579ZM36.4976 51.8961V37.9519H47.7128V41.2188H40.3223V43.3503H47.0156V46.3981H40.3223V48.6093H47.8124V51.8961H36.4976ZM53.7281 51.9957L49.0667 37.9519H53.1504L55.5807 46.0196L58.2699 37.9121H61.5966L64.2858 46.0196L66.7161 37.9519H70.7201L66.0587 51.9957H62.6922L59.9034 43.9678L57.0946 51.9957H53.7281Z"></path>
</svg>
