<svg xmlns="http://www.w3.org/2000/svg" fill="none" viewBox="0 0 86 86" height="86" width="86">
<path fill="url(#paint0_linear_2_239)" d="M85.1926 42.8535L79.6656 48.2004L83.4773 54.884L76.6758 58.4407L78.4387 65.9359L70.8986 67.4277L70.4936 75.1139L62.8462 74.4217L60.2971 81.6901L53.1501 78.8615L48.6594 85.1035L42.5963 80.3772L36.5332 85.1035L32.0425 78.8615L24.8955 81.6901L22.3464 74.4217L14.6991 75.1139L14.2941 67.4277L6.75395 65.9359L8.51688 58.4407L1.71529 54.884L5.52704 48.2004L0 42.8535L5.52704 37.5066L1.71529 30.823L8.51688 27.2664L6.75395 19.7712L14.2941 18.2793L14.6991 10.5931L22.3464 11.2854L24.8955 4.01693L32.0425 6.84554L36.5332 0.603516L42.5963 5.32979L48.6594 0.603516L53.1501 6.84554L60.2971 4.02887L62.8462 11.2854L70.4936 10.6051L70.8986 18.2793L78.4387 19.7712L76.6758 27.2664L83.4773 30.823L79.6656 37.5066L85.1926 42.8535Z"></path>
<path fill="#6C0047" d="M20.3398 49.6919V36.6376H23.7153L29.0862 43.5377V36.6376H32.6668V49.6919H29.5151L23.9204 42.5307V49.6919H20.3398ZM35.1687 49.6919V36.6376H45.6681V39.696H38.7493V41.6915H45.0154V44.5448H38.7493V46.6148H45.7614V49.6919H35.1687ZM51.2995 49.7851L46.9357 36.6376H50.7587L53.0339 44.1904L55.5515 36.6003H58.6659L61.1835 44.1904L63.4587 36.6376H67.2072L62.8433 49.7851H59.6916L57.0807 42.2696L54.4512 49.7851H51.2995Z"></path>
<defs>
<linearGradient gradientUnits="userSpaceOnUse" y2="85.7933" x2="84.4972" y1="0.603516" x1="0" id="paint0_linear_2_239">
<stop stop-color="#B98333"></stop>
<stop stop-color="#EEC77A" offset="0.415"></stop>
<stop stop-color="#FCE197" offset="0.585"></stop>
<stop stop-color="#D7A84C" offset="1"></stop>
</linearGradient>
</defs>
</svg>
