<svg width="254" height="119" viewBox="0 0 254 119" fill="none" xmlns="http://www.w3.org/2000/svg">
<path d="M19.3391 0.724998H30.6341V23.675H40.8041V32H19.3391V0.724998ZM43.168 0.724998H65.578V8.735H54.463V12.425H64.138V19.58H54.463V23.99H65.938V32H43.168V0.724998ZM67.7281 0.724998H95.8981V9.05H87.4831V32H76.1881V9.05H67.7281V0.724998ZM102.84 11.03H98.2954V0.724998H108.645V11.03L103.56 17.51H97.8004L102.84 11.03ZM123.002 32.63C121.562 32.63 120.212 32.525 118.952 32.315C117.722 32.135 116.627 31.91 115.667 31.64C114.707 31.37 113.897 31.1 113.237 30.83C112.577 30.53 112.097 30.29 111.797 30.11V22.595C112.967 23.075 114.332 23.51 115.892 23.9C117.482 24.29 119.267 24.485 121.247 24.485C122.747 24.485 123.767 24.305 124.307 23.945C124.847 23.555 125.117 23.03 125.117 22.37C125.117 21.8 124.907 21.365 124.487 21.065C124.097 20.765 123.467 20.495 122.597 20.255L121.877 20.075C120.347 19.685 118.922 19.235 117.602 18.725C116.312 18.215 115.187 17.585 114.227 16.835C113.297 16.055 112.562 15.125 112.022 14.045C111.512 12.965 111.257 11.66 111.257 10.13C111.257 8.69 111.527 7.37 112.067 6.17C112.637 4.94 113.447 3.875 114.497 2.975C115.547 2.075 116.837 1.37 118.367 0.859999C119.897 0.349998 121.637 0.0949977 123.587 0.0949977C124.847 0.0949977 126.017 0.169998 127.097 0.319997C128.207 0.439998 129.197 0.604998 130.067 0.814999C130.967 1.025 131.747 1.25 132.407 1.49C133.097 1.73 133.637 1.955 134.027 2.165V9.59C133.037 9.26 131.837 8.96 130.427 8.69C129.017 8.39 127.457 8.24 125.747 8.24C124.487 8.24 123.602 8.39 123.092 8.69C122.612 8.96 122.372 9.365 122.372 9.905C122.372 10.415 122.567 10.805 122.957 11.075C123.347 11.315 123.992 11.555 124.892 11.795L125.567 11.975C127.127 12.365 128.552 12.815 129.842 13.325C131.132 13.835 132.242 14.465 133.172 15.215C134.132 15.935 134.867 16.835 135.377 17.915C135.917 18.995 136.187 20.3 136.187 21.83C136.187 23.42 135.902 24.89 135.332 26.24C134.762 27.56 133.922 28.7 132.812 29.66C131.702 30.59 130.322 31.325 128.672 31.865C127.022 32.375 125.132 32.63 123.002 32.63ZM145.438 0.724998H159.208C161.578 0.724998 163.648 0.979998 165.418 1.49C167.188 2 168.658 2.735 169.828 3.695C170.998 4.625 171.868 5.75 172.438 7.07C173.008 8.39 173.293 9.875 173.293 11.525C173.293 13.175 173.008 14.675 172.438 16.025C171.868 17.345 170.998 18.485 169.828 19.445C168.658 20.405 167.188 21.155 165.418 21.695C163.648 22.205 161.578 22.46 159.208 22.46H156.733V32H145.438V0.724998ZM156.733 8.735V14.9H158.893C159.943 14.9 160.753 14.63 161.323 14.09C161.893 13.55 162.178 12.8 162.178 11.84C162.178 10.88 161.893 10.13 161.323 9.59C160.753 9.02 159.943 8.735 158.893 8.735H156.733ZM189.948 32.63C187.668 32.63 185.628 32.345 183.828 31.775C182.028 31.205 180.513 30.395 179.283 29.345C178.053 28.265 177.108 26.975 176.448 25.475C175.818 23.945 175.503 22.235 175.503 20.345V0.724998H186.798V20.84C186.798 21.89 187.083 22.7 187.653 23.27C188.223 23.84 188.988 24.125 189.948 24.125C190.908 24.125 191.673 23.84 192.243 23.27C192.813 22.7 193.098 21.89 193.098 20.84V0.724998H204.393V20.345C204.393 22.235 204.063 23.945 203.403 25.475C202.773 26.975 201.843 28.265 200.613 29.345C199.383 30.395 197.868 31.205 196.068 31.775C194.298 32.345 192.258 32.63 189.948 32.63ZM206.659 0.724998H234.829V9.05H226.414V32H215.119V9.05H206.659V0.724998ZM16.834 75.63C14.434 75.63 12.244 75.24 10.264 74.46C8.31402 73.68 6.63402 72.585 5.22402 71.175C3.84402 69.765 2.76402 68.055 1.98402 66.045C1.23402 64.035 0.85902 61.8 0.85902 59.34C0.85902 56.88 1.23402 54.66 1.98402 52.68C2.76402 50.67 3.84402 48.96 5.22402 47.55C6.63402 46.11 8.31402 45.015 10.264 44.265C12.244 43.485 14.434 43.095 16.834 43.095C19.234 43.095 21.409 43.485 23.359 44.265C25.339 45.015 27.019 46.11 28.399 47.55C29.809 48.96 30.889 50.67 31.639 52.68C32.419 54.66 32.809 56.88 32.809 59.34C32.809 61.8 32.419 64.035 31.639 66.045C30.889 68.055 29.809 69.765 28.399 71.175C27.019 72.585 25.339 73.68 23.359 74.46C21.409 75.24 19.234 75.63 16.834 75.63ZM16.834 67.125C18.394 67.125 19.564 66.42 20.344 65.01C21.124 63.6 21.514 61.71 21.514 59.34C21.514 57 21.124 55.125 20.344 53.715C19.564 52.305 18.394 51.6 16.834 51.6C15.274 51.6 14.104 52.305 13.324 53.715C12.544 55.125 12.154 57 12.154 59.34C12.154 61.71 12.544 63.6 13.324 65.01C14.104 66.42 15.274 67.125 16.834 67.125ZM49.8148 75.63C47.5348 75.63 45.4948 75.345 43.6948 74.775C41.8948 74.205 40.3798 73.395 39.1498 72.345C37.9198 71.265 36.9748 69.975 36.3148 68.475C35.6848 66.945 35.3698 65.235 35.3698 63.345V43.725H46.6648V63.84C46.6648 64.89 46.9498 65.7 47.5198 66.27C48.0898 66.84 48.8548 67.125 49.8148 67.125C50.7748 67.125 51.5398 66.84 52.1098 66.27C52.6798 65.7 52.9648 64.89 52.9648 63.84V43.725H64.2598V63.345C64.2598 65.235 63.9298 66.945 63.2698 68.475C62.6398 69.975 61.7098 71.265 60.4798 72.345C59.2498 73.395 57.7348 74.205 55.9348 74.775C54.1648 75.345 52.1248 75.63 49.8148 75.63ZM78.4949 63.165V75H67.1999V43.725H81.5099C86.0699 43.725 89.5199 44.565 91.8599 46.245C94.2299 47.895 95.4149 50.34 95.4149 53.58C95.4149 57.75 93.3449 60.555 89.2049 61.995L97.0349 75H85.1099L78.4949 63.165ZM78.4949 51.735V57.9H80.9699C82.0799 57.9 82.9199 57.63 83.4899 57.09C84.0899 56.55 84.3899 55.8 84.3899 54.84C84.3899 53.85 84.0899 53.085 83.4899 52.545C82.9199 52.005 82.0799 51.735 80.9699 51.735H78.4949ZM109.747 75.63C108.307 75.63 106.957 75.525 105.697 75.315C104.467 75.135 103.372 74.91 102.412 74.64C101.452 74.37 100.642 74.1 99.9824 73.83C99.3224 73.53 98.8424 73.29 98.5424 73.11V65.595C99.7124 66.075 101.077 66.51 102.637 66.9C104.227 67.29 106.012 67.485 107.992 67.485C109.492 67.485 110.512 67.305 111.052 66.945C111.592 66.555 111.862 66.03 111.862 65.37C111.862 64.8 111.652 64.365 111.232 64.065C110.842 63.765 110.212 63.495 109.342 63.255L108.622 63.075C107.092 62.685 105.667 62.235 104.347 61.725C103.057 61.215 101.932 60.585 100.972 59.835C100.042 59.055 99.3074 58.125 98.7674 57.045C98.2574 55.965 98.0024 54.66 98.0024 53.13C98.0024 51.69 98.2724 50.37 98.8124 49.17C99.3824 47.94 100.192 46.875 101.242 45.975C102.292 45.075 103.582 44.37 105.112 43.86C106.642 43.35 108.382 43.095 110.332 43.095C111.592 43.095 112.762 43.17 113.842 43.32C114.952 43.44 115.942 43.605 116.812 43.815C117.712 44.025 118.492 44.25 119.152 44.49C119.842 44.73 120.382 44.955 120.772 45.165V52.59C119.782 52.26 118.582 51.96 117.172 51.69C115.762 51.39 114.202 51.24 112.492 51.24C111.232 51.24 110.347 51.39 109.837 51.69C109.357 51.96 109.117 52.365 109.117 52.905C109.117 53.415 109.312 53.805 109.702 54.075C110.092 54.315 110.737 54.555 111.637 54.795L112.312 54.975C113.872 55.365 115.297 55.815 116.587 56.325C117.877 56.835 118.987 57.465 119.917 58.215C120.877 58.935 121.612 59.835 122.122 60.915C122.662 61.995 122.932 63.3 122.932 64.83C122.932 66.42 122.647 67.89 122.077 69.24C121.507 70.56 120.667 71.7 119.557 72.66C118.447 73.59 117.067 74.325 115.417 74.865C113.767 75.375 111.877 75.63 109.747 75.63ZM125.624 43.725H148.034V51.735H136.919V55.425H146.594V62.58H136.919V66.99H148.394V75H125.624V43.725ZM150.859 43.725H162.154V66.675H172.324V75H150.859V43.725ZM170.14 43.725H181.66L185.935 72.975L190.255 43.725H201.64L195.79 75H176.035L170.14 43.725ZM203.747 43.725H226.157V51.735H215.042V55.425H224.717V62.58H215.042V66.99H226.517V75H203.747V43.725ZM240.054 75.63C238.614 75.63 237.264 75.525 236.004 75.315C234.774 75.135 233.679 74.91 232.719 74.64C231.759 74.37 230.949 74.1 230.289 73.83C229.629 73.53 229.149 73.29 228.849 73.11V65.595C230.019 66.075 231.384 66.51 232.944 66.9C234.534 67.29 236.319 67.485 238.299 67.485C239.799 67.485 240.819 67.305 241.359 66.945C241.899 66.555 242.169 66.03 242.169 65.37C242.169 64.8 241.959 64.365 241.539 64.065C241.149 63.765 240.519 63.495 239.649 63.255L238.929 63.075C237.399 62.685 235.974 62.235 234.654 61.725C233.364 61.215 232.239 60.585 231.279 59.835C230.349 59.055 229.614 58.125 229.074 57.045C228.564 55.965 228.309 54.66 228.309 53.13C228.309 51.69 228.579 50.37 229.119 49.17C229.689 47.94 230.499 46.875 231.549 45.975C232.599 45.075 233.889 44.37 235.419 43.86C236.949 43.35 238.689 43.095 240.639 43.095C241.899 43.095 243.069 43.17 244.149 43.32C245.259 43.44 246.249 43.605 247.119 43.815C248.019 44.025 248.799 44.25 249.459 44.49C250.149 44.73 250.689 44.955 251.079 45.165V52.59C250.089 52.26 248.889 51.96 247.479 51.69C246.069 51.39 244.509 51.24 242.799 51.24C241.539 51.24 240.654 51.39 240.144 51.69C239.664 51.96 239.424 52.365 239.424 52.905C239.424 53.415 239.619 53.805 240.009 54.075C240.399 54.315 241.044 54.555 241.944 54.795L242.619 54.975C244.179 55.365 245.604 55.815 246.894 56.325C248.184 56.835 249.294 57.465 250.224 58.215C251.184 58.935 251.919 59.835 252.429 60.915C252.969 61.995 253.239 63.3 253.239 64.83C253.239 66.42 252.954 67.89 252.384 69.24C251.814 70.56 250.974 71.7 249.864 72.66C248.754 73.59 247.374 74.325 245.724 74.865C244.074 75.375 242.184 75.63 240.054 75.63ZM59.6526 118.63C57.2526 118.63 55.0626 118.24 53.0826 117.46C51.1326 116.68 49.4526 115.585 48.0426 114.175C46.6626 112.765 45.5826 111.055 44.8026 109.045C44.0526 107.035 43.6776 104.8 43.6776 102.34C43.6776 99.88 44.0526 97.66 44.8026 95.68C45.5826 93.67 46.6626 91.96 48.0426 90.55C49.4526 89.11 51.1326 88.015 53.0826 87.265C55.0626 86.485 57.2526 86.095 59.6526 86.095C62.0526 86.095 64.2276 86.485 66.1776 87.265C68.1576 88.015 69.8376 89.11 71.2176 90.55C72.6276 91.96 73.7076 93.67 74.4576 95.68C75.2376 97.66 75.6276 99.88 75.6276 102.34C75.6276 104.8 75.2376 107.035 74.4576 109.045C73.7076 111.055 72.6276 112.765 71.2176 114.175C69.8376 115.585 68.1576 116.68 66.1776 117.46C64.2276 118.24 62.0526 118.63 59.6526 118.63ZM59.6526 110.125C61.2126 110.125 62.3826 109.42 63.1626 108.01C63.9426 106.6 64.3326 104.71 64.3326 102.34C64.3326 100 63.9426 98.125 63.1626 96.715C62.3826 95.305 61.2126 94.6 59.6526 94.6C58.0926 94.6 56.9226 95.305 56.1426 96.715C55.3626 98.125 54.9726 100 54.9726 102.34C54.9726 104.71 55.3626 106.6 56.1426 108.01C56.9226 109.42 58.0926 110.125 59.6526 110.125ZM78.2355 86.725H95.8305L100.69 116.02L99.2505 86.725H109.96V118H92.4105L87.5505 88.705L88.9455 118H78.2355V86.725ZM118.89 86.725H147.06V95.05H138.645V118H127.35V95.05H118.89V86.725ZM164.329 118.63C161.929 118.63 159.739 118.24 157.759 117.46C155.809 116.68 154.129 115.585 152.719 114.175C151.339 112.765 150.259 111.055 149.479 109.045C148.729 107.035 148.354 104.8 148.354 102.34C148.354 99.88 148.729 97.66 149.479 95.68C150.259 93.67 151.339 91.96 152.719 90.55C154.129 89.11 155.809 88.015 157.759 87.265C159.739 86.485 161.929 86.095 164.329 86.095C166.729 86.095 168.904 86.485 170.854 87.265C172.834 88.015 174.514 89.11 175.894 90.55C177.304 91.96 178.384 93.67 179.134 95.68C179.914 97.66 180.304 99.88 180.304 102.34C180.304 104.8 179.914 107.035 179.134 109.045C178.384 111.055 177.304 112.765 175.894 114.175C174.514 115.585 172.834 116.68 170.854 117.46C168.904 118.24 166.729 118.63 164.329 118.63ZM164.329 110.125C165.889 110.125 167.059 109.42 167.839 108.01C168.619 106.6 169.009 104.71 169.009 102.34C169.009 100 168.619 98.125 167.839 96.715C167.059 95.305 165.889 94.6 164.329 94.6C162.769 94.6 161.599 95.305 160.819 96.715C160.039 98.125 159.649 100 159.649 102.34C159.649 104.71 160.039 106.6 160.819 108.01C161.599 109.42 162.769 110.125 164.329 110.125ZM182.911 86.725H196.681C199.051 86.725 201.121 86.98 202.891 87.49C204.661 88 206.131 88.735 207.301 89.695C208.471 90.625 209.341 91.75 209.911 93.07C210.481 94.39 210.766 95.875 210.766 97.525C210.766 99.175 210.481 100.675 209.911 102.025C209.341 103.345 208.471 104.485 207.301 105.445C206.131 106.405 204.661 107.155 202.891 107.695C201.121 108.205 199.051 108.46 196.681 108.46H194.206V118H182.911V86.725ZM194.206 94.735V100.9H196.366C197.416 100.9 198.226 100.63 198.796 100.09C199.366 99.55 199.651 98.8 199.651 97.84C199.651 96.88 199.366 96.13 198.796 95.59C198.226 95.02 197.416 94.735 196.366 94.735H194.206Z" fill="#AF1685"/>
</svg>
