<svg width="1440" height="46" viewBox="0 0 1440 46" fill="none" xmlns="http://www.w3.org/2000/svg">
<mask id="mask0_538_716" style="mask-type:alpha" maskUnits="userSpaceOnUse" x="0" y="0" width="1440" height="46">
<rect width="1440" height="46" fill="#D9D9D9"/>
</mask>
<g mask="url(#mask0_538_716)">
<path d="M154.154 185.757C251.078 164.194 259.378 146.294 347.396 134.598C487.709 115.952 691.538 229.215 701.773 168.845C706.533 140.773 650.86 162.727 652.706 134.598C657.066 68.1481 1007.57 235.294 1011.93 168.845C1013.78 140.715 962.229 162.585 969.346 134.598C983.633 78.4194 1233.84 219.311 1263.93 164.194C1278.36 137.773 1219.31 160.548 1238.14 134.598C1272.91 86.6695 1499.78 224.182 1520.17 168.845C1528.59 146.013 1465.65 164.194 1481.6 134.598C1509.19 83.3888 1677.57 219.417 1708.72 174.415C1727.06 147.937 1712.54 105.952 1688.62 80.2354C1648.22 36.7958 1592.99 45.6949 1366.5 43.2354L942.5 10.2463C761.979 -9.2027 175.891 -2.42761 -15.3768 43.2354C-206.644 88.8983 -219.181 140.169 -66.3476 168.845C0.626129 181.411 86.5119 200.806 154.154 185.757Z" fill="#FFE0BE"/>
</g>
</svg>
