<svg xmlns="http://www.w3.org/2000/svg" width="23" viewBox="0 0 23 24" height="24" fill="none"><path fill="#fb3642" d="m5.63443 14.1303c-.74885 2.5662-1.5137 5.1282-2.26254 7.6943-.26251.872.78442 1.6421 1.5561 1.1771 2.62637-1.6042 4.54595-4.0691 7.17231-5.6733-.3512.0021-.7023.0042-1.0535.0063 2.4943 1.2517 4.1875 3.6363 6.6819 4.888.83.4226 1.7168-.2859 1.5321-1.1809-.5347-2.6286-.7276-5.3216-1.5519-7.8891-.1629.3935-.3257.787-.4886 1.1805 1.9543-.8994 3.5358-2.3667 5.2176-3.6624.8439-.6428.5502-1.83995-.538-1.96238-1.7697-.19823-3.5176-.5447-5.2788-.77494-.2485-.03085-.8964-.23468-1.0781-.12834-.2222.12997.1496.4411.0028.28296-.1585-.17834-.2199-.79304-.2716-1.02036-.5163-2.11065-.9578-4.27866-1.8286-6.276861-.3952-.907355-1.6799-.508249-1.9332.263481-.8356 2.60332-2.2643 4.95726-3.10575 7.55048.33401-.26317.68403-.52215 1.01803-.78532-2.77034.29232-5.5731.25118-8.32551.73634-.886606.15269-.91644 1.21385-.465182 1.77674 1.577312 1.9779 3.466512 3.5159 5.498812 4.9972 1.09075.7987 2.11251-1.0461 1.02767-1.8347-1.8789-1.3813-3.60042-2.8411-5.063-4.66931l-.46519 1.77671c2.5714-.447 5.19734-.3838 7.78495-.6641.49427-.05873.86617-.30342 1.01807-.78532.8355-2.60332 2.2642-4.95726 3.1057-7.55048-.6391.08923-1.2883.18436-1.9333.26349.9096 2.111 1.1526 4.44937 1.8307 6.62804.4168 1.31493 1.5319 1.36744 2.7583 1.51747 1.8977.2318 3.7796.6219 5.6856.8216-.1793-.6541-.3587-1.30826-.5381-1.9624-1.6919 1.3016-3.2733 2.7689-5.2176 3.6623-.3973.1782-.6206.7697-.4887 1.1805.8243 2.5676 1.0172 5.2606 1.5519 7.8891.514-.3956 1.0281-.7912 1.5422-1.1868-1.3669-.6914-2.479-1.7352-3.634-2.7131-.8607-.73-2.4916-2.4055-3.7109-2.2886-.7031.0725-1.47187.8204-2.01623 1.2337-.59905.4589-1.16436.9523-1.72796 1.4718-1.22647 1.1241-2.40244 2.2187-3.81871 3.0879.51336.391 1.02673.7819 1.5561 1.1771.74884-2.5662 1.51369-5.1281 2.26253-7.6943.37566-1.3041-1.65713-1.8364-2.03279-.5322"></path></svg>