<?xml version="1.0" encoding="utf-8"?>
<!-- Generator: Adobe Illustrator 25.4.1, SVG Export Plug-In . SVG Version: 6.00 Build 0)  -->
<svg version="1.1" id="Layer_1" xmlns="http://www.w3.org/2000/svg" xmlns:xlink="http://www.w3.org/1999/xlink" x="0px" y="0px"
	 viewBox="0 0 100 100" style="enable-background:new 0 0 100 100;" xml:space="preserve">
<style type="text/css">
	.st0{fill:#FFFFFF;}
</style>
<g>
	<g>
		<path class="st0" d="M75.7,45.8c-1.6-0.8-3.7,0.1-4.4,1.8c-3.7,9.2-12.2,15.2-21.5,15.2c-9.3,0-17.8-6-21.5-15.2
			c-0.7-1.8-2.7-2.6-4.4-1.8c-1.7,0.8-2.4,2.9-1.7,4.7C27,62.4,37.8,70,49.8,70c12,0,22.8-7.6,27.6-19.5
			C78.2,48.7,77.4,46.6,75.7,45.8z M99.5,72.6L86.8,33.2v-14c0-7.1-5.4-12.9-12-12.9h-7.1V3.8c0-2.1-1.6-3.8-3.5-3.8
			c-2,0-3.5,1.7-3.5,3.8v2.4H26.2V3.8c0-2.1-1.6-3.8-3.5-3.8c-2,0-3.5,1.7-3.5,3.8v2.4H12c-6.6,0-12,5.8-12,12.9v67.8
			C0,94.2,5.4,100,12,100h62.8c3.2,0,6.2-1.3,8.5-3.8c1.4-1.5,1.4-3.9,0-5.4c-1.4-1.5-3.6-1.5-5,0c-0.9,1-2.2,1.6-3.5,1.6H12
			c-2.7,0-4.9-2.4-4.9-5.3V56.4l6.1,18.7c1.7,5.4,7.8,9.4,14,9.4H90c3.7,0,6.9-1.5,8.7-4.2C100.1,78.1,100.4,75.3,99.5,72.6z
			 M92.8,75.9c-0.2,0.4-1.1,1-2.9,1H27.1c-3.4,0-6.7-2.3-7.3-4.3L7.1,33.2v-14c0-2.9,2.2-5.3,4.9-5.3h7.1v1.9c0,2.1,1.6,3.8,3.5,3.8
			c2,0,3.5-1.7,3.5-3.8v-1.9h34.4v1.9c0,2.1,1.6,3.8,3.5,3.8c2,0,3.5-1.7,3.5-3.8v-1.9h7.1c2.7,0,4.9,2.4,4.9,5.3V30H16.4
			c-2,0-3.5,1.7-3.5,3.8c0,2.1,1.6,3.8,3.5,3.8h64.3l12.1,37.4C93,75.6,92.9,75.8,92.8,75.9z"/>
	</g>
</g>
</svg>
