<svg xmlns="http://www.w3.org/2000/svg" fill="none" viewBox="0 0 416 134" height="134" width="416">
<g filter="url(#filter0_d_2389_373)">
<mask fill="black" height="128" width="412" y="0.189941" x="4.67798" maskUnits="userSpaceOnUse" id="path-1-outside-1_2389_373">
<rect height="128" width="412" y="0.189941" x="4.67798" fill="white"></rect>
<path d="M28.4764 54.6667C21.0376 54.7965 13.9778 52.5794 8.67798 48.0512L15.0219 40.1993C19.2789 43.4255 23.8685 45.0856 28.7278 45.0008C31.9073 44.9453 33.5682 43.8362 33.5368 42.0364L33.5347 41.9165C33.5033 40.1167 32.1078 39.241 26.3246 37.9617C17.3503 36.078 10.4074 33.6788 10.2577 25.1001L10.2556 24.9802C10.1194 17.1813 16.2001 11.4343 26.2785 11.2584C33.4174 11.1338 39.0301 12.9561 43.6533 16.536L37.9776 24.8563C34.0901 22.1638 29.8666 20.8573 26.1472 20.9222C23.3276 20.9714 21.9677 22.1353 21.9949 23.6951L21.997 23.8151C22.0305 25.7348 23.485 26.5495 29.3871 27.7667C39.0223 29.6988 45.0758 32.7136 45.213 40.5724L45.2151 40.6924C45.3649 49.2711 38.6749 54.4887 28.4764 54.6667Z"></path>
<path d="M53.7407 53.5056L52.9762 9.71225L64.3145 9.51434L65.0789 53.3077L53.7407 53.5056Z"></path>
<path d="M90.6355 53.6417C80.4371 53.8197 73.1188 47.1064 72.9439 37.0879L72.9418 36.968C72.7764 27.4894 79.4245 19.8722 89.023 19.7047C100.181 19.5099 105.484 27.6386 105.65 37.1771C105.663 37.897 105.678 38.7369 105.631 39.5178L83.9146 39.8969C84.8763 43.4207 87.4873 45.1754 91.0268 45.1136C93.7863 45.0654 95.8682 44.0089 98.1681 41.6884L104.558 46.7977C101.508 50.8115 97.0546 53.5297 90.6355 53.6417ZM83.6331 34.0809L94.9714 33.883C94.4886 30.2909 92.2891 28.0489 89.1696 28.1034C86.1701 28.1558 84.1702 30.471 83.6331 34.0809Z"></path>
<path d="M130.016 52.9543C119.818 53.1323 112.5 46.419 112.325 36.4005L112.323 36.2806C112.157 26.802 118.805 19.1848 128.404 19.0173C139.562 18.8225 144.865 26.9512 145.031 36.4898C145.044 37.2096 145.058 38.0495 145.012 38.8304L123.295 39.2095C124.257 42.7333 126.868 44.488 130.407 44.4262C133.167 44.378 135.249 43.3215 137.549 41.001L143.939 46.1103C140.889 50.1241 136.435 52.8423 130.016 52.9543ZM123.014 33.3935L134.352 33.1956C133.869 29.6035 131.67 27.3615 128.55 27.416C125.551 27.4684 123.551 29.7836 123.014 33.3935Z"></path>
<path d="M153.413 61.3673L152.679 19.3137L164.078 19.1147L164.153 23.434C166.326 20.6957 169.044 18.3079 173.904 18.2231C181.642 18.088 188.413 24.3908 188.595 34.7692L188.597 34.8892C188.781 45.4476 182.234 51.9828 174.555 52.1169C169.636 52.2027 166.718 50.0333 164.575 47.6104L164.812 61.1683L153.413 61.3673ZM170.909 42.6391C174.569 42.5752 177.516 39.5233 177.439 35.1439L177.437 35.024C177.362 30.7046 174.309 27.6974 170.649 27.7613C166.93 27.8262 164.044 30.9371 164.119 35.2564L164.121 35.3764C164.197 39.6958 167.19 42.704 170.909 42.6391Z"></path>
<path d="M195.885 37.2223L195.711 27.2639L215.388 26.9204L215.562 36.8789L195.885 37.2223Z"></path>
<path d="M241.444 50.9493C234.005 51.0792 226.945 48.862 221.646 44.3338L227.989 36.4819C232.246 39.7081 236.836 41.3683 241.695 41.2835C244.875 41.228 246.536 40.1188 246.504 38.3191L246.502 38.1991C246.471 36.3994 245.075 35.5236 239.292 34.2443C230.318 32.3607 223.375 29.9615 223.225 21.3828L223.223 21.2628C223.087 13.464 229.168 7.71699 239.246 7.54107C246.385 7.41646 251.998 9.23878 256.621 12.8186L250.945 21.139C247.058 18.4464 242.834 17.1399 239.115 17.2048C236.295 17.254 234.935 18.418 234.962 19.9777L234.965 20.0977C234.998 22.0174 236.453 22.8321 242.355 24.0493C251.99 25.9815 258.043 28.9963 258.181 36.8551L258.183 36.9751C258.332 45.5538 251.642 50.7713 241.444 50.9493Z"></path>
<path d="M278.732 50.2384C271.893 50.3578 267.821 47.4284 267.686 39.6896L267.455 26.4316L263.615 26.4987L263.456 17.38L267.296 17.313L267.152 9.09427L278.49 8.89636L278.634 17.1151L286.193 16.9832L286.352 26.1018L278.793 26.2337L278.986 37.272C279.026 39.5517 280.062 40.4937 282.162 40.4571C283.662 40.4309 285.094 39.9859 286.462 39.3019L286.617 48.1805C284.597 49.3559 281.911 50.1829 278.732 50.2384Z"></path>
<path d="M305.529 49.8307C298.63 49.9511 294.35 45.4051 294.221 38.0263L293.851 16.8495L305.25 16.6505L305.556 34.2279C305.618 37.7673 307.511 39.6546 310.271 39.6064C313.031 39.5582 315.037 37.6029 314.975 34.0635L314.668 16.4861L326.007 16.2882L326.573 48.7433L315.235 48.9412L315.156 44.4419C313.104 47.1781 310.148 49.7501 305.529 49.8307Z"></path>
<path d="M348.89 49.0739C341.151 49.2089 334.38 42.9061 334.199 32.5277L334.196 32.4077C334.012 21.8493 340.559 15.3141 348.238 15.1801C353.157 15.0942 356.075 17.2636 358.218 19.6866L357.951 4.3889L369.349 4.18994L370.114 47.9833L358.715 48.1822L358.64 43.8629C356.468 46.6012 353.749 48.989 348.89 49.0739ZM352.143 39.4756C355.862 39.4107 358.748 36.2998 358.673 31.9805L358.671 31.8605C358.596 27.6012 355.602 24.533 351.883 24.5979C348.223 24.6618 345.277 27.7736 345.353 32.093L345.355 32.213C345.43 36.5323 348.483 39.5395 352.143 39.4756Z"></path>
<path d="M395.012 34.6467L400.789 14.9829L412.488 14.7787L401.162 46.6612C398.476 54.3293 395.467 57.3222 388.988 57.4353C384.969 57.5055 381.591 56.4843 378.561 54.7969L381.901 46.7574C383.78 47.8047 385.651 48.4322 386.911 48.4102C388.05 48.3903 388.825 48.0767 389.587 47.0433L376.313 15.4101L388.191 15.2028L395.012 34.6467Z"></path>
<path d="M86.7411 124.941L86.0081 82.9469L107.545 82.571C112.824 82.4789 116.566 83.7337 119.068 86.0904C120.778 87.8008 121.837 90.0027 121.887 92.8823L121.889 93.0022C121.974 97.8615 119.265 100.789 115.573 102.474C120.702 104.065 123.992 106.888 124.091 112.587L124.093 112.707C124.219 119.906 118.416 124.388 108.398 124.563L86.7411 124.941ZM110.473 95.6019L110.471 95.4819C110.43 93.1423 108.548 91.9149 105.129 91.9746L97.5097 92.1076L97.6385 99.4865L104.957 99.3587C108.497 99.2969 110.516 98.0615 110.473 95.6019ZM112.425 111.17C112.385 108.891 110.559 107.422 106.66 107.49L97.7809 107.645L97.916 115.384L106.915 115.227C110.514 115.164 112.47 113.75 112.427 111.29L112.425 111.17Z"></path>
<path d="M141.276 124.709C135.097 124.817 130.355 121.299 130.243 114.88L130.241 114.76C130.122 107.981 135.162 104.472 142.781 104.339C145.78 104.287 148.729 104.776 150.601 105.463L150.592 104.923C150.532 101.504 148.399 99.6206 144.02 99.697C140.6 99.7567 137.973 100.523 135.053 101.654L132.574 93.7159C136.207 92.1522 140.089 91.0643 145.668 90.9669C151.487 90.8654 155.47 92.176 158.095 94.7106C160.596 97.0673 161.675 100.409 161.755 104.968L162.08 123.625L150.862 123.821L150.802 120.402C148.566 122.901 145.535 124.634 141.276 124.709ZM145.231 117.499C148.59 117.44 150.893 115.299 150.837 112.06L150.81 110.56C149.602 110.101 147.976 109.77 146.297 109.799C142.997 109.856 141.105 111.45 141.147 113.909L141.15 114.029C141.188 116.249 142.891 117.539 145.231 117.499Z"></path>
<path d="M171.177 123.467L170.412 79.6734L181.751 79.4755L182.515 123.269L171.177 123.467Z"></path>
<path d="M201.232 123.662C195.053 123.77 190.311 120.252 190.198 113.833L190.196 113.713C190.078 106.934 195.118 103.426 202.736 103.293C205.736 103.24 208.685 103.729 210.557 104.417L210.548 103.877C210.488 100.457 208.355 98.5741 203.976 98.6505C200.556 98.7102 197.929 99.4762 195.008 100.607L192.529 92.6693C196.163 91.1057 200.044 90.0178 205.623 89.9204C211.443 89.8188 215.426 91.1295 218.051 93.6641C220.552 96.0208 221.631 99.3625 221.71 103.922L222.036 122.579L210.818 122.775L210.758 119.355C208.521 121.855 205.491 123.588 201.232 123.662ZM205.186 116.452C208.546 116.393 210.849 114.253 210.792 111.013L210.766 109.514C209.558 109.055 207.932 108.723 206.252 108.752C202.953 108.81 201.06 110.403 201.103 112.863L201.105 112.983C201.144 115.202 202.847 116.493 205.186 116.452Z"></path>
<path d="M230.833 122.425L230.266 89.9703L241.664 89.7714L241.744 94.3307C243.796 91.5944 246.751 88.9625 251.37 88.8819C258.269 88.7614 262.488 93.2485 262.617 100.627L262.988 121.864L251.649 122.062L251.343 104.485C251.28 100.885 249.387 98.998 246.627 99.0462C243.867 99.0944 241.861 101.05 241.924 104.649L242.231 122.226L230.833 122.425Z"></path>
<path d="M287.585 122.215C277.746 122.387 270.473 114.832 270.313 105.654L270.311 105.534C270.151 96.3552 277.095 88.4928 287.353 88.3138C294.012 88.1975 298.502 90.9996 301.337 95.2708L293.758 101.164C292.102 99.0925 290.339 97.8031 287.64 97.8502C283.92 97.9152 281.278 101.262 281.347 105.221L281.349 105.341C281.423 109.541 284.118 112.674 287.957 112.607C290.717 112.559 292.435 111.269 294.138 109.139L301.853 114.525C298.931 119.016 294.664 122.091 287.585 122.215Z"></path>
<path d="M324.281 121.574C314.082 121.752 306.764 115.039 306.589 105.021L306.587 104.901C306.421 95.4221 313.069 87.8049 322.668 87.6374C333.826 87.4426 339.129 95.5713 339.295 105.11C339.308 105.83 339.323 106.67 339.276 107.451L317.56 107.83C318.521 111.353 321.132 113.108 324.672 113.046C327.431 112.998 329.513 111.942 331.813 109.621L338.203 114.73C335.153 118.744 330.7 121.462 324.281 121.574ZM317.278 102.014L328.616 101.816C328.134 98.2236 325.934 95.9816 322.815 96.0361C319.815 96.0884 317.815 98.4037 317.278 102.014Z"></path>
</mask>
<path fill="white" d="M28.4764 54.6667C21.0376 54.7965 13.9778 52.5794 8.67798 48.0512L15.0219 40.1993C19.2789 43.4255 23.8685 45.0856 28.7278 45.0008C31.9073 44.9453 33.5682 43.8362 33.5368 42.0364L33.5347 41.9165C33.5033 40.1167 32.1078 39.241 26.3246 37.9617C17.3503 36.078 10.4074 33.6788 10.2577 25.1001L10.2556 24.9802C10.1194 17.1813 16.2001 11.4343 26.2785 11.2584C33.4174 11.1338 39.0301 12.9561 43.6533 16.536L37.9776 24.8563C34.0901 22.1638 29.8666 20.8573 26.1472 20.9222C23.3276 20.9714 21.9677 22.1353 21.9949 23.6951L21.997 23.8151C22.0305 25.7348 23.485 26.5495 29.3871 27.7667C39.0223 29.6988 45.0758 32.7136 45.213 40.5724L45.2151 40.6924C45.3649 49.2711 38.6749 54.4887 28.4764 54.6667Z"></path>
<path fill="white" d="M53.7407 53.5056L52.9762 9.71225L64.3145 9.51434L65.0789 53.3077L53.7407 53.5056Z"></path>
<path fill="white" d="M90.6355 53.6417C80.4371 53.8197 73.1188 47.1064 72.9439 37.0879L72.9418 36.968C72.7764 27.4894 79.4245 19.8722 89.023 19.7047C100.181 19.5099 105.484 27.6386 105.65 37.1771C105.663 37.897 105.678 38.7369 105.631 39.5178L83.9146 39.8969C84.8763 43.4207 87.4873 45.1754 91.0268 45.1136C93.7863 45.0654 95.8682 44.0089 98.1681 41.6884L104.558 46.7977C101.508 50.8115 97.0546 53.5297 90.6355 53.6417ZM83.6331 34.0809L94.9714 33.883C94.4886 30.2909 92.2891 28.0489 89.1696 28.1034C86.1701 28.1558 84.1702 30.471 83.6331 34.0809Z"></path>
<path fill="white" d="M130.016 52.9543C119.818 53.1323 112.5 46.419 112.325 36.4005L112.323 36.2806C112.157 26.802 118.805 19.1848 128.404 19.0173C139.562 18.8225 144.865 26.9512 145.031 36.4898C145.044 37.2096 145.058 38.0495 145.012 38.8304L123.295 39.2095C124.257 42.7333 126.868 44.488 130.407 44.4262C133.167 44.378 135.249 43.3215 137.549 41.001L143.939 46.1103C140.889 50.1241 136.435 52.8423 130.016 52.9543ZM123.014 33.3935L134.352 33.1956C133.869 29.6035 131.67 27.3615 128.55 27.416C125.551 27.4684 123.551 29.7836 123.014 33.3935Z"></path>
<path fill="white" d="M153.413 61.3673L152.679 19.3137L164.078 19.1147L164.153 23.434C166.326 20.6957 169.044 18.3079 173.904 18.2231C181.642 18.088 188.413 24.3908 188.595 34.7692L188.597 34.8892C188.781 45.4476 182.234 51.9828 174.555 52.1169C169.636 52.2027 166.718 50.0333 164.575 47.6104L164.812 61.1683L153.413 61.3673ZM170.909 42.6391C174.569 42.5752 177.516 39.5233 177.439 35.1439L177.437 35.024C177.362 30.7046 174.309 27.6974 170.649 27.7613C166.93 27.8262 164.044 30.9371 164.119 35.2564L164.121 35.3764C164.197 39.6958 167.19 42.704 170.909 42.6391Z"></path>
<path fill="white" d="M195.885 37.2223L195.711 27.2639L215.388 26.9204L215.562 36.8789L195.885 37.2223Z"></path>
<path fill="white" d="M241.444 50.9493C234.005 51.0792 226.945 48.862 221.646 44.3338L227.989 36.4819C232.246 39.7081 236.836 41.3683 241.695 41.2835C244.875 41.228 246.536 40.1188 246.504 38.3191L246.502 38.1991C246.471 36.3994 245.075 35.5236 239.292 34.2443C230.318 32.3607 223.375 29.9615 223.225 21.3828L223.223 21.2628C223.087 13.464 229.168 7.71699 239.246 7.54107C246.385 7.41646 251.998 9.23878 256.621 12.8186L250.945 21.139C247.058 18.4464 242.834 17.1399 239.115 17.2048C236.295 17.254 234.935 18.418 234.962 19.9777L234.965 20.0977C234.998 22.0174 236.453 22.8321 242.355 24.0493C251.99 25.9815 258.043 28.9963 258.181 36.8551L258.183 36.9751C258.332 45.5538 251.642 50.7713 241.444 50.9493Z"></path>
<path fill="white" d="M278.732 50.2384C271.893 50.3578 267.821 47.4284 267.686 39.6896L267.455 26.4316L263.615 26.4987L263.456 17.38L267.296 17.313L267.152 9.09427L278.49 8.89636L278.634 17.1151L286.193 16.9832L286.352 26.1018L278.793 26.2337L278.986 37.272C279.026 39.5517 280.062 40.4937 282.162 40.4571C283.662 40.4309 285.094 39.9859 286.462 39.3019L286.617 48.1805C284.597 49.3559 281.911 50.1829 278.732 50.2384Z"></path>
<path fill="white" d="M305.529 49.8307C298.63 49.9511 294.35 45.4051 294.221 38.0263L293.851 16.8495L305.25 16.6505L305.556 34.2279C305.618 37.7673 307.511 39.6546 310.271 39.6064C313.031 39.5582 315.037 37.6029 314.975 34.0635L314.668 16.4861L326.007 16.2882L326.573 48.7433L315.235 48.9412L315.156 44.4419C313.104 47.1781 310.148 49.7501 305.529 49.8307Z"></path>
<path fill="white" d="M348.89 49.0739C341.151 49.2089 334.38 42.9061 334.199 32.5277L334.196 32.4077C334.012 21.8493 340.559 15.3141 348.238 15.1801C353.157 15.0942 356.075 17.2636 358.218 19.6866L357.951 4.3889L369.349 4.18994L370.114 47.9833L358.715 48.1822L358.64 43.8629C356.468 46.6012 353.749 48.989 348.89 49.0739ZM352.143 39.4756C355.862 39.4107 358.748 36.2998 358.673 31.9805L358.671 31.8605C358.596 27.6012 355.602 24.533 351.883 24.5979C348.223 24.6618 345.277 27.7736 345.353 32.093L345.355 32.213C345.43 36.5323 348.483 39.5395 352.143 39.4756Z"></path>
<path fill="white" d="M395.012 34.6467L400.789 14.9829L412.488 14.7787L401.162 46.6612C398.476 54.3293 395.467 57.3222 388.988 57.4353C384.969 57.5055 381.591 56.4843 378.561 54.7969L381.901 46.7574C383.78 47.8047 385.651 48.4322 386.911 48.4102C388.05 48.3903 388.825 48.0767 389.587 47.0433L376.313 15.4101L388.191 15.2028L395.012 34.6467Z"></path>
<path fill="white" d="M86.7411 124.941L86.0081 82.9469L107.545 82.571C112.824 82.4789 116.566 83.7337 119.068 86.0904C120.778 87.8008 121.837 90.0027 121.887 92.8823L121.889 93.0022C121.974 97.8615 119.265 100.789 115.573 102.474C120.702 104.065 123.992 106.888 124.091 112.587L124.093 112.707C124.219 119.906 118.416 124.388 108.398 124.563L86.7411 124.941ZM110.473 95.6019L110.471 95.4819C110.43 93.1423 108.548 91.9149 105.129 91.9746L97.5097 92.1076L97.6385 99.4865L104.957 99.3587C108.497 99.2969 110.516 98.0615 110.473 95.6019ZM112.425 111.17C112.385 108.891 110.559 107.422 106.66 107.49L97.7809 107.645L97.916 115.384L106.915 115.227C110.514 115.164 112.47 113.75 112.427 111.29L112.425 111.17Z"></path>
<path fill="white" d="M141.276 124.709C135.097 124.817 130.355 121.299 130.243 114.88L130.241 114.76C130.122 107.981 135.162 104.472 142.781 104.339C145.78 104.287 148.729 104.776 150.601 105.463L150.592 104.923C150.532 101.504 148.399 99.6206 144.02 99.697C140.6 99.7567 137.973 100.523 135.053 101.654L132.574 93.7159C136.207 92.1522 140.089 91.0643 145.668 90.9669C151.487 90.8654 155.47 92.176 158.095 94.7106C160.596 97.0673 161.675 100.409 161.755 104.968L162.08 123.625L150.862 123.821L150.802 120.402C148.566 122.901 145.535 124.634 141.276 124.709ZM145.231 117.499C148.59 117.44 150.893 115.299 150.837 112.06L150.81 110.56C149.602 110.101 147.976 109.77 146.297 109.799C142.997 109.856 141.105 111.45 141.147 113.909L141.15 114.029C141.188 116.249 142.891 117.539 145.231 117.499Z"></path>
<path fill="white" d="M171.177 123.467L170.412 79.6734L181.751 79.4755L182.515 123.269L171.177 123.467Z"></path>
<path fill="white" d="M201.232 123.662C195.053 123.77 190.311 120.252 190.198 113.833L190.196 113.713C190.078 106.934 195.118 103.426 202.736 103.293C205.736 103.24 208.685 103.729 210.557 104.417L210.548 103.877C210.488 100.457 208.355 98.5741 203.976 98.6505C200.556 98.7102 197.929 99.4762 195.008 100.607L192.529 92.6693C196.163 91.1057 200.044 90.0178 205.623 89.9204C211.443 89.8188 215.426 91.1295 218.051 93.6641C220.552 96.0208 221.631 99.3625 221.71 103.922L222.036 122.579L210.818 122.775L210.758 119.355C208.521 121.855 205.491 123.588 201.232 123.662ZM205.186 116.452C208.546 116.393 210.849 114.253 210.792 111.013L210.766 109.514C209.558 109.055 207.932 108.723 206.252 108.752C202.953 108.81 201.06 110.403 201.103 112.863L201.105 112.983C201.144 115.202 202.847 116.493 205.186 116.452Z"></path>
<path fill="white" d="M230.833 122.425L230.266 89.9703L241.664 89.7714L241.744 94.3307C243.796 91.5944 246.751 88.9625 251.37 88.8819C258.269 88.7614 262.488 93.2485 262.617 100.627L262.988 121.864L251.649 122.062L251.343 104.485C251.28 100.885 249.387 98.998 246.627 99.0462C243.867 99.0944 241.861 101.05 241.924 104.649L242.231 122.226L230.833 122.425Z"></path>
<path fill="white" d="M287.585 122.215C277.746 122.387 270.473 114.832 270.313 105.654L270.311 105.534C270.151 96.3552 277.095 88.4928 287.353 88.3138C294.012 88.1975 298.502 90.9996 301.337 95.2708L293.758 101.164C292.102 99.0925 290.339 97.8031 287.64 97.8502C283.92 97.9152 281.278 101.262 281.347 105.221L281.349 105.341C281.423 109.541 284.118 112.674 287.957 112.607C290.717 112.559 292.435 111.269 294.138 109.139L301.853 114.525C298.931 119.016 294.664 122.091 287.585 122.215Z"></path>
<path fill="white" d="M324.281 121.574C314.082 121.752 306.764 115.039 306.589 105.021L306.587 104.901C306.421 95.4221 313.069 87.8049 322.668 87.6374C333.826 87.4426 339.129 95.5713 339.295 105.11C339.308 105.83 339.323 106.67 339.276 107.451L317.56 107.83C318.521 111.353 321.132 113.108 324.672 113.046C327.431 112.998 329.513 111.942 331.813 109.621L338.203 114.73C335.153 118.744 330.7 121.462 324.281 121.574ZM317.278 102.014L328.616 101.816C328.134 98.2236 325.934 95.9816 322.815 96.0361C319.815 96.0884 317.815 98.4037 317.278 102.014Z"></path>
<path mask="url(#path-1-outside-1_2389_373)" stroke-linejoin="round" stroke-width="6.47359" stroke="#E334C3" d="M28.4764 54.6667C21.0376 54.7965 13.9778 52.5794 8.67798 48.0512L15.0219 40.1993C19.2789 43.4255 23.8685 45.0856 28.7278 45.0008C31.9073 44.9453 33.5682 43.8362 33.5368 42.0364L33.5347 41.9165C33.5033 40.1167 32.1078 39.241 26.3246 37.9617C17.3503 36.078 10.4074 33.6788 10.2577 25.1001L10.2556 24.9802C10.1194 17.1813 16.2001 11.4343 26.2785 11.2584C33.4174 11.1338 39.0301 12.9561 43.6533 16.536L37.9776 24.8563C34.0901 22.1638 29.8666 20.8573 26.1472 20.9222C23.3276 20.9714 21.9677 22.1353 21.9949 23.6951L21.997 23.8151C22.0305 25.7348 23.485 26.5495 29.3871 27.7667C39.0223 29.6988 45.0758 32.7136 45.213 40.5724L45.2151 40.6924C45.3649 49.2711 38.6749 54.4887 28.4764 54.6667Z"></path>
<path mask="url(#path-1-outside-1_2389_373)" stroke-linejoin="round" stroke-width="6.47359" stroke="#E334C3" d="M53.7407 53.5056L52.9762 9.71225L64.3145 9.51434L65.0789 53.3077L53.7407 53.5056Z"></path>
<path mask="url(#path-1-outside-1_2389_373)" stroke-linejoin="round" stroke-width="6.47359" stroke="#E334C3" d="M90.6355 53.6417C80.4371 53.8197 73.1188 47.1064 72.9439 37.0879L72.9418 36.968C72.7764 27.4894 79.4245 19.8722 89.023 19.7047C100.181 19.5099 105.484 27.6386 105.65 37.1771C105.663 37.897 105.678 38.7369 105.631 39.5178L83.9146 39.8969C84.8763 43.4207 87.4873 45.1754 91.0268 45.1136C93.7863 45.0654 95.8682 44.0089 98.1681 41.6884L104.558 46.7977C101.508 50.8115 97.0546 53.5297 90.6355 53.6417ZM83.6331 34.0809L94.9714 33.883C94.4886 30.2909 92.2891 28.0489 89.1696 28.1034C86.1701 28.1558 84.1702 30.471 83.6331 34.0809Z"></path>
<path mask="url(#path-1-outside-1_2389_373)" stroke-linejoin="round" stroke-width="6.47359" stroke="#E334C3" d="M130.016 52.9543C119.818 53.1323 112.5 46.419 112.325 36.4005L112.323 36.2806C112.157 26.802 118.805 19.1848 128.404 19.0173C139.562 18.8225 144.865 26.9512 145.031 36.4898C145.044 37.2096 145.058 38.0495 145.012 38.8304L123.295 39.2095C124.257 42.7333 126.868 44.488 130.407 44.4262C133.167 44.378 135.249 43.3215 137.549 41.001L143.939 46.1103C140.889 50.1241 136.435 52.8423 130.016 52.9543ZM123.014 33.3935L134.352 33.1956C133.869 29.6035 131.67 27.3615 128.55 27.416C125.551 27.4684 123.551 29.7836 123.014 33.3935Z"></path>
<path mask="url(#path-1-outside-1_2389_373)" stroke-linejoin="round" stroke-width="6.47359" stroke="#E334C3" d="M153.413 61.3673L152.679 19.3137L164.078 19.1147L164.153 23.434C166.326 20.6957 169.044 18.3079 173.904 18.2231C181.642 18.088 188.413 24.3908 188.595 34.7692L188.597 34.8892C188.781 45.4476 182.234 51.9828 174.555 52.1169C169.636 52.2027 166.718 50.0333 164.575 47.6104L164.812 61.1683L153.413 61.3673ZM170.909 42.6391C174.569 42.5752 177.516 39.5233 177.439 35.1439L177.437 35.024C177.362 30.7046 174.309 27.6974 170.649 27.7613C166.93 27.8262 164.044 30.9371 164.119 35.2564L164.121 35.3764C164.197 39.6958 167.19 42.704 170.909 42.6391Z"></path>
<path mask="url(#path-1-outside-1_2389_373)" stroke-linejoin="round" stroke-width="6.47359" stroke="#E334C3" d="M195.885 37.2223L195.711 27.2639L215.388 26.9204L215.562 36.8789L195.885 37.2223Z"></path>
<path mask="url(#path-1-outside-1_2389_373)" stroke-linejoin="round" stroke-width="6.47359" stroke="#E334C3" d="M241.444 50.9493C234.005 51.0792 226.945 48.862 221.646 44.3338L227.989 36.4819C232.246 39.7081 236.836 41.3683 241.695 41.2835C244.875 41.228 246.536 40.1188 246.504 38.3191L246.502 38.1991C246.471 36.3994 245.075 35.5236 239.292 34.2443C230.318 32.3607 223.375 29.9615 223.225 21.3828L223.223 21.2628C223.087 13.464 229.168 7.71699 239.246 7.54107C246.385 7.41646 251.998 9.23878 256.621 12.8186L250.945 21.139C247.058 18.4464 242.834 17.1399 239.115 17.2048C236.295 17.254 234.935 18.418 234.962 19.9777L234.965 20.0977C234.998 22.0174 236.453 22.8321 242.355 24.0493C251.99 25.9815 258.043 28.9963 258.181 36.8551L258.183 36.9751C258.332 45.5538 251.642 50.7713 241.444 50.9493Z"></path>
<path mask="url(#path-1-outside-1_2389_373)" stroke-linejoin="round" stroke-width="6.47359" stroke="#E334C3" d="M278.732 50.2384C271.893 50.3578 267.821 47.4284 267.686 39.6896L267.455 26.4316L263.615 26.4987L263.456 17.38L267.296 17.313L267.152 9.09427L278.49 8.89636L278.634 17.1151L286.193 16.9832L286.352 26.1018L278.793 26.2337L278.986 37.272C279.026 39.5517 280.062 40.4937 282.162 40.4571C283.662 40.4309 285.094 39.9859 286.462 39.3019L286.617 48.1805C284.597 49.3559 281.911 50.1829 278.732 50.2384Z"></path>
<path mask="url(#path-1-outside-1_2389_373)" stroke-linejoin="round" stroke-width="6.47359" stroke="#E334C3" d="M305.529 49.8307C298.63 49.9511 294.35 45.4051 294.221 38.0263L293.851 16.8495L305.25 16.6505L305.556 34.2279C305.618 37.7673 307.511 39.6546 310.271 39.6064C313.031 39.5582 315.037 37.6029 314.975 34.0635L314.668 16.4861L326.007 16.2882L326.573 48.7433L315.235 48.9412L315.156 44.4419C313.104 47.1781 310.148 49.7501 305.529 49.8307Z"></path>
<path mask="url(#path-1-outside-1_2389_373)" stroke-linejoin="round" stroke-width="6.47359" stroke="#E334C3" d="M348.89 49.0739C341.151 49.2089 334.38 42.9061 334.199 32.5277L334.196 32.4077C334.012 21.8493 340.559 15.3141 348.238 15.1801C353.157 15.0942 356.075 17.2636 358.218 19.6866L357.951 4.3889L369.349 4.18994L370.114 47.9833L358.715 48.1822L358.64 43.8629C356.468 46.6012 353.749 48.989 348.89 49.0739ZM352.143 39.4756C355.862 39.4107 358.748 36.2998 358.673 31.9805L358.671 31.8605C358.596 27.6012 355.602 24.533 351.883 24.5979C348.223 24.6618 345.277 27.7736 345.353 32.093L345.355 32.213C345.43 36.5323 348.483 39.5395 352.143 39.4756Z"></path>
<path mask="url(#path-1-outside-1_2389_373)" stroke-linejoin="round" stroke-width="6.47359" stroke="#E334C3" d="M395.012 34.6467L400.789 14.9829L412.488 14.7787L401.162 46.6612C398.476 54.3293 395.467 57.3222 388.988 57.4353C384.969 57.5055 381.591 56.4843 378.561 54.7969L381.901 46.7574C383.78 47.8047 385.651 48.4322 386.911 48.4102C388.05 48.3903 388.825 48.0767 389.587 47.0433L376.313 15.4101L388.191 15.2028L395.012 34.6467Z"></path>
<path mask="url(#path-1-outside-1_2389_373)" stroke-linejoin="round" stroke-width="6.47359" stroke="#E334C3" d="M86.7411 124.941L86.0081 82.9469L107.545 82.571C112.824 82.4789 116.566 83.7337 119.068 86.0904C120.778 87.8008 121.837 90.0027 121.887 92.8823L121.889 93.0022C121.974 97.8615 119.265 100.789 115.573 102.474C120.702 104.065 123.992 106.888 124.091 112.587L124.093 112.707C124.219 119.906 118.416 124.388 108.398 124.563L86.7411 124.941ZM110.473 95.6019L110.471 95.4819C110.43 93.1423 108.548 91.9149 105.129 91.9746L97.5097 92.1076L97.6385 99.4865L104.957 99.3587C108.497 99.2969 110.516 98.0615 110.473 95.6019ZM112.425 111.17C112.385 108.891 110.559 107.422 106.66 107.49L97.7809 107.645L97.916 115.384L106.915 115.227C110.514 115.164 112.47 113.75 112.427 111.29L112.425 111.17Z"></path>
<path mask="url(#path-1-outside-1_2389_373)" stroke-linejoin="round" stroke-width="6.47359" stroke="#E334C3" d="M141.276 124.709C135.097 124.817 130.355 121.299 130.243 114.88L130.241 114.76C130.122 107.981 135.162 104.472 142.781 104.339C145.78 104.287 148.729 104.776 150.601 105.463L150.592 104.923C150.532 101.504 148.399 99.6206 144.02 99.697C140.6 99.7567 137.973 100.523 135.053 101.654L132.574 93.7159C136.207 92.1522 140.089 91.0643 145.668 90.9669C151.487 90.8654 155.47 92.176 158.095 94.7106C160.596 97.0673 161.675 100.409 161.755 104.968L162.08 123.625L150.862 123.821L150.802 120.402C148.566 122.901 145.535 124.634 141.276 124.709ZM145.231 117.499C148.59 117.44 150.893 115.299 150.837 112.06L150.81 110.56C149.602 110.101 147.976 109.77 146.297 109.799C142.997 109.856 141.105 111.45 141.147 113.909L141.15 114.029C141.188 116.249 142.891 117.539 145.231 117.499Z"></path>
<path mask="url(#path-1-outside-1_2389_373)" stroke-linejoin="round" stroke-width="6.47359" stroke="#E334C3" d="M171.177 123.467L170.412 79.6734L181.751 79.4755L182.515 123.269L171.177 123.467Z"></path>
<path mask="url(#path-1-outside-1_2389_373)" stroke-linejoin="round" stroke-width="6.47359" stroke="#E334C3" d="M201.232 123.662C195.053 123.77 190.311 120.252 190.198 113.833L190.196 113.713C190.078 106.934 195.118 103.426 202.736 103.293C205.736 103.24 208.685 103.729 210.557 104.417L210.548 103.877C210.488 100.457 208.355 98.5741 203.976 98.6505C200.556 98.7102 197.929 99.4762 195.008 100.607L192.529 92.6693C196.163 91.1057 200.044 90.0178 205.623 89.9204C211.443 89.8188 215.426 91.1295 218.051 93.6641C220.552 96.0208 221.631 99.3625 221.71 103.922L222.036 122.579L210.818 122.775L210.758 119.355C208.521 121.855 205.491 123.588 201.232 123.662ZM205.186 116.452C208.546 116.393 210.849 114.253 210.792 111.013L210.766 109.514C209.558 109.055 207.932 108.723 206.252 108.752C202.953 108.81 201.06 110.403 201.103 112.863L201.105 112.983C201.144 115.202 202.847 116.493 205.186 116.452Z"></path>
<path mask="url(#path-1-outside-1_2389_373)" stroke-linejoin="round" stroke-width="6.47359" stroke="#E334C3" d="M230.833 122.425L230.266 89.9703L241.664 89.7714L241.744 94.3307C243.796 91.5944 246.751 88.9625 251.37 88.8819C258.269 88.7614 262.488 93.2485 262.617 100.627L262.988 121.864L251.649 122.062L251.343 104.485C251.28 100.885 249.387 98.998 246.627 99.0462C243.867 99.0944 241.861 101.05 241.924 104.649L242.231 122.226L230.833 122.425Z"></path>
<path mask="url(#path-1-outside-1_2389_373)" stroke-linejoin="round" stroke-width="6.47359" stroke="#E334C3" d="M287.585 122.215C277.746 122.387 270.473 114.832 270.313 105.654L270.311 105.534C270.151 96.3552 277.095 88.4928 287.353 88.3138C294.012 88.1975 298.502 90.9996 301.337 95.2708L293.758 101.164C292.102 99.0925 290.339 97.8031 287.64 97.8502C283.92 97.9152 281.278 101.262 281.347 105.221L281.349 105.341C281.423 109.541 284.118 112.674 287.957 112.607C290.717 112.559 292.435 111.269 294.138 109.139L301.853 114.525C298.931 119.016 294.664 122.091 287.585 122.215Z"></path>
<path mask="url(#path-1-outside-1_2389_373)" stroke-linejoin="round" stroke-width="6.47359" stroke="#E334C3" d="M324.281 121.574C314.082 121.752 306.764 115.039 306.589 105.021L306.587 104.901C306.421 95.4221 313.069 87.8049 322.668 87.6374C333.826 87.4426 339.129 95.5713 339.295 105.11C339.308 105.83 339.323 106.67 339.276 107.451L317.56 107.83C318.521 111.353 321.132 113.108 324.672 113.046C327.431 112.998 329.513 111.942 331.813 109.621L338.203 114.73C335.153 118.744 330.7 121.462 324.281 121.574ZM317.278 102.014L328.616 101.816C328.134 98.2236 325.934 95.9816 322.815 96.0361C319.815 96.0884 317.815 98.4037 317.278 102.014Z"></path>
</g>
<defs>
<filter color-interpolation-filters="sRGB" filterUnits="userSpaceOnUse" height="132.619" width="415.678" y="0.953125" x="0.0465021" id="filter0_d_2389_373">
<feFlood result="BackgroundImageFix" flood-opacity="0"></feFlood>
<feColorMatrix result="hardAlpha" values="0 0 0 0 0 0 0 0 0 0 0 0 0 0 0 0 0 0 127 0" type="matrix" in="SourceAlpha"></feColorMatrix>
<feOffset dy="5.39466" dx="-5.39466"></feOffset>
<feComposite operator="out" in2="hardAlpha"></feComposite>
<feColorMatrix values="0 0 0 0 0.890196 0 0 0 0 0.203922 0 0 0 0 0.764706 0 0 0 1 0" type="matrix"></feColorMatrix>
<feBlend result="effect1_dropShadow_2389_373" in2="BackgroundImageFix" mode="normal"></feBlend>
<feBlend result="shape" in2="effect1_dropShadow_2389_373" in="SourceGraphic" mode="normal"></feBlend>
</filter>
</defs>
</svg>
