<svg xmlns="http://www.w3.org/2000/svg" fill="none" viewBox="0 0 247 194" height="194" width="247">
<g filter="url(#filter0_d_1765_440)">
<mask fill="black" height="191" width="244" y="-0.280365" x="2.93652" maskUnits="userSpaceOnUse" id="path-1-outside-1_1765_440">
<rect height="191" width="244" y="-0.280365" x="2.93652" fill="white"></rect>
<path d="M16.816 46.0422L14.882 24.9306L6.55687 25.6932L5.93652 18.9216L30.3543 16.6847L30.9746 23.4563L22.6097 24.2227L24.5437 45.3343L16.816 46.0422Z"></path>
<path d="M37.7375 44.1256L35.0736 15.0473L42.642 14.354L43.6017 24.8301C44.8316 22.9099 46.6737 21.0943 49.7408 20.8133C54.3216 20.3937 57.3475 23.1692 57.7963 28.0687L59.0881 42.1697L51.5596 42.8593L50.4904 31.1882C50.2715 28.7982 48.9199 27.6367 47.0876 27.8045C45.2552 27.9724 44.0177 29.3711 44.2366 31.7611L45.3058 43.4322L37.7375 44.1256Z"></path>
<path d="M62.8619 18.1251L62.351 12.5485L70.1981 11.8296L70.709 17.4063L62.8619 18.1251ZM65.1742 41.6121L63.2 20.0624L70.7285 19.3727L72.7026 40.9224L65.1742 41.6121Z"></path>
<path d="M87.5557 40.0438C83.9308 40.3758 80.2473 39.6288 77.1026 37.7478L79.5148 32.9477C82.1341 34.3546 84.8795 34.9467 87.1102 34.7423C88.4247 34.6219 89.0255 34.1652 88.9562 33.4083L88.9489 33.3287C88.8686 32.4523 87.6009 32.207 85.272 31.7776C80.9077 31.0528 77.3905 29.9289 76.9964 25.6269L76.9891 25.5473C76.5695 20.9665 80.0006 18.0814 84.9797 17.6253C88.1266 17.337 91.4768 17.9539 94.0924 19.321L91.9412 24.3382C89.5937 23.2679 87.0946 22.7337 85.3818 22.8906C84.2266 22.9964 83.6692 23.4893 83.7276 24.1266L83.7349 24.2063C83.8116 25.0428 85.1227 25.3243 87.4154 25.7972C91.787 26.6017 95.3079 27.7654 95.691 31.9478L95.6983 32.0275C96.1326 36.7677 92.8136 39.5621 87.5557 40.0438Z"></path>
<path d="M112.327 13.5937L111.816 8.01704L119.663 7.29817L120.174 12.8748L112.327 13.5937ZM114.639 37.0807L112.665 15.5309L120.193 14.8412L122.167 36.391L114.639 37.0807Z"></path>
<path d="M137.02 35.5123C133.396 35.8444 129.712 35.0973 126.567 33.2164L128.98 28.4163C131.599 29.8232 134.344 30.4152 136.575 30.2109C137.889 30.0905 138.49 29.6337 138.421 28.8769L138.414 28.7972C138.333 27.9209 137.066 27.6755 134.737 27.2462C130.372 26.5213 126.855 25.3975 126.461 21.0955L126.454 21.0158C126.034 16.435 129.465 13.55 134.444 13.0938C137.591 12.8056 140.942 13.4225 143.557 14.7896L141.406 19.8068C139.058 18.7365 136.559 18.2022 134.847 18.3591C133.691 18.465 133.134 18.9579 133.192 19.5952L133.2 19.6749C133.276 20.5113 134.587 20.7929 136.88 21.2657C141.252 22.0703 144.773 23.2339 145.156 27.4164L145.163 27.4961C145.597 32.2362 142.278 35.0307 137.02 35.5123Z"></path>
<path d="M178.455 31.7969C169.851 32.5851 162.89 26.7558 162.157 18.7493L162.149 18.6697C161.416 10.6632 167.274 3.57922 175.878 2.79101C184.482 2.00281 191.443 7.8321 192.176 15.8386L192.184 15.9182C192.917 23.9247 187.059 31.0087 178.455 31.7969ZM177.896 24.8188C182.118 24.432 184.633 20.7472 184.264 16.7241L184.257 16.6444C183.885 12.5814 180.699 9.37867 176.437 9.76912C172.175 10.1596 169.66 13.8443 170.029 17.8675L170.036 17.9471C170.405 21.9703 173.634 25.2092 177.896 24.8188Z"></path>
<path d="M206.253 29.17C201.673 29.5896 198.603 26.7779 198.154 21.8784L196.866 7.81727L204.435 7.12394L205.504 18.7951C205.719 21.1452 207.071 22.3068 208.903 22.1389C210.735 21.9711 211.973 20.5723 211.758 18.2222L210.688 6.55104L218.217 5.86136L220.191 27.4111L212.663 28.1008L212.389 25.1133C211.159 27.0335 209.32 28.889 206.253 29.17Z"></path>
<path d="M226.237 26.8572L224.263 5.30746L231.831 4.61414L232.229 8.95596C233.194 5.89518 235.01 3.80073 238.61 3.63164L239.34 11.5983L238.703 11.6567C234.759 12.0179 232.736 14.4928 233.189 19.4321L233.806 26.1639L226.237 26.8572Z"></path>
<path d="M38.3536 92.2701L37.8208 86.4545L47.5273 77.5318C49.9303 75.2631 50.8456 73.8537 50.6923 72.1807C50.5281 70.3882 49.1948 69.4259 47.2828 69.601C45.4106 69.7725 44.0389 71.0229 42.078 73.7331L36.4621 69.8693C39.0956 65.7318 41.8897 63.3469 47.2672 62.8543C53.3617 62.296 57.8762 65.5377 58.3579 70.7956L58.3652 70.8753C58.7739 75.3366 56.6752 77.8586 52.8063 81.2256L48.3328 85.0095L59.8446 83.9549L60.4212 90.2485L38.3536 92.2701Z"></path>
<path d="M78.438 89.1604C70.5111 89.8865 64.9734 83.8064 64.2509 75.9194L64.2436 75.8397C63.521 67.9528 67.9343 60.8807 75.8611 60.1545C83.7879 59.4283 89.3257 65.5085 90.0482 73.3955L90.0555 73.4751C90.778 81.3621 86.4046 88.4306 78.438 89.1604ZM77.89 82.3018C80.997 82.0171 82.7004 78.6879 82.2953 74.2664L82.288 74.1867C81.8793 69.7254 79.5124 66.6886 76.4054 66.9733C73.3383 67.2543 71.595 70.5872 72.0037 75.0485L72.011 75.1282C72.4197 79.5895 74.783 82.5864 77.89 82.3018Z"></path>
<path d="M95.9017 86.9982L95.3689 81.1825L105.075 72.2598C107.478 69.9911 108.394 68.5818 108.24 66.9088C108.076 65.1163 106.743 64.1539 104.831 64.3291C102.959 64.5006 101.587 65.7509 99.6261 68.4611L94.0102 64.5973C96.6437 60.4598 99.4378 58.075 104.815 57.5824C110.91 57.024 115.424 60.2657 115.906 65.5237L115.913 65.6034C116.322 70.0647 114.223 72.5867 110.354 75.9537L105.881 79.7375L117.393 78.6829L117.969 84.9766L95.9017 86.9982Z"></path>
<path d="M136.188 83.3076L135.692 77.8903L122.148 79.131L120.414 73.7869L133.297 55.2544L141.064 54.5428L142.611 71.4321L146.157 71.1073L146.686 76.8831L143.14 77.2079L143.637 82.6252L136.188 83.3076ZM128.474 72.7673L135.166 72.1543L134.429 64.108L128.474 72.7673Z"></path>
<path d="M151.061 72.7066L150.455 66.0942L163.521 64.8973L164.126 71.5096L151.061 72.7066Z"></path>
<path d="M169.873 80.2217L169.34 74.4061L179.047 65.4833C181.45 63.2147 182.365 61.8053 182.212 60.1323C182.048 58.3398 180.714 57.3774 178.802 57.5526C176.93 57.7241 175.559 58.9744 173.598 61.6846L167.982 57.8208C170.615 53.6833 173.409 51.2985 178.787 50.8059C184.881 50.2476 189.396 53.4892 189.878 58.7472L189.885 58.8269C190.294 63.2882 188.195 65.8102 184.326 69.1772L179.852 72.961L191.364 71.9065L191.941 78.2001L169.873 80.2217Z"></path>
<path d="M207.528 77.3345C202.588 77.787 199.006 76.388 195.85 73.9457L199.797 68.3624C202.203 70.07 204.456 70.9883 206.846 70.7694C209.395 70.5358 210.792 69.1225 210.61 67.1308L210.602 67.0512C210.416 65.0197 208.634 63.9779 206.204 64.2005C204.491 64.3574 203.112 65.0863 201.87 66.0034L197.052 63.8339L196.557 49.6599L215.199 47.9522L215.783 54.3255L203.236 55.4749L203.383 59.7192C204.603 59.0049 205.881 58.4861 207.754 58.3146C212.773 57.8548 217.569 60.2272 218.124 66.2818L218.131 66.3615C218.697 72.5356 214.299 76.7142 207.528 77.3345Z"></path>
<path d="M72.5499 137.82C67.6106 138.273 62.8078 137.146 59.0613 134.397L62.8925 128.864C65.8816 130.799 69.0147 131.677 72.2412 131.382C74.3524 131.188 75.402 130.369 75.2925 129.174L75.2852 129.095C75.1758 127.9 74.2049 127.386 70.297 126.82C64.2377 126.009 59.5037 124.756 58.9818 119.06L58.9745 118.98C58.5002 113.802 62.26 109.682 68.9519 109.069C73.6921 108.635 77.5134 109.57 80.7633 111.722L77.3994 117.533C74.6822 115.935 71.8099 115.274 69.3403 115.5C67.4681 115.672 66.6213 116.512 66.7162 117.548L66.7235 117.628C66.8402 118.902 67.8473 119.373 71.8312 119.891C78.3323 120.702 82.5054 122.408 82.9834 127.626L82.9907 127.706C83.5125 133.402 79.3215 137.2 72.5499 137.82Z"></path>
<path d="M99.5741 135.385C93.0415 135.983 87.8343 131.319 87.2759 125.224L87.2686 125.145C86.7103 119.05 90.9399 113.481 97.7514 112.857C102.173 112.452 105.296 114.094 107.391 116.794L102.642 121.085C101.439 119.79 100.204 119.019 98.4113 119.183C95.9416 119.41 94.3498 121.765 94.5907 124.394L94.598 124.473C94.8534 127.262 96.7995 129.212 99.3488 128.979C101.181 128.811 102.26 127.869 103.287 126.369L108.682 129.57C106.96 132.7 104.274 134.954 99.5741 135.385Z"></path>
<path d="M113.761 133.563L111.097 104.485L118.665 103.792L119.625 114.268C120.855 112.347 122.697 110.532 125.764 110.251C130.345 109.831 133.371 112.607 133.819 117.506L135.111 131.607L127.583 132.297L126.513 120.626C126.295 118.236 124.943 117.074 123.111 117.242C121.278 117.41 120.041 118.809 120.26 121.199L121.329 132.87L113.761 133.563Z"></path>
<path d="M152.039 130.579C145.188 131.206 139.746 126.604 139.184 120.469L139.176 120.39C138.614 114.255 143.163 108.657 150.054 108.026C156.945 107.394 162.387 111.997 162.949 118.131L162.957 118.211C163.519 124.345 158.97 129.944 152.039 130.579ZM151.532 124.158C154.28 123.906 155.872 121.551 155.635 118.962L155.627 118.883C155.383 116.214 153.227 114.162 150.558 114.406C147.809 114.658 146.257 117.01 146.498 119.638L146.506 119.718C146.746 122.347 148.863 124.403 151.532 124.158Z"></path>
<path d="M180.172 128.001C173.32 128.629 167.878 124.026 167.316 117.892L167.308 117.812C166.747 111.678 171.295 106.08 178.186 105.449C185.077 104.817 190.52 109.42 191.082 115.554L191.089 115.634C191.651 121.768 187.103 127.366 180.172 128.001ZM179.664 121.581C182.412 121.329 184.004 118.974 183.767 116.385L183.76 116.305C183.515 113.637 181.359 111.585 178.69 111.829C175.942 112.081 174.39 114.432 174.63 117.061L174.638 117.141C174.879 119.77 176.995 121.825 179.664 121.581Z"></path>
<path d="M197.462 125.895L194.798 96.8171L202.326 96.1274L204.99 125.206L197.462 125.895Z"></path>
<path d="M39.3069 188.585L38.3508 178.148L26.1171 161.676L34.9202 160.869L41.5867 170.501L46.432 159.815L55.0758 159.023L46.0675 177.321L47.0345 187.877L39.3069 188.585Z"></path>
<path d="M67.9269 186.485C61.1552 187.105 55.9592 183.002 55.3498 176.35L55.3425 176.271C54.766 169.977 58.811 164.585 65.1843 164.002C72.5933 163.323 76.5189 168.466 77.0991 174.8C77.1429 175.278 77.194 175.835 77.2016 176.357L62.7819 177.678C63.5947 179.973 65.417 181.011 67.7672 180.796C69.5995 180.628 70.9317 179.823 72.3465 178.167L76.8464 181.25C75.016 184.068 72.189 186.095 67.9269 186.485ZM62.3085 173.825L69.837 173.135C69.3392 170.771 67.7665 169.388 65.6952 169.578C63.7035 169.761 62.4879 171.398 62.3085 173.825Z"></path>
<path d="M89.5306 184.466C85.4277 184.842 82.1018 182.736 81.7113 178.474L81.704 178.395C81.2917 173.893 84.4695 171.313 89.5283 170.849C91.52 170.667 93.5047 170.847 94.7833 171.211L94.7505 170.853C94.5425 168.582 93.0315 167.435 90.1237 167.702C87.8532 167.91 86.1443 168.548 84.2582 169.444L82.2194 164.289C84.558 163.07 87.0851 162.156 90.7896 161.817C94.6534 161.463 97.3663 162.138 99.2361 163.694C101.015 165.138 101.897 167.306 102.174 170.333L103.309 182.722L95.8601 183.404L95.6521 181.133C94.288 182.905 92.3587 184.207 89.5306 184.466ZM91.805 179.478C94.0356 179.273 95.4614 177.737 95.2644 175.586L95.1731 174.59C94.3473 174.344 93.2499 174.204 92.1346 174.306C89.9437 174.507 88.7639 175.659 88.9136 177.292L88.9209 177.372C89.0559 178.846 90.2515 179.62 91.805 179.478Z"></path>
<path d="M109.15 182.187L107.176 160.637L114.744 159.943L115.142 164.285C116.106 161.224 117.923 159.13 121.523 158.961L122.252 166.928L121.615 166.986C117.672 167.347 115.649 169.822 116.101 174.761L116.718 181.493L109.15 182.187Z"></path>
<path d="M141.657 179.209L139.102 151.325L151.092 150.227C158.103 149.585 162.976 152.794 163.538 158.928L163.545 159.008C164.151 165.62 159.41 169.549 152.518 170.18L148.655 170.534L149.384 178.501L141.657 179.209ZM148.1 164.479L151.804 164.14C154.513 163.892 156.091 162.261 155.89 160.07L155.883 159.991C155.664 157.601 153.838 156.523 151.089 156.775L147.425 157.11L148.1 164.479Z"></path>
<path d="M175.647 176.577C171.544 176.953 168.218 174.847 167.827 170.585L167.82 170.505C167.408 166.004 170.585 163.424 175.644 162.96C177.636 162.778 179.621 162.957 180.899 163.322L180.866 162.964C180.658 160.693 179.147 159.546 176.24 159.813C173.969 160.021 172.26 160.659 170.374 161.555L168.335 156.4C170.674 155.181 173.201 154.267 176.906 153.928C180.769 153.574 183.482 154.249 185.352 155.805C187.131 157.248 188.013 159.417 188.29 162.444L189.425 174.833L181.976 175.515L181.768 173.244C180.404 175.016 178.475 176.318 175.647 176.577ZM177.921 171.589C180.152 171.384 181.577 169.848 181.38 167.697L181.289 166.701C180.463 166.455 179.366 166.315 178.251 166.417C176.06 166.618 174.88 167.77 175.03 169.403L175.037 169.483C175.172 170.957 176.367 171.731 177.921 171.589Z"></path>
<path d="M206.452 179.78C202.31 180.159 198.724 179.604 195.471 178.295L197.441 173.054C199.868 174.117 202.248 174.662 205.156 174.396C208.9 174.053 210.601 172.009 210.287 168.583L210.21 167.747C208.857 169.638 207.001 171.294 203.894 171.579C198.596 172.064 193.944 168.635 193.378 162.46L193.371 162.381C192.801 156.167 196.833 151.941 201.772 151.489C205.038 151.19 207.071 152.329 208.821 153.896L208.587 151.346L216.156 150.653L217.656 167.025C218.017 170.968 217.396 173.837 215.655 175.884C213.886 178.054 210.954 179.367 206.452 179.78ZM205.592 165.559C208.181 165.322 209.849 163.362 209.63 160.972L209.623 160.892C209.404 158.502 207.367 156.881 204.818 157.114C202.229 157.352 200.561 159.312 200.783 161.742L200.791 161.821C201.01 164.211 203.002 165.796 205.592 165.559Z"></path>
<path d="M234.938 171.185C228.167 171.806 222.971 167.703 222.361 161.05L222.354 160.971C221.778 154.677 225.823 149.286 232.196 148.702C239.605 148.023 243.53 153.166 244.111 159.5C244.154 159.978 244.206 160.535 244.213 161.057L229.794 162.378C230.606 164.673 232.429 165.711 234.779 165.496C236.611 165.328 237.943 164.523 239.358 162.867L243.858 165.95C242.028 168.768 239.201 170.795 234.938 171.185ZM229.32 158.525L236.849 157.835C236.351 155.471 234.778 154.089 232.707 154.278C230.715 154.461 229.499 156.099 229.32 158.525Z"></path>
</mask>
<path fill="white" d="M16.816 46.0422L14.882 24.9306L6.55687 25.6932L5.93652 18.9216L30.3543 16.6847L30.9746 23.4563L22.6097 24.2227L24.5437 45.3343L16.816 46.0422Z"></path>
<path fill="white" d="M37.7375 44.1256L35.0736 15.0473L42.642 14.354L43.6017 24.8301C44.8316 22.9099 46.6737 21.0943 49.7408 20.8133C54.3216 20.3937 57.3475 23.1692 57.7963 28.0687L59.0881 42.1697L51.5596 42.8593L50.4904 31.1882C50.2715 28.7982 48.9199 27.6367 47.0876 27.8045C45.2552 27.9724 44.0177 29.3711 44.2366 31.7611L45.3058 43.4322L37.7375 44.1256Z"></path>
<path fill="white" d="M62.8619 18.1251L62.351 12.5485L70.1981 11.8296L70.709 17.4063L62.8619 18.1251ZM65.1742 41.6121L63.2 20.0624L70.7285 19.3727L72.7026 40.9224L65.1742 41.6121Z"></path>
<path fill="white" d="M87.5557 40.0438C83.9308 40.3758 80.2473 39.6288 77.1026 37.7478L79.5148 32.9477C82.1341 34.3546 84.8795 34.9467 87.1102 34.7423C88.4247 34.6219 89.0255 34.1652 88.9562 33.4083L88.9489 33.3287C88.8686 32.4523 87.6009 32.207 85.272 31.7776C80.9077 31.0528 77.3905 29.9289 76.9964 25.6269L76.9891 25.5473C76.5695 20.9665 80.0006 18.0814 84.9797 17.6253C88.1266 17.337 91.4768 17.9539 94.0924 19.321L91.9412 24.3382C89.5937 23.2679 87.0946 22.7337 85.3818 22.8906C84.2266 22.9964 83.6692 23.4893 83.7276 24.1266L83.7349 24.2063C83.8116 25.0428 85.1227 25.3243 87.4154 25.7972C91.787 26.6017 95.3079 27.7654 95.691 31.9478L95.6983 32.0275C96.1326 36.7677 92.8136 39.5621 87.5557 40.0438Z"></path>
<path fill="white" d="M112.327 13.5937L111.816 8.01704L119.663 7.29817L120.174 12.8748L112.327 13.5937ZM114.639 37.0807L112.665 15.5309L120.193 14.8412L122.167 36.391L114.639 37.0807Z"></path>
<path fill="white" d="M137.02 35.5123C133.396 35.8444 129.712 35.0973 126.567 33.2164L128.98 28.4163C131.599 29.8232 134.344 30.4152 136.575 30.2109C137.889 30.0905 138.49 29.6337 138.421 28.8769L138.414 28.7972C138.333 27.9209 137.066 27.6755 134.737 27.2462C130.372 26.5213 126.855 25.3975 126.461 21.0955L126.454 21.0158C126.034 16.435 129.465 13.55 134.444 13.0938C137.591 12.8056 140.942 13.4225 143.557 14.7896L141.406 19.8068C139.058 18.7365 136.559 18.2022 134.847 18.3591C133.691 18.465 133.134 18.9579 133.192 19.5952L133.2 19.6749C133.276 20.5113 134.587 20.7929 136.88 21.2657C141.252 22.0703 144.773 23.2339 145.156 27.4164L145.163 27.4961C145.597 32.2362 142.278 35.0307 137.02 35.5123Z"></path>
<path fill="white" d="M178.455 31.7969C169.851 32.5851 162.89 26.7558 162.157 18.7493L162.149 18.6697C161.416 10.6632 167.274 3.57922 175.878 2.79101C184.482 2.00281 191.443 7.8321 192.176 15.8386L192.184 15.9182C192.917 23.9247 187.059 31.0087 178.455 31.7969ZM177.896 24.8188C182.118 24.432 184.633 20.7472 184.264 16.7241L184.257 16.6444C183.885 12.5814 180.699 9.37867 176.437 9.76912C172.175 10.1596 169.66 13.8443 170.029 17.8675L170.036 17.9471C170.405 21.9703 173.634 25.2092 177.896 24.8188Z"></path>
<path fill="white" d="M206.253 29.17C201.673 29.5896 198.603 26.7779 198.154 21.8784L196.866 7.81727L204.435 7.12394L205.504 18.7951C205.719 21.1452 207.071 22.3068 208.903 22.1389C210.735 21.9711 211.973 20.5723 211.758 18.2222L210.688 6.55104L218.217 5.86136L220.191 27.4111L212.663 28.1008L212.389 25.1133C211.159 27.0335 209.32 28.889 206.253 29.17Z"></path>
<path fill="white" d="M226.237 26.8572L224.263 5.30746L231.831 4.61414L232.229 8.95596C233.194 5.89518 235.01 3.80073 238.61 3.63164L239.34 11.5983L238.703 11.6567C234.759 12.0179 232.736 14.4928 233.189 19.4321L233.806 26.1639L226.237 26.8572Z"></path>
<path fill="white" d="M38.3536 92.2701L37.8208 86.4545L47.5273 77.5318C49.9303 75.2631 50.8456 73.8537 50.6923 72.1807C50.5281 70.3882 49.1948 69.4259 47.2828 69.601C45.4106 69.7725 44.0389 71.0229 42.078 73.7331L36.4621 69.8693C39.0956 65.7318 41.8897 63.3469 47.2672 62.8543C53.3617 62.296 57.8762 65.5377 58.3579 70.7956L58.3652 70.8753C58.7739 75.3366 56.6752 77.8586 52.8063 81.2256L48.3328 85.0095L59.8446 83.9549L60.4212 90.2485L38.3536 92.2701Z"></path>
<path fill="white" d="M78.438 89.1604C70.5111 89.8865 64.9734 83.8064 64.2509 75.9194L64.2436 75.8397C63.521 67.9528 67.9343 60.8807 75.8611 60.1545C83.7879 59.4283 89.3257 65.5085 90.0482 73.3955L90.0555 73.4751C90.778 81.3621 86.4046 88.4306 78.438 89.1604ZM77.89 82.3018C80.997 82.0171 82.7004 78.6879 82.2953 74.2664L82.288 74.1867C81.8793 69.7254 79.5124 66.6886 76.4054 66.9733C73.3383 67.2543 71.595 70.5872 72.0037 75.0485L72.011 75.1282C72.4197 79.5895 74.783 82.5864 77.89 82.3018Z"></path>
<path fill="white" d="M95.9017 86.9982L95.3689 81.1825L105.075 72.2598C107.478 69.9911 108.394 68.5818 108.24 66.9088C108.076 65.1163 106.743 64.1539 104.831 64.3291C102.959 64.5006 101.587 65.7509 99.6261 68.4611L94.0102 64.5973C96.6437 60.4598 99.4378 58.075 104.815 57.5824C110.91 57.024 115.424 60.2657 115.906 65.5237L115.913 65.6034C116.322 70.0647 114.223 72.5867 110.354 75.9537L105.881 79.7375L117.393 78.6829L117.969 84.9766L95.9017 86.9982Z"></path>
<path fill="white" d="M136.188 83.3076L135.692 77.8903L122.148 79.131L120.414 73.7869L133.297 55.2544L141.064 54.5428L142.611 71.4321L146.157 71.1073L146.686 76.8831L143.14 77.2079L143.637 82.6252L136.188 83.3076ZM128.474 72.7673L135.166 72.1543L134.429 64.108L128.474 72.7673Z"></path>
<path fill="white" d="M151.061 72.7066L150.455 66.0942L163.521 64.8973L164.126 71.5096L151.061 72.7066Z"></path>
<path fill="white" d="M169.873 80.2217L169.34 74.4061L179.047 65.4833C181.45 63.2147 182.365 61.8053 182.212 60.1323C182.048 58.3398 180.714 57.3774 178.802 57.5526C176.93 57.7241 175.559 58.9744 173.598 61.6846L167.982 57.8208C170.615 53.6833 173.409 51.2985 178.787 50.8059C184.881 50.2476 189.396 53.4892 189.878 58.7472L189.885 58.8269C190.294 63.2882 188.195 65.8102 184.326 69.1772L179.852 72.961L191.364 71.9065L191.941 78.2001L169.873 80.2217Z"></path>
<path fill="white" d="M207.528 77.3345C202.588 77.787 199.006 76.388 195.85 73.9457L199.797 68.3624C202.203 70.07 204.456 70.9883 206.846 70.7694C209.395 70.5358 210.792 69.1225 210.61 67.1308L210.602 67.0512C210.416 65.0197 208.634 63.9779 206.204 64.2005C204.491 64.3574 203.112 65.0863 201.87 66.0034L197.052 63.8339L196.557 49.6599L215.199 47.9522L215.783 54.3255L203.236 55.4749L203.383 59.7192C204.603 59.0049 205.881 58.4861 207.754 58.3146C212.773 57.8548 217.569 60.2272 218.124 66.2818L218.131 66.3615C218.697 72.5356 214.299 76.7142 207.528 77.3345Z"></path>
<path fill="white" d="M72.5499 137.82C67.6106 138.273 62.8078 137.146 59.0613 134.397L62.8925 128.864C65.8816 130.799 69.0147 131.677 72.2412 131.382C74.3524 131.188 75.402 130.369 75.2925 129.174L75.2852 129.095C75.1758 127.9 74.2049 127.386 70.297 126.82C64.2377 126.009 59.5037 124.756 58.9818 119.06L58.9745 118.98C58.5002 113.802 62.26 109.682 68.9519 109.069C73.6921 108.635 77.5134 109.57 80.7633 111.722L77.3994 117.533C74.6822 115.935 71.8099 115.274 69.3403 115.5C67.4681 115.672 66.6213 116.512 66.7162 117.548L66.7235 117.628C66.8402 118.902 67.8473 119.373 71.8312 119.891C78.3323 120.702 82.5054 122.408 82.9834 127.626L82.9907 127.706C83.5125 133.402 79.3215 137.2 72.5499 137.82Z"></path>
<path fill="white" d="M99.5741 135.385C93.0415 135.983 87.8343 131.319 87.2759 125.224L87.2686 125.145C86.7103 119.05 90.9399 113.481 97.7514 112.857C102.173 112.452 105.296 114.094 107.391 116.794L102.642 121.085C101.439 119.79 100.204 119.019 98.4113 119.183C95.9416 119.41 94.3498 121.765 94.5907 124.394L94.598 124.473C94.8534 127.262 96.7995 129.212 99.3488 128.979C101.181 128.811 102.26 127.869 103.287 126.369L108.682 129.57C106.96 132.7 104.274 134.954 99.5741 135.385Z"></path>
<path fill="white" d="M113.761 133.563L111.097 104.485L118.665 103.792L119.625 114.268C120.855 112.347 122.697 110.532 125.764 110.251C130.345 109.831 133.371 112.607 133.819 117.506L135.111 131.607L127.583 132.297L126.513 120.626C126.295 118.236 124.943 117.074 123.111 117.242C121.278 117.41 120.041 118.809 120.26 121.199L121.329 132.87L113.761 133.563Z"></path>
<path fill="white" d="M152.039 130.579C145.188 131.206 139.746 126.604 139.184 120.469L139.176 120.39C138.614 114.255 143.163 108.657 150.054 108.026C156.945 107.394 162.387 111.997 162.949 118.131L162.957 118.211C163.519 124.345 158.97 129.944 152.039 130.579ZM151.532 124.158C154.28 123.906 155.872 121.551 155.635 118.962L155.627 118.883C155.383 116.214 153.227 114.162 150.558 114.406C147.809 114.658 146.257 117.01 146.498 119.638L146.506 119.718C146.746 122.347 148.863 124.403 151.532 124.158Z"></path>
<path fill="white" d="M180.172 128.001C173.32 128.629 167.878 124.026 167.316 117.892L167.308 117.812C166.747 111.678 171.295 106.08 178.186 105.449C185.077 104.817 190.52 109.42 191.082 115.554L191.089 115.634C191.651 121.768 187.103 127.366 180.172 128.001ZM179.664 121.581C182.412 121.329 184.004 118.974 183.767 116.385L183.76 116.305C183.515 113.637 181.359 111.585 178.69 111.829C175.942 112.081 174.39 114.432 174.63 117.061L174.638 117.141C174.879 119.77 176.995 121.825 179.664 121.581Z"></path>
<path fill="white" d="M197.462 125.895L194.798 96.8171L202.326 96.1274L204.99 125.206L197.462 125.895Z"></path>
<path fill="white" d="M39.3069 188.585L38.3508 178.148L26.1171 161.676L34.9202 160.869L41.5867 170.501L46.432 159.815L55.0758 159.023L46.0675 177.321L47.0345 187.877L39.3069 188.585Z"></path>
<path fill="white" d="M67.9269 186.485C61.1552 187.105 55.9592 183.002 55.3498 176.35L55.3425 176.271C54.766 169.977 58.811 164.585 65.1843 164.002C72.5933 163.323 76.5189 168.466 77.0991 174.8C77.1429 175.278 77.194 175.835 77.2016 176.357L62.7819 177.678C63.5947 179.973 65.417 181.011 67.7672 180.796C69.5995 180.628 70.9317 179.823 72.3465 178.167L76.8464 181.25C75.016 184.068 72.189 186.095 67.9269 186.485ZM62.3085 173.825L69.837 173.135C69.3392 170.771 67.7665 169.388 65.6952 169.578C63.7035 169.761 62.4879 171.398 62.3085 173.825Z"></path>
<path fill="white" d="M89.5306 184.466C85.4277 184.842 82.1018 182.736 81.7113 178.474L81.704 178.395C81.2917 173.893 84.4695 171.313 89.5283 170.849C91.52 170.667 93.5047 170.847 94.7833 171.211L94.7505 170.853C94.5425 168.582 93.0315 167.435 90.1237 167.702C87.8532 167.91 86.1443 168.548 84.2582 169.444L82.2194 164.289C84.558 163.07 87.0851 162.156 90.7896 161.817C94.6534 161.463 97.3663 162.138 99.2361 163.694C101.015 165.138 101.897 167.306 102.174 170.333L103.309 182.722L95.8601 183.404L95.6521 181.133C94.288 182.905 92.3587 184.207 89.5306 184.466ZM91.805 179.478C94.0356 179.273 95.4614 177.737 95.2644 175.586L95.1731 174.59C94.3473 174.344 93.2499 174.204 92.1346 174.306C89.9437 174.507 88.7639 175.659 88.9136 177.292L88.9209 177.372C89.0559 178.846 90.2515 179.62 91.805 179.478Z"></path>
<path fill="white" d="M109.15 182.187L107.176 160.637L114.744 159.943L115.142 164.285C116.106 161.224 117.923 159.13 121.523 158.961L122.252 166.928L121.615 166.986C117.672 167.347 115.649 169.822 116.101 174.761L116.718 181.493L109.15 182.187Z"></path>
<path fill="white" d="M141.657 179.209L139.102 151.325L151.092 150.227C158.103 149.585 162.976 152.794 163.538 158.928L163.545 159.008C164.151 165.62 159.41 169.549 152.518 170.18L148.655 170.534L149.384 178.501L141.657 179.209ZM148.1 164.479L151.804 164.14C154.513 163.892 156.091 162.261 155.89 160.07L155.883 159.991C155.664 157.601 153.838 156.523 151.089 156.775L147.425 157.11L148.1 164.479Z"></path>
<path fill="white" d="M175.647 176.577C171.544 176.953 168.218 174.847 167.827 170.585L167.82 170.505C167.408 166.004 170.585 163.424 175.644 162.96C177.636 162.778 179.621 162.957 180.899 163.322L180.866 162.964C180.658 160.693 179.147 159.546 176.24 159.813C173.969 160.021 172.26 160.659 170.374 161.555L168.335 156.4C170.674 155.181 173.201 154.267 176.906 153.928C180.769 153.574 183.482 154.249 185.352 155.805C187.131 157.248 188.013 159.417 188.29 162.444L189.425 174.833L181.976 175.515L181.768 173.244C180.404 175.016 178.475 176.318 175.647 176.577ZM177.921 171.589C180.152 171.384 181.577 169.848 181.38 167.697L181.289 166.701C180.463 166.455 179.366 166.315 178.251 166.417C176.06 166.618 174.88 167.77 175.03 169.403L175.037 169.483C175.172 170.957 176.367 171.731 177.921 171.589Z"></path>
<path fill="white" d="M206.452 179.78C202.31 180.159 198.724 179.604 195.471 178.295L197.441 173.054C199.868 174.117 202.248 174.662 205.156 174.396C208.9 174.053 210.601 172.009 210.287 168.583L210.21 167.747C208.857 169.638 207.001 171.294 203.894 171.579C198.596 172.064 193.944 168.635 193.378 162.46L193.371 162.381C192.801 156.167 196.833 151.941 201.772 151.489C205.038 151.19 207.071 152.329 208.821 153.896L208.587 151.346L216.156 150.653L217.656 167.025C218.017 170.968 217.396 173.837 215.655 175.884C213.886 178.054 210.954 179.367 206.452 179.78ZM205.592 165.559C208.181 165.322 209.849 163.362 209.63 160.972L209.623 160.892C209.404 158.502 207.367 156.881 204.818 157.114C202.229 157.352 200.561 159.312 200.783 161.742L200.791 161.821C201.01 164.211 203.002 165.796 205.592 165.559Z"></path>
<path fill="white" d="M234.938 171.185C228.167 171.806 222.971 167.703 222.361 161.05L222.354 160.971C221.778 154.677 225.823 149.286 232.196 148.702C239.605 148.023 243.53 153.166 244.111 159.5C244.154 159.978 244.206 160.535 244.213 161.057L229.794 162.378C230.606 164.673 232.429 165.711 234.779 165.496C236.611 165.328 237.943 164.523 239.358 162.867L243.858 165.95C242.028 168.768 239.201 170.795 234.938 171.185ZM229.32 158.525L236.849 157.835C236.351 155.471 234.778 154.089 232.707 154.278C230.715 154.461 229.499 156.099 229.32 158.525Z"></path>
<path mask="url(#path-1-outside-1_1765_440)" stroke-linejoin="round" stroke-width="4.03859" stroke="#7523E3" d="M16.816 46.0422L14.882 24.9306L6.55687 25.6932L5.93652 18.9216L30.3543 16.6847L30.9746 23.4563L22.6097 24.2227L24.5437 45.3343L16.816 46.0422Z"></path>
<path mask="url(#path-1-outside-1_1765_440)" stroke-linejoin="round" stroke-width="4.03859" stroke="#7523E3" d="M37.7375 44.1256L35.0736 15.0473L42.642 14.354L43.6017 24.8301C44.8316 22.9099 46.6737 21.0943 49.7408 20.8133C54.3216 20.3937 57.3475 23.1692 57.7963 28.0687L59.0881 42.1697L51.5596 42.8593L50.4904 31.1882C50.2715 28.7982 48.9199 27.6367 47.0876 27.8045C45.2552 27.9724 44.0177 29.3711 44.2366 31.7611L45.3058 43.4322L37.7375 44.1256Z"></path>
<path mask="url(#path-1-outside-1_1765_440)" stroke-linejoin="round" stroke-width="4.03859" stroke="#7523E3" d="M62.8619 18.1251L62.351 12.5485L70.1981 11.8296L70.709 17.4063L62.8619 18.1251ZM65.1742 41.6121L63.2 20.0624L70.7285 19.3727L72.7026 40.9224L65.1742 41.6121Z"></path>
<path mask="url(#path-1-outside-1_1765_440)" stroke-linejoin="round" stroke-width="4.03859" stroke="#7523E3" d="M87.5557 40.0438C83.9308 40.3758 80.2473 39.6288 77.1026 37.7478L79.5148 32.9477C82.1341 34.3546 84.8795 34.9467 87.1102 34.7423C88.4247 34.6219 89.0255 34.1652 88.9562 33.4083L88.9489 33.3287C88.8686 32.4523 87.6009 32.207 85.272 31.7776C80.9077 31.0528 77.3905 29.9289 76.9964 25.6269L76.9891 25.5473C76.5695 20.9665 80.0006 18.0814 84.9797 17.6253C88.1266 17.337 91.4768 17.9539 94.0924 19.321L91.9412 24.3382C89.5937 23.2679 87.0946 22.7337 85.3818 22.8906C84.2266 22.9964 83.6692 23.4893 83.7276 24.1266L83.7349 24.2063C83.8116 25.0428 85.1227 25.3243 87.4154 25.7972C91.787 26.6017 95.3079 27.7654 95.691 31.9478L95.6983 32.0275C96.1326 36.7677 92.8136 39.5621 87.5557 40.0438Z"></path>
<path mask="url(#path-1-outside-1_1765_440)" stroke-linejoin="round" stroke-width="4.03859" stroke="#7523E3" d="M112.327 13.5937L111.816 8.01704L119.663 7.29817L120.174 12.8748L112.327 13.5937ZM114.639 37.0807L112.665 15.5309L120.193 14.8412L122.167 36.391L114.639 37.0807Z"></path>
<path mask="url(#path-1-outside-1_1765_440)" stroke-linejoin="round" stroke-width="4.03859" stroke="#7523E3" d="M137.02 35.5123C133.396 35.8444 129.712 35.0973 126.567 33.2164L128.98 28.4163C131.599 29.8232 134.344 30.4152 136.575 30.2109C137.889 30.0905 138.49 29.6337 138.421 28.8769L138.414 28.7972C138.333 27.9209 137.066 27.6755 134.737 27.2462C130.372 26.5213 126.855 25.3975 126.461 21.0955L126.454 21.0158C126.034 16.435 129.465 13.55 134.444 13.0938C137.591 12.8056 140.942 13.4225 143.557 14.7896L141.406 19.8068C139.058 18.7365 136.559 18.2022 134.847 18.3591C133.691 18.465 133.134 18.9579 133.192 19.5952L133.2 19.6749C133.276 20.5113 134.587 20.7929 136.88 21.2657C141.252 22.0703 144.773 23.2339 145.156 27.4164L145.163 27.4961C145.597 32.2362 142.278 35.0307 137.02 35.5123Z"></path>
<path mask="url(#path-1-outside-1_1765_440)" stroke-linejoin="round" stroke-width="4.03859" stroke="#7523E3" d="M178.455 31.7969C169.851 32.5851 162.89 26.7558 162.157 18.7493L162.149 18.6697C161.416 10.6632 167.274 3.57922 175.878 2.79101C184.482 2.00281 191.443 7.8321 192.176 15.8386L192.184 15.9182C192.917 23.9247 187.059 31.0087 178.455 31.7969ZM177.896 24.8188C182.118 24.432 184.633 20.7472 184.264 16.7241L184.257 16.6444C183.885 12.5814 180.699 9.37867 176.437 9.76912C172.175 10.1596 169.66 13.8443 170.029 17.8675L170.036 17.9471C170.405 21.9703 173.634 25.2092 177.896 24.8188Z"></path>
<path mask="url(#path-1-outside-1_1765_440)" stroke-linejoin="round" stroke-width="4.03859" stroke="#7523E3" d="M206.253 29.17C201.673 29.5896 198.603 26.7779 198.154 21.8784L196.866 7.81727L204.435 7.12394L205.504 18.7951C205.719 21.1452 207.071 22.3068 208.903 22.1389C210.735 21.9711 211.973 20.5723 211.758 18.2222L210.688 6.55104L218.217 5.86136L220.191 27.4111L212.663 28.1008L212.389 25.1133C211.159 27.0335 209.32 28.889 206.253 29.17Z"></path>
<path mask="url(#path-1-outside-1_1765_440)" stroke-linejoin="round" stroke-width="4.03859" stroke="#7523E3" d="M226.237 26.8572L224.263 5.30746L231.831 4.61414L232.229 8.95596C233.194 5.89518 235.01 3.80073 238.61 3.63164L239.34 11.5983L238.703 11.6567C234.759 12.0179 232.736 14.4928 233.189 19.4321L233.806 26.1639L226.237 26.8572Z"></path>
<path mask="url(#path-1-outside-1_1765_440)" stroke-linejoin="round" stroke-width="4.03859" stroke="#7523E3" d="M38.3536 92.2701L37.8208 86.4545L47.5273 77.5318C49.9303 75.2631 50.8456 73.8537 50.6923 72.1807C50.5281 70.3882 49.1948 69.4259 47.2828 69.601C45.4106 69.7725 44.0389 71.0229 42.078 73.7331L36.4621 69.8693C39.0956 65.7318 41.8897 63.3469 47.2672 62.8543C53.3617 62.296 57.8762 65.5377 58.3579 70.7956L58.3652 70.8753C58.7739 75.3366 56.6752 77.8586 52.8063 81.2256L48.3328 85.0095L59.8446 83.9549L60.4212 90.2485L38.3536 92.2701Z"></path>
<path mask="url(#path-1-outside-1_1765_440)" stroke-linejoin="round" stroke-width="4.03859" stroke="#7523E3" d="M78.438 89.1604C70.5111 89.8865 64.9734 83.8064 64.2509 75.9194L64.2436 75.8397C63.521 67.9528 67.9343 60.8807 75.8611 60.1545C83.7879 59.4283 89.3257 65.5085 90.0482 73.3955L90.0555 73.4751C90.778 81.3621 86.4046 88.4306 78.438 89.1604ZM77.89 82.3018C80.997 82.0171 82.7004 78.6879 82.2953 74.2664L82.288 74.1867C81.8793 69.7254 79.5124 66.6886 76.4054 66.9733C73.3383 67.2543 71.595 70.5872 72.0037 75.0485L72.011 75.1282C72.4197 79.5895 74.783 82.5864 77.89 82.3018Z"></path>
<path mask="url(#path-1-outside-1_1765_440)" stroke-linejoin="round" stroke-width="4.03859" stroke="#7523E3" d="M95.9017 86.9982L95.3689 81.1825L105.075 72.2598C107.478 69.9911 108.394 68.5818 108.24 66.9088C108.076 65.1163 106.743 64.1539 104.831 64.3291C102.959 64.5006 101.587 65.7509 99.6261 68.4611L94.0102 64.5973C96.6437 60.4598 99.4378 58.075 104.815 57.5824C110.91 57.024 115.424 60.2657 115.906 65.5237L115.913 65.6034C116.322 70.0647 114.223 72.5867 110.354 75.9537L105.881 79.7375L117.393 78.6829L117.969 84.9766L95.9017 86.9982Z"></path>
<path mask="url(#path-1-outside-1_1765_440)" stroke-linejoin="round" stroke-width="4.03859" stroke="#7523E3" d="M136.188 83.3076L135.692 77.8903L122.148 79.131L120.414 73.7869L133.297 55.2544L141.064 54.5428L142.611 71.4321L146.157 71.1073L146.686 76.8831L143.14 77.2079L143.637 82.6252L136.188 83.3076ZM128.474 72.7673L135.166 72.1543L134.429 64.108L128.474 72.7673Z"></path>
<path mask="url(#path-1-outside-1_1765_440)" stroke-linejoin="round" stroke-width="4.03859" stroke="#7523E3" d="M151.061 72.7066L150.455 66.0942L163.521 64.8973L164.126 71.5096L151.061 72.7066Z"></path>
<path mask="url(#path-1-outside-1_1765_440)" stroke-linejoin="round" stroke-width="4.03859" stroke="#7523E3" d="M169.873 80.2217L169.34 74.4061L179.047 65.4833C181.45 63.2147 182.365 61.8053 182.212 60.1323C182.048 58.3398 180.714 57.3774 178.802 57.5526C176.93 57.7241 175.559 58.9744 173.598 61.6846L167.982 57.8208C170.615 53.6833 173.409 51.2985 178.787 50.8059C184.881 50.2476 189.396 53.4892 189.878 58.7472L189.885 58.8269C190.294 63.2882 188.195 65.8102 184.326 69.1772L179.852 72.961L191.364 71.9065L191.941 78.2001L169.873 80.2217Z"></path>
<path mask="url(#path-1-outside-1_1765_440)" stroke-linejoin="round" stroke-width="4.03859" stroke="#7523E3" d="M207.528 77.3345C202.588 77.787 199.006 76.388 195.85 73.9457L199.797 68.3624C202.203 70.07 204.456 70.9883 206.846 70.7694C209.395 70.5358 210.792 69.1225 210.61 67.1308L210.602 67.0512C210.416 65.0197 208.634 63.9779 206.204 64.2005C204.491 64.3574 203.112 65.0863 201.87 66.0034L197.052 63.8339L196.557 49.6599L215.199 47.9522L215.783 54.3255L203.236 55.4749L203.383 59.7192C204.603 59.0049 205.881 58.4861 207.754 58.3146C212.773 57.8548 217.569 60.2272 218.124 66.2818L218.131 66.3615C218.697 72.5356 214.299 76.7142 207.528 77.3345Z"></path>
<path mask="url(#path-1-outside-1_1765_440)" stroke-linejoin="round" stroke-width="4.03859" stroke="#7523E3" d="M72.5499 137.82C67.6106 138.273 62.8078 137.146 59.0613 134.397L62.8925 128.864C65.8816 130.799 69.0147 131.677 72.2412 131.382C74.3524 131.188 75.402 130.369 75.2925 129.174L75.2852 129.095C75.1758 127.9 74.2049 127.386 70.297 126.82C64.2377 126.009 59.5037 124.756 58.9818 119.06L58.9745 118.98C58.5002 113.802 62.26 109.682 68.9519 109.069C73.6921 108.635 77.5134 109.57 80.7633 111.722L77.3994 117.533C74.6822 115.935 71.8099 115.274 69.3403 115.5C67.4681 115.672 66.6213 116.512 66.7162 117.548L66.7235 117.628C66.8402 118.902 67.8473 119.373 71.8312 119.891C78.3323 120.702 82.5054 122.408 82.9834 127.626L82.9907 127.706C83.5125 133.402 79.3215 137.2 72.5499 137.82Z"></path>
<path mask="url(#path-1-outside-1_1765_440)" stroke-linejoin="round" stroke-width="4.03859" stroke="#7523E3" d="M99.5741 135.385C93.0415 135.983 87.8343 131.319 87.2759 125.224L87.2686 125.145C86.7103 119.05 90.9399 113.481 97.7514 112.857C102.173 112.452 105.296 114.094 107.391 116.794L102.642 121.085C101.439 119.79 100.204 119.019 98.4113 119.183C95.9416 119.41 94.3498 121.765 94.5907 124.394L94.598 124.473C94.8534 127.262 96.7995 129.212 99.3488 128.979C101.181 128.811 102.26 127.869 103.287 126.369L108.682 129.57C106.96 132.7 104.274 134.954 99.5741 135.385Z"></path>
<path mask="url(#path-1-outside-1_1765_440)" stroke-linejoin="round" stroke-width="4.03859" stroke="#7523E3" d="M113.761 133.563L111.097 104.485L118.665 103.792L119.625 114.268C120.855 112.347 122.697 110.532 125.764 110.251C130.345 109.831 133.371 112.607 133.819 117.506L135.111 131.607L127.583 132.297L126.513 120.626C126.295 118.236 124.943 117.074 123.111 117.242C121.278 117.41 120.041 118.809 120.26 121.199L121.329 132.87L113.761 133.563Z"></path>
<path mask="url(#path-1-outside-1_1765_440)" stroke-linejoin="round" stroke-width="4.03859" stroke="#7523E3" d="M152.039 130.579C145.188 131.206 139.746 126.604 139.184 120.469L139.176 120.39C138.614 114.255 143.163 108.657 150.054 108.026C156.945 107.394 162.387 111.997 162.949 118.131L162.957 118.211C163.519 124.345 158.97 129.944 152.039 130.579ZM151.532 124.158C154.28 123.906 155.872 121.551 155.635 118.962L155.627 118.883C155.383 116.214 153.227 114.162 150.558 114.406C147.809 114.658 146.257 117.01 146.498 119.638L146.506 119.718C146.746 122.347 148.863 124.403 151.532 124.158Z"></path>
<path mask="url(#path-1-outside-1_1765_440)" stroke-linejoin="round" stroke-width="4.03859" stroke="#7523E3" d="M180.172 128.001C173.32 128.629 167.878 124.026 167.316 117.892L167.308 117.812C166.747 111.678 171.295 106.08 178.186 105.449C185.077 104.817 190.52 109.42 191.082 115.554L191.089 115.634C191.651 121.768 187.103 127.366 180.172 128.001ZM179.664 121.581C182.412 121.329 184.004 118.974 183.767 116.385L183.76 116.305C183.515 113.637 181.359 111.585 178.69 111.829C175.942 112.081 174.39 114.432 174.63 117.061L174.638 117.141C174.879 119.77 176.995 121.825 179.664 121.581Z"></path>
<path mask="url(#path-1-outside-1_1765_440)" stroke-linejoin="round" stroke-width="4.03859" stroke="#7523E3" d="M197.462 125.895L194.798 96.8171L202.326 96.1274L204.99 125.206L197.462 125.895Z"></path>
<path mask="url(#path-1-outside-1_1765_440)" stroke-linejoin="round" stroke-width="4.03859" stroke="#7523E3" d="M39.3069 188.585L38.3508 178.148L26.1171 161.676L34.9202 160.869L41.5867 170.501L46.432 159.815L55.0758 159.023L46.0675 177.321L47.0345 187.877L39.3069 188.585Z"></path>
<path mask="url(#path-1-outside-1_1765_440)" stroke-linejoin="round" stroke-width="4.03859" stroke="#7523E3" d="M67.9269 186.485C61.1552 187.105 55.9592 183.002 55.3498 176.35L55.3425 176.271C54.766 169.977 58.811 164.585 65.1843 164.002C72.5933 163.323 76.5189 168.466 77.0991 174.8C77.1429 175.278 77.194 175.835 77.2016 176.357L62.7819 177.678C63.5947 179.973 65.417 181.011 67.7672 180.796C69.5995 180.628 70.9317 179.823 72.3465 178.167L76.8464 181.25C75.016 184.068 72.189 186.095 67.9269 186.485ZM62.3085 173.825L69.837 173.135C69.3392 170.771 67.7665 169.388 65.6952 169.578C63.7035 169.761 62.4879 171.398 62.3085 173.825Z"></path>
<path mask="url(#path-1-outside-1_1765_440)" stroke-linejoin="round" stroke-width="4.03859" stroke="#7523E3" d="M89.5306 184.466C85.4277 184.842 82.1018 182.736 81.7113 178.474L81.704 178.395C81.2917 173.893 84.4695 171.313 89.5283 170.849C91.52 170.667 93.5047 170.847 94.7833 171.211L94.7505 170.853C94.5425 168.582 93.0315 167.435 90.1237 167.702C87.8532 167.91 86.1443 168.548 84.2582 169.444L82.2194 164.289C84.558 163.07 87.0851 162.156 90.7896 161.817C94.6534 161.463 97.3663 162.138 99.2361 163.694C101.015 165.138 101.897 167.306 102.174 170.333L103.309 182.722L95.8601 183.404L95.6521 181.133C94.288 182.905 92.3587 184.207 89.5306 184.466ZM91.805 179.478C94.0356 179.273 95.4614 177.737 95.2644 175.586L95.1731 174.59C94.3473 174.344 93.2499 174.204 92.1346 174.306C89.9437 174.507 88.7639 175.659 88.9136 177.292L88.9209 177.372C89.0559 178.846 90.2515 179.62 91.805 179.478Z"></path>
<path mask="url(#path-1-outside-1_1765_440)" stroke-linejoin="round" stroke-width="4.03859" stroke="#7523E3" d="M109.15 182.187L107.176 160.637L114.744 159.943L115.142 164.285C116.106 161.224 117.923 159.13 121.523 158.961L122.252 166.928L121.615 166.986C117.672 167.347 115.649 169.822 116.101 174.761L116.718 181.493L109.15 182.187Z"></path>
<path mask="url(#path-1-outside-1_1765_440)" stroke-linejoin="round" stroke-width="4.03859" stroke="#7523E3" d="M141.657 179.209L139.102 151.325L151.092 150.227C158.103 149.585 162.976 152.794 163.538 158.928L163.545 159.008C164.151 165.62 159.41 169.549 152.518 170.18L148.655 170.534L149.384 178.501L141.657 179.209ZM148.1 164.479L151.804 164.14C154.513 163.892 156.091 162.261 155.89 160.07L155.883 159.991C155.664 157.601 153.838 156.523 151.089 156.775L147.425 157.11L148.1 164.479Z"></path>
<path mask="url(#path-1-outside-1_1765_440)" stroke-linejoin="round" stroke-width="4.03859" stroke="#7523E3" d="M175.647 176.577C171.544 176.953 168.218 174.847 167.827 170.585L167.82 170.505C167.408 166.004 170.585 163.424 175.644 162.96C177.636 162.778 179.621 162.957 180.899 163.322L180.866 162.964C180.658 160.693 179.147 159.546 176.24 159.813C173.969 160.021 172.26 160.659 170.374 161.555L168.335 156.4C170.674 155.181 173.201 154.267 176.906 153.928C180.769 153.574 183.482 154.249 185.352 155.805C187.131 157.248 188.013 159.417 188.29 162.444L189.425 174.833L181.976 175.515L181.768 173.244C180.404 175.016 178.475 176.318 175.647 176.577ZM177.921 171.589C180.152 171.384 181.577 169.848 181.38 167.697L181.289 166.701C180.463 166.455 179.366 166.315 178.251 166.417C176.06 166.618 174.88 167.77 175.03 169.403L175.037 169.483C175.172 170.957 176.367 171.731 177.921 171.589Z"></path>
<path mask="url(#path-1-outside-1_1765_440)" stroke-linejoin="round" stroke-width="4.03859" stroke="#7523E3" d="M206.452 179.78C202.31 180.159 198.724 179.604 195.471 178.295L197.441 173.054C199.868 174.117 202.248 174.662 205.156 174.396C208.9 174.053 210.601 172.009 210.287 168.583L210.21 167.747C208.857 169.638 207.001 171.294 203.894 171.579C198.596 172.064 193.944 168.635 193.378 162.46L193.371 162.381C192.801 156.167 196.833 151.941 201.772 151.489C205.038 151.19 207.071 152.329 208.821 153.896L208.587 151.346L216.156 150.653L217.656 167.025C218.017 170.968 217.396 173.837 215.655 175.884C213.886 178.054 210.954 179.367 206.452 179.78ZM205.592 165.559C208.181 165.322 209.849 163.362 209.63 160.972L209.623 160.892C209.404 158.502 207.367 156.881 204.818 157.114C202.229 157.352 200.561 159.312 200.783 161.742L200.791 161.821C201.01 164.211 203.002 165.796 205.592 165.559Z"></path>
<path mask="url(#path-1-outside-1_1765_440)" stroke-linejoin="round" stroke-width="4.03859" stroke="#7523E3" d="M234.938 171.185C228.167 171.806 222.971 167.703 222.361 161.05L222.354 160.971C221.778 154.677 225.823 149.286 232.196 148.702C239.605 148.023 243.53 153.166 244.111 159.5C244.154 159.978 244.206 160.535 244.213 161.057L229.794 162.378C230.606 164.673 232.429 165.711 234.779 165.496C236.611 165.328 237.943 164.523 239.358 162.867L243.858 165.95C242.028 168.768 239.201 170.795 234.938 171.185ZM229.32 158.525L236.849 157.835C236.351 155.471 234.778 154.089 232.707 154.278C230.715 154.461 229.499 156.099 229.32 158.525Z"></path>
</g>
<defs>
<filter color-interpolation-filters="sRGB" filterUnits="userSpaceOnUse" height="193.269" width="245.681" y="0.70047" x="0.551497" id="filter0_d_1765_440">
<feFlood result="BackgroundImageFix" flood-opacity="0"></feFlood>
<feColorMatrix result="hardAlpha" values="0 0 0 0 0 0 0 0 0 0 0 0 0 0 0 0 0 0 127 0" type="matrix" in="SourceAlpha"></feColorMatrix>
<feOffset dy="3.3655" dx="-3.3655"></feOffset>
<feComposite operator="out" in2="hardAlpha"></feComposite>
<feColorMatrix values="0 0 0 0 0.458824 0 0 0 0 0.137255 0 0 0 0 0.890196 0 0 0 1 0" type="matrix"></feColorMatrix>
<feBlend result="effect1_dropShadow_1765_440" in2="BackgroundImageFix" mode="normal"></feBlend>
<feBlend result="shape" in2="effect1_dropShadow_1765_440" in="SourceGraphic" mode="normal"></feBlend>
</filter>
</defs>
</svg>
