<svg width="566" height="30" viewBox="0 0 566 30" fill="none" xmlns="http://www.w3.org/2000/svg">
<path d="M0.675469 0.866502H10.7555L11.9555 26.9465L13.2355 0.866502H26.7155L27.9555 26.9465L29.1955 0.866502H39.1555L35.9155 28.6665H21.1955L19.9555 2.7465L18.7555 28.6665H3.91547L0.675469 0.866502ZM56.377 18.0665H50.657V28.6665H40.617V0.866502H50.657V10.8265H56.377V0.866502H66.417V28.6665H56.377V18.0665ZM76.622 18.2665L67.902 0.866502H78.102L81.702 9.4665L85.262 0.866502H95.342L86.662 18.2665V28.6665H76.622V18.2665ZM115.567 18.2665L106.847 0.866502H117.047L120.647 9.4665L124.207 0.866502H134.287L125.607 18.2665V28.6665H115.567V18.2665ZM146.061 29.2265C143.928 29.2265 141.981 28.8798 140.221 28.1865C138.488 27.4932 136.995 26.5198 135.741 25.2665C134.515 24.0132 133.555 22.4932 132.861 20.7065C132.195 18.9198 131.861 16.9332 131.861 14.7465C131.861 12.5598 132.195 10.5865 132.861 8.8265C133.555 7.03984 134.515 5.51984 135.741 4.2665C136.995 2.9865 138.488 2.01317 140.221 1.3465C141.981 0.653169 143.928 0.306502 146.061 0.306502C148.195 0.306502 150.128 0.653169 151.861 1.3465C153.621 2.01317 155.115 2.9865 156.341 4.2665C157.595 5.51984 158.555 7.03984 159.221 8.8265C159.915 10.5865 160.261 12.5598 160.261 14.7465C160.261 16.9332 159.915 18.9198 159.221 20.7065C158.555 22.4932 157.595 24.0132 156.341 25.2665C155.115 26.5198 153.621 27.4932 151.861 28.1865C150.128 28.8798 148.195 29.2265 146.061 29.2265ZM146.061 21.6665C147.448 21.6665 148.488 21.0398 149.181 19.7865C149.875 18.5332 150.221 16.8532 150.221 14.7465C150.221 12.6665 149.875 10.9998 149.181 9.7465C148.488 8.49317 147.448 7.8665 146.061 7.8665C144.675 7.8665 143.635 8.49317 142.941 9.7465C142.248 10.9998 141.901 12.6665 141.901 14.7465C141.901 16.8532 142.248 18.5332 142.941 19.7865C143.635 21.0398 144.675 21.6665 146.061 21.6665ZM174.978 29.2265C172.951 29.2265 171.138 28.9732 169.538 28.4665C167.938 27.9598 166.591 27.2398 165.498 26.3065C164.404 25.3465 163.564 24.1998 162.978 22.8665C162.418 21.5065 162.138 19.9865 162.138 18.3065V0.866502H172.178V18.7465C172.178 19.6798 172.431 20.3998 172.938 20.9065C173.444 21.4132 174.124 21.6665 174.978 21.6665C175.831 21.6665 176.511 21.4132 177.018 20.9065C177.524 20.3998 177.778 19.6798 177.778 18.7465V0.866502H187.818V18.3065C187.818 19.9865 187.524 21.5065 186.938 22.8665C186.378 24.1998 185.551 25.3465 184.458 26.3065C183.364 27.2398 182.018 27.9598 180.418 28.4665C178.844 28.9732 177.031 29.2265 174.978 29.2265ZM216.24 29.2265C214.96 29.2265 213.76 29.1332 212.64 28.9465C211.547 28.7865 210.573 28.5865 209.72 28.3465C208.867 28.1065 208.147 27.8665 207.56 27.6265C206.973 27.3598 206.547 27.1465 206.28 26.9865V20.3065C207.32 20.7332 208.533 21.1198 209.92 21.4665C211.333 21.8132 212.92 21.9865 214.68 21.9865C216.013 21.9865 216.92 21.8265 217.4 21.5065C217.88 21.1598 218.12 20.6932 218.12 20.1065C218.12 19.5998 217.933 19.2132 217.56 18.9465C217.213 18.6798 216.653 18.4398 215.88 18.2265L215.24 18.0665C213.88 17.7198 212.613 17.3198 211.44 16.8665C210.293 16.4132 209.293 15.8532 208.44 15.1865C207.613 14.4932 206.96 13.6665 206.48 12.7065C206.027 11.7465 205.8 10.5865 205.8 9.2265C205.8 7.9465 206.04 6.77317 206.52 5.7065C207.027 4.61317 207.747 3.6665 208.68 2.8665C209.613 2.0665 210.76 1.43984 212.12 0.986503C213.48 0.533169 215.027 0.306502 216.76 0.306502C217.88 0.306502 218.92 0.373168 219.88 0.506502C220.867 0.613169 221.747 0.759836 222.52 0.946503C223.32 1.13317 224.013 1.33317 224.6 1.5465C225.213 1.75984 225.693 1.95984 226.04 2.1465V8.7465C225.16 8.45317 224.093 8.1865 222.84 7.9465C221.587 7.67984 220.2 7.5465 218.68 7.5465C217.56 7.5465 216.773 7.67984 216.32 7.9465C215.893 8.1865 215.68 8.5465 215.68 9.0265C215.68 9.47984 215.853 9.8265 216.2 10.0665C216.547 10.2798 217.12 10.4932 217.92 10.7065L218.52 10.8665C219.907 11.2132 221.173 11.6132 222.32 12.0665C223.467 12.5198 224.453 13.0798 225.28 13.7465C226.133 14.3865 226.787 15.1865 227.24 16.1465C227.72 17.1065 227.96 18.2665 227.96 19.6265C227.96 21.0398 227.707 22.3465 227.2 23.5465C226.693 24.7198 225.947 25.7332 224.96 26.5865C223.973 27.4132 222.747 28.0665 221.28 28.5465C219.813 28.9998 218.133 29.2265 216.24 29.2265ZM245.713 18.0665H239.993V28.6665H229.953V0.866502H239.993V10.8265H245.713V0.866502H255.753V28.6665H245.713V18.0665ZM271.882 29.2265C269.748 29.2265 267.802 28.8798 266.042 28.1865C264.308 27.4932 262.815 26.5198 261.562 25.2665C260.335 24.0132 259.375 22.4932 258.682 20.7065C258.015 18.9198 257.682 16.9332 257.682 14.7465C257.682 12.5598 258.015 10.5865 258.682 8.8265C259.375 7.03984 260.335 5.51984 261.562 4.2665C262.815 2.9865 264.308 2.01317 266.042 1.3465C267.802 0.653169 269.748 0.306502 271.882 0.306502C274.015 0.306502 275.948 0.653169 277.682 1.3465C279.442 2.01317 280.935 2.9865 282.162 4.2665C283.415 5.51984 284.375 7.03984 285.042 8.8265C285.735 10.5865 286.082 12.5598 286.082 14.7465C286.082 16.9332 285.735 18.9198 285.042 20.7065C284.375 22.4932 283.415 24.0132 282.162 25.2665C280.935 26.5198 279.442 27.4932 277.682 28.1865C275.948 28.8798 274.015 29.2265 271.882 29.2265ZM271.882 21.6665C273.268 21.6665 274.308 21.0398 275.002 19.7865C275.695 18.5332 276.042 16.8532 276.042 14.7465C276.042 12.6665 275.695 10.9998 275.002 9.7465C274.308 8.49317 273.268 7.8665 271.882 7.8665C270.495 7.8665 269.455 8.49317 268.762 9.7465C268.068 10.9998 267.722 12.6665 267.722 14.7465C267.722 16.8532 268.068 18.5332 268.762 19.7865C269.455 21.0398 270.495 21.6665 271.882 21.6665ZM300.798 29.2265C298.771 29.2265 296.958 28.9732 295.358 28.4665C293.758 27.9598 292.411 27.2398 291.318 26.3065C290.225 25.3465 289.385 24.1998 288.798 22.8665C288.238 21.5065 287.958 19.9865 287.958 18.3065V0.866502H297.998V18.7465C297.998 19.6798 298.251 20.3998 298.758 20.9065C299.265 21.4132 299.945 21.6665 300.798 21.6665C301.651 21.6665 302.331 21.4132 302.838 20.9065C303.345 20.3998 303.598 19.6798 303.598 18.7465V0.866502H313.638V18.3065C313.638 19.9865 313.345 21.5065 312.758 22.8665C312.198 24.1998 311.371 25.3465 310.278 26.3065C309.185 27.2398 307.838 27.9598 306.238 28.4665C304.665 28.9732 302.851 29.2265 300.798 29.2265ZM315.851 0.866502H325.891V21.2665H334.931V28.6665H315.851V0.866502ZM336.633 0.866502H348.553C351.086 0.866502 353.286 1.1865 355.153 1.8265C357.019 2.4665 358.566 3.3865 359.793 4.5865C361.046 5.75984 361.966 7.21317 362.553 8.9465C363.166 10.6532 363.473 12.5865 363.473 14.7465C363.473 16.9065 363.166 18.8532 362.553 20.5865C361.966 22.2932 361.046 23.7465 359.793 24.9465C358.566 26.1465 357.019 27.0665 355.153 27.7065C353.286 28.3465 351.086 28.6665 348.553 28.6665H336.633V0.866502ZM348.313 21.2665C349.966 21.2665 351.219 20.7732 352.073 19.7865C352.953 18.7998 353.393 17.1198 353.393 14.7465C353.393 12.3732 352.953 10.7065 352.073 9.7465C351.219 8.75984 349.966 8.2665 348.313 8.2665H346.673V21.2665H348.313ZM375.759 0.866502H400.799V8.2665H393.319V28.6665H383.279V8.2665H375.759V0.866502ZM412.61 18.1465V28.6665H402.57V0.866502H415.29C419.343 0.866502 422.41 1.61317 424.49 3.1065C426.597 4.57317 427.65 6.7465 427.65 9.6265C427.65 13.3332 425.81 15.8265 422.13 17.1065L429.09 28.6665H418.49L412.61 18.1465ZM412.61 7.9865V13.4665H414.81C415.797 13.4665 416.543 13.2265 417.05 12.7465C417.583 12.2665 417.85 11.5998 417.85 10.7465C417.85 9.8665 417.583 9.1865 417.05 8.7065C416.543 8.2265 415.797 7.9865 414.81 7.9865H412.61ZM442.087 29.2265C440.06 29.2265 438.247 28.9732 436.647 28.4665C435.047 27.9598 433.7 27.2398 432.607 26.3065C431.514 25.3465 430.674 24.1998 430.087 22.8665C429.527 21.5065 429.247 19.9865 429.247 18.3065V0.866502H439.287V18.7465C439.287 19.6798 439.54 20.3998 440.047 20.9065C440.554 21.4132 441.234 21.6665 442.087 21.6665C442.94 21.6665 443.62 21.4132 444.127 20.9065C444.634 20.3998 444.887 19.6798 444.887 18.7465V0.866502H454.927V18.3065C454.927 19.9865 454.634 21.5065 454.047 22.8665C453.487 24.1998 452.66 25.3465 451.567 26.3065C450.474 27.2398 449.127 27.9598 447.527 28.4665C445.954 28.9732 444.14 29.2265 442.087 29.2265ZM467.139 29.2265C465.859 29.2265 464.659 29.1332 463.539 28.9465C462.445 28.7865 461.472 28.5865 460.619 28.3465C459.765 28.1065 459.045 27.8665 458.459 27.6265C457.872 27.3598 457.445 27.1465 457.179 26.9865V20.3065C458.219 20.7332 459.432 21.1198 460.819 21.4665C462.232 21.8132 463.819 21.9865 465.579 21.9865C466.912 21.9865 467.819 21.8265 468.299 21.5065C468.779 21.1598 469.019 20.6932 469.019 20.1065C469.019 19.5998 468.832 19.2132 468.459 18.9465C468.112 18.6798 467.552 18.4398 466.779 18.2265L466.139 18.0665C464.779 17.7198 463.512 17.3198 462.339 16.8665C461.192 16.4132 460.192 15.8532 459.339 15.1865C458.512 14.4932 457.859 13.6665 457.379 12.7065C456.925 11.7465 456.699 10.5865 456.699 9.2265C456.699 7.9465 456.939 6.77317 457.419 5.7065C457.925 4.61317 458.645 3.6665 459.579 2.8665C460.512 2.0665 461.659 1.43984 463.019 0.986503C464.379 0.533169 465.925 0.306502 467.659 0.306502C468.779 0.306502 469.819 0.373168 470.779 0.506502C471.765 0.613169 472.645 0.759836 473.419 0.946503C474.219 1.13317 474.912 1.33317 475.499 1.5465C476.112 1.75984 476.592 1.95984 476.939 2.1465V8.7465C476.059 8.45317 474.992 8.1865 473.739 7.9465C472.485 7.67984 471.099 7.5465 469.579 7.5465C468.459 7.5465 467.672 7.67984 467.219 7.9465C466.792 8.1865 466.579 8.5465 466.579 9.0265C466.579 9.47984 466.752 9.8265 467.099 10.0665C467.445 10.2798 468.019 10.4932 468.819 10.7065L469.419 10.8665C470.805 11.2132 472.072 11.6132 473.219 12.0665C474.365 12.5198 475.352 13.0798 476.179 13.7465C477.032 14.3865 477.685 15.1865 478.139 16.1465C478.619 17.1065 478.859 18.2665 478.859 19.6265C478.859 21.0398 478.605 22.3465 478.099 23.5465C477.592 24.7198 476.845 25.7332 475.859 26.5865C474.872 27.4132 473.645 28.0665 472.179 28.5465C470.712 28.9998 469.032 29.2265 467.139 29.2265ZM478.65 0.866502H503.69V8.2665H496.21V28.6665H486.17V8.2665H478.65V0.866502ZM529.04 29.2265C527.013 29.2265 525.2 28.9732 523.6 28.4665C522 27.9598 520.653 27.2398 519.56 26.3065C518.467 25.3465 517.627 24.1998 517.04 22.8665C516.48 21.5065 516.2 19.9865 516.2 18.3065V0.866502H526.24V18.7465C526.24 19.6798 526.493 20.3998 527 20.9065C527.507 21.4132 528.187 21.6665 529.04 21.6665C529.893 21.6665 530.573 21.4132 531.08 20.9065C531.587 20.3998 531.84 19.6798 531.84 18.7465V0.866502H541.88V18.3065C541.88 19.9865 541.587 21.5065 541 22.8665C540.44 24.1998 539.613 25.3465 538.52 26.3065C537.427 27.2398 536.08 27.9598 534.48 28.4665C532.907 28.9732 531.093 29.2265 529.04 29.2265ZM554.092 29.2265C552.812 29.2265 551.612 29.1332 550.492 28.9465C549.398 28.7865 548.425 28.5865 547.572 28.3465C546.718 28.1065 545.998 27.8665 545.412 27.6265C544.825 27.3598 544.398 27.1465 544.132 26.9865V20.3065C545.172 20.7332 546.385 21.1198 547.772 21.4665C549.185 21.8132 550.772 21.9865 552.532 21.9865C553.865 21.9865 554.772 21.8265 555.252 21.5065C555.732 21.1598 555.972 20.6932 555.972 20.1065C555.972 19.5998 555.785 19.2132 555.412 18.9465C555.065 18.6798 554.505 18.4398 553.732 18.2265L553.092 18.0665C551.732 17.7198 550.465 17.3198 549.292 16.8665C548.145 16.4132 547.145 15.8532 546.292 15.1865C545.465 14.4932 544.812 13.6665 544.332 12.7065C543.878 11.7465 543.652 10.5865 543.652 9.2265C543.652 7.9465 543.892 6.77317 544.372 5.7065C544.878 4.61317 545.598 3.6665 546.532 2.8665C547.465 2.0665 548.612 1.43984 549.972 0.986503C551.332 0.533169 552.878 0.306502 554.612 0.306502C555.732 0.306502 556.772 0.373168 557.732 0.506502C558.718 0.613169 559.598 0.759836 560.372 0.946503C561.172 1.13317 561.865 1.33317 562.452 1.5465C563.065 1.75984 563.545 1.95984 563.892 2.1465V8.7465C563.012 8.45317 561.945 8.1865 560.692 7.9465C559.438 7.67984 558.052 7.5465 556.532 7.5465C555.412 7.5465 554.625 7.67984 554.172 7.9465C553.745 8.1865 553.532 8.5465 553.532 9.0265C553.532 9.47984 553.705 9.8265 554.052 10.0665C554.398 10.2798 554.972 10.4932 555.772 10.7065L556.372 10.8665C557.758 11.2132 559.025 11.6132 560.172 12.0665C561.318 12.5198 562.305 13.0798 563.132 13.7465C563.985 14.3865 564.638 15.1865 565.092 16.1465C565.572 17.1065 565.812 18.2665 565.812 19.6265C565.812 21.0398 565.558 22.3465 565.052 23.5465C564.545 24.7198 563.798 25.7332 562.812 26.5865C561.825 27.4132 560.598 28.0665 559.132 28.5465C557.665 28.9998 555.985 29.2265 554.092 29.2265Z" fill="#B5FDFF"/>
</svg>
