<svg xmlns="http://www.w3.org/2000/svg" fill="none" viewBox="0 0 26 26" height="26" width="26">
<g clip-path="url(#clip0_43_184)">
<path fill="#FF92F5" d="M24.6756 11.0993C23.9312 10.9154 23.3263 10.5536 22.8518 10.0643C22.7628 9.9724 22.6798 9.8775 22.6027 9.77964C22.057 9.09461 21.7189 8.20495 21.5707 7.19075C21.5618 7.12847 21.4728 7.12847 21.4639 7.19075C21.1733 9.22509 20.1116 10.6871 18.3294 11.1082C18.273 11.1201 18.273 11.1972 18.3294 11.212C19.2101 11.4344 19.8774 11.8733 20.3726 12.4575C20.3874 12.4753 20.4052 12.4931 20.4201 12.5109C20.9924 13.2137 21.3245 14.1152 21.4639 15.1087C21.4728 15.1709 21.5618 15.1709 21.5707 15.1087C21.8524 13.1277 22.8429 11.6301 24.6756 11.2031C24.7319 11.1883 24.7349 11.1112 24.6756 11.0993Z"></path>
<path fill="#FF92F5" d="M16.703 15.6274C16.0506 16.437 15.2291 17.1043 14.2891 17.5669C13.3371 18.0354 12.2666 18.2994 11.1367 18.2994C8.88295 18.2994 6.8753 17.2555 5.56454 15.6304C3.39676 17.3 2 19.9215 2 22.8692H20.2705C20.2705 19.9215 18.8708 17.3 16.703 15.6304V15.6274Z"></path>
<path fill="#FBDE62" d="M16.7044 15.6278C17.0425 15.2096 17.336 14.7559 17.5733 14.2666C18.03 13.3236 18.288 12.2678 18.288 11.1498C18.288 7.19979 15.0852 4 11.1381 4C7.19103 4 3.98828 7.20275 3.98828 11.1498C3.98828 12.8461 4.58138 14.406 5.5689 15.6307C7.11096 14.4416 9.04151 13.7328 11.1411 13.7328C13.2407 13.7328 15.1683 14.4416 16.7103 15.6278H16.7044Z"></path>
<path fill="#F337D8" d="M11.1338 18.2998C12.2666 18.2998 13.3371 18.0359 14.2861 17.5673C15.2262 17.1047 16.0476 16.4375 16.7 15.6279C15.1579 14.4417 13.2274 13.7329 11.1308 13.7329C9.03417 13.7329 7.10066 14.4417 5.55859 15.6308C6.86935 17.2589 8.877 18.2998 11.1308 18.2998H11.1338Z"></path>
</g>
<defs>
<clipPath id="clip0_43_184">
<rect fill="white" height="26" width="26"></rect>
</clipPath>
</defs>
</svg>
