<svg xmlns="http://www.w3.org/2000/svg" viewBox="0 0 1232 140"><style>.st0{fill:#fff}</style><path class="st0" d="M839.8 0c-32.2 0-58.5 26.2-58.5 58.4s26.2 58.5 58.5 58.5c32.2 0 58.5-26.2 58.5-58.5C898.3 26.2 872 0 839.8 0zm0 92.8c-19 0-34.5-15.4-34.5-34.5 0-19 15.4-34.5 34.5-34.5s34.5 15.4 34.5 34.5-15.5 34.5-34.5 34.5z"/><path class="st0" d="M863 64.2c-1.5-.6-3.3.1-3.9 1.5-3.3 7.6-10.9 12.6-19.2 12.6-8.3 0-15.9-4.9-19.2-12.6-.6-1.5-2.4-2.2-3.9-1.5-1.5.7-2.2 2.4-1.5 3.9 4.3 9.8 14 16.1 24.7 16.1s20.4-6.3 24.7-16.1c.4-1.5-.2-3.3-1.7-3.9zM0 2.7h24.5v44h45.2v-44h24.5V114H69.6V69.3H24.5V114H0V2.7zm121 0h84v21.8h-59.6v22.6h52.5v21.8h-52.5v23.4h60.4V114H121V2.7zm106.7 0h24.5v89h55.5V114h-80V2.7zm98.6 0h24.5v89h55.5V114h-80V2.7zm87.3 56v-.3c0-31.6 25-57.6 59.3-57.6s59 25.6 59 57.2v.3c0 31.6-25 57.6-59.3 57.6s-59-25.6-59-57.2zm92.7 0v-.3c0-19.1-14-35-33.7-35S439.2 39 439.2 58v.3c0 19.1 14 35 33.7 35 19.7 0 33.4-15.6 33.4-34.6zm31.9 71c11-1.1 16.4-6.7 15.6-15.7h-9.9V88.6h25.8V110c0 21-10.5 29.4-29.4 29.7l-2.1-10zm68.7-127h26.2l23.1 75.4 25-75.7h21l25 75.7 23.1-75.4h25.6l-38 112.1h-21.3L691.3 42l-25.1 72.8h-21.3l-38-112.1zm308.3 0h50.9c14.2 0 25.1 4 32.4 11.3 6.2 6.2 9.5 14.9 9.5 25.4v.3c0 18-9.7 29.3-23.8 34.5l27.2 39.7h-28.6L959 78.3h-19.2V114h-24.5V2.7zm49.3 54.1c11.9 0 18.8-6.4 18.8-15.7v-.3c0-10.5-7.3-15.9-19.2-15.9h-24.3v32h24.7zm65.8-54.1h24.5v89h55.5V114h-80V2.7zm98.6 0h43.4c35 0 59.1 24 59.1 55.3v.3c0 31.3-24.2 55.6-59.1 55.6h-43.4V2.7zm24.5 22.1v67.1h18.9c20 0 33.5-13.5 33.5-33.2v-.3c0-19.7-13.5-33.5-33.5-33.5h-18.9z"/></svg>