<svg xmlns="http://www.w3.org/2000/svg" viewBox="0 0 587 235"><style>.st0{fill:#fff}</style><path class="st0" d="M8 1.4h6.2v38.9H68V1.4h6.2v84H68V46.1H14.2v39.4H8V1.4zm91.4 0h59.8v5.8h-53.5v33h48.1V46h-48.1v33.7h54.1v5.8H99.4V1.4zm80.5 0h6.2v78.3h49.3v5.8h-55.6V1.4zm74.5 0h6.2v78.3h49.3v5.8h-55.6V1.4zm65.9 42.3v-.2c0-22.9 16.9-43.5 42.4-43.5s42.1 20.3 42.1 43.2v.2c0 22.9-16.9 43.5-42.4 43.5-25.4 0-42.1-20.3-42.1-43.2zm78 0v-.2c0-20.8-15.1-37.8-35.9-37.8s-35.7 16.8-35.7 37.6v.2c0 20.8 15.1 37.8 35.9 37.8s35.7-16.8 35.7-37.6zm16.9 51.6c5.2-2.6 7.1-5.3 6.7-9.8h-3.2V75.3h7.9v8.9c0 7.4-2.8 11.4-10 14.2l-1.4-3.1zm-197.2 29c-30.3 0-54.9 24.6-54.9 54.9 0 30.3 24.6 54.9 54.9 54.9 30.3 0 54.9-24.6 54.9-54.9 0-30.2-24.6-54.9-54.9-54.9zm0 87.2c-17.9 0-32.4-14.5-32.4-32.4s14.5-32.4 32.4-32.4 32.4 14.5 32.4 32.4-14.5 32.4-32.4 32.4z"/><path class="st0" d="M239.8 184.6c-1.4-.6-3.1.1-3.7 1.4-3.1 7.2-10.2 11.8-18.1 11.8-7.8 0-14.9-4.6-18.1-11.8-.6-1.4-2.3-2-3.7-1.4-1.4.6-2 2.3-1.4 3.7 4 9.2 13.1 15.1 23.2 15.1 10 0 19.1-5.9 23.2-15.1.6-1.5 0-3.1-1.4-3.7zM0 126.9h24.6l21.6 70.8 23.4-71.1h19.7l23.4 71.1 21.6-70.8h24l-35.7 105.3h-20L79 163.8l-23.6 68.4h-20L0 126.9zm289.5 0h47.8c13.3 0 23.6 3.7 30.5 10.6 5.8 5.8 9 14 9 23.9v.3c0 16.9-9.1 27.5-22.4 32.4l25.5 37.3H353L330.6 198h-18.1v33.4h-23V126.9zm46.3 50.7c11.2 0 17.6-6 17.6-14.8v-.3c0-9.9-6.9-14.9-18.1-14.9h-22.8v30h23.3zm61.8-50.7h23v83.6h52.1v20.9h-75.1V126.9zm92.5 0h40.8c32.8 0 55.5 22.5 55.5 52v.3c0 29.4-22.7 52.3-55.5 52.3h-40.8V126.9zm23 20.7v63h17.8c18.8 0 31.5-12.7 31.5-31.2v-.3c0-18.5-12.7-31.5-31.5-31.5h-17.8z"/></svg>