<svg width="50" height="47" fill="none" xmlns="http://www.w3.org/2000/svg"><g clip-path="url(#clip0_305:2030)" fill="#B41F84"><path d="M37.87 21.2a1.7 1.7 0 0 0-2.19.86 11.77 11.77 0 0 1-21.54 0 1.68 1.68 0 0 0-2.14-.85 1.66 1.66 0 0 0-.85 2.19 15.09 15.09 0 0 0 27.62 0 1.67 1.67 0 0 0-.9-2.2z"/><path d="M49.76 33.6l-6.37-18.23V8.89a6 6 0 0 0-6-6h-3.55V1.77a1.77 1.77 0 0 0-3.54 0V2.9H13.09V1.77a1.77 1.77 0 0 0-3.54 0V2.9H6a6 6 0 0 0-6 6v31.4a6 6 0 0 0 6 6h31.4a5.912 5.912 0 0 0 4.23-1.76 1.75 1.75 0 0 0 0-2.5 1.77 1.77 0 0 0-2.5 0 2.4 2.4 0 0 1-1.73.72H6a2.45 2.45 0 0 1-2.46-2.46V26.09l3 8.67c.87 2.49 3.88 4.36 7 4.36H45a5.15 5.15 0 0 0 4.32-1.94 3.87 3.87 0 0 0 .44-3.58zm-3.34 1.53a1.82 1.82 0 0 1-1.44.45H13.57c-1.7 0-3.33-1-3.66-2L3.54 15.37V8.89A2.45 2.45 0 0 1 6 6.44h3.55v.89a1.77 1.77 0 0 0 3.54 0v-.89H30.3v.89a1.77 1.77 0 0 0 3.54 0v-.89h3.56a2.45 2.45 0 0 1 2.45 2.45v5H8.21a1.77 1.77 0 0 0 0 3.54h32.15l6.06 17.33c.08.24.03.33 0 .37z"/></g><defs><clipPath id="clip0_305:2030"><path fill="#fff" d="M0 0h50v46.29H0z"/></clipPath></defs></svg>