<svg width="23" height="28" viewBox="0 0 23 28" fill="none" xmlns="http://www.w3.org/2000/svg">
<path d="M14 28C10.287 28 6.72601 26.525 4.10051 23.8995C1.475 21.274 4.91552e-07 17.713 1.66948e-07 14C-1.57655e-07 10.287 1.475 6.72602 4.1005 4.10051C6.72601 1.475 10.287 4.37981e-07 14 -1.66948e-07L14 14L14 28Z" fill="#F38972"/>
<path d="M23 28C19.287 28 15.726 26.525 13.1005 23.8995C10.475 21.274 9 17.713 9 14C9 10.287 10.475 6.72602 13.1005 4.10051C15.726 1.475 19.287 4.37981e-07 23 -1.66948e-07L23 14L23 28Z" fill="#FF92F5" fill-opacity="0.7"/>
</svg>
