<svg width="35" height="34" viewBox="0 0 35 34" fill="none" xmlns="http://www.w3.org/2000/svg">
<path d="M20 0C23.9782 5.18372e-07 27.7936 1.58035 30.6066 4.3934C33.4196 7.20645 35 11.0218 35 15C35 18.9782 33.4196 22.7936 30.6066 25.6066C27.7936 28.4196 23.9782 30 20 30L20 0Z" fill="#F38972"/>
<path d="M15 1.31134e-06L20 0L20 30L15 30V1.31134e-06Z" fill="#F38972"/>
<path d="M15 4C11.0218 4 7.20644 5.58035 4.3934 8.3934C1.58035 11.2064 1.23111e-07 15.0218 0 19C-1.23111e-07 22.9782 1.58035 26.7936 4.3934 29.6066C7.20644 32.4196 11.0218 34 15 34C15 22.2843 15 15.7157 15 4Z" fill="#FF92F5"/>
<path d="M15 4L20 4V34H15C15 22.2843 15 15.7157 15 4Z" fill="#FF92F5"/>
<path d="M15 4L20 4V30L15 30L15 4Z" fill="#F337D8"/>
</svg>
