<svg xmlns="http://www.w3.org/2000/svg" viewBox="0 0 33 33"><style>.st0{fill:#bc1b8b}</style><circle class="st0" cx="16.5" cy="16.5" r="16.5"/><path d="M26.4 13.2c-.5-2.7-2.7-4.8-5.6-4.9-3.2.1-4.2 2.5-4.2 2.5s-1-2.4-4.2-2.5c-2.9.1-5.1 2.1-5.6 4.9-.4 2.3.2 4.7 1.6 6.6.8 1.2 3.2 4.1 7.4 6.3.1 0 .2.1.3.1.2.1.3.1.5.1s.3-.1.5-.1c.1-.1.2-.1.3-.2 4.3-2.2 6.6-5.1 7.4-6.3 1.4-1.8 2.1-4.2 1.6-6.5zm-9.7-2.3" fill="#fff"/><path class="st0" d="M21.2 17.5c-.3-.1-.6 0-.8.3-.7 1.5-2.1 2.5-3.8 2.5-1.6 0-3.1-1-3.8-2.5-.1-.3-.5-.4-.8-.3-.3.1-.4.5-.3.8.8 1.9 2.7 3.2 4.9 3.2s4-1.2 4.9-3.2c.2-.3 0-.7-.3-.8z"/></svg>